<?xml version="1.0" standalone="no"?>
<!DOCTYPE svg PUBLIC "-//W3C//DTD SVG 20010904//EN"
 "http://www.w3.org/TR/2001/REC-SVG-20010904/DTD/svg10.dtd">
<svg version="1.0" xmlns="http://www.w3.org/2000/svg"
 width="700.000000pt" height="700.000000pt" viewBox="0 0 700.000000 700.000000"
 preserveAspectRatio="xMidYMid meet">
<metadata>
Created by potrace 1.14, written by Peter Selinger 2001-2017
</metadata>
<g transform="translate(0.000000,700.000000) scale(0.100000,-0.100000)"
fill="#000000" stroke="none">
<path d="M0 3500 l0 -3500 3500 0 3500 0 0 3500 0 3500 -3500 0 -3500 0 0
-3500z m2730 570 c415 -858 756 -1560 760 -1560 3 0 303 701 667 1558 l662
1557 686 3 685 2 0 -95 0 -95 -275 0 -275 0 0 -1900 0 -1900 203 0 c191 0 204
-2 242 -23 38 -21 86 -86 100 -134 l6 -23 -965 0 -966 0 0 90 0 90 280 0 280
0 0 1658 c-1 1387 -3 1652 -14 1627 -17 -39 -1507 -3496 -1513 -3512 -3 -9
-28 -13 -72 -13 l-66 0 -537 1068 c-295 587 -632 1254 -747 1482 l-211 415 0
-1362 0 -1362 214 -3 214 -3 38 -31 c36 -29 83 -103 84 -131 0 -10 -147 -13
-700 -13 l-700 0 0 90 0 90 275 0 275 0 0 1900 0 1900 -275 0 -275 0 0 95 0
95 583 0 584 0 753 -1560z"/>
</g>
</svg>
