<?xml version="1.0" encoding="UTF-8"?>
<svg width="134px" height="32px" viewBox="0 0 134 32" version="1.1" xmlns="http://www.w3.org/2000/svg" xmlns:xlink="http://www.w3.org/1999/xlink">
    <!-- Generator: Sketch 52.6 (67491) - http://www.bohemiancoding.com/sketch -->
    <title>Stacked Group 8</title>
    <desc>Created with Sketch.</desc>
    <defs>
        <path d="M16.5,0 L18.7729592,0 C18.2880612,0.64 17.6314286,1.44 17.3081633,2.4 L16.5,2.4 L15.1867347,2.4 L15.1867347,2.55 C15.025102,3.35 15.8635714,3.35 16.3484694,3.35 C16.3484694,3.35 16.5,4.64 16.5,4.8 C16.6616327,5.6 16.1969388,6.1 16.1969388,6.9 C16.0353061,7.38 16.1767347,8.18 16.5,8.5 C16.6616327,8.66 16.6414286,8.65 16.8030612,8.65 L17.005102,8.65 C17.6516327,10.73 18.9446939,12.98 20.2377551,14.9 C20.0761224,15.7 19.5508163,16.46 19.227551,17.1 C18.9042857,17.58 18.7426531,18.07 18.4193878,18.55 C18.2577551,19.19 18.2981633,19.67 18.6214286,20.15 C19.4295918,21.27 20.8741837,20.78 22.0056122,21.1 C22.3288776,21.26 22.6521429,21.44 22.8137755,21.6 C23.1370408,22.08 23.3087755,22.71 23.4704082,23.35 C23.7936735,23.99 23.914898,24.66 24.0765306,25.3 C24.2381633,25.78 24.42,26.42 24.5816327,26.9 C27.3293878,24.82 29.2891837,21.77 29.9357143,18.25 C30.7438776,17.13 31.6934694,15.84 32.6632653,14.4 L32.6632653,16 C32.6632653,24.8 25.3897959,32 16.5,32 C7.61020408,32 0.336734694,24.8 0.336734694,16 C0.336734694,7.2 7.61020408,0 16.5,0 Z M9.77359077,5.25220769 C9.19064259,5.29193886 8.57754192,5.44093075 8.01469539,5.59985542 C4.79842956,8.14265024 2.6877551,11.9369769 2.6877551,16.2279431 L2.6877551,17.5192061 C3.33100827,18.3138295 4.15517639,18.9197298 4.79842956,19.5554285 C5.60249602,20.0322026 6.87895152,20.0520681 7.3613914,20.8466915 C7.84383127,21.4823902 7.66291632,22.2869464 7.66291632,23.0815698 C7.82372961,23.8761932 8.34637281,24.8198084 8.66799939,25.6144318 C8.82881268,26.0912058 8.95947348,26.5679799 9.12028678,27.2036786 L9.12028678,27.5016623 C10.2459798,28.2962857 11.4018254,28.7730597 12.6883317,29.0909091 C12.849145,28.9319844 12.9898566,28.6439334 12.9898566,28.6439334 C13.3114832,28.1671594 13.6532114,27.5215279 14.2964646,27.2036786 C14.6180912,27.0447539 14.9296669,26.8758964 15.2512935,26.5580471 C15.5729201,26.2401977 15.7437842,25.5945662 15.9045975,25.1177922 C16.0654108,24.6410182 16.2061224,24.0053195 16.2061224,23.5285454 C16.2061224,23.2106961 16.0252075,23.0418386 15.7035809,22.8829139 C14.7387012,22.5650646 13.6331098,22.5849302 12.9898566,21.7903068 C12.8290433,21.4724574 12.849145,21.1645409 12.6883317,20.8466915 C12.3667051,20.5288422 11.5626386,20.3599847 11.0801988,20.20106 L8.96952432,20.20106 L7.86393293,20.20106 C7.22067977,20.20106 7.02971398,19.3865711 6.7080874,18.909797 C6.54727411,18.7508724 6.41661331,18.4628214 6.25580002,18.4628214 C5.93417343,18.4628214 5.57234352,18.6217461 5.25071694,18.4628214 C5.08990365,18.3038967 5.09995448,18.1251064 5.09995448,17.9661818 C5.09995448,17.4894077 5.43163189,17.0424321 5.75325848,16.7245827 C6.23569835,16.2478087 6.72818906,16.7146499 7.21062894,16.8735746 C7.37144223,16.8735746 7.35134057,17.0225665 7.51215386,17.0225665 C7.99459373,17.3404159 8.16545786,17.8370555 8.16545786,18.3138295 L8.16545786,18.6118133 C8.16545786,18.6118133 8.30616949,18.7608052 8.46698278,18.7608052 C8.62779607,17.9661818 8.81876185,17.1715584 8.81876185,16.376935 C8.81876185,15.5823116 9.77359077,14.4599061 10.5776572,14.1420568 C10.8992838,13.9831321 11.0600971,14.3009814 11.3817237,14.1420568 C12.3466034,13.8242074 14.6180912,12.8805921 14.2964646,11.6091947 C13.974838,10.496722 12.969755,9.41404765 11.6832486,9.57297232 C11.361622,9.731897 11.2008087,9.8610233 10.8791822,10.019948 C10.5575556,10.3377973 9.45196419,11.311211 8.96952432,11.311211 C8.16545786,11.1522863 8.15540703,10.0497464 8.31622032,9.57297232 C8.47703361,8.93727362 9.92435324,6.87125283 10.7284197,7.18910218 C11.0500463,7.34802686 11.3716729,7.62614504 11.5324862,7.78506972 C11.8541127,7.94399439 12.3566543,7.98372556 12.8390942,7.98372556 C12.9999074,7.98372556 13.1305682,7.94399439 13.2913815,7.78506972 C13.4521948,7.78506972 13.4923981,7.64601063 13.4923981,7.48708595 C13.4923981,7.01031192 13.0099583,6.51367231 12.6883317,6.19582296 C12.3667051,5.87797361 11.8641636,5.56012425 11.3817237,5.40119958 C10.8992838,5.2422749 10.356539,5.21247653 9.77359077,5.25220769 Z" id="path-1"></path>
    </defs>
    <g id="Page-1" stroke="none" stroke-width="1" fill="none" fill-rule="evenodd">
        <g id="landing_davinci_hotels_2" transform="translate(-104.000000, -24.000000)">
            <g id="Stacked-Group-8" transform="translate(104.000000, 24.000000)">
                <g id="Logo-color">
                    <g id="Group" stroke-width="1">
                        <mask id="mask-2" fill="white">
                            <use xlink:href="#path-1"></use>
                        </mask>
                        <use id="Clip-2" fill="#FFFFFF" xlink:href="#path-1"></use>
                        <path d="M24.9183673,0 C28.4372449,0 31.3163265,2.83636364 31.3163265,6.3030303 C31.3163265,9.76969697 24.9183673,17.3333333 24.9183673,17.3333333 C24.9183673,17.3333333 18.5204082,9.76969697 18.5204082,6.3030303 C18.5204082,2.83636364 21.3994898,0 24.9183673,0 Z M24.9183673,4.04444444 C23.677551,4.04444444 22.5918367,5.12296296 22.5918367,6.35555556 C22.5918367,7.58814815 23.677551,8.66666667 24.9183673,8.66666667 C26.1591837,8.66666667 27.244898,7.58814815 27.244898,6.35555556 C27.244898,5.12296296 26.1591837,4.04444444 24.9183673,4.04444444 Z" id="Combined-Shape" fill="#05B9E6"></path>
                    </g>
                    <path d="M44,18.7593583 L44,1.24064171 L49.267378,1.24064171 C50.7723506,1.24064171 52.1185755,1.58756338 53.306093,2.28141711 C54.4936105,2.97527085 55.4204873,3.961892 56.0867512,5.24131016 C56.7530151,6.52072832 57.0861421,7.97459079 57.0861421,9.60294118 L57.0861421,10.4090909 C57.0861421,12.0374413 56.7588939,13.4852878 56.1043875,14.7526738 C55.4498812,16.0200598 54.5269235,17.0026703 53.3354868,17.7005348 C52.1440501,18.3983992 50.7997848,18.7513369 49.3026506,18.7593583 L44,18.7593583 Z M47.527262,4.1644385 L47.527262,15.8596257 L49.2321053,15.8596257 C50.6116636,15.8596257 51.6659125,15.3984003 52.3948836,14.4759358 C53.1238548,13.5534713 53.4961731,12.2339658 53.5118499,10.5173797 L53.5118499,9.59090909 C53.5118499,7.81015152 53.151289,6.46056609 52.4301562,5.5421123 C51.7090235,4.62365851 50.6547746,4.1644385 49.267378,4.1644385 L47.527262,4.1644385 Z M69.0742993,15.1497326 L62.8898332,15.1497326 L61.7140792,18.7593583 L57.9634239,18.7593583 L64.3360106,1.24064171 L67.6046068,1.24064171 L74.0124661,18.7593583 L70.2618108,18.7593583 L69.0742993,15.1497326 Z M63.842194,12.2259358 L68.1219385,12.2259358 L65.9703087,5.6684492 L63.842194,12.2259358 Z M81.0341255,14.4157754 L84.9141137,1.24064171 L88.8411321,1.24064171 L82.8800593,18.7593583 L79.1999492,18.7593583 L73.2623915,1.24064171 L77.1776524,1.24064171 L81.0341255,14.4157754 Z M94.2073863,18.7593583 L90.6801243,18.7593583 L90.6801243,1.24064171 L94.2073863,1.24064171 L94.2073863,18.7593583 Z M111.40895,18.7593583 L107.881688,18.7593583 L101.015284,7.23262032 L101.015284,18.7593583 L97.4880221,18.7593583 L97.4880221,1.24064171 L101.015284,1.24064171 L107.893445,12.7914439 L107.893445,1.24064171 L111.40895,1.24064171 L111.40895,18.7593583 Z M127.928293,12.9237968 C127.795041,14.808833 127.11507,16.2927753 125.88836,17.3756684 C124.661651,18.4585616 123.045005,19 121.038375,19 C118.843623,19 117.117242,18.2439915 115.859179,16.7319519 C114.601115,15.2199122 113.972093,13.1443982 113.972093,10.5053476 L113.972093,9.43449198 C113.972093,7.74999158 114.26211,6.2660492 114.842151,4.98262032 C115.422193,3.69919144 116.251091,2.71457562 117.328871,2.02874332 C118.406651,1.34291101 119.658816,1 121.085405,1 C123.060682,1 124.651853,1.54143844 125.858966,2.62433155 C127.06608,3.70722467 127.763687,5.22726294 127.951809,7.18449198 L124.424546,7.18449198 C124.338324,6.05347028 124.030672,5.23329132 123.50158,4.72393048 C122.972488,4.21456965 122.167104,3.95989305 121.085405,3.95989305 C119.909645,3.95989305 119.029798,4.39103847 118.445837,5.25334225 C117.861877,6.11564602 117.562062,7.45319949 117.546386,9.26604278 L117.546386,10.5895722 C117.546386,12.4826298 117.826604,13.8663058 118.38705,14.7406417 C118.947495,15.6149776 119.831261,16.052139 121.038375,16.052139 C122.127912,16.052139 122.941134,15.7974624 123.478065,15.2881016 C124.014995,14.7787408 124.322647,13.990647 124.401031,12.9237968 L127.928293,12.9237968 Z M134,18.7593583 L130.472738,18.7593583 L130.472738,1.24064171 L134,1.24064171 L134,18.7593583 Z" id="DAVINCI" fill="#FFFFFF"></path>
                    <path d="M50.7238315,24.4064171 L48.195308,24.4064171 L48.195308,30.8930481 L46.4945075,30.8930481 L46.4945075,24.4064171 L44,24.4064171 L44,23.1069519 L50.7238315,23.1069519 L50.7238315,24.4064171 Z M54.7872695,28.0427807 L53.4322984,28.0427807 L53.4322984,30.8930481 L51.7314979,30.8930481 L51.7314979,23.1069519 L54.7986082,23.1069519 C55.7737387,23.1069519 56.5258629,23.3119409 57.0550035,23.7219251 C57.5841441,24.1319094 57.8487105,24.7112262 57.8487105,25.459893 C57.8487105,25.99109 57.726821,26.4340446 57.4830383,26.7887701 C57.2392557,27.1434955 56.8698077,27.4260239 56.3746833,27.6363636 L58.1605239,30.8181818 L58.1605239,30.8930481 L56.334998,30.8930481 L54.7872695,28.0427807 Z M53.4322984,26.7433155 L54.8042775,26.7433155 C55.2313695,26.7433155 55.5620774,26.640821 55.7964111,26.4358289 C56.0307448,26.2308368 56.1479099,25.9483084 56.1479099,25.5882353 C56.1479099,25.221032 56.037359,24.9322649 55.8162538,24.7219251 C55.5951486,24.5115854 55.2559368,24.4064171 54.7986082,24.4064171 L53.4322984,24.4064171 L53.4322984,26.7433155 Z M63.8397224,29.2887701 L60.8576521,29.2887701 L60.2907186,30.8930481 L58.4822007,30.8930481 L61.5549804,23.1069519 L63.1310555,23.1069519 L66.2208432,30.8930481 L64.4123253,30.8930481 L63.8397224,29.2887701 Z M61.3168683,27.9893048 L63.3805063,27.9893048 L62.3430179,25.0748663 L61.3168683,27.9893048 Z M69.6436463,28.9625668 L71.5145269,23.1069519 L73.4080849,23.1069519 L70.5337319,30.8930481 L68.75923,30.8930481 L65.8962158,23.1069519 L67.7841044,23.1069519 L69.6436463,28.9625668 Z M79.1893314,27.5187166 L75.9237944,27.5187166 L75.9237944,29.6042781 L79.7562649,29.6042781 L79.7562649,30.8930481 L74.2229938,30.8930481 L74.2229938,23.1069519 L79.7449263,23.1069519 L79.7449263,24.4064171 L75.9237944,24.4064171 L75.9237944,26.2620321 L79.1893314,26.2620321 L79.1893314,27.5187166 Z M82.4930785,29.6042781 L86.104445,29.6042781 L86.104445,30.8930481 L80.792278,30.8930481 L80.792278,23.1069519 L82.4930785,23.1069519 L82.4930785,29.6042781 Z M94.3276998,28.8502674 C94.3276998,28.5472356 94.2143142,28.3146176 93.9875396,28.1524064 C93.7607651,27.9901953 93.3525771,27.819074 92.7629633,27.6390374 C92.1733495,27.4590009 91.7065789,27.2816408 91.3626375,27.1069519 C90.4253027,26.6292311 89.9566424,25.9857438 89.9566424,25.1764706 C89.9566424,24.7557911 90.0823114,24.3805721 90.3336532,24.0508021 C90.5849949,23.7210322 90.945939,23.463459 91.4164962,23.2780749 C91.8870533,23.0926907 92.4152411,23 93.0010753,23 C93.5906891,23 94.1160423,23.100712 94.5771505,23.302139 C95.0382587,23.5035661 95.3963682,23.787877 95.6514895,24.1550802 C95.9066109,24.5222835 96.0341696,24.9393916 96.0341696,25.4064171 L94.3333691,25.4064171 C94.3333691,25.0499091 94.2143142,24.7727283 93.976201,24.5748663 C93.7380877,24.3770044 93.4036003,24.2780749 92.9727287,24.2780749 C92.5569753,24.2780749 92.2338265,24.3609617 92.0032724,24.526738 C91.7727182,24.6925142 91.6574429,24.9108721 91.6574429,25.1818182 C91.6574429,25.4349389 91.7925607,25.647058 92.0628004,25.8181818 C92.33304,25.9893057 92.7308344,26.1497319 93.2561954,26.2994652 C94.2237668,26.5739764 94.9286471,26.9144365 95.3708574,27.3208556 C95.8130678,27.7272748 96.0341696,28.2335086 96.0341696,28.8395722 C96.0341696,29.5133724 95.763934,30.0418876 95.2234547,30.4251337 C94.6829754,30.8083798 93.955418,31 93.0407607,31 C92.405792,31 91.8275256,30.8903754 91.3059441,30.671123 C90.7843627,30.4518706 90.3865683,30.1515171 90.1125491,29.7700535 C89.8385299,29.3885899 89.7015223,28.9465266 89.7015223,28.4438503 L91.4079922,28.4438503 C91.4079922,29.3030346 91.9522429,29.7326203 93.0407607,29.7326203 C93.4451753,29.7326203 93.7607651,29.655081 93.9875396,29.5 C94.2143142,29.344919 94.3276998,29.1283436 94.3276998,28.8502674 Z M100.069261,26.6149733 L101.78707,23.1069519 L103.646611,23.1069519 L100.936669,28.0695187 L100.936669,30.8930481 L99.207522,30.8930481 L99.207522,28.0695187 L96.4975798,23.1069519 L98.3627911,23.1069519 L100.069261,26.6149733 Z M108.628482,28.8502674 C108.628482,28.5472356 108.515096,28.3146176 108.288322,28.1524064 C108.061547,27.9901953 107.653359,27.819074 107.063745,27.6390374 C106.474131,27.4590009 106.007361,27.2816408 105.663419,27.1069519 C104.726085,26.6292311 104.257424,25.9857438 104.257424,25.1764706 C104.257424,24.7557911 104.383093,24.3805721 104.634435,24.0508021 C104.885777,23.7210322 105.246721,23.463459 105.717278,23.2780749 C106.187835,23.0926907 106.716023,23 107.301857,23 C107.891471,23 108.416824,23.100712 108.877933,23.302139 C109.339041,23.5035661 109.69715,23.787877 109.952272,24.1550802 C110.207393,24.5222835 110.334952,24.9393916 110.334952,25.4064171 L108.634151,25.4064171 C108.634151,25.0499091 108.515096,24.7727283 108.276983,24.5748663 C108.03887,24.3770044 107.704382,24.2780749 107.273511,24.2780749 C106.857757,24.2780749 106.534608,24.3609617 106.304054,24.526738 C106.0735,24.6925142 105.958225,24.9108721 105.958225,25.1818182 C105.958225,25.4349389 106.093343,25.647058 106.363582,25.8181818 C106.633822,25.9893057 107.031616,26.1497319 107.556977,26.2994652 C108.524549,26.5739764 109.229429,26.9144365 109.671639,27.3208556 C110.11385,27.7272748 110.334952,28.2335086 110.334952,28.8395722 C110.334952,29.5133724 110.064716,30.0418876 109.524237,30.4251337 C108.983757,30.8083798 108.2562,31 107.341543,31 C106.706574,31 106.128308,30.8903754 105.606726,30.671123 C105.085145,30.4518706 104.68735,30.1515171 104.413331,29.7700535 C104.139312,29.3885899 104.002304,28.9465266 104.002304,28.4438503 L105.708774,28.4438503 C105.708774,29.3030346 106.253025,29.7326203 107.341543,29.7326203 C107.745957,29.7326203 108.061547,29.655081 108.288322,29.5 C108.515096,29.344919 108.628482,29.1283436 108.628482,28.8502674 Z M117.737628,24.4064171 L115.209105,24.4064171 L115.209105,30.8930481 L113.508304,30.8930481 L113.508304,24.4064171 L111.013797,24.4064171 L111.013797,23.1069519 L117.737628,23.1069519 L117.737628,24.4064171 Z M123.711632,27.5187166 L120.446095,27.5187166 L120.446095,29.6042781 L124.278566,29.6042781 L124.278566,30.8930481 L118.745294,30.8930481 L118.745294,23.1069519 L124.267227,23.1069519 L124.267227,24.4064171 L120.446095,24.4064171 L120.446095,26.2620321 L123.711632,26.2620321 L123.711632,27.5187166 Z M127.536958,23.1069519 L129.657289,28.7540107 L131.766282,23.1069519 L134,23.1069519 L134,30.8930481 L132.29353,30.8930481 L132.29353,28.7647059 L132.46361,25.0909091 L130.235561,30.8930481 L129.067678,30.8930481 L126.845299,25.0962567 L127.015379,28.7647059 L127.015379,30.8930481 L125.314579,30.8930481 L125.314579,23.1069519 L127.536958,23.1069519 Z" id="TRAVEL-SYSTEM" fill="#FFFFFF" opacity="0.600000024"></path>
                </g>
            </g>
        </g>
    </g>
</svg>