<svg width="48" height="48" viewBox="0 0 48 48" fill="none" xmlns="http://www.w3.org/2000/svg">
<path d="M24.5788 11.2499C24.6683 11.181 24.7467 11.1004 24.8124 11.0111L28.865 11.0111C28.8837 11.0111 28.9025 11.0106 28.9212 11.0097C29.1901 10.9967 29.4589 10.9968 29.7267 11.0097C29.7454 11.0106 29.7641 11.0111 29.7829 11.0111H29.8435C30.7532 11.0111 31.6131 11.2137 32.3845 11.5759C32.405 11.5855 32.4257 11.5945 32.4466 11.6029C33.8983 12.1851 35.1941 13.177 36.1483 14.5331C37.5866 16.5771 38.0352 19.1399 37.4217 21.5241L32.2299 16.3186C32.0079 16.096 31.7085 15.9712 31.3966 15.9712L23.89 15.9712C23.8738 15.9712 23.8577 15.9715 23.8416 15.9722C23.6 15.9822 23.3668 16.0671 23.1734 16.2159L20.192 18.5116C20.1079 18.5763 20.0193 18.6308 19.9277 18.6754C19.2859 18.9875 18.4924 18.8117 18.0438 18.2161C17.9801 18.1315 17.9263 18.0424 17.8823 17.9502C17.5744 17.3052 17.7458 16.5111 18.3309 16.0606L24.5788 11.2499ZM16.7697 29.054L16.7488 29.0749L15.2077 30.6311L15.1875 30.6517C14.629 31.1934 13.7413 31.1865 13.1912 30.631C12.6341 30.0685 12.6341 29.1565 13.1912 28.594L14.7322 27.0379C15.2893 26.4754 16.1924 26.4754 16.7495 27.0379C17.2997 27.5935 17.3064 28.49 16.7697 29.054ZM16.3097 31.7852C15.773 32.3491 15.7798 33.2457 16.33 33.8013C16.887 34.3638 17.7902 34.3638 18.3472 33.8013L19.8883 32.2451C20.4453 31.6827 20.4453 30.7707 19.8883 30.2082C19.8195 30.1388 19.7455 30.0779 19.6675 30.0256C19.1214 29.6595 18.3807 29.7135 17.892 30.1875L17.8717 30.2081L16.3307 31.7642L16.3097 31.7852ZM12.9761 24.5074C13.5331 25.0699 13.5331 25.9819 12.9761 26.5444L11.435 28.1005C10.878 28.663 9.97483 28.663 9.41778 28.1005C8.86074 27.538 8.86074 26.626 9.41778 26.0635L10.9588 24.5074C11.5159 23.9449 12.419 23.9449 12.9761 24.5074ZM23.0279 33.3784C23.5849 33.9409 23.5849 34.8528 23.0279 35.4153L21.4868 36.9715C21.3725 37.0868 21.2437 37.1786 21.1062 37.2466C20.5738 37.5103 19.9123 37.4186 19.4696 36.9715C19.0268 36.5244 18.936 35.8565 19.1971 35.3188L19.1991 35.3147C19.2663 35.1774 19.3564 35.0488 19.4696 34.9345L21.0106 33.3784C21.5677 32.8159 22.4708 32.8159 23.0279 33.3784ZM12.7282 13.933C14.9362 11.7034 17.9394 10.7663 20.8159 11.1215L16.8978 14.1383C15.1808 15.4604 14.8501 17.9437 16.1595 19.6821C17.466 21.4166 19.9117 21.7531 21.625 20.4339L24.2887 18.3829L30.9098 18.3829L36.4572 23.945C36.4748 23.9672 36.4938 23.9887 36.5141 24.0093L38.3334 25.8582C39.2222 26.7615 39.2222 28.226 38.3334 29.1293C37.4952 29.9811 36.1659 30.0296 35.2718 29.2748L35.1195 29.12C35.0895 29.0895 35.0576 29.062 35.0244 29.0374L33.2954 27.2803C32.9865 26.9664 32.4856 26.9664 32.1767 27.2803C31.8678 27.5943 31.8678 28.1033 32.1767 28.4172L33.996 30.2662C34.0618 30.333 34.1294 30.397 34.1987 30.458L34.268 30.5285C34.8976 31.1684 34.8976 32.2058 34.268 32.8457C33.6384 33.4856 32.6175 33.4856 31.9879 32.8457L31.7207 32.5742C31.4118 32.2602 30.9109 32.2602 30.602 32.5742C30.4436 32.7351 30.3664 32.9473 30.3705 33.1583C30.3658 33.37 30.443 33.5832 30.6019 33.7447L30.9548 34.1033C31.5371 34.6951 31.5371 35.6546 30.9548 36.2465C30.3724 36.8383 29.4282 36.8383 28.8459 36.2465L28.8441 36.2447L28.8255 36.2257L28.4932 35.888C28.3786 35.7714 28.2375 35.6982 28.0896 35.6681C27.8389 35.6172 27.5687 35.6905 27.3744 35.8879C27.0654 36.2019 27.0654 36.7109 27.3744 37.0248L27.7199 37.376C28.3005 37.9803 28.2962 38.9486 27.7068 39.5475C27.1238 40.14 26.1823 40.1522 25.5846 39.5749L23.3196 37.3872L24.1501 36.5486C25.327 35.3602 25.327 33.4335 24.1501 32.2451C23.5289 31.6179 22.704 31.3217 21.8905 31.3566C21.925 30.5351 21.6317 29.7022 21.0105 29.0749C20.3895 28.4479 19.565 28.1517 18.7516 28.1864C18.7862 27.3649 18.4929 26.5319 17.8717 25.9047C17.0813 25.1065 15.961 24.8444 14.954 25.1184C14.8691 24.4805 14.5839 23.8645 14.0983 23.3742C13.0124 22.2776 11.3037 22.1929 10.1216 23.1201C9.39105 19.9213 10.2599 16.4254 12.7282 13.933Z" fill="#F8F7F4"/>
</svg>
