<svg width="48" height="48" viewBox="0 0 48 48" fill="none" xmlns="http://www.w3.org/2000/svg">
<path d="M22.4595 10.3335V22.6682C22.4595 23.2206 22.0057 23.6684 21.4459 23.6684C20.8862 23.6684 20.4324 23.2206 20.4324 22.6682V12.3337C20.4324 11.5973 19.8274 11.0002 19.0811 11.0002C18.3348 11.0002 17.7297 11.5973 17.7297 12.3337V23.335C17.7297 23.8873 17.276 24.3351 16.7162 24.3351C16.1565 24.3351 15.7027 23.8873 15.7027 23.335V15.6639C15.7027 14.9275 15.0977 14.3304 14.3514 14.3304C13.605 14.3304 13 14.9275 13 15.6639V29.3356C13 32.6946 14.3275 36.3963 15.2214 38.5224C15.8791 40.0869 17.4361 41 19.0794 41H23.9384C25.6091 41 27.135 40.0647 27.8754 38.587L28.8155 36.7107C29.2107 35.9219 29.6755 35.169 30.2045 34.4606L33.974 29.4125L37.5306 27.1791C37.823 26.9955 38 26.6773 38 26.3353C38 25.6857 37.7108 25.1499 37.2582 24.7761C36.8385 24.4294 36.3141 24.2473 35.818 24.154C34.8271 23.9678 33.6257 24.0756 32.5518 24.3682C31.5756 24.6116 30.629 25.9185 29.8919 26.3353V12.3337C29.8919 11.5973 29.2869 11.0002 28.5405 11.0002C27.7942 11.0002 27.1892 11.5973 27.1892 12.3337V22.6682C27.1892 23.2206 26.7354 23.6684 26.1757 23.6684C25.6159 23.6684 25.1622 23.2206 25.1622 22.6682V10.3335C25.1622 9.59702 24.5571 9 23.8108 9C23.0645 9 22.4595 9.59702 22.4595 10.3335Z" fill="#F8F7F4"/>
</svg>
