<svg width="48" height="48" viewBox="0 0 48 48" fill="none" xmlns="http://www.w3.org/2000/svg">
<path d="M20.0547 19.515C20.0547 14.8165 23.8523 11 28.5274 11C33.1803 11 37 14.6645 37 19.385C37 24.0835 33.2025 27.9 28.5274 27.9C27.8413 27.9 27.1638 27.8012 26.5213 27.6351C26.4899 28.5047 25.7785 29.2 24.9055 29.2H22.6418V31.475C22.6418 32.3725 21.9179 33.1 21.0249 33.1H18.7612V34.725C18.7612 35.9814 17.7477 37 16.4975 37H13.2637C12.0135 37 11 35.9814 11 34.725V31.902C11 30.9538 11.3748 30.0445 12.0419 29.374L20.1081 21.2675C20.1785 21.1967 20.2206 21.0821 20.1976 20.9502C20.1196 20.5035 20.0547 20.0184 20.0547 19.515ZM32.0846 17.435C32.0846 16.5376 31.3607 15.81 30.4677 15.81C29.5747 15.81 28.8508 16.5376 28.8508 17.435C28.8508 18.3325 29.5747 19.06 30.4677 19.06C31.3607 19.06 32.0846 18.3325 32.0846 17.435Z" fill="white"/>
</svg>
