<svg width="48" height="48" viewBox="0 0 48 48" fill="none" xmlns="http://www.w3.org/2000/svg">
<path d="M26.0886 9C22.837 9 20.0192 10.8345 18.6387 13.5126C22.1217 13.6797 25.1648 15.5018 26.9786 18.1997C27.6742 18.0686 28.3923 18 29.1266 18H34.409C34.4316 17.753 34.4431 17.5028 34.4431 17.25V11.1614C34.4431 9.96767 33.4631 9 32.2543 9H26.0886ZM18.3811 32.9962C18.2923 32.9987 18.2033 33 18.1139 33C13.0804 33 9 28.9706 9 24V17.2705C9 16.0165 10.0294 15 11.2992 15H18.1139C21.1006 15 23.7518 16.4187 25.414 18.6109C22.9115 19.4623 20.8036 21.1504 19.433 23.3368L17.0206 20.9545C16.5757 20.5152 15.8544 20.5152 15.4095 20.9545C14.9646 21.3938 14.9646 22.1062 15.4095 22.5455L18.3874 25.4862C17.9644 26.663 17.7342 27.93 17.7342 29.25C17.7342 30.5635 17.9621 31.8244 18.3811 32.9962ZM19.2532 29.25C19.2532 23.8652 23.6736 19.5 29.1266 19.5H36.5903C37.9212 19.5 39 20.5654 39 21.8795V29.25C39 34.6348 34.5795 39 29.1266 39C26.8106 39 24.6809 38.2126 22.997 36.8941L21.1981 38.6705C20.7532 39.1098 20.0319 39.1098 19.587 38.6705C19.1421 38.2312 19.1421 37.5188 19.587 37.0795L21.3859 35.3031C20.0506 33.6402 19.2532 31.5371 19.2532 29.25ZM24.0796 35.825L31.0715 28.9205C31.5164 28.4812 31.5164 27.7688 31.0715 27.3295C30.6266 26.8902 29.9053 26.8902 29.4604 27.3295L22.4684 34.2341C22.9296 34.834 23.4721 35.3696 24.0796 35.825Z" fill="#F8F7F4"/>
</svg>
