<svg width="48" height="48" viewBox="0 0 48 48" fill="none" xmlns="http://www.w3.org/2000/svg">
<path d="M20.2469 19.8407C20.6881 19.4543 21.2146 19.1571 21.7943 18.9809L22.1155 18.897L22.3234 18.8569L22.5516 18.8251L22.7852 18.8055L23.025 18.7989H32.775C35.0279 18.7989 36.869 20.5624 36.9933 22.7844L37 23.0241V32.7747C37 35.0278 35.2366 36.869 33.0147 36.9933L32.775 37H23.025C20.7721 37 18.931 35.2365 18.8067 33.0145L18.8 32.7747V23.0241L18.8043 22.8314L18.8226 22.584L18.8559 22.3352L18.9027 22.0942L18.979 21.8036L19.0846 21.4964L19.1965 21.2348L19.3025 21.0238L19.425 20.8113L19.6148 20.5292L19.7377 20.3696L19.9128 20.1665L20.0529 20.021L20.2469 19.8407ZM27.9 22.7007C27.4064 22.7007 26.9985 23.0676 26.9339 23.5435L26.925 23.6758V26.9244H23.675C23.1814 26.9244 22.7735 27.2912 22.7089 27.7671L22.7 27.8994C22.7 28.3931 23.0668 28.801 23.5427 28.8656L23.675 28.8745H26.925V32.1263C26.925 32.62 27.2918 33.0279 27.7677 33.0925L27.9 33.1014C28.3936 33.1014 28.8015 32.7346 28.8661 32.2586L28.875 32.1263V28.8745H32.125C32.6186 28.8745 33.0265 28.5077 33.0911 28.0317L33.1 27.8994C33.1 27.4058 32.7332 26.9978 32.2573 26.9333L32.125 26.9244H28.875V23.6758C28.875 23.1822 28.5082 22.7742 28.0323 22.7096L27.9 22.7007ZM28.6563 13.9029L28.7249 14.1327L29.6264 17.4978L23.025 17.4988C19.9736 17.4988 17.5 19.9726 17.5 23.0241L17.5007 31.3874C15.8091 31.2879 14.2885 30.1691 13.737 28.4918L13.6685 28.2619L11.145 18.8435C10.5619 16.6672 11.7887 14.4323 13.9027 13.7372L14.1325 13.6687L23.5503 11.145C25.7265 10.5619 27.9612 11.7888 28.6563 13.9029Z" fill="white"/>
</svg>
