<svg width="48" height="48" viewBox="0 0 48 48" fill="none" xmlns="http://www.w3.org/2000/svg">
<path d="M29.3125 29.325C30.6817 29.325 31.7917 30.4065 31.7917 31.7406V34.5041L31.7805 34.6538C31.3403 37.5887 28.6347 39 24.0946 39C19.571 39 16.8222 37.6049 16.2288 34.7037L16.2083 34.5014V31.7406C16.2083 30.4065 17.3183 29.325 18.6875 29.325H29.3125ZM30.0122 21.0427L38.5208 21.0429C39.89 21.0429 41 22.1244 41 23.4585V26.2219L40.9888 26.3717C40.5486 29.3066 37.843 30.7178 33.303 30.7178L33.0646 30.7156C32.6275 29.1932 31.2407 28.0573 29.5658 27.9526L29.3125 27.9447L28.006 27.9457C29.451 26.8069 30.375 25.0653 30.375 23.1134C30.375 22.3874 30.2472 21.6904 30.0122 21.0427ZM9.47917 21.0429L17.9878 21.0427C17.7528 21.6904 17.625 22.3874 17.625 23.1134C17.625 24.9505 18.4435 26.6013 19.7445 27.7385L19.994 27.9457L18.6875 27.9447C16.8994 27.9447 15.3926 29.1185 14.9346 30.7184L14.8863 30.7178C10.3626 30.7178 7.61384 29.3227 7.02049 26.4215L7 26.2192V23.4585C7 22.1244 8.10996 21.0429 9.47917 21.0429ZM24 18.2822C26.7384 18.2822 28.9583 20.4452 28.9583 23.1134C28.9583 25.7816 26.7384 27.9447 24 27.9447C21.2616 27.9447 19.0417 25.7816 19.0417 23.1134C19.0417 20.4452 21.2616 18.2822 24 18.2822ZM33.2083 10C35.9467 10 38.1667 12.163 38.1667 14.8313C38.1667 17.4995 35.9467 19.6625 33.2083 19.6625C30.4699 19.6625 28.25 17.4995 28.25 14.8313C28.25 12.163 30.4699 10 33.2083 10ZM14.7917 10C17.5301 10 19.75 12.163 19.75 14.8313C19.75 17.4995 17.5301 19.6625 14.7917 19.6625C12.0533 19.6625 9.83333 17.4995 9.83333 14.8313C9.83333 12.163 12.0533 10 14.7917 10Z" fill="#F8F7F4"/>
</svg>
