<svg width="48" height="48" viewBox="0 0 48 48" fill="none" xmlns="http://www.w3.org/2000/svg">
<path d="M20.807 10C26.7756 10 31.614 14.8385 31.614 20.807C31.614 23.2599 30.7969 25.5218 29.4199 27.3356L37.5684 35.4843C38.1439 36.0598 38.1439 36.9929 37.5684 37.5684C37.0452 38.0916 36.2265 38.1391 35.6495 37.7111L35.4843 37.5684L27.3356 29.4199C25.5218 30.7969 23.2599 31.614 20.807 31.614C14.8385 31.614 10 26.7756 10 20.807C10 14.8385 14.8385 10 20.807 10ZM20.807 12.9474C16.4663 12.9474 12.9474 16.4663 12.9474 20.807C12.9474 25.1478 16.4663 28.6667 20.807 28.6667C25.1478 28.6667 28.6667 25.1478 28.6667 20.807C28.6667 16.4663 25.1478 12.9474 20.807 12.9474Z" fill="#F8F7F4"/>
</svg>
