<svg width="48" height="48" viewBox="0 0 48 48" fill="none" xmlns="http://www.w3.org/2000/svg">
<path d="M14.375 13C11.9588 13 10 14.9238 10 17.2969V30.7031C10 33.0762 11.9588 35 14.375 35H33.625C36.0412 35 38 33.0762 38 30.7031V17.2969C38 14.9238 36.0412 13 33.625 13H14.375ZM19.8 21.25C19.8 22.3891 18.8598 23.3125 17.7 23.3125C16.5402 23.3125 15.6 22.3891 15.6 21.25C15.6 20.1109 16.5402 19.1875 17.7 19.1875C18.8598 19.1875 19.8 20.1109 19.8 21.25ZM22.95 23.3125C21.9835 23.3125 21.2 22.543 21.2 21.5938C21.2 20.6445 21.9835 19.875 22.95 19.875C23.9165 19.875 24.7 20.6445 24.7 21.5938C24.7 22.543 23.9165 23.3125 22.95 23.3125ZM27.5 22.1094C27.5 21.6348 27.8918 21.25 28.375 21.25H32.925C33.4082 21.25 33.8 21.6348 33.8 22.1094C33.8 22.584 33.4082 22.9688 32.925 22.9688H28.375C27.8918 22.9688 27.5 22.584 27.5 22.1094ZM28.375 25.0312H32.925C33.4082 25.0312 33.8 25.416 33.8 25.8906C33.8 26.3652 33.4082 26.75 32.925 26.75H28.375C27.8918 26.75 27.5 26.3652 27.5 25.8906C27.5 25.416 27.8918 25.0312 28.375 25.0312ZM14.2 25.7188C14.2 25.1492 14.6701 24.6875 15.25 24.6875H20.15C20.7299 24.6875 21.2 25.1492 21.2 25.7188V26.75C21.2 26.75 21.2 29.1562 17.7 29.1562C14.2 29.1562 14.2 26.75 14.2 26.75V25.7188ZM23.2999 28.125H22.2698C22.3853 27.8749 22.4594 27.6415 22.5072 27.4445C22.5506 27.2652 22.5736 27.1108 22.5859 26.993C22.592 26.9338 22.5955 26.8832 22.5975 26.8424C22.5985 26.822 22.5991 26.804 22.5994 26.7886L22.5998 26.7673L22.5999 26.7582L22.5999 26.754L22.5999 26.752C22.5999 26.752 22.5999 26.586 22.5999 26.75V25.7188C22.5999 25.3497 22.5153 25.0001 22.3642 24.6875H24.3499C24.9298 24.6875 25.3999 25.1492 25.3999 25.7188V26.0625C25.3999 27.2016 24.4597 28.125 23.2999 28.125Z" fill="white"/>
</svg>
