<svg width="48" height="48" viewBox="0 0 48 48" fill="none" xmlns="http://www.w3.org/2000/svg">
<path d="M22.5686 30.927C22.5686 29.2698 23.0508 27.7252 23.8826 26.4259H13.892C12.2948 26.4259 11 27.7207 11 29.318V30.0609C11 31.209 11.4096 32.3194 12.1551 33.1925C14.1693 35.5513 17.2376 36.7154 21.2831 36.7154C22.4804 36.7154 23.5923 36.6134 24.6167 36.4087C23.3409 34.9412 22.5686 33.0243 22.5686 30.927ZM21.2831 11C24.8341 11 27.7128 13.8788 27.7128 17.43C27.7128 20.9812 24.8341 23.86 21.2831 23.86C17.732 23.86 14.8533 20.9812 14.8533 17.43C14.8533 13.8788 17.732 11 21.2831 11ZM30.9273 23.854C34.8334 23.854 38 27.0207 38 30.927C38 34.8333 34.8334 38 30.9273 38C27.0211 38 23.8545 34.8333 23.8545 30.927C23.8545 27.0207 27.0211 23.854 30.9273 23.854ZM33.4992 30.9271H30.9273L30.9273 27.7119C30.9273 27.3568 30.6394 27.0689 30.2843 27.0689C29.9292 27.0689 29.6413 27.3568 29.6413 27.7119L29.6413 31.5681L29.6413 31.5701C29.6413 31.9252 29.9292 32.2131 30.2843 32.2131H33.4992C33.8543 32.2131 34.1421 31.9252 34.1421 31.5701C34.1421 31.215 33.8543 30.9271 33.4992 30.9271Z" fill="white"/>
</svg>
