<svg width="44" height="44" viewBox="0 0 44 44" fill="none" xmlns="http://www.w3.org/2000/svg"><path d="M22 44c12.15 0 22-9.85 22-22S34.15 0 22 0 0 9.85 0 22s9.85 22 22 22Z" fill="#F5AB00"/><path d="M13.49 13.61c1.124-.626 2.557-.773 3.927-.428a2.537 2.537 0 0 1 1.578 1.194l1.279 2.222a3.27 3.27 0 0 1-.872 4.245l-.791.595c-.372.28-.526.676-.45 1.01.24 1.065.772 2.053 1.516 2.78.221.218.612.292 1.036.13l.876-.333a3.295 3.295 0 0 1 4.045 1.46l1.254 2.231c.346.616.404 1.351.158 2.013-.488 1.315-1.428 2.375-2.584 2.906-1.175.54-2.55.517-3.795-.31-1.97-1.31-4.345-3.511-6.496-7.185-2.179-3.72-2.728-6.89-2.666-9.251.04-1.513.842-2.641 1.985-3.279Zm11.116 7.94a.657.657 0 0 1-.658.655.657.657 0 1 1 .658-.655Zm.658-.655a.657.657 0 1 0-.658-.656c0 .362.295.656.658.656Zm1.974-1.967a.657.657 0 0 1-1.316 0c0-.362.294-.655.658-.655.363 0 .658.293.658.655Zm3.946 1.311c0 .362.295.656.658.656a.657.657 0 0 0 .658-.656v-6.554a.657.657 0 0 0-.658-.655h-6.578a.657.657 0 1 0 0 1.31h4.99l-2.824 2.814a.654.654 0 0 0 0 .927.66.66 0 0 0 .93 0l2.824-2.814v4.972Z" fill="#fff"/></svg>
