<?xml version="1.0" encoding="UTF-8"?>
<svg width="75px" height="58px" viewBox="0 0 75 58" version="1.1" xmlns="http://www.w3.org/2000/svg" xmlns:xlink="http://www.w3.org/1999/xlink">
    <!-- Generator: Sketch 51.3 (57544) - http://www.bohemiancoding.com/sketch -->
    <title>bg_16</title>
    <desc>Created with Sketch.</desc>
    <defs></defs>
    <g id="bg_16" stroke="none" stroke-width="1" fill="none" fill-rule="evenodd">
        <g transform="translate(-1.000000, 7.000000)" id="baseline-location_on-24px-(5)">
            <g transform="translate(42.000000, 7.000000)">
                <g transform="translate(4.000000, 4.000000)" id="Shape">
                    <polygon points="0 0 16 0 16 16 0 16"></polygon>
                    <path d="M8,1.33333333 C5.42,1.33333333 3.33333333,3.42 3.33333333,6 C3.33333333,9.5 8,14.6666667 8,14.6666667 C8,14.6666667 12.6666667,9.5 12.6666667,6 C12.6666667,3.42 10.58,1.33333333 8,1.33333333 Z M8,7.66666667 C7.08,7.66666667 6.33333333,6.92 6.33333333,6 C6.33333333,5.08 7.08,4.33333333 8,4.33333333 C8.92,4.33333333 9.66666667,5.08 9.66666667,6 C9.66666667,6.92 8.92,7.66666667 8,7.66666667 Z" fill="#868686" fill-rule="nonzero"></path>
                </g>
            </g>
            <g transform="translate(53.000000, 13.000000)">
                <g transform="translate(4.000000, 4.000000)" id="Shape">
                    <polygon points="0 0 16 0 16 16 0 16"></polygon>
                    <path d="M8,1.33333333 C5.42,1.33333333 3.33333333,3.42 3.33333333,6 C3.33333333,9.5 8,14.6666667 8,14.6666667 C8,14.6666667 12.6666667,9.5 12.6666667,6 C12.6666667,3.42 10.58,1.33333333 8,1.33333333 Z M8,7.66666667 C7.08,7.66666667 6.33333333,6.92 6.33333333,6 C6.33333333,5.08 7.08,4.33333333 8,4.33333333 C8.92,4.33333333 9.66666667,5.08 9.66666667,6 C9.66666667,6.92 8.92,7.66666667 8,7.66666667 Z" fill="#868686" fill-rule="nonzero"></path>
                </g>
            </g>
            <g transform="translate(54.000000, 0.000000)">
                <g transform="translate(4.000000, 4.000000)" id="Shape">
                    <polygon points="0 0 16 0 16 16 0 16"></polygon>
                    <path d="M8,1.33333333 C5.42,1.33333333 3.33333333,3.42 3.33333333,6 C3.33333333,9.5 8,14.6666667 8,14.6666667 C8,14.6666667 12.6666667,9.5 12.6666667,6 C12.6666667,3.42 10.58,1.33333333 8,1.33333333 Z M8,7.66666667 C7.08,7.66666667 6.33333333,6.92 6.33333333,6 C6.33333333,5.08 7.08,4.33333333 8,4.33333333 C8.92,4.33333333 9.66666667,5.08 9.66666667,6 C9.66666667,6.92 8.92,7.66666667 8,7.66666667 Z" fill="#868686" fill-rule="nonzero"></path>
                </g>
            </g>
            <g transform="translate(12.000000, 7.000000)">
                <g transform="translate(4.000000, 4.000000)" id="Shape">
                    <polygon points="0 0 16 0 16 16 0 16"></polygon>
                    <path d="M8,1.33333333 C5.42,1.33333333 3.33333333,3.42 3.33333333,6 C3.33333333,9.5 8,14.6666667 8,14.6666667 C8,14.6666667 12.6666667,9.5 12.6666667,6 C12.6666667,3.42 10.58,1.33333333 8,1.33333333 Z M8,7.66666667 C7.08,7.66666667 6.33333333,6.92 6.33333333,6 C6.33333333,5.08 7.08,4.33333333 8,4.33333333 C8.92,4.33333333 9.66666667,5.08 9.66666667,6 C9.66666667,6.92 8.92,7.66666667 8,7.66666667 Z" fill="#868686" fill-rule="nonzero"></path>
                </g>
            </g>
            <g transform="translate(10.000000, 21.000000)">
                <g transform="translate(4.000000, 4.000000)" id="Shape">
                    <polygon points="0 0 16 0 16 16 0 16"></polygon>
                    <path d="M8,1.33333333 C5.42,1.33333333 3.33333333,3.42 3.33333333,6 C3.33333333,9.5 8,14.6666667 8,14.6666667 C8,14.6666667 12.6666667,9.5 12.6666667,6 C12.6666667,3.42 10.58,1.33333333 8,1.33333333 Z M8,7.66666667 C7.08,7.66666667 6.33333333,6.92 6.33333333,6 C6.33333333,5.08 7.08,4.33333333 8,4.33333333 C8.92,4.33333333 9.66666667,5.08 9.66666667,6 C9.66666667,6.92 8.92,7.66666667 8,7.66666667 Z" fill="#868686" fill-rule="nonzero"></path>
                </g>
            </g>
            <g transform="translate(0.000000, 15.000000)">
                <g transform="translate(4.000000, 4.000000)" id="Shape">
                    <polygon points="0 0 16 0 16 16 0 16"></polygon>
                    <path d="M8,1.33333333 C5.42,1.33333333 3.33333333,3.42 3.33333333,6 C3.33333333,9.5 8,14.6666667 8,14.6666667 C8,14.6666667 12.6666667,9.5 12.6666667,6 C12.6666667,3.42 10.58,1.33333333 8,1.33333333 Z M8,7.66666667 C7.08,7.66666667 6.33333333,6.92 6.33333333,6 C6.33333333,5.08 7.08,4.33333333 8,4.33333333 C8.92,4.33333333 9.66666667,5.08 9.66666667,6 C9.66666667,6.92 8.92,7.66666667 8,7.66666667 Z" fill="#868686" fill-rule="nonzero"></path>
                </g>
            </g>
            <g transform="translate(28.000000, 8.000000)">
                <g transform="translate(4.000000, 4.000000)" id="Shape">
                    <polygon points="0 0 16 0 16 16 0 16"></polygon>
                    <path d="M8,1.33333333 C5.42,1.33333333 3.33333333,3.42 3.33333333,6 C3.33333333,9.5 8,14.6666667 8,14.6666667 C8,14.6666667 12.6666667,9.5 12.6666667,6 C12.6666667,3.42 10.58,1.33333333 8,1.33333333 Z M8,7.66666667 C7.08,7.66666667 6.33333333,6.92 6.33333333,6 C6.33333333,5.08 7.08,4.33333333 8,4.33333333 C8.92,4.33333333 9.66666667,5.08 9.66666667,6 C9.66666667,6.92 8.92,7.66666667 8,7.66666667 Z" fill="#868686" fill-rule="nonzero"></path>
                </g>
            </g>
            <g transform="translate(22.000000, 20.000000)">
                <g transform="translate(4.000000, 4.000000)" id="Shape">
                    <polygon points="0 0 16 0 16 16 0 16"></polygon>
                    <path d="M8,1.33333333 C5.42,1.33333333 3.33333333,3.42 3.33333333,6 C3.33333333,9.5 8,14.6666667 8,14.6666667 C8,14.6666667 12.6666667,9.5 12.6666667,6 C12.6666667,3.42 10.58,1.33333333 8,1.33333333 Z M8,7.66666667 C7.08,7.66666667 6.33333333,6.92 6.33333333,6 C6.33333333,5.08 7.08,4.33333333 8,4.33333333 C8.92,4.33333333 9.66666667,5.08 9.66666667,6 C9.66666667,6.92 8.92,7.66666667 8,7.66666667 Z" fill="#868686" fill-rule="nonzero"></path>
                </g>
            </g>
            <g transform="translate(34.000000, 19.000000)">
                <g transform="translate(4.000000, 4.000000)" id="Shape">
                    <polygon points="0 0 16 0 16 16 0 16"></polygon>
                    <path d="M8,1.33333333 C5.42,1.33333333 3.33333333,3.42 3.33333333,6 C3.33333333,9.5 8,14.6666667 8,14.6666667 C8,14.6666667 12.6666667,9.5 12.6666667,6 C12.6666667,3.42 10.58,1.33333333 8,1.33333333 Z M8,7.66666667 C7.08,7.66666667 6.33333333,6.92 6.33333333,6 C6.33333333,5.08 7.08,4.33333333 8,4.33333333 C8.92,4.33333333 9.66666667,5.08 9.66666667,6 C9.66666667,6.92 8.92,7.66666667 8,7.66666667 Z" fill="#868686" fill-rule="nonzero"></path>
                </g>
            </g>
        </g>
        <rect id="Rectangle-40" fill="#D8D8D8" opacity="0" x="0" y="0" width="75" height="58"></rect>
    </g>
</svg>