<?xml version="1.0" encoding="UTF-8" standalone="no"?>
<svg
   xmlns:dc="http://purl.org/dc/elements/1.1/"
   xmlns:cc="http://creativecommons.org/ns#"
   xmlns:rdf="http://www.w3.org/1999/02/22-rdf-syntax-ns#"
   xmlns:svg="http://www.w3.org/2000/svg"
   xmlns="http://www.w3.org/2000/svg"
   xmlns:sodipodi="http://sodipodi.sourceforge.net/DTD/sodipodi-0.dtd"
   xmlns:inkscape="http://www.inkscape.org/namespaces/inkscape"
   width="110px"
   height="171px"
   viewBox="0 0 110 171"
   version="1.1"
   id="svg241"
   sodipodi:docname="de.svg"
   inkscape:version="0.92.3 (2405546, 2018-03-11)">
  <metadata
     id="metadata245">
    <rdf:RDF>
      <cc:Work
         rdf:about="">
        <dc:format>image/svg+xml</dc:format>
        <dc:type
           rdf:resource="http://purl.org/dc/dcmitype/StillImage" />
      </cc:Work>
    </rdf:RDF>
  </metadata>
  <sodipodi:namedview
     pagecolor="#ffffff"
     bordercolor="#666666"
     borderopacity="1"
     objecttolerance="10"
     gridtolerance="10"
     guidetolerance="10"
     inkscape:pageopacity="0"
     inkscape:pageshadow="2"
     inkscape:window-width="1870"
     inkscape:window-height="1051"
     id="namedview243"
     showgrid="false"
     inkscape:zoom="1.380117"
     inkscape:cx="55"
     inkscape:cy="85.5"
     inkscape:window-x="1970"
     inkscape:window-y="0"
     inkscape:window-maximized="1"
     inkscape:current-layer="svg241" />
  <!-- Generator: Sketch 51.3 (57544) - http://www.bohemiancoding.com/sketch -->
  <title
     id="title2">Artboard 5</title>
  <desc
     id="desc4">Created with Sketch.</desc>
  <defs
     id="defs6" />
  <g
     style="fill:none;fill-rule:evenodd;stroke:none;stroke-width:1"
     transform="translate(2.8983051,31.538135)"
     id="de_658">
    <g
       transform="translate(79,14)"
       id="baseline-location_on-24px-(5)">
      <g
         id="Shape"
         transform="translate(4,4)">
        <polygon
           id="polygon8"
           points="0,0 16,0 16,16 0,16 " />
        <path
           style="fill:#868686;fill-rule:nonzero"
           inkscape:connector-curvature="0"
           id="path10"
           d="M 8,1.3333333 C 5.42,1.3333333 3.3333333,3.42 3.3333333,6 3.3333333,9.5 8,14.666667 8,14.666667 8,14.666667 12.666667,9.5 12.666667,6 12.666667,3.42 10.58,1.3333333 8,1.3333333 Z M 8,7.6666667 C 7.08,7.6666667 6.3333333,6.92 6.3333333,6 6.3333333,5.08 7.08,4.3333333 8,4.3333333 8.92,4.3333333 9.6666667,5.08 9.6666667,6 9.6666667,6.92 8.92,7.6666667 8,7.6666667 Z" />
      </g>
    </g>
    <g
       transform="translate(68,4)"
       id="g20">
      <g
         id="g18"
         transform="translate(4,4)">
        <polygon
           id="polygon14"
           points="0,0 16,0 16,16 0,16 " />
        <path
           style="fill:#868686;fill-rule:nonzero"
           inkscape:connector-curvature="0"
           id="path16"
           d="M 8,1.3333333 C 5.42,1.3333333 3.3333333,3.42 3.3333333,6 3.3333333,9.5 8,14.666667 8,14.666667 8,14.666667 12.666667,9.5 12.666667,6 12.666667,3.42 10.58,1.3333333 8,1.3333333 Z M 8,7.6666667 C 7.08,7.6666667 6.3333333,6.92 6.3333333,6 6.3333333,5.08 7.08,4.3333333 8,4.3333333 8.92,4.3333333 9.6666667,5.08 9.6666667,6 9.6666667,6.92 8.92,7.6666667 8,7.6666667 Z" />
      </g>
    </g>
    <g
       transform="translate(0,42)"
       id="g28">
      <g
         id="g26"
         transform="translate(4,4)">
        <polygon
           id="polygon22"
           points="0,0 16,0 16,16 0,16 " />
        <path
           style="fill:#868686;fill-rule:nonzero"
           inkscape:connector-curvature="0"
           id="path24"
           d="M 8,1.3333333 C 5.42,1.3333333 3.3333333,3.42 3.3333333,6 3.3333333,9.5 8,14.666667 8,14.666667 8,14.666667 12.666667,9.5 12.666667,6 12.666667,3.42 10.58,1.3333333 8,1.3333333 Z M 8,7.6666667 C 7.08,7.6666667 6.3333333,6.92 6.3333333,6 6.3333333,5.08 7.08,4.3333333 8,4.3333333 8.92,4.3333333 9.6666667,5.08 9.6666667,6 9.6666667,6.92 8.92,7.6666667 8,7.6666667 Z" />
      </g>
    </g>
    <g
       transform="translate(14,16)"
       id="g36">
      <g
         id="g34"
         transform="translate(4,4)">
        <polygon
           id="polygon30"
           points="0,0 16,0 16,16 0,16 " />
        <path
           style="fill:#868686;fill-rule:nonzero"
           inkscape:connector-curvature="0"
           id="path32"
           d="M 8,1.3333333 C 5.42,1.3333333 3.3333333,3.42 3.3333333,6 3.3333333,9.5 8,14.666667 8,14.666667 8,14.666667 12.666667,9.5 12.666667,6 12.666667,3.42 10.58,1.3333333 8,1.3333333 Z M 8,7.6666667 C 7.08,7.6666667 6.3333333,6.92 6.3333333,6 6.3333333,5.08 7.08,4.3333333 8,4.3333333 8.92,4.3333333 9.6666667,5.08 9.6666667,6 9.6666667,6.92 8.92,7.6666667 8,7.6666667 Z" />
      </g>
    </g>
    <g
       transform="translate(30,12)"
       id="g44">
      <g
         id="g42"
         transform="translate(4,4)">
        <polygon
           id="polygon38"
           points="0,0 16,0 16,16 0,16 " />
        <path
           style="fill:#868686;fill-rule:nonzero"
           inkscape:connector-curvature="0"
           id="path40"
           d="M 8,1.3333333 C 5.42,1.3333333 3.3333333,3.42 3.3333333,6 3.3333333,9.5 8,14.666667 8,14.666667 8,14.666667 12.666667,9.5 12.666667,6 12.666667,3.42 10.58,1.3333333 8,1.3333333 Z M 8,7.6666667 C 7.08,7.6666667 6.3333333,6.92 6.3333333,6 6.3333333,5.08 7.08,4.3333333 8,4.3333333 8.92,4.3333333 9.6666667,5.08 9.6666667,6 9.6666667,6.92 8.92,7.6666667 8,7.6666667 Z" />
      </g>
    </g>
    <g
       transform="translate(51,16)"
       id="g52">
      <g
         id="g50"
         transform="translate(4,4)">
        <polygon
           id="polygon46"
           points="0,0 16,0 16,16 0,16 " />
        <path
           style="fill:#868686;fill-rule:nonzero"
           inkscape:connector-curvature="0"
           id="path48"
           d="M 8,1.3333333 C 5.42,1.3333333 3.3333333,3.42 3.3333333,6 3.3333333,9.5 8,14.666667 8,14.666667 8,14.666667 12.666667,9.5 12.666667,6 12.666667,3.42 10.58,1.3333333 8,1.3333333 Z M 8,7.6666667 C 7.08,7.6666667 6.3333333,6.92 6.3333333,6 6.3333333,5.08 7.08,4.3333333 8,4.3333333 8.92,4.3333333 9.6666667,5.08 9.6666667,6 9.6666667,6.92 8.92,7.6666667 8,7.6666667 Z" />
      </g>
    </g>
    <g
       transform="translate(37,23)"
       id="g60">
      <g
         id="g58"
         transform="translate(4,4)">
        <polygon
           id="polygon54"
           points="0,0 16,0 16,16 0,16 " />
        <path
           style="fill:#868686;fill-rule:nonzero"
           inkscape:connector-curvature="0"
           id="path56"
           d="M 8,1.3333333 C 5.42,1.3333333 3.3333333,3.42 3.3333333,6 3.3333333,9.5 8,14.666667 8,14.666667 8,14.666667 12.666667,9.5 12.666667,6 12.666667,3.42 10.58,1.3333333 8,1.3333333 Z M 8,7.6666667 C 7.08,7.6666667 6.3333333,6.92 6.3333333,6 6.3333333,5.08 7.08,4.3333333 8,4.3333333 8.92,4.3333333 9.6666667,5.08 9.6666667,6 9.6666667,6.92 8.92,7.6666667 8,7.6666667 Z" />
      </g>
    </g>
    <g
       transform="translate(8,31)"
       id="g68">
      <g
         id="g66"
         transform="translate(4,4)">
        <polygon
           id="polygon62"
           points="0,0 16,0 16,16 0,16 " />
        <path
           style="fill:#868686;fill-rule:nonzero"
           inkscape:connector-curvature="0"
           id="path64"
           d="M 8,1.3333333 C 5.42,1.3333333 3.3333333,3.42 3.3333333,6 3.3333333,9.5 8,14.666667 8,14.666667 8,14.666667 12.666667,9.5 12.666667,6 12.666667,3.42 10.58,1.3333333 8,1.3333333 Z M 8,7.6666667 C 7.08,7.6666667 6.3333333,6.92 6.3333333,6 6.3333333,5.08 7.08,4.3333333 8,4.3333333 8.92,4.3333333 9.6666667,5.08 9.6666667,6 9.6666667,6.92 8.92,7.6666667 8,7.6666667 Z" />
      </g>
    </g>
    <g
       transform="translate(18,64)"
       id="g76">
      <g
         id="g74"
         transform="translate(4,4)">
        <polygon
           id="polygon70"
           points="0,0 16,0 16,16 0,16 " />
        <path
           style="fill:#868686;fill-rule:nonzero"
           inkscape:connector-curvature="0"
           id="path72"
           d="M 8,1.3333333 C 5.42,1.3333333 3.3333333,3.42 3.3333333,6 3.3333333,9.5 8,14.666667 8,14.666667 8,14.666667 12.666667,9.5 12.666667,6 12.666667,3.42 10.58,1.3333333 8,1.3333333 Z M 8,7.6666667 C 7.08,7.6666667 6.3333333,6.92 6.3333333,6 6.3333333,5.08 7.08,4.3333333 8,4.3333333 8.92,4.3333333 9.6666667,5.08 9.6666667,6 9.6666667,6.92 8.92,7.6666667 8,7.6666667 Z" />
      </g>
    </g>
    <g
       transform="translate(4,62)"
       id="g84">
      <g
         id="g82"
         transform="translate(4,4)">
        <polygon
           id="polygon78"
           points="0,0 16,0 16,16 0,16 " />
        <path
           style="fill:#868686;fill-rule:nonzero"
           inkscape:connector-curvature="0"
           id="path80"
           d="M 8,1.3333333 C 5.42,1.3333333 3.3333333,3.42 3.3333333,6 3.3333333,9.5 8,14.666667 8,14.666667 8,14.666667 12.666667,9.5 12.666667,6 12.666667,3.42 10.58,1.3333333 8,1.3333333 Z M 8,7.6666667 C 7.08,7.6666667 6.3333333,6.92 6.3333333,6 6.3333333,5.08 7.08,4.3333333 8,4.3333333 8.92,4.3333333 9.6666667,5.08 9.6666667,6 9.6666667,6.92 8.92,7.6666667 8,7.6666667 Z" />
      </g>
    </g>
    <g
       transform="translate(43,39)"
       id="g92">
      <g
         id="g90"
         transform="translate(4,4)">
        <polygon
           id="polygon86"
           points="0,0 16,0 16,16 0,16 " />
        <path
           style="fill:#868686;fill-rule:nonzero"
           inkscape:connector-curvature="0"
           id="path88"
           d="M 8,1.3333333 C 5.42,1.3333333 3.3333333,3.42 3.3333333,6 3.3333333,9.5 8,14.666667 8,14.666667 8,14.666667 12.666667,9.5 12.666667,6 12.666667,3.42 10.58,1.3333333 8,1.3333333 Z M 8,7.6666667 C 7.08,7.6666667 6.3333333,6.92 6.3333333,6 6.3333333,5.08 7.08,4.3333333 8,4.3333333 8.92,4.3333333 9.6666667,5.08 9.6666667,6 9.6666667,6.92 8.92,7.6666667 8,7.6666667 Z" />
      </g>
    </g>
    <g
       transform="translate(57,40)"
       id="g100">
      <g
         id="g98"
         transform="translate(4,4)">
        <polygon
           id="polygon94"
           points="0,0 16,0 16,16 0,16 " />
        <path
           style="fill:#868686;fill-rule:nonzero"
           inkscape:connector-curvature="0"
           id="path96"
           d="M 8,1.3333333 C 5.42,1.3333333 3.3333333,3.42 3.3333333,6 3.3333333,9.5 8,14.666667 8,14.666667 8,14.666667 12.666667,9.5 12.666667,6 12.666667,3.42 10.58,1.3333333 8,1.3333333 Z M 8,7.6666667 C 7.08,7.6666667 6.3333333,6.92 6.3333333,6 6.3333333,5.08 7.08,4.3333333 8,4.3333333 8.92,4.3333333 9.6666667,5.08 9.6666667,6 9.6666667,6.92 8.92,7.6666667 8,7.6666667 Z" />
      </g>
    </g>
    <g
       transform="translate(24,34)"
       id="g108">
      <g
         id="g106"
         transform="translate(4,4)">
        <polygon
           id="polygon102"
           points="0,0 16,0 16,16 0,16 " />
        <path
           style="fill:#868686;fill-rule:nonzero"
           inkscape:connector-curvature="0"
           id="path104"
           d="M 8,1.3333333 C 5.42,1.3333333 3.3333333,3.42 3.3333333,6 3.3333333,9.5 8,14.666667 8,14.666667 8,14.666667 12.666667,9.5 12.666667,6 12.666667,3.42 10.58,1.3333333 8,1.3333333 Z M 8,7.6666667 C 7.08,7.6666667 6.3333333,6.92 6.3333333,6 6.3333333,5.08 7.08,4.3333333 8,4.3333333 8.92,4.3333333 9.6666667,5.08 9.6666667,6 9.6666667,6.92 8.92,7.6666667 8,7.6666667 Z" />
      </g>
    </g>
    <g
       transform="translate(41)"
       id="g116">
      <g
         id="g114"
         transform="translate(4,4)">
        <polygon
           id="polygon110"
           points="0,0 16,0 16,16 0,16 " />
        <path
           style="fill:#868686;fill-rule:nonzero"
           inkscape:connector-curvature="0"
           id="path112"
           d="M 8,1.3333333 C 5.42,1.3333333 3.3333333,3.42 3.3333333,6 3.3333333,9.5 8,14.666667 8,14.666667 8,14.666667 12.666667,9.5 12.666667,6 12.666667,3.42 10.58,1.3333333 8,1.3333333 Z M 8,7.6666667 C 7.08,7.6666667 6.3333333,6.92 6.3333333,6 6.3333333,5.08 7.08,4.3333333 8,4.3333333 8.92,4.3333333 9.6666667,5.08 9.6666667,6 9.6666667,6.92 8.92,7.6666667 8,7.6666667 Z" />
      </g>
    </g>
    <g
       transform="translate(12,47)"
       id="g124">
      <g
         id="g122"
         transform="translate(4,4)">
        <polygon
           id="polygon118"
           points="0,0 16,0 16,16 0,16 " />
        <path
           style="fill:#868686;fill-rule:nonzero"
           inkscape:connector-curvature="0"
           id="path120"
           d="M 8,1.3333333 C 5.42,1.3333333 3.3333333,3.42 3.3333333,6 3.3333333,9.5 8,14.666667 8,14.666667 8,14.666667 12.666667,9.5 12.666667,6 12.666667,3.42 10.58,1.3333333 8,1.3333333 Z M 8,7.6666667 C 7.08,7.6666667 6.3333333,6.92 6.3333333,6 6.3333333,5.08 7.08,4.3333333 8,4.3333333 8.92,4.3333333 9.6666667,5.08 9.6666667,6 9.6666667,6.92 8.92,7.6666667 8,7.6666667 Z" />
      </g>
    </g>
    <g
       transform="translate(17,89)"
       id="g132">
      <g
         id="g130"
         transform="translate(4,4)">
        <polygon
           id="polygon126"
           points="0,0 16,0 16,16 0,16 " />
        <path
           style="fill:#868686;fill-rule:nonzero"
           inkscape:connector-curvature="0"
           id="path128"
           d="M 8,1.3333333 C 5.42,1.3333333 3.3333333,3.42 3.3333333,6 3.3333333,9.5 8,14.666667 8,14.666667 8,14.666667 12.666667,9.5 12.666667,6 12.666667,3.42 10.58,1.3333333 8,1.3333333 Z M 8,7.6666667 C 7.08,7.6666667 6.3333333,6.92 6.3333333,6 6.3333333,5.08 7.08,4.3333333 8,4.3333333 8.92,4.3333333 9.6666667,5.08 9.6666667,6 9.6666667,6.92 8.92,7.6666667 8,7.6666667 Z" />
      </g>
    </g>
    <g
       transform="translate(41,57)"
       id="g140">
      <g
         id="g138"
         transform="translate(4,4)">
        <polygon
           id="polygon134"
           points="0,0 16,0 16,16 0,16 " />
        <path
           style="fill:#868686;fill-rule:nonzero"
           inkscape:connector-curvature="0"
           id="path136"
           d="M 8,1.3333333 C 5.42,1.3333333 3.3333333,3.42 3.3333333,6 3.3333333,9.5 8,14.666667 8,14.666667 8,14.666667 12.666667,9.5 12.666667,6 12.666667,3.42 10.58,1.3333333 8,1.3333333 Z M 8,7.6666667 C 7.08,7.6666667 6.3333333,6.92 6.3333333,6 6.3333333,5.08 7.08,4.3333333 8,4.3333333 8.92,4.3333333 9.6666667,5.08 9.6666667,6 9.6666667,6.92 8.92,7.6666667 8,7.6666667 Z" />
      </g>
    </g>
    <g
       transform="translate(29,53)"
       id="g148">
      <g
         id="g146"
         transform="translate(4,4)">
        <polygon
           id="polygon142"
           points="0,0 16,0 16,16 0,16 " />
        <path
           style="fill:#868686;fill-rule:nonzero"
           inkscape:connector-curvature="0"
           id="path144"
           d="M 8,1.3333333 C 5.42,1.3333333 3.3333333,3.42 3.3333333,6 3.3333333,9.5 8,14.666667 8,14.666667 8,14.666667 12.666667,9.5 12.666667,6 12.666667,3.42 10.58,1.3333333 8,1.3333333 Z M 8,7.6666667 C 7.08,7.6666667 6.3333333,6.92 6.3333333,6 6.3333333,5.08 7.08,4.3333333 8,4.3333333 8.92,4.3333333 9.6666667,5.08 9.6666667,6 9.6666667,6.92 8.92,7.6666667 8,7.6666667 Z" />
      </g>
    </g>
    <g
       transform="translate(25,77)"
       id="g156">
      <g
         id="g154"
         transform="translate(4,4)">
        <polygon
           id="polygon150"
           points="0,0 16,0 16,16 0,16 " />
        <path
           style="fill:#868686;fill-rule:nonzero"
           inkscape:connector-curvature="0"
           id="path152"
           d="M 8,1.3333333 C 5.42,1.3333333 3.3333333,3.42 3.3333333,6 3.3333333,9.5 8,14.666667 8,14.666667 8,14.666667 12.666667,9.5 12.666667,6 12.666667,3.42 10.58,1.3333333 8,1.3333333 Z M 8,7.6666667 C 7.08,7.6666667 6.3333333,6.92 6.3333333,6 6.3333333,5.08 7.08,4.3333333 8,4.3333333 8.92,4.3333333 9.6666667,5.08 9.6666667,6 9.6666667,6.92 8.92,7.6666667 8,7.6666667 Z" />
      </g>
    </g>
    <g
       transform="translate(40,76)"
       id="g164">
      <g
         id="g162"
         transform="translate(4,4)">
        <polygon
           id="polygon158"
           points="0,0 16,0 16,16 0,16 " />
        <path
           style="fill:#868686;fill-rule:nonzero"
           inkscape:connector-curvature="0"
           id="path160"
           d="M 8,1.3333333 C 5.42,1.3333333 3.3333333,3.42 3.3333333,6 3.3333333,9.5 8,14.666667 8,14.666667 8,14.666667 12.666667,9.5 12.666667,6 12.666667,3.42 10.58,1.3333333 8,1.3333333 Z M 8,7.6666667 C 7.08,7.6666667 6.3333333,6.92 6.3333333,6 6.3333333,5.08 7.08,4.3333333 8,4.3333333 8.92,4.3333333 9.6666667,5.08 9.6666667,6 9.6666667,6.92 8.92,7.6666667 8,7.6666667 Z" />
      </g>
    </g>
    <g
       transform="translate(30,91)"
       id="g172">
      <g
         id="g170"
         transform="translate(4,4)">
        <polygon
           id="polygon166"
           points="0,0 16,0 16,16 0,16 " />
        <path
           style="fill:#868686;fill-rule:nonzero"
           inkscape:connector-curvature="0"
           id="path168"
           d="M 8,1.3333333 C 5.42,1.3333333 3.3333333,3.42 3.3333333,6 3.3333333,9.5 8,14.666667 8,14.666667 8,14.666667 12.666667,9.5 12.666667,6 12.666667,3.42 10.58,1.3333333 8,1.3333333 Z M 8,7.6666667 C 7.08,7.6666667 6.3333333,6.92 6.3333333,6 6.3333333,5.08 7.08,4.3333333 8,4.3333333 8.92,4.3333333 9.6666667,5.08 9.6666667,6 9.6666667,6.92 8.92,7.6666667 8,7.6666667 Z" />
      </g>
    </g>
    <g
       transform="translate(50,89)"
       id="g180">
      <g
         id="g178"
         transform="translate(4,4)">
        <polygon
           id="polygon174"
           points="0,0 16,0 16,16 0,16 " />
        <path
           style="fill:#868686;fill-rule:nonzero"
           inkscape:connector-curvature="0"
           id="path176"
           d="M 8,1.3333333 C 5.42,1.3333333 3.3333333,3.42 3.3333333,6 3.3333333,9.5 8,14.666667 8,14.666667 8,14.666667 12.666667,9.5 12.666667,6 12.666667,3.42 10.58,1.3333333 8,1.3333333 Z M 8,7.6666667 C 7.08,7.6666667 6.3333333,6.92 6.3333333,6 6.3333333,5.08 7.08,4.3333333 8,4.3333333 8.92,4.3333333 9.6666667,5.08 9.6666667,6 9.6666667,6.92 8.92,7.6666667 8,7.6666667 Z" />
      </g>
    </g>
    <g
       transform="translate(70,43)"
       id="g188">
      <g
         id="g186"
         transform="translate(4,4)">
        <polygon
           id="polygon182"
           points="0,0 16,0 16,16 0,16 " />
        <path
           style="fill:#868686;fill-rule:nonzero"
           inkscape:connector-curvature="0"
           id="path184"
           d="M 8,1.3333333 C 5.42,1.3333333 3.3333333,3.42 3.3333333,6 3.3333333,9.5 8,14.666667 8,14.666667 8,14.666667 12.666667,9.5 12.666667,6 12.666667,3.42 10.58,1.3333333 8,1.3333333 Z M 8,7.6666667 C 7.08,7.6666667 6.3333333,6.92 6.3333333,6 6.3333333,5.08 7.08,4.3333333 8,4.3333333 8.92,4.3333333 9.6666667,5.08 9.6666667,6 9.6666667,6.92 8.92,7.6666667 8,7.6666667 Z" />
      </g>
    </g>
    <g
       transform="translate(65,20)"
       id="g196">
      <g
         id="g194"
         transform="translate(4,4)">
        <polygon
           id="polygon190"
           points="0,0 16,0 16,16 0,16 " />
        <path
           style="fill:#868686;fill-rule:nonzero"
           inkscape:connector-curvature="0"
           id="path192"
           d="M 8,1.3333333 C 5.42,1.3333333 3.3333333,3.42 3.3333333,6 3.3333333,9.5 8,14.666667 8,14.666667 8,14.666667 12.666667,9.5 12.666667,6 12.666667,3.42 10.58,1.3333333 8,1.3333333 Z M 8,7.6666667 C 7.08,7.6666667 6.3333333,6.92 6.3333333,6 6.3333333,5.08 7.08,4.3333333 8,4.3333333 8.92,4.3333333 9.6666667,5.08 9.6666667,6 9.6666667,6.92 8.92,7.6666667 8,7.6666667 Z" />
      </g>
    </g>
    <g
       transform="translate(76,28)"
       id="g204">
      <g
         id="g202"
         transform="translate(4,4)">
        <polygon
           id="polygon198"
           points="0,0 16,0 16,16 0,16 " />
        <path
           style="fill:#868686;fill-rule:nonzero"
           inkscape:connector-curvature="0"
           id="path200"
           d="M 8,1.3333333 C 5.42,1.3333333 3.3333333,3.42 3.3333333,6 3.3333333,9.5 8,14.666667 8,14.666667 8,14.666667 12.666667,9.5 12.666667,6 12.666667,3.42 10.58,1.3333333 8,1.3333333 Z M 8,7.6666667 C 7.08,7.6666667 6.3333333,6.92 6.3333333,6 6.3333333,5.08 7.08,4.3333333 8,4.3333333 8.92,4.3333333 9.6666667,5.08 9.6666667,6 9.6666667,6.92 8.92,7.6666667 8,7.6666667 Z" />
      </g>
    </g>
    <g
       transform="translate(86,34)"
       id="g212">
      <g
         id="g210"
         transform="translate(4,4)">
        <polygon
           id="polygon206"
           points="0,0 16,0 16,16 0,16 " />
        <path
           style="fill:#868686;fill-rule:nonzero"
           inkscape:connector-curvature="0"
           id="path208"
           d="M 8,1.3333333 C 5.42,1.3333333 3.3333333,3.42 3.3333333,6 3.3333333,9.5 8,14.666667 8,14.666667 8,14.666667 12.666667,9.5 12.666667,6 12.666667,3.42 10.58,1.3333333 8,1.3333333 Z M 8,7.6666667 C 7.08,7.6666667 6.3333333,6.92 6.3333333,6 6.3333333,5.08 7.08,4.3333333 8,4.3333333 8.92,4.3333333 9.6666667,5.08 9.6666667,6 9.6666667,6.92 8.92,7.6666667 8,7.6666667 Z" />
      </g>
    </g>
    <g
       transform="translate(53,62)"
       id="g220">
      <g
         id="g218"
         transform="translate(4,4)">
        <polygon
           id="polygon214"
           points="0,0 16,0 16,16 0,16 " />
        <path
           style="fill:#868686;fill-rule:nonzero"
           inkscape:connector-curvature="0"
           id="path216"
           d="M 8,1.3333333 C 5.42,1.3333333 3.3333333,3.42 3.3333333,6 3.3333333,9.5 8,14.666667 8,14.666667 8,14.666667 12.666667,9.5 12.666667,6 12.666667,3.42 10.58,1.3333333 8,1.3333333 Z M 8,7.6666667 C 7.08,7.6666667 6.3333333,6.92 6.3333333,6 6.3333333,5.08 7.08,4.3333333 8,4.3333333 8.92,4.3333333 9.6666667,5.08 9.6666667,6 9.6666667,6.92 8.92,7.6666667 8,7.6666667 Z" />
      </g>
    </g>
    <g
       transform="translate(60,74)"
       id="g228">
      <g
         id="g226"
         transform="translate(4,4)">
        <polygon
           id="polygon222"
           points="0,0 16,0 16,16 0,16 " />
        <path
           style="fill:#868686;fill-rule:nonzero"
           inkscape:connector-curvature="0"
           id="path224"
           d="M 8,1.3333333 C 5.42,1.3333333 3.3333333,3.42 3.3333333,6 3.3333333,9.5 8,14.666667 8,14.666667 8,14.666667 12.666667,9.5 12.666667,6 12.666667,3.42 10.58,1.3333333 8,1.3333333 Z M 8,7.6666667 C 7.08,7.6666667 6.3333333,6.92 6.3333333,6 6.3333333,5.08 7.08,4.3333333 8,4.3333333 8.92,4.3333333 9.6666667,5.08 9.6666667,6 9.6666667,6.92 8.92,7.6666667 8,7.6666667 Z" />
      </g>
    </g>
    <g
       transform="translate(65,88)"
       id="g236">
      <g
         id="g234"
         transform="translate(4,4)">
        <polygon
           id="polygon230"
           points="0,0 16,0 16,16 0,16 " />
        <path
           style="fill:#868686;fill-rule:nonzero"
           inkscape:connector-curvature="0"
           id="path232"
           d="M 8,1.3333333 C 5.42,1.3333333 3.3333333,3.42 3.3333333,6 3.3333333,9.5 8,14.666667 8,14.666667 8,14.666667 12.666667,9.5 12.666667,6 12.666667,3.42 10.58,1.3333333 8,1.3333333 Z M 8,7.6666667 C 7.08,7.6666667 6.3333333,6.92 6.3333333,6 6.3333333,5.08 7.08,4.3333333 8,4.3333333 8.92,4.3333333 9.6666667,5.08 9.6666667,6 9.6666667,6.92 8.92,7.6666667 8,7.6666667 Z" />
      </g>
    </g>
  </g>
  <rect
     style="opacity:0;fill:#d8d8d8;fill-rule:evenodd;stroke:none;stroke-width:1"
     height="171"
     width="110"
     y="0"
     x="0"
     id="Rectangle-34" />
</svg>
