<?xml version="1.0" encoding="UTF-8" standalone="no"?>
<svg
   xmlns:dc="http://purl.org/dc/elements/1.1/"
   xmlns:cc="http://creativecommons.org/ns#"
   xmlns:rdf="http://www.w3.org/1999/02/22-rdf-syntax-ns#"
   xmlns:svg="http://www.w3.org/2000/svg"
   xmlns="http://www.w3.org/2000/svg"
   xmlns:sodipodi="http://sodipodi.sourceforge.net/DTD/sodipodi-0.dtd"
   xmlns:inkscape="http://www.inkscape.org/namespaces/inkscape"
   width="152"
   height="142"
   viewBox="0 0 152 142"
   version="1.1"
   id="svg290"
   sodipodi:docname="es.svg"
   inkscape:version="0.92.3 (2405546, 2018-03-11)">
  <metadata
     id="metadata294">
    <rdf:RDF>
      <cc:Work
         rdf:about="">
        <dc:format>image/svg+xml</dc:format>
        <dc:type
           rdf:resource="http://purl.org/dc/dcmitype/StillImage" />
        <dc:title>es_161</dc:title>
      </cc:Work>
    </rdf:RDF>
  </metadata>
  <sodipodi:namedview
     pagecolor="#ffffff"
     bordercolor="#666666"
     borderopacity="1"
     objecttolerance="10"
     gridtolerance="10"
     guidetolerance="10"
     inkscape:pageopacity="0"
     inkscape:pageshadow="2"
     inkscape:window-width="1870"
     inkscape:window-height="1051"
     id="namedview292"
     showgrid="false"
     inkscape:zoom="3.1258278"
     inkscape:cx="70.818203"
     inkscape:cy="51.796403"
     inkscape:window-x="1970"
     inkscape:window-y="0"
     inkscape:window-maximized="1"
     inkscape:current-layer="svg290" />
  <!-- Generator: Sketch 51.3 (57544) - http://www.bohemiancoding.com/sketch -->
  <title
     id="title2">es_161</title>
  <desc
     id="desc4">Created with Sketch.</desc>
  <defs
     id="defs6" />
  <g
     style="fill:none;fill-rule:evenodd;stroke:none;stroke-width:1"
     transform="translate(92.720334,35.275424)"
     id="g45">
    <g
       transform="translate(4,4)"
       id="g43">
      <polygon
         points="16,0 16,16 0,16 0,0 "
         id="polygon39" />
      <path
         d="M 8,1.3333333 C 5.42,1.3333333 3.3333333,3.42 3.3333333,6 3.3333333,9.5 8,14.666667 8,14.666667 8,14.666667 12.666667,9.5 12.666667,6 12.666667,3.42 10.58,1.3333333 8,1.3333333 Z M 8,7.6666667 C 7.08,7.6666667 6.3333333,6.92 6.3333333,6 6.3333333,5.08 7.08,4.3333333 8,4.3333333 8.92,4.3333333 9.6666667,5.08 9.6666667,6 9.6666667,6.92 8.92,7.6666667 8,7.6666667 Z"
         id="path41"
         inkscape:connector-curvature="0"
         style="fill:#868686;fill-rule:nonzero" />
    </g>
  </g>
  <g
     id="g1519"
     transform="translate(0,1.5995763)">
    <g
       id="g13"
       transform="translate(34.800848,41.358051)"
       style="fill:none;fill-rule:evenodd;stroke:none;stroke-width:1">
      <g
         id="Shape"
         transform="translate(4,4)">
        <polygon
           id="polygon8"
           points="0,0 16,0 16,16 0,16 " />
        <path
           style="fill:#868686;fill-rule:nonzero"
           inkscape:connector-curvature="0"
           id="path10"
           d="M 8,1.3333333 C 5.42,1.3333333 3.3333333,3.42 3.3333333,6 3.3333333,9.5 8,14.666667 8,14.666667 8,14.666667 12.666667,9.5 12.666667,6 12.666667,3.42 10.58,1.3333333 8,1.3333333 Z M 8,7.6666667 C 7.08,7.6666667 6.3333333,6.92 6.3333333,6 6.3333333,5.08 7.08,4.3333333 8,4.3333333 8.92,4.3333333 9.6666667,5.08 9.6666667,6 9.6666667,6.92 8.92,7.6666667 8,7.6666667 Z" />
      </g>
    </g>
    <g
       id="g21"
       transform="translate(46.800848,49.358051)"
       style="fill:none;fill-rule:evenodd;stroke:none;stroke-width:1">
      <g
         id="g19"
         transform="translate(4,4)">
        <polygon
           id="polygon15"
           points="0,0 16,0 16,16 0,16 " />
        <path
           style="fill:#868686;fill-rule:nonzero"
           inkscape:connector-curvature="0"
           id="path17"
           d="M 8,1.3333333 C 5.42,1.3333333 3.3333333,3.42 3.3333333,6 3.3333333,9.5 8,14.666667 8,14.666667 8,14.666667 12.666667,9.5 12.666667,6 12.666667,3.42 10.58,1.3333333 8,1.3333333 Z M 8,7.6666667 C 7.08,7.6666667 6.3333333,6.92 6.3333333,6 6.3333333,5.08 7.08,4.3333333 8,4.3333333 8.92,4.3333333 9.6666667,5.08 9.6666667,6 9.6666667,6.92 8.92,7.6666667 8,7.6666667 Z" />
      </g>
    </g>
    <g
       id="g29"
       transform="translate(111.9216,26.610876)"
       style="fill:none;fill-rule:evenodd;stroke:none;stroke-width:1">
      <g
         id="g27"
         transform="translate(4,4)">
        <polygon
           id="polygon23"
           points="0,16 0,0 16,0 16,16 " />
        <path
           style="fill:#868686;fill-rule:nonzero"
           inkscape:connector-curvature="0"
           id="path25"
           d="M 8,1.3333333 C 5.42,1.3333333 3.3333333,3.42 3.3333333,6 3.3333333,9.5 8,14.666667 8,14.666667 8,14.666667 12.666667,9.5 12.666667,6 12.666667,3.42 10.58,1.3333333 8,1.3333333 Z M 8,7.6666667 C 7.08,7.6666667 6.3333333,6.92 6.3333333,6 6.3333333,5.08 7.08,4.3333333 8,4.3333333 8.92,4.3333333 9.6666667,5.08 9.6666667,6 9.6666667,6.92 8.92,7.6666667 8,7.6666667 Z" />
      </g>
    </g>
    <g
       id="g37"
       transform="translate(100.72033,20.608757)"
       style="fill:none;fill-rule:evenodd;stroke:none;stroke-width:1">
      <g
         id="g35"
         transform="translate(4,4)">
        <polygon
           id="polygon31"
           points="0,0 16,0 16,16 0,16 " />
        <path
           style="fill:#868686;fill-rule:nonzero"
           inkscape:connector-curvature="0"
           id="path33"
           d="M 8,1.3333333 C 5.42,1.3333333 3.3333333,3.42 3.3333333,6 3.3333333,9.5 8,14.666667 8,14.666667 8,14.666667 12.666667,9.5 12.666667,6 12.666667,3.42 10.58,1.3333333 8,1.3333333 Z M 8,7.6666667 C 7.08,7.6666667 6.3333333,6.92 6.3333333,6 6.3333333,5.08 7.08,4.3333333 8,4.3333333 8.92,4.3333333 9.6666667,5.08 9.6666667,6 9.6666667,6.92 8.92,7.6666667 8,7.6666667 Z" />
      </g>
    </g>
    <g
       id="g53"
       transform="translate(71.800848,55.024717)"
       style="fill:none;fill-rule:evenodd;stroke:none;stroke-width:1">
      <g
         id="g51"
         transform="translate(4,4)">
        <polygon
           id="polygon47"
           points="16,0 16,16 0,16 0,0 " />
        <path
           style="fill:#868686;fill-rule:nonzero"
           inkscape:connector-curvature="0"
           id="path49"
           d="M 8,1.3333333 C 5.42,1.3333333 3.3333333,3.42 3.3333333,6 3.3333333,9.5 8,14.666667 8,14.666667 8,14.666667 12.666667,9.5 12.666667,6 12.666667,3.42 10.58,1.3333333 8,1.3333333 Z M 8,7.6666667 C 7.08,7.6666667 6.3333333,6.92 6.3333333,6 6.3333333,5.08 7.08,4.3333333 8,4.3333333 8.92,4.3333333 9.6666667,5.08 9.6666667,6 9.6666667,6.92 8.92,7.6666667 8,7.6666667 Z" />
      </g>
    </g>
    <g
       id="g61"
       transform="translate(81.800848,67.358051)"
       style="fill:none;fill-rule:evenodd;stroke:none;stroke-width:1">
      <g
         id="g59"
         transform="translate(4,4)">
        <polygon
           id="polygon55"
           points="16,0 16,16 0,16 0,0 " />
        <path
           style="fill:#868686;fill-rule:nonzero"
           inkscape:connector-curvature="0"
           id="path57"
           d="M 8,1.3333333 C 5.42,1.3333333 3.3333333,3.42 3.3333333,6 3.3333333,9.5 8,14.666667 8,14.666667 8,14.666667 12.666667,9.5 12.666667,6 12.666667,3.42 10.58,1.3333333 8,1.3333333 Z M 8,7.6666667 C 7.08,7.6666667 6.3333333,6.92 6.3333333,6 6.3333333,5.08 7.08,4.3333333 8,4.3333333 8.92,4.3333333 9.6666667,5.08 9.6666667,6 9.6666667,6.92 8.92,7.6666667 8,7.6666667 Z" />
      </g>
    </g>
    <g
       id="g69"
       transform="translate(62.800848,82.358051)"
       style="fill:none;fill-rule:evenodd;stroke:none;stroke-width:1">
      <g
         id="g67"
         transform="translate(4,4)">
        <polygon
           id="polygon63"
           points="0,0 16,0 16,16 0,16 " />
        <path
           style="fill:#868686;fill-rule:nonzero"
           inkscape:connector-curvature="0"
           id="path65"
           d="M 8,1.3333333 C 5.42,1.3333333 3.3333333,3.42 3.3333333,6 3.3333333,9.5 8,14.666667 8,14.666667 8,14.666667 12.666667,9.5 12.666667,6 12.666667,3.42 10.58,1.3333333 8,1.3333333 Z M 8,7.6666667 C 7.08,7.6666667 6.3333333,6.92 6.3333333,6 6.3333333,5.08 7.08,4.3333333 8,4.3333333 8.92,4.3333333 9.6666667,5.08 9.6666667,6 9.6666667,6.92 8.92,7.6666667 8,7.6666667 Z" />
      </g>
    </g>
    <g
       id="g77"
       transform="translate(56.279662,99.915251)"
       style="fill:none;fill-rule:evenodd;stroke:none;stroke-width:1">
      <g
         id="g75"
         transform="translate(4,4)">
        <polygon
           id="polygon71"
           points="16,0 16,16 0,16 0,0 " />
        <path
           style="fill:#868686;fill-rule:nonzero"
           inkscape:connector-curvature="0"
           id="path73"
           d="M 8,1.3333333 C 5.42,1.3333333 3.3333333,3.42 3.3333333,6 3.3333333,9.5 8,14.666667 8,14.666667 8,14.666667 12.666667,9.5 12.666667,6 12.666667,3.42 10.58,1.3333333 8,1.3333333 Z M 8,7.6666667 C 7.08,7.6666667 6.3333333,6.92 6.3333333,6 6.3333333,5.08 7.08,4.3333333 8,4.3333333 8.92,4.3333333 9.6666667,5.08 9.6666667,6 9.6666667,6.92 8.92,7.6666667 8,7.6666667 Z" />
      </g>
    </g>
    <g
       id="g85"
       transform="translate(37.199153,97.116523)"
       style="fill:none;fill-rule:evenodd;stroke:none;stroke-width:1">
      <g
         id="g83"
         transform="translate(4,4)">
        <polygon
           id="polygon79"
           points="16,0 16,16 0,16 0,0 " />
        <path
           style="fill:#868686;fill-rule:nonzero"
           inkscape:connector-curvature="0"
           id="path81"
           d="M 8,1.3333333 C 5.42,1.3333333 3.3333333,3.42 3.3333333,6 3.3333333,9.5 8,14.666667 8,14.666667 8,14.666667 12.666667,9.5 12.666667,6 12.666667,3.42 10.58,1.3333333 8,1.3333333 Z M 8,7.6666667 C 7.08,7.6666667 6.3333333,6.92 6.3333333,6 6.3333333,5.08 7.08,4.3333333 8,4.3333333 8.92,4.3333333 9.6666667,5.08 9.6666667,6 9.6666667,6.92 8.92,7.6666667 8,7.6666667 Z" />
      </g>
    </g>
    <g
       id="g93"
       transform="translate(71.800848,25.691383)"
       style="fill:none;fill-rule:evenodd;stroke:none;stroke-width:1">
      <g
         id="g91"
         transform="translate(4,4)">
        <polygon
           id="polygon87"
           points="16,0 16,16 0,16 0,0 " />
        <path
           style="fill:#868686;fill-rule:nonzero"
           inkscape:connector-curvature="0"
           id="path89"
           d="M 8,1.3333333 C 5.42,1.3333333 3.3333333,3.42 3.3333333,6 3.3333333,9.5 8,14.666667 8,14.666667 8,14.666667 12.666667,9.5 12.666667,6 12.666667,3.42 10.58,1.3333333 8,1.3333333 Z M 8,7.6666667 C 7.08,7.6666667 6.3333333,6.92 6.3333333,6 6.3333333,5.08 7.08,4.3333333 8,4.3333333 8.92,4.3333333 9.6666667,5.08 9.6666667,6 9.6666667,6.92 8.92,7.6666667 8,7.6666667 Z" />
      </g>
    </g>
    <g
       id="g101"
       transform="translate(10.800848,63.358051)"
       style="fill:none;fill-rule:evenodd;stroke:none;stroke-width:1">
      <g
         id="g99"
         transform="translate(4,4)">
        <polygon
           id="polygon95"
           points="0,0 16,0 16,16 0,16 " />
        <path
           style="fill:#868686;fill-rule:nonzero"
           inkscape:connector-curvature="0"
           id="path97"
           d="M 8,1.3333333 C 5.42,1.3333333 3.3333333,3.42 3.3333333,6 3.3333333,9.5 8,14.666667 8,14.666667 8,14.666667 12.666667,9.5 12.666667,6 12.666667,3.42 10.58,1.3333333 8,1.3333333 Z M 8,7.6666667 C 7.08,7.6666667 6.3333333,6.92 6.3333333,6 6.3333333,5.08 7.08,4.3333333 8,4.3333333 8.92,4.3333333 9.6666667,5.08 9.6666667,6 9.6666667,6.92 8.92,7.6666667 8,7.6666667 Z" />
      </g>
    </g>
    <g
       id="g109"
       transform="translate(12.800848,40.358051)"
       style="fill:none;fill-rule:evenodd;stroke:none;stroke-width:1">
      <g
         id="g107"
         transform="translate(4,4)">
        <polygon
           id="polygon103"
           points="0,16 0,0 16,0 16,16 " />
        <path
           style="fill:#868686;fill-rule:nonzero"
           inkscape:connector-curvature="0"
           id="path105"
           d="M 8,1.3333333 C 5.42,1.3333333 3.3333333,3.42 3.3333333,6 3.3333333,9.5 8,14.666667 8,14.666667 8,14.666667 12.666667,9.5 12.666667,6 12.666667,3.42 10.58,1.3333333 8,1.3333333 Z M 8,7.6666667 C 7.08,7.6666667 6.3333333,6.92 6.3333333,6 6.3333333,5.08 7.08,4.3333333 8,4.3333333 8.92,4.3333333 9.6666667,5.08 9.6666667,6 9.6666667,6.92 8.92,7.6666667 8,7.6666667 Z" />
      </g>
    </g>
    <g
       id="g117"
       transform="translate(28.800848,19.358051)"
       style="fill:none;fill-rule:evenodd;stroke:none;stroke-width:1">
      <g
         id="g115"
         transform="translate(4,4)">
        <polygon
           id="polygon111"
           points="0,0 16,0 16,16 0,16 " />
        <path
           style="fill:#868686;fill-rule:nonzero"
           inkscape:connector-curvature="0"
           id="path113"
           d="M 8,1.3333333 C 5.42,1.3333333 3.3333333,3.42 3.3333333,6 3.3333333,9.5 8,14.666667 8,14.666667 8,14.666667 12.666667,9.5 12.666667,6 12.666667,3.42 10.58,1.3333333 8,1.3333333 Z M 8,7.6666667 C 7.08,7.6666667 6.3333333,6.92 6.3333333,6 6.3333333,5.08 7.08,4.3333333 8,4.3333333 8.92,4.3333333 9.6666667,5.08 9.6666667,6 9.6666667,6.92 8.92,7.6666667 8,7.6666667 Z" />
      </g>
    </g>
    <g
       id="g125"
       transform="translate(33.800848,1.3580511)"
       style="fill:none;fill-rule:evenodd;stroke:none;stroke-width:1">
      <g
         id="g123"
         transform="translate(4,4)">
        <polygon
           id="polygon119"
           points="0,0 16,0 16,16 0,16 " />
        <path
           style="fill:#868686;fill-rule:nonzero"
           inkscape:connector-curvature="0"
           id="path121"
           d="M 8,1.3333333 C 5.42,1.3333333 3.3333333,3.42 3.3333333,6 3.3333333,9.5 8,14.666667 8,14.666667 8,14.666667 12.666667,9.5 12.666667,6 12.666667,3.42 10.58,1.3333333 8,1.3333333 Z M 8,7.6666667 C 7.08,7.6666667 6.3333333,6.92 6.3333333,6 6.3333333,5.08 7.08,4.3333333 8,4.3333333 8.92,4.3333333 9.6666667,5.08 9.6666667,6 9.6666667,6.92 8.92,7.6666667 8,7.6666667 Z" />
      </g>
    </g>
    <g
       id="g133"
       transform="translate(4.8008474,-3.6419489)"
       style="fill:none;fill-rule:evenodd;stroke:none;stroke-width:1">
      <g
         id="g131"
         transform="translate(4,4)">
        <polygon
           id="polygon127"
           points="0,16 0,0 16,0 16,16 " />
        <path
           style="fill:#868686;fill-rule:nonzero"
           inkscape:connector-curvature="0"
           id="path129"
           d="M 8,1.3333333 C 5.42,1.3333333 3.3333333,3.42 3.3333333,6 3.3333333,9.5 8,14.666667 8,14.666667 8,14.666667 12.666667,9.5 12.666667,6 12.666667,3.42 10.58,1.3333333 8,1.3333333 Z M 8,7.6666667 C 7.08,7.6666667 6.3333333,6.92 6.3333333,6 6.3333333,5.08 7.08,4.3333333 8,4.3333333 8.92,4.3333333 9.6666667,5.08 9.6666667,6 9.6666667,6.92 8.92,7.6666667 8,7.6666667 Z" />
      </g>
    </g>
    <g
       id="g141"
       transform="translate(-6.1991526,-4.6419489)"
       style="fill:none;fill-rule:evenodd;stroke:none;stroke-width:1">
      <g
         id="g139"
         transform="translate(4,4)">
        <polygon
           id="polygon135"
           points="0,16 0,0 16,0 16,16 " />
        <path
           style="fill:#868686;fill-rule:nonzero"
           inkscape:connector-curvature="0"
           id="path137"
           d="M 8,1.3333333 C 5.42,1.3333333 3.3333333,3.42 3.3333333,6 3.3333333,9.5 8,14.666667 8,14.666667 8,14.666667 12.666667,9.5 12.666667,6 12.666667,3.42 10.58,1.3333333 8,1.3333333 Z M 8,7.6666667 C 7.08,7.6666667 6.3333333,6.92 6.3333333,6 6.3333333,5.08 7.08,4.3333333 8,4.3333333 8.92,4.3333333 9.6666667,5.08 9.6666667,6 9.6666667,6.92 8.92,7.6666667 8,7.6666667 Z" />
      </g>
    </g>
    <g
       id="g149"
       transform="translate(15.800848,16.358051)"
       style="fill:none;fill-rule:evenodd;stroke:none;stroke-width:1">
      <g
         id="g147"
         transform="translate(4,4)">
        <polygon
           id="polygon143"
           points="0,0 16,0 16,16 0,16 " />
        <path
           style="fill:#868686;fill-rule:nonzero"
           inkscape:connector-curvature="0"
           id="path145"
           d="M 8,1.3333333 C 5.42,1.3333333 3.3333333,3.42 3.3333333,6 3.3333333,9.5 8,14.666667 8,14.666667 8,14.666667 12.666667,9.5 12.666667,6 12.666667,3.42 10.58,1.3333333 8,1.3333333 Z M 8,7.6666667 C 7.08,7.6666667 6.3333333,6.92 6.3333333,6 6.3333333,5.08 7.08,4.3333333 8,4.3333333 8.92,4.3333333 9.6666667,5.08 9.6666667,6 9.6666667,6.92 8.92,7.6666667 8,7.6666667 Z" />
      </g>
    </g>
    <g
       id="g157"
       transform="translate(1.8008477,69.358051)"
       style="fill:none;fill-rule:evenodd;stroke:none;stroke-width:1">
      <g
         id="g155"
         transform="translate(4,4)">
        <polygon
           id="polygon151"
           points="0,0 16,0 16,16 0,16 " />
        <path
           style="fill:#868686;fill-rule:nonzero"
           inkscape:connector-curvature="0"
           id="path153"
           d="M 8,1.3333333 C 5.42,1.3333333 3.3333333,3.42 3.3333333,6 3.3333333,9.5 8,14.666667 8,14.666667 8,14.666667 12.666667,9.5 12.666667,6 12.666667,3.42 10.58,1.3333333 8,1.3333333 Z M 8,7.6666667 C 7.08,7.6666667 6.3333333,6.92 6.3333333,6 6.3333333,5.08 7.08,4.3333333 8,4.3333333 8.92,4.3333333 9.6666667,5.08 9.6666667,6 9.6666667,6.92 8.92,7.6666667 8,7.6666667 Z" />
      </g>
    </g>
    <g
       id="g165"
       transform="translate(5.800848,102.35805)"
       style="fill:none;fill-rule:evenodd;stroke:none;stroke-width:1">
      <g
         id="g163"
         transform="translate(4,4)">
        <polygon
           id="polygon159"
           points="0,0 16,0 16,16 0,16 " />
        <path
           style="fill:#868686;fill-rule:nonzero"
           inkscape:connector-curvature="0"
           id="path161"
           d="M 8,1.3333333 C 5.42,1.3333333 3.3333333,3.42 3.3333333,6 3.3333333,9.5 8,14.666667 8,14.666667 8,14.666667 12.666667,9.5 12.666667,6 12.666667,3.42 10.58,1.3333333 8,1.3333333 Z M 8,7.6666667 C 7.08,7.6666667 6.3333333,6.92 6.3333333,6 6.3333333,5.08 7.08,4.3333333 8,4.3333333 8.92,4.3333333 9.6666667,5.08 9.6666667,6 9.6666667,6.92 8.92,7.6666667 8,7.6666667 Z" />
      </g>
    </g>
    <g
       id="g173"
       transform="translate(21.800848,77.358051)"
       style="fill:none;fill-rule:evenodd;stroke:none;stroke-width:1">
      <g
         id="g171"
         transform="translate(4,4)">
        <polygon
           id="polygon167"
           points="0,0 16,0 16,16 0,16 " />
        <path
           style="fill:#868686;fill-rule:nonzero"
           inkscape:connector-curvature="0"
           id="path169"
           d="M 8,1.3333333 C 5.42,1.3333333 3.3333333,3.42 3.3333333,6 3.3333333,9.5 8,14.666667 8,14.666667 8,14.666667 12.666667,9.5 12.666667,6 12.666667,3.42 10.58,1.3333333 8,1.3333333 Z M 8,7.6666667 C 7.08,7.6666667 6.3333333,6.92 6.3333333,6 6.3333333,5.08 7.08,4.3333333 8,4.3333333 8.92,4.3333333 9.6666667,5.08 9.6666667,6 9.6666667,6.92 8.92,7.6666667 8,7.6666667 Z" />
      </g>
    </g>
    <g
       id="g181"
       transform="translate(28.800848,56.358051)"
       style="fill:none;fill-rule:evenodd;stroke:none;stroke-width:1">
      <g
         id="g179"
         transform="translate(4,4)">
        <polygon
           id="polygon175"
           points="0,0 16,0 16,16 0,16 " />
        <path
           style="fill:#868686;fill-rule:nonzero"
           inkscape:connector-curvature="0"
           id="path177"
           d="M 8,1.3333333 C 5.42,1.3333333 3.3333333,3.42 3.3333333,6 3.3333333,9.5 8,14.666667 8,14.666667 8,14.666667 12.666667,9.5 12.666667,6 12.666667,3.42 10.58,1.3333333 8,1.3333333 Z M 8,7.6666667 C 7.08,7.6666667 6.3333333,6.92 6.3333333,6 6.3333333,5.08 7.08,4.3333333 8,4.3333333 8.92,4.3333333 9.6666667,5.08 9.6666667,6 9.6666667,6.92 8.92,7.6666667 8,7.6666667 Z" />
      </g>
    </g>
    <g
       id="g189"
       transform="translate(-3.1991526,87.358051)"
       style="fill:none;fill-rule:evenodd;stroke:none;stroke-width:1">
      <g
         id="g187"
         transform="translate(4,4)">
        <polygon
           id="polygon183"
           points="0,0 16,0 16,16 0,16 " />
        <path
           style="fill:#868686;fill-rule:nonzero"
           inkscape:connector-curvature="0"
           id="path185"
           d="M 8,1.3333333 C 5.42,1.3333333 3.3333333,3.42 3.3333333,6 3.3333333,9.5 8,14.666667 8,14.666667 8,14.666667 12.666667,9.5 12.666667,6 12.666667,3.42 10.58,1.3333333 8,1.3333333 Z M 8,7.6666667 C 7.08,7.6666667 6.3333333,6.92 6.3333333,6 6.3333333,5.08 7.08,4.3333333 8,4.3333333 8.92,4.3333333 9.6666667,5.08 9.6666667,6 9.6666667,6.92 8.92,7.6666667 8,7.6666667 Z" />
      </g>
    </g>
    <g
       id="g197"
       transform="translate(15.800848,94.358048)"
       style="fill:none;fill-rule:evenodd;stroke:none;stroke-width:1">
      <g
         id="g195"
         transform="translate(4,4)">
        <polygon
           id="polygon191"
           points="0,0 16,0 16,16 0,16 " />
        <path
           style="fill:#868686;fill-rule:nonzero"
           inkscape:connector-curvature="0"
           id="path193"
           d="M 8,1.3333333 C 5.42,1.3333333 3.3333333,3.42 3.3333333,6 3.3333333,9.5 8,14.666667 8,14.666667 8,14.666667 12.666667,9.5 12.666667,6 12.666667,3.42 10.58,1.3333333 8,1.3333333 Z M 8,7.6666667 C 7.08,7.6666667 6.3333333,6.92 6.3333333,6 6.3333333,5.08 7.08,4.3333333 8,4.3333333 8.92,4.3333333 9.6666667,5.08 9.6666667,6 9.6666667,6.92 8.92,7.6666667 8,7.6666667 Z" />
      </g>
    </g>
    <g
       id="g205"
       transform="translate(57.800848,34.358051)"
       style="fill:none;fill-rule:evenodd;stroke:none;stroke-width:1">
      <g
         id="g203"
         transform="translate(4,4)">
        <polygon
           id="polygon199"
           points="0,0 16,0 16,16 0,16 " />
        <path
           style="fill:#868686;fill-rule:nonzero"
           inkscape:connector-curvature="0"
           id="path201"
           d="M 8,1.3333333 C 5.42,1.3333333 3.3333333,3.42 3.3333333,6 3.3333333,9.5 8,14.666667 8,14.666667 8,14.666667 12.666667,9.5 12.666667,6 12.666667,3.42 10.58,1.3333333 8,1.3333333 Z M 8,7.6666667 C 7.08,7.6666667 6.3333333,6.92 6.3333333,6 6.3333333,5.08 7.08,4.3333333 8,4.3333333 8.92,4.3333333 9.6666667,5.08 9.6666667,6 9.6666667,6.92 8.92,7.6666667 8,7.6666667 Z" />
      </g>
    </g>
    <g
       id="g213"
       transform="translate(43.000001,79.71822)"
       style="fill:none;fill-rule:evenodd;stroke:none;stroke-width:1">
      <g
         id="g211"
         transform="translate(4,4)">
        <polygon
           id="polygon207"
           points="16,16 0,16 0,0 16,0 " />
        <path
           style="fill:#868686;fill-rule:nonzero"
           inkscape:connector-curvature="0"
           id="path209"
           d="M 8,1.3333333 C 5.42,1.3333333 3.3333333,3.42 3.3333333,6 3.3333333,9.5 8,14.666667 8,14.666667 8,14.666667 12.666667,9.5 12.666667,6 12.666667,3.42 10.58,1.3333333 8,1.3333333 Z M 8,7.6666667 C 7.08,7.6666667 6.3333333,6.92 6.3333333,6 6.3333333,5.08 7.08,4.3333333 8,4.3333333 8.92,4.3333333 9.6666667,5.08 9.6666667,6 9.6666667,6.92 8.92,7.6666667 8,7.6666667 Z" />
      </g>
    </g>
    <g
       id="g221"
       transform="translate(54.800848,67.691384)"
       style="fill:none;fill-rule:evenodd;stroke:none;stroke-width:1">
      <g
         id="g219"
         transform="translate(4,4)">
        <polygon
           id="polygon215"
           points="16,0 16,16 0,16 0,0 " />
        <path
           style="fill:#868686;fill-rule:nonzero"
           inkscape:connector-curvature="0"
           id="path217"
           d="M 8,1.3333333 C 5.42,1.3333333 3.3333333,3.42 3.3333333,6 3.3333333,9.5 8,14.666667 8,14.666667 8,14.666667 12.666667,9.5 12.666667,6 12.666667,3.42 10.58,1.3333333 8,1.3333333 Z M 8,7.6666667 C 7.08,7.6666667 6.3333333,6.92 6.3333333,6 6.3333333,5.08 7.08,4.3333333 8,4.3333333 8.92,4.3333333 9.6666667,5.08 9.6666667,6 9.6666667,6.92 8.92,7.6666667 8,7.6666667 Z" />
      </g>
    </g>
    <g
       id="g229"
       transform="translate(82.800843,17.691384)"
       style="fill:none;fill-rule:evenodd;stroke:none;stroke-width:1">
      <g
         id="g227"
         transform="translate(4,4)">
        <polygon
           id="polygon223"
           points="16,16 0,16 0,0 16,0 " />
        <path
           style="fill:#868686;fill-rule:nonzero"
           inkscape:connector-curvature="0"
           id="path225"
           d="M 8,1.3333333 C 5.42,1.3333333 3.3333333,3.42 3.3333333,6 3.3333333,9.5 8,14.666667 8,14.666667 8,14.666667 12.666667,9.5 12.666667,6 12.666667,3.42 10.58,1.3333333 8,1.3333333 Z M 8,7.6666667 C 7.08,7.6666667 6.3333333,6.92 6.3333333,6 6.3333333,5.08 7.08,4.3333333 8,4.3333333 8.92,4.3333333 9.6666667,5.08 9.6666667,6 9.6666667,6.92 8.92,7.6666667 8,7.6666667 Z" />
      </g>
    </g>
    <g
       id="g237"
       transform="translate(79.800848,40.35805)"
       style="fill:none;fill-rule:evenodd;stroke:none;stroke-width:1">
      <g
         id="g235"
         transform="translate(4,4)">
        <polygon
           id="polygon231"
           points="16,16 0,16 0,0 16,0 " />
        <path
           style="fill:#868686;fill-rule:nonzero"
           inkscape:connector-curvature="0"
           id="path233"
           d="M 8,1.3333333 C 5.42,1.3333333 3.3333333,3.42 3.3333333,6 3.3333333,9.5 8,14.666667 8,14.666667 8,14.666667 12.666667,9.5 12.666667,6 12.666667,3.42 10.58,1.3333333 8,1.3333333 Z M 8,7.6666667 C 7.08,7.6666667 6.3333333,6.92 6.3333333,6 6.3333333,5.08 7.08,4.3333333 8,4.3333333 8.92,4.3333333 9.6666667,5.08 9.6666667,6 9.6666667,6.92 8.92,7.6666667 8,7.6666667 Z" />
      </g>
    </g>
    <g
       id="g245"
       transform="translate(67.800848,8.358051)"
       style="fill:none;fill-rule:evenodd;stroke:none;stroke-width:1">
      <g
         id="g243"
         transform="translate(4,4)">
        <polygon
           id="polygon239"
           points="0,0 16,0 16,16 0,16 " />
        <path
           style="fill:#868686;fill-rule:nonzero"
           inkscape:connector-curvature="0"
           id="path241"
           d="M 8,1.3333333 C 5.42,1.3333333 3.3333333,3.42 3.3333333,6 3.3333333,9.5 8,14.666667 8,14.666667 8,14.666667 12.666667,9.5 12.666667,6 12.666667,3.42 10.58,1.3333333 8,1.3333333 Z M 8,7.6666667 C 7.08,7.6666667 6.3333333,6.92 6.3333333,6 6.3333333,5.08 7.08,4.3333333 8,4.3333333 8.92,4.3333333 9.6666667,5.08 9.6666667,6 9.6666667,6.92 8.92,7.6666667 8,7.6666667 Z" />
      </g>
    </g>
    <g
       id="g253"
       transform="translate(50.800848,3.3580511)"
       style="fill:none;fill-rule:evenodd;stroke:none;stroke-width:1">
      <g
         id="g251"
         transform="translate(4,4)">
        <polygon
           id="polygon247"
           points="0,0 16,0 16,16 0,16 " />
        <path
           style="fill:#868686;fill-rule:nonzero"
           inkscape:connector-curvature="0"
           id="path249"
           d="M 8,1.3333333 C 5.42,1.3333333 3.3333333,3.42 3.3333333,6 3.3333333,9.5 8,14.666667 8,14.666667 8,14.666667 12.666667,9.5 12.666667,6 12.666667,3.42 10.58,1.3333333 8,1.3333333 Z M 8,7.6666667 C 7.08,7.6666667 6.3333333,6.92 6.3333333,6 6.3333333,5.08 7.08,4.3333333 8,4.3333333 8.92,4.3333333 9.6666667,5.08 9.6666667,6 9.6666667,6.92 8.92,7.6666667 8,7.6666667 Z" />
      </g>
    </g>
    <g
       id="g261"
       transform="translate(56.800848,16.358051)"
       style="fill:none;fill-rule:evenodd;stroke:none;stroke-width:1">
      <g
         id="g259"
         transform="translate(4,4)">
        <polygon
           id="polygon255"
           points="0,0 16,0 16,16 0,16 " />
        <path
           style="fill:#868686;fill-rule:nonzero"
           inkscape:connector-curvature="0"
           id="path257"
           d="M 8,1.3333333 C 5.42,1.3333333 3.3333333,3.42 3.3333333,6 3.3333333,9.5 8,14.666667 8,14.666667 8,14.666667 12.666667,9.5 12.666667,6 12.666667,3.42 10.58,1.3333333 8,1.3333333 Z M 8,7.6666667 C 7.08,7.6666667 6.3333333,6.92 6.3333333,6 6.3333333,5.08 7.08,4.3333333 8,4.3333333 8.92,4.3333333 9.6666667,5.08 9.6666667,6 9.6666667,6.92 8.92,7.6666667 8,7.6666667 Z" />
      </g>
    </g>
    <g
       id="g269"
       transform="translate(42.800848,23.358051)"
       style="fill:none;fill-rule:evenodd;stroke:none;stroke-width:1">
      <g
         id="g267"
         transform="translate(4,4)">
        <polygon
           id="polygon263"
           points="0,0 16,0 16,16 0,16 " />
        <path
           style="fill:#868686;fill-rule:nonzero"
           inkscape:connector-curvature="0"
           id="path265"
           d="M 8,1.3333333 C 5.42,1.3333333 3.3333333,3.42 3.3333333,6 3.3333333,9.5 8,14.666667 8,14.666667 8,14.666667 12.666667,9.5 12.666667,6 12.666667,3.42 10.58,1.3333333 8,1.3333333 Z M 8,7.6666667 C 7.08,7.6666667 6.3333333,6.92 6.3333333,6 6.3333333,5.08 7.08,4.3333333 8,4.3333333 8.92,4.3333333 9.6666667,5.08 9.6666667,6 9.6666667,6.92 8.92,7.6666667 8,7.6666667 Z" />
      </g>
    </g>
    <g
       id="g277"
       transform="translate(89.800848,52.691384)"
       style="fill:none;fill-rule:evenodd;stroke:none;stroke-width:1">
      <g
         id="g275"
         transform="translate(4,4)">
        <polygon
           id="polygon271"
           points="16,16 0,16 0,0 16,0 " />
        <path
           style="fill:#868686;fill-rule:nonzero"
           inkscape:connector-curvature="0"
           id="path273"
           d="M 8,1.3333333 C 5.42,1.3333333 3.3333333,3.42 3.3333333,6 3.3333333,9.5 8,14.666667 8,14.666667 8,14.666667 12.666667,9.5 12.666667,6 12.666667,3.42 10.58,1.3333333 8,1.3333333 Z M 8,7.6666667 C 7.08,7.6666667 6.3333333,6.92 6.3333333,6 6.3333333,5.08 7.08,4.3333333 8,4.3333333 8.92,4.3333333 9.6666667,5.08 9.6666667,6 9.6666667,6.92 8.92,7.6666667 8,7.6666667 Z" />
      </g>
    </g>
    <g
       id="g285"
       transform="translate(17.800848,-0.6419489)"
       style="fill:none;fill-rule:evenodd;stroke:none;stroke-width:1">
      <g
         id="g283"
         transform="translate(4,4)">
        <polygon
           id="polygon279"
           points="0,0 16,0 16,16 0,16 " />
        <path
           style="fill:#868686;fill-rule:nonzero"
           inkscape:connector-curvature="0"
           id="path281"
           d="M 8,1.3333333 C 5.42,1.3333333 3.3333333,3.42 3.3333333,6 3.3333333,9.5 8,14.666667 8,14.666667 8,14.666667 12.666667,9.5 12.666667,6 12.666667,3.42 10.58,1.3333333 8,1.3333333 Z M 8,7.6666667 C 7.08,7.6666667 6.3333333,6.92 6.3333333,6 6.3333333,5.08 7.08,4.3333333 8,4.3333333 8.92,4.3333333 9.6666667,5.08 9.6666667,6 9.6666667,6.92 8.92,7.6666667 8,7.6666667 Z" />
      </g>
    </g>
  </g>
  <rect
     style="opacity:0;fill:#d8d8d8;fill-rule:evenodd;stroke:none;stroke-width:1"
     height="151"
     width="155"
     y="-8"
     x="1"
     id="Rectangle-43" />
</svg>
