<?xml version="1.0" encoding="UTF-8" standalone="no"?>
<svg
   xmlns:dc="http://purl.org/dc/elements/1.1/"
   xmlns:cc="http://creativecommons.org/ns#"
   xmlns:rdf="http://www.w3.org/1999/02/22-rdf-syntax-ns#"
   xmlns:svg="http://www.w3.org/2000/svg"
   xmlns="http://www.w3.org/2000/svg"
   xmlns:sodipodi="http://sodipodi.sourceforge.net/DTD/sodipodi-0.dtd"
   xmlns:inkscape="http://www.inkscape.org/namespaces/inkscape"
   width="152px"
   height="168px"
   viewBox="0 0 152 168"
   version="1.1"
   id="svg394"
   sodipodi:docname="fr.svg"
   inkscape:version="0.92.3 (2405546, 2018-03-11)">
  <metadata
     id="metadata398">
    <rdf:RDF>
      <cc:Work
         rdf:about="">
        <dc:format>image/svg+xml</dc:format>
        <dc:type
           rdf:resource="http://purl.org/dc/dcmitype/StillImage" />
      </cc:Work>
    </rdf:RDF>
  </metadata>
  <sodipodi:namedview
     pagecolor="#ffffff"
     bordercolor="#666666"
     borderopacity="1"
     objecttolerance="10"
     gridtolerance="10"
     guidetolerance="10"
     inkscape:pageopacity="0"
     inkscape:pageshadow="2"
     inkscape:window-width="1870"
     inkscape:window-height="1051"
     id="namedview396"
     showgrid="false"
     inkscape:zoom="3.9732667"
     inkscape:cx="92.651889"
     inkscape:cy="80.781048"
     inkscape:window-x="1970"
     inkscape:window-y="0"
     inkscape:window-maximized="1"
     inkscape:current-layer="svg394" />
  <!-- Generator: Sketch 51.3 (57544) - http://www.bohemiancoding.com/sketch -->
  <title
     id="title2">fr_518</title>
  <desc
     id="desc4">Created with Sketch.</desc>
  <defs
     id="defs6" />
  <g
     id="g2162"
     transform="translate(0.25168207,1.5100924)">
    <g
       id="g381"
       transform="translate(70.864407,-5.5084746)"
       style="fill:none;fill-rule:evenodd;stroke:none;stroke-width:1">
      <g
         id="g379"
         transform="translate(4,4)">
        <polygon
           id="polygon375"
           points="0,0 16,0 16,16 0,16 " />
        <path
           style="fill:#868686;fill-rule:nonzero"
           inkscape:connector-curvature="0"
           id="path377"
           d="M 8,1.3333333 C 5.42,1.3333333 3.3333333,3.42 3.3333333,6 3.3333333,9.5 8,14.666667 8,14.666667 8,14.666667 12.666667,9.5 12.666667,6 12.666667,3.42 10.58,1.3333333 8,1.3333333 Z M 8,7.6666667 C 7.08,7.6666667 6.3333333,6.92 6.3333333,6 6.3333333,5.08 7.08,4.3333333 8,4.3333333 8.92,4.3333333 9.6666667,5.08 9.6666667,6 9.6666667,6.92 8.92,7.6666667 8,7.6666667 Z" />
      </g>
    </g>
    <g
       id="g1966">
      <g
         style="fill:none;fill-rule:evenodd;stroke:none;stroke-width:1"
         transform="translate(-2.3670904,18.920878)"
         id="g293">
        <g
           transform="translate(4,4)"
           id="g291">
          <polygon
             points="16,0 16,16 0,16 0,0 "
             id="polygon287" />
          <path
             d="M 8,1.3333333 C 5.42,1.3333333 3.3333333,3.42 3.3333333,6 3.3333333,9.5 8,14.666667 8,14.666667 8,14.666667 12.666667,9.5 12.666667,6 12.666667,3.42 10.58,1.3333333 8,1.3333333 Z M 8,7.6666667 C 7.08,7.6666667 6.3333333,6.92 6.3333333,6 6.3333333,5.08 7.08,4.3333333 8,4.3333333 8.92,4.3333333 9.6666667,5.08 9.6666667,6 9.6666667,6.92 8.92,7.6666667 8,7.6666667 Z"
             id="path289"
             inkscape:connector-curvature="0"
             style="fill:#868686;fill-rule:nonzero" />
        </g>
      </g>
      <g
         id="g1775">
        <g
           id="g13"
           transform="translate(40.864407,105.49153)"
           style="fill:none;fill-rule:evenodd;stroke:none;stroke-width:1">
          <g
             id="Shape"
             transform="translate(4,4)">
            <polygon
               id="polygon8"
               points="0,0 16,0 16,16 0,16 " />
            <path
               style="fill:#868686;fill-rule:nonzero"
               inkscape:connector-curvature="0"
               id="path10"
               d="M 8,1.3333333 C 5.42,1.3333333 3.3333333,3.42 3.3333333,6 3.3333333,9.5 8,14.666667 8,14.666667 8,14.666667 12.666667,9.5 12.666667,6 12.666667,3.42 10.58,1.3333333 8,1.3333333 Z M 8,7.6666667 C 7.08,7.6666667 6.3333333,6.92 6.3333333,6 6.3333333,5.08 7.08,4.3333333 8,4.3333333 8.92,4.3333333 9.6666667,5.08 9.6666667,6 9.6666667,6.92 8.92,7.6666667 8,7.6666667 Z" />
          </g>
        </g>
        <g
           id="g21"
           transform="translate(89.864407,84.491525)"
           style="fill:none;fill-rule:evenodd;stroke:none;stroke-width:1">
          <g
             id="g19"
             transform="translate(4,4)">
            <polygon
               id="polygon15"
               points="0,0 16,0 16,16 0,16 " />
            <path
               style="fill:#868686;fill-rule:nonzero"
               inkscape:connector-curvature="0"
               id="path17"
               d="M 8,1.3333333 C 5.42,1.3333333 3.3333333,3.42 3.3333333,6 3.3333333,9.5 8,14.666667 8,14.666667 8,14.666667 12.666667,9.5 12.666667,6 12.666667,3.42 10.58,1.3333333 8,1.3333333 Z M 8,7.6666667 C 7.08,7.6666667 6.3333333,6.92 6.3333333,6 6.3333333,5.08 7.08,4.3333333 8,4.3333333 8.92,4.3333333 9.6666667,5.08 9.6666667,6 9.6666667,6.92 8.92,7.6666667 8,7.6666667 Z" />
          </g>
        </g>
        <g
           id="g29"
           transform="translate(110.86441,86.491525)"
           style="fill:none;fill-rule:evenodd;stroke:none;stroke-width:1">
          <g
             id="g27"
             transform="translate(4,4)">
            <polygon
               id="polygon23"
               points="0,0 16,0 16,16 0,16 " />
            <path
               style="fill:#868686;fill-rule:nonzero"
               inkscape:connector-curvature="0"
               id="path25"
               d="M 8,1.3333333 C 5.42,1.3333333 3.3333333,3.42 3.3333333,6 3.3333333,9.5 8,14.666667 8,14.666667 8,14.666667 12.666667,9.5 12.666667,6 12.666667,3.42 10.58,1.3333333 8,1.3333333 Z M 8,7.6666667 C 7.08,7.6666667 6.3333333,6.92 6.3333333,6 6.3333333,5.08 7.08,4.3333333 8,4.3333333 8.92,4.3333333 9.6666667,5.08 9.6666667,6 9.6666667,6.92 8.92,7.6666667 8,7.6666667 Z" />
          </g>
        </g>
        <g
           id="g37"
           transform="translate(97.864407,100.49153)"
           style="fill:none;fill-rule:evenodd;stroke:none;stroke-width:1">
          <g
             id="g35"
             transform="translate(4,4)">
            <polygon
               id="polygon31"
               points="0,0 16,0 16,16 0,16 " />
            <path
               style="fill:#868686;fill-rule:nonzero"
               inkscape:connector-curvature="0"
               id="path33"
               d="M 8,1.3333333 C 5.42,1.3333333 3.3333333,3.42 3.3333333,6 3.3333333,9.5 8,14.666667 8,14.666667 8,14.666667 12.666667,9.5 12.666667,6 12.666667,3.42 10.58,1.3333333 8,1.3333333 Z M 8,7.6666667 C 7.08,7.6666667 6.3333333,6.92 6.3333333,6 6.3333333,5.08 7.08,4.3333333 8,4.3333333 8.92,4.3333333 9.6666667,5.08 9.6666667,6 9.6666667,6.92 8.92,7.6666667 8,7.6666667 Z" />
          </g>
        </g>
        <g
           id="g45"
           transform="translate(112.23447,111.67593)"
           style="fill:none;fill-rule:evenodd;stroke:none;stroke-width:1">
          <g
             id="g43"
             transform="translate(4,4)">
            <polygon
               id="polygon39"
               points="0,0 16,0 16,16 0,16 " />
            <path
               style="fill:#868686;fill-rule:nonzero"
               inkscape:connector-curvature="0"
               id="path41"
               d="M 8,1.3333333 C 5.42,1.3333333 3.3333333,3.42 3.3333333,6 3.3333333,9.5 8,14.666667 8,14.666667 8,14.666667 12.666667,9.5 12.666667,6 12.666667,3.42 10.58,1.3333333 8,1.3333333 Z M 8,7.6666667 C 7.08,7.6666667 6.3333333,6.92 6.3333333,6 6.3333333,5.08 7.08,4.3333333 8,4.3333333 8.92,4.3333333 9.6666667,5.08 9.6666667,6 9.6666667,6.92 8.92,7.6666667 8,7.6666667 Z" />
          </g>
        </g>
        <g
           id="g53"
           transform="translate(99.86441,83.158192)"
           style="fill:none;fill-rule:evenodd;stroke:none;stroke-width:1">
          <g
             id="g51"
             transform="translate(4,4)">
            <polygon
               id="polygon47"
               points="16,0 16,16 0,16 0,0 " />
            <path
               style="fill:#868686;fill-rule:nonzero"
               inkscape:connector-curvature="0"
               id="path49"
               d="M 8,1.3333333 C 5.42,1.3333333 3.3333333,3.42 3.3333333,6 3.3333333,9.5 8,14.666667 8,14.666667 8,14.666667 12.666667,9.5 12.666667,6 12.666667,3.42 10.58,1.3333333 8,1.3333333 Z M 8,7.6666667 C 7.08,7.6666667 6.3333333,6.92 6.3333333,6 6.3333333,5.08 7.08,4.3333333 8,4.3333333 8.92,4.3333333 9.6666667,5.08 9.6666667,6 9.6666667,6.92 8.92,7.6666667 8,7.6666667 Z" />
          </g>
        </g>
        <g
           id="g61"
           transform="translate(73.864407,86.491525)"
           style="fill:none;fill-rule:evenodd;stroke:none;stroke-width:1">
          <g
             id="g59"
             transform="translate(4,4)">
            <polygon
               id="polygon55"
               points="0,0 16,0 16,16 0,16 " />
            <path
               style="fill:#868686;fill-rule:nonzero"
               inkscape:connector-curvature="0"
               id="path57"
               d="M 8,1.3333333 C 5.42,1.3333333 3.3333333,3.42 3.3333333,6 3.3333333,9.5 8,14.666667 8,14.666667 8,14.666667 12.666667,9.5 12.666667,6 12.666667,3.42 10.58,1.3333333 8,1.3333333 Z M 8,7.6666667 C 7.08,7.6666667 6.3333333,6.92 6.3333333,6 6.3333333,5.08 7.08,4.3333333 8,4.3333333 8.92,4.3333333 9.6666667,5.08 9.6666667,6 9.6666667,6.92 8.92,7.6666667 8,7.6666667 Z" />
          </g>
        </g>
        <g
           id="g69"
           transform="translate(82.864407,102.49153)"
           style="fill:none;fill-rule:evenodd;stroke:none;stroke-width:1">
          <g
             id="g67"
             transform="translate(4,4)">
            <polygon
               id="polygon63"
               points="0,0 16,0 16,16 0,16 " />
            <path
               style="fill:#868686;fill-rule:nonzero"
               inkscape:connector-curvature="0"
               id="path65"
               d="M 8,1.3333333 C 5.42,1.3333333 3.3333333,3.42 3.3333333,6 3.3333333,9.5 8,14.666667 8,14.666667 8,14.666667 12.666667,9.5 12.666667,6 12.666667,3.42 10.58,1.3333333 8,1.3333333 Z M 8,7.6666667 C 7.08,7.6666667 6.3333333,6.92 6.3333333,6 6.3333333,5.08 7.08,4.3333333 8,4.3333333 8.92,4.3333333 9.6666667,5.08 9.6666667,6 9.6666667,6.92 8.92,7.6666667 8,7.6666667 Z" />
          </g>
        </g>
        <g
           id="g77"
           transform="translate(100.38123,113.57318)"
           style="fill:none;fill-rule:evenodd;stroke:none;stroke-width:1">
          <g
             id="g75"
             transform="translate(4,4)">
            <polygon
               id="polygon71"
               points="0,16 0,0 16,0 16,16 " />
            <path
               style="fill:#868686;fill-rule:nonzero"
               inkscape:connector-curvature="0"
               id="path73"
               d="M 8,1.3333333 C 5.42,1.3333333 3.3333333,3.42 3.3333333,6 3.3333333,9.5 8,14.666667 8,14.666667 8,14.666667 12.666667,9.5 12.666667,6 12.666667,3.42 10.58,1.3333333 8,1.3333333 Z M 8,7.6666667 C 7.08,7.6666667 6.3333333,6.92 6.3333333,6 6.3333333,5.08 7.08,4.3333333 8,4.3333333 8.92,4.3333333 9.6666667,5.08 9.6666667,6 9.6666667,6.92 8.92,7.6666667 8,7.6666667 Z" />
          </g>
        </g>
        <g
           id="g85"
           transform="translate(69.864407,112.49153)"
           style="fill:none;fill-rule:evenodd;stroke:none;stroke-width:1">
          <g
             id="g83"
             transform="translate(4,4)">
            <polygon
               id="polygon79"
               points="0,0 16,0 16,16 0,16 " />
            <path
               style="fill:#868686;fill-rule:nonzero"
               inkscape:connector-curvature="0"
               id="path81"
               d="M 8,1.3333333 C 5.42,1.3333333 3.3333333,3.42 3.3333333,6 3.3333333,9.5 8,14.666667 8,14.666667 8,14.666667 12.666667,9.5 12.666667,6 12.666667,3.42 10.58,1.3333333 8,1.3333333 Z M 8,7.6666667 C 7.08,7.6666667 6.3333333,6.92 6.3333333,6 6.3333333,5.08 7.08,4.3333333 8,4.3333333 8.92,4.3333333 9.6666667,5.08 9.6666667,6 9.6666667,6.92 8.92,7.6666667 8,7.6666667 Z" />
          </g>
        </g>
        <g
           id="g93"
           transform="translate(59.864407,104.49153)"
           style="fill:none;fill-rule:evenodd;stroke:none;stroke-width:1">
          <g
             id="g91"
             transform="translate(4,4)">
            <polygon
               id="polygon87"
               points="0,0 16,0 16,16 0,16 " />
            <path
               style="fill:#868686;fill-rule:nonzero"
               inkscape:connector-curvature="0"
               id="path89"
               d="M 8,1.3333333 C 5.42,1.3333333 3.3333333,3.42 3.3333333,6 3.3333333,9.5 8,14.666667 8,14.666667 8,14.666667 12.666667,9.5 12.666667,6 12.666667,3.42 10.58,1.3333333 8,1.3333333 Z M 8,7.6666667 C 7.08,7.6666667 6.3333333,6.92 6.3333333,6 6.3333333,5.08 7.08,4.3333333 8,4.3333333 8.92,4.3333333 9.6666667,5.08 9.6666667,6 9.6666667,6.92 8.92,7.6666667 8,7.6666667 Z" />
          </g>
        </g>
        <g
           id="g101"
           transform="translate(69.864407,52.491525)"
           style="fill:none;fill-rule:evenodd;stroke:none;stroke-width:1">
          <g
             id="g99"
             transform="translate(4,4)">
            <polygon
               id="polygon95"
               points="0,0 16,0 16,16 0,16 " />
            <path
               style="fill:#868686;fill-rule:nonzero"
               inkscape:connector-curvature="0"
               id="path97"
               d="M 8,1.3333333 C 5.42,1.3333333 3.3333333,3.42 3.3333333,6 3.3333333,9.5 8,14.666667 8,14.666667 8,14.666667 12.666667,9.5 12.666667,6 12.666667,3.42 10.58,1.3333333 8,1.3333333 Z M 8,7.6666667 C 7.08,7.6666667 6.3333333,6.92 6.3333333,6 6.3333333,5.08 7.08,4.3333333 8,4.3333333 8.92,4.3333333 9.6666667,5.08 9.6666667,6 9.6666667,6.92 8.92,7.6666667 8,7.6666667 Z" />
          </g>
        </g>
        <g
           id="g109"
           transform="translate(103.86441,35.491525)"
           style="fill:none;fill-rule:evenodd;stroke:none;stroke-width:1">
          <g
             id="g107"
             transform="translate(4,4)">
            <polygon
               id="polygon103"
               points="0,0 16,0 16,16 0,16 " />
            <path
               style="fill:#868686;fill-rule:nonzero"
               inkscape:connector-curvature="0"
               id="path105"
               d="M 8,1.3333333 C 5.42,1.3333333 3.3333333,3.42 3.3333333,6 3.3333333,9.5 8,14.666667 8,14.666667 8,14.666667 12.666667,9.5 12.666667,6 12.666667,3.42 10.58,1.3333333 8,1.3333333 Z M 8,7.6666667 C 7.08,7.6666667 6.3333333,6.92 6.3333333,6 6.3333333,5.08 7.08,4.3333333 8,4.3333333 8.92,4.3333333 9.6666667,5.08 9.6666667,6 9.6666667,6.92 8.92,7.6666667 8,7.6666667 Z" />
          </g>
        </g>
        <g
           id="g117"
           transform="translate(26.864407,115.82486)"
           style="fill:none;fill-rule:evenodd;stroke:none;stroke-width:1">
          <g
             id="g115"
             transform="translate(4,4)">
            <polygon
               id="polygon111"
               points="16,0 16,16 0,16 0,0 " />
            <path
               style="fill:#868686;fill-rule:nonzero"
               inkscape:connector-curvature="0"
               id="path113"
               d="M 8,1.3333333 C 5.42,1.3333333 3.3333333,3.42 3.3333333,6 3.3333333,9.5 8,14.666667 8,14.666667 8,14.666667 12.666667,9.5 12.666667,6 12.666667,3.42 10.58,1.3333333 8,1.3333333 Z M 8,7.6666667 C 7.08,7.6666667 6.3333333,6.92 6.3333333,6 6.3333333,5.08 7.08,4.3333333 8,4.3333333 8.92,4.3333333 9.6666667,5.08 9.6666667,6 9.6666667,6.92 8.92,7.6666667 8,7.6666667 Z" />
          </g>
        </g>
        <g
           id="g125"
           transform="translate(13.342338,105.53316)"
           style="fill:none;fill-rule:evenodd;stroke:none;stroke-width:1">
          <g
             id="g123"
             transform="translate(4,4)">
            <polygon
               id="polygon119"
               points="16,16 0,16 0,0 16,0 " />
            <path
               style="fill:#868686;fill-rule:nonzero"
               inkscape:connector-curvature="0"
               id="path121"
               d="M 8,1.3333333 C 5.42,1.3333333 3.3333333,3.42 3.3333333,6 3.3333333,9.5 8,14.666667 8,14.666667 8,14.666667 12.666667,9.5 12.666667,6 12.666667,3.42 10.58,1.3333333 8,1.3333333 Z M 8,7.6666667 C 7.08,7.6666667 6.3333333,6.92 6.3333333,6 6.3333333,5.08 7.08,4.3333333 8,4.3333333 8.92,4.3333333 9.6666667,5.08 9.6666667,6 9.6666667,6.92 8.92,7.6666667 8,7.6666667 Z" />
          </g>
        </g>
        <g
           id="g133"
           transform="translate(96.864407,49.491525)"
           style="fill:none;fill-rule:evenodd;stroke:none;stroke-width:1">
          <g
             id="g131"
             transform="translate(4,4)">
            <polygon
               id="polygon127"
               points="0,0 16,0 16,16 0,16 " />
            <path
               style="fill:#868686;fill-rule:nonzero"
               inkscape:connector-curvature="0"
               id="path129"
               d="M 8,1.3333333 C 5.42,1.3333333 3.3333333,3.42 3.3333333,6 3.3333333,9.5 8,14.666667 8,14.666667 8,14.666667 12.666667,9.5 12.666667,6 12.666667,3.42 10.58,1.3333333 8,1.3333333 Z M 8,7.6666667 C 7.08,7.6666667 6.3333333,6.92 6.3333333,6 6.3333333,5.08 7.08,4.3333333 8,4.3333333 8.92,4.3333333 9.6666667,5.08 9.6666667,6 9.6666667,6.92 8.92,7.6666667 8,7.6666667 Z" />
          </g>
        </g>
        <g
           id="g141"
           transform="translate(109.86441,51.491525)"
           style="fill:none;fill-rule:evenodd;stroke:none;stroke-width:1">
          <g
             id="g139"
             transform="translate(4,4)">
            <polygon
               id="polygon135"
               points="0,0 16,0 16,16 0,16 " />
            <path
               style="fill:#868686;fill-rule:nonzero"
               inkscape:connector-curvature="0"
               id="path137"
               d="M 8,1.3333333 C 5.42,1.3333333 3.3333333,3.42 3.3333333,6 3.3333333,9.5 8,14.666667 8,14.666667 8,14.666667 12.666667,9.5 12.666667,6 12.666667,3.42 10.58,1.3333333 8,1.3333333 Z M 8,7.6666667 C 7.08,7.6666667 6.3333333,6.92 6.3333333,6 6.3333333,5.08 7.08,4.3333333 8,4.3333333 8.92,4.3333333 9.6666667,5.08 9.6666667,6 9.6666667,6.92 8.92,7.6666667 8,7.6666667 Z" />
          </g>
        </g>
        <g
           id="g149"
           transform="translate(81.864407,60.491525)"
           style="fill:none;fill-rule:evenodd;stroke:none;stroke-width:1">
          <g
             id="g147"
             transform="translate(4,4)">
            <polygon
               id="polygon143"
               points="0,0 16,0 16,16 0,16 " />
            <path
               style="fill:#868686;fill-rule:nonzero"
               inkscape:connector-curvature="0"
               id="path145"
               d="M 8,1.3333333 C 5.42,1.3333333 3.3333333,3.42 3.3333333,6 3.3333333,9.5 8,14.666667 8,14.666667 8,14.666667 12.666667,9.5 12.666667,6 12.666667,3.42 10.58,1.3333333 8,1.3333333 Z M 8,7.6666667 C 7.08,7.6666667 6.3333333,6.92 6.3333333,6 6.3333333,5.08 7.08,4.3333333 8,4.3333333 8.92,4.3333333 9.6666667,5.08 9.6666667,6 9.6666667,6.92 8.92,7.6666667 8,7.6666667 Z" />
          </g>
        </g>
        <g
           id="g157"
           transform="translate(91.864407,70.491525)"
           style="fill:none;fill-rule:evenodd;stroke:none;stroke-width:1">
          <g
             id="g155"
             transform="translate(4,4)">
            <polygon
               id="polygon151"
               points="0,0 16,0 16,16 0,16 " />
            <path
               style="fill:#868686;fill-rule:nonzero"
               inkscape:connector-curvature="0"
               id="path153"
               d="M 8,1.3333333 C 5.42,1.3333333 3.3333333,3.42 3.3333333,6 3.3333333,9.5 8,14.666667 8,14.666667 8,14.666667 12.666667,9.5 12.666667,6 12.666667,3.42 10.58,1.3333333 8,1.3333333 Z M 8,7.6666667 C 7.08,7.6666667 6.3333333,6.92 6.3333333,6 6.3333333,5.08 7.08,4.3333333 8,4.3333333 8.92,4.3333333 9.6666667,5.08 9.6666667,6 9.6666667,6.92 8.92,7.6666667 8,7.6666667 Z" />
          </g>
        </g>
        <g
           id="g165"
           transform="translate(53.864407,39.491525)"
           style="fill:none;fill-rule:evenodd;stroke:none;stroke-width:1">
          <g
             id="g163"
             transform="translate(4,4)">
            <polygon
               id="polygon159"
               points="0,0 16,0 16,16 0,16 " />
            <path
               style="fill:#868686;fill-rule:nonzero"
               inkscape:connector-curvature="0"
               id="path161"
               d="M 8,1.3333333 C 5.42,1.3333333 3.3333333,3.42 3.3333333,6 3.3333333,9.5 8,14.666667 8,14.666667 8,14.666667 12.666667,9.5 12.666667,6 12.666667,3.42 10.58,1.3333333 8,1.3333333 Z M 8,7.6666667 C 7.08,7.6666667 6.3333333,6.92 6.3333333,6 6.3333333,5.08 7.08,4.3333333 8,4.3333333 8.92,4.3333333 9.6666667,5.08 9.6666667,6 9.6666667,6.92 8.92,7.6666667 8,7.6666667 Z" />
          </g>
        </g>
        <g
           id="g173"
           transform="translate(89.864407,17.491525)"
           style="fill:none;fill-rule:evenodd;stroke:none;stroke-width:1">
          <g
             id="g171"
             transform="translate(4,4)">
            <polygon
               id="polygon167"
               points="0,0 16,0 16,16 0,16 " />
            <path
               style="fill:#868686;fill-rule:nonzero"
               inkscape:connector-curvature="0"
               id="path169"
               d="M 8,1.3333333 C 5.42,1.3333333 3.3333333,3.42 3.3333333,6 3.3333333,9.5 8,14.666667 8,14.666667 8,14.666667 12.666667,9.5 12.666667,6 12.666667,3.42 10.58,1.3333333 8,1.3333333 Z M 8,7.6666667 C 7.08,7.6666667 6.3333333,6.92 6.3333333,6 6.3333333,5.08 7.08,4.3333333 8,4.3333333 8.92,4.3333333 9.6666667,5.08 9.6666667,6 9.6666667,6.92 8.92,7.6666667 8,7.6666667 Z" />
          </g>
        </g>
        <g
           id="g181"
           transform="translate(101.86441,18.491525)"
           style="fill:none;fill-rule:evenodd;stroke:none;stroke-width:1">
          <g
             id="g179"
             transform="translate(4,4)">
            <polygon
               id="polygon175"
               points="0,0 16,0 16,16 0,16 " />
            <path
               style="fill:#868686;fill-rule:nonzero"
               inkscape:connector-curvature="0"
               id="path177"
               d="M 8,1.3333333 C 5.42,1.3333333 3.3333333,3.42 3.3333333,6 3.3333333,9.5 8,14.666667 8,14.666667 8,14.666667 12.666667,9.5 12.666667,6 12.666667,3.42 10.58,1.3333333 8,1.3333333 Z M 8,7.6666667 C 7.08,7.6666667 6.3333333,6.92 6.3333333,6 6.3333333,5.08 7.08,4.3333333 8,4.3333333 8.92,4.3333333 9.6666667,5.08 9.6666667,6 9.6666667,6.92 8.92,7.6666667 8,7.6666667 Z" />
          </g>
        </g>
        <g
           id="g189"
           transform="translate(48.427071,116.88576)"
           style="fill:none;fill-rule:evenodd;stroke:none;stroke-width:1">
          <g
             id="g187"
             transform="translate(4,4)">
            <polygon
               id="polygon183"
               points="16,0 16,16 0,16 0,0 " />
            <path
               style="fill:#868686;fill-rule:nonzero"
               inkscape:connector-curvature="0"
               id="path185"
               d="M 8,1.3333333 C 5.42,1.3333333 3.3333333,3.42 3.3333333,6 3.3333333,9.5 8,14.666667 8,14.666667 8,14.666667 12.666667,9.5 12.666667,6 12.666667,3.42 10.58,1.3333333 8,1.3333333 Z M 8,7.6666667 C 7.08,7.6666667 6.3333333,6.92 6.3333333,6 6.3333333,5.08 7.08,4.3333333 8,4.3333333 8.92,4.3333333 9.6666667,5.08 9.6666667,6 9.6666667,6.92 8.92,7.6666667 8,7.6666667 Z" />
          </g>
        </g>
        <g
           id="g197"
           transform="translate(84.864407,35.491525)"
           style="fill:none;fill-rule:evenodd;stroke:none;stroke-width:1">
          <g
             id="g195"
             transform="translate(4,4)">
            <polygon
               id="polygon191"
               points="0,0 16,0 16,16 0,16 " />
            <path
               style="fill:#868686;fill-rule:nonzero"
               inkscape:connector-curvature="0"
               id="path193"
               d="M 8,1.3333333 C 5.42,1.3333333 3.3333333,3.42 3.3333333,6 3.3333333,9.5 8,14.666667 8,14.666667 8,14.666667 12.666667,9.5 12.666667,6 12.666667,3.42 10.58,1.3333333 8,1.3333333 Z M 8,7.6666667 C 7.08,7.6666667 6.3333333,6.92 6.3333333,6 6.3333333,5.08 7.08,4.3333333 8,4.3333333 8.92,4.3333333 9.6666667,5.08 9.6666667,6 9.6666667,6.92 8.92,7.6666667 8,7.6666667 Z" />
          </g>
        </g>
        <g
           id="g205"
           transform="translate(52.864407,20.491525)"
           style="fill:none;fill-rule:evenodd;stroke:none;stroke-width:1">
          <g
             id="g203"
             transform="translate(4,4)">
            <polygon
               id="polygon199"
               points="0,0 16,0 16,16 0,16 " />
            <path
               style="fill:#868686;fill-rule:nonzero"
               inkscape:connector-curvature="0"
               id="path201"
               d="M 8,1.3333333 C 5.42,1.3333333 3.3333333,3.42 3.3333333,6 3.3333333,9.5 8,14.666667 8,14.666667 8,14.666667 12.666667,9.5 12.666667,6 12.666667,3.42 10.58,1.3333333 8,1.3333333 Z M 8,7.6666667 C 7.08,7.6666667 6.3333333,6.92 6.3333333,6 6.3333333,5.08 7.08,4.3333333 8,4.3333333 8.92,4.3333333 9.6666667,5.08 9.6666667,6 9.6666667,6.92 8.92,7.6666667 8,7.6666667 Z" />
          </g>
        </g>
        <g
           id="g213"
           transform="translate(41.864407,56.491525)"
           style="fill:none;fill-rule:evenodd;stroke:none;stroke-width:1">
          <g
             id="g211"
             transform="translate(4,4)">
            <polygon
               id="polygon207"
               points="0,0 16,0 16,16 0,16 " />
            <path
               style="fill:#868686;fill-rule:nonzero"
               inkscape:connector-curvature="0"
               id="path209"
               d="M 8,1.3333333 C 5.42,1.3333333 3.3333333,3.42 3.3333333,6 3.3333333,9.5 8,14.666667 8,14.666667 8,14.666667 12.666667,9.5 12.666667,6 12.666667,3.42 10.58,1.3333333 8,1.3333333 Z M 8,7.6666667 C 7.08,7.6666667 6.3333333,6.92 6.3333333,6 6.3333333,5.08 7.08,4.3333333 8,4.3333333 8.92,4.3333333 9.6666667,5.08 9.6666667,6 9.6666667,6.92 8.92,7.6666667 8,7.6666667 Z" />
          </g>
        </g>
        <g
           id="g221"
           transform="translate(44.864407,75.491525)"
           style="fill:none;fill-rule:evenodd;stroke:none;stroke-width:1">
          <g
             id="g219"
             transform="translate(4,4)">
            <polygon
               id="polygon215"
               points="0,0 16,0 16,16 0,16 " />
            <path
               style="fill:#868686;fill-rule:nonzero"
               inkscape:connector-curvature="0"
               id="path217"
               d="M 8,1.3333333 C 5.42,1.3333333 3.3333333,3.42 3.3333333,6 3.3333333,9.5 8,14.666667 8,14.666667 8,14.666667 12.666667,9.5 12.666667,6 12.666667,3.42 10.58,1.3333333 8,1.3333333 Z M 8,7.6666667 C 7.08,7.6666667 6.3333333,6.92 6.3333333,6 6.3333333,5.08 7.08,4.3333333 8,4.3333333 8.92,4.3333333 9.6666667,5.08 9.6666667,6 9.6666667,6.92 8.92,7.6666667 8,7.6666667 Z" />
          </g>
        </g>
        <g
           id="g229"
           transform="translate(29.864407,73.491525)"
           style="fill:none;fill-rule:evenodd;stroke:none;stroke-width:1">
          <g
             id="g227"
             transform="translate(4,4)">
            <polygon
               id="polygon223"
               points="0,0 16,0 16,16 0,16 " />
            <path
               style="fill:#868686;fill-rule:nonzero"
               inkscape:connector-curvature="0"
               id="path225"
               d="M 8,1.3333333 C 5.42,1.3333333 3.3333333,3.42 3.3333333,6 3.3333333,9.5 8,14.666667 8,14.666667 8,14.666667 12.666667,9.5 12.666667,6 12.666667,3.42 10.58,1.3333333 8,1.3333333 Z M 8,7.6666667 C 7.08,7.6666667 6.3333333,6.92 6.3333333,6 6.3333333,5.08 7.08,4.3333333 8,4.3333333 8.92,4.3333333 9.6666667,5.08 9.6666667,6 9.6666667,6.92 8.92,7.6666667 8,7.6666667 Z" />
          </g>
        </g>
        <g
           id="g237"
           transform="translate(26.864407,102.49153)"
           style="fill:none;fill-rule:evenodd;stroke:none;stroke-width:1">
          <g
             id="g235"
             transform="translate(4,4)">
            <polygon
               id="polygon231"
               points="0,0 16,0 16,16 0,16 " />
            <path
               style="fill:#868686;fill-rule:nonzero"
               inkscape:connector-curvature="0"
               id="path233"
               d="M 8,1.3333333 C 5.42,1.3333333 3.3333333,3.42 3.3333333,6 3.3333333,9.5 8,14.666667 8,14.666667 8,14.666667 12.666667,9.5 12.666667,6 12.666667,3.42 10.58,1.3333333 8,1.3333333 Z M 8,7.6666667 C 7.08,7.6666667 6.3333333,6.92 6.3333333,6 6.3333333,5.08 7.08,4.3333333 8,4.3333333 8.92,4.3333333 9.6666667,5.08 9.6666667,6 9.6666667,6.92 8.92,7.6666667 8,7.6666667 Z" />
          </g>
        </g>
        <g
           id="g245"
           transform="translate(24.864407,89.491525)"
           style="fill:none;fill-rule:evenodd;stroke:none;stroke-width:1">
          <g
             id="g243"
             transform="translate(4,4)">
            <polygon
               id="polygon239"
               points="0,0 16,0 16,16 0,16 " />
            <path
               style="fill:#868686;fill-rule:nonzero"
               inkscape:connector-curvature="0"
               id="path241"
               d="M 8,1.3333333 C 5.42,1.3333333 3.3333333,3.42 3.3333333,6 3.3333333,9.5 8,14.666667 8,14.666667 8,14.666667 12.666667,9.5 12.666667,6 12.666667,3.42 10.58,1.3333333 8,1.3333333 Z M 8,7.6666667 C 7.08,7.6666667 6.3333333,6.92 6.3333333,6 6.3333333,5.08 7.08,4.3333333 8,4.3333333 8.92,4.3333333 9.6666667,5.08 9.6666667,6 9.6666667,6.92 8.92,7.6666667 8,7.6666667 Z" />
          </g>
        </g>
        <g
           id="g253"
           transform="translate(24.864407,89.491525)"
           style="fill:none;fill-rule:evenodd;stroke:none;stroke-width:1">
          <g
             id="g251"
             transform="translate(4,4)">
            <polygon
               id="polygon247"
               points="0,0 16,0 16,16 0,16 " />
            <path
               style="fill:#868686;fill-rule:nonzero"
               inkscape:connector-curvature="0"
               id="path249"
               d="M 8,1.3333333 C 5.42,1.3333333 3.3333333,3.42 3.3333333,6 3.3333333,9.5 8,14.666667 8,14.666667 8,14.666667 12.666667,9.5 12.666667,6 12.666667,3.42 10.58,1.3333333 8,1.3333333 Z M 8,7.6666667 C 7.08,7.6666667 6.3333333,6.92 6.3333333,6 6.3333333,5.08 7.08,4.3333333 8,4.3333333 8.92,4.3333333 9.6666667,5.08 9.6666667,6 9.6666667,6.92 8.92,7.6666667 8,7.6666667 Z" />
          </g>
        </g>
        <g
           id="g261"
           transform="translate(18.864407,52.491525)"
           style="fill:none;fill-rule:evenodd;stroke:none;stroke-width:1">
          <g
             id="g259"
             transform="translate(4,4)">
            <polygon
               id="polygon255"
               points="0,0 16,0 16,16 0,16 " />
            <path
               style="fill:#868686;fill-rule:nonzero"
               inkscape:connector-curvature="0"
               id="path257"
               d="M 8,1.3333333 C 5.42,1.3333333 3.3333333,3.42 3.3333333,6 3.3333333,9.5 8,14.666667 8,14.666667 8,14.666667 12.666667,9.5 12.666667,6 12.666667,3.42 10.58,1.3333333 8,1.3333333 Z M 8,7.6666667 C 7.08,7.6666667 6.3333333,6.92 6.3333333,6 6.3333333,5.08 7.08,4.3333333 8,4.3333333 8.92,4.3333333 9.6666667,5.08 9.6666667,6 9.6666667,6.92 8.92,7.6666667 8,7.6666667 Z" />
          </g>
        </g>
        <g
           id="g269"
           transform="translate(21.864407,34.491525)"
           style="fill:none;fill-rule:evenodd;stroke:none;stroke-width:1">
          <g
             id="g267"
             transform="translate(4,4)">
            <polygon
               id="polygon263"
               points="0,0 16,0 16,16 0,16 " />
            <path
               style="fill:#868686;fill-rule:nonzero"
               inkscape:connector-curvature="0"
               id="path265"
               d="M 8,1.3333333 C 5.42,1.3333333 3.3333333,3.42 3.3333333,6 3.3333333,9.5 8,14.666667 8,14.666667 8,14.666667 12.666667,9.5 12.666667,6 12.666667,3.42 10.58,1.3333333 8,1.3333333 Z M 8,7.6666667 C 7.08,7.6666667 6.3333333,6.92 6.3333333,6 6.3333333,5.08 7.08,4.3333333 8,4.3333333 8.92,4.3333333 9.6666667,5.08 9.6666667,6 9.6666667,6.92 8.92,7.6666667 8,7.6666667 Z" />
          </g>
        </g>
        <g
           id="g277"
           transform="translate(38.864407,26.491525)"
           style="fill:none;fill-rule:evenodd;stroke:none;stroke-width:1">
          <g
             id="g275"
             transform="translate(4,4)">
            <polygon
               id="polygon271"
               points="0,0 16,0 16,16 0,16 " />
            <path
               style="fill:#868686;fill-rule:nonzero"
               inkscape:connector-curvature="0"
               id="path273"
               d="M 8,1.3333333 C 5.42,1.3333333 3.3333333,3.42 3.3333333,6 3.3333333,9.5 8,14.666667 8,14.666667 8,14.666667 12.666667,9.5 12.666667,6 12.666667,3.42 10.58,1.3333333 8,1.3333333 Z M 8,7.6666667 C 7.08,7.6666667 6.3333333,6.92 6.3333333,6 6.3333333,5.08 7.08,4.3333333 8,4.3333333 8.92,4.3333333 9.6666667,5.08 9.6666667,6 9.6666667,6.92 8.92,7.6666667 8,7.6666667 Z" />
          </g>
        </g>
        <g
           id="g285"
           transform="translate(27.864407,20.491525)"
           style="fill:none;fill-rule:evenodd;stroke:none;stroke-width:1">
          <g
             id="g283"
             transform="translate(4,4)">
            <polygon
               id="polygon279"
               points="0,0 16,0 16,16 0,16 " />
            <path
               style="fill:#868686;fill-rule:nonzero"
               inkscape:connector-curvature="0"
               id="path281"
               d="M 8,1.3333333 C 5.42,1.3333333 3.3333333,3.42 3.3333333,6 3.3333333,9.5 8,14.666667 8,14.666667 8,14.666667 12.666667,9.5 12.666667,6 12.666667,3.42 10.58,1.3333333 8,1.3333333 Z M 8,7.6666667 C 7.08,7.6666667 6.3333333,6.92 6.3333333,6 6.3333333,5.08 7.08,4.3333333 8,4.3333333 8.92,4.3333333 9.6666667,5.08 9.6666667,6 9.6666667,6.92 8.92,7.6666667 8,7.6666667 Z" />
          </g>
        </g>
        <g
           id="g301"
           transform="translate(9.619453,31.974704)"
           style="fill:none;fill-rule:evenodd;stroke:none;stroke-width:1">
          <g
             id="g299"
             transform="translate(4,4)">
            <polygon
               id="polygon295"
               points="16,0 16,16 0,16 0,0 " />
            <path
               style="fill:#868686;fill-rule:nonzero"
               inkscape:connector-curvature="0"
               id="path297"
               d="M 8,1.3333333 C 5.42,1.3333333 3.3333333,3.42 3.3333333,6 3.3333333,9.5 8,14.666667 8,14.666667 8,14.666667 12.666667,9.5 12.666667,6 12.666667,3.42 10.58,1.3333333 8,1.3333333 Z M 8,7.6666667 C 7.08,7.6666667 6.3333333,6.92 6.3333333,6 6.3333333,5.08 7.08,4.3333333 8,4.3333333 8.92,4.3333333 9.6666667,5.08 9.6666667,6 9.6666667,6.92 8.92,7.6666667 8,7.6666667 Z" />
          </g>
        </g>
        <g
           id="g309"
           transform="translate(56.864407,59.491525)"
           style="fill:none;fill-rule:evenodd;stroke:none;stroke-width:1">
          <g
             id="g307"
             transform="translate(4,4)">
            <polygon
               id="polygon303"
               points="0,0 16,0 16,16 0,16 " />
            <path
               style="fill:#868686;fill-rule:nonzero"
               inkscape:connector-curvature="0"
               id="path305"
               d="M 8,1.3333333 C 5.42,1.3333333 3.3333333,3.42 3.3333333,6 3.3333333,9.5 8,14.666667 8,14.666667 8,14.666667 12.666667,9.5 12.666667,6 12.666667,3.42 10.58,1.3333333 8,1.3333333 Z M 8,7.6666667 C 7.08,7.6666667 6.3333333,6.92 6.3333333,6 6.3333333,5.08 7.08,4.3333333 8,4.3333333 8.92,4.3333333 9.6666667,5.08 9.6666667,6 9.6666667,6.92 8.92,7.6666667 8,7.6666667 Z" />
          </g>
        </g>
        <g
           id="g317"
           transform="translate(59.864407,8.4915254)"
           style="fill:none;fill-rule:evenodd;stroke:none;stroke-width:1">
          <g
             id="g315"
             transform="translate(4,4)">
            <polygon
               id="polygon311"
               points="0,0 16,0 16,16 0,16 " />
            <path
               style="fill:#868686;fill-rule:nonzero"
               inkscape:connector-curvature="0"
               id="path313"
               d="M 8,1.3333333 C 5.42,1.3333333 3.3333333,3.42 3.3333333,6 3.3333333,9.5 8,14.666667 8,14.666667 8,14.666667 12.666667,9.5 12.666667,6 12.666667,3.42 10.58,1.3333333 8,1.3333333 Z M 8,7.6666667 C 7.08,7.6666667 6.3333333,6.92 6.3333333,6 6.3333333,5.08 7.08,4.3333333 8,4.3333333 8.92,4.3333333 9.6666667,5.08 9.6666667,6 9.6666667,6.92 8.92,7.6666667 8,7.6666667 Z" />
          </g>
        </g>
        <g
           id="g325"
           transform="translate(45.864407,91.491525)"
           style="fill:none;fill-rule:evenodd;stroke:none;stroke-width:1">
          <g
             id="g323"
             transform="translate(4,4)">
            <polygon
               id="polygon319"
               points="0,0 16,0 16,16 0,16 " />
            <path
               style="fill:#868686;fill-rule:nonzero"
               inkscape:connector-curvature="0"
               id="path321"
               d="M 8,1.3333333 C 5.42,1.3333333 3.3333333,3.42 3.3333333,6 3.3333333,9.5 8,14.666667 8,14.666667 8,14.666667 12.666667,9.5 12.666667,6 12.666667,3.42 10.58,1.3333333 8,1.3333333 Z M 8,7.6666667 C 7.08,7.6666667 6.3333333,6.92 6.3333333,6 6.3333333,5.08 7.08,4.3333333 8,4.3333333 8.92,4.3333333 9.6666667,5.08 9.6666667,6 9.6666667,6.92 8.92,7.6666667 8,7.6666667 Z" />
          </g>
        </g>
        <g
           id="g333"
           transform="translate(70.864407,29.491525)"
           style="fill:none;fill-rule:evenodd;stroke:none;stroke-width:1">
          <g
             id="g331"
             transform="translate(4,4)">
            <polygon
               id="polygon327"
               points="0,0 16,0 16,16 0,16 " />
            <path
               style="fill:#868686;fill-rule:nonzero"
               inkscape:connector-curvature="0"
               id="path329"
               d="M 8,1.3333333 C 5.42,1.3333333 3.3333333,3.42 3.3333333,6 3.3333333,9.5 8,14.666667 8,14.666667 8,14.666667 12.666667,9.5 12.666667,6 12.666667,3.42 10.58,1.3333333 8,1.3333333 Z M 8,7.6666667 C 7.08,7.6666667 6.3333333,6.92 6.3333333,6 6.3333333,5.08 7.08,4.3333333 8,4.3333333 8.92,4.3333333 9.6666667,5.08 9.6666667,6 9.6666667,6.92 8.92,7.6666667 8,7.6666667 Z" />
          </g>
        </g>
        <g
           id="g341"
           transform="translate(55.864407,82.491525)"
           style="fill:none;fill-rule:evenodd;stroke:none;stroke-width:1">
          <g
             id="g339"
             transform="translate(4,4)">
            <polygon
               id="polygon335"
               points="0,0 16,0 16,16 0,16 " />
            <path
               style="fill:#868686;fill-rule:nonzero"
               inkscape:connector-curvature="0"
               id="path337"
               d="M 8,1.3333333 C 5.42,1.3333333 3.3333333,3.42 3.3333333,6 3.3333333,9.5 8,14.666667 8,14.666667 8,14.666667 12.666667,9.5 12.666667,6 12.666667,3.42 10.58,1.3333333 8,1.3333333 Z M 8,7.6666667 C 7.08,7.6666667 6.3333333,6.92 6.3333333,6 6.3333333,5.08 7.08,4.3333333 8,4.3333333 8.92,4.3333333 9.6666667,5.08 9.6666667,6 9.6666667,6.92 8.92,7.6666667 8,7.6666667 Z" />
          </g>
        </g>
        <g
           id="g349"
           transform="translate(64.864407,75.491525)"
           style="fill:none;fill-rule:evenodd;stroke:none;stroke-width:1">
          <g
             id="g347"
             transform="translate(4,4)">
            <polygon
               id="polygon343"
               points="0,0 16,0 16,16 0,16 " />
            <path
               style="fill:#868686;fill-rule:nonzero"
               inkscape:connector-curvature="0"
               id="path345"
               d="M 8,1.3333333 C 5.42,1.3333333 3.3333333,3.42 3.3333333,6 3.3333333,9.5 8,14.666667 8,14.666667 8,14.666667 12.666667,9.5 12.666667,6 12.666667,3.42 10.58,1.3333333 8,1.3333333 Z M 8,7.6666667 C 7.08,7.6666667 6.3333333,6.92 6.3333333,6 6.3333333,5.08 7.08,4.3333333 8,4.3333333 8.92,4.3333333 9.6666667,5.08 9.6666667,6 9.6666667,6.92 8.92,7.6666667 8,7.6666667 Z" />
          </g>
        </g>
        <g
           id="g357"
           transform="translate(33.864407,43.491525)"
           style="fill:none;fill-rule:evenodd;stroke:none;stroke-width:1">
          <g
             id="g355"
             transform="translate(4,4)">
            <polygon
               id="polygon351"
               points="0,0 16,0 16,16 0,16 " />
            <path
               style="fill:#868686;fill-rule:nonzero"
               inkscape:connector-curvature="0"
               id="path353"
               d="M 8,1.3333333 C 5.42,1.3333333 3.3333333,3.42 3.3333333,6 3.3333333,9.5 8,14.666667 8,14.666667 8,14.666667 12.666667,9.5 12.666667,6 12.666667,3.42 10.58,1.3333333 8,1.3333333 Z M 8,7.6666667 C 7.08,7.6666667 6.3333333,6.92 6.3333333,6 6.3333333,5.08 7.08,4.3333333 8,4.3333333 8.92,4.3333333 9.6666667,5.08 9.6666667,6 9.6666667,6.92 8.92,7.6666667 8,7.6666667 Z" />
          </g>
        </g>
        <g
           id="g365"
           transform="translate(71.864407,12.491525)"
           style="fill:none;fill-rule:evenodd;stroke:none;stroke-width:1">
          <g
             id="g363"
             transform="translate(4,4)">
            <polygon
               id="polygon359"
               points="0,0 16,0 16,16 0,16 " />
            <path
               style="fill:#868686;fill-rule:nonzero"
               inkscape:connector-curvature="0"
               id="path361"
               d="M 8,1.3333333 C 5.42,1.3333333 3.3333333,3.42 3.3333333,6 3.3333333,9.5 8,14.666667 8,14.666667 8,14.666667 12.666667,9.5 12.666667,6 12.666667,3.42 10.58,1.3333333 8,1.3333333 Z M 8,7.6666667 C 7.08,7.6666667 6.3333333,6.92 6.3333333,6 6.3333333,5.08 7.08,4.3333333 8,4.3333333 8.92,4.3333333 9.6666667,5.08 9.6666667,6 9.6666667,6.92 8.92,7.6666667 8,7.6666667 Z" />
          </g>
        </g>
        <g
           id="g373"
           transform="translate(81.864407,4.4915254)"
           style="fill:none;fill-rule:evenodd;stroke:none;stroke-width:1">
          <g
             id="g371"
             transform="translate(4,4)">
            <polygon
               id="polygon367"
               points="0,0 16,0 16,16 0,16 " />
            <path
               style="fill:#868686;fill-rule:nonzero"
               inkscape:connector-curvature="0"
               id="path369"
               d="M 8,1.3333333 C 5.42,1.3333333 3.3333333,3.42 3.3333333,6 3.3333333,9.5 8,14.666667 8,14.666667 8,14.666667 12.666667,9.5 12.666667,6 12.666667,3.42 10.58,1.3333333 8,1.3333333 Z M 8,7.6666667 C 7.08,7.6666667 6.3333333,6.92 6.3333333,6 6.3333333,5.08 7.08,4.3333333 8,4.3333333 8.92,4.3333333 9.6666667,5.08 9.6666667,6 9.6666667,6.92 8.92,7.6666667 8,7.6666667 Z" />
          </g>
        </g>
        <g
           id="g389"
           transform="translate(107.86441,68.491525)"
           style="fill:none;fill-rule:evenodd;stroke:none;stroke-width:1">
          <g
             id="g387"
             transform="translate(4,4)">
            <polygon
               id="polygon383"
               points="0,0 16,0 16,16 0,16 " />
            <path
               style="fill:#868686;fill-rule:nonzero"
               inkscape:connector-curvature="0"
               id="path385"
               d="M 8,1.3333333 C 5.42,1.3333333 3.3333333,3.42 3.3333333,6 3.3333333,9.5 8,14.666667 8,14.666667 8,14.666667 12.666667,9.5 12.666667,6 12.666667,3.42 10.58,1.3333333 8,1.3333333 Z M 8,7.6666667 C 7.08,7.6666667 6.3333333,6.92 6.3333333,6 6.3333333,5.08 7.08,4.3333333 8,4.3333333 8.92,4.3333333 9.6666667,5.08 9.6666667,6 9.6666667,6.92 8.92,7.6666667 8,7.6666667 Z" />
          </g>
        </g>
      </g>
    </g>
  </g>
  <rect
     style="opacity:0;fill:#d8d8d8;fill-rule:evenodd;stroke:none;stroke-width:1"
     height="168"
     width="152"
     y="0"
     x="0"
     id="Rectangle-47" />
</svg>
