<?xml version="1.0" encoding="UTF-8" standalone="no"?>
<svg
   xmlns:dc="http://purl.org/dc/elements/1.1/"
   xmlns:cc="http://creativecommons.org/ns#"
   xmlns:rdf="http://www.w3.org/1999/02/22-rdf-syntax-ns#"
   xmlns:svg="http://www.w3.org/2000/svg"
   xmlns="http://www.w3.org/2000/svg"
   xmlns:sodipodi="http://sodipodi.sourceforge.net/DTD/sodipodi-0.dtd"
   xmlns:inkscape="http://www.inkscape.org/namespaces/inkscape"
   width="107"
   height="199"
   viewBox="0 0 107 199"
   version="1.1"
   id="svg170"
   sodipodi:docname="gb.svg"
   inkscape:version="0.92.3 (2405546, 2018-03-11)">
  <metadata
     id="metadata174">
    <rdf:RDF>
      <cc:Work
         rdf:about="">
        <dc:format>image/svg+xml</dc:format>
        <dc:type
           rdf:resource="http://purl.org/dc/dcmitype/StillImage" />
        <dc:title>gb_42</dc:title>
      </cc:Work>
    </rdf:RDF>
  </metadata>
  <sodipodi:namedview
     pagecolor="#ffffff"
     bordercolor="#666666"
     borderopacity="1"
     objecttolerance="10"
     gridtolerance="10"
     guidetolerance="10"
     inkscape:pageopacity="0"
     inkscape:pageshadow="2"
     inkscape:window-width="1870"
     inkscape:window-height="1051"
     id="namedview172"
     showgrid="false"
     inkscape:zoom="2.6818182"
     inkscape:cx="71.174805"
     inkscape:cy="96.20495"
     inkscape:window-x="1970"
     inkscape:window-y="0"
     inkscape:window-maximized="1"
     inkscape:current-layer="svg170" />
  <!-- Generator: Sketch 51.3 (57544) - http://www.bohemiancoding.com/sketch -->
  <title
     id="title2">gb_42</title>
  <desc
     id="desc4">Created with Sketch.</desc>
  <defs
     id="defs6" />
  <g
     style="fill:none;fill-rule:evenodd;stroke:none;stroke-width:1"
     transform="translate(69.38983,144.8983)"
     id="g13">
    <g
       transform="translate(4,4)"
       id="Shape">
      <polygon
         points="0,16 0,0 16,0 16,16 "
         id="polygon8" />
      <path
         style="fill:#868686;fill-rule:nonzero"
         inkscape:connector-curvature="0"
         d="M 8,1.3333333 C 5.42,1.3333333 3.3333333,3.42 3.3333333,6 3.3333333,9.5 8,14.666667 8,14.666667 8,14.666667 12.666667,9.5 12.666667,6 12.666667,3.42 10.58,1.3333333 8,1.3333333 Z M 8,7.6666667 C 7.08,7.6666667 6.3333333,6.92 6.3333333,6 6.3333333,5.08 7.08,4.3333333 8,4.3333333 8.92,4.3333333 9.6666667,5.08 9.6666667,6 9.6666667,6.92 8.92,7.6666667 8,7.6666667 Z"
         id="path10" />
    </g>
  </g>
  <g
     style="fill:none;fill-rule:evenodd;stroke:none;stroke-width:1"
     transform="translate(52.38983,144.8983)"
     id="g21">
    <g
       transform="translate(4,4)"
       id="g19">
      <polygon
         points="16,16 0,16 0,0 16,0 "
         id="polygon15" />
      <path
         style="fill:#868686;fill-rule:nonzero"
         inkscape:connector-curvature="0"
         d="M 8,1.3333333 C 5.42,1.3333333 3.3333333,3.42 3.3333333,6 3.3333333,9.5 8,14.666667 8,14.666667 8,14.666667 12.666667,9.5 12.666667,6 12.666667,3.42 10.58,1.3333333 8,1.3333333 Z M 8,7.6666667 C 7.08,7.6666667 6.3333333,6.92 6.3333333,6 6.3333333,5.08 7.08,4.3333333 8,4.3333333 8.92,4.3333333 9.6666667,5.08 9.6666667,6 9.6666667,6.92 8.92,7.6666667 8,7.6666667 Z"
         id="path17" />
    </g>
  </g>
  <g
     style="fill:none;fill-rule:evenodd;stroke:none;stroke-width:1"
     transform="translate(77.38983,146.23163)"
     id="g29">
    <g
       transform="translate(4,4)"
       id="g27">
      <polygon
         points="0,0 16,0 16,16 0,16 "
         id="polygon23" />
      <path
         style="fill:#868686;fill-rule:nonzero"
         inkscape:connector-curvature="0"
         d="M 8,1.3333333 C 5.42,1.3333333 3.3333333,3.42 3.3333333,6 3.3333333,9.5 8,14.666667 8,14.666667 8,14.666667 12.666667,9.5 12.666667,6 12.666667,3.42 10.58,1.3333333 8,1.3333333 Z M 8,7.6666667 C 7.08,7.6666667 6.3333333,6.92 6.3333333,6 6.3333333,5.08 7.08,4.3333333 8,4.3333333 8.92,4.3333333 9.6666667,5.08 9.6666667,6 9.6666667,6.92 8.92,7.6666667 8,7.6666667 Z"
         id="path25" />
    </g>
  </g>
  <g
     style="fill:none;fill-rule:evenodd;stroke:none;stroke-width:1"
     transform="translate(48.762711,82.254232)"
     id="g37">
    <g
       transform="translate(4,4)"
       id="g35">
      <polygon
         points="0,16 0,0 16,0 16,16 "
         id="polygon31" />
      <path
         style="fill:#868686;fill-rule:nonzero"
         inkscape:connector-curvature="0"
         d="M 8,1.3333333 C 5.42,1.3333333 3.3333333,3.42 3.3333333,6 3.3333333,9.5 8,14.666667 8,14.666667 8,14.666667 12.666667,9.5 12.666667,6 12.666667,3.42 10.58,1.3333333 8,1.3333333 Z M 8,7.6666667 C 7.08,7.6666667 6.3333333,6.92 6.3333333,6 6.3333333,5.08 7.08,4.3333333 8,4.3333333 8.92,4.3333333 9.6666667,5.08 9.6666667,6 9.6666667,6.92 8.92,7.6666667 8,7.6666667 Z"
         id="path33" />
    </g>
  </g>
  <g
     style="fill:none;fill-rule:evenodd;stroke:none;stroke-width:1"
     transform="translate(72.38983,166.11864)"
     id="g45">
    <g
       transform="translate(4,4)"
       id="g43">
      <polygon
         points="0,0 16,0 16,16 0,16 "
         id="polygon39" />
      <path
         style="fill:#868686;fill-rule:nonzero"
         inkscape:connector-curvature="0"
         d="M 8,1.3333333 C 5.42,1.3333333 3.3333333,3.42 3.3333333,6 3.3333333,9.5 8,14.666667 8,14.666667 8,14.666667 12.666667,9.5 12.666667,6 12.666667,3.42 10.58,1.3333333 8,1.3333333 Z M 8,7.6666667 C 7.08,7.6666667 6.3333333,6.92 6.3333333,6 6.3333333,5.08 7.08,4.3333333 8,4.3333333 8.92,4.3333333 9.6666667,5.08 9.6666667,6 9.6666667,6.92 8.92,7.6666667 8,7.6666667 Z"
         id="path41" />
    </g>
  </g>
  <g
     style="fill:none;fill-rule:evenodd;stroke:none;stroke-width:1"
     transform="translate(39.38983,141.8983)"
     id="g53">
    <g
       transform="translate(4,4)"
       id="g51">
      <polygon
         points="16,16 0,16 0,0 16,0 "
         id="polygon47" />
      <path
         style="fill:#868686;fill-rule:nonzero"
         inkscape:connector-curvature="0"
         d="M 8,1.3333333 C 5.42,1.3333333 3.3333333,3.42 3.3333333,6 3.3333333,9.5 8,14.666667 8,14.666667 8,14.666667 12.666667,9.5 12.666667,6 12.666667,3.42 10.58,1.3333333 8,1.3333333 Z M 8,7.6666667 C 7.08,7.6666667 6.3333333,6.92 6.3333333,6 6.3333333,5.08 7.08,4.3333333 8,4.3333333 8.92,4.3333333 9.6666667,5.08 9.6666667,6 9.6666667,6.92 8.92,7.6666667 8,7.6666667 Z"
         id="path49" />
    </g>
  </g>
  <g
     style="fill:none;fill-rule:evenodd;stroke:none;stroke-width:1"
     transform="translate(52.38983,99.898305)"
     id="g61">
    <g
       transform="translate(4,4)"
       id="g59">
      <polygon
         points="16,16 0,16 0,0 16,0 "
         id="polygon55" />
      <path
         style="fill:#868686;fill-rule:nonzero"
         inkscape:connector-curvature="0"
         d="M 8,1.3333333 C 5.42,1.3333333 3.3333333,3.42 3.3333333,6 3.3333333,9.5 8,14.666667 8,14.666667 8,14.666667 12.666667,9.5 12.666667,6 12.666667,3.42 10.58,1.3333333 8,1.3333333 Z M 8,7.6666667 C 7.08,7.6666667 6.3333333,6.92 6.3333333,6 6.3333333,5.08 7.08,4.3333333 8,4.3333333 8.92,4.3333333 9.6666667,5.08 9.6666667,6 9.6666667,6.92 8.92,7.6666667 8,7.6666667 Z"
         id="path57" />
    </g>
  </g>
  <g
     style="fill:none;fill-rule:evenodd;stroke:none;stroke-width:1"
     transform="translate(60.38983,156.8983)"
     id="g69">
    <g
       transform="translate(4,4)"
       id="g67">
      <polygon
         points="16,16 0,16 0,0 16,0 "
         id="polygon63" />
      <path
         style="fill:#868686;fill-rule:nonzero"
         inkscape:connector-curvature="0"
         d="M 8,1.3333333 C 5.42,1.3333333 3.3333333,3.42 3.3333333,6 3.3333333,9.5 8,14.666667 8,14.666667 8,14.666667 12.666667,9.5 12.666667,6 12.666667,3.42 10.58,1.3333333 8,1.3333333 Z M 8,7.6666667 C 7.08,7.6666667 6.3333333,6.92 6.3333333,6 6.3333333,5.08 7.08,4.3333333 8,4.3333333 8.92,4.3333333 9.6666667,5.08 9.6666667,6 9.6666667,6.92 8.92,7.6666667 8,7.6666667 Z"
         id="path65" />
    </g>
  </g>
  <g
     style="fill:none;fill-rule:evenodd;stroke:none;stroke-width:1"
     transform="translate(49.38983,167.8983)"
     id="g77">
    <g
       transform="translate(4,4)"
       id="g75">
      <polygon
         points="16,16 0,16 0,0 16,0 "
         id="polygon71" />
      <path
         style="fill:#868686;fill-rule:nonzero"
         inkscape:connector-curvature="0"
         d="M 8,1.3333333 C 5.42,1.3333333 3.3333333,3.42 3.3333333,6 3.3333333,9.5 8,14.666667 8,14.666667 8,14.666667 12.666667,9.5 12.666667,6 12.666667,3.42 10.58,1.3333333 8,1.3333333 Z M 8,7.6666667 C 7.08,7.6666667 6.3333333,6.92 6.3333333,6 6.3333333,5.08 7.08,4.3333333 8,4.3333333 8.92,4.3333333 9.6666667,5.08 9.6666667,6 9.6666667,6.92 8.92,7.6666667 8,7.6666667 Z"
         id="path73" />
    </g>
  </g>
  <g
     style="fill:none;fill-rule:evenodd;stroke:none;stroke-width:1"
     transform="translate(28.38983,168.8983)"
     id="g85">
    <g
       transform="translate(4,4)"
       id="g83">
      <polygon
         points="0,16 0,0 16,0 16,16 "
         id="polygon79" />
      <path
         style="fill:#868686;fill-rule:nonzero"
         inkscape:connector-curvature="0"
         d="M 8,1.3333333 C 5.42,1.3333333 3.3333333,3.42 3.3333333,6 3.3333333,9.5 8,14.666667 8,14.666667 8,14.666667 12.666667,9.5 12.666667,6 12.666667,3.42 10.58,1.3333333 8,1.3333333 Z M 8,7.6666667 C 7.08,7.6666667 6.3333333,6.92 6.3333333,6 6.3333333,5.08 7.08,4.3333333 8,4.3333333 8.92,4.3333333 9.6666667,5.08 9.6666667,6 9.6666667,6.92 8.92,7.6666667 8,7.6666667 Z"
         id="path81" />
    </g>
  </g>
  <g
     style="fill:none;fill-rule:evenodd;stroke:none;stroke-width:1"
     transform="translate(28.38983,152.8983)"
     id="g93">
    <g
       transform="translate(4,4)"
       id="g91">
      <polygon
         points="16,16 0,16 0,0 16,0 "
         id="polygon87" />
      <path
         style="fill:#868686;fill-rule:nonzero"
         inkscape:connector-curvature="0"
         d="M 8,1.3333333 C 5.42,1.3333333 3.3333333,3.42 3.3333333,6 3.3333333,9.5 8,14.666667 8,14.666667 8,14.666667 12.666667,9.5 12.666667,6 12.666667,3.42 10.58,1.3333333 8,1.3333333 Z M 8,7.6666667 C 7.08,7.6666667 6.3333333,6.92 6.3333333,6 6.3333333,5.08 7.08,4.3333333 8,4.3333333 8.92,4.3333333 9.6666667,5.08 9.6666667,6 9.6666667,6.92 8.92,7.6666667 8,7.6666667 Z"
         id="path89" />
    </g>
  </g>
  <g
     style="fill:none;fill-rule:evenodd;stroke:none;stroke-width:1"
     transform="translate(60.38983,117.8983)"
     id="g101">
    <g
       transform="translate(4,4)"
       id="g99">
      <polygon
         points="16,16 0,16 0,0 16,0 "
         id="polygon95" />
      <path
         style="fill:#868686;fill-rule:nonzero"
         inkscape:connector-curvature="0"
         d="M 8,1.3333333 C 5.42,1.3333333 3.3333333,3.42 3.3333333,6 3.3333333,9.5 8,14.666667 8,14.666667 8,14.666667 12.666667,9.5 12.666667,6 12.666667,3.42 10.58,1.3333333 8,1.3333333 Z M 8,7.6666667 C 7.08,7.6666667 6.3333333,6.92 6.3333333,6 6.3333333,5.08 7.08,4.3333333 8,4.3333333 8.92,4.3333333 9.6666667,5.08 9.6666667,6 9.6666667,6.92 8.92,7.6666667 8,7.6666667 Z"
         id="path97" />
    </g>
  </g>
  <g
     style="fill:none;fill-rule:evenodd;stroke:none;stroke-width:1"
     transform="translate(69.38983,128.8983)"
     id="g109">
    <g
       transform="translate(4,4)"
       id="g107">
      <polygon
         points="16,16 0,16 0,0 16,0 "
         id="polygon103" />
      <path
         style="fill:#868686;fill-rule:nonzero"
         inkscape:connector-curvature="0"
         d="M 8,1.3333333 C 5.42,1.3333333 3.3333333,3.42 3.3333333,6 3.3333333,9.5 8,14.666667 8,14.666667 8,14.666667 12.666667,9.5 12.666667,6 12.666667,3.42 10.58,1.3333333 8,1.3333333 Z M 8,7.6666667 C 7.08,7.6666667 6.3333333,6.92 6.3333333,6 6.3333333,5.08 7.08,4.3333333 8,4.3333333 8.92,4.3333333 9.6666667,5.08 9.6666667,6 9.6666667,6.92 8.92,7.6666667 8,7.6666667 Z"
         id="path105" />
    </g>
  </g>
  <g
     style="fill:none;fill-rule:evenodd;stroke:none;stroke-width:1"
     transform="translate(40.762711,90.587565)"
     id="g117">
    <g
       transform="translate(4,4)"
       id="g115">
      <polygon
         points="0,16 0,0 16,0 16,16 "
         id="polygon111" />
      <path
         style="fill:#868686;fill-rule:nonzero"
         inkscape:connector-curvature="0"
         d="M 8,1.3333333 C 5.42,1.3333333 3.3333333,3.42 3.3333333,6 3.3333333,9.5 8,14.666667 8,14.666667 8,14.666667 12.666667,9.5 12.666667,6 12.666667,3.42 10.58,1.3333333 8,1.3333333 Z M 8,7.6666667 C 7.08,7.6666667 6.3333333,6.92 6.3333333,6 6.3333333,5.08 7.08,4.3333333 8,4.3333333 8.92,4.3333333 9.6666667,5.08 9.6666667,6 9.6666667,6.92 8.92,7.6666667 8,7.6666667 Z"
         id="path113" />
    </g>
  </g>
  <g
     style="fill:none;fill-rule:evenodd;stroke:none;stroke-width:1"
     transform="translate(44.38983,108.23164)"
     id="g125">
    <g
       transform="translate(4,4)"
       id="g123">
      <polygon
         points="0,16 0,0 16,0 16,16 "
         id="polygon119" />
      <path
         style="fill:#868686;fill-rule:nonzero"
         inkscape:connector-curvature="0"
         d="M 8,1.3333333 C 5.42,1.3333333 3.3333333,3.42 3.3333333,6 3.3333333,9.5 8,14.666667 8,14.666667 8,14.666667 12.666667,9.5 12.666667,6 12.666667,3.42 10.58,1.3333333 8,1.3333333 Z M 8,7.6666667 C 7.08,7.6666667 6.3333333,6.92 6.3333333,6 6.3333333,5.08 7.08,4.3333333 8,4.3333333 8.92,4.3333333 9.6666667,5.08 9.6666667,6 9.6666667,6.92 8.92,7.6666667 8,7.6666667 Z"
         id="path121" />
    </g>
  </g>
  <g
     style="fill:none;fill-rule:evenodd;stroke:none;stroke-width:1"
     transform="translate(45.745762,61.084746)"
     id="g133">
    <g
       transform="translate(4,4)"
       id="g131">
      <polygon
         points="0,16 0,0 16,0 16,16 "
         id="polygon127" />
      <path
         style="fill:#868686;fill-rule:nonzero"
         inkscape:connector-curvature="0"
         d="M 8,1.3333333 C 5.42,1.3333333 3.3333333,3.42 3.3333333,6 3.3333333,9.5 8,14.666667 8,14.666667 8,14.666667 12.666667,9.5 12.666667,6 12.666667,3.42 10.58,1.3333333 8,1.3333333 Z M 8,7.6666667 C 7.08,7.6666667 6.3333333,6.92 6.3333333,6 6.3333333,5.08 7.08,4.3333333 8,4.3333333 8.92,4.3333333 9.6666667,5.08 9.6666667,6 9.6666667,6.92 8.92,7.6666667 8,7.6666667 Z"
         id="path129" />
    </g>
  </g>
  <g
     style="fill:none;fill-rule:evenodd;stroke:none;stroke-width:1"
     transform="translate(33.9661,52.440678)"
     id="g141">
    <g
       transform="translate(4,4)"
       id="g139">
      <polygon
         points="16,0 16,16 0,16 0,0 "
         id="polygon135" />
      <path
         style="fill:#868686;fill-rule:nonzero"
         inkscape:connector-curvature="0"
         d="M 8,1.3333333 C 5.42,1.3333333 3.3333333,3.42 3.3333333,6 3.3333333,9.5 8,14.666667 8,14.666667 8,14.666667 12.666667,9.5 12.666667,6 12.666667,3.42 10.58,1.3333333 8,1.3333333 Z M 8,7.6666667 C 7.08,7.6666667 6.3333333,6.92 6.3333333,6 6.3333333,5.08 7.08,4.3333333 8,4.3333333 8.92,4.3333333 9.6666667,5.08 9.6666667,6 9.6666667,6.92 8.92,7.6666667 8,7.6666667 Z"
         id="path137" />
    </g>
  </g>
  <g
     style="fill:none;fill-rule:evenodd;stroke:none;stroke-width:1"
     transform="translate(37.745762,75.751413)"
     id="g149">
    <g
       transform="translate(4,4)"
       id="g147">
      <polygon
         points="0,16 0,0 16,0 16,16 "
         id="polygon143" />
      <path
         style="fill:#868686;fill-rule:nonzero"
         inkscape:connector-curvature="0"
         d="M 8,1.3333333 C 5.42,1.3333333 3.3333333,3.42 3.3333333,6 3.3333333,9.5 8,14.666667 8,14.666667 8,14.666667 12.666667,9.5 12.666667,6 12.666667,3.42 10.58,1.3333333 8,1.3333333 Z M 8,7.6666667 C 7.08,7.6666667 6.3333333,6.92 6.3333333,6 6.3333333,5.08 7.08,4.3333333 8,4.3333333 8.92,4.3333333 9.6666667,5.08 9.6666667,6 9.6666667,6.92 8.92,7.6666667 8,7.6666667 Z"
         id="path145" />
    </g>
  </g>
  <g
     style="fill:none;fill-rule:evenodd;stroke:none;stroke-width:1"
     transform="translate(47.38983,124.8983)"
     id="g157">
    <g
       transform="translate(4,4)"
       id="g155">
      <polygon
         points="16,16 0,16 0,0 16,0 "
         id="polygon151" />
      <path
         style="fill:#868686;fill-rule:nonzero"
         inkscape:connector-curvature="0"
         d="M 8,1.3333333 C 5.42,1.3333333 3.3333333,3.42 3.3333333,6 3.3333333,9.5 8,14.666667 8,14.666667 8,14.666667 12.666667,9.5 12.666667,6 12.666667,3.42 10.58,1.3333333 8,1.3333333 Z M 8,7.6666667 C 7.08,7.6666667 6.3333333,6.92 6.3333333,6 6.3333333,5.08 7.08,4.3333333 8,4.3333333 8.92,4.3333333 9.6666667,5.08 9.6666667,6 9.6666667,6.92 8.92,7.6666667 8,7.6666667 Z"
         id="path153" />
    </g>
  </g>
  <g
     style="fill:none;fill-rule:evenodd;stroke:none;stroke-width:1"
     transform="translate(3.2033893,90.542373)"
     id="g165">
    <g
       transform="translate(4,4)"
       id="g163">
      <polygon
         points="16,0 16,16 0,16 0,0 "
         id="polygon159" />
      <path
         style="fill:#868686;fill-rule:nonzero"
         inkscape:connector-curvature="0"
         d="M 8,1.3333333 C 5.42,1.3333333 3.3333333,3.42 3.3333333,6 3.3333333,9.5 8,14.666667 8,14.666667 8,14.666667 12.666667,9.5 12.666667,6 12.666667,3.42 10.58,1.3333333 8,1.3333333 Z M 8,7.6666667 C 7.08,7.6666667 6.3333333,6.92 6.3333333,6 6.3333333,5.08 7.08,4.3333333 8,4.3333333 8.92,4.3333333 9.6666667,5.08 9.6666667,6 9.6666667,6.92 8.92,7.6666667 8,7.6666667 Z"
         id="path161" />
    </g>
  </g>
  <rect
     height="176"
     width="87"
     y="40.898304"
     x="19.38983"
     id="Rectangle-48"
     style="opacity:0;fill:#d8d8d8;fill-rule:evenodd;stroke:none;stroke-width:1" />
</svg>
