<?xml version="1.0" encoding="UTF-8" standalone="no"?>
<svg
   xmlns:dc="http://purl.org/dc/elements/1.1/"
   xmlns:cc="http://creativecommons.org/ns#"
   xmlns:rdf="http://www.w3.org/1999/02/22-rdf-syntax-ns#"
   xmlns:svg="http://www.w3.org/2000/svg"
   xmlns="http://www.w3.org/2000/svg"
   xmlns:sodipodi="http://sodipodi.sourceforge.net/DTD/sodipodi-0.dtd"
   xmlns:inkscape="http://www.inkscape.org/namespaces/inkscape"
   width="119px"
   height="114px"
   viewBox="0 0 119 114"
   version="1.1"
   id="svg106"
   sodipodi:docname="gr.svg"
   inkscape:version="0.92.3 (2405546, 2018-03-11)">
  <metadata
     id="metadata110">
    <rdf:RDF>
      <cc:Work
         rdf:about="">
        <dc:format>image/svg+xml</dc:format>
        <dc:type
           rdf:resource="http://purl.org/dc/dcmitype/StillImage" />
      </cc:Work>
    </rdf:RDF>
  </metadata>
  <sodipodi:namedview
     pagecolor="#ffffff"
     bordercolor="#666666"
     borderopacity="1"
     objecttolerance="10"
     gridtolerance="10"
     guidetolerance="10"
     inkscape:pageopacity="0"
     inkscape:pageshadow="2"
     inkscape:window-width="1870"
     inkscape:window-height="1051"
     id="namedview108"
     showgrid="false"
     inkscape:zoom="11.710681"
     inkscape:cx="54.130138"
     inkscape:cy="83.883544"
     inkscape:window-x="1970"
     inkscape:window-y="0"
     inkscape:window-maximized="1"
     inkscape:current-layer="svg106" />
  <!-- Generator: Sketch 51.3 (57544) - http://www.bohemiancoding.com/sketch -->
  <title
     id="title2">gr_38</title>
  <desc
     id="desc4">Created with Sketch.</desc>
  <defs
     id="defs6" />
  <g
     style="fill:none;fill-rule:evenodd;stroke:none;stroke-width:1"
     transform="translate(9.5084745,16.415254)"
     id="g13">
    <g
       transform="translate(4,4)"
       id="Shape">
      <polygon
         points="16,0 16,16 0,16 0,0 "
         id="polygon8" />
      <path
         d="M 8,1.3333333 C 5.42,1.3333333 3.3333333,3.42 3.3333333,6 3.3333333,9.5 8,14.666667 8,14.666667 8,14.666667 12.666667,9.5 12.666667,6 12.666667,3.42 10.58,1.3333333 8,1.3333333 Z M 8,7.6666667 C 7.08,7.6666667 6.3333333,6.92 6.3333333,6 6.3333333,5.08 7.08,4.3333333 8,4.3333333 8.92,4.3333333 9.6666667,5.08 9.6666667,6 9.6666667,6.92 8.92,7.6666667 8,7.6666667 Z"
         id="path10"
         inkscape:connector-curvature="0"
         style="fill:#868686;fill-rule:nonzero" />
    </g>
  </g>
  <g
     style="fill:none;fill-rule:evenodd;stroke:none;stroke-width:1"
     transform="translate(0.50847503,28.415254)"
     id="g21">
    <g
       transform="translate(4,4)"
       id="g19">
      <polygon
         points="16,0 16,16 0,16 0,0 "
         id="polygon15" />
      <path
         d="M 8,1.3333333 C 5.42,1.3333333 3.3333333,3.42 3.3333333,6 3.3333333,9.5 8,14.666667 8,14.666667 8,14.666667 12.666667,9.5 12.666667,6 12.666667,3.42 10.58,1.3333333 8,1.3333333 Z M 8,7.6666667 C 7.08,7.6666667 6.3333333,6.92 6.3333333,6 6.3333333,5.08 7.08,4.3333333 8,4.3333333 8.92,4.3333333 9.6666667,5.08 9.6666667,6 9.6666667,6.92 8.92,7.6666667 8,7.6666667 Z"
         id="path17"
         inkscape:connector-curvature="0"
         style="fill:#868686;fill-rule:nonzero" />
    </g>
  </g>
  <g
     style="fill:none;fill-rule:evenodd;stroke:none;stroke-width:1"
     transform="translate(26.677105,2.3051565)"
     id="g29">
    <g
       transform="translate(4,4)"
       id="g27">
      <polygon
         points="0,16 0,0 16,0 16,16 "
         id="polygon23" />
      <path
         d="M 8,1.3333333 C 5.42,1.3333333 3.3333333,3.42 3.3333333,6 3.3333333,9.5 8,14.666667 8,14.666667 8,14.666667 12.666667,9.5 12.666667,6 12.666667,3.42 10.58,1.3333333 8,1.3333333 Z M 8,7.6666667 C 7.08,7.6666667 6.3333333,6.92 6.3333333,6 6.3333333,5.08 7.08,4.3333333 8,4.3333333 8.92,4.3333333 9.6666667,5.08 9.6666667,6 9.6666667,6.92 8.92,7.6666667 8,7.6666667 Z"
         id="path25"
         inkscape:connector-curvature="0"
         style="fill:#868686;fill-rule:nonzero" />
    </g>
  </g>
  <g
     style="fill:none;fill-rule:evenodd;stroke:none;stroke-width:1"
     transform="translate(19.508475,27.415254)"
     id="g37">
    <g
       transform="translate(4,4)"
       id="g35">
      <polygon
         points="16,0 16,16 0,16 0,0 "
         id="polygon31" />
      <path
         d="M 8,1.3333333 C 5.42,1.3333333 3.3333333,3.42 3.3333333,6 3.3333333,9.5 8,14.666667 8,14.666667 8,14.666667 12.666667,9.5 12.666667,6 12.666667,3.42 10.58,1.3333333 8,1.3333333 Z M 8,7.6666667 C 7.08,7.6666667 6.3333333,6.92 6.3333333,6 6.3333333,5.08 7.08,4.3333333 8,4.3333333 8.92,4.3333333 9.6666667,5.08 9.6666667,6 9.6666667,6.92 8.92,7.6666667 8,7.6666667 Z"
         id="path33"
         inkscape:connector-curvature="0"
         style="fill:#868686;fill-rule:nonzero" />
    </g>
  </g>
  <g
     style="fill:none;fill-rule:evenodd;stroke:none;stroke-width:1"
     transform="translate(43.508475,43.789764)"
     id="g45">
    <g
       transform="translate(4,4)"
       id="g43">
      <polygon
         points="0,16 0,0 16,0 16,16 "
         id="polygon39" />
      <path
         d="M 8,1.3333333 C 5.42,1.3333333 3.3333333,3.42 3.3333333,6 3.3333333,9.5 8,14.666667 8,14.666667 8,14.666667 12.666667,9.5 12.666667,6 12.666667,3.42 10.58,1.3333333 8,1.3333333 Z M 8,7.6666667 C 7.08,7.6666667 6.3333333,6.92 6.3333333,6 6.3333333,5.08 7.08,4.3333333 8,4.3333333 8.92,4.3333333 9.6666667,5.08 9.6666667,6 9.6666667,6.92 8.92,7.6666667 8,7.6666667 Z"
         id="path41"
         inkscape:connector-curvature="0"
         style="fill:#868686;fill-rule:nonzero" />
    </g>
  </g>
  <g
     style="fill:none;fill-rule:evenodd;stroke:none;stroke-width:1"
     transform="translate(32.147011,14.012999)"
     id="g53">
    <g
       transform="translate(4,4)"
       id="g51">
      <polygon
         points="0,16 0,0 16,0 16,16 "
         id="polygon47" />
      <path
         d="M 8,1.3333333 C 5.42,1.3333333 3.3333333,3.42 3.3333333,6 3.3333333,9.5 8,14.666667 8,14.666667 8,14.666667 12.666667,9.5 12.666667,6 12.666667,3.42 10.58,1.3333333 8,1.3333333 Z M 8,7.6666667 C 7.08,7.6666667 6.3333333,6.92 6.3333333,6 6.3333333,5.08 7.08,4.3333333 8,4.3333333 8.92,4.3333333 9.6666667,5.08 9.6666667,6 9.6666667,6.92 8.92,7.6666667 8,7.6666667 Z"
         id="path49"
         inkscape:connector-curvature="0"
         style="fill:#868686;fill-rule:nonzero" />
    </g>
  </g>
  <g
     style="fill:none;fill-rule:evenodd;stroke:none;stroke-width:1"
     transform="translate(9.5084745,38.415254)"
     id="g61">
    <g
       transform="translate(4,4)"
       id="g59">
      <polygon
         points="16,0 16,16 0,16 0,0 "
         id="polygon55" />
      <path
         d="M 8,1.3333333 C 5.42,1.3333333 3.3333333,3.42 3.3333333,6 3.3333333,9.5 8,14.666667 8,14.666667 8,14.666667 12.666667,9.5 12.666667,6 12.666667,3.42 10.58,1.3333333 8,1.3333333 Z M 8,7.6666667 C 7.08,7.6666667 6.3333333,6.92 6.3333333,6 6.3333333,5.08 7.08,4.3333333 8,4.3333333 8.92,4.3333333 9.6666667,5.08 9.6666667,6 9.6666667,6.92 8.92,7.6666667 8,7.6666667 Z"
         id="path57"
         inkscape:connector-curvature="0"
         style="fill:#868686;fill-rule:nonzero" />
    </g>
  </g>
  <g
     style="fill:none;fill-rule:evenodd;stroke:none;stroke-width:1"
     transform="translate(30.92416,42.85045)"
     id="g69">
    <g
       transform="translate(4,4)"
       id="g67">
      <polygon
         points="0,16 0,0 16,0 16,16 "
         id="polygon63" />
      <path
         d="M 8,1.3333333 C 5.42,1.3333333 3.3333333,3.42 3.3333333,6 3.3333333,9.5 8,14.666667 8,14.666667 8,14.666667 12.666667,9.5 12.666667,6 12.666667,3.42 10.58,1.3333333 8,1.3333333 Z M 8,7.6666667 C 7.08,7.6666667 6.3333333,6.92 6.3333333,6 6.3333333,5.08 7.08,4.3333333 8,4.3333333 8.92,4.3333333 9.6666667,5.08 9.6666667,6 9.6666667,6.92 8.92,7.6666667 8,7.6666667 Z"
         id="path65"
         inkscape:connector-curvature="0"
         style="fill:#868686;fill-rule:nonzero" />
    </g>
  </g>
  <g
     style="fill:none;fill-rule:evenodd;stroke:none;stroke-width:1"
     transform="translate(28.508475,66.415254)"
     id="g77">
    <g
       transform="translate(4,4)"
       id="g75">
      <polygon
         points="16,0 16,16 0,16 0,0 "
         id="polygon71" />
      <path
         d="M 8,1.3333333 C 5.42,1.3333333 3.3333333,3.42 3.3333333,6 3.3333333,9.5 8,14.666667 8,14.666667 8,14.666667 12.666667,9.5 12.666667,6 12.666667,3.42 10.58,1.3333333 8,1.3333333 Z M 8,7.6666667 C 7.08,7.6666667 6.3333333,6.92 6.3333333,6 6.3333333,5.08 7.08,4.3333333 8,4.3333333 8.92,4.3333333 9.6666667,5.08 9.6666667,6 9.6666667,6.92 8.92,7.6666667 8,7.6666667 Z"
         id="path73"
         inkscape:connector-curvature="0"
         style="fill:#868686;fill-rule:nonzero" />
    </g>
  </g>
  <g
     style="fill:none;fill-rule:evenodd;stroke:none;stroke-width:1"
     transform="translate(16.508475,55.415254)"
     id="g85">
    <g
       transform="translate(4,4)"
       id="g83">
      <polygon
         points="16,0 16,16 0,16 0,0 "
         id="polygon79" />
      <path
         d="M 8,1.3333333 C 5.42,1.3333333 3.3333333,3.42 3.3333333,6 3.3333333,9.5 8,14.666667 8,14.666667 8,14.666667 12.666667,9.5 12.666667,6 12.666667,3.42 10.58,1.3333333 8,1.3333333 Z M 8,7.6666667 C 7.08,7.6666667 6.3333333,6.92 6.3333333,6 6.3333333,5.08 7.08,4.3333333 8,4.3333333 8.92,4.3333333 9.6666667,5.08 9.6666667,6 9.6666667,6.92 8.92,7.6666667 8,7.6666667 Z"
         id="path81"
         inkscape:connector-curvature="0"
         style="fill:#868686;fill-rule:nonzero" />
    </g>
  </g>
  <g
     style="fill:none;fill-rule:evenodd;stroke:none;stroke-width:1"
     transform="translate(55.20339,93.79661)"
     id="g93">
    <g
       transform="translate(4,4)"
       id="g91">
      <polygon
         points="0,16 0,0 16,0 16,16 "
         id="polygon87" />
      <path
         d="M 8,1.3333333 C 5.42,1.3333333 3.3333333,3.42 3.3333333,6 3.3333333,9.5 8,14.666667 8,14.666667 8,14.666667 12.666667,9.5 12.666667,6 12.666667,3.42 10.58,1.3333333 8,1.3333333 Z M 8,7.6666667 C 7.08,7.6666667 6.3333333,6.92 6.3333333,6 6.3333333,5.08 7.08,4.3333333 8,4.3333333 8.92,4.3333333 9.6666667,5.08 9.6666667,6 9.6666667,6.92 8.92,7.6666667 8,7.6666667 Z"
         id="path89"
         inkscape:connector-curvature="0"
         style="fill:#868686;fill-rule:nonzero" />
    </g>
  </g>
  <g
     style="fill:none;fill-rule:evenodd;stroke:none;stroke-width:1"
     transform="translate(74.20339,95.79661)"
     id="g101">
    <g
       transform="translate(4,4)"
       id="g99">
      <polygon
         points="0,16 0,0 16,0 16,16 "
         id="polygon95" />
      <path
         d="M 8,1.3333333 C 5.42,1.3333333 3.3333333,3.42 3.3333333,6 3.3333333,9.5 8,14.666667 8,14.666667 8,14.666667 12.666667,9.5 12.666667,6 12.666667,3.42 10.58,1.3333333 8,1.3333333 Z M 8,7.6666667 C 7.08,7.6666667 6.3333333,6.92 6.3333333,6 6.3333333,5.08 7.08,4.3333333 8,4.3333333 8.92,4.3333333 9.6666667,5.08 9.6666667,6 9.6666667,6.92 8.92,7.6666667 8,7.6666667 Z"
         id="path97"
         inkscape:connector-curvature="0"
         style="fill:#868686;fill-rule:nonzero" />
    </g>
  </g>
  <rect
     style="opacity:0;fill:#d8d8d8;fill-rule:evenodd;stroke:none;stroke-width:1"
     height="114"
     width="119"
     y="0"
     x="0"
     id="Rectangle-49" />
</svg>
