<?xml version="1.0" encoding="UTF-8" standalone="no"?>
<svg
   xmlns:dc="http://purl.org/dc/elements/1.1/"
   xmlns:cc="http://creativecommons.org/ns#"
   xmlns:rdf="http://www.w3.org/1999/02/22-rdf-syntax-ns#"
   xmlns:svg="http://www.w3.org/2000/svg"
   xmlns="http://www.w3.org/2000/svg"
   xmlns:sodipodi="http://sodipodi.sourceforge.net/DTD/sodipodi-0.dtd"
   xmlns:inkscape="http://www.inkscape.org/namespaces/inkscape"
   width="67px"
   height="67px"
   viewBox="0 0 67 67"
   version="1.1"
   id="svg50"
   sodipodi:docname="hr.svg"
   inkscape:version="0.92.3 (2405546, 2018-03-11)">
  <metadata
     id="metadata54">
    <rdf:RDF>
      <cc:Work
         rdf:about="">
        <dc:format>image/svg+xml</dc:format>
        <dc:type
           rdf:resource="http://purl.org/dc/dcmitype/StillImage" />
      </cc:Work>
    </rdf:RDF>
  </metadata>
  <sodipodi:namedview
     pagecolor="#ffffff"
     bordercolor="#666666"
     borderopacity="1"
     objecttolerance="10"
     gridtolerance="10"
     guidetolerance="10"
     inkscape:pageopacity="0"
     inkscape:pageshadow="2"
     inkscape:window-width="1870"
     inkscape:window-height="1051"
     id="namedview52"
     showgrid="false"
     inkscape:zoom="3.5223881"
     inkscape:cx="33.5"
     inkscape:cy="33.5"
     inkscape:window-x="1970"
     inkscape:window-y="0"
     inkscape:window-maximized="1"
     inkscape:current-layer="svg50" />
  <!-- Generator: Sketch 51.3 (57544) - http://www.bohemiancoding.com/sketch -->
  <title
     id="title2">hr_49</title>
  <desc
     id="desc4">Created with Sketch.</desc>
  <defs
     id="defs6" />
  <g
     style="fill:none;fill-rule:evenodd;stroke:none;stroke-width:1"
     id="baseline-location_on-24px-(5)"
     transform="translate(3.1228814,0.33474574)">
    <g
       id="g13"
       transform="translate(30,1)">
      <g
         id="Shape"
         transform="translate(4,4)">
        <polygon
           id="polygon8"
           points="16,0 16,16 0,16 0,0 " />
        <path
           style="fill:#868686;fill-rule:nonzero"
           inkscape:connector-curvature="0"
           id="path10"
           d="M 8,1.3333333 C 5.42,1.3333333 3.3333333,3.42 3.3333333,6 3.3333333,9.5 8,14.666667 8,14.666667 8,14.666667 12.666667,9.5 12.666667,6 12.666667,3.42 10.58,1.3333333 8,1.3333333 Z M 8,7.6666667 C 7.08,7.6666667 6.3333333,6.92 6.3333333,6 6.3333333,5.08 7.08,4.3333333 8,4.3333333 8.92,4.3333333 9.6666667,5.08 9.6666667,6 9.6666667,6.92 8.92,7.6666667 8,7.6666667 Z" />
      </g>
    </g>
    <g
       id="g21"
       transform="translate(13,28)">
      <g
         id="g19"
         transform="translate(4,4)">
        <polygon
           id="polygon15"
           points="16,0 16,16 0,16 0,0 " />
        <path
           style="fill:#868686;fill-rule:nonzero"
           inkscape:connector-curvature="0"
           id="path17"
           d="M 8,1.3333333 C 5.42,1.3333333 3.3333333,3.42 3.3333333,6 3.3333333,9.5 8,14.666667 8,14.666667 8,14.666667 12.666667,9.5 12.666667,6 12.666667,3.42 10.58,1.3333333 8,1.3333333 Z M 8,7.6666667 C 7.08,7.6666667 6.3333333,6.92 6.3333333,6 6.3333333,5.08 7.08,4.3333333 8,4.3333333 8.92,4.3333333 9.6666667,5.08 9.6666667,6 9.6666667,6.92 8.92,7.6666667 8,7.6666667 Z" />
      </g>
    </g>
    <g
       id="g29"
       transform="translate(0,12)">
      <g
         id="g27"
         transform="translate(4,4)">
        <polygon
           id="polygon23"
           points="16,0 16,16 0,16 0,0 " />
        <path
           style="fill:#868686;fill-rule:nonzero"
           inkscape:connector-curvature="0"
           id="path25"
           d="M 8,1.3333333 C 5.42,1.3333333 3.3333333,3.42 3.3333333,6 3.3333333,9.5 8,14.666667 8,14.666667 8,14.666667 12.666667,9.5 12.666667,6 12.666667,3.42 10.58,1.3333333 8,1.3333333 Z M 8,7.6666667 C 7.08,7.6666667 6.3333333,6.92 6.3333333,6 6.3333333,5.08 7.08,4.3333333 8,4.3333333 8.92,4.3333333 9.6666667,5.08 9.6666667,6 9.6666667,6.92 8.92,7.6666667 8,7.6666667 Z" />
      </g>
    </g>
    <g
       id="g37"
       transform="translate(14)">
      <g
         id="g35"
         transform="translate(4,4)">
        <polygon
           id="polygon31"
           points="16,0 16,16 0,16 0,0 " />
        <path
           style="fill:#868686;fill-rule:nonzero"
           inkscape:connector-curvature="0"
           id="path33"
           d="M 8,1.3333333 C 5.42,1.3333333 3.3333333,3.42 3.3333333,6 3.3333333,9.5 8,14.666667 8,14.666667 8,14.666667 12.666667,9.5 12.666667,6 12.666667,3.42 10.58,1.3333333 8,1.3333333 Z M 8,7.6666667 C 7.08,7.6666667 6.3333333,6.92 6.3333333,6 6.3333333,5.08 7.08,4.3333333 8,4.3333333 8.92,4.3333333 9.6666667,5.08 9.6666667,6 9.6666667,6.92 8.92,7.6666667 8,7.6666667 Z" />
      </g>
    </g>
    <g
       id="g45"
       transform="translate(44)">
      <g
         id="g43"
         transform="translate(4,4)">
        <polygon
           id="polygon39"
           points="16,0 16,16 0,16 0,0 " />
        <path
           style="fill:#868686;fill-rule:nonzero"
           inkscape:connector-curvature="0"
           id="path41"
           d="M 8,1.3333333 C 5.42,1.3333333 3.3333333,3.42 3.3333333,6 3.3333333,9.5 8,14.666667 8,14.666667 8,14.666667 12.666667,9.5 12.666667,6 12.666667,3.42 10.58,1.3333333 8,1.3333333 Z M 8,7.6666667 C 7.08,7.6666667 6.3333333,6.92 6.3333333,6 6.3333333,5.08 7.08,4.3333333 8,4.3333333 8.92,4.3333333 9.6666667,5.08 9.6666667,6 9.6666667,6.92 8.92,7.6666667 8,7.6666667 Z" />
      </g>
    </g>
  </g>
  <rect
     style="opacity:0;fill:#d8d8d8;fill-rule:evenodd;stroke:none;stroke-width:1"
     height="67"
     width="67"
     y="0"
     x="0"
     id="Rectangle-41" />
</svg>
