<?xml version="1.0" encoding="UTF-8"?>
<svg width="87px" height="61px" viewBox="0 0 87 61" version="1.1" xmlns="http://www.w3.org/2000/svg" xmlns:xlink="http://www.w3.org/1999/xlink">
    <!-- Generator: Sketch 51.3 (57544) - http://www.bohemiancoding.com/sketch -->
    <title>Artboard 12</title>
    <desc>Created with Sketch.</desc>
    <defs></defs>
    <g id="Artboard-12" stroke="none" stroke-width="1" fill="none" fill-rule="evenodd">
        <g id="ro_28" transform="translate(-4.000000, 0.000000)">
            <g id="baseline-location_on-24px-(5)" transform="translate(12.000000, 0.000000)">
                <g transform="translate(4.000000, 4.000000)" id="Shape">
                    <polygon points="0 0 16 0 16 16 0 16"></polygon>
                    <path d="M8,1.33333333 C5.42,1.33333333 3.33333333,3.42 3.33333333,6 C3.33333333,9.5 8,14.6666667 8,14.6666667 C8,14.6666667 12.6666667,9.5 12.6666667,6 C12.6666667,3.42 10.58,1.33333333 8,1.33333333 Z M8,7.66666667 C7.08,7.66666667 6.33333333,6.92 6.33333333,6 C6.33333333,5.08 7.08,4.33333333 8,4.33333333 C8.92,4.33333333 9.66666667,5.08 9.66666667,6 C9.66666667,6.92 8.92,7.66666667 8,7.66666667 Z" fill="#868686" fill-rule="nonzero"></path>
                </g>
            </g>
            <g id="baseline-location_on-24px-(5)" transform="translate(71.000000, 33.000000)">
                <g transform="translate(4.000000, 4.000000)" id="Shape">
                    <polygon points="0 0 16 0 16 16 0 16"></polygon>
                    <path d="M8,1.33333333 C5.42,1.33333333 3.33333333,3.42 3.33333333,6 C3.33333333,9.5 8,14.6666667 8,14.6666667 C8,14.6666667 12.6666667,9.5 12.6666667,6 C12.6666667,3.42 10.58,1.33333333 8,1.33333333 Z M8,7.66666667 C7.08,7.66666667 6.33333333,6.92 6.33333333,6 C6.33333333,5.08 7.08,4.33333333 8,4.33333333 C8.92,4.33333333 9.66666667,5.08 9.66666667,6 C9.66666667,6.92 8.92,7.66666667 8,7.66666667 Z" fill="#868686" fill-rule="nonzero"></path>
                </g>
            </g>
            <g id="baseline-location_on-24px-(5)" transform="translate(26.000000, 19.000000)">
                <g transform="translate(4.000000, 4.000000)" id="Shape">
                    <polygon points="0 0 16 0 16 16 0 16"></polygon>
                    <path d="M8,1.33333333 C5.42,1.33333333 3.33333333,3.42 3.33333333,6 C3.33333333,9.5 8,14.6666667 8,14.6666667 C8,14.6666667 12.6666667,9.5 12.6666667,6 C12.6666667,3.42 10.58,1.33333333 8,1.33333333 Z M8,7.66666667 C7.08,7.66666667 6.33333333,6.92 6.33333333,6 C6.33333333,5.08 7.08,4.33333333 8,4.33333333 C8.92,4.33333333 9.66666667,5.08 9.66666667,6 C9.66666667,6.92 8.92,7.66666667 8,7.66666667 Z" fill="#868686" fill-rule="nonzero"></path>
                </g>
            </g>
            <g id="baseline-location_on-24px-(5)" transform="translate(0.000000, 19.000000)">
                <g transform="translate(4.000000, 4.000000)" id="Shape">
                    <polygon points="0 0 16 0 16 16 0 16"></polygon>
                    <path d="M8,1.33333333 C5.42,1.33333333 3.33333333,3.42 3.33333333,6 C3.33333333,9.5 8,14.6666667 8,14.6666667 C8,14.6666667 12.6666667,9.5 12.6666667,6 C12.6666667,3.42 10.58,1.33333333 8,1.33333333 Z M8,7.66666667 C7.08,7.66666667 6.33333333,6.92 6.33333333,6 C6.33333333,5.08 7.08,4.33333333 8,4.33333333 C8.92,4.33333333 9.66666667,5.08 9.66666667,6 C9.66666667,6.92 8.92,7.66666667 8,7.66666667 Z" fill="#868686" fill-rule="nonzero"></path>
                </g>
            </g>
            <g id="baseline-location_on-24px-(5)" transform="translate(45.000000, 37.000000)">
                <g transform="translate(4.000000, 4.000000)" id="Shape">
                    <polygon points="0 0 16 0 16 16 0 16"></polygon>
                    <path d="M8,1.33333333 C5.42,1.33333333 3.33333333,3.42 3.33333333,6 C3.33333333,9.5 8,14.6666667 8,14.6666667 C8,14.6666667 12.6666667,9.5 12.6666667,6 C12.6666667,3.42 10.58,1.33333333 8,1.33333333 Z M8,7.66666667 C7.08,7.66666667 6.33333333,6.92 6.33333333,6 C6.33333333,5.08 7.08,4.33333333 8,4.33333333 C8.92,4.33333333 9.66666667,5.08 9.66666667,6 C9.66666667,6.92 8.92,7.66666667 8,7.66666667 Z" fill="#868686" fill-rule="nonzero"></path>
                </g>
            </g>
            <g id="baseline-location_on-24px-(5)" transform="translate(37.000000, 0.000000)">
                <g transform="translate(4.000000, 4.000000)" id="Shape">
                    <polygon points="0 0 16 0 16 16 0 16"></polygon>
                    <path d="M8,1.33333333 C5.42,1.33333333 3.33333333,3.42 3.33333333,6 C3.33333333,9.5 8,14.6666667 8,14.6666667 C8,14.6666667 12.6666667,9.5 12.6666667,6 C12.6666667,3.42 10.58,1.33333333 8,1.33333333 Z M8,7.66666667 C7.08,7.66666667 6.33333333,6.92 6.33333333,6 C6.33333333,5.08 7.08,4.33333333 8,4.33333333 C8.92,4.33333333 9.66666667,5.08 9.66666667,6 C9.66666667,6.92 8.92,7.66666667 8,7.66666667 Z" fill="#868686" fill-rule="nonzero"></path>
                </g>
            </g>
            <g id="baseline-location_on-24px-(5)" transform="translate(59.000000, 9.000000)">
                <g transform="translate(4.000000, 4.000000)" id="Shape">
                    <polygon points="0 0 16 0 16 16 0 16"></polygon>
                    <path d="M8,1.33333333 C5.42,1.33333333 3.33333333,3.42 3.33333333,6 C3.33333333,9.5 8,14.6666667 8,14.6666667 C8,14.6666667 12.6666667,9.5 12.6666667,6 C12.6666667,3.42 10.58,1.33333333 8,1.33333333 Z M8,7.66666667 C7.08,7.66666667 6.33333333,6.92 6.33333333,6 C6.33333333,5.08 7.08,4.33333333 8,4.33333333 C8.92,4.33333333 9.66666667,5.08 9.66666667,6 C9.66666667,6.92 8.92,7.66666667 8,7.66666667 Z" fill="#868686" fill-rule="nonzero"></path>
                </g>
            </g>
        </g>
    </g>
</svg>