<?xml version="1.0" encoding="UTF-8"?>
<svg width="71px" height="26px" viewBox="0 0 71 26" version="1.1" xmlns="http://www.w3.org/2000/svg" xmlns:xlink="http://www.w3.org/1999/xlink">
    <!-- Generator: Sketch 51.3 (57544) - http://www.bohemiancoding.com/sketch -->
    <title>Artboard 10</title>
    <desc>Created with Sketch.</desc>
    <defs></defs>
    <g id="Artboard-10" stroke="none" stroke-width="1" fill="none" fill-rule="evenodd">
        <g id="sk_65">
            <g id="baseline-location_on-24px-(5)" transform="translate(12.000000, 10.000000)">
                <g id="Shape">
                    <polygon points="0 0 16 0 16 16 0 16"></polygon>
                    <path d="M7.66666667,1 C5.08666667,1 3,3.08666667 3,5.66666667 C3,9.16666667 7.66666667,14.3333334 7.66666667,14.3333334 C7.66666667,14.3333334 12.3333334,9.16666667 12.3333334,5.66666667 C12.3333334,3.08666667 10.2466667,1 7.66666667,1 Z M7.66666667,7.33333334 C6.74666667,7.33333334 6,6.58666667 6,5.66666667 C6,4.74666667 6.74666667,4 7.66666667,4 C8.58666667,4 9.33333334,4.74666667 9.33333334,5.66666667 C9.33333334,6.58666667 8.58666667,7.33333334 7.66666667,7.33333334 Z" fill="#868686" fill-rule="nonzero"></path>
                </g>
            </g>
            <g id="baseline-location_on-24px-(5)" transform="translate(20.000000, 0.000000)">
                <g id="Shape">
                    <polygon points="0 0 16 0 16 16 0 16"></polygon>
                    <path d="M8,1.33333333 C5.42,1.33333333 3.33333333,3.42 3.33333333,6 C3.33333333,9.5 8,14.6666667 8,14.6666667 C8,14.6666667 12.6666667,9.5 12.6666667,6 C12.6666667,3.42 10.58,1.33333333 8,1.33333333 Z M8,7.66666667 C7.08,7.66666667 6.33333333,6.92 6.33333333,6 C6.33333333,5.08 7.08,4.33333333 8,4.33333333 C8.92,4.33333333 9.66666667,5.08 9.66666667,6 C9.66666667,6.92 8.92,7.66666667 8,7.66666667 Z" fill="#868686" fill-rule="nonzero"></path>
                </g>
            </g>
            <g id="baseline-location_on-24px-(5)" transform="translate(32.000000, 2.000000)">
                <g id="Shape">
                    <polygon points="0 0 16 0 16 16 0 16"></polygon>
                    <path d="M8,1.33333333 C5.42,1.33333333 3.33333333,3.42 3.33333333,6 C3.33333333,9.5 8,14.6666667 8,14.6666667 C8,14.6666667 12.6666667,9.5 12.6666667,6 C12.6666667,3.42 10.58,1.33333333 8,1.33333333 Z M8,7.66666667 C7.08,7.66666667 6.33333333,6.92 6.33333333,6 C6.33333333,5.08 7.08,4.33333333 8,4.33333333 C8.92,4.33333333 9.66666667,5.08 9.66666667,6 C9.66666667,6.92 8.92,7.66666667 8,7.66666667 Z" fill="#868686" fill-rule="nonzero"></path>
                </g>
            </g>
            <g id="baseline-location_on-24px-(5)" transform="translate(0.000000, 8.000000)">
                <g id="Shape">
                    <polygon points="0 0 16 0 16 16 0 16"></polygon>
                    <path d="M8,1.33333333 C5.42,1.33333333 3.33333333,3.42 3.33333333,6 C3.33333333,9.5 8,14.6666667 8,14.6666667 C8,14.6666667 12.6666667,9.5 12.6666667,6 C12.6666667,3.42 10.58,1.33333333 8,1.33333333 Z M8,7.66666667 C7.08,7.66666667 6.33333333,6.92 6.33333333,6 C6.33333333,5.08 7.08,4.33333333 8,4.33333333 C8.92,4.33333333 9.66666667,5.08 9.66666667,6 C9.66666667,6.92 8.92,7.66666667 8,7.66666667 Z" fill="#868686" fill-rule="nonzero"></path>
                </g>
            </g>
            <g id="baseline-location_on-24px-(5)" transform="translate(55.000000, 0.000000)">
                <g id="Shape">
                    <polygon points="0 0 16 0 16 16 0 16"></polygon>
                    <path d="M8,1.33333333 C5.42,1.33333333 3.33333333,3.42 3.33333333,6 C3.33333333,9.5 8,14.6666667 8,14.6666667 C8,14.6666667 12.6666667,9.5 12.6666667,6 C12.6666667,3.42 10.58,1.33333333 8,1.33333333 Z M8,7.66666667 C7.08,7.66666667 6.33333333,6.92 6.33333333,6 C6.33333333,5.08 7.08,4.33333333 8,4.33333333 C8.92,4.33333333 9.66666667,5.08 9.66666667,6 C9.66666667,6.92 8.92,7.66666667 8,7.66666667 Z" fill="#868686" fill-rule="nonzero"></path>
                </g>
            </g>
        </g>
    </g>
</svg>