<?xml version="1.0" encoding="UTF-8" standalone="no"?>
<svg
   xmlns:dc="http://purl.org/dc/elements/1.1/"
   xmlns:cc="http://creativecommons.org/ns#"
   xmlns:rdf="http://www.w3.org/1999/02/22-rdf-syntax-ns#"
   xmlns:svg="http://www.w3.org/2000/svg"
   xmlns="http://www.w3.org/2000/svg"
   xmlns:sodipodi="http://sodipodi.sourceforge.net/DTD/sodipodi-0.dtd"
   xmlns:inkscape="http://www.inkscape.org/namespaces/inkscape"
   width="178px"
   height="131px"
   viewBox="0 0 178 131"
   version="1.1"
   id="svg57"
   sodipodi:docname="tr.svg"
   inkscape:version="0.92.3 (2405546, 2018-03-11)">
  <metadata
     id="metadata61">
    <rdf:RDF>
      <cc:Work
         rdf:about="">
        <dc:format>image/svg+xml</dc:format>
        <dc:type
           rdf:resource="http://purl.org/dc/dcmitype/StillImage" />
      </cc:Work>
    </rdf:RDF>
  </metadata>
  <sodipodi:namedview
     pagecolor="#ffffff"
     bordercolor="#666666"
     borderopacity="1"
     objecttolerance="10"
     gridtolerance="10"
     guidetolerance="10"
     inkscape:pageopacity="0"
     inkscape:pageshadow="2"
     inkscape:window-width="1870"
     inkscape:window-height="1051"
     id="namedview59"
     showgrid="false"
     inkscape:zoom="1.8015267"
     inkscape:cx="89"
     inkscape:cy="65.5"
     inkscape:window-x="1970"
     inkscape:window-y="0"
     inkscape:window-maximized="1"
     inkscape:current-layer="svg57" />
  <!-- Generator: Sketch 51.3 (57544) - http://www.bohemiancoding.com/sketch -->
  <title
     id="title2">tr_7</title>
  <desc
     id="desc4">Created with Sketch.</desc>
  <defs
     id="defs6" />
  <g
     style="fill:none;fill-rule:evenodd;stroke:none;stroke-width:1"
     transform="translate(1.0211864,56.419491)"
     id="TR_7">
    <g
       transform="translate(8,34)"
       id="baseline-location_on-24px-(5)">
      <g
         id="Shape"
         transform="translate(4,4)">
        <polygon
           id="polygon8"
           points="0,0 16,0 16,16 0,16 " />
        <path
           style="fill:#868686;fill-rule:nonzero"
           inkscape:connector-curvature="0"
           id="path10"
           d="M 8,1.3333333 C 5.42,1.3333333 3.3333333,3.42 3.3333333,6 3.3333333,9.5 8,14.666667 8,14.666667 8,14.666667 12.666667,9.5 12.666667,6 12.666667,3.42 10.58,1.3333333 8,1.3333333 Z M 8,7.6666667 C 7.08,7.6666667 6.3333333,6.92 6.3333333,6 6.3333333,5.08 7.08,4.3333333 8,4.3333333 8.92,4.3333333 9.6666667,5.08 9.6666667,6 9.6666667,6.92 8.92,7.6666667 8,7.6666667 Z" />
      </g>
    </g>
    <g
       transform="translate(11,12)"
       id="g20">
      <g
         id="g18"
         transform="translate(4,4)">
        <polygon
           id="polygon14"
           points="0,0 16,0 16,16 0,16 " />
        <path
           style="fill:#868686;fill-rule:nonzero"
           inkscape:connector-curvature="0"
           id="path16"
           d="M 8,1.3333333 C 5.42,1.3333333 3.3333333,3.42 3.3333333,6 3.3333333,9.5 8,14.666667 8,14.666667 8,14.666667 12.666667,9.5 12.666667,6 12.666667,3.42 10.58,1.3333333 8,1.3333333 Z M 8,7.6666667 C 7.08,7.6666667 6.3333333,6.92 6.3333333,6 6.3333333,5.08 7.08,4.3333333 8,4.3333333 8.92,4.3333333 9.6666667,5.08 9.6666667,6 9.6666667,6.92 8.92,7.6666667 8,7.6666667 Z" />
      </g>
    </g>
    <g
       id="g28">
      <g
         id="g26"
         transform="translate(4,4)">
        <polygon
           id="polygon22"
           points="0,0 16,0 16,16 0,16 " />
        <path
           style="fill:#868686;fill-rule:nonzero"
           inkscape:connector-curvature="0"
           id="path24"
           d="M 8,1.3333333 C 5.42,1.3333333 3.3333333,3.42 3.3333333,6 3.3333333,9.5 8,14.666667 8,14.666667 8,14.666667 12.666667,9.5 12.666667,6 12.666667,3.42 10.58,1.3333333 8,1.3333333 Z M 8,7.6666667 C 7.08,7.6666667 6.3333333,6.92 6.3333333,6 6.3333333,5.08 7.08,4.3333333 8,4.3333333 8.92,4.3333333 9.6666667,5.08 9.6666667,6 9.6666667,6.92 8.92,7.6666667 8,7.6666667 Z" />
      </g>
    </g>
    <g
       transform="translate(42,54)"
       id="g36">
      <g
         id="g34"
         transform="translate(4,4)">
        <polygon
           id="polygon30"
           points="0,0 16,0 16,16 0,16 " />
        <path
           style="fill:#868686;fill-rule:nonzero"
           inkscape:connector-curvature="0"
           id="path32"
           d="M 8,1.3333333 C 5.42,1.3333333 3.3333333,3.42 3.3333333,6 3.3333333,9.5 8,14.666667 8,14.666667 8,14.666667 12.666667,9.5 12.666667,6 12.666667,3.42 10.58,1.3333333 8,1.3333333 Z M 8,7.6666667 C 7.08,7.6666667 6.3333333,6.92 6.3333333,6 6.3333333,5.08 7.08,4.3333333 8,4.3333333 8.92,4.3333333 9.6666667,5.08 9.6666667,6 9.6666667,6.92 8.92,7.6666667 8,7.6666667 Z" />
      </g>
    </g>
    <g
       transform="translate(54,42)"
       id="g44">
      <g
         id="g42"
         transform="translate(4,4)">
        <polygon
           id="polygon38"
           points="0,0 16,0 16,16 0,16 " />
        <path
           style="fill:#868686;fill-rule:nonzero"
           inkscape:connector-curvature="0"
           id="path40"
           d="M 8,1.3333333 C 5.42,1.3333333 3.3333333,3.42 3.3333333,6 3.3333333,9.5 8,14.666667 8,14.666667 8,14.666667 12.666667,9.5 12.666667,6 12.666667,3.42 10.58,1.3333333 8,1.3333333 Z M 8,7.6666667 C 7.08,7.6666667 6.3333333,6.92 6.3333333,6 6.3333333,5.08 7.08,4.3333333 8,4.3333333 8.92,4.3333333 9.6666667,5.08 9.6666667,6 9.6666667,6.92 8.92,7.6666667 8,7.6666667 Z" />
      </g>
    </g>
    <g
       transform="translate(25,44)"
       id="g52">
      <g
         id="g50"
         transform="translate(4,4)">
        <polygon
           id="polygon46"
           points="0,0 16,0 16,16 0,16 " />
        <path
           style="fill:#868686;fill-rule:nonzero"
           inkscape:connector-curvature="0"
           id="path48"
           d="M 8,1.3333333 C 5.42,1.3333333 3.3333333,3.42 3.3333333,6 3.3333333,9.5 8,14.666667 8,14.666667 8,14.666667 12.666667,9.5 12.666667,6 12.666667,3.42 10.58,1.3333333 8,1.3333333 Z M 8,7.6666667 C 7.08,7.6666667 6.3333333,6.92 6.3333333,6 6.3333333,5.08 7.08,4.3333333 8,4.3333333 8.92,4.3333333 9.6666667,5.08 9.6666667,6 9.6666667,6.92 8.92,7.6666667 8,7.6666667 Z" />
      </g>
    </g>
  </g>
  <rect
     style="opacity:0;fill:#d8d8d8;fill-rule:evenodd;stroke:none;stroke-width:1"
     height="131"
     width="178"
     y="0"
     x="0"
     id="Rectangle-39" />
</svg>
