<svg width="14" height="14" viewBox="0 0 14 14" fill="none" xmlns="http://www.w3.org/2000/svg">
<path d="M14 4V11.5C14 12.8255 12.9685 13.91 11.6644 13.9947L11.5 14H2.5C1.17452 14 0.0899613 12.9685 0.00531769 11.6644L0 11.5V4H14ZM8.51641 5.23438C7.98516 5.23438 7.56328 5.3763 7.25078 5.66016C6.93828 5.94401 6.78203 6.32812 6.78203 6.8125C6.78203 7.09115 6.85299 7.33919 6.99492 7.55664C7.13685 7.77409 7.33021 7.94531 7.575 8.07031C7.28333 8.20052 7.05677 8.38672 6.89531 8.62891C6.73385 8.87109 6.65312 9.14453 6.65312 9.44922C6.65312 9.94661 6.82305 10.3424 7.16289 10.6367C7.50273 10.931 7.95521 11.0781 8.52031 11.0781C9.08281 11.0781 9.53333 10.9316 9.87187 10.6387C10.2104 10.3457 10.3797 9.94922 10.3797 9.44922C10.3797 9.14714 10.2996 8.8763 10.1395 8.63672C9.9793 8.39714 9.75078 8.20833 9.45391 8.07031C9.7013 7.94531 9.89661 7.77409 10.0398 7.55664C10.1831 7.33919 10.2547 7.09115 10.2547 6.8125C10.2547 6.32812 10.0984 5.94401 9.78594 5.66016C9.47344 5.3763 9.05026 5.23438 8.51641 5.23438ZM5.49609 5.29297H5.375L3.15625 6.10938V6.91016L4.55078 6.43359V11H5.49609V5.29297ZM8.5125 8.46094C8.78854 8.46094 9.01055 8.54753 9.17852 8.7207C9.34648 8.89388 9.43047 9.12109 9.43047 9.40234C9.43047 9.69141 9.35039 9.91667 9.19023 10.0781C9.03008 10.2396 8.80677 10.3203 8.52031 10.3203C8.23385 10.3203 8.00924 10.237 7.84648 10.0703C7.68372 9.90365 7.60234 9.68099 7.60234 9.40234C7.60234 9.11849 7.68503 8.89062 7.85039 8.71875C8.01575 8.54688 8.23646 8.46094 8.5125 8.46094ZM8.51641 5.99609C8.75859 5.99609 8.9513 6.07617 9.09453 6.23633C9.23776 6.39648 9.30937 6.60026 9.30937 6.84766C9.30937 7.10807 9.23841 7.3151 9.09648 7.46875C8.95456 7.6224 8.7625 7.69922 8.52031 7.69922C8.27812 7.69922 8.08607 7.6224 7.94414 7.46875C7.80221 7.3151 7.73125 7.10807 7.73125 6.84766C7.73125 6.58464 7.80156 6.37695 7.94219 6.22461C8.08281 6.07227 8.27422 5.99609 8.51641 5.99609ZM11.5 0C12.8255 0 13.91 1.03154 13.9947 2.33562L14 2.5V3H0V2.5C0 1.17452 1.03154 0.0899613 2.33562 0.00531769L2.5 0H11.5Z" fill="#9AAFCB"/>
</svg>
