<svg width="12" height="16" viewBox="0 0 12 16" fill="none" xmlns="http://www.w3.org/2000/svg">
<path d="M4.5 0C3.84689 0 3.29127 0.417403 3.08535 1H1.5C0.671573 1 0 1.67157 0 2.5V14.5C0 15.3284 0.671573 16 1.5 16H10.5C11.3284 16 12 15.3284 12 14.5V2.5C12 1.67157 11.3284 1 10.5 1H8.91465C8.70873 0.417404 8.15311 0 7.5 0H4.5ZM7.5 1C7.77614 1 8 1.22386 8 1.5C8 1.77614 7.77614 2 7.5 2H4.5C4.22386 2 4 1.77614 4 1.5C4 1.22386 4.22386 1 4.5 1H7.5ZM2.5 6H9.5C9.77614 6 10 6.22386 10 6.5C10 6.77614 9.77614 7 9.5 7H2.5C2.22386 7 2 6.77614 2 6.5C2 6.22386 2.22386 6 2.5 6ZM2.5 9H5.5C5.77614 9 6 9.22386 6 9.5C6 9.77614 5.77614 10 5.5 10H2.5C2.22386 10 2 9.77614 2 9.5C2 9.22386 2.22386 9 2.5 9ZM2 12.5C2 12.2239 2.22386 12 2.5 12H7.5C7.77614 12 8 12.2239 8 12.5C8 12.7761 7.77614 13 7.5 13H2.5C2.22386 13 2 12.7761 2 12.5Z" fill="#9AAFCB"/>
</svg>
