<svg width="12" height="16" viewBox="0 0 12 16" fill="none" xmlns="http://www.w3.org/2000/svg">
<path d="M12 6C12 9.31371 9.31371 12 6 12C2.68629 12 0 9.31371 0 6C0 2.68629 2.68629 0 6 0C9.31371 0 12 2.68629 12 6ZM6 12.9998C7.48725 12.9998 8.86617 12.536 10 11.7451V15.4998C10 15.6871 9.89533 15.8587 9.72879 15.9444C9.56226 16.0301 9.36179 16.0155 9.20938 15.9067L6 13.9998L2.79062 15.9067C2.63821 16.0155 2.43774 16.0301 2.27121 15.9444C2.10467 15.8587 2 15.6871 2 15.4998V11.7451C3.13383 12.536 4.51275 12.9998 6 12.9998Z" fill="#9AAFCB"/>
</svg>
