<svg width="31" height="36" viewBox="0 0 31 36" fill="none" xmlns="http://www.w3.org/2000/svg">
<path d="M29.25 14.2496C30.1682 14.2496 30.9212 14.9567 30.9942 15.856L31 15.9996V30.2496C31 33.3514 28.544 35.8795 25.4706 35.9954L25.25 35.9996H5.75C2.64821 35.9996 0.120063 33.5436 0.0041523 30.4701L0 30.2496V15.9996C0 15.0331 0.783502 14.2496 1.75 14.2496C2.66817 14.2496 3.42119 14.9567 3.4942 15.856L3.5 15.9996V30.2496C3.5 31.4404 4.42516 32.4152 5.59595 32.4944L5.75 32.4996H25.25C26.4409 32.4996 27.4156 31.5744 27.4948 30.4036L27.5 30.2496V15.9996C27.5 15.0331 28.2835 14.2496 29.25 14.2496ZM14.9989 0.267455L15.1478 0.252553L15.3225 0.250977L15.477 0.263986L15.6549 0.296248L15.7239 0.314499C15.9192 0.368418 16.1069 0.457372 16.2774 0.58084L16.3969 0.675862L16.4898 0.762139L24.268 8.54031C24.9514 9.22373 24.9514 10.3318 24.268 11.0152C23.6248 11.6584 22.6054 11.6962 21.918 11.1287L21.7931 11.0152L17 6.22158V25.4996C17 26.4177 16.2929 27.1708 15.3935 27.2438L15.25 27.2496C14.3318 27.2496 13.5788 26.5425 13.5058 25.6431L13.5 25.4996V6.22558L8.71165 11.0152C8.06843 11.6584 7.04908 11.6962 6.36162 11.1287L6.23678 11.0152C5.59356 10.372 5.55572 9.35262 6.12327 8.66515L6.23678 8.54031L13.9888 0.78636C14.0447 0.728289 14.1045 0.674068 14.1679 0.624134L14.2812 0.543368C14.319 0.516815 14.3584 0.492698 14.3989 0.470139L14.4177 0.460961C14.5947 0.363796 14.7909 0.297339 14.9989 0.267455Z" fill="#B3B3B3"/>
</svg>
