<svg width="16" height="16" viewBox="0 0 16 16" fill="none" xmlns="http://www.w3.org/2000/svg">
<path d="M0.853553 0.146447C0.658291 -0.0488155 0.341709 -0.0488155 0.146447 0.146447C-0.0488155 0.341709 -0.0488155 0.658291 0.146447 0.853553L3.64526 4.35237C1.97039 5.49178 0.723337 7.27383 0.280114 9.39787C0.223706 9.66819 0.397116 9.93305 0.667436 9.98946C0.937755 10.0459 1.20262 9.87246 1.25903 9.60214C1.66284 7.66698 2.82362 6.06289 4.3671 5.07421L5.94894 6.65604C5.06509 7.29133 4.48947 8.32844 4.48947 9.5C4.48947 11.433 6.05647 13 7.98947 13C9.16103 13 10.1981 12.4244 10.8334 11.5405L15.1464 15.8536C15.3417 16.0488 15.6583 16.0488 15.8536 15.8536C16.0488 15.6583 16.0488 15.3417 15.8536 15.1464L0.853553 0.146447ZM8.12378 6.00253L11.4869 9.36569C11.418 7.5395 9.94997 6.07143 8.12378 6.00253ZM5.53104 3.4098L6.3341 4.21286C6.87141 4.07353 7.43009 4 7.99995 4C11.2056 4 14.0574 6.32688 14.7409 9.60215C14.7973 9.87246 15.0622 10.0459 15.3325 9.98946C15.6028 9.93304 15.7762 9.66817 15.7198 9.39786C14.9425 5.67312 11.6934 3 7.99995 3C7.14478 3 6.31342 3.14331 5.53104 3.4098Z" fill="#212121"/>
</svg>
