<svg width="285" height="338" viewBox="0 0 285 338" fill="none" xmlns="http://www.w3.org/2000/svg">
<path d="M63.5092 29.6091C65.1574 26.7229 66.4921 24.0442 67.513 21.573C68.7492 19.4084 68.2202 19.3095 66.3012 17.8856C59.6031 14.2367 53.6307 9.65877 48.2857 4.6657C47.1109 3.64731 46.5634 2.21377 45.6039 1.50184C44.5275 -0.0305804 43.6848 0.0780407 42.6454 1.21465C40.3513 3.18141 38.0572 5.14826 36.4089 8.03447C34.2502 12.1563 31.5625 16.1791 27.2694 18.5706C25.3873 19.8158 25.2889 20.3297 26.4822 22.6826C27.6755 25.0356 28.8688 27.3885 30.1605 29.2274C30.591 29.8404 31.3353 30.2457 30.8248 31.4813C28.9058 30.0574 26.6731 28.8412 25.0677 27.2098C22.2876 24.5601 20.8176 25.0838 18.6404 27.871C16.6784 30.9648 15.5592 33.95 14.1261 37.1427C12.81 41.1559 11.1801 45.3766 7.10235 48.0745C5.84765 48.9046 6.17991 50.0317 7.13942 50.7436C9.48902 52.7805 11.3096 54.7182 14.2866 56.3399C17.4788 58.2682 20.671 60.1964 23.4512 62.8461C22.3933 62.6482 21.3354 62.4504 20.5912 62.045C15.7137 60.3339 10.7376 59.1368 5.95853 56.9117C3.9411 56.0019 3.62752 56.2096 2.39132 58.3743C1.0752 62.3875 0.816992 66.5984 1.08776 70.9085C1.14321 74.9121 2.04137 78.8071 2.6258 82.9096C4.00993 91.4211 3.80718 99.6357 2.44813 108.167C1.69796 114.948 1.26145 121.521 1.88285 128.293C2.23351 130.755 2.89775 133.008 4.09104 135.361C5.28433 137.714 6.47764 140.067 7.45565 142.114C8.21837 143.854 9.39316 144.872 10.98 145.169C16.1712 146.672 21.4792 148.996 26.2583 151.221C29.0199 152.537 31.2527 153.753 33.916 155.582C32.1323 156.313 30.8591 155.809 29.2723 155.512C22.9248 154.325 16.6943 153.958 10.679 153.898C7.93581 153.917 7.62199 154.124 7.65897 156.793C7.76991 164.8 8.50824 172.392 10.8334 180.281C12.0637 185.303 12.765 190.226 13.3679 195.663C14.5183 202.534 16.296 208.989 19.23 215.129C20.5402 218.302 22.5762 220.547 24.8274 223.097C26.4327 224.729 28.0195 225.025 30.5474 224.7C38.4447 223.515 46.8712 222.429 54.9039 223.399C55.4329 223.498 55.7465 223.291 55.9617 223.597C55.765 224.625 55.2359 224.526 54.707 224.427C47.7691 226.324 41.145 228.013 34.5393 231.037C33.9119 231.452 33.383 231.353 32.7557 231.768C31.1873 232.806 30.6769 234.041 32.067 235.366C33.8877 237.304 35.8067 238.728 37.6273 240.666C44.4608 246.47 50.0396 253.104 54.579 260.875C57.064 265.066 59.5488 269.258 62.6612 273.035C67.2804 278.957 72.9392 283.743 79.951 287.184C86.9628 290.625 94.7004 293.138 102.223 295.343C106.356 296.649 110.077 298.676 113.897 300.189C119.635 303.126 124.962 306.785 130.387 309.929C136.341 313.173 142.294 316.416 149.054 316.882C153.384 317.16 157.714 317.437 161.81 316.074L162.124 315.866C165.987 312.862 169.492 314.582 173.214 316.61C179.696 319.952 186.807 322.879 193.8 324.986C204.927 328.399 215.936 330.991 227.358 332.861C237.408 334.741 247.557 336.107 258.117 336.752C264.877 337.217 271.95 337.476 279.023 337.734C280.395 337.725 281.766 337.715 283.021 336.885C284.276 336.055 285.002 335.125 284.768 333.484C284.534 331.843 283.888 330.924 282.4 330.113C280.911 329.302 279.54 329.312 277.854 329.529C273.211 329.459 268.567 329.389 264.237 329.111C257.908 329.259 251.874 327.864 245.644 327.497C234.339 326.447 223.231 324.369 212.436 322.083C201.113 319.699 190.3 316.079 179.684 311.431C177.667 310.521 175.864 309.918 173.847 309.008C171.829 308.098 171.928 307.584 173.066 305.934C174.105 304.797 175.458 303.453 175.969 302.217C180.286 293.974 181.86 285.749 178.674 276.634C176.915 271.514 174.43 267.322 172.044 262.616C170.303 258.83 168.347 254.737 168.605 250.526C168.666 247.342 168.728 244.159 169.005 241.283C170.327 230.083 167.023 220.148 162.035 210.429C160.196 207.157 157.729 204.3 156.204 200.82C154.795 198.16 153.602 195.808 152.193 193.148C150.57 190.182 149.512 189.984 147.119 192.465C140.04 199.393 133.176 206.628 125.568 213.458C125.863 211.916 126.275 211.194 126.687 210.472C132.278 202.733 137.869 194.994 143.459 187.255C145.323 184.675 145.108 184.369 142.543 182.025C137.844 177.952 132.732 174.6 129.073 169.39C127.781 167.551 126.938 167.659 125.272 169.211C123.605 170.763 122.153 172.621 121.015 174.271C117.288 179.431 113.66 184.076 109.619 189.443C109.385 187.802 110.111 186.873 110.621 185.638C114.625 177.602 118.53 170.08 122.005 161.945C122.614 160.195 122.694 158.346 122.46 156.705C121.328 151.169 118.099 146.572 114.458 142.697C112.637 140.759 111.13 138.613 109.937 136.26C107.667 132.375 108.651 127.235 112.416 124.744C119.101 119.872 120.909 113.289 119.74 105.084C118.104 93.5967 112.9 83.5722 107.167 73.4486C104.135 67.8233 100.475 62.6131 98.2856 56.8792C96.8585 52.8853 96.274 48.7826 95.3759 44.8876C93.4628 36.2772 88.0994 29.9497 79.716 26.518C77.4833 25.3017 75.1522 24.5994 72.9194 23.3831C70.6867 22.1668 70.1577 22.0677 68.9215 24.2324C67.47 26.0906 66.2339 28.2553 64.5671 29.807C64.9792 29.0855 64.3518 29.5005 63.5092 29.6091Z" fill="#65BD83"/>
</svg>
