<svg width="441" height="401" viewBox="0 0 441 401" fill="none" xmlns="http://www.w3.org/2000/svg">
<path d="M293.625 77.3467C292.517 76.5974 291.151 75.5125 290.378 74.5057C288.161 73.0071 286.023 70.9153 283.806 69.4168C279.966 66.4977 277.468 62.5484 275.642 58.084C274.69 56.1484 274.073 53.9551 273.714 52.0975C272.223 47.3755 273.698 43.0439 277.21 39.2819C282.736 33.9746 287.926 28.9246 293.451 23.6173C298.306 18.8251 303.082 14.626 309.225 11.5119C311.496 10.3021 314.025 9.42797 316.218 8.81138C318.411 8.19479 320.862 7.91392 322.743 9.67004C323.594 10.0837 324.187 10.1616 324.78 10.2397C328.417 10.1148 330.891 11.949 333.287 14.3763C338.002 19.8242 340.858 25.631 342.966 32.5462C345.331 39.797 347.361 47.3055 349.39 54.8139C350.366 58.8647 351.342 62.9154 353.246 66.7867C353.683 68.0511 353.27 68.9018 352.083 68.7457C350.561 68.8472 348.782 68.6131 347.338 68.1214C346.152 67.9653 344.965 67.8092 343.365 68.5038C344.473 69.2531 345.66 69.409 346.51 69.8227C349.141 70.4705 352.029 71.454 354.245 72.9525C355.611 74.0374 356.384 75.0444 356.743 76.902C357.844 84.5898 357.422 92.3791 357.001 100.168C356.58 107.958 355.308 115.334 354.294 123.045C353.49 126.861 352.093 130.6 351.289 134.417C350.15 138.491 349.01 142.565 349.315 147.131C349.338 149.246 349.362 151.361 349.721 153.219C350.08 155.076 349.51 157.113 349.534 159.228C349.635 160.75 348.371 161.187 346.849 161.289C342.876 161.671 339.06 160.867 335.165 160.657C334.572 160.579 333.386 160.423 332.457 160.602C334.416 161.765 336.453 162.335 338.826 162.647C341.198 162.959 343.571 163.271 345.866 164.177C347.903 164.747 348.418 165.418 347.513 167.712C346.685 169.414 345.858 171.115 345.031 172.817C343.298 176.813 342.416 181.223 341.87 185.375C339.303 198.011 334.776 209.484 327.62 220.31C326.121 222.526 325.45 223.042 322.562 222.058C321.118 221.567 319.417 220.739 317.973 220.248C315.936 219.678 314.156 219.444 311.706 219.725C307.397 220.365 302.574 220.333 298.086 220.044C296.9 219.888 295.713 219.732 294.707 220.505C295.401 222.105 297.181 222.339 297.953 223.346C299.499 225.36 301.302 227.709 302.176 230.238C303.386 232.509 304.596 234.78 306.141 236.794C307.687 238.808 307.687 238.808 305.931 240.689C300.74 245.738 296.401 251.202 293.685 258.086C292.288 261.824 290.376 264.892 288.129 268.217C286.966 270.176 285.545 271.799 283.867 273.087C280.433 276.256 276.406 279.346 271.942 281.173C265.284 283.616 258.369 285.723 251.969 288.502C248.434 290.148 244.82 292.388 241.542 294.371C237.928 296.611 234.315 298.851 230.701 301.091C225.745 304.361 219.993 304.51 214.889 302.028C212.594 301.122 211.329 301.559 209.651 302.847C204.282 306.968 198.912 311.089 193.285 314.874C183.709 321.157 173.953 326.511 163.346 331.452C156.611 334.488 149.282 337.446 142.289 340.147C131.503 344.159 120.459 347.835 109.313 349.989C103.405 351.323 97.2394 352.322 90.738 353.579C88.8804 353.938 87.0229 354.297 85.2434 354.063C84.9078 354.32 84.6503 353.985 84.3147 354.242C81.942 353.93 79.9829 352.767 79.7019 350.316C79.3427 348.459 80.5057 346.5 83.0344 345.626C85.2276 345.009 87.4206 344.392 89.8713 344.111C99.7522 342.394 109.376 340.342 118.741 337.953C124.056 336.541 129.707 334.871 135.1 332.865C140.829 330.601 146.815 328.673 152.286 326.074C161.215 322.422 169.964 317.84 178.378 313.516C186.791 309.192 194.768 303.604 202.744 298.016C204.758 296.47 204.758 296.47 203.883 293.941C202.315 289.813 201.417 285.169 202.299 280.759C203.415 274.57 202.673 268.739 201.931 262.909C201.19 257.079 201.634 251.405 203.008 245.551C203.812 241.734 204.951 237.66 206.605 234.257C207.355 233.149 206.918 231.884 207.667 230.776C207.823 229.59 208.752 229.41 209.267 230.082C210.992 233.024 214.215 233.75 217.103 234.733C222.801 237.293 228.498 239.853 234.196 242.413C231.542 239.65 228.811 237.481 225.486 235.233C222.418 233.321 219.429 230.815 216.697 228.645C214.816 226.889 213.528 225.211 212.318 222.94C211.624 221.34 211.522 219.818 211.756 218.038C213.543 211.334 215.666 204.372 218.897 198.159C220.473 195.349 222.901 192.953 224.735 190.479C226.155 188.856 227.24 187.49 227.81 185.453C227.888 184.86 227.966 184.266 228.301 184.009C228.715 183.158 229.308 183.236 229.823 183.907C231.135 187.701 234.717 190.284 237.035 193.305C240.641 198.003 245.746 200.485 250.515 203.225C249.898 201.032 248.017 199.275 246.472 197.262C244.075 194.834 242.608 192.228 241.141 189.621C238.464 184.743 236.379 179.942 232.695 175.837C231.15 173.823 231.126 171.708 232.032 169.414C233.273 166.861 233.92 164.231 235.161 161.679C237.979 156.317 238.423 150.643 238.61 144.633C238.743 141.331 239.133 138.366 238.673 134.986C238.368 130.42 240.101 126.424 242.426 122.506C244.83 117.995 247.156 114.077 249.302 109.23C251.448 104.383 253.001 99.4579 253.703 94.1193C254.975 86.7437 255.912 79.6256 258.035 72.6636C259.252 67.9963 261.242 64.3358 263.903 60.1601C263.981 59.567 264.653 59.0517 264.988 58.7942C266.073 57.4283 266.924 57.8419 267.618 59.442C269.109 64.164 271.763 66.927 276.274 69.331C279.935 71.3212 283.674 72.7184 287.412 74.1154C288.778 75.2003 290.995 76.6989 293.625 77.3467Z" fill="#65BD83"/>
</svg>
