<svg width="384" height="280" viewBox="0 0 384 200" fill="none" xmlns="http://www.w3.org/2000/svg">
<path d="M312.826 163.825C312.089 162.711 312.278 161.785 312.004 160.765C312.504 151.225 310.037 142.044 308.591 132.589C307.958 128.603 306.862 124.523 305.672 120.905C304.755 118.308 305.227 115.994 304.311 113.396C304.037 112.376 304.32 110.988 302.374 111.073C300.429 111.158 299.22 112.358 299.305 114.303C299.938 118.289 299.646 122.086 301.299 125.798C306.438 138.417 306.203 151.386 303.002 164.714C302.53 167.028 301.595 169.247 300.197 171.373C300.103 171.836 299.451 172.667 298.525 172.478C297.6 172.289 297.789 171.363 297.977 170.438C299.753 166.461 299.583 162.57 299.412 158.678C299.336 154.324 298.24 150.243 297.144 146.163C296.691 143.66 295.68 141.525 295.226 139.022C293.308 131.882 292.873 124.562 294.847 117.251C295.035 116.325 295.224 115.399 294.95 114.379C292.447 114.833 289.85 115.749 287.715 116.76C286.043 117.865 286.129 119.811 286.308 121.294C286.667 124.26 287.121 126.763 288.037 129.36C289.407 134.461 291.24 139.655 292.053 145.124C292.686 149.11 292.857 153.002 292.101 156.704C291.903 160.039 291.148 163.741 290.487 166.981C288.787 175.312 284.036 182.057 277.991 188.055C277.897 188.518 277.434 188.423 276.877 188.792C276.32 189.16 275.394 188.971 275.583 188.046C275.772 187.12 275.961 186.194 276.707 184.9C278.019 180.829 279.237 177.221 280.087 173.055C281.787 164.724 282.003 156.573 281.389 147.77C280.67 141.838 279.858 136.369 280.065 130.626C279.989 126.272 280.745 122.569 282.983 118.687C283.077 118.224 283.635 117.856 283.266 117.299C281.783 117.478 280.206 118.12 279.186 118.394C276.588 119.311 273.991 120.227 271.95 120.775C268.89 121.597 268.701 122.523 268.598 125.394C268.853 131.231 269.571 137.163 269.364 142.906C269.336 150.132 269.214 157.821 267.798 164.763C266.098 173.094 263.01 181.142 257.796 187.792C251.931 195.273 245.792 201.734 237.99 206.892C237.433 207.26 236.318 207.997 235.761 208.365C235.204 208.734 234.646 209.102 233.815 208.45C233.447 207.893 234.004 207.525 234.098 207.062L234.656 206.693C243.581 198.39 249.55 188.038 254.32 176.476C257.408 168.429 258.55 160.466 259.324 151.946C259.729 142.869 261.06 133.981 265.169 125.659C265.263 125.196 265.915 124.365 265.546 123.808C265.178 123.25 264.158 123.524 263.6 123.893C261.003 124.809 257.943 125.631 255.345 126.547C252.842 127.001 251.539 128.663 251.53 131.072C251.048 135.795 250.472 140.98 250.917 145.892C251.352 153.212 250.861 160.344 249.445 167.286C247.736 178.026 242.976 187.179 236.459 195.491C231.803 201.773 226.315 207.402 219.996 212.381C215.444 215.791 210.806 217.255 205.242 218.53C204.78 218.436 204.222 218.804 203.76 218.71C202.834 218.521 202.465 217.964 203.117 217.133C203.211 216.67 203.674 216.764 204.232 216.396C218.995 207.837 228.77 195.369 234.484 179.179C235.607 176.033 236.174 173.256 236.372 169.922C237.127 166.22 237.514 161.96 237.807 158.162C238.675 149.18 240.838 140.943 245.777 133.273C246.523 131.979 247.732 130.779 247.458 129.759C247.09 129.202 246.533 129.571 246.07 129.476C242.452 130.666 238.929 131.394 235.311 132.584C232.251 133.406 231.599 134.238 231.401 137.572C229.787 147.849 228.541 158.683 224.612 168.487C220.306 180.143 214.8 190.59 206.242 199.451C198.337 207.48 189.326 213.837 178.936 217.503C176.896 218.051 174.761 219.061 172.626 220.072C171.606 220.346 171.049 220.715 170.123 220.526C169.566 220.894 168.64 220.705 168.272 220.148C167.903 219.591 168.461 219.222 169.018 218.854C170.69 217.749 171.804 217.012 173.476 215.907C183.318 210.201 192.518 202.918 199.224 193.68C205.372 184.81 210.689 175.289 214.712 165.021C218.084 155.585 222.381 146.338 228.067 137.374C228.718 136.542 229.276 136.174 229.096 134.691C228.265 134.039 227.15 134.776 226.13 135.05C219.452 137.062 212.774 139.075 206.653 140.719C204.15 141.172 203.961 142.098 203.952 144.506C204.406 147.009 204.765 149.975 205.219 152.478C206.305 158.967 205.078 164.984 202.367 171.181C199.005 178.208 195.18 185.141 190.987 191.517C186.605 198.819 180.285 203.797 172.767 207.566C166.92 210.23 161.074 212.894 155.227 215.558C154.207 215.832 153.092 216.569 152.167 216.38C151.241 216.191 150.872 215.634 151.524 214.803C152.176 213.972 152.733 213.603 153.847 212.866C164.53 205.404 174.57 196.364 182.948 186.021C188.719 179.002 192.733 171.143 194.989 162.444C196.68 156.522 198.464 150.136 201.543 144.497C201.638 144.034 201.732 143.571 201.827 143.109C202.11 141.72 201.647 141.626 200.164 141.805C196.547 142.996 192.466 144.092 188.943 144.819C187.46 144.999 186.714 146.293 186.43 147.681C185.958 149.995 185.392 152.772 186.308 155.37C187.036 158.893 186.743 162.69 185.157 165.741C181.606 173.694 177.96 182.11 173.021 189.78C167.987 197.913 161.29 204.743 153.857 210.458C152.648 211.657 150.513 212.668 148.936 213.311C144.572 215.795 140.208 218.28 135.845 220.764C132.501 222.974 128.326 224.533 124.614 226.186C124.057 226.555 123.594 226.46 123.036 226.829C122.111 226.64 121.742 226.083 122.3 225.714C122.951 224.883 123.603 224.052 124.718 223.315C135.957 215.484 145.629 205.887 154.375 196.101C161.166 188.808 167.126 180.864 172.254 172.269C173.652 170.143 174.493 168.386 174.965 166.072C176.929 161.17 179.262 156.825 181.595 152.48C182.341 151.186 183.181 149.429 182.444 148.314C181.707 147.2 180.036 148.305 178.553 148.485C174.472 149.581 170.949 150.308 167.331 151.498C164.734 152.415 164.734 152.415 164.63 155.286C164.432 158.62 164.697 162.049 164.499 165.383C164.395 168.255 163.271 171.4 162.242 174.083C156.075 187.77 146.677 198.387 135.154 207.606C130.507 211.479 125.029 214.701 118.813 216.807C110.464 219.925 102.303 222.117 94.4156 225.329C93.3955 225.603 92.2809 226.34 92.0069 225.319C91.2701 224.205 92.7531 224.025 93.4048 223.194C97.863 220.247 102.227 217.762 107.053 215.372C118.284 209.95 127.946 202.761 136.041 193.807C142.18 187.345 147.12 179.675 151.596 171.911C154.024 167.103 157.008 161.927 159.898 157.213C159.992 156.751 160.55 156.382 160.738 155.456C160.833 154.994 161.485 154.162 161.116 153.605C160.379 152.491 159.728 153.322 158.802 153.133C154.259 154.134 149.715 155.136 145.172 156.138C143.689 156.317 143.037 157.148 142.754 158.537C141.441 162.608 139.666 166.585 138.816 170.75C136.937 177.598 133.301 183.606 128.739 189.424C121.013 198.936 112.087 207.239 101.499 214.239C94.349 218.566 86.8305 222.335 79.4064 225.641C78.8491 226.01 78.3863 225.915 77.9235 225.821C76.9978 225.632 76.6293 225.075 77.1866 224.706C77.9327 223.412 79.0471 222.675 79.6988 221.844C87.321 215.204 94.4806 208.469 102.103 201.828C112.7 192.42 122.098 181.802 130.57 170.996C133.177 167.671 136.246 164.441 138.116 160.001C138.211 159.538 138.768 159.17 138.494 158.15C137.105 157.866 135.528 158.509 134.045 158.688C127.461 160.238 128.67 159.038 125.96 165.235C120.917 175.776 115.137 185.203 106.768 193.138C99.7033 199.41 92.3644 204.662 83.8258 208.705C81.1339 210.085 78.5363 211.001 76.0332 211.454C69.3552 213.467 62.3087 214.922 55.9991 217.491C54.979 217.765 53.8644 218.502 53.5904 217.482C53.3164 216.462 54.431 215.725 54.9883 215.357C58.3319 213.146 61.6755 210.936 65.0191 208.725C65.5764 208.357 66.1336 207.989 66.6909 207.62C75.6073 201.726 84.8922 196.388 93.8085 190.494C96.5949 188.652 99.7497 187.367 102.168 184.968C108.675 179.064 115.646 173.255 121.048 165.679C121.794 164.385 123.466 163.28 122.729 162.165C122.087 160.588 119.858 162.061 118.375 162.241C116.429 162.326 114.483 162.411 111.98 162.865C109.571 162.855 107.899 163.961 106.502 166.086C104.358 169.505 102.308 172.462 99.7014 175.787C96.8114 180.5 92.7217 184.005 88.7264 187.047C77.2977 195.803 64.1213 201.311 50.6709 205.798C43.9929 207.811 36.852 209.728 30.2684 211.278C29.7112 211.646 29.2482 211.552 28.2281 211.826C27.7652 211.731 26.7452 212.005 26.8396 211.543C26.4711 210.985 27.0283 210.617 27.5856 210.248C27.5856 210.248 28.1429 209.88 28.6058 209.975C35.9355 207.131 42.2543 202.153 49.2155 198.752C53.4849 196.73 57.8487 194.246 62.1181 192.224C67.502 189.466 72.8857 186.708 77.9011 183.392C82.9166 180.076 88.3007 177.318 93.3161 174.002C96.6598 171.792 99.1721 168.93 102.147 166.162C102.705 165.793 102.799 165.331 102.431 164.773C102.062 164.216 101.599 164.122 101.505 164.585C99.0017 165.038 96.13 164.934 93.5325 165.851C84.7198 168.874 75.9074 171.897 66.7263 174.363C61.0684 176.101 55.316 178.302 49.3841 179.02C42.8949 180.107 36.5852 182.677 29.7276 183.206C22.3128 184.104 15.3608 185.096 8.31438 186.551C7.29426 186.825 6.27424 187.099 5.53738 185.985C5.72623 185.059 6.28345 184.69 7.3036 184.416C11.9413 182.952 16.3995 180.005 20.7633 177.52C28.4707 172.825 37.1891 170.265 46.2757 168.262C56.9398 165.617 67.6889 164.917 78.1641 163.197C83.6331 162.385 89.1023 161.572 94.9398 161.317C99.2943 161.241 103.375 160.145 107.824 159.606C106.624 158.397 105.604 158.671 104.584 158.945C99.5773 159.852 94.2974 159.739 89.206 158.701C79.0233 156.623 68.9258 156.492 58.3654 156.266C46.7849 156.314 35.0153 157.287 23.52 159.281C22.037 159.461 20.5542 159.64 19.0712 159.82C18.6084 159.725 17.5881 159.999 17.7769 159.074C17.5029 158.053 18.4287 158.242 18.9859 157.874C21.5834 156.958 23.7182 155.947 26.3157 155.03C36.8002 150.902 47.6437 149.74 58.4874 148.577C66.8279 147.868 75.0743 147.622 83.226 147.839C89.8947 148.235 96.4689 149.094 102.297 151.247C104.054 152.088 105.348 152.834 107.105 153.675C109.231 155.072 111.913 156.102 114.596 157.131C116.447 157.509 118.762 157.981 120.802 157.433C124.788 156.8 128.68 156.63 132.297 155.439C132.76 155.534 133.317 155.165 133.875 154.797C132.307 153.031 130.455 152.653 128.141 152.181C118.61 149.272 108.796 147.752 99.0759 145.769C92.596 144.447 85.7474 142.568 79.3619 140.783C74.365 139.282 69.1794 138.706 63.5308 138.036C56.0308 136.988 48.5307 135.94 41.3046 135.912C37.5074 135.619 33.6157 135.789 29.724 135.96C28.7983 135.771 28.2411 136.139 27.3153 135.95C26.8525 135.856 25.927 135.667 25.5585 135.11C25.2845 134.09 26.3047 133.816 26.862 133.448C32.5199 131.709 37.7147 129.876 44.0151 129.715C62.4532 129.138 80.5136 130.412 98.2815 135.483C102.353 136.796 105.961 138.014 109.475 139.695C117.797 143.803 126.308 146.986 134.073 151.463C134.073 151.463 134.073 151.463 134.536 151.557C137.766 154.627 141.195 154.362 144.813 153.172C147.968 151.887 151.396 151.622 154.92 150.895C155.477 150.526 156.865 150.809 157.054 149.884C157.243 148.958 155.854 148.675 155.023 148.023C153.266 147.183 151.046 146.248 149.195 145.87C141.327 144.265 134.204 141.365 126.713 137.909C117.834 134.169 108.766 131.355 99.6034 129.004C88.5894 126.275 76.9238 124.377 65.9098 121.648C56.6528 119.759 47.3012 118.333 38.2238 117.928C37.2981 117.739 36.8353 117.645 35.9096 117.456C35.4467 117.361 35.447 117.361 35.0785 116.804C35.3618 115.416 36.2874 115.604 36.7503 115.699C45.837 113.696 55.1033 113.176 64.738 113.213C77.2442 113.354 88.9096 115.252 100.849 118.17C107.329 119.491 113.526 122.202 119.354 124.355C126.108 126.697 132.399 128.945 138.407 132.581C145.709 136.963 153.011 141.345 159.198 146.464C160.861 147.768 162.712 148.146 164.752 147.598C168.37 146.407 171.893 145.68 175.511 144.489C176.531 144.215 178.014 144.036 178.666 143.205C178.854 142.279 177.929 142.09 177.56 141.533C174.509 139.946 171.458 138.36 168.124 138.161C164.421 137.406 160.813 136.188 157.761 134.601C150.733 131.239 143.706 127.877 136.583 124.977C129.924 122.173 123.17 119.831 115.859 117.857C109.105 115.515 102.351 113.173 95.5971 110.831C88.3803 108.394 81.0691 106.421 74.1263 105.004C66.7207 103.493 59.3151 101.983 52.1835 101.492C51.2578 101.303 49.7749 101.483 49.5009 100.463C49.3213 98.9796 51.1727 99.3573 52.0984 99.5461C60.3446 99.3 68.9591 99.6112 77.4792 100.385C86.9251 101.348 96.2765 102.774 105.439 105.125C125.153 110.111 144.583 116.485 162.238 126.837C164.827 128.329 167.783 130.378 170.277 132.333C173.97 135.497 178.684 138.387 182.378 141.551C183.672 142.297 185.061 142.581 186.544 142.401C190.161 141.211 193.684 140.483 196.839 139.199C197.396 138.83 198.322 139.019 198.974 138.188C198.7 137.168 197.311 136.884 196.48 136.233C185.938 131.189 175.396 126.146 165.043 120.177C152.839 113.831 140.729 107.021 127.684 102.432C120.93 100.09 114.081 98.2105 107.328 95.8684C102.331 94.3669 97.2393 93.3282 92.2424 91.8267C89.5597 90.7973 86.7827 90.2307 83.9111 90.127C80.5768 89.9289 77.4312 88.8051 73.8228 87.5868C73.36 87.4924 72.9915 86.9352 73.0859 86.4723C73.1803 86.0095 73.7377 85.641 74.2005 85.7355C75.2206 85.4615 76.7036 85.282 77.7237 85.008C84.6758 84.0158 91.8072 84.5065 98.8444 85.46C107.27 86.6968 115.413 89.3222 124.018 92.0419C133.18 94.3933 141.691 97.5758 150.571 101.316C165.647 107.766 179.419 115.879 192.163 126.674C194.656 128.629 196.593 130.953 198.992 133.371C199.729 134.485 200.56 135.137 201.854 135.883C202.686 136.535 203.149 136.629 204.169 136.355C208.806 134.891 213.539 132.964 218.176 131.499C218.46 130.111 217.534 129.922 216.608 129.733C207.634 126.456 200.059 121.054 192.114 115.094C178.257 105.036 164.304 95.4398 148.86 88.4322C140.906 84.8812 133.51 80.9619 124.999 77.7793C118.245 75.4372 110.934 73.4635 103.802 72.9728C102.877 72.7839 101.488 72.5006 100.562 72.3118C100.1 72.2174 98.7112 71.9341 98.8056 71.4713C98.9945 70.5456 99.92 70.7345 100.94 70.4605C102.886 70.3754 104.832 70.2902 106.778 70.2051C117.432 69.9683 128.172 71.6772 138.724 74.3119C145.572 76.1911 151.769 78.9016 157.871 82.0749C171.832 89.262 185.51 97.8376 198.074 107.15C203.062 111.06 207.587 114.876 212.017 119.154C214.785 122.129 217.741 124.179 220.972 127.249C222.635 128.552 223.929 129.298 226.063 128.287C228.198 127.276 230.701 126.823 232.836 125.812C233.856 125.538 234.045 124.612 233.213 123.961C232.382 123.309 232.014 122.752 231.088 122.563C223.966 119.664 218.053 115.565 212.139 111.466C204.563 106.063 197.545 100.293 190.337 95.4476C186.086 92.652 181.93 89.3936 177.122 86.9664C163.349 78.8536 150.134 70.3724 134.775 65.3106C134.312 65.2162 133.849 65.1217 133.48 64.5645C133.018 64.47 132.649 63.9128 133.206 63.5444C133.301 63.0816 133.764 63.1759 133.764 63.1759C134.321 62.8075 135.247 62.9964 135.71 63.0909C139.507 63.3834 143.399 63.2132 147.101 63.9686C152.287 64.5444 157.19 66.5088 162.092 68.4731C171.897 72.4018 180.862 78.0874 189.363 83.6786C196.571 88.5237 203.589 94.2944 210.051 100.434C216.049 106.478 222.237 111.597 228.33 117.179C230.729 119.597 233.78 121.184 236.274 123.139C237.568 123.885 238.957 124.168 239.977 123.894C241.554 123.252 243.037 123.072 244.614 122.43C244.34 121.41 243.415 121.221 242.952 121.127C239.07 118.888 235.744 116.281 232.419 113.675C230.757 112.371 229.189 110.605 227.432 109.765C218.93 104.173 211.08 97.751 203.787 90.9601C197.326 84.821 190.119 79.976 182.448 75.0365C180.323 73.6387 178.66 72.3353 176.535 70.9375C170.99 67.3958 164.793 64.6853 158.871 62.995C157.482 62.7117 156.188 61.9656 155.262 61.7767C154.337 61.5879 153.411 61.399 153.6 60.4733C153.883 59.0848 155.271 59.3681 155.734 59.4625C159.626 59.2923 163.518 59.1221 167.221 59.8775C171.849 60.8217 175.92 62.1344 179.803 64.3727C188.493 69.0382 197.372 72.778 205.317 78.7376C213.355 84.2343 220.28 90.468 226.363 98.4584C229.774 103.011 233.741 107.195 237.709 111.379C240.108 113.797 242.413 116.678 245.37 118.727C249.895 122.543 249.338 122.911 256.204 119.973C256.299 119.511 255.93 118.953 255.467 118.859C250.197 116.337 245.672 112.522 241.61 108.8C231.823 100.054 222.783 90.0144 214.205 80.0689C207.101 72.3524 199.903 65.0987 192.148 58.2134C190.117 56.3528 187.802 55.8807 185.394 55.8714C181.502 56.0417 177.705 55.749 173.908 55.4565C171.499 55.4472 169.185 54.9751 167.154 53.1144C172.349 51.2817 177.072 51.7631 181.71 50.2988C181.53 48.8159 180.604 48.6271 179.773 47.9754C177.648 46.5776 175.522 45.1798 173.397 43.782C172.934 43.6875 172.103 43.0358 172.754 42.2046C172.943 41.2789 173.869 41.4678 174.795 41.6567C177.94 42.7805 181.549 43.9987 184.6 45.5853C190.607 49.2215 197.276 49.6178 203.85 50.4769C218.019 51.9212 230.601 56.4164 241.776 65.4456C248.795 71.2163 254.142 78.0923 258.28 86.1679C261.681 93.129 264.524 100.458 267.831 107.882C268.842 110.017 269.947 111.689 271.053 113.361C271.789 114.475 272.715 114.664 273.735 114.39C276.89 113.105 279.95 112.283 283.011 111.461C284.588 110.819 284.777 109.893 283.02 109.053C277.938 105.605 274.065 100.959 271.306 95.5748C263.947 82.021 253.801 70.3092 243.004 59.4287C236.637 52.8267 228.315 48.7185 220.456 44.7046C217.867 43.2124 215.647 42.2775 213.154 40.3224C212.785 39.7652 211.86 39.5763 212.048 38.6507L212.606 38.2823C220.474 39.8875 227.974 40.9355 235.465 44.392C247.858 49.813 257.55 59.0216 266.033 69.43C273.78 78.7238 278.74 89.8598 283.237 100.901C283.511 101.921 283.785 102.941 284.059 103.962C284.238 105.444 284.975 106.559 286.175 107.768C287.374 108.977 288.3 109.166 289.878 108.523C292.012 107.513 294.515 107.059 297.207 105.68C291.851 101.212 287.61 96.0082 284.483 90.0672C281.535 85.6091 279.608 80.8771 276.755 75.9562C272.617 67.8806 267.827 60.6362 261.366 54.4971C257.673 51.3331 253.422 48.5375 249.728 45.3735C248.897 44.7218 248.066 44.0701 247.697 43.5129C247.329 42.9556 247.423 42.4927 248.443 42.2188C249.463 41.9448 250.758 42.6909 251.683 42.8797C257.512 45.0329 262.688 48.0174 267.77 51.4647C277.103 57.7076 282.998 66.6237 288.147 76.8339C291.179 83.2377 293.286 89.4527 295.298 96.1305C295.847 98.1707 296.952 99.8424 298.057 101.514C300.268 104.858 301.751 104.678 305.557 102.562C300.381 99.5778 298.085 94.2885 296.252 89.0936C294.514 83.4359 293.332 77.4097 290.574 72.026C287.078 65.5277 282.931 59.8607 278.321 54.0993C277.953 53.542 276.659 52.7959 276.847 51.8702C277.868 51.5963 278.236 52.1535 278.699 52.248C284.707 55.8841 289.6 60.257 293.747 65.924C300.473 75.4919 305.065 86.0705 307.059 97.5655C307.427 98.1227 307.333 98.5856 307.607 99.6057C308.523 102.203 308.986 102.298 311.121 101.287C326.706 95.7885 341.922 89.733 356.959 82.1946C363.458 78.6994 370.23 76.2242 376.729 72.729C377.843 71.9922 379.421 71.3498 380.346 71.5386C382.292 71.4535 383.398 73.1253 382.557 74.8822C381.811 76.1763 381.159 77.0075 380.045 77.7443C374.283 82.3541 368.153 86.4066 361.655 89.9018C348.1 97.2607 334.461 102.674 319.991 107.435C317.95 107.983 315.353 108.9 313.218 109.91C311.178 110.458 310.989 111.384 312.094 113.056L312.463 113.613C317.63 119.006 318.991 126.515 320.446 133.561C321.901 140.607 321.779 148.296 320.268 155.701C319.796 158.016 319.324 160.33 318.852 162.644C314.592 162.257 314.309 163.645 312.826 163.825ZM263.817 115.741C264.006 114.816 263.543 114.721 263.08 114.627C259.661 112.483 257.261 110.065 255.051 106.721C251.272 101.612 248.514 96.2279 245.292 90.7497C240.323 82.0224 233.777 73.9375 224.812 68.2519C218.899 64.153 211.682 61.7165 204.928 59.3744C204.465 59.28 203.634 58.6283 202.519 59.3652C203.256 60.4797 204.088 61.1313 205.382 61.8775C215.82 69.7921 224.586 78.812 232.606 89.1259C236.385 94.2357 240.069 99.8083 244.405 104.55C247.91 108.639 251.783 113.286 255.94 116.545C256.771 117.196 257.602 117.848 258.622 117.574C261.125 117.12 262.608 116.941 263.817 115.741Z" fill="#8EDAA7"/>
</svg>
