<svg width="321" height="308" viewBox="0 0 321 308" fill="none" xmlns="http://www.w3.org/2000/svg">
<path d="M248.752 160.794C249.462 161.371 249.24 162.37 249.662 163.302C250.173 171.379 250.329 179.168 249.841 187.024C249.353 194.879 242.719 203.046 234.486 205.198C230.048 206.308 226.12 206.064 221.771 204.888C220.772 204.666 219.418 204.156 218.131 204.289C219.84 205.088 221.904 206.175 223.613 206.974C236.284 213.143 248.889 218.668 263.158 221.419C265.51 222.151 267.796 222.24 270.436 222.617C272.433 223.061 272.789 223.349 272.345 225.346C272.412 225.99 272.123 226.345 272.19 226.988C271.524 229.984 270.304 230.761 267.375 230.739C264.734 230.362 262.093 229.984 259.741 229.252C250.043 226.678 241.144 222.396 231.891 217.825C225.699 214.563 219.153 211.013 212.895 207.107C212.184 206.531 211.186 206.309 210.121 205.443C210.609 207.019 211.386 208.239 212.162 209.46C215.203 213.698 217.023 218.713 218.199 223.795C220.707 232.316 215.648 239.994 208.548 243.656C202.667 246.541 196.232 247.207 190.018 246.874C186.734 246.563 183.45 246.253 179.811 245.654C178.812 245.432 176.881 245.632 176.748 244.345C176.615 243.057 177.902 242.924 179.122 242.148C181.852 240.239 184.226 238.042 186.245 235.557C187.399 234.136 188.198 232.428 188.997 230.719C189.951 227.368 189.396 225.149 186.977 223.773C184.203 222.109 180.342 222.509 177.967 224.706C176.814 226.126 175.948 227.191 175.438 228.545C174.639 230.254 174.484 231.896 174.329 233.538C174.173 235.18 173.73 237.177 173.575 238.819C172.532 244.456 168.871 246.786 163.434 247.674C157.997 248.561 152.361 247.519 147.301 245.766C144.949 245.034 142.241 244.013 140.178 242.926C138.824 242.415 138.114 241.838 137.337 240.618C140.421 238.998 143.506 237.378 145.947 235.824C152.404 232.229 157.796 227.769 162.056 221.799C162.345 221.444 162.345 221.444 162.633 221.089C164.364 218.959 164.741 216.318 163.254 214.521C162.122 213.012 159.127 212.346 156.907 212.901C154.045 213.523 152.669 215.941 151.294 218.36C149.341 221.489 147.1 224.973 144.792 227.814C141.908 231.364 138.313 234.338 133.942 236.091C131.146 237.356 128.216 237.334 125.221 236.668C121.87 235.714 118.807 234.405 115.967 232.097C113.836 230.366 111.062 228.702 108.932 226.971C106.091 224.664 103.539 222.001 101.276 218.983C100.92 218.695 100.21 218.118 100.432 217.119C100.654 216.121 101.653 216.342 102.296 216.276C107.511 216.387 112.304 215.565 117.031 214.101C123.688 212.436 129.923 209.84 135.382 206.023C138.4 203.759 141.417 201.495 143.303 197.723C144.679 195.304 144.257 194.372 142.127 192.641C138.643 190.4 133.206 191.288 130.965 194.772C126.55 202.384 119.382 205.402 111.371 206.556C107.865 207.244 103.938 207 100.653 206.689C93.0862 205.846 87.5382 202.518 82.7224 196.837C76.7748 189.648 72.4027 181.97 68.896 173.227C68.896 173.227 68.541 172.939 68.8295 172.583C68.7628 171.94 68.0526 171.363 68.6295 170.653C69.2064 169.943 70.205 170.165 70.9151 170.742C77.6835 173.293 84.3853 175.201 91.3756 176.755C98.3658 178.308 105.578 178.862 112.723 178.773C116.296 178.729 120.446 177.974 123.885 176.643C125.749 175.799 127.258 174.667 128.412 173.247C129.211 171.539 129.366 169.896 128.234 168.388C127.102 166.879 126.103 166.657 124.461 166.501C122.819 166.346 121.244 166.834 120.09 168.255C115.341 172.649 109.971 174.18 104.113 174.136C89.4669 174.025 76.8622 168.5 65.7883 158.914C63.6578 157.183 62.3929 154.387 61.4829 151.88C59.5963 146.221 57.7096 140.563 56.755 134.482C56.6217 133.195 56.1335 131.62 55.7118 130.688C55.6452 130.044 55.2235 129.112 56.1555 128.691C57.0875 128.269 57.5091 129.201 57.8642 129.49C59.6395 130.932 61.4149 132.374 63.1903 133.817C71.3569 140.451 80.3224 145.377 90.1532 149.238C96.9216 151.79 103.912 153.343 111.279 152.255C113.21 152.056 114.785 151.567 116.006 150.791C118.158 149.592 118.602 147.595 116.76 145.509C115.339 144.355 113.631 143.557 111.345 143.468C102.269 143.757 94.147 140.695 86.5352 136.279C78.2134 131.286 71.1119 125.517 64.8092 118.039C62.5455 115.021 60.5703 111.648 58.5951 108.275C55.3548 102.106 55.0438 95.9596 56.9517 89.2579C58.1276 84.9086 59.0149 80.9142 61.1893 76.7867C63.0087 72.3707 64.1844 68.0212 64.6501 63.0949C64.5835 62.4513 64.8054 61.4528 64.7388 60.8093C64.7607 57.8801 65.0491 57.525 68.0449 58.1907C75.9005 58.6786 82.8461 56.659 89.6585 53.3524C95.2504 50.8225 100.465 50.9333 105.658 53.9732C109.431 55.8593 111.983 58.5221 114.313 62.1835C118.485 67.9308 120.505 74.8764 121.882 81.8886C122.57 85.3947 122.969 89.2558 123.014 92.8285C123.192 97.6882 124.302 102.126 126.699 106.431C127.475 107.652 128.03 109.871 130.249 109.316C132.468 108.761 132.912 106.764 133.422 105.41C134.531 100.417 133.422 95.9792 132.312 91.5411C128.561 77.2948 121.658 64.0251 112.67 52.5972C112.315 52.3087 111.96 52.0202 111.894 51.3767C111.117 50.1562 111.05 49.5127 112.626 49.0245C116.132 48.3365 119.705 48.2919 123.344 48.891C131.621 50.3109 139.033 52.7961 146.068 57.9219C147.843 59.3642 149.685 61.4501 150.529 63.3141C151.727 65.4665 152.282 67.6855 152.837 69.9046C155.478 79.7127 156.189 89.7207 155.901 99.5068C155.902 108.938 155.259 118.436 152.619 127.489C152.175 129.487 153.019 131.351 154.727 132.149C156.436 132.948 158.3 132.105 159.742 130.329C160.608 129.264 161.118 127.911 161.273 126.269C164.512 113.575 165.821 101.082 164.488 88.2115C163.689 80.4892 162.601 73.1219 159.871 65.5994C158.961 63.0919 158.118 61.2279 156.919 59.0754C156.431 57.4999 156.364 56.8564 158.295 56.6566C158.938 56.59 159.582 56.5234 159.582 56.5234C166.151 57.1446 172.719 57.7657 178.622 61.3826C181.751 63.3353 185.524 65.2213 188.653 67.174C191.138 69.1933 192.337 71.3457 193.602 74.1417C195.91 80.7322 195.933 87.2341 195.023 94.1576C193.781 107.295 190.542 119.988 182.954 131.505C181.867 133.569 180.78 135.632 181.334 137.851C181.534 139.782 182.666 141.291 184.663 141.735C186.661 142.178 188.236 141.69 189.39 140.27C191.409 137.785 193.073 135.011 194.027 131.66C196.512 124.248 197.998 116.614 198.841 109.047C200.128 99.4832 201.059 89.6306 200.06 79.9777C200.148 77.6921 199.593 75.473 198.683 72.9655C200.681 73.4092 202.101 74.5631 203.455 75.0734C206.939 77.3146 210.423 79.5557 213.973 82.4404C222.207 89.7186 230.507 97.6405 237.298 106.694C240.338 110.932 240.738 114.793 239.629 119.786C237.499 127.487 232.528 132.879 226.848 137.695C223.253 140.668 219.658 143.642 215.354 146.039C214.133 146.815 213.201 147.237 211.981 148.014C210.472 149.146 210.028 151.143 211.16 152.652C211.648 154.227 213.645 154.671 215.576 154.471C218.084 153.561 220.303 153.006 222.388 151.165C228.646 145.639 234.26 140.18 239.097 133.5C242.203 128.951 243.956 123.892 244.71 118.61C244.644 117.967 244.577 117.323 244.865 116.968C245.154 116.613 245.509 116.901 245.864 117.19C247.972 121.85 250.724 126.443 251.901 131.525C252.589 135.031 252.212 137.672 250.614 141.089C246.976 149.921 239.431 155.58 231.82 160.595C229.668 161.794 227.804 162.637 226.006 164.124C222.989 166.387 222.612 169.028 224.653 173.045C225.918 175.84 228.337 177.216 231.777 175.885C239.654 173.443 245.401 169.271 247.465 160.928C247.886 161.86 247.82 161.216 248.752 160.794ZM176.585 132.814C178.96 130.617 179.98 127.91 180.712 125.558C185.527 112.377 187.634 98.1744 187.167 84.2387C187.322 82.5966 186.834 81.021 186.346 79.4455C186.212 78.1584 185.147 77.2931 183.86 77.4263C182.573 77.5595 181.353 78.3361 181.197 79.9783C180.976 80.9768 181.109 82.2639 181.531 83.1959C181.664 84.4829 182.085 85.4149 181.864 86.4135C182.175 92.5603 182.197 99.0622 181.865 105.276C181.444 113.775 179.736 122.407 176.962 130.174C176.03 130.595 175.453 131.305 176.585 132.814ZM111.857 170.407C113.3 168.632 112.39 166.125 109.749 165.747C108.75 165.526 107.463 165.659 106.531 166.08C103.025 166.768 99.8074 167.101 96.2347 167.146C94.9477 167.279 93.5939 166.769 92.3069 166.902C91.3083 166.68 90.3763 167.102 89.866 168.455C89.6442 169.454 90.7094 170.319 91.708 170.541C95.0588 171.495 98.7648 172.738 102.049 173.048C104.335 173.137 106.265 172.937 108.196 172.738C110.06 171.894 110.992 171.473 111.857 170.407ZM206.917 89.6748C205.475 91.4501 206.03 93.6691 206.23 95.5997C206.851 98.4622 207.828 101.613 208.161 104.831C208.228 105.474 208.294 106.118 209.293 106.34C210.291 106.562 210.868 105.852 210.802 105.208C212.688 101.436 213.575 97.4413 213.109 92.9366C212.976 91.6496 212.487 90.074 211.422 89.2086C210.002 88.0547 208.071 88.2546 206.917 89.6748ZM210.456 236.954C213.917 232.693 214.183 225.836 211.431 221.243C210.588 219.379 209.234 218.869 207.658 219.357C206.083 219.845 205.861 220.844 206.416 223.063C207.259 224.927 207.171 227.212 207.659 228.788C208.214 231.007 208.059 232.649 206.905 234.069C206.328 234.779 206.106 235.778 205.529 236.488C205.241 236.843 205.307 237.487 205.729 238.419C206.439 238.996 207.083 238.929 207.726 238.862C208.947 238.086 209.879 237.664 210.456 236.954ZM131.699 220.713C131.988 220.358 132.565 219.648 132.431 218.361C132.01 217.429 131.011 217.207 129.724 217.34C129.081 217.407 128.082 217.185 127.505 217.895C123.422 219.293 119.694 220.98 115.544 221.734C114.257 221.867 113.68 222.578 113.525 224.22C113.658 225.507 114.369 226.084 116.011 226.239C116.654 226.172 117.009 226.461 117.653 226.394C121.514 225.995 125.952 224.885 129.392 223.553C129.613 222.555 130.545 222.133 131.699 220.713ZM68.3812 108.563C69.8015 109.717 71.8654 110.805 73.5741 111.603C74.9278 112.114 75.5047 111.404 75.0164 109.828C74.1064 107.321 73.263 105.457 72.3531 102.949C71.9314 102.017 71.5096 101.085 70.7329 99.8646C69.9561 98.6442 69.246 98.0673 67.8923 97.5569C65.8951 97.1132 63.8093 98.955 64.0758 101.529C64.4089 104.747 66.2508 106.833 68.3812 108.563ZM188.305 170.627C189.17 169.562 189.392 168.563 188.903 166.988C188.127 165.767 187.062 164.902 185.774 165.035C183.844 165.235 181.625 165.789 180.116 166.921C178.252 167.765 178.23 170.694 180.294 171.781C182.069 173.223 186.862 172.402 188.305 170.627ZM155.086 179.593C154.509 180.303 153.932 181.013 153.643 181.368C153.066 182.078 152.845 183.077 153.621 184.297C154.043 185.229 155.042 185.451 156.329 185.318C157.616 185.185 158.903 185.052 159.768 183.987C161.566 182.5 162.719 181.079 162.808 178.794C162.608 176.863 162.253 176.575 160.322 176.775C157.682 176.397 156.173 177.529 155.086 179.593ZM168.357 191.553C169.422 192.419 170.709 192.285 172.218 191.154C174.015 189.667 174.259 185.739 173.06 183.587C171.573 181.789 168.644 181.767 167.202 183.542C165.471 185.673 166.293 190.466 168.357 191.553ZM167.4 157.18C168.842 155.405 168.798 151.832 166.667 150.101C164.892 148.659 162.384 149.569 161.941 151.566C161.497 153.563 161.985 155.139 163.117 156.648C164.316 158.8 165.958 158.955 167.4 157.18Z" fill="#248E94"/>
</svg>
