<svg width="326" height="292" viewBox="0 0 326 292" fill="none" xmlns="http://www.w3.org/2000/svg">
<path d="M132.531 162.09C131.15 162.887 129.77 163.684 128.113 164.64C127.285 165.118 126.616 165.873 125.788 166.351C119.713 169.858 113.958 173.917 108.362 178.252C103.711 181.674 99.0599 185.095 94.4088 188.517C89.7578 191.938 84.99 195.795 80.339 199.217C70.9202 206.495 61.6608 214.05 52.1253 221.764C50.6281 222.997 50.1926 222.88 49.2362 221.223C48.5986 220.119 48.1204 219.291 47.4828 218.186C46.6858 216.806 46.8024 216.371 48.0235 215.297C51.963 211.919 56.3379 208.656 60.5535 205.118C65.5973 201.102 70.9173 196.926 75.9611 192.91C81.2811 188.734 86.3249 184.717 91.9637 181.094C97.7191 177.034 103.475 172.975 109.23 168.916C111.556 167.205 114.04 165.771 116.366 164.06C124.606 158.566 133.325 153.901 141.608 149.118C142.16 148.799 142.712 148.481 142.829 148.045C142.786 147.334 142.075 147.376 141.799 147.536C139.664 147.664 137.529 147.792 135.713 148.472C132.793 149.79 129.989 150.673 127.547 152.819C126.718 153.297 126.166 153.616 125.338 154.094C123.957 154.891 122.534 154.977 121.461 153.756C120.112 152.694 119.124 152.896 117.744 153.693C116.363 154.49 115.418 155.404 114.197 156.477C111.319 158.507 108.399 159.825 104.798 159.327C101.633 158.946 100.358 156.737 101.61 153.805C102.47 151.468 103.765 149.248 105.655 147.42C106.324 146.666 106.833 145.636 107.343 144.605C107.576 143.734 107.257 143.182 106.503 142.513C104.081 140.23 101.425 138.819 97.9835 138.597C95.2538 138.332 92.8002 137.908 90.0705 137.644C89.3588 137.686 88.4879 137.453 87.5002 137.655C84.8131 138.102 82.0834 137.838 79.3537 137.573C78.4826 137.34 77.6116 137.106 76.7406 136.873C75.1153 135.971 74.435 134.155 75.1779 132.253C75.8041 130.787 75.8041 130.787 74.4549 129.726C73.86 129.333 73.1057 128.664 72.6275 127.836C71.5544 126.615 71.3095 124.915 72.2118 123.29C73.0714 120.953 72.5932 120.125 70.2563 119.265C69.3853 119.032 68.7904 118.639 67.9194 118.406C66.4535 117.78 65.3804 116.559 64.5834 115.178C63.5843 112.81 64.3271 110.909 66.1004 109.517C68.1499 107.965 70.7202 107.954 73.3332 108.654C76.8173 109.587 80.0252 110.68 83.1164 112.209C87.6736 114.363 92.3902 116.794 96.9473 118.948C99.0082 119.967 101.186 120.551 103.48 120.699C104.351 120.932 105.339 120.73 105.848 119.7C106.358 118.669 105.879 117.841 105.125 117.172C103.893 115.675 102.384 114.337 100.759 113.435C99.1333 112.533 97.9008 111.035 96.9444 109.379C94.8722 105.79 92.9166 101.765 91.3966 97.8569C90.3975 95.4888 90.11 93.0779 90.0985 90.5077C90.0444 87.2258 92.8055 85.6317 95.7373 86.884C97.6387 87.6268 98.988 88.6884 100.221 90.1856C100.975 90.8545 101.453 91.6828 102.483 92.1922C103.078 92.585 103.63 92.2662 103.747 91.8307C104.14 91.2358 104.097 90.5242 104.214 90.0887C104.245 88.23 103.724 86.6901 103.204 85.1502C102.364 83.0582 101.96 81.0828 102.267 79.0647C102.648 75.8995 105.133 74.4649 108.225 75.9933C110.285 77.0122 111.953 78.626 113.505 80.6753C115.215 83.0008 117.202 85.1668 119.975 86.143C121.441 86.7691 122.79 87.8308 124.256 88.4569C125.446 89.2425 126.359 90.1874 126.721 91.4512C127.879 94.0955 128.602 96.623 129.049 99.31C129.698 102.985 130.507 106.935 131.156 110.61C132.252 116.972 135.164 122.653 139.849 126.942C141.357 128.28 142.823 128.906 144.523 128.661C145.946 128.576 146.222 128.416 146.572 127.11C147.156 124.932 146.592 122.681 145.752 120.589C145.391 119.325 144.912 118.497 144.275 117.392C142.914 113.761 140.173 110.926 137.549 107.655C137.23 107.103 136.635 106.71 136.316 106.158C134.329 103.992 133.883 101.305 135.018 98.8088C135.644 97.3429 135.559 95.9197 134.762 94.5393C132.488 89.9624 130.373 85.6616 129.086 80.8825C128.161 77.3673 127.947 73.8093 127.893 70.5274C127.808 69.1042 128.434 67.6384 129.974 67.1174C131.514 66.5965 132.98 67.2226 134.053 68.4436C135.604 70.493 137.315 72.8184 138.59 75.0272C139.749 77.6714 141.067 80.5917 142.225 83.236C142.703 84.0643 143.341 85.1686 144.095 85.8375C147.665 88.1942 149.737 91.7834 150.705 96.0102C150.95 97.7095 151.63 99.5254 151.875 101.225C152.364 104.623 153.13 107.862 153.62 111.261C154.183 113.512 155.299 115.445 156.574 117.654C157.053 118.482 158.083 118.992 158.837 119.66C160.463 120.563 161.843 119.766 161.874 117.907C162.065 116.324 161.268 114.944 160.747 113.404C160.428 112.852 160.11 112.3 159.791 111.748C157.921 109.146 157.155 105.907 157.101 102.625C157.163 98.9075 155.803 95.2756 154.878 91.7604C154.676 90.7727 154.197 89.9444 153.719 89.1161C152.603 87.1835 151.488 85.2508 150.531 83.5943C148.618 80.2812 149.435 77.2327 152.313 75.2031C154.086 73.8111 154.712 72.3452 154.584 70.2105C154.211 66.3764 155.262 62.4569 156.907 58.9302C157.533 57.4643 158.478 56.5505 159.423 55.6368C161.196 54.2449 162.938 54.7116 164.054 56.6443C165.17 58.5769 165.298 60.7117 165.702 62.6871C166.107 64.6624 166.235 66.7972 166.363 68.932C166.534 71.7784 166.269 74.508 166.44 77.3544C166.377 81.0718 168.407 83.9494 170.436 86.827C172.147 89.1524 173.146 91.5206 173.157 94.0909C173.414 98.3604 173.234 102.513 173.491 106.783C173.545 110.065 173.875 113.187 174.757 115.991C175.076 116.543 175.278 117.531 175.597 118.083C176.553 119.739 177.701 119.813 178.762 118.464C179.824 117.115 180.45 115.649 180.917 113.907C181.882 108.564 180.871 103.626 179.585 98.8469C178.702 96.0433 177.544 93.399 175.95 90.6381C174.515 88.1533 173.792 85.6257 174.333 82.7366C175.15 79.6881 173.991 77.0439 172.833 74.3996C171.876 72.7431 170.92 71.0865 170.24 69.2706C168.56 65.0865 169.451 60.8908 171.489 56.7692C172.901 54.1135 175.471 54.102 177.182 56.4274C179.052 59.0289 180.253 62.3848 181.571 65.3051C182.05 66.1334 182.411 67.3972 182.889 68.2254C184.005 70.1581 185.238 71.6552 187.574 72.5148C191.377 74.0004 192.579 77.3562 192.675 81.3497C192.718 82.0613 192.644 83.2084 192.687 83.92C192.496 85.5026 193.017 87.0425 194.249 88.5396C195.96 90.865 196.131 93.7114 195.866 96.4411C195.602 99.1708 194.901 101.784 194.913 104.354C194.722 105.937 194.808 107.36 195.328 108.9C195.531 109.887 196.009 110.716 197.039 111.225C198.664 112.127 200.48 111.447 200.947 109.705C201.807 107.368 201.795 104.798 201.784 102.228C201.485 97.2464 200.475 92.308 198.636 87.8478C198.158 87.0195 197.955 86.0318 197.753 85.0441C196.509 80.9767 196.848 77.0999 199.364 73.8065C200.819 71.8624 201.126 69.8443 200.839 67.4335C200.785 64.1516 200.731 60.8697 201.547 57.8212C201.898 56.5147 202.407 55.4843 202.917 54.4539C203.543 52.988 204.531 52.7858 205.996 53.412C207.027 53.9214 207.781 54.5903 208.259 55.4186C209.853 58.1795 211.171 61.0999 212.213 64.1796C213.414 67.5354 213.904 70.934 214.117 74.492C214.203 75.9151 214.012 77.4977 213.821 79.0803C213.397 81.5339 213.366 83.3926 214.365 85.7608C215.64 87.9695 215.492 90.2637 214.792 92.8767C214.325 94.6187 213.859 96.3607 213.392 98.1027C213.158 98.9737 213.084 100.121 213.287 101.108C213.648 102.372 214.721 103.593 215.868 103.667C217.175 104.017 218.555 103.22 219.181 101.754C219.298 101.319 219.691 100.724 219.808 100.289C220.348 97.3994 220.889 94.5103 220.559 91.3878C220.112 88.7009 219.941 85.8545 220.206 83.1248C220.354 80.8306 220.938 78.6531 222.551 76.9851C223.889 75.4764 224.356 73.7345 224.387 71.8758C224.376 69.3055 224.641 66.5758 225.5 64.2389C226.126 62.773 226.753 61.3071 227.814 59.9578C228.483 59.2035 229.588 58.5659 230.575 58.3638C231.839 58.0022 232.71 58.2356 233.348 59.34C234.145 60.7204 234.942 62.1009 235.027 63.5241C235.229 64.5118 235.155 65.6589 235.198 66.3704C235.007 67.953 235.804 69.3335 236.877 70.5545C239.024 72.9966 239.035 75.5669 238.059 78.3394C237.825 79.2104 237.316 80.2408 236.806 81.2712C236.414 81.8661 236.456 82.5777 236.34 83.0132C235.989 84.3197 236.627 85.424 237.658 85.9335C238.688 86.443 239.676 86.2408 240.621 85.3271C242.511 83.4997 243.806 81.2794 244.941 78.7831C245.844 77.1578 246.427 74.9803 247.33 73.355C250.227 66.8965 255.314 63.5916 262.068 61.9006C263.768 61.6557 265.626 61.687 267.252 62.5892C270.821 64.9459 271.906 68.7372 269.432 72.7421C268.254 74.5269 266.799 76.471 265.461 77.9796C265.069 78.5746 264.516 78.8934 264.283 79.7644C265.313 80.2738 265.706 79.6789 266.535 79.2007C267.639 78.5631 268.903 78.2015 270.167 77.84C273.841 77.1909 276.423 79.7497 276.201 83.191C276.084 83.6265 276.244 83.9026 276.127 84.3381C276.138 86.9083 274.96 88.6931 272.751 89.9683C271.647 90.606 270.266 91.403 270.511 93.1023C270.756 94.8016 272.338 94.9922 273.645 95.3422C276.97 95.9996 280.092 95.6693 283.491 95.1796C284.914 95.0942 286.337 95.0087 287.92 95.1993C288.355 95.316 288.791 95.4327 289.226 95.5494C290.692 96.1756 291.882 96.9611 291.967 98.3843C292.212 100.084 291.427 101.273 290.046 102.07C288.114 103.186 285.905 104.462 283.653 105.025C273.064 107.089 262.359 109.589 251.728 110.941C250.028 111.186 247.734 111.038 246.194 111.559C245.206 111.761 243.624 111.571 243.709 112.994C243.635 114.141 245.058 114.055 245.929 114.289C248.266 115.148 250.879 115.848 253.333 116.272C255.946 116.973 258.166 118.268 259.994 120.158C260.748 120.826 261.502 121.495 261.981 122.324C263.649 123.937 265.55 124.68 267.685 124.552C269.108 124.467 270.691 124.657 271.997 125.007C273.304 125.357 274.217 126.302 274.855 127.407C275.652 128.787 276.682 129.297 278.148 129.923C279.89 130.389 281.473 130.58 283.098 131.482C284.129 131.992 284.883 132.661 285.637 133.33C287.146 134.667 286.998 136.962 285.341 137.918C283.568 139.31 281.476 140.15 279.341 140.278C276.495 140.449 273.924 140.46 271.311 139.76C268.858 139.336 266.245 138.636 263.95 138.488C262.368 138.297 260.392 138.702 258.895 139.934C257.005 141.762 254.87 141.89 252.257 141.19C250.356 140.447 248.454 139.704 246.67 138.526C242.389 136.212 238.5 133.303 234.336 130.553C232.551 129.375 230.331 128.08 228.27 127.061C226.369 126.318 224.627 125.852 222.492 125.98C221.345 125.906 220.793 126.225 220.283 127.255C219.774 128.285 219.976 129.273 220.73 129.942C222.441 132.267 225.097 133.679 227.869 134.655C230.047 135.239 232.224 135.822 234.125 136.565C237.057 137.817 237.971 138.762 237.749 142.204C237.675 143.351 238.153 144.179 239.184 144.688C240.692 146.026 242.477 147.204 244.262 148.383C249.573 151.206 253.94 154.943 258.858 158.362C260.207 159.423 261.44 160.92 262.12 162.736C262.801 164.552 262.451 165.859 261.07 166.656C259.69 167.453 258.426 167.814 257.119 167.464C252.095 167.052 247.421 165.333 243.257 162.583C242.662 162.191 242.067 161.798 241.472 161.405C240.718 160.736 240.006 160.779 238.902 161.417C237.245 162.373 235.503 161.906 234.43 160.685C233.081 159.624 232.008 158.403 231.051 156.746C227.747 151.66 223.497 147.487 218.971 143.474C216.708 141.467 213.893 139.779 211.004 139.239C209.697 138.889 208.158 139.41 206.894 139.771C205.789 140.409 205.396 141.004 206.034 142.108C206.672 143.212 207.15 144.041 208.064 144.986C209.732 146.599 211.516 147.778 213.301 148.956C215.797 150.092 218.177 151.663 220.79 152.363C223.127 153.222 224.795 154.836 226.622 156.726C227.101 157.555 227.579 158.383 227.505 159.53C227.431 160.677 228.068 161.781 228.982 162.726C231.564 165.285 234.262 167.408 236.961 169.532C241.603 173.109 245.853 177.282 248.765 182.963C249.562 184.344 250.242 186.16 249.181 187.509C247.843 189.018 246.26 188.827 244.518 188.36C241.034 187.427 237.943 185.898 235.478 182.904C234.405 181.683 233.056 180.621 231.706 179.56C230.952 178.891 230.081 178.657 229.21 178.424C227.075 178.552 225.29 177.374 223.941 176.312C222.592 175.251 221.519 174.03 220.446 172.808C217.864 170.25 215.718 167.808 212.86 165.408C208.058 161.554 203.766 156.67 199.633 152.062C198.241 150.289 196.456 149.11 194.395 148.092C193.524 147.858 192.653 147.625 191.665 147.827C190.242 147.912 189.573 148.667 189.935 149.93C190.339 151.906 191.136 153.286 192.645 154.624C194.472 156.514 196.576 158.244 199.072 159.38C201.568 160.516 203.12 162.565 204.119 164.933C205.118 167.301 206.945 169.191 209.441 170.327C210.472 170.836 211.778 171.186 212.968 171.972C214.594 172.874 215.507 173.819 216.188 175.635C216.911 178.163 218.738 180.053 220.842 181.783C224.57 184.416 228.299 187.049 232.145 189.246C235.236 190.774 237.934 192.898 240.357 195.18C241.111 195.849 241.43 196.401 241.908 197.23C242.864 198.886 242.95 200.309 241.771 202.094C240.71 203.443 239.17 203.964 237.428 203.497C233.784 202.288 229.982 200.802 226.412 198.446C225.063 197.384 223.438 196.482 221.929 195.144C220.739 194.358 219.273 193.732 217.691 193.542C215.832 193.51 213.93 192.768 212.305 191.865C207.705 188.999 205.038 185.017 203.04 180.281C201.563 177.085 199.693 174.483 196.485 173.39C190.504 171.321 186.53 166.989 182.79 161.786C181.239 159.737 179.412 157.847 176.915 156.711C175.449 156.085 174.026 156.17 172.964 157.52C171.743 158.593 171.51 159.464 172.307 160.844C172.944 161.949 173.147 162.936 174.06 163.881C176.483 166.164 178.629 168.606 181.444 170.294C182.474 170.803 183.229 171.472 184.259 171.982C187.467 173.074 190.165 175.198 193.373 176.291C196.741 177.66 198.175 180.144 197.953 183.586C197.922 185.444 198.443 186.984 199.399 188.641C202.661 193.016 206.04 196.955 209.695 200.735C211.682 202.901 213.116 205.386 215.103 207.552C215.581 208.38 216.336 209.049 216.814 209.877C217.292 210.705 217.93 211.81 218.408 212.638C219.088 214.454 218.898 216.037 217.677 217.11C216.615 218.459 214.873 217.992 213.407 217.366C212.376 216.857 211.346 216.347 210.432 215.402C205.949 212.1 201.423 208.087 196.94 204.786C194.996 203.331 192.776 202.036 190.598 201.453C186.243 200.286 182.791 197.494 180.559 193.628C177.53 188.383 175.213 183.094 171.908 178.008C170.793 176.075 169.401 174.302 167.616 173.124C166.862 172.455 165.991 172.221 164.844 172.147C162.985 172.116 162.157 172.594 161.69 174.336C160.713 177.109 160.842 179.244 163.104 181.25C165.367 183.257 167.514 185.699 170.053 187.546C173.941 190.455 176.332 194.596 178.171 199.057C178.49 199.609 178.532 200.32 178.692 200.596C178.703 203.167 180.254 205.216 181.922 206.83C184.026 208.56 184.706 210.376 184.718 212.947C184.686 214.805 185.483 216.186 186.833 217.247C189.255 219.53 190.573 222.451 191.062 225.849C191.307 227.548 190.957 228.855 190.331 230.321C189.036 232.541 186.944 233.381 184.447 232.245C180.921 230.6 178.063 228.201 175.598 225.206C173.77 223.316 172.219 221.267 170.116 219.537C169.361 218.868 168.766 218.475 168.171 218.082C167.577 217.689 166.982 217.297 166.429 217.615C165.877 217.934 165.92 218.646 165.963 219.357C165.846 219.793 166.165 220.345 166.048 220.781C166.771 223.308 166.942 226.155 167.665 228.682C167.867 229.67 167.91 230.381 167.836 231.529C167.688 233.823 165.914 235.215 163.62 235.067C160.614 234.961 158.511 233.231 156.8 230.906C154.452 227.476 152.263 224.322 150.191 220.733C148.437 217.696 146.684 214.659 144.93 211.622C144.293 210.517 143.655 209.413 142.741 208.468C141.349 206.695 141.073 206.854 139.619 208.798C138.324 211.019 137.188 213.515 136.488 216.128C135.438 220.047 134.068 223.415 132.583 227.218C132.19 227.813 131.956 228.684 131.564 229.278C130.661 230.904 129.164 232.136 127.146 231.829C125.128 231.522 123.779 230.46 123.098 228.644C122.259 226.552 121.419 224.46 121.131 222.049C120.599 217.939 120.619 213.51 121.074 209.198C121.456 206.032 122.432 203.26 123.844 200.604C125.139 198.384 126.158 196.323 126.741 194.146C127.325 191.968 128.387 190.619 129.724 189.11C130.67 188.197 131.455 187.007 132.241 185.817C132.75 184.787 132.591 184.511 131.56 184.001C129.34 182.706 128.543 181.326 129.243 178.713C129.551 176.694 130.729 174.91 132.226 173.677C133.724 172.445 134.074 171.138 133.117 169.482C132.161 167.825 132.628 166.083 133.53 164.458C133.806 164.298 133.923 163.863 133.923 163.863C132.69 162.366 132.531 162.09 132.531 162.09Z" fill="#248E94"/>
</svg>
