<svg width="423" height="232" viewBox="0 0 423 232" fill="none" xmlns="http://www.w3.org/2000/svg">
<path d="M323.195 137.246C323.73 141.017 326.138 143.812 328.081 147.087C335.84 159.243 343.606 171.872 349.491 185.004C352.921 192.507 355.886 200.489 357.435 208.496C358.45 212.731 358.527 217.454 358.605 222.178C358.612 222.65 358.612 222.65 358.62 223.122C358.628 223.595 358.636 224.067 358.163 224.075C357.691 224.082 357.211 223.618 357.203 223.146L357.195 222.673C356.166 217.493 353.262 213.289 351.295 208.596C348.848 203.44 346.874 198.275 344.892 192.639C341.446 184.191 337.063 176.231 332.681 168.272C329.282 162.658 326.355 157.037 322.956 151.423C320.524 147.211 319.022 142.039 318.945 137.316C318.906 134.954 318.41 133.545 316.026 132.167C314.121 131.253 311.736 129.875 309.824 128.489C309.382 130.386 310.342 131.315 310.83 132.252C316.676 143.022 322.058 154.273 327.896 164.571C334.222 175.806 338.666 187.544 339.82 200.281C340.401 206.886 340.51 213.498 340.138 219.646C340.146 220.118 340.154 220.591 339.689 221.071C339.225 221.551 338.76 222.031 338.272 221.094C337.792 220.629 337.304 219.693 337.289 218.748C336.77 215.922 335.779 213.103 335.26 210.277C332.233 198.516 327.803 187.722 322.43 176.944C318.527 169.449 313.688 162.442 310.722 154.459C307.284 146.484 304.783 138.02 305.581 129.031C305.534 126.197 304.566 124.796 302.189 123.89C300.285 122.976 298.844 121.582 296.475 121.149C296.026 122.574 296.994 123.975 297.49 125.384C299.975 132.902 301.996 140.901 304.482 148.419C306.456 153.584 308.438 159.221 311.35 163.897C313.781 168.109 315.748 172.802 317.714 177.494C319.689 182.658 322.136 187.815 323.646 193.46C325.163 199.577 326.673 205.221 326.774 211.361C326.79 212.306 327.293 214.188 325.876 214.211C324.467 214.706 324.436 212.817 323.948 211.88C321.966 206.243 319.984 200.606 317.529 194.977C315.075 189.348 312.14 183.255 308.748 178.113C305.845 173.909 303.87 168.745 301.431 164.06C297.521 156.093 294.083 148.118 292.047 139.175C291.528 136.348 290.537 133.53 290.49 130.696C289.964 127.398 290.862 124.548 291.76 121.699C292.186 118.857 292.658 118.849 289.801 117.479C288.376 117.03 286.936 115.636 285.047 115.667C285.093 118.501 286.077 120.847 286.58 122.729C288.562 128.365 289.135 134.498 289.701 140.158C290.831 151.478 293.379 162.775 298.273 173.089C301.223 180.127 304.637 186.685 308.524 193.236C310.956 197.448 312.915 201.668 315.346 205.88C315.354 206.352 315.834 206.817 315.841 207.289C315.849 207.761 315.865 208.706 315.392 208.714C314.92 208.721 314.448 208.729 313.968 208.265C313.008 207.335 312.048 206.406 311.56 205.469C308.176 200.8 304.8 196.604 301.416 191.935C293.681 181.196 286.418 170.448 282.431 157.758C279.961 151.184 278.9 144.115 278.311 137.038C277.242 129.496 279.015 122.38 281.268 115.729C282.166 112.88 282.166 112.88 279.309 111.509C275.98 110.146 273.115 108.304 269.786 106.941C269.306 106.476 268.353 106.02 267.889 106.5C267.424 106.98 267.44 107.924 267.447 108.397C268.508 115.466 269.569 122.535 270.63 129.605C271.676 135.729 272.721 141.854 274.239 147.971C275.764 154.56 278.691 160.182 281.153 166.283C283.112 170.503 285.071 174.722 287.03 178.942C290.948 187.382 294.866 195.822 295.966 205.253C295.982 206.198 296.957 208.071 295.54 208.094C294.131 208.59 294.1 206.701 293.612 205.764C290.67 199.198 287.263 193.112 283.384 187.034C279.009 179.546 274.642 172.531 270.267 165.044C263.933 153.337 259.473 140.654 259.713 126.477C259.62 120.809 260.471 115.125 262.268 109.427C264.064 103.728 264.064 103.728 258.357 101.459C256.933 101.01 255.5 100.089 254.076 99.6398C252.179 99.1985 251.714 99.6784 251.745 101.568C252.28 105.338 252.334 108.645 252.868 112.416C253.379 114.77 253.41 116.659 253.449 119.02C253.62 129.411 255.199 139.307 258.196 149.179C259.698 154.351 262.137 159.036 264.112 164.2C266.589 171.246 269.547 178.757 272.025 185.803C273.04 190.038 273.582 194.282 273.651 198.532C273.659 199.005 273.667 199.477 273.202 199.957C272.738 200.437 272.273 200.917 271.785 199.98C271.305 199.516 271.298 199.044 271.29 198.571C269.246 189.156 263.919 181.212 260.001 172.772C258.545 170.434 257.562 168.087 255.626 165.284C254.379 175.699 252.188 186.129 247.14 195.188C246.165 193.314 246.606 191.417 247.047 189.52C248.348 182.412 247.759 175.335 248.115 168.243C248.502 163.039 247.472 157.859 246.443 152.679C244.855 142.312 242.331 132.431 239.334 122.559C237.336 115.978 235.811 109.388 236.175 102.768C236.136 100.407 236.577 98.5098 236.538 96.1482C236.964 93.3065 235.524 91.9128 233.155 91.4792C230.306 90.5811 227.921 89.2027 225.551 88.7692C225.087 89.2492 225.087 89.2493 225.095 89.7216C228.006 94.3983 229.508 99.5706 231.483 104.735C233.968 112.254 236.918 119.292 237.995 127.306C239.551 135.784 241.58 144.255 241.247 152.765C240.938 162.691 239.204 172.168 235.573 181.205C235.58 181.677 235.116 182.157 235.116 182.157C235.123 182.629 234.651 182.637 234.179 182.645C233.707 182.653 233.699 182.18 233.219 181.716C233.203 180.771 233.18 179.354 233.164 178.409C234.016 172.726 233.451 167.066 233.358 161.398C233.667 151.472 232.567 142.041 230.515 132.153C228.494 124.155 226.481 116.628 223.988 108.638C222.006 103.001 220.968 97.3486 220.875 91.6808C220.859 90.7362 220.844 89.7913 220.828 88.8467C220.797 86.9574 219.83 85.556 217.933 85.1147C215.563 84.6812 213.186 83.7753 211.282 82.8617C210.802 82.3971 209.849 81.9404 209.385 82.4205C208.448 82.9083 209.408 83.8374 209.423 84.7821C209.919 86.1913 210.414 87.6003 210.91 89.0095C213.899 98.4094 216.896 108.282 218.003 118.185C218.537 121.956 218.592 125.262 219.126 129.033C219.707 135.637 220.768 142.707 221.349 149.311C221.898 154.027 222.448 158.742 222.526 163.466C222.596 167.716 223.13 171.487 223.672 175.731C224.198 179.029 224.725 182.327 225.252 185.626C225.259 186.098 225.275 187.043 225.283 187.515C224.826 188.468 224.354 188.475 223.873 188.011C223.393 187.546 222.906 186.609 222.89 185.665C218.422 172.509 214.891 158.867 211.833 145.216C210.826 141.453 210.299 138.154 209.293 134.391C207.249 124.976 205.677 115.553 204.105 106.13C203.059 100.005 202.966 94.337 204.29 88.6459C204.731 86.7488 204.7 84.8595 204.669 82.9702C204.646 81.5532 204.166 81.0887 203.214 80.6319C199.892 79.7415 196.09 78.3865 192.296 77.5039C192.327 79.3932 193.287 80.3224 193.783 81.7316C196.238 87.3607 197.283 93.4852 197.864 100.09C198.515 110.946 198.693 121.809 200.288 132.649C201.38 141.608 202.48 151.039 203.572 159.997C204.633 167.066 205.221 174.143 206.282 181.213C206.785 183.094 206.824 185.456 207.327 187.337C207.335 187.81 207.823 188.747 206.886 189.235C205.949 189.722 205.454 188.313 204.974 187.849C203.99 185.503 203.015 183.629 202.504 181.275C199.027 170.938 196.495 160.586 193.49 150.241C191.98 144.597 190.935 138.472 190.362 132.34C189.309 125.743 189.2 119.13 188.147 112.533C187.59 107.345 187.504 102.15 187.419 96.9545C187.372 94.1206 187.79 90.8064 188.216 87.9648C188.642 85.1231 189.068 82.2815 189.494 79.4398C189.47 78.0228 189.455 77.078 187.558 76.6367C182.804 74.825 182.331 74.8328 181.944 80.0361C181.534 83.8224 181.132 88.081 181.194 91.8596C181.31 98.9444 180.474 105.572 179.638 112.2C179.22 115.514 178.802 118.828 178.848 121.662C178.91 125.441 178.492 128.755 178.082 132.541C177.711 138.689 177.339 144.837 176.968 150.985C176.619 158.55 176.743 166.107 176.867 173.664C176.914 176.498 176.953 178.86 177.464 181.214C177.472 181.686 177.479 182.158 177.487 182.63C177.51 184.047 178.006 185.457 176.597 185.952C175.18 185.975 175.149 184.086 174.661 183.149C172.64 175.151 171.099 167.617 170.495 159.595C169.945 154.88 169.395 150.164 168.845 145.449C168.257 138.372 168.148 131.759 168.504 124.667C168.883 118.991 169.263 113.316 169.642 107.64C170.447 99.1226 172.204 91.0624 174.434 82.9942C175.34 80.6171 176.254 78.7121 177.167 76.8073C178.538 73.9501 178.057 73.4857 175.208 72.5876C170.462 71.2482 169.99 71.2559 168.658 76.4746C165.979 85.9676 163.3 95.4604 161.102 105.418C158.919 116.32 155.791 127.238 153.135 138.148C151.378 146.208 148.66 153.339 145.478 160.951C145.021 161.903 144.572 163.328 143.643 164.288C143.179 164.768 142.714 165.248 142.234 164.784C141.754 164.319 141.746 163.847 141.739 163.374C142.18 161.477 142.141 159.116 142.582 157.219C144.781 147.261 145.563 137.327 146.817 127.385C147.645 120.285 147.994 112.72 149.766 105.604C151.501 96.1265 154.667 87.5707 160.683 79.9127C162.533 77.5201 164.864 75.5921 166.234 72.7349C167.148 70.8301 167.14 70.3576 165.243 69.9163C163.346 69.475 161.922 69.026 160.025 68.5847C158.6 68.1356 157.671 69.0957 157.214 70.0481C154.497 77.1794 150.354 83.8618 146.677 90.0639C143.471 96.2584 140.738 102.445 138.005 108.632C133.461 119.573 128.924 130.986 124.379 141.927C123.922 142.879 123.466 143.832 123.001 144.312C122.536 144.792 122.072 145.272 121.592 144.807C120.639 144.35 120.632 143.878 121.096 143.398C121.088 142.926 121.081 142.453 121.545 141.973C123.798 135.322 124.146 127.757 125.447 120.649C127.63 109.747 129.806 98.3726 135.318 88.8331C139.004 83.1033 142.689 77.3734 147.327 72.1003C148.72 70.6601 150.586 69.212 152.452 67.764C152.917 67.284 153.389 67.2763 153.374 66.3316C150.997 65.4258 148.627 64.9924 146.258 64.5588C144.833 64.1098 143.912 65.5421 143.455 66.4945C141.164 70.7841 138.4 75.0816 135.163 79.3867C125.446 91.8298 117.642 105.659 110.79 119.945C109.42 122.802 108.049 125.659 107.159 128.981C106.695 129.461 106.71 130.406 105.758 129.949C104.805 129.492 105.27 129.012 105.262 128.54C105.696 126.17 106.609 124.266 107.043 121.896C109.187 108.633 114.653 96.2589 121.079 84.8147C124.292 79.0926 128.93 73.8196 133.103 69.0266C134.962 67.1063 137.3 65.6506 139.638 64.1949C137.246 62.3444 132.507 61.4772 130.153 61.9883C129.209 62.0038 128.744 62.4839 128.287 63.4363C127.823 63.9163 127.366 64.8688 127.374 65.3412C124.633 71.0555 119.988 75.8564 114.846 79.2479C110.65 82.6239 105.973 85.5352 102.257 89.3758C97.6038 93.7042 94.3753 98.4817 91.1544 103.732C90.6899 104.212 90.6976 104.684 90.233 105.164C90.233 105.164 89.7686 105.644 89.2962 105.652C88.3439 105.195 88.8007 104.243 88.7929 103.77C89.6445 98.0869 91.9284 93.3249 94.6847 88.5552C100.654 78.0633 108.559 70.3746 119.337 65.0007C121.211 64.0251 123.076 62.5771 124.95 61.6014C124.95 61.6014 124.942 61.1289 125.415 61.1212C125.407 60.6488 124.927 60.1845 124.455 60.1923C114.505 58.4658 104.084 56.7471 93.6774 55.973C84.6881 55.1757 75.6989 54.3784 66.7174 54.0533C57.2636 53.7361 48.2821 53.4108 38.8283 53.0936C32.6806 52.722 26.5483 53.2953 20.8729 52.916C16.1421 52.5212 11.4191 52.5987 6.68831 52.2039C4.79135 51.7626 3.3667 51.3135 2.39884 49.9121C-0.00142746 47.5892 0.888967 44.2676 3.21945 42.3395C4.62087 41.3716 6.51008 41.3406 7.92697 41.3173C15.4838 41.1933 23.5207 41.5338 31.0853 41.8821C32.9745 41.8511 34.8637 41.8201 37.2252 41.7813C49.0328 41.5875 60.8481 41.8658 72.2066 43.0967C82.6205 44.3431 93.4991 45.1096 103.913 46.356C112.438 47.6334 120.962 48.9107 129.959 50.1803C133.273 50.5984 133.273 50.5985 134.636 47.269C135.991 43.4672 136.401 39.6807 137.284 35.8867C140.435 26.386 146.451 18.7281 153.899 11.9915C156.694 9.58342 159.489 7.17535 163.244 5.69636C164.181 5.20854 165.11 4.2485 166.07 5.17765C167.03 6.10678 165.149 6.61011 164.692 7.5625C160.968 10.9308 157.724 14.7634 154.96 19.0608C151.731 23.8383 148.983 29.0804 146.234 34.3225C143.95 39.0844 141.202 44.3265 138.438 48.6239C137.973 49.1039 137.044 50.0641 138.004 50.9932C138.964 51.9224 141.326 51.8836 141.783 50.9312C142.247 50.4511 142.704 49.4987 143.161 48.5463C146.327 39.9903 151.879 32.8125 157.43 25.6347C164.367 16.5443 173.728 11.1936 184.064 7.71683C184.537 7.70908 184.537 7.70896 185.017 8.17354C185.032 9.11817 184.568 9.59847 184.095 9.60622C177.576 15.3826 172.017 22.088 165.978 28.3289C159.466 34.5776 153.915 41.7554 148.364 48.9333C146.056 52.2783 146.056 52.2784 150.323 53.1532C151.267 53.1377 151.747 53.6022 152.692 53.5867C156.014 54.4771 156.014 54.4772 156.912 51.6278C160.078 43.0718 165.157 35.9015 171.196 29.6605C175.377 25.3399 179.566 21.4915 184.227 17.6354C188.424 14.2594 192.636 11.8281 197.312 8.91665C198.713 7.94874 200.587 6.97326 202.476 6.94225C202.5 8.35922 202.027 8.36697 201.098 9.32711C193.642 15.5913 187.146 22.7845 181.13 30.4424C174.642 38.1081 168.626 45.7662 162.123 52.4872C161.666 53.4396 160.257 53.9352 160.744 54.8721C161.24 56.2813 162.177 55.7934 163.129 56.2502C164.554 56.6993 165.979 57.1483 167.876 57.5896C169.3 58.0386 170.237 57.5509 170.686 56.1262C174.727 43.3037 184.026 34.1745 193.333 25.5176C200.316 19.2612 207.796 14.414 215.763 10.5037C218.109 9.52028 220.455 8.53686 222.809 8.02578C223.281 8.01802 223.753 8.01015 224.233 8.47473C224.721 9.41161 223.777 9.42706 223.312 9.90713C219.565 11.8584 215.353 14.2898 212.093 17.178C205.566 22.4821 199.999 28.7153 194.432 34.9485C190.724 39.2615 187.487 43.5667 183.779 47.8796C181.464 50.7523 179.141 53.1525 175.874 55.5684C174.937 56.0562 174.48 57.0086 173.551 57.9687C172.622 58.9289 173.102 59.3936 174.054 59.8504C175.951 60.2917 177.856 61.2054 179.753 61.6468C180.705 62.1036 181.642 61.6157 182.099 60.6633C182.556 59.7109 183.492 59.2231 183.949 58.2707C187.596 50.1792 194.107 43.9304 201.099 38.1463C210.893 30.4264 221.175 23.6432 231.945 17.7971C237.094 14.8779 242.731 12.8955 248.855 11.8501C250.272 11.8268 252.146 10.8513 252.641 12.2605C253.137 13.6697 250.775 13.7083 249.839 14.1962C237.636 19.121 227.85 27.3133 217.591 35.5133C208.269 43.2255 198.955 51.4101 189.633 59.1223C188.231 60.0902 186.83 61.058 185.428 62.0259C188.293 63.8687 191.607 64.2868 194.929 65.1772C195.401 65.1694 196.346 65.1537 196.338 64.6814C196.802 64.2013 196.795 63.7291 197.259 63.249C199.535 58.0147 204.196 54.1586 208.385 50.3102C220.502 40.1899 233.595 31.9435 247.168 24.1616C251.844 21.2501 256.056 18.8188 261.22 16.8442C265.448 15.3574 269.675 13.8706 273.918 13.3285C274.391 13.3208 275.327 12.8329 275.815 13.7697C275.831 14.7144 274.886 14.7301 273.949 15.218C265.502 18.6638 258.031 23.9831 250.559 29.3027C245.426 33.1666 240.292 37.0304 235.151 40.4219C229.546 44.2935 224.892 48.6219 219.759 52.4857C214.618 55.8773 209.957 59.7334 204.816 63.125C203.414 64.0928 201.541 65.0685 200.132 65.5641C200.147 66.5087 201.092 66.4932 201.572 66.9577C204.901 68.3204 208.223 69.2108 211.545 70.1012C214.394 70.9993 214.866 70.9918 215.764 68.1423C217.096 62.9235 220.332 58.6182 223.576 54.7853C233.773 42.8067 246.386 34.0957 260.439 26.7783C268.87 22.3879 277.79 18.9344 286.725 16.4255C289.551 15.9067 291.889 14.4508 294.723 14.4043C295.195 14.3966 296.132 13.9089 296.147 14.8536C296.155 15.3259 295.691 15.8059 295.226 16.286C294.762 16.766 294.289 16.7738 293.825 17.2539C282.102 22.6433 271.356 29.9063 261.081 37.1617C255.011 41.5133 248.926 44.9202 243.335 49.7365C236.344 55.5206 229.352 61.305 222.849 68.026C221.92 68.9862 220.518 69.9539 219.597 71.3863C218.203 72.8265 218.683 73.2911 220.108 73.7402C222.493 75.1184 223.91 75.0953 224.816 72.7182C229.848 62.7142 238.249 56.4344 247.617 51.5561C256.049 47.1657 264.961 43.2398 273.872 39.3139C282.784 35.3881 291.208 30.5252 299.624 25.1901C301.49 23.7421 303.836 22.7588 306.174 21.303C306.639 20.823 307.111 20.8152 307.591 21.2798C308.071 21.7444 307.607 22.2244 307.615 22.6967C305.764 25.0893 303.906 27.0098 301.575 28.9379C292.726 36.6423 282.924 43.8899 272.626 49.7283C266.54 53.1353 260.455 56.5422 253.897 59.957C245.465 64.3475 237.506 68.7301 229.554 73.5851C229.089 74.0652 228.617 74.073 228.153 74.5531C226.751 75.521 226.759 75.9933 228.191 76.9147C231.993 78.2696 235.795 79.6245 239.604 81.4518C241.037 82.3732 241.486 80.9485 241.943 79.9961C243.305 76.6666 245.156 74.2739 247.478 71.8736C249.336 69.9533 250.722 68.0409 253.061 66.5851C260.052 60.801 268.004 55.946 276.443 52.0279C281.135 50.0611 285.347 47.6296 290.031 45.1904C296.125 42.2557 302.691 39.3132 308.792 36.8508C314.893 34.3884 320.994 31.926 327.568 29.4559C328.04 29.4481 328.505 28.968 328.985 29.4326C329 30.3773 328.071 31.3374 327.606 31.8175C323.89 35.6581 319.694 39.0343 315.017 41.9457C306.601 47.2808 297.712 52.6235 288.808 57.0217C275.22 63.859 263.064 71.6177 250.924 80.321C249.523 81.2889 247.649 82.2646 246.255 83.7048C248.648 85.5554 251.025 86.4612 253.402 87.367C258.164 89.6511 258.164 89.6513 260.928 85.3539C262.77 82.489 264.621 80.0963 267.424 78.1605C268.825 77.1926 270.226 76.2247 271.148 74.7922C275.793 69.9915 281.414 67.0646 287.028 63.6653C297.798 57.8191 309.048 52.4376 320.305 47.5283C324.06 46.0493 327.816 44.5702 331.571 43.0913C338.601 39.6687 345.639 36.7185 352.685 34.2407C353.622 33.7528 354.086 33.2727 355.047 34.2019C355.534 35.1388 354.597 35.6264 354.133 36.1065C347.134 41.4183 340.614 47.1949 333.135 52.0422C325.656 56.8895 317.216 60.8075 308.777 64.7256C297.519 69.6348 286.269 75.0166 275.979 81.3273C271.303 84.2387 267.106 87.6148 262.438 90.9985C262.453 91.9432 263.406 92.3999 263.878 92.3922C267.215 94.2272 270.544 95.5898 273.881 97.4248C275.306 97.8738 275.778 97.866 276.7 96.4336C280.819 88.3343 287.818 83.0226 294.825 78.1831C301.832 73.3436 308.854 69.4488 316.845 66.9554C323.426 64.9575 330.015 63.4319 337.084 62.371C347.444 60.3111 357.811 58.7238 368.148 55.247C369.084 54.7592 370.501 54.7359 371.926 55.185C371.949 56.6019 371.005 56.6172 370.068 57.1051C361.172 61.9756 352.26 65.9015 342.868 69.3628C331.122 73.3351 319.377 77.3077 307.647 82.2247C298.263 86.1584 289.839 91.021 281.911 97.293C279.108 99.2288 279.116 99.701 281.973 101.071C284.83 102.442 285.302 102.434 286.68 100.05C289.909 95.2721 294.113 92.3683 299.262 89.4491C309.559 83.6107 320.84 80.1184 332.617 78.0353C339.686 76.9744 346.763 76.3856 353.863 77.2139C360.483 77.5777 367.583 78.406 374.211 79.2422C374.683 79.2344 374.683 79.2344 375.155 79.2266C376.1 79.2111 377.517 79.1878 377.54 80.6048C377.563 82.0217 376.139 81.5727 375.194 81.5883C369.534 82.1536 363.882 83.1912 358.214 83.2843C355.853 83.323 353.499 83.8343 351.61 83.8653C338.881 85.4916 326.16 87.5903 314.43 92.5073C308.329 94.9697 302.235 97.9042 296.142 100.839C294.268 101.815 292.386 102.318 290.513 103.294C289.576 103.781 289.111 104.262 290.072 105.191C292.936 107.033 295.793 108.404 298.651 109.774C299.603 110.231 300.547 110.216 301.004 109.263C301.469 108.783 302.398 107.823 302.39 107.351C305.146 102.581 309.351 99.6773 314.043 97.7105C322.954 93.7846 332.354 90.7957 342.257 89.6883C355.93 88.0465 369.178 89.2461 382.457 92.3353C383.409 92.7921 384.826 92.7691 385.786 93.6982C385.329 94.6506 384.385 94.6658 383.913 94.6736C381.079 94.7201 378.237 94.2944 375.403 94.341C367.839 93.9927 359.817 94.5968 352.284 96.1378C345.687 97.1909 339.098 98.7166 332.517 100.714C326.88 102.697 320.771 104.687 315.135 106.669C312.316 107.66 309.97 108.644 307.152 109.635C305.743 110.13 304.341 111.098 302.948 112.538C304.86 113.924 306.765 114.838 308.197 115.759C309.15 116.216 310.094 116.201 311.023 115.241C315.653 109.495 322.699 107.017 329.761 105.484C332.114 104.973 334.468 104.462 336.822 103.951C345.765 101.914 354.731 101.295 364.177 101.14C374.103 101.449 383.115 103.663 392.608 106.342L393.08 106.334C393.552 106.327 394.033 106.791 393.568 107.271C393.576 107.744 393.103 107.752 392.631 107.759C390.742 107.79 389.317 107.341 387.428 107.372C379.856 106.551 371.834 107.156 364.285 107.752C356.736 108.348 349.195 109.417 341.661 110.958C336.481 111.988 331.309 113.49 326.145 115.465C322.39 116.944 318.627 117.951 314.856 118.485C314.384 118.493 313.912 118.5 313.919 118.973C316.327 121.768 317.28 122.225 320.082 120.289C325.696 116.889 332.293 115.836 338.897 115.255C350.217 114.125 361.103 115.364 372.005 117.547C378.168 118.863 384.339 120.651 390.518 122.912C394.792 124.259 399.073 126.079 403.828 127.891C404.3 127.883 404.78 128.348 404.788 128.82C403.858 129.78 402.898 128.851 401.954 128.866C396.735 127.535 391.052 126.683 385.841 125.824C380.158 124.972 374.018 125.073 368.335 124.221C356.032 123.006 344.216 122.727 331.944 123.401C329.111 123.448 326.284 123.967 322.986 124.493C325.386 126.816 327.771 128.194 330.156 129.572C331.108 130.029 332.517 129.534 333.927 129.038C338.619 127.071 343.791 125.569 348.994 125.956C350.883 125.925 352.308 126.374 354.197 126.343C362.249 127.628 369.822 128.449 377.417 130.686C384.533 132.459 391.192 135.185 397.858 138.383C404.525 141.58 410.734 145.73 417.873 148.92C418.346 148.912 418.353 149.385 418.833 149.849C418.377 150.802 417.432 150.817 416.48 150.36C412.693 149.95 409.364 148.588 405.57 147.705C395.605 145.034 385.625 141.418 375.66 138.747C368.544 136.974 361.437 135.673 354.336 134.845C349.133 134.458 343.466 134.551 338.255 133.692C337.783 133.699 337.31 133.707 336.846 134.187C338.766 136.045 341.623 137.416 344.016 139.266C344.496 139.731 345.44 139.715 345.905 139.235C357.689 137.625 368.126 140.288 379.075 145.305C388.59 149.401 396.728 155.881 404.873 162.834C407.746 165.15 410.626 167.937 413.499 170.252C414.931 171.174 415.892 172.103 416.852 173.032C416.395 173.984 415.915 173.52 415.443 173.527C413.066 172.622 411.161 171.708 408.784 170.802C400.677 166.211 392.09 161.155 383.984 156.563C381.599 155.185 379.222 154.279 376.845 153.373C370.666 151.112 364.952 148.372 358.309 146.591C356.412 146.15 354.507 145.236 352.61 144.794C352.625 145.739 353.578 146.196 354.05 146.188C354.53 146.653 355.01 147.117 355.483 147.11C365.502 153.087 373.67 161.457 381.831 169.355C388.552 175.859 395.273 182.363 401.529 189.347C408.266 196.795 414.065 204.732 418.471 214.108C419.446 215.982 420.894 217.848 421.87 219.722C422.35 220.186 422.358 220.659 421.893 221.139C421.429 221.619 420.949 221.154 420.476 221.162C413.268 213.721 403.744 209.153 397 201.232C392.192 196.114 387.376 190.524 382.567 185.406C378.231 180.28 373.423 175.162 368.623 170.516C363.334 164.934 358.983 158.864 353.694 153.281C349.846 149.092 346.005 145.375 340.764 142.627C341.732 144.028 343.172 145.422 344.14 146.823C351.813 153.784 356.675 162.208 362.01 170.625C366.385 178.112 370.76 185.6 374.67 193.567C378.603 202.951 382.545 212.808 384.597 222.696C384.612 223.641 385.58 225.042 384.171 225.537C382.762 226.033 382.739 224.616 382.251 223.679C380.787 220.869 379.796 218.05 378.341 215.712C374.43 207.744 370.063 200.729 365.216 193.25C357.953 182.503 351.171 172.22 344.845 160.985C341.438 154.899 338.968 148.326 336.97 141.744C336.466 139.863 335.499 138.461 333.594 137.548C327.02 140.018 325.108 138.632 323.195 137.246ZM244.312 109.249L244.785 109.241C245.234 107.817 246.147 105.912 246.596 104.487C248.857 98.3081 247.92 98.7958 243.638 96.9763C243.166 96.984 243.159 96.5118 242.686 96.5196C240.789 96.0783 240.325 96.5583 240.82 97.9675C241.835 102.203 242.833 105.494 244.312 109.249Z" fill="#8EDAA7"/>
</svg>
