<svg width="18" height="15" viewBox="0 0 18 15" fill="none" xmlns="http://www.w3.org/2000/svg">
<path d="M9 4.99992C9.27614 4.99992 9.5 5.22377 9.5 5.49992V9.49991C9.5 9.77606 9.27614 9.99991 9 9.99991C8.72386 9.99991 8.5 9.77606 8.5 9.49991V5.49992C8.5 5.22377 8.72386 4.99992 9 4.99992ZM9 12.4999C9.41421 12.4999 9.75 12.1641 9.75 11.7499C9.75 11.3357 9.41421 10.9999 9 10.9999C8.58579 10.9999 8.25 11.3357 8.25 11.7499C8.25 12.1641 8.58579 12.4999 9 12.4999ZM7.68569 0.852074C8.25558 -0.184088 9.74445 -0.184091 10.3143 0.852072L16.8731 12.777C17.4229 13.7767 16.6996 14.9999 15.5587 14.9999H2.44129C1.30038 14.9999 0.577137 13.7767 1.12696 12.777L7.68569 0.852074ZM9.43812 1.33399C9.24816 0.988605 8.75187 0.988604 8.56191 1.33399L2.00318 13.259C1.8199 13.5922 2.06098 13.9999 2.44129 13.9999H15.5587C15.939 13.9999 16.1801 13.5922 15.9969 13.259L9.43812 1.33399Z" fill="#FFAA2B"/>
</svg>
