<?xml version="1.0" encoding="UTF-8"?>
<svg width="24px" height="24px" viewBox="0 0 24 24" version="1.1" xmlns="http://www.w3.org/2000/svg" xmlns:xlink="http://www.w3.org/1999/xlink">
    <!-- Generator: sketchtool 52.6 (67491) - http://www.bohemiancoding.com/sketch -->
    <title>14A026C6-5E2C-491B-B1F8-F6E0B9CD225A</title>
    <desc>Created with sketchtool.</desc>
    <g id="Page-1" stroke="none" stroke-width="1" fill="none" fill-rule="evenodd">
        <g id="landing_davinci_FOR-TOUR-OPERATORS" transform="translate(-728.000000, -942.000000)">
            <g id="outline-dashboard-24px" transform="translate(728.000000, 942.000000)">
                <polygon id="Path" points="0 0 24 0 24 24 0 24"></polygon>
                <path d="M9,5 L9,11 L5,11 L5,5 L9,5 Z M19,13 L19,19 L15,19 L15,13 L19,13 Z M11,3 L3,3 L3,13 L11,13 L11,3 Z M21,11 L13,11 L13,21 L21,21 L21,11 Z" id="Shape" fill="#4D5158" fill-rule="nonzero"></path>
                <path d="M21,3 L13,3 L13,9 L21,9 L21,3 Z M19,5 L19,7 L15,7 L15,5 L19,5 Z" id="Path-2" fill="#05B9E6" fill-rule="nonzero"></path>
                <path d="M11,15 L11,21 L3,21 L3,15 L11,15 Z M9,17 L5,17 L5,19 L9,19 L9,17 Z" id="Combined-Shape" fill="#05B9E6" fill-rule="nonzero"></path>
            </g>
        </g>
    </g>
</svg>