<?xml version="1.0" encoding="UTF-8"?>
<svg width="24px" height="24px" viewBox="0 0 24 24" version="1.1" xmlns="http://www.w3.org/2000/svg" xmlns:xlink="http://www.w3.org/1999/xlink">
    <!-- Generator: sketchtool 52.6 (67491) - http://www.bohemiancoding.com/sketch -->
    <title>60F07F61-74FE-4DB8-BB4B-787093BB046C</title>
    <desc>Created with sketchtool.</desc>
    <g id="Page-1" stroke="none" stroke-width="1" fill="none" fill-rule="evenodd">
        <g id="landing_davinci_FOR-TOUR-OPERATORS" transform="translate(-104.000000, -846.000000)">
            <g id="outline-loyalty-24px" transform="translate(104.000000, 846.000000)">
                <polygon id="Path" points="0 0 24 0 24 24 0 24"></polygon>
                <path d="M21.41,11.58 L12.41,2.58 C12.05,2.22 11.55,2 11,2 L4,2 C2.9,2 2,2.9 2,4 L2,11 C2,11.55 2.22,12.05 2.59,12.42 L11.59,21.42 C11.95,21.78 12.45,22 13,22 C13.55,22 14.05,21.78 14.41,21.41 L21.41,14.41 C21.78,14.05 22,13.55 22,13 C22,12.45 21.77,11.94 21.41,11.58 Z M13,20.01 L4,11 L4,4 L11,4 L11,3.99 L20,12.99 L13,20.01 Z" id="Shape" fill="#4D5158" fill-rule="nonzero"></path>
                <circle id="Oval" fill="#4D5158" cx="6.5" cy="6.5" r="1.5"></circle>
                <path d="M8.9,12.55 C8.9,13.12 9.13,13.62 9.5,14 L13,17.5 L16.5,14 C16.87,13.63 17.1,13.11 17.1,12.55 C17.1,11.42 16.18,10.5 15.05,10.5 C14.48,10.5 13.97,10.73 13.6,11.1 L13,11.7 L12.4,11.11 C12.03,10.73 11.51,10.5 10.95,10.5 C9.82,10.5 8.9,11.42 8.9,12.55 Z" id="Path" fill="#05B9E6"></path>
            </g>
        </g>
    </g>
</svg>