<?xml version="1.0" encoding="UTF-8"?>
<svg width="128px" height="112px" viewBox="0 0 128 112" version="1.1" xmlns="http://www.w3.org/2000/svg" xmlns:xlink="http://www.w3.org/1999/xlink">
    <!-- Generator: sketchtool 52.6 (67491) - http://www.bohemiancoding.com/sketch -->
    <title>B1A0EC1F-38A4-4C2A-9C60-73166C87F0B7</title>
    <desc>Created with sketchtool.</desc>
    <g id="Page-1" stroke="none" stroke-width="1" fill="none" fill-rule="evenodd">
        <g id="landing_davinci_FOR-TOUR-OPERATORS" transform="translate(-104.000000, -1470.000000)">
            <g id="Receive-offers" transform="translate(104.000000, 1470.000000)">
                <rect id="Rectangle-Copy-9" fill-rule="nonzero" x="0" y="0" width="128" height="112"></rect>
                <g id="Group" transform="translate(8.000000, 5.000000)">
                    <path d="M11,2 C6.02943725,2 2,6.02943725 2,11 L2,79 C2,83.9705627 6.02943725,88 11,88 L101,88 C105.970563,88 110,83.9705627 110,79 L110,11 C110,6.02943725 105.970563,2 101,2 L11,2 Z M11,0 L101,0 C107.075132,-1.11598369e-15 112,4.92486775 112,11 L112,79 C112,85.0751322 107.075132,90 101,90 L11,90 C4.92486775,90 7.43989126e-16,85.0751322 0,79 L0,11 C-7.43989126e-16,4.92486775 4.92486775,1.11598369e-15 11,0 Z" id="Rectangle" fill="#05B9E6" fill-rule="nonzero"></path>
                    <rect id="Rectangle" fill="#05B9E6" x="2" y="76" width="108" height="2"></rect>
                    <rect id="Rectangle-Copy" fill="#05B9E6" x="21" y="100" width="70" height="2"></rect>
                    <rect id="Rectangle-Copy" fill="#05B9E6" transform="translate(38.000000, 95.500000) scale(1, -1) translate(-38.000000, -95.500000) " x="37" y="90" width="2" height="11"></rect>
                    <rect id="Rectangle-Copy-4" fill="#05B9E6" transform="translate(74.000000, 95.500000) scale(1, -1) translate(-74.000000, -95.500000) " x="73" y="90" width="2" height="11"></rect>
                    <rect id="Rectangle-Copy-2" fill="#05B9E6" x="16" y="27" width="57" height="2"></rect>
                    <rect id="Rectangle-Copy-2" fill="#05B9E6" x="16" y="38" width="57" height="2"></rect>
                    <rect id="Rectangle-Copy-2" fill="#05B9E6" x="16" y="49" width="57" height="2"></rect>
                    <rect id="Rectangle-Copy-2" fill="#05B9E6" x="16" y="60" width="57" height="2"></rect>
                    <rect id="Rectangle-Copy-3" fill="#05B9E6" x="16" y="16" width="57" height="2"></rect>
                    <path d="M95.3116883,11.2920991 C95.7026512,10.9020139 96.3358157,10.9027254 96.7259009,11.2936883 C97.1159861,11.6846512 97.1152746,12.3178157 96.7243117,12.7079009 L88.7063117,20.7079009 C88.3156595,21.0976762 87.6831072,21.0973208 87.2928932,20.7071068 L84.2928932,17.7071068 C83.9023689,17.3165825 83.9023689,16.6834175 84.2928932,16.2928932 C84.6834175,15.9023689 85.3165825,15.9023689 85.7071068,16.2928932 L88.0007942,18.5865806 L95.3116883,11.2920991 Z" id="Path" fill="#3DBAE4" fill-rule="nonzero"></path>
                    <path d="M95.3116883,21.2920991 C95.7026512,20.9020139 96.3358157,20.9027254 96.7259009,21.2936883 C97.1159861,21.6846512 97.1152746,22.3178157 96.7243117,22.7079009 L88.7063117,30.7079009 C88.3156595,31.0976762 87.6831072,31.0973208 87.2928932,30.7071068 L84.2928932,27.7071068 C83.9023689,27.3165825 83.9023689,26.6834175 84.2928932,26.2928932 C84.6834175,25.9023689 85.3165825,25.9023689 85.7071068,26.2928932 L88.0007942,28.5865806 L95.3116883,21.2920991 Z" id="Path" fill="#3DBAE4" fill-rule="nonzero"></path>
                    <path d="M95.3116883,31.2920991 C95.7026512,30.9020139 96.3358157,30.9027254 96.7259009,31.2936883 C97.1159861,31.6846512 97.1152746,32.3178157 96.7243117,32.7079009 L88.7063117,40.7079009 C88.3156595,41.0976762 87.6831072,41.0973208 87.2928932,40.7071068 L84.2928932,37.7071068 C83.9023689,37.3165825 83.9023689,36.6834175 84.2928932,36.2928932 C84.6834175,35.9023689 85.3165825,35.9023689 85.7071068,36.2928932 L88.0007942,38.5865806 L95.3116883,31.2920991 Z" id="Path" fill="#3DBAE4" fill-rule="nonzero"></path>
                    <path d="M95.3116883,42.2920991 C95.7026512,41.9020139 96.3358157,41.9027254 96.7259009,42.2936883 C97.1159861,42.6846512 97.1152746,43.3178157 96.7243117,43.7079009 L88.7063117,51.7079009 C88.3156595,52.0976762 87.6831072,52.0973208 87.2928932,51.7071068 L84.2928932,48.7071068 C83.9023689,48.3165825 83.9023689,47.6834175 84.2928932,47.2928932 C84.6834175,46.9023689 85.3165825,46.9023689 85.7071068,47.2928932 L88.0007942,49.5865806 L95.3116883,42.2920991 Z" id="Path" fill="#3DBAE4" fill-rule="nonzero"></path>
                    <path d="M95.3116883,53.2920991 C95.7026512,52.9020139 96.3358157,52.9027254 96.7259009,53.2936883 C97.1159861,53.6846512 97.1152746,54.3178157 96.7243117,54.7079009 L88.7063117,62.7079009 C88.3156595,63.0976762 87.6831072,63.0973208 87.2928932,62.7071068 L84.2928932,59.7071068 C83.9023689,59.3165825 83.9023689,58.6834175 84.2928932,58.2928932 C84.6834175,57.9023689 85.3165825,57.9023689 85.7071068,58.2928932 L88.0007942,60.5865806 L95.3116883,53.2920991 Z" id="Path" fill="#3DBAE4" fill-rule="nonzero"></path>
                </g>
            </g>
        </g>
    </g>
</svg>