<?xml version="1.0" encoding="UTF-8"?>
<svg width="24px" height="24px" viewBox="0 0 24 24" version="1.1" xmlns="http://www.w3.org/2000/svg" xmlns:xlink="http://www.w3.org/1999/xlink">
    <!-- Generator: sketchtool 52.6 (67491) - http://www.bohemiancoding.com/sketch -->
    <title>9D2B18E8-AA2E-4539-990F-DE0F59B31E3B</title>
    <desc>Created with sketchtool.</desc>
    <g id="Page-1" stroke="none" stroke-width="1" fill="none" fill-rule="evenodd">
        <g id="landing_davinci_FOR-TOUR-OPERATORS" transform="translate(-104.000000, -894.000000)">
            <g id="outline-border_color-24px" transform="translate(104.000000, 894.000000)">
                <polygon id="Path" points="0 0 24 0 24 24 0 24"></polygon>
                <g id="Group-7" transform="translate(3.000000, 3.000000)" fill-rule="nonzero">
                    <path d="M10,4.25 L0,14.25 L0,18 L3.75,18 L13.75,8 L10,4.25 Z M2.92,16 L2,16 L2,15.08 L10,7.08 L10.92,8 L2.92,16 Z" id="Shape" fill="#05B9E6"></path>
                    <path d="M16.71,5.04 C17.1,4.65 17.1,4.02 16.71,3.63 L14.37,1.29 C13.98,0.9 13.35,0.9 12.96,1.29 L11,3.25 L14.75,7 L16.71,5.04 Z" id="Path" fill="#4D5158"></path>
                </g>
            </g>
        </g>
    </g>
</svg>