<?xml version="1.0" encoding="UTF-8"?>
<svg width="128px" height="112px" viewBox="0 0 128 112" version="1.1" xmlns="http://www.w3.org/2000/svg" xmlns:xlink="http://www.w3.org/1999/xlink">
    <!-- Generator: sketchtool 52.6 (67491) - http://www.bohemiancoding.com/sketch -->
    <title>F34B032C-0DE8-44E9-8508-6A4B57B1E5C6</title>
    <desc>Created with sketchtool.</desc>
    <g id="Page-1" stroke="none" stroke-width="1" fill="none" fill-rule="evenodd">
        <g id="landing_davinci_FOR-TOUR-OPERATORS" transform="translate(-104.000000, -1142.000000)">
            <g id="Request" transform="translate(104.000000, 1142.000000)">
                <rect id="Rectangle" fill-rule="nonzero" x="0" y="0" width="128" height="112"></rect>
                <g id="Group" transform="translate(8.000000, 5.000000)" fill="#05B9E6">
                    <path d="M11,2 C6.02943725,2 2,6.02943725 2,11 L2,79 C2,83.9705627 6.02943725,88 11,88 L101,88 C105.970563,88 110,83.9705627 110,79 L110,11 C110,6.02943725 105.970563,2 101,2 L11,2 Z M11,0 L101,0 C107.075132,-1.11598369e-15 112,4.92486775 112,11 L112,79 C112,85.0751322 107.075132,90 101,90 L11,90 C4.92486775,90 7.43989126e-16,85.0751322 0,79 L0,11 C-7.43989126e-16,4.92486775 4.92486775,1.11598369e-15 11,0 Z" id="Rectangle" fill-rule="nonzero"></path>
                    <rect id="Rectangle" x="2" y="76" width="108" height="2"></rect>
                    <rect id="Rectangle-Copy" x="22" y="100" width="70" height="2"></rect>
                    <rect id="Rectangle-Copy" transform="translate(39.000000, 95.500000) scale(1, -1) translate(-39.000000, -95.500000) " x="38" y="90" width="2" height="11"></rect>
                    <rect id="Rectangle-Copy-4" transform="translate(75.000000, 95.500000) scale(1, -1) translate(-75.000000, -95.500000) " x="74" y="90" width="2" height="11"></rect>
                    <rect id="Rectangle" x="36" y="57" width="32" height="2"></rect>
                    <rect id="Rectangle-Copy-8" x="78" y="57" width="17" height="2"></rect>
                    <rect id="Rectangle-Copy-2" x="36" y="37" width="62" height="2"></rect>
                    <rect id="Rectangle-Copy-3" x="36" y="17" width="62" height="2"></rect>
                </g>
                <path d="M31,22.9989416 C31,20.2389854 28.7599232,18 25.9989416,18 C23.2384728,18 21,20.2384728 21,22.9989416 C21,25.7612544 23.2382001,28 25.9989416,28 C28.7601961,28 31,25.7607417 31,22.9989416 Z M33,22.9989416 C33,26.8654203 29.8646565,30 25.9989416,30 C22.1335215,30 19,26.8657148 19,22.9989416 C19,19.1339033 22.1339033,16 25.9989416,16 C29.8642746,16 33,19.1341977 33,22.9989416 Z" id="Path" fill="#3DBAE4" fill-rule="nonzero"></path>
                <path d="M31,42.9989416 C31,40.2389854 28.7599232,38 25.9989416,38 C23.2384728,38 21,40.2384728 21,42.9989416 C21,45.7612544 23.2382001,48 25.9989416,48 C28.7601961,48 31,45.7607417 31,42.9989416 Z M33,42.9989416 C33,46.8654203 29.8646565,50 25.9989416,50 C22.1335215,50 19,46.8657148 19,42.9989416 C19,39.1339033 22.1339033,36 25.9989416,36 C29.8642746,36 33,39.1341977 33,42.9989416 Z" id="Path-Copy" fill="#3DBAE4" fill-rule="nonzero"></path>
                <path d="M31,62.9989416 C31,60.2389854 28.7599232,58 25.9989416,58 C23.2384728,58 21,60.2384728 21,62.9989416 C21,65.7612544 23.2382001,68 25.9989416,68 C28.7601961,68 31,65.7607417 31,62.9989416 Z M33,62.9989416 C33,66.8654203 29.8646565,70 25.9989416,70 C22.1335215,70 19,66.8657148 19,62.9989416 C19,59.1339033 22.1339033,56 25.9989416,56 C29.8642746,56 33,59.1341977 33,62.9989416 Z" id="Path-Copy-2" fill="#3DBAE4" fill-rule="nonzero"></path>
                <path d="M81.1055728,54.4472136 C80.694359,53.624786 81.5176156,52.7300436 82.3713622,53.0715119 L104.893362,62.0795119 C105.731511,62.4147418 105.731557,63.6011656 104.893433,63.9364596 L82.3714333,72.9464596 C81.5177184,73.2879911 80.694395,72.3933246 81.1055331,71.5708658 L85.3859908,63.0080496 L81.1055728,54.4472136 Z M87.3984272,62.5607864 C87.539177,62.8422859 87.5391917,63.1736221 87.3984669,63.4551342 L84.070443,70.1126597 L101.829469,63.0081031 L84.0706339,55.9051998 L87.3984272,62.5607864 Z" id="Path" fill="#3DBAE4" fill-rule="nonzero"></path>
            </g>
        </g>
    </g>
</svg>