<?xml version="1.0" encoding="UTF-8"?>
<svg width="24px" height="24px" viewBox="0 0 24 24" version="1.1" xmlns="http://www.w3.org/2000/svg" xmlns:xlink="http://www.w3.org/1999/xlink">
    <!-- Generator: sketchtool 52.6 (67491) - http://www.bohemiancoding.com/sketch -->
    <title>19A7659D-E5F5-435F-B344-0512EBE7ECE4</title>
    <desc>Created with sketchtool.</desc>
    <g id="Page-1" stroke="none" stroke-width="1" fill="none" fill-rule="evenodd">
        <g id="landing_davinci_FOR-TOUR-OPERATORS" transform="translate(-728.000000, -894.000000)">
            <g id="outline-headset_mic-24px" transform="translate(728.000000, 894.000000)">
                <polygon id="Path" points="0 0 24 0 24 24 0 24"></polygon>
                <path d="M19,14 L19,18 L17,18 L17,14 L19,14 Z M7,14 L7,18 L6,18 C5.45,18 5,17.55 5,17 L5,14 L7,14 Z M12,1 C7.03,1 3,5.03 3,10 L3,17 C3,18.66 4.34,20 6,20 L9,20 L9,12 L5,12 L5,10 C5,6.13 8.13,3 12,3 C15.87,3 19,6.13 19,10 L19,12 L15,12 L15,20 L19,20 L19,21 L12,21 L12,23 L18,23 C19.66,23 21,21.66 21,20 L21,10 C21,5.03 16.97,1 12,1 Z" id="Shape" fill="#4D5158" fill-rule="nonzero"></path>
                <rect id="Rectangle" fill="#05B9E6" x="11" y="20" width="2" height="3"></rect>
            </g>
        </g>
    </g>
</svg>