<svg width="697" height="657" xmlns="http://www.w3.org/2000/svg"><path d="M577.12 89.778c70.29 58.98 114.222 154.792 119.022 255.092 4.982 104.119-32.396 199.844-107.286 260.583-74.276 60.241-193.718 66.674-315.303 24.114C155.447 588.225 57.2 507.887 22.473 419.253-11.184 333.344-5.261 259.9 34.495 195.66c32.153-51.956 84.14-95.65 158.232-139.391C259.096 17.086 318.074-1.617 376.997.584c65.306 2.44 130.688 30.931 200.123 89.194zm-.643.766c-69.274-58.128-134.45-86.53-199.517-88.96C318.252-.61 259.453 18.037 193.234 57.13c-73.965 43.666-125.838 87.265-157.89 139.056-39.588 63.969-45.485 137.083-11.94 222.702C58.014 507.22 156.03 587.37 273.885 628.623c121.288 42.456 240.376 36.043 314.342-23.946 74.628-60.527 111.885-155.942 106.917-259.76-4.787-100.031-48.599-195.58-118.666-254.373z" fill="#CDCDCD" fill-rule="nonzero" fill-opacity=".2"/></svg>