<svg width="814" height="768" xmlns="http://www.w3.org/2000/svg"><path d="M674.444 105.077c82.107 68.895 133.427 180.819 139.033 297.986 5.82 121.626-37.841 233.444-125.32 304.394-44.401 36.01-102.46 55.826-169.36 59.43-62.657 3.374-131.486-7.654-198.956-31.27C181.868 687.32 67.098 593.47 26.534 489.936c-39.317-100.35-32.398-186.135 14.038-261.17 37.559-60.69 98.289-111.733 184.847-162.834C302.953 20.161 371.847-1.687 440.674.883c76.282 2.85 152.657 36.132 233.77 104.194zm-.643.766C592.848 37.915 516.68 4.724 440.636 1.883 372.025-.68 303.31 21.111 225.927 66.795c-86.43 51.025-147.048 101.974-184.505 162.5-46.268 74.763-53.16 160.216-13.957 260.277 40.446 103.231 154.987 196.893 292.707 245.1 67.351 23.576 136.05 34.583 198.572 31.216 66.7-3.592 124.557-23.34 168.783-59.208 87.216-70.736 130.757-182.245 124.952-303.569-5.594-116.899-56.794-228.56-138.678-297.268z" fill="#CDCDCD" fill-rule="nonzero" fill-opacity=".2"/></svg>