<svg width="615" height="579" xmlns="http://www.w3.org/2000/svg"><path d="M508.854 78.744c61.92 51.958 100.62 136.36 104.847 224.718 4.388 91.722-28.541 176.053-94.518 229.563-65.439 53.074-170.66 58.742-277.764 21.252C137.38 517.861 50.837 447.093 20.245 369.008-9.406 293.326-4.187 228.62 30.839 172.022c28.327-45.77 74.121-84.261 139.387-122.792C228.692 14.713 280.649-1.764 332.558.174c57.534 2.149 115.132 27.247 176.296 78.57zm-.643.766C447.207 28.322 389.815 3.313 332.52 1.173c-51.694-1.93-103.472 14.49-161.787 48.918-65.139 38.456-110.82 76.852-139.044 122.458C-3.17 228.875-8.362 293.25 21.176 368.644c30.473 77.78 116.788 148.362 220.573 184.69 106.808 37.386 211.676 31.737 276.804-21.085 65.714-53.298 98.523-137.319 94.15-228.74-4.215-88.088-42.794-172.228-104.492-223.999z" fill="#CDCDCD" fill-rule="nonzero" fill-opacity=".2"/></svg>