<?xml version="1.0" encoding="UTF-8"?>
<svg width="24px" height="24px" viewBox="0 0 24 24" version="1.1" xmlns="http://www.w3.org/2000/svg" xmlns:xlink="http://www.w3.org/1999/xlink">
    <!-- Generator: Sketch 51.2 (57519) - http://www.bohemiancoding.com/sketch -->
    <title>earth-globe</title>
    <desc>Created with Sketch.</desc>
    <defs></defs>
    <g id="Page-1" stroke="none" stroke-width="1" fill="none" fill-rule="evenodd" opacity="0.800000012">
        <g id="landing_davinci-4_1" transform="translate(-842.000000, -1725.000000)" fill="#222222" fill-rule="nonzero">
            <g id="Group-55" transform="translate(826.000000, 1709.000000)">
                <g id="Group-46">
                    <g id="Group-15">
                        <g id="Group-4">
                            <g id="earth-globe" transform="translate(16.000000, 16.000000)">
                                <path d="M22.36718,5.97009567 C21.2952164,4.13363098 19.8411663,2.67958087 18.0046469,1.60767198 C16.1677995,0.535817768 14.1626241,0 11.98759,0 C9.81277449,0 7.8072164,0.535817768 5.97047836,1.60767198 C4.13384966,2.67941686 2.67979954,4.13346697 1.60783599,5.97009567 C0.535817768,7.80683371 0,9.81261048 0,11.987262 C0,14.1619134 0.535981777,16.1674715 1.60767198,18.0043189 C2.67958087,19.8404009 4.13363098,21.2948337 5.97025968,22.3668519 C7.80699772,23.4386515 9.81261048,23.9745239 11.9873713,23.9745239 C14.1621321,23.9745239 16.1679636,23.4386515 18.0045923,22.3668519 C19.8411116,21.2952164 21.2951071,19.8407836 22.3669613,18.0043189 C23.4386515,16.1674715 23.9744146,14.1617494 23.9744146,11.987262 C23.9744692,9.81261048 23.4386515,7.80656036 22.36718,5.97009567 Z M13.4868519,18.294287 C13.3822688,18.1696948 13.3461321,18.0654396 13.3775672,17.9818497 C13.3671253,18.0340046 13.3306606,18.0808018 13.2683371,18.1222961 C13.2163462,18.0599727 13.122369,17.9818497 12.9872802,17.8883098 C12.8518087,17.7943326 12.7583235,17.7164829 12.7062779,17.6536674 C12.6852847,17.622615 12.6569112,17.5784419 12.6203918,17.5212027 C12.5839271,17.4639636 12.5371845,17.388574 12.4799453,17.2948155 C12.4230342,17.2012756 12.3814852,17.1204738 12.3553531,17.0526834 C12.3294943,16.9850023 12.3270888,16.9460774 12.3474806,16.9359636 C12.1499043,17.0193895 11.8636538,16.9621503 11.4891116,16.7641913 C11.4163462,16.7226424 11.3068975,16.6133576 11.1613121,16.4363918 C11.0157267,16.259426 10.8647836,16.1815763 10.7086469,16.2021868 C10.6567107,16.2126287 10.5864055,16.230779 10.4978952,16.2568018 C10.4096036,16.2829886 10.3341048,16.2957267 10.2716173,16.2957267 C10.2091298,16.2957267 10.1258679,16.2751708 10.0217768,16.2331845 C9.93867882,16.2021868 9.8268246,16.1421048 9.68632346,16.0538132 C9.54593166,15.9655216 9.44954897,15.9105239 9.39766743,15.8901321 C9.26241458,15.8171481 9.19478815,15.7808474 9.19478815,15.7808474 L8.94505695,15.6562551 C8.88256948,15.6252574 8.81745786,15.5757813 8.74983144,15.5081002 C8.68220501,15.4403645 8.63814123,15.3700592 8.61731207,15.2972392 C8.59653759,15.2349704 8.57051481,15.1099954 8.53929841,14.922533 C8.508082,14.7350159 8.46636902,14.5999818 8.4144328,14.5168838 C8.35210934,14.4129021 8.26365376,14.3088109 8.14906606,14.2048292 C8.03475171,14.1008474 7.93071526,14.0484191 7.83701139,14.0484191 C7.92032802,14.0484191 7.92032802,13.9786606 7.83701139,13.8377768 C7.75369476,13.6970569 7.68087472,13.5956446 7.61838724,13.5335945 C7.59755809,13.5126014 7.53507062,13.4450843 7.43103417,13.3303872 C7.32699772,13.2158542 7.23854214,13.1172847 7.1657221,13.0336401 C7.09295672,12.9504328 7.03025057,12.8542688 6.97836902,12.74482 C6.9264328,12.6355353 6.91588155,12.5446196 6.94715262,12.4716355 C6.95748519,12.4613576 6.94715262,12.4456128 6.91588155,12.4248929 C6.88466515,12.4043371 6.84579499,12.38318 6.79883371,12.3624055 C6.75209112,12.341795 6.70780866,12.3234806 6.66631435,12.3077904 C6.62449203,12.2924282 6.59327563,12.2845558 6.57255581,12.2845558 C6.59349431,12.3264875 6.61683827,12.401713 6.64291572,12.5109431 C6.6689385,12.6203918 6.69753075,12.7010843 6.72869248,12.7530752 C6.74963098,12.7946241 6.83797722,12.9457312 6.99405923,13.2054123 C7.2647836,13.6424419 7.38943052,13.9653759 7.36876538,14.1733941 C7.3062779,14.1940046 7.26456492,14.183836 7.24379043,14.1423417 C7.22296128,14.1008474 7.2072164,14.0435535 7.1969385,13.9706241 C7.18655125,13.8980228 7.17627335,13.8460319 7.16566743,13.8145968 C7.13445103,13.7521093 7.05381321,13.6843736 6.92364465,13.6113895 C6.79364009,13.5388428 6.71289294,13.4658588 6.68173121,13.3928747 C6.69222779,13.3928747 6.7050205,13.3880091 6.72076538,13.3771845 C6.73645558,13.3667426 6.74957631,13.361877 6.75985421,13.361877 C6.77040547,13.2682825 6.71579043,13.1486105 6.59606378,13.0026424 C6.47633713,12.8571116 6.4271344,12.7531298 6.44779954,12.6905877 C6.36448292,12.6281002 6.29166287,12.5057494 6.2291754,12.323918 C6.1667426,12.1417039 6.11464237,12.0245467 6.07303872,11.9724465 C6.03148975,11.9102323 5.9796082,11.8556173 5.91706606,11.808656 C5.85457859,11.7619681 5.77667426,11.7099772 5.68291572,11.6526834 C5.58926651,11.5954442 5.52677904,11.5565194 5.49556264,11.5356355 C5.47467882,11.5254123 5.43318451,11.478779 5.37069704,11.3954624 C5.0273713,10.9790979 4.92333485,10.7553349 5.05864237,10.7241731 C4.92338952,10.7553349 4.81148064,10.6539772 4.72302506,10.4196629 C4.63451481,10.1856219 4.60597722,10.0059226 4.63713895,9.88111162 L4.60597722,9.86558542 C4.6164738,9.82387244 4.62161276,9.70179499 4.62161276,9.49869704 C4.62161276,9.29570843 4.63473349,9.1109795 4.66070159,8.94456492 C4.68683371,8.77809567 4.73620046,8.69472437 4.80896583,8.69472437 C4.73620046,8.70511162 4.68164009,8.63994533 4.6451754,8.49971754 C4.60876538,8.35910706 4.6061959,8.26277904 4.63730296,8.21084282 C4.64769021,8.17957175 4.69465148,8.20061959 4.7778041,8.2733303 C4.86090205,8.34593166 4.90780866,8.39305695 4.9181959,8.4137221 C5.05350342,8.34068337 5.10560364,8.24719818 5.07433257,8.13261048 C5.05350342,8.0910615 4.94421868,7.98183144 4.74653303,7.80481093 C4.29900683,7.51358542 4.06999544,7.37302961 4.05977221,7.38330752 C4.12198633,7.26899317 4.10646014,7.17015034 4.01281093,7.08677904 C3.90882916,7.14926651 3.8490205,7.16479271 3.8333303,7.13374032 C3.8178041,7.10246925 3.80479271,7.04544875 3.79424146,6.96207745 C3.78396355,6.87892483 3.75783144,6.83212756 3.71633713,6.82168565 C3.6642369,6.81129841 3.60174943,6.76974943 3.52898405,6.69687472 C4.45503417,5.21926196 5.67766743,4.06425513 7.1969385,3.23163554 C7.25931663,3.22135763 7.37374032,3.21610934 7.54020957,3.21610934 C7.62336219,3.22649658 7.70148519,3.25257403 7.77425057,3.29412301 C7.84712528,3.33567198 7.92262415,3.3930205 8.00052847,3.46578588 C8.07870615,3.53838724 8.13851481,3.59048747 8.18006378,3.62175854 C8.20089294,3.55927107 8.17492483,3.46562187 8.10210478,3.34075626 C8.12276993,3.27826879 8.23730296,3.21578132 8.44543052,3.15340319 C8.68461048,3.12218679 8.84085649,3.12727107 8.91362187,3.16909339 C8.85129841,3.07538952 8.74731663,2.94527563 8.6015672,2.77886105 L8.52355353,2.85676538 C8.4402369,2.784 8.2218861,2.82035535 7.86800911,2.96605011 C7.84734396,2.97632802 7.79524374,3.00513895 7.71192711,3.05182688 C7.62877449,3.09856948 7.56092938,3.13246469 7.50904784,3.15323918 C7.44656036,3.17406834 7.38418223,3.17926196 7.32169476,3.16887472 C7.82110251,2.89842369 8.31028702,2.68477449 8.78902961,2.52885649 C8.81997267,2.54952164 8.87212756,2.5938041 8.94500228,2.66137585 C9.01776765,2.72900228 9.07500683,2.77853303 9.11666515,2.80964009 C9.08544875,2.78897494 9.06456492,2.79914351 9.05417768,2.84085649 C9.0126287,2.96566743 9.0126287,3.06970387 9.05417768,3.15291116 C9.1061139,3.22594989 9.17641913,3.26733485 9.26492938,3.2778861 C9.35343964,3.28816401 9.45999089,3.28302506 9.58485649,3.26214123 C9.7097221,3.24147608 9.79309339,3.23092483 9.83469704,3.23092483 L9.99083371,3.2466697 C10.3237175,3.2778861 10.4538861,3.2466697 10.3810661,3.15291116 C10.4122278,3.19473349 10.4486378,3.28051025 10.4902415,3.41062415 C10.5317904,3.54073804 10.5787517,3.63181777 10.6306333,3.68386333 C10.6827335,3.642041 10.6931207,3.56927563 10.6618497,3.46523918 C10.6306333,3.36120273 10.6306333,3.28816401 10.6618497,3.24661503 C10.6721276,3.22594989 10.7033986,3.20490205 10.7554989,3.18412756 C10.8075991,3.16346241 10.8673531,3.14006378 10.9350342,3.114041 C11.0026606,3.08790888 11.0468884,3.06975854 11.0678815,3.05942597 C11.1302597,3.01771298 11.0885467,2.94483827 10.9429066,2.84080182 C10.9220774,2.83035991 10.877959,2.81477904 10.8103872,2.79394989 C10.7427608,2.77344875 10.6827882,2.75234624 10.6308519,2.73162642 C10.5789157,2.71096128 10.5243007,2.68225968 10.4670615,2.64584966 C10.4098223,2.60938497 10.3837449,2.56783599 10.3888292,2.52087472 C10.3940774,2.47391344 10.4228337,2.41421412 10.4747153,2.34133941 C10.5372027,2.28945786 10.6387244,2.26857403 10.7791162,2.27896128 C10.919508,2.28923918 11.0262779,2.31520729 11.0990433,2.3568656 C11.3801549,2.51300228 11.4216492,2.6537221 11.2240182,2.77836902 C11.3282187,2.78864692 11.4530843,2.83030524 11.5987244,2.90307062 C11.7442551,2.976 11.8014943,3.05406834 11.7703872,3.13738497 C11.8536492,2.98130296 11.9368018,2.90307062 12.0201731,2.90307062 C12.0721093,2.91362187 12.1217494,2.98392711 12.1684374,3.11398633 C12.21518,3.24399089 12.2437175,3.31418679 12.2540501,3.32473804 C12.3374761,3.43905239 12.4201913,3.46512984 12.504,3.40264237 C12.5870979,3.34026424 12.6731481,3.24923918 12.7614396,3.12951253 C12.8497312,3.00994989 12.8991526,2.95533485 12.9096492,2.9657221 C12.8056128,2.92428246 12.7947335,2.88256948 12.8785968,2.84091116 C13.0342415,2.74726196 13.1749613,2.72118451 13.2999362,2.76300683 C13.3309339,2.78367198 13.3728656,2.83063326 13.4244738,2.90323462 C13.5178497,3.09080638 13.5023235,3.17909795 13.3777312,3.16871071 C13.4712711,3.25202733 13.5100319,3.35617312 13.4948884,3.48087472 C13.4791982,3.60574032 13.398123,3.66303417 13.2525923,3.65253759 C13.2007654,3.65253759 13.1249932,3.62640547 13.0259863,3.57452392 C12.9271982,3.5225877 12.8518087,3.49405011 12.7995991,3.48874715 C12.7476082,3.48333485 12.6746241,3.51203645 12.5810843,3.57452392 C12.5395353,3.62662415 12.4849203,3.7151344 12.4171845,3.83989066 C12.3495034,3.96497494 12.2895854,4.05326651 12.2375945,4.10520273 C12.0816219,4.26128474 11.8212301,4.31863326 11.4570752,4.2768656 C11.4883462,4.2768656 11.4856128,4.308082 11.4492027,4.37056948 C11.4126287,4.43294761 11.363426,4.50330752 11.3009385,4.58126651 C11.238451,4.65928018 11.202041,4.70350797 11.1917631,4.71389522 C11.0980592,4.81793166 11.0356811,4.93765831 11.00441,5.07291116 C11.00441,5.09374032 10.9991617,5.16404556 10.9886651,5.28355353 C10.9781139,5.40328018 10.9574487,5.49446925 10.9261777,5.55679271 C11.0510433,5.52557631 11.1499408,5.58822779 11.2227062,5.74414579 C11.2851936,5.88989522 11.2851936,5.96790888 11.2227062,5.97840547 C11.5661959,5.92657859 11.8679727,5.94724374 12.1283098,6.04089294 C12.5028519,6.17614579 12.7165011,6.31139863 12.768492,6.44670615 C12.8306515,6.35294761 12.9814305,6.34764465 13.2208838,6.43096128 C13.3145877,6.48289749 13.397467,6.63919818 13.470779,6.89915262 C13.512328,7.05512528 13.5826879,7.19054214 13.6814761,7.30491116 C13.7804829,7.41933485 13.8869248,7.45049658 14.0015672,7.39856036 L14.0482005,7.36734396 C14.0899134,7.34667882 14.12359,7.32836446 14.1495581,7.3127836 C14.1757449,7.2972574 14.2041731,7.27637358 14.2352255,7.25029613 C14.2666606,7.22427335 14.2849749,7.20087472 14.2898405,7.18020957 C14.2947062,7.15943508 14.2872164,7.13838724 14.2666606,7.1177221 C14.1936765,7.05523462 14.1390615,6.96945786 14.1027608,6.86033713 C14.0666788,6.75105239 14.0744966,6.65472437 14.1263781,6.57135308 C14.1573759,6.5298041 14.2406925,6.46731663 14.3758907,6.384 C14.5113622,6.3006287 14.5946241,6.21747608 14.6256219,6.13421412 C14.6677722,5.99896128 14.615344,5.88705239 14.4697585,5.79848747 C14.3240638,5.7101959 14.2510797,5.62955809 14.2510797,5.55657403 C14.2510797,5.5044738 14.2849203,5.44215034 14.3524374,5.36922096 C14.4203371,5.29645558 14.4489841,5.22861048 14.4383235,5.16634169 C14.4383235,5.13490661 14.4199544,5.07001367 14.3836538,4.97111617 C14.3475718,4.87205467 14.3264146,4.79928929 14.3213303,4.75249203 C14.316082,4.70564009 14.3396993,4.65102506 14.3914715,4.58870159 C14.4640729,4.54698861 14.6358451,4.54961276 14.9063508,4.59635535 C15.1769112,4.64331663 15.3539317,4.69273804 15.4373576,4.74461959 C15.468738,4.76528474 15.5363098,4.79655581 15.6403462,4.83832346 C15.744328,4.87965376 15.8354624,4.92388155 15.9136948,4.97089749 C15.9913257,5.01764009 16.0356082,5.06170387 16.0459408,5.10341686 L15.9680911,5.10341686 C16.0408565,5.16606834 16.0852483,5.2386697 16.1005558,5.322041 C16.1163007,5.40557631 16.0773759,5.4678451 15.983836,5.50961276 C16.0459408,5.4990615 16.1295308,5.51475171 16.2335672,5.55635535 C16.4000911,5.61873349 16.4053394,5.676082 16.2492574,5.72801822 C16.2803098,5.71746697 16.3244829,5.70724374 16.3815581,5.69674715 C16.4387973,5.68635991 16.4828064,5.6706697 16.5141868,5.65000456 C16.5347973,5.63950797 16.5609294,5.62146697 16.5920364,5.59533485 C16.6234715,5.56931207 16.6466515,5.55362187 16.6623964,5.54864692 C16.6780866,5.54350797 16.7012665,5.53809567 16.7327016,5.53290205 C16.763754,5.5277631 16.794861,5.53563554 16.8258588,5.55630068 C16.836738,5.55630068 16.859918,5.53022323 16.8962187,5.47828702 C16.9323007,5.42640547 16.9718269,5.37430524 17.0131572,5.32236902 C17.0549248,5.2704328 17.0910068,5.24446469 17.1224419,5.24446469 C17.1532756,5.24446469 17.1821412,5.2572574 17.2078907,5.28328018 C17.2342415,5.3094123 17.2546333,5.33789522 17.2704328,5.36916629 C17.286123,5.40043736 17.3014305,5.4342779 17.3171754,5.47046925 C17.3328656,5.50687927 17.3456036,5.53569021 17.3561002,5.55635535 C17.376656,5.60829157 17.4264055,5.66312528 17.5042551,5.72014579 C17.5821048,5.77722096 17.6314715,5.832 17.65241,5.88393622 C17.6629066,5.91520729 17.6832984,5.99327563 17.7147335,6.11830524 C17.7457859,6.24317084 17.7877175,6.32894761 17.8395444,6.37569021 C17.8915353,6.42265148 17.969549,6.46157631 18.0735308,6.49273804 C18.0943599,6.50328929 18.1414852,6.49798633 18.2140319,6.47732118 C18.2866333,6.45638269 18.3467153,6.45118907 18.3934579,6.46157631 C18.4405831,6.47185421 18.4637631,6.51340319 18.4637631,6.58644191 C18.5260866,6.52395444 18.557139,6.48224146 18.557139,6.46157631 C18.5677995,6.59688383 18.6013121,6.70622323 18.6589339,6.78937585 C18.7161731,6.8724738 18.8070888,6.90910251 18.9320638,6.89855125 L18.9006287,7.242041 C18.8695763,7.29397722 18.7915626,7.33290205 18.6664237,7.35887016 C18.5414487,7.38500228 18.4635991,7.40856492 18.432164,7.42923007 C18.4011116,7.43961731 18.3255581,7.50205011 18.2057768,7.61663781 C18.0860501,7.73122551 18.0370114,7.79885194 18.0576219,7.81951708 C17.8810387,7.62177677 17.6152893,7.56453759 17.2616856,7.64785421 C16.8664237,7.71028702 16.5956446,7.77271982 16.4501139,7.83520729 C16.283754,7.91857859 16.1690569,7.99648292 16.1066241,8.06924829 C16.0961822,8.07963554 16.0783599,8.11620957 16.0521731,8.17853303 C16.0261503,8.24091116 16.0001822,8.29825968 15.9743235,8.3501959 C15.9479727,8.40213212 15.9249567,8.4281549 15.9041822,8.4281549 C15.9668337,8.418041 16.0368656,8.36834624 16.1148793,8.28005467 C16.1931116,8.19154442 16.2424784,8.14234169 16.2630888,8.13179043 C16.5333759,7.95498861 16.757139,7.89250114 16.9350888,7.94574943 C17.1639362,8.0082369 17.2004009,8.09155353 17.0441549,8.19558998 C17.0237631,8.21625513 16.9687654,8.22407289 16.8804738,8.21898861 C16.7921822,8.21384966 16.7322642,8.21625513 16.7008838,8.22686105 C16.7948064,8.2475262 16.8726014,8.27622779 16.9354715,8.31241913 C16.9975763,8.34882916 17.0133212,8.39830524 16.9820501,8.46068337 C17.14841,8.55438724 17.1797904,8.65842369 17.0758087,8.77301139 C16.9403371,8.90848292 16.7794442,8.96550342 16.5919818,8.94467426 C16.6234169,8.94467426 16.6234169,8.96555809 16.5919818,9.00710706 L16.3263417,9.17876993 C16.3057312,9.18899317 16.2380501,9.21496128 16.1235171,9.2567836 C16.0090387,9.2981139 15.930861,9.34529385 15.8893121,9.3971754 C15.8582597,9.43883371 15.8425695,9.50121185 15.8425695,9.58474715 C15.8425695,9.66811845 15.8373212,9.73060592 15.8268793,9.7721549 C15.8166014,9.81397722 15.7748337,9.82403645 15.702287,9.8033713 C15.6708519,9.86574943 15.5746879,9.91522551 15.4134123,9.95141686 C15.2521367,9.98782688 15.1455308,10.0424419 15.0934852,10.1152073 C15.15559,10.1985786 15.1507244,10.2817312 15.0777403,10.3650478 C14.9527654,10.4692483 14.8435353,10.458697 14.7499954,10.3338314 C14.6980046,10.3546606 14.658861,10.4065968 14.6328383,10.4899681 C14.6070342,10.5732847 14.5677813,10.6305239 14.5160638,10.661631 C14.5890478,10.7761093 14.5782232,10.85959 14.4850661,10.9113622 C14.49518,10.9113622 14.5187426,10.9219134 14.5549886,10.9426333 C14.5912893,10.9634077 14.6302141,10.9893759 14.6721458,11.0206469 C14.7136948,11.051918 14.7394442,11.0676082 14.7499954,11.0676082 C14.7084465,11.1610387 14.6509886,11.207836 14.5782232,11.207836 C14.6407107,11.3744146 14.562861,11.5566287 14.3444009,11.754205 C14.3024146,11.795754 14.2373576,11.837303 14.1490661,11.8790706 C14.0601731,11.9206196 13.979754,11.9543508 13.9067699,11.9804282 C13.8337859,12.0065057 13.7924556,12.024656 13.7820137,12.0350433 C13.6779772,12.1288565 13.5997449,12.2250205 13.5479727,12.3238087 C13.4961458,12.4228155 13.4882733,12.5189248 13.5243554,12.6126834 C13.5608747,12.7066059 13.6570387,12.7687107 13.8133941,12.8001458 L13.8285376,12.9249021 L13.8285376,13.2057403 L13.8442278,13.3307153 C13.8548884,13.4034806 13.8627608,13.4685923 13.8678451,13.5259954 C13.8729294,13.5832893 13.8729294,13.655836 13.8678451,13.7445103 C13.8627608,13.8328018 13.8392528,13.8823872 13.7977039,13.8925011 C13.7563736,13.9031617 13.6990797,13.8925011 13.6260957,13.8612847 C13.5425057,13.8197358 13.4438815,13.590779 13.3291845,13.1746333 C13.30841,13.0706515 13.2457585,12.9460046 13.1417221,12.8000911 C13.0897312,12.852082 13.0455581,12.8857585 13.0092574,12.9013394 C12.9731207,12.9170296 12.9467153,12.9198724 12.9315718,12.9092118 C12.9158815,12.8989339 12.8872346,12.8753713 12.8455763,12.8390706 C12.8040273,12.8027699 12.7678907,12.773959 12.7365103,12.7534032 C12.6844647,12.7223508 12.593549,12.6961093 12.4631617,12.6755535 C12.3333212,12.654779 12.252246,12.6285923 12.2214123,12.5975399 C11.9714077,12.7851663 11.82041,12.7379863 11.7684738,12.4574214 C11.7478087,12.5092483 11.7503235,12.5793895 11.7763462,12.6681185 C11.8024784,12.756574 11.8154351,12.8058314 11.8154351,12.8162733 C11.7426697,12.9517449 11.628246,12.9618041 11.4721093,12.8473257 C11.4096219,12.7851663 11.2664966,12.7773485 11.0427335,12.8240911 C10.8189704,12.8707244 10.6707062,12.8785421 10.5979408,12.8473257 C10.608492,12.8473257 10.6291572,12.8628519 10.6604282,12.8942323 C10.69159,12.9146241 10.7125285,12.930369 10.722861,12.9408656 C10.7123645,12.9826333 10.6968383,13.013631 10.6758998,13.0344055 C10.6550159,13.0550159 10.6341868,13.0628884 10.613467,13.0580228 C10.5926378,13.0527745 10.5692392,13.0527745 10.5431071,13.0580228 C10.5170843,13.0628884 10.4937403,13.0707062 10.4728565,13.0812027 C10.4312528,13.1122551 10.3793166,13.1668702 10.3168292,13.2448838 C10.254451,13.3229522 10.2076538,13.3723189 10.1764374,13.3928747 C10.2387608,13.5593986 10.2674624,13.6869977 10.2623235,13.7752893 C10.2569112,13.8639636 10.2414943,13.9940228 10.2153622,14.1655763 C10.1892301,14.3371298 10.1762733,14.4752255 10.1762733,14.579426 C10.1762733,14.7455125 10.2257494,14.9386059 10.3245376,15.1567927 C10.4234351,15.3753075 10.5404282,15.5260866 10.6757358,15.6095125 C10.7487745,15.6510615 10.8736948,15.6768656 11.0504419,15.6871982 C11.2272984,15.6978041 11.3522187,15.6871982 11.4249841,15.6561458 C11.4874715,15.6253121 11.5341595,15.5886287 11.5653759,15.5470797 C11.5965923,15.5055308 11.6227244,15.4452847 11.6433895,15.3674897 C11.6642187,15.2896401 11.6799636,15.2350251 11.6903508,15.2039727 C11.7631162,15.0060137 11.898369,14.9020319 12.095836,14.8915353 C12.2211936,14.8810934 12.3117267,14.8945421 12.3693485,14.9304601 C12.4265877,14.9669248 12.4498223,15.0162916 12.4393257,15.0788337 C12.4288292,15.1411025 12.4081093,15.2062141 12.3771663,15.2738952 C12.3457859,15.341631 12.306861,15.4168565 12.2599544,15.5003371 C12.2134305,15.5839271 12.1846196,15.6462506 12.1745604,15.6880182 C12.1537312,15.7712255 12.1352528,15.888164 12.1199453,16.0393804 C12.1042551,16.1901595 12.0910797,16.2812938 12.0806378,16.3126743 C12.101631,16.3228428 12.1795353,16.3280364 12.3146788,16.3280364 C12.3146788,16.307426 12.3225513,16.2733667 12.3382415,16.2266241 C12.3536036,16.1798815 12.3614761,16.1512346 12.3614761,16.1409567 C12.4136856,16.2243827 12.4969476,16.2707973 12.611426,16.2812938 C12.7259043,16.2917358 12.8093303,16.2502415 12.8613212,16.1564829 C12.8823144,16.187754 12.9447472,16.2659317 13.0488383,16.3909066 C13.15282,16.5154989 13.2100592,16.6195353 13.2206105,16.7029613 C13.2310524,16.7448929 13.2516082,16.812246 13.2827153,16.9061686 C13.3141503,16.9997084 13.3246469,17.06482 13.3141503,17.1014487 C13.3037084,17.1373667 13.2516082,17.1558998 13.158123,17.1558998 C13.116574,17.1558998 13.0904419,17.17159 13.0802733,17.2026424 C13.0694487,17.2340774 13.0694487,17.2727836 13.0802733,17.3195809 C13.0907699,17.3663235 13.1038907,17.4107153 13.1191982,17.4522642 C13.1347244,17.4935945 13.1554989,17.5381503 13.1813576,17.5849476 C13.2078724,17.6313622 13.2206651,17.6601185 13.2206651,17.6705604 C13.4077449,18.0136674 13.6629431,18.107426 13.9854396,17.9516173 C13.9854396,18.2532301 13.9125103,18.4196993 13.7665421,18.4507517 C13.6842642,18.4714169 13.5908884,18.4188793 13.4868519,18.294287 Z M13.7199636,21.8205376 C13.6994077,21.7165011 13.6889112,21.6334032 13.6900592,21.5712984 C13.67918,21.4878724 13.7158633,21.3759636 13.7989066,21.2356264 C13.8821139,21.095344 13.9236629,20.9884647 13.9236629,20.9156993 C13.7571936,20.8741503 13.6948155,20.7387335 13.7360364,20.5098861 C13.7569749,20.3536948 13.907754,20.1456219 14.1887563,19.8855581 C14.3866606,19.7085923 14.44882,19.4585877 14.3762187,19.1363098 C14.3447836,19.0010023 14.3185968,18.8030979 14.2979863,18.5429795 C14.2774305,18.2827517 14.2564374,18.1007016 14.2354989,17.9967198 C14.2354989,18.0277722 14.2848656,18.0564191 14.3840364,18.0823872 C14.4828793,18.1081913 14.5426879,18.1422506 14.5634624,18.1834169 C14.5842369,18.1525831 14.6100957,18.0951253 14.6414761,18.0120273 C14.6725285,17.9286014 14.7040182,17.8663326 14.7346333,17.8245649 C14.7556264,17.7933485 14.7997449,17.7544237 14.8675353,17.7074077 C14.9352164,17.6606651 14.9793895,17.6322369 15.000164,17.6217403 C15.0205558,17.6114624 15.0676811,17.5777859 15.1402825,17.5203827 C15.2132118,17.4631435 15.2731298,17.4191344 15.3200364,17.387918 C15.3671617,17.3567016 15.4291025,17.333303 15.5073349,17.3179408 C15.5855672,17.3022506 15.6400182,17.3254852 15.6710159,17.387918 C15.7232255,17.4504601 15.7129476,17.5465695 15.6400182,17.6767927 C15.5670342,17.8070159 15.5670342,17.8980957 15.6400182,17.9503052 C15.6506241,17.9188702 15.6607927,17.8509704 15.6710159,17.7469339 C15.6816765,17.6428975 15.7129476,17.5648838 15.7647745,17.5125103 C15.827262,17.4504055 15.8869066,17.4137221 15.9443645,17.4036082 C16.0016036,17.3927836 16.0534305,17.4006014 16.1000638,17.4270068 C16.1471891,17.4530296 16.2018041,17.4889476 16.2639636,17.5360729 C16.326451,17.5828155 16.3836355,17.6115171 16.4356811,17.6217403 C16.5917084,17.6737859 16.7791708,17.7882642 16.9976856,17.9652301 C16.9872437,17.9546241 16.9872437,17.9416674 16.9976856,17.9259226 C17.0081822,17.910615 17.028738,17.8949248 17.0602278,17.87918 C17.0912802,17.8638724 17.1197084,17.8481822 17.1458952,17.8324374 C17.1716993,17.8169112 17.2001276,17.8043918 17.2315626,17.7937312 L17.2783052,17.778041 C17.3509066,17.778041 17.4030615,17.7729567 17.4341686,17.7622961 C17.4651663,17.7520182 17.5099408,17.7622961 17.5667973,17.7937312 C17.6237084,17.8247836 17.6630159,17.8481822 17.6835718,17.8638724 C17.7045103,17.87918 17.7408109,17.9078269 17.7928565,17.9495399 C17.8448474,17.9910888 17.8815308,18.0225239 17.9017039,18.0430797 C17.933139,18.0636355 17.9903781,18.1003189 18.0734761,18.1523645 C18.1569021,18.2043554 18.2220137,18.2459043 18.2688109,18.2769021 C18.3159362,18.3079544 18.3574305,18.3551344 18.3933485,18.4170205 C18.4296492,18.4798907 18.4431526,18.5474624 18.432656,18.6203918 C18.4951982,18.6308884 18.6197904,18.6722187 18.8072528,18.7449841 C18.8386879,18.7655945 18.9034169,18.7841276 19.002533,18.7994351 C19.1013759,18.8151253 19.1664328,18.8387426 19.1976492,18.8695763 C17.6899681,20.4625968 15.8634533,21.4459408 13.7199636,21.8205376 Z" id="Shape" opacity="0.600000024"></path>
                            </g>
                        </g>
                    </g>
                </g>
            </g>
        </g>
    </g>
</svg>