<?xml version="1.0" encoding="UTF-8"?>
<svg width="24px" height="24px" viewBox="0 0 24 24" version="1.1" xmlns="http://www.w3.org/2000/svg" xmlns:xlink="http://www.w3.org/1999/xlink">
    <!-- Generator: Sketch 51.2 (57519) - http://www.bohemiancoding.com/sketch -->
    <title>Rectangle 2</title>
    <desc>Created with Sketch.</desc>
    <defs></defs>
    <g id="Page-1" stroke="none" stroke-width="1" fill="none" fill-rule="evenodd">
        <g id="landing_davinci-4_1" transform="translate(-251.000000, -386.000000)" fill-rule="nonzero">
            <g id="Group-50" transform="translate(104.000000, 375.000000)">
                <g id="left-arrow-(3)" transform="translate(159.000000, 23.000000) scale(-1, 1) translate(-159.000000, -23.000000) translate(147.000000, 11.000000)">
                    <g id="Group-58">
                        <path d="M17.1929194,11.6382829 L17.209778,11.6419707 L9.98290967,11.6419707 L12.2547731,9.36510244 C12.3660219,9.25394146 12.4270463,9.1033561 12.4270463,8.94530732 C12.4270463,8.78725854 12.3660219,8.63772683 12.2547731,8.52630244 L11.9012706,8.17262439 C11.7901097,8.06146341 11.6419828,8 11.4840219,8 C11.3259731,8 11.1777584,8.06102439 11.0665975,8.17218537 L7.17218772,12.0662439 C7.06058772,12.1778439 6.99956333,12.3264976 7.00000235,12.4846341 C6.99956333,12.6436488 7.06058772,12.7923902 7.17218772,12.9038146 L11.0665975,16.7982244 C11.1777584,16.9092976 11.3258853,16.9704098 11.4840219,16.9704098 C11.6419828,16.9704098 11.7901097,16.9092098 11.9012706,16.7982244 L12.2547731,16.4445463 C12.3660219,16.333561 12.4270463,16.1853463 12.4270463,16.0272976 C12.4270463,15.8693366 12.3660219,15.7289366 12.2547731,15.6178634 L9.95727065,13.3282634 L17.2009975,13.3282634 C17.5264902,13.3282634 17.8000024,13.0477268 17.8000024,12.7224098 L17.8000024,12.2221854 C17.8000024,11.8968683 17.5184121,11.6382829 17.1929194,11.6382829 Z" id="Shape" fill="#FFFFFF"></path>
                        <rect id="Rectangle-2" x="0" y="0" width="24" height="24"></rect>
                    </g>
                </g>
            </g>
        </g>
    </g>
</svg>