<?xml version="1.0" encoding="UTF-8"?>
<svg width="64px" height="64px" viewBox="0 0 64 64" version="1.1" xmlns="http://www.w3.org/2000/svg" xmlns:xlink="http://www.w3.org/1999/xlink">
    <!-- Generator: Sketch 51.2 (57519) - http://www.bohemiancoding.com/sketch -->
    <title>Rectangle 12</title>
    <desc>Created with Sketch.</desc>
    <defs></defs>
    <g id="Page-1" stroke="none" stroke-width="1" fill="none" fill-rule="evenodd">
        <g id="registration_join-us" transform="translate(-133.000000, -69.000000)">
            <g id="Group-17" transform="translate(60.000000, 69.000000)">
                <g id="Group-4">
                    <g id="Group-3" transform="translate(73.000000, 0.000000)">
                        <rect id="Rectangle-12" fill="#FFFFFF" opacity="0.5" x="0" y="0" width="64" height="64"></rect>
                        <g id="hotel" transform="translate(0.000000, 7.000000)" fill="#D4DCE4" fill-rule="nonzero">
                            <path d="M62.9333333,46.9333333 L62.9333333,21.3333333 C63.2762667,21.3333333 63.5981333,21.1685333 63.7986667,20.8904 C63.9992,20.6122667 64.0537333,20.2546667 63.9453333,19.9293333 L60.7453333,10.3293333 C60.6001333,9.89373333 60.1925333,9.6 59.7334667,9.6 L45.8666667,9.6 L45.8666667,6.26693333 C45.8668,6.26693333 45.8669333,6.26693333 45.8670667,6.26693333 C46.3265333,6.26693333 46.7508,5.9676 46.8888,5.50466667 C47.0570667,4.94013333 46.7358667,4.34613333 46.1713333,4.17773333 L32.3046667,0.0444 C32.1058667,-0.0146666667 31.8941333,-0.0146666667 31.6953333,0.0444 L17.8286667,4.17773333 C17.2641333,4.34613333 16.9428,4.94013333 17.1112,5.50466667 C17.2492,5.9676 17.6737333,6.266 18.1334667,6.26613333 L18.1334667,9.6 L4.26666667,9.6 C3.8076,9.6 3.4,9.89373333 3.2548,10.3293333 L0.0548,19.9293333 C-0.0536,20.2546667 0.000933333333,20.6122667 0.201466667,20.8904 C0.401866667,21.1685333 0.723733333,21.3333333 1.06666667,21.3333333 L1.06666667,46.9333333 C0.4776,46.9333333 0,47.4109333 0,48 C0,48.5890667 0.4776,49.0666667 1.06666667,49.0666667 L62.9333333,49.0666667 C63.5224,49.0666667 64,48.5890667 64,48 C64,47.4109333 63.5225333,46.9333333 62.9333333,46.9333333 Z M60.8,46.9333333 L45.8666667,46.9333333 L45.8666667,21.3333333 L60.8,21.3333333 L60.8,46.9333333 Z M20.2666667,40.5333333 L24.5333333,40.5333333 L24.5333333,46.9333333 L20.2666667,46.9333333 L20.2666667,40.5333333 Z M26.6666667,40.5333333 L37.3333333,40.5333333 L37.3333333,46.9333333 L26.6666667,46.9333333 L26.6666667,40.5333333 Z M39.4666667,40.5333333 L43.7333333,40.5333333 L43.7333333,46.9333333 L39.4666667,46.9333333 L39.4666667,40.5333333 Z M58.9645333,11.7333333 L61.4534667,19.2 L45.8666667,19.2 L45.8666667,11.7333333 L58.9645333,11.7333333 Z M32,2.17973333 L43.7333333,5.6772 L43.7333333,10.6666667 L43.7333333,20.2666667 L43.7333333,38.4 L20.2666667,38.4 L20.2666667,20.2666667 L20.2666667,10.6666667 L20.2666667,5.6772 L32,2.17973333 Z M5.03546667,11.7333333 L18.1333333,11.7333333 L18.1333333,19.2 L2.54666667,19.2 L5.03546667,11.7333333 Z M3.2,21.3333333 L18.1333333,21.3333333 L18.1333333,46.9333333 L3.2,46.9333333 L3.2,21.3333333 Z" id="Shape"></path>
                            <path d="M14.9333333,13.8666667 C14.3442667,13.8666667 13.8666667,14.3442667 13.8666667,14.9333333 L13.8666667,17.0666667 C13.8666667,17.6557333 14.3442667,18.1333333 14.9333333,18.1333333 C15.5224,18.1333333 16,17.6557333 16,17.0666667 L16,14.9333333 C16,14.3442667 15.5225333,13.8666667 14.9333333,13.8666667 Z" id="Shape"></path>
                            <path d="M10.6666667,13.8666667 C10.0776,13.8666667 9.6,14.3442667 9.6,14.9333333 L9.6,17.0666667 C9.6,17.6557333 10.0776,18.1333333 10.6666667,18.1333333 C11.2557333,18.1333333 11.7333333,17.6557333 11.7333333,17.0666667 L11.7333333,14.9333333 C11.7333333,14.3442667 11.2558667,13.8666667 10.6666667,13.8666667 Z" id="Shape"></path>
                            <path d="M6.4,13.8666667 C5.81093333,13.8666667 5.33333333,14.3442667 5.33333333,14.9333333 L5.33333333,17.0666667 C5.33333333,17.6557333 5.81093333,18.1333333 6.4,18.1333333 C6.98906667,18.1333333 7.46666667,17.6557333 7.46666667,17.0666667 L7.46666667,14.9333333 C7.46666667,14.3442667 6.9892,13.8666667 6.4,13.8666667 Z" id="Shape"></path>
                            <path d="M57.6,18.1333333 C58.1890667,18.1333333 58.6666667,17.6557333 58.6666667,17.0666667 L58.6666667,14.9333333 C58.6666667,14.3442667 58.1890667,13.8666667 57.6,13.8666667 C57.0109333,13.8666667 56.5333333,14.3442667 56.5333333,14.9333333 L56.5333333,17.0666667 C56.5333333,17.6557333 57.0109333,18.1333333 57.6,18.1333333 Z" id="Shape"></path>
                            <path d="M53.3333333,18.1333333 C53.9224,18.1333333 54.4,17.6557333 54.4,17.0666667 L54.4,14.9333333 C54.4,14.3442667 53.9224,13.8666667 53.3333333,13.8666667 C52.7442667,13.8666667 52.2666667,14.3442667 52.2666667,14.9333333 L52.2666667,17.0666667 C52.2666667,17.6557333 52.7442667,18.1333333 53.3333333,18.1333333 Z" id="Shape"></path>
                            <path d="M49.0666667,18.1333333 C49.6557333,18.1333333 50.1333333,17.6557333 50.1333333,17.0666667 L50.1333333,14.9333333 C50.1333333,14.3442667 49.6557333,13.8666667 49.0666667,13.8666667 C48.4776,13.8666667 48,14.3442667 48,14.9333333 L48,17.0666667 C48,17.6557333 48.4776,18.1333333 49.0666667,18.1333333 Z" id="Shape"></path>
                            <path d="M14.9333333,23.4666667 C14.3442667,23.4666667 13.8666667,23.9442667 13.8666667,24.5333333 L13.8666667,27.7333333 C13.8666667,28.3224 14.3442667,28.8 14.9333333,28.8 C15.5224,28.8 16,28.3224 16,27.7333333 L16,24.5333333 C16,23.9442667 15.5225333,23.4666667 14.9333333,23.4666667 Z" id="Shape"></path>
                            <path d="M10.6666667,23.4666667 C10.0776,23.4666667 9.6,23.9442667 9.6,24.5333333 L9.6,27.7333333 C9.6,28.3224 10.0776,28.8 10.6666667,28.8 C11.2557333,28.8 11.7333333,28.3224 11.7333333,27.7333333 L11.7333333,24.5333333 C11.7333333,23.9442667 11.2558667,23.4666667 10.6666667,23.4666667 Z" id="Shape"></path>
                            <path d="M6.4,23.4666667 C5.81093333,23.4666667 5.33333333,23.9442667 5.33333333,24.5333333 L5.33333333,27.7333333 C5.33333333,28.3224 5.81093333,28.8 6.4,28.8 C6.98906667,28.8 7.46666667,28.3224 7.46666667,27.7333333 L7.46666667,24.5333333 C7.46666667,23.9442667 6.9892,23.4666667 6.4,23.4666667 Z" id="Shape"></path>
                            <path d="M14.9333333,30.9333333 C14.3442667,30.9333333 13.8666667,31.4109333 13.8666667,32 L13.8666667,35.2 C13.8666667,35.7890667 14.3442667,36.2666667 14.9333333,36.2666667 C15.5224,36.2666667 16,35.7890667 16,35.2 L16,32 C16,31.4109333 15.5225333,30.9333333 14.9333333,30.9333333 Z" id="Shape"></path>
                            <path d="M10.6666667,30.9333333 C10.0776,30.9333333 9.6,31.4109333 9.6,32 L9.6,35.2 C9.6,35.7890667 10.0776,36.2666667 10.6666667,36.2666667 C11.2557333,36.2666667 11.7333333,35.7890667 11.7333333,35.2 L11.7333333,32 C11.7333333,31.4109333 11.2558667,30.9333333 10.6666667,30.9333333 Z" id="Shape"></path>
                            <path d="M6.4,30.9333333 C5.81093333,30.9333333 5.33333333,31.4109333 5.33333333,32 L5.33333333,35.2 C5.33333333,35.7890667 5.81093333,36.2666667 6.4,36.2666667 C6.98906667,36.2666667 7.46666667,35.7890667 7.46666667,35.2 L7.46666667,32 C7.46666667,31.4109333 6.9892,30.9333333 6.4,30.9333333 Z" id="Shape"></path>
                            <path d="M14.9333333,38.4 C14.3442667,38.4 13.8666667,38.8776 13.8666667,39.4666667 L13.8666667,42.6666667 C13.8666667,43.2557333 14.3442667,43.7333333 14.9333333,43.7333333 C15.5224,43.7333333 16,43.2557333 16,42.6666667 L16,39.4666667 C16,38.8776 15.5225333,38.4 14.9333333,38.4 Z" id="Shape"></path>
                            <path d="M10.6666667,38.4 C10.0776,38.4 9.6,38.8776 9.6,39.4666667 L9.6,42.6666667 C9.6,43.2557333 10.0776,43.7333333 10.6666667,43.7333333 C11.2557333,43.7333333 11.7333333,43.2557333 11.7333333,42.6666667 L11.7333333,39.4666667 C11.7333333,38.8776 11.2558667,38.4 10.6666667,38.4 Z" id="Shape"></path>
                            <path d="M6.4,38.4 C5.81093333,38.4 5.33333333,38.8776 5.33333333,39.4666667 L5.33333333,42.6666667 C5.33333333,43.2557333 5.81093333,43.7333333 6.4,43.7333333 C6.98906667,43.7333333 7.46666667,43.2557333 7.46666667,42.6666667 L7.46666667,39.4666667 C7.46666667,38.8776 6.9892,38.4 6.4,38.4 Z" id="Shape"></path>
                            <path d="M57.6,28.8 C58.1890667,28.8 58.6666667,28.3224 58.6666667,27.7333333 L58.6666667,24.5333333 C58.6666667,23.9442667 58.1890667,23.4666667 57.6,23.4666667 C57.0109333,23.4666667 56.5333333,23.9442667 56.5333333,24.5333333 L56.5333333,27.7333333 C56.5333333,28.3224 57.0109333,28.8 57.6,28.8 Z" id="Shape"></path>
                            <path d="M53.3333333,28.8 C53.9224,28.8 54.4,28.3224 54.4,27.7333333 L54.4,24.5333333 C54.4,23.9442667 53.9224,23.4666667 53.3333333,23.4666667 C52.7442667,23.4666667 52.2666667,23.9442667 52.2666667,24.5333333 L52.2666667,27.7333333 C52.2666667,28.3224 52.7442667,28.8 53.3333333,28.8 Z" id="Shape"></path>
                            <path d="M49.0666667,28.8 C49.6557333,28.8 50.1333333,28.3224 50.1333333,27.7333333 L50.1333333,24.5333333 C50.1333333,23.9442667 49.6557333,23.4666667 49.0666667,23.4666667 C48.4776,23.4666667 48,23.9442667 48,24.5333333 L48,27.7333333 C48,28.3224 48.4776,28.8 49.0666667,28.8 Z" id="Shape"></path>
                            <path d="M57.6,36.2666667 C58.1890667,36.2666667 58.6666667,35.7890667 58.6666667,35.2 L58.6666667,32 C58.6666667,31.4109333 58.1890667,30.9333333 57.6,30.9333333 C57.0109333,30.9333333 56.5333333,31.4109333 56.5333333,32 L56.5333333,35.2 C56.5333333,35.7890667 57.0109333,36.2666667 57.6,36.2666667 Z" id="Shape"></path>
                            <path d="M53.3333333,36.2666667 C53.9224,36.2666667 54.4,35.7890667 54.4,35.2 L54.4,32 C54.4,31.4109333 53.9224,30.9333333 53.3333333,30.9333333 C52.7442667,30.9333333 52.2666667,31.4109333 52.2666667,32 L52.2666667,35.2 C52.2666667,35.7890667 52.7442667,36.2666667 53.3333333,36.2666667 Z" id="Shape"></path>
                            <path d="M49.0666667,36.2666667 C49.6557333,36.2666667 50.1333333,35.7890667 50.1333333,35.2 L50.1333333,32 C50.1333333,31.4109333 49.6557333,30.9333333 49.0666667,30.9333333 C48.4776,30.9333333 48,31.4109333 48,32 L48,35.2 C48,35.7890667 48.4776,36.2666667 49.0666667,36.2666667 Z" id="Shape"></path>
                            <path d="M57.6,43.7333333 C58.1890667,43.7333333 58.6666667,43.2557333 58.6666667,42.6666667 L58.6666667,39.4666667 C58.6666667,38.8776 58.1890667,38.4 57.6,38.4 C57.0109333,38.4 56.5333333,38.8776 56.5333333,39.4666667 L56.5333333,42.6666667 C56.5333333,43.2557333 57.0109333,43.7333333 57.6,43.7333333 Z" id="Shape"></path>
                            <path d="M53.3333333,43.7333333 C53.9224,43.7333333 54.4,43.2557333 54.4,42.6666667 L54.4,39.4666667 C54.4,38.8776 53.9224,38.4 53.3333333,38.4 C52.7442667,38.4 52.2666667,38.8776 52.2666667,39.4666667 L52.2666667,42.6666667 C52.2666667,43.2557333 52.7442667,43.7333333 53.3333333,43.7333333 Z" id="Shape"></path>
                            <path d="M49.0666667,43.7333333 C49.6557333,43.7333333 50.1333333,43.2557333 50.1333333,42.6666667 L50.1333333,39.4666667 C50.1333333,38.8776 49.6557333,38.4 49.0666667,38.4 C48.4776,38.4 48,38.8776 48,39.4666667 L48,42.6666667 C48,43.2557333 48.4776,43.7333333 49.0666667,43.7333333 Z" id="Shape"></path>
                            <path d="M36.2666667,28.8 C36.8557333,28.8 37.3333333,28.3224 37.3333333,27.7333333 L37.3333333,24.5333333 C37.3333333,23.9442667 36.8557333,23.4666667 36.2666667,23.4666667 C35.6776,23.4666667 35.2,23.9442667 35.2,24.5333333 L35.2,27.7333333 C35.2,28.3224 35.6776,28.8 36.2666667,28.8 Z" id="Shape"></path>
                            <path d="M32,28.8 C32.5890667,28.8 33.0666667,28.3224 33.0666667,27.7333333 L33.0666667,24.5333333 C33.0666667,23.9442667 32.5890667,23.4666667 32,23.4666667 C31.4109333,23.4666667 30.9333333,23.9442667 30.9333333,24.5333333 L30.9333333,27.7333333 C30.9333333,28.3224 31.4109333,28.8 32,28.8 Z" id="Shape"></path>
                            <path d="M27.7333333,28.8 C28.3224,28.8 28.8,28.3224 28.8,27.7333333 L28.8,24.5333333 C28.8,23.9442667 28.3224,23.4666667 27.7333333,23.4666667 C27.1442667,23.4666667 26.6666667,23.9442667 26.6666667,24.5333333 L26.6666667,27.7333333 C26.6666667,28.3224 27.1442667,28.8 27.7333333,28.8 Z" id="Shape"></path>
                            <path d="M36.2666667,36.2666667 C36.8557333,36.2666667 37.3333333,35.7890667 37.3333333,35.2 L37.3333333,32 C37.3333333,31.4109333 36.8557333,30.9333333 36.2666667,30.9333333 C35.6776,30.9333333 35.2,31.4109333 35.2,32 L35.2,35.2 C35.2,35.7890667 35.6776,36.2666667 36.2666667,36.2666667 Z" id="Shape"></path>
                            <path d="M32,36.2666667 C32.5890667,36.2666667 33.0666667,35.7890667 33.0666667,35.2 L33.0666667,32 C33.0666667,31.4109333 32.5890667,30.9333333 32,30.9333333 C31.4109333,30.9333333 30.9333333,31.4109333 30.9333333,32 L30.9333333,35.2 C30.9333333,35.7890667 31.4109333,36.2666667 32,36.2666667 Z" id="Shape"></path>
                            <path d="M27.7333333,36.2666667 C28.3224,36.2666667 28.8,35.7890667 28.8,35.2 L28.8,32 C28.8,31.4109333 28.3224,30.9333333 27.7333333,30.9333333 C27.1442667,30.9333333 26.6666667,31.4109333 26.6666667,32 L26.6666667,35.2 C26.6666667,35.7890667 27.1442667,36.2666667 27.7333333,36.2666667 Z" id="Shape"></path>
                            <path d="M23.4666667,28.8 C24.0557333,28.8 24.5333333,28.3224 24.5333333,27.7333333 L24.5333333,24.5333333 C24.5333333,23.9442667 24.0557333,23.4666667 23.4666667,23.4666667 C22.8776,23.4666667 22.4,23.9442667 22.4,24.5333333 L22.4,27.7333333 C22.4,28.3224 22.8776,28.8 23.4666667,28.8 Z" id="Shape"></path>
                            <path d="M23.4666667,36.2666667 C24.0557333,36.2666667 24.5333333,35.7890667 24.5333333,35.2 L24.5333333,32 C24.5333333,31.4109333 24.0557333,30.9333333 23.4666667,30.9333333 C22.8776,30.9333333 22.4,31.4109333 22.4,32 L22.4,35.2 C22.4,35.7890667 22.8776,36.2666667 23.4666667,36.2666667 Z" id="Shape"></path>
                            <path d="M40.5333333,28.8 C41.1224,28.8 41.6,28.3224 41.6,27.7333333 L41.6,24.5333333 C41.6,23.9442667 41.1224,23.4666667 40.5333333,23.4666667 C39.9442667,23.4666667 39.4666667,23.9442667 39.4666667,24.5333333 L39.4666667,27.7333333 C39.4666667,28.3224 39.9442667,28.8 40.5333333,28.8 Z" id="Shape"></path>
                            <path d="M36.2666667,21.3333333 C36.8557333,21.3333333 37.3333333,20.8557333 37.3333333,20.2666667 L37.3333333,17.0666667 C37.3333333,16.4776 36.8557333,16 36.2666667,16 C35.6776,16 35.2,16.4776 35.2,17.0666667 L35.2,20.2666667 C35.2,20.8557333 35.6776,21.3333333 36.2666667,21.3333333 Z" id="Shape"></path>
                            <path d="M32,21.3333333 C32.5890667,21.3333333 33.0666667,20.8557333 33.0666667,20.2666667 L33.0666667,17.0666667 C33.0666667,16.4776 32.5890667,16 32,16 C31.4109333,16 30.9333333,16.4776 30.9333333,17.0666667 L30.9333333,20.2666667 C30.9333333,20.8557333 31.4109333,21.3333333 32,21.3333333 Z" id="Shape"></path>
                            <path d="M27.7333333,21.3333333 C28.3224,21.3333333 28.8,20.8557333 28.8,20.2666667 L28.8,17.0666667 C28.8,16.4776 28.3224,16 27.7333333,16 C27.1442667,16 26.6666667,16.4776 26.6666667,17.0666667 L26.6666667,20.2666667 C26.6666667,20.8557333 27.1442667,21.3333333 27.7333333,21.3333333 Z" id="Shape"></path>
                            <path d="M23.4666667,21.3333333 C24.0557333,21.3333333 24.5333333,20.8557333 24.5333333,20.2666667 L24.5333333,17.0666667 C24.5333333,16.4776 24.0557333,16 23.4666667,16 C22.8776,16 22.4,16.4776 22.4,17.0666667 L22.4,20.2666667 C22.4,20.8557333 22.8776,21.3333333 23.4666667,21.3333333 Z" id="Shape"></path>
                            <path d="M40.5333333,21.3333333 C41.1224,21.3333333 41.6,20.8557333 41.6,20.2666667 L41.6,17.0666667 C41.6,16.4776 41.1224,16 40.5333333,16 C39.9442667,16 39.4666667,16.4776 39.4666667,17.0666667 L39.4666667,20.2666667 C39.4666667,20.8557333 39.9442667,21.3333333 40.5333333,21.3333333 Z" id="Shape"></path>
                            <path d="M36.2666667,13.8666667 C36.8557333,13.8666667 37.3333333,13.3890667 37.3333333,12.8 L37.3333333,9.6 C37.3333333,9.01093333 36.8557333,8.53333333 36.2666667,8.53333333 C35.6776,8.53333333 35.2,9.01093333 35.2,9.6 L35.2,12.8 C35.2,13.3890667 35.6776,13.8666667 36.2666667,13.8666667 Z" id="Shape"></path>
                            <path d="M32,13.8666667 C32.5890667,13.8666667 33.0666667,13.3890667 33.0666667,12.8 L33.0666667,9.6 C33.0666667,9.01093333 32.5890667,8.53333333 32,8.53333333 C31.4109333,8.53333333 30.9333333,9.01093333 30.9333333,9.6 L30.9333333,12.8 C30.9333333,13.3890667 31.4109333,13.8666667 32,13.8666667 Z" id="Shape"></path>
                            <path d="M27.7333333,13.8666667 C28.3224,13.8666667 28.8,13.3890667 28.8,12.8 L28.8,9.6 C28.8,9.01093333 28.3224,8.53333333 27.7333333,8.53333333 C27.1442667,8.53333333 26.6666667,9.01093333 26.6666667,9.6 L26.6666667,12.8 C26.6666667,13.3890667 27.1442667,13.8666667 27.7333333,13.8666667 Z" id="Shape"></path>
                            <path d="M23.4666667,13.8666667 C24.0557333,13.8666667 24.5333333,13.3890667 24.5333333,12.8 L24.5333333,9.6 C24.5333333,9.01093333 24.0557333,8.53333333 23.4666667,8.53333333 C22.8776,8.53333333 22.4,9.01093333 22.4,9.6 L22.4,12.8 C22.4,13.3890667 22.8776,13.8666667 23.4666667,13.8666667 Z" id="Shape"></path>
                            <path d="M40.5333333,13.8666667 C41.1224,13.8666667 41.6,13.3890667 41.6,12.8 L41.6,9.6 C41.6,9.01093333 41.1224,8.53333333 40.5333333,8.53333333 C39.9442667,8.53333333 39.4666667,9.01093333 39.4666667,9.6 L39.4666667,12.8 C39.4666667,13.3890667 39.9442667,13.8666667 40.5333333,13.8666667 Z" id="Shape"></path>
                            <path d="M40.5333333,36.2666667 C41.1224,36.2666667 41.6,35.7890667 41.6,35.2 L41.6,32 C41.6,31.4109333 41.1224,30.9333333 40.5333333,30.9333333 C39.9442667,30.9333333 39.4666667,31.4109333 39.4666667,32 L39.4666667,35.2 C39.4666667,35.7890667 39.9442667,36.2666667 40.5333333,36.2666667 Z" id="Shape"></path>
                        </g>
                    </g>
                </g>
            </g>
        </g>
    </g>
</svg>