<?xml version="1.0" encoding="UTF-8"?>
<svg width="32px" height="32px" viewBox="0 0 32 32" version="1.1" xmlns="http://www.w3.org/2000/svg" xmlns:xlink="http://www.w3.org/1999/xlink">
    <!-- Generator: Sketch 51.2 (57519) - http://www.bohemiancoding.com/sketch -->
    <title>Rectangle 19</title>
    <desc>Created with Sketch.</desc>
    <defs></defs>
    <g id="Symbols" stroke="none" stroke-width="1" fill="none" fill-rule="evenodd">
        <g id="futer" transform="translate(-1267.000000, -403.000000)" fill-rule="nonzero">
            <g id="Group-35" transform="translate(1267.000000, 403.000000)">
                <rect id="Rectangle-19" x="0" y="0" width="32" height="32"></rect>
                <g id="Group-37" transform="translate(4.000000, 4.000000)" fill="#FFFFFF">
                    <path d="M4,0 L20,0 C22.209139,-4.05812251e-16 24,1.790861 24,4 L24,20 C24,22.209139 22.209139,24 20,24 L4,24 C1.790861,24 2.705415e-16,22.209139 0,20 L0,4 C-2.705415e-16,1.790861 1.790861,4.05812251e-16 4,0 Z M19.076923,7.45021153 C18.5162499,7.69615384 17.9188269,7.85917307 17.2959615,7.93832691 C17.9367307,7.55574999 18.4257884,6.95455769 18.6557115,6.22992308 C18.0582884,6.58611538 17.398673,6.83771153 16.6957115,6.97811538 C16.1284422,6.37409615 15.3199422,6 14.4379423,6 C12.7267115,6 11.3490577,7.38896153 11.3490577,9.09171152 C11.3490577,9.33671152 11.3697884,9.57228844 11.420673,9.79655767 C8.85099998,9.67123075 6.57721153,8.4396346 5.04973076,6.5635 C4.78305769,7.02617307 4.62663461,7.55574999 4.62663461,8.12584614 C4.62663461,9.19630768 5.17788461,10.1452115 5.99957691,10.6945769 C5.50298076,10.6851538 5.01580769,10.5409807 4.60307692,10.3138846 C4.60307692,10.3233077 4.60307692,10.3355577 4.60307692,10.3478077 C4.60307692,11.8498461 5.67448076,13.0974615 7.07946152,13.3848653 C6.82786537,13.4536538 6.55365383,13.4866346 6.26907691,13.4866346 C6.0711923,13.4866346 5.87142307,13.4753269 5.68390384,13.4338653 C6.0843846,14.657923 7.22080768,15.5578269 8.5720769,15.5870384 C7.52046152,16.409673 6.18521153,16.9053269 4.73971153,16.9053269 C4.48623077,16.9053269 4.24311538,16.8940192 4,16.862923 C5.36917307,17.7458653 6.99182691,18.2499999 8.74169228,18.2499999 C14.4294615,18.2499999 17.5390769,13.5384615 17.5390769,9.45449998 C17.5390769,9.31786537 17.5343653,9.18594229 17.5277692,9.05496152 C18.1412115,8.61961537 18.6566538,8.07590384 19.076923,7.45021153 Z" id="Combined-Shape"></path>
                </g>
            </g>
        </g>
    </g>
</svg>