<?xml version="1.0" encoding="UTF-8"?>
<svg width="32px" height="32px" viewBox="0 0 32 32" version="1.1" xmlns="http://www.w3.org/2000/svg" xmlns:xlink="http://www.w3.org/1999/xlink">
    <!-- Generator: Sketch 51.2 (57519) - http://www.bohemiancoding.com/sketch -->
    <title>Rectangle 19</title>
    <desc>Created with Sketch.</desc>
    <defs></defs>
    <g id="Symbols" stroke="none" stroke-width="1" fill="none" fill-rule="evenodd">
        <g id="futer" transform="translate(-1227.000000, -403.000000)" fill-rule="nonzero">
            <g id="Group-18" transform="translate(1227.000000, 403.000000)">
                <rect id="Rectangle-19" x="0" y="0" width="32" height="32"></rect>
                <g id="linkedin-logo-(1)" transform="translate(4.000000, 4.000000)" fill="#FFFFFF">
                    <path d="M4,0 L20,0 C22.209139,-4.05812251e-16 24,1.790861 24,4 L24,20 C24,22.209139 22.209139,24 20,24 L4,24 C1.790861,24 2.705415e-16,22.209139 0,20 L0,4 C-2.705415e-16,1.790861 1.790861,4.05812251e-16 4,0 Z M6.96,20.16 L6.96,9.36 L3.36,9.36 L3.36,20.16 L6.96,20.16 Z M5.16,7.32 C6.36,7.32 7.32,6.36 7.32,5.16 C7.32,3.96 6.36,3 5.16,3 C3.96,3 3,3.96 3,5.16 C3,6.36 3.96,7.32 5.16,7.32 Z M20.16,20.16 L20.16,13.32 C20.16,11.04 18.24,9.12 15.96,9.12 C14.88,9.12 13.56,9.84 12.96,10.8 L12.96,9.36 L9.36,9.36 L9.36,20.16 L12.96,20.16 L12.96,13.8 C12.96,12.8400471 13.8,12 14.76,12 C15.72,12 16.56,12.8400471 16.56,13.8 L16.56,20.16 L20.16,20.16 Z" id="Combined-Shape"></path>
                </g>
            </g>
        </g>
    </g>
</svg>