<?xml version="1.0" encoding="UTF-8"?>
<svg width="32px" height="32px" viewBox="0 0 32 32" version="1.1" xmlns="http://www.w3.org/2000/svg" xmlns:xlink="http://www.w3.org/1999/xlink">
    <defs>
        <path d="M16,0 L18.25,0 C17.77,0.64 17.12,1.44 16.8,2.4 L16,2.4 L14.7,2.4 L14.7,2.55 C14.54,3.35 15.37,3.35 15.85,3.35 C15.85,3.35 16,4.64 16,4.8 C16.16,5.6 15.7,6.1 15.7,6.9 C15.54,7.38 15.68,8.18 16,8.5 C16.16,8.66 16.14,8.65 16.3,8.65 L16.5,8.65 C17.14,10.73 18.42,12.98 19.7,14.9 C19.54,15.7 19.02,16.46 18.7,17.1 C18.38,17.58 18.22,18.07 17.9,18.55 C17.74,19.19 17.78,19.67 18.1,20.15 C18.9,21.27 20.33,20.78 21.45,21.1 C21.77,21.26 22.09,21.44 22.25,21.6 C22.57,22.08 22.74,22.71 22.9,23.35 C23.22,23.99 23.34,24.66 23.5,25.3 C23.66,25.78 23.84,26.42 24,26.9 C26.72,24.82 28.66,21.77 29.3,18.25 C30.1,17.13 31.04,15.84 32,14.4 L32,16 C32,24.8 24.8,32 16,32 C7.2,32 0,24.8 0,16 C0,7.2 7.2,0 16,0 Z M25.6,0 C29.12,0 32,2.88 32,6.4 C32,9.92 25.6,17.6 25.6,17.6 C25.6,17.6 19.2,9.92 19.2,6.4 C19.2,2.88 22.08,0 25.6,0 Z M25.6,4 C24.32,4 23.2,5.12 23.2,6.4 C23.2,7.68 24.32,8.8 25.6,8.8 C26.88,8.8 28,7.68 28,6.4 C28,5.12 26.88,4 25.6,4 Z M9.6,4.95 C9.02,4.99 8.41,5.14 7.85,5.3 C4.65,7.86 2.55,11.68 2.55,16 L2.55,17.3 C3.19,18.1 4.01,18.71 4.65,19.35 C5.45,19.83 6.72,19.85 7.2,20.65 C7.68,21.29 7.5,22.1 7.5,22.9 C7.66,23.7 8.18,24.65 8.5,25.45 C8.66,25.93 8.79,26.41 8.95,27.05 L8.95,27.35 C10.07,28.15 11.22,28.63 12.5,28.95 C12.66,28.79 12.8,28.5 12.8,28.5 C13.12,28.02 13.46,27.37 14.1,27.05 C14.42,26.89 14.73,26.72 15.05,26.4 C15.37,26.08 15.54,25.43 15.7,24.95 C15.86,24.47 16,23.83 16,23.35 C16,23.03 15.82,22.86 15.5,22.7 C14.54,22.38 13.44,22.4 12.8,21.6 C12.64,21.28 12.66,20.97 12.5,20.65 C12.18,20.33 11.38,20.16 10.9,20 L8.8,20 L7.7,20 C7.06,20 6.87,19.18 6.55,18.7 C6.39,18.54 6.26,18.25 6.1,18.25 C5.78,18.25 5.42,18.41 5.1,18.25 C4.94,18.09 4.95,17.91 4.95,17.75 C4.95,17.27 5.28,16.82 5.6,16.5 C6.08,16.02 6.57,16.49 7.05,16.65 C7.21,16.65 7.19,16.8 7.35,16.8 C7.83,17.12 8,17.62 8,18.1 L8,18.4 C8,18.4 8.14,18.55 8.3,18.55 C8.46,17.75 8.65,16.95 8.65,16.15 C8.65,15.35 9.6,14.22 10.4,13.9 C10.72,13.74 10.88,14.06 11.2,13.9 C12.16,13.58 14.42,12.63 14.1,11.35 C13.78,10.23 12.78,9.14 11.5,9.3 C11.18,9.46 11.02,9.59 10.7,9.75 C10.38,10.07 9.28,11.05 8.8,11.05 C8,10.89 7.99,9.78 8.15,9.3 C8.31,8.66 9.75,6.58 10.55,6.9 C10.87,7.06 11.19,7.34 11.35,7.5 C11.67,7.66 12.17,7.7 12.65,7.7 C12.81,7.7 12.94,7.66 13.1,7.5 C13.26,7.5 13.3,7.36 13.3,7.2 C13.3,6.72 12.82,6.22 12.5,5.9 C12.18,5.58 11.68,5.26 11.2,5.1 C10.72,4.94 10.18,4.91 9.6,4.95 Z" id="path-1"></path>
    </defs>
    <g id="Page-1" stroke="none" stroke-width="1" fill="none" fill-rule="evenodd">
        <g id="Desktop-HD-3" transform="translate(-208.000000, -26.000000)">
            <g id="Group-25" transform="translate(208.000000, 17.000000)">
                <g id="Group-3" transform="translate(0.000000, 9.000000)">
                    <mask id="mask-2" fill="white">
                        <use xlink:href="#path-1"></use>
                    </mask>
                    <g id="Clip-2"></g>
                    <polygon id="Fill-1" fill="#ffffff" mask="url(#mask-2)" points="-5 -5 37 -5 37 37 -5 37"></polygon>
                </g>
            </g>
        </g>
    </g>
</svg>