<?xml version="1.0" encoding="UTF-8"?>
<svg width="64px" height="64px" viewBox="0 0 64 64" version="1.1" xmlns="http://www.w3.org/2000/svg" xmlns:xlink="http://www.w3.org/1999/xlink">
    <!-- Generator: Sketch 51.2 (57519) - http://www.bohemiancoding.com/sketch -->
    <title>Rectangle 12</title>
    <desc>Created with Sketch.</desc>
    <defs></defs>
    <g id="Page-1" stroke="none" stroke-width="1" fill="none" fill-rule="evenodd">
        <g id="registration_join-us-travel" transform="translate(-133.000000, -69.000000)">
            <g id="Group-10" transform="translate(60.000000, 69.000000)">
                <g id="Group-3" transform="translate(73.000000, 0.000000)">
                    <rect id="Rectangle-12" fill="#FFFFFF" opacity="0.5" x="0" y="0" width="64" height="64"></rect>
                    <g id="planet-earth" transform="translate(4.000000, 4.000000)" fill-rule="nonzero">
                        <polygon id="Shape" fill="#000000" points="19.3368906 20.0058906 19.3368906 20.0058906 19.3303906 19.9918906"></polygon>
                        <polygon id="Shape" fill="#000000" points="11.6311563 35.3604219 11.6311563 35.3669219 11.6781563 35.1414219"></polygon>
                        <polygon id="Shape" fill="#000000" points="22.9475313 25.4544219 22.9545312 25.4239219 22.9980313 25.2154219"></polygon>
                        <polygon id="Shape" fill="#000000" points="25.8410469 42.2601875 25.8475469 42.2391875 25.8515469 42.2261875"></polygon>
                        <path d="M39.0526719,22.8420938 C36.61,22.8420938 34.631625,24.8212344 34.631625,27.2631406 C34.631625,29.7050469 36.6101094,31.6841875 39.0526719,31.6841875 C41.4945781,31.6841875 43.4737187,29.7050469 43.4737187,27.2631406 C43.4737187,24.8212344 41.4945781,22.8420938 39.0526719,22.8420938 Z M39.0526719,29.4737187 C37.8339062,29.4737187 36.8420937,28.4819063 36.8420937,27.2631406 C36.8420937,26.044375 37.8339062,25.0525625 39.0526719,25.0525625 C40.2714375,25.0525625 41.26325,26.044375 41.26325,27.2631406 C41.26325,28.4819062 40.2714375,29.4737187 39.0526719,29.4737187 Z" id="Shape" fill="#D4DCE4"></path>
                        <g id="Group">
                            <path d="M28,0 C23.7793281,0 19.7857188,0.94675 16.1972344,2.6201875 C14.476,1.00132812 12.1462031,0 9.5790625,0 C4.29723438,0 0.000109375,4.21476563 0.000109375,9.39476562 C0.000109375,11.3429531 1.1930625,13.7982031 2.66525,16.0926719 C0.96315625,19.7075156 0.000109375,23.7395156 0.000109375,27.9998906 C0.000109375,43.4633281 12.5344844,56 28,56 C43.4655156,56 55.9998906,43.4633281 55.9998906,28.0001094 C55.9998906,12.5368906 43.465625,0 28,0 Z M2.2106875,9.39476562 C2.2106875,5.42532812 5.51096875,2.21057812 9.5790625,2.21057812 C13.6479219,2.21057812 16.9474375,5.4254375 16.9474375,9.39476562 C16.9474375,13.3619062 9.5790625,21.3684844 9.5790625,21.3684844 C9.5790625,21.3684844 2.2106875,13.3619062 2.2106875,9.39476562 Z M2.21046875,27.9995625 C2.21057812,24.5441875 2.89953125,21.247625 4.13885938,18.2331406 C5.75771875,20.4348594 7.368375,22.2304688 7.95276562,22.8649531 L9.57895312,24.6326719 L11.2051406,22.8649531 C12.5336094,21.4221875 19.1577969,13.9911406 19.1577969,9.39476563 C19.1577969,7.55125 18.606,5.83504687 17.6672344,4.38276563 C19.4430469,3.602375 21.3218906,3.01525 23.2782812,2.650375 L22.679125,3.72760938 C22.3896094,4.25217188 22.281875,4.815125 22.2790312,5.37075 C22.2850469,6.06998438 22.4484531,6.775125 22.8832188,7.39560938 L22.8817969,7.3941875 L24.5624531,9.75504688 C24.6545469,9.88028125 24.7775937,10.1388438 24.8579844,10.4262813 C24.9404531,10.7136094 24.9869375,11.0341875 24.9861719,11.284 C24.9869375,11.3974219 24.9766562,11.4969531 24.9640781,11.5677188 L24.9648437,11.5654219 L24.5285469,13.9424688 C24.5050312,14.1009531 24.3664531,14.4117969 24.1617031,14.6697031 C23.96275,14.9319844 23.6960937,15.1434062 23.5486562,15.2060781 L20.5932344,16.5699844 C19.6479062,17.0097813 19.0944687,17.9441719 19.0944687,18.9190313 C19.0944687,19.2763594 19.170375,19.6462656 19.3309375,19.9948438 L20.5784687,22.7107344 C20.6433281,22.8492031 20.7177031,23.0901562 20.7671406,23.3584531 C20.8172344,23.62675 20.8444687,23.9243594 20.8444687,24.1917812 C20.8444687,24.42825 20.8216094,24.6441563 20.7898906,24.7812031 L20.7752344,24.8409219 L20.4355156,26.3161719 C20.3994219,26.4936875 20.2401719,26.8275 20.0206562,27.1090313 C19.8055156,27.3949375 19.5239844,27.6343594 19.3626562,27.7154063 L17.1793125,28.8737969 C17.0673125,28.9372344 16.813125,29.0041719 16.5441719,29.0013281 C16.2192187,29.0064688 15.8817969,28.9039844 15.7556875,28.8149531 L13.9695937,27.6647656 C13.3764531,27.2897187 12.719875,27.1497187 12.0685469,27.1453438 C11.4691719,27.1490625 10.8609375,27.2690469 10.3012656,27.5962969 L8.51254687,28.6549375 C8.16845312,28.8575 7.8780625,29.1375 7.6755,29.4736094 C7.47359375,29.8088437 7.36301562,30.1986563 7.36378125,30.5898906 C7.36082812,31.1778906 7.61140625,31.756375 8.029875,32.1866562 L8.02845312,32.1852344 L9.02978125,33.2299844 C9.12045312,33.3213125 9.2544375,33.5327344 9.3436875,33.781125 C9.43435937,34.027875 9.48445312,34.3101719 9.48292187,34.5215938 C9.4836875,34.6107344 9.47482812,34.6888281 9.46301562,34.7485469 L9.26329687,35.7050313 C9.21910937,35.9313281 9.06139062,36.329125 8.85215625,36.6865625 C8.64795312,37.0461875 8.38195312,37.3821875 8.20892187,37.5338906 L7.30329687,38.3458906 C6.70064062,38.8890469 5.92167187,39.7017031 5.36615625,40.3566406 C3.35770312,36.6839375 2.21046875,32.4736563 2.21046875,27.9995625 Z M20.73925,48.388375 L19.5825,52.3710469 C14.2402969,50.5208594 9.688,46.9670469 6.58601563,42.354375 C6.68620313,42.2305625 6.79371875,42.0964688 6.90801563,41.9564688 C7.3443125,41.4149531 8.24392188,40.4710469 8.78325,39.9897969 L9.68810938,39.1777969 C10.1177344,38.78875 10.4691563,38.3082656 10.77125,37.7889531 C11.0688594,37.2673438 11.3083906,36.7221094 11.4307813,36.1560938 L11.6319219,35.1893281 C11.6767656,34.9675156 11.6967813,34.7442813 11.6967813,34.5202813 C11.6960156,34.0052344 11.5959375,33.4997031 11.4219219,33.0200938 C11.2450625,32.5419063 10.9990781,32.0887656 10.6290625,31.6996094 L9.62773438,30.6539844 L9.6254375,30.6525625 L9.58639063,30.5995156 L9.6394375,30.5560938 L11.42925,29.4972344 L11.4315469,29.4964688 C11.5384063,29.4278906 11.7983906,29.3519844 12.0704063,29.3549375 C12.3651719,29.3512188 12.6591719,29.441125 12.7755469,29.5229375 L14.5602188,30.6724688 C15.17775,31.0622813 15.86375,31.2058906 16.5459219,31.2110313 C17.1118281,31.2080781 17.6813438,31.1064688 18.2170625,30.8263594 L20.4004062,29.6679688 C20.9559219,29.3680625 21.3988906,28.9399688 21.7760156,28.4552188 C22.1474531,27.9652188 22.4464844,27.4257813 22.5917344,26.8120781 L22.9484062,25.2617969 C23.0250781,24.9133281 23.0552656,24.5574219 23.0560313,24.1918906 C23.0552656,23.78075 23.0162188,23.3622813 22.9410781,22.9561719 C22.8651719,22.5494063 22.7568906,22.1581719 22.588125,21.7882656 L21.3391719,19.0693125 L21.33775,19.0663594 L21.3061406,18.9197969 C21.3061406,18.7768438 21.389375,18.6354219 21.5205156,18.5778906 L24.4768125,17.2139844 C25.0648125,16.9368281 25.5267031,16.5125625 25.9084219,16.0254063 C26.2856563,15.5339844 26.5811875,14.9806563 26.7027031,14.3416875 L27.139,11.9652969 L27.1397656,11.963 C27.1811094,11.7367031 27.1971875,11.510625 27.1980625,11.2850938 C27.1966406,10.7921406 27.1199688,10.2962344 26.9836875,9.81957813 C26.8452188,9.3428125 26.65425,8.88671875 26.3632031,8.4748125 L24.6832031,6.11471875 L24.6824375,6.11329688 C24.5902344,5.99692188 24.48425,5.6800625 24.4893906,5.37359375 C24.4870938,5.13198438 24.5497656,4.90710938 24.61025,4.8055 L26.0051094,2.29873438 C26.6652969,2.2456875 27.3284375,2.21025 28.0005469,2.21025 C40.8201719,2.21025 51.4815,11.6137656 53.4576875,23.8850938 L52.4703594,23.3361406 C52.0614063,23.1106094 51.6200781,22.9632813 51.1579688,22.8564219 C50.6959687,22.7518594 50.2207344,22.6935625 49.7550156,22.6929063 C49.5015938,22.6929063 49.2517813,22.7098594 49.0012031,22.7540469 L48.797,22.7901406 C46.9316094,19.3160625 43.2651406,16.9471094 39.0533281,16.9471094 C32.9589531,16.9471094 28.0007656,21.9052969 28.0007656,27.9996719 C28.0007656,31.7244375 31.6577187,37.1084219 34.4760937,40.705 L32.7894219,42.6016719 C32.6885781,42.7211094 32.4313281,42.9081406 32.1373281,43.0305313 C31.8462812,43.1587188 31.518375,43.2272969 31.322375,43.2243438 L31.252375,43.2220469 L28.0300781,42.9737656 L27.9490312,42.9560469 L27.9453125,42.954625 L27.9453125,42.9435781 L27.9555937,42.8772969 L27.9585469,42.8692031 L28.5333125,40.9541563 C28.6143594,40.68225 28.6490312,40.4095781 28.6490312,40.145 C28.6476094,39.6204375 28.5157031,39.118625 28.2821875,38.665375 C28.0477969,38.2144219 27.705125,37.8032813 27.2351406,37.5063281 L25.9427656,36.6988125 C25.4999062,36.4225313 25.0046562,36.2964219 24.5228594,36.2971875 C23.702,36.2986094 22.880375,36.6552813 22.3380937,37.3714688 L18.4203906,42.595 C18.074,43.0554688 17.906,43.6037656 17.906,44.1387188 C17.9052344,44.9174688 18.2604844,45.6978594 18.9360937,46.2054688 L20.3692344,47.27975 C20.4479844,47.3365156 20.5622812,47.4698438 20.640375,47.6445156 C20.7214219,47.8168906 20.766375,48.0239375 20.7649531,48.1830781 C20.7650625,48.2675156 20.75325,48.3383906 20.73925,48.388375 Z M47.894875,28.0007656 C47.894875,32.8823906 39.0527813,42.7368594 39.0527813,42.7368594 C39.0527813,42.7368594 30.2106875,32.8822812 30.2106875,28.0007656 C30.2106875,23.1155312 34.1689688,19.1585625 39.0527813,19.1585625 C43.9358281,19.1585625 47.894875,23.1154219 47.894875,28.0007656 Z M28,53.7894219 C25.8278125,53.7894219 23.7175313,53.5159844 21.7007656,53.0076094 L22.8627656,49.0028437 C22.9415156,48.7279844 22.9754219,48.453125 22.9754219,48.1834062 C22.974,47.6697812 22.857625,47.1754062 22.6474063,46.7185469 C22.4359844,46.263875 22.1309375,45.8401562 21.6946406,45.5109375 L20.2621563,44.4366562 C20.167875,44.3666562 20.1176719,44.2582656 20.1170156,44.1390469 C20.1177813,44.0586562 20.1391094,43.9873437 20.1885469,43.9216094 L24.107125,38.6974219 C24.1793125,38.5935156 24.350375,38.5057969 24.52275,38.5080937 C24.6221719,38.5080937 24.7069375,38.5339062 24.7710313,38.5736094 L26.06275,39.381125 C26.1386563,39.4268437 26.2439844,39.535125 26.3198906,39.6832187 C26.3965625,39.8297812 26.4399844,40.0081719 26.4385625,40.1452187 C26.4385625,40.2174062 26.4282813,40.2764687 26.4157031,40.3190156 L25.8432344,42.2289219 C25.7695156,42.4676875 25.7349531,42.7094062 25.7349531,42.9435781 C25.7326563,43.5123281 25.9515156,44.0753906 26.3442813,44.4813906 C26.7348594,44.891875 27.2844688,45.1363281 27.8614219,45.1784375 L31.0837188,45.4267187 C31.1641094,45.4327344 31.243625,45.4355781 31.32325,45.4355781 C31.915625,45.432625 32.480875,45.28825 33.0136406,45.0612969 C33.5442187,44.8299687 34.0385937,44.5197812 34.4424062,44.0717812 L35.8851719,42.4477812 C36.5593594,43.2569375 37.1031719,43.8735937 37.4082187,44.2132031 L39.0528906,46.0464375 L40.6975625,44.2124375 C42.2692812,42.4616719 50.1055625,33.4523437 50.1055625,28.0004375 C50.1055625,26.9261562 49.944125,25.8900469 49.6569062,24.9072031 C49.6900469,24.9064375 49.7195781,24.9034844 49.7549062,24.9034844 C50.0283437,24.9027187 50.3627031,24.9417656 50.6672031,25.0111094 C50.9708281,25.0789219 51.2477656,25.1828281 51.3967344,25.2675937 L53.7480781,26.5739687 C53.7745469,27.0470156 53.7900781,27.5215937 53.7900781,27.9997812 C53.7895313,42.2201719 42.2202813,53.7894219 28,53.7894219 Z" id="Shape" fill="#D4DCE4"></path>
                            <polygon id="Shape" fill="#000000" points="10.3000625 27.5993594 10.3055625 27.5963594 10.3065625 27.5958594"></polygon>
                        </g>
                        <path d="M9.762375,5.15714063 C7.72646875,5.15714063 6.07895313,6.80542188 6.07895313,8.84132813 C6.07895313,10.8764688 7.72657813,12.5255156 9.76248437,12.5255156 C11.7983906,12.5255156 13.4473281,10.8764688 13.4473281,8.84132813 C13.4474375,6.8061875 11.7982813,5.15714063 9.762375,5.15714063 Z M9.76248438,10.3149375 C8.94971875,10.3157031 8.28953125,9.65398438 8.28953125,8.84132813 C8.28953125,8.02867188 8.94971875,7.36771875 9.76248438,7.36771875 C10.5760156,7.36771875 11.2368594,8.02867188 11.2368594,8.84132813 C11.2369687,9.65398438 10.5760156,10.3149375 9.76248438,10.3149375 Z" id="Shape" fill="#D4DCE4"></path>
                    </g>
                </g>
            </g>
        </g>
    </g>
</svg>