<svg xmlns="http://www.w3.org/2000/svg" width="767" height="749"><path d="M121.697 94.397C48.45 155.859 6.042 259.714 6.545 370.78c.522 115.277 46.722 223.65 131.794 295.335 84.373 71.098 214.914 85.066 344.998 44.773 126.377-39.145 228.879-122.72 261.665-219.139 31.771-93.435 21.119-175.283-25.87-248.844-38.004-59.496-97.153-110.964-180.399-163.75-74.57-47.285-139.91-71.415-203.998-72.34-71.04-1.026-140.682 26.867-213.038 87.58zm.643.766c72.18-60.567 141.595-88.37 212.38-87.347 63.878.922 129.05 24.99 203.478 72.185C621.33 132.715 680.38 184.096 718.29 243.445c46.826 73.307 57.438 154.839 25.765 247.983-32.67 96.08-134.918 179.448-261.014 218.506-129.785 40.2-259.976 26.27-344.058-44.583C54.146 593.864 8.066 485.772 7.545 370.776 7.043 259.991 49.335 156.422 122.34 95.163z" fill="none" stroke="#000"/></svg>