<svg xmlns="http://www.w3.org/2000/svg" width="667" height="649"><path d="M103.003 86.965C40.28 139.595 3.965 228.532 4.396 323.645c.447 98.719 40.01 191.524 112.861 252.911 36.974 31.156 84.182 49.71 137.779 55.446 50.205 5.372 104.738-.717 157.659-17.11C520.921 581.37 608.7 509.8 636.774 427.237c27.207-80.01 18.085-150.095-22.151-213.085-17.371-27.196-40.404-52.856-68.89-77.643-24.52-21.336-52.62-41.677-85.605-62.593-63.862-40.495-119.816-61.159-174.695-61.951-60.832-.877-120.467 23.008-182.43 75zm.472.561c61.834-51.885 121.302-75.702 181.948-74.828 54.723.79 110.556 21.41 174.313 61.837 32.956 20.898 61.027 41.218 85.516 62.527 28.436 24.743 51.422 50.352 68.754 77.485C654.123 277.35 663.214 347.203 636.08 427c-27.99 82.314-115.582 153.732-223.602 187.192-52.829 16.363-107.263 22.44-157.364 17.08-53.458-5.72-100.529-24.221-137.385-55.278C45.051 514.753 5.575 422.155 5.13 323.641c-.43-94.906 35.8-183.632 98.345-236.115z" fill="none" stroke="#000"/></svg>