<svg xmlns="http://www.w3.org/2000/svg" width="892" height="870"><path d="M138.91 108.812C53.348 180.607 3.81 301.926 4.397 431.672c.61 134.665 54.58 261.262 153.957 345.002 50.436 42.5 114.834 67.811 187.947 75.635 68.485 7.328 142.875-.978 215.066-23.34 147.634-45.728 267.374-143.36 305.671-255.985 37.113-109.144 24.67-204.747-30.217-290.674-23.696-37.098-55.116-72.102-93.974-105.914-33.448-29.105-71.78-56.852-116.776-85.384-87.115-55.24-163.443-83.428-238.305-84.509-82.982-1.197-164.331 31.385-248.856 102.31zm.643.766C223.903 38.8 305.024 6.31 387.752 7.503c74.65 1.078 150.812 29.205 237.784 84.353 44.957 28.508 83.249 56.226 116.655 85.294 38.79 33.753 70.146 68.687 93.788 105.699 54.725 85.673 67.127 180.96 30.112 289.813-38.181 112.287-157.668 209.71-305.02 255.353-72.065 22.321-146.32 30.612-214.664 23.3-72.923-7.804-137.133-33.041-187.409-75.406C59.856 692.367 6.006 566.051 5.398 431.667 4.81 302.203 54.232 181.17 139.552 109.578z" fill="none" stroke="#000" stroke-opacity=".97"/></svg>