<?xml version="1.0" encoding="UTF-8"?>
<svg width="24px" height="24px" viewBox="0 0 24 24" version="1.1" xmlns="http://www.w3.org/2000/svg" xmlns:xlink="http://www.w3.org/1999/xlink">
    <!-- Generator: Sketch 51.2 (57519) - http://www.bohemiancoding.com/sketch -->
    <title>united-kingdom</title>
    <desc>Created with Sketch.</desc>
    <defs></defs>
    <g id="Symbols" stroke="none" stroke-width="1" fill="none" fill-rule="evenodd">
        <g id="futer" transform="translate(-520.000000, -206.000000)" fill-rule="nonzero">
            <g id="united-kingdom" transform="translate(520.000000, 206.000000)">
                <circle id="Oval" fill="#F0F0F0" cx="12" cy="12" r="12"></circle>
                <g id="Group" transform="translate(0.375000, 0.375000)" fill="#0052B4">
                    <path d="M2.105625,4.31915625 C1.16301563,5.54554687 0.45225,6.9590625 0.038390625,8.49464062 L6.28110938,8.49464062 L2.105625,4.31915625 Z" id="Shape"></path>
                    <path d="M23.2116094,8.49464062 C22.79775,6.95910937 22.0869375,5.54559375 21.144375,4.31920312 L16.9689844,8.49464062 L23.2116094,8.49464062 Z" id="Shape"></path>
                    <path d="M0.038390625,14.7555 C0.452296875,16.2910312 1.1630625,17.7045469 2.105625,18.9308906 L6.28096875,14.7555 L0.038390625,14.7555 Z" id="Shape"></path>
                    <path d="M18.9308438,2.10567188 C17.7044531,1.1630625 16.2909844,0.452296875 14.7554063,0.038390625 L14.7554063,6.2810625 L18.9308438,2.10567188 Z" id="Shape"></path>
                    <path d="M4.31915625,21.1443281 C5.54554687,22.0869375 6.9590625,22.7977031 8.49459375,23.2116094 L8.49459375,16.9689844 L4.31915625,21.1443281 Z" id="Shape"></path>
                    <path d="M8.49454688,0.038390625 C6.95901563,0.452296875 5.5455,1.1630625 4.31915625,2.105625 L8.49454688,6.28101563 L8.49454688,0.038390625 Z" id="Shape"></path>
                    <path d="M14.7554531,23.2116094 C16.2909844,22.7977031 17.7045,22.0869375 18.9308438,21.144375 L14.7554531,16.9689844 L14.7554531,23.2116094 Z" id="Shape"></path>
                    <path d="M16.9689844,14.7555 L21.144375,18.9309375 C22.0869375,17.7045938 22.79775,16.2910312 23.2116094,14.7555 L16.9689844,14.7555 Z" id="Shape"></path>
                </g>
                <g id="Group" fill="#D80027">
                    <path d="M23.8984219,10.4347969 L13.5652969,10.4347969 L13.56525,10.4347969 L13.56525,0.101578125 C13.0528594,0.034875 12.5304844,0 12,0 C11.4694219,0 10.9471406,0.034875 10.4347969,0.101578125 L10.4347969,10.4347031 L10.4347969,10.43475 L0.101578125,10.43475 C0.034875,10.9471406 0,11.4695156 0,12 C0,12.5305781 0.034875,13.0528594 0.101578125,13.5652031 L10.4347031,13.5652031 L10.43475,13.5652031 L10.43475,23.8984219 C10.9471406,23.965125 11.4694219,24 12,24 C12.5304844,24 13.0528594,23.9651719 13.5652031,23.8984219 L13.5652031,13.5652969 L13.5652031,13.56525 L23.8984219,13.56525 C23.965125,13.0528594 24,12.5305781 24,12 C24,11.4695156 23.965125,10.9471406 23.8984219,10.4347969 Z" id="Shape"></path>
                    <path d="M15.1304531,15.1304531 L20.4852656,20.4853125 C20.7315469,20.239125 20.9664844,19.9817344 21.1906406,19.7149219 L16.6061719,15.1304531 L15.1304531,15.1304531 Z" id="Shape"></path>
                    <path d="M8.86954688,15.1305 L8.86945312,15.1305 L3.5146875,20.4852656 C3.760875,20.7315469 4.01826562,20.9664844 4.28507813,21.1906406 L8.86954688,16.6060781 L8.86954688,15.1305 Z" id="Shape"></path>
                    <path d="M8.86954688,8.86964062 L8.86954688,8.86954687 L3.51473438,3.5146875 C3.26845312,3.760875 3.03351563,4.01826562 2.80935938,4.28507813 L7.393875,8.86959375 L8.86954688,8.86964062 Z" id="Shape"></path>
                    <path d="M15.1304531,8.86964062 L20.4853125,3.51473437 C20.239125,3.26845312 19.9817344,3.03351562 19.7149219,2.80940625 L15.1304531,7.39392188 L15.1304531,8.86964062 Z" id="Shape"></path>
                </g>
            </g>
        </g>
    </g>
</svg>