<svg width="411" height="377" viewBox="0 0 411 377" fill="none" xmlns="http://www.w3.org/2000/svg">
    <path d="M170.351 34.7977C171.799 32.2621 172.971 29.9088 173.868 27.7378C174.954 25.8361 174.489 25.7492 172.803 24.4983C166.919 21.2927 161.672 17.2709 156.976 12.8843C155.944 11.9896 155.463 10.7302 154.62 10.1048C153.675 8.75853 152.934 8.85394 152.021 9.85249C150.006 11.5803 147.99 13.3083 146.542 15.8439C144.646 19.465 142.285 22.9991 138.513 25.1001C136.86 26.194 136.773 26.6456 137.822 28.7127C138.87 30.7798 139.918 32.8469 141.053 34.4624C141.431 35.0009 142.085 35.357 141.637 36.4425C139.951 35.1916 137.989 34.1231 136.579 32.6899C134.136 30.362 132.845 30.8221 130.932 33.2708C129.209 35.9887 128.225 38.6113 126.966 41.4162C125.81 44.9419 124.378 48.6498 120.796 51.02C119.694 51.7493 119.985 52.7395 120.828 53.3649C122.893 55.1543 124.492 56.8567 127.107 58.2814C129.912 59.9754 132.716 61.6694 135.159 63.9973C134.229 63.8234 133.3 63.6496 132.646 63.2934C128.361 61.7902 123.989 60.7385 119.791 58.7838C118.019 57.9845 117.743 58.1669 116.657 60.0686C115.501 63.5943 115.274 67.2938 115.512 71.0803C115.561 74.5975 116.35 78.0194 116.863 81.6235C118.079 89.1011 117.901 96.3178 116.707 103.812C116.048 109.77 115.664 115.545 116.21 121.494C116.518 123.656 117.102 125.637 118.15 127.704C119.199 129.771 120.247 131.838 121.106 133.636C121.776 135.164 122.808 136.059 124.202 136.32C128.763 137.641 133.426 139.682 137.625 141.637C140.051 142.793 142.012 143.861 144.352 145.468C142.785 146.111 141.667 145.668 140.273 145.407C134.696 144.364 129.223 144.041 123.938 143.988C121.528 144.005 121.252 144.187 121.285 146.532C121.382 153.567 122.031 160.236 124.074 167.167C125.154 171.579 125.771 175.904 126.3 180.68C127.311 186.716 128.873 192.388 131.45 197.781C132.601 200.569 134.39 202.541 136.368 204.782C137.778 206.215 139.172 206.476 141.393 206.19C148.331 205.149 155.734 204.195 162.791 205.047C163.255 205.134 163.531 204.952 163.72 205.221C163.547 206.124 163.082 206.037 162.618 205.95C156.523 207.617 150.703 209.101 144.9 211.757C144.349 212.122 143.884 212.035 143.333 212.399C141.955 213.311 141.507 214.397 142.728 215.561C144.327 217.263 146.013 218.514 147.613 220.216C153.616 225.315 158.517 231.143 162.505 237.97C164.688 241.653 166.871 245.335 169.606 248.653C173.664 253.856 178.635 258.06 184.795 261.084C190.955 264.107 197.753 266.314 204.361 268.252C207.992 269.399 211.262 271.18 214.617 272.509C219.659 275.089 224.338 278.303 229.104 281.066C234.335 283.915 239.565 286.765 245.504 287.174C249.308 287.418 253.112 287.662 256.711 286.464L256.986 286.282C260.38 283.642 263.459 285.154 266.729 286.935C272.424 289.871 278.671 292.443 284.814 294.294C294.589 297.292 304.262 299.569 314.296 301.212C323.125 302.864 332.041 304.064 341.319 304.63C347.257 305.039 353.471 305.266 359.685 305.493C360.89 305.485 362.095 305.476 363.197 304.747C364.3 304.018 364.937 303.201 364.732 301.76C364.526 300.318 363.959 299.51 362.651 298.798C361.344 298.086 360.139 298.094 358.658 298.285C354.579 298.223 350.499 298.162 346.695 297.918C341.135 298.047 335.834 296.822 330.36 296.499C320.429 295.577 310.67 293.751 301.187 291.744C291.239 289.649 281.74 286.469 272.413 282.385C270.641 281.586 269.057 281.056 267.285 280.257C265.513 279.457 265.599 279.006 266.599 277.556C267.512 276.557 268.701 275.376 269.149 274.291C272.942 267.048 274.325 259.823 271.526 251.816C269.98 247.317 267.797 243.634 265.701 239.5C264.171 236.174 262.453 232.578 262.68 228.878C262.734 226.082 262.788 223.285 263.031 220.758C264.192 210.919 261.29 202.191 256.908 193.653C255.292 190.778 253.125 188.268 251.785 185.211C250.548 182.874 249.499 180.807 248.262 178.471C246.835 175.865 245.906 175.691 243.804 177.871C237.585 183.957 231.555 190.313 224.871 196.313C225.13 194.958 225.492 194.324 225.854 193.691C230.766 186.892 235.677 180.093 240.589 173.294C242.226 171.027 242.037 170.758 239.784 168.699C235.655 165.12 231.165 162.176 227.95 157.598C226.815 155.983 226.075 156.078 224.61 157.441C223.146 158.805 221.871 160.437 220.871 161.887C217.597 166.42 214.409 170.501 210.859 175.216C210.654 173.774 211.291 172.958 211.74 171.873C215.257 164.813 218.688 158.204 221.741 151.058C222.276 149.521 222.346 147.897 222.141 146.455C221.146 141.592 218.309 137.553 215.11 134.148C213.511 132.445 212.187 130.561 211.139 128.493C209.145 125.08 210.009 120.564 213.316 118.376C219.189 114.096 220.778 108.312 219.751 101.104C218.313 91.0124 213.742 82.2056 208.705 73.3118C206.041 68.3698 202.826 63.7925 200.902 58.7552C199.649 55.2464 199.135 51.6421 198.346 48.2203C196.666 40.6558 191.954 35.0969 184.589 32.0821C182.627 31.0135 180.579 30.3965 178.618 29.328C176.656 28.2594 176.191 28.1724 175.105 30.0741C173.83 31.7066 172.744 33.6084 171.28 34.9716C171.642 34.3377 171.091 34.7023 170.351 34.7977Z" fill="#65BD83"/>
    <path d="M218.883 192.217C219.506 192.723 219.312 193.601 219.682 194.419C220.131 201.516 220.268 208.358 219.839 215.26C219.411 222.161 213.582 229.335 206.35 231.227C202.451 232.201 199 231.987 195.179 230.954C194.302 230.759 193.112 230.311 191.982 230.428C193.483 231.129 195.296 232.085 196.797 232.786C207.929 238.206 219.003 243.06 231.539 245.477C233.605 246.12 235.613 246.198 237.933 246.529C239.688 246.919 240 247.172 239.61 248.927C239.668 249.492 239.415 249.804 239.473 250.37C238.889 253.002 237.817 253.684 235.243 253.664C232.923 253.333 230.603 253.002 228.537 252.358C220.017 250.097 212.199 246.335 204.07 242.319C198.63 239.454 192.879 236.335 187.381 232.904C186.757 232.397 185.88 232.202 184.944 231.442C185.373 232.826 186.056 233.898 186.738 234.97C189.409 238.694 191.008 243.1 192.041 247.564C194.245 255.05 189.8 261.795 183.562 265.012C178.396 267.547 172.743 268.132 167.284 267.839C164.399 267.567 161.513 267.294 158.316 266.768C157.439 266.573 155.743 266.748 155.626 265.617C155.509 264.487 156.639 264.37 157.711 263.687C160.109 262.011 162.195 260.081 163.969 257.897C164.983 256.649 165.684 255.148 166.386 253.647C167.224 250.703 166.737 248.754 164.612 247.545C162.175 246.083 158.783 246.434 156.697 248.364C155.683 249.612 154.923 250.548 154.474 251.737C153.773 253.238 153.636 254.681 153.5 256.123C153.364 257.566 152.974 259.321 152.838 260.763C151.922 265.715 148.705 267.762 143.929 268.542C139.152 269.322 134.201 268.406 129.756 266.866C127.689 266.223 125.311 265.326 123.497 264.371C122.308 263.922 121.684 263.416 121.002 262.343C123.712 260.92 126.421 259.497 128.566 258.132C134.239 254.974 138.976 251.055 142.718 245.811C142.972 245.499 142.972 245.499 143.225 245.187C144.746 243.315 145.077 240.996 143.771 239.416C142.776 238.091 140.145 237.506 138.195 237.994C135.68 238.539 134.472 240.664 133.263 242.789C131.548 245.538 129.579 248.599 127.552 251.095C125.017 254.214 121.859 256.826 118.019 258.366C115.563 259.478 112.989 259.458 110.357 258.874C107.414 258.035 104.723 256.885 102.228 254.858C100.356 253.337 97.919 251.875 96.0473 250.355C93.5518 248.327 91.3097 245.988 89.321 243.337C89.0091 243.083 88.3852 242.576 88.5801 241.699C88.775 240.822 89.6523 241.017 90.2176 240.958C94.799 241.056 99.0099 240.334 103.162 239.047C109.011 237.585 114.489 235.304 119.284 231.951C121.936 229.962 124.587 227.973 126.244 224.659C127.452 222.534 127.082 221.715 125.21 220.195C122.149 218.226 117.373 219.006 115.404 222.067C111.525 228.754 105.228 231.405 98.1906 232.419C95.1104 233.024 91.6597 232.809 88.7744 232.536C82.1265 231.796 77.2525 228.872 73.0217 223.881C67.7966 217.565 63.9556 210.82 60.8748 203.139C60.8748 203.139 60.563 202.885 60.8164 202.574C60.7578 202.008 60.1339 201.501 60.6407 200.877C61.1475 200.254 62.0248 200.448 62.6487 200.955C68.5949 203.197 74.4826 204.874 80.6237 206.238C86.7648 207.602 93.1007 208.09 99.3782 208.011C102.517 207.972 106.162 207.309 109.184 206.14C110.822 205.399 112.147 204.404 113.161 203.157C113.863 201.656 113.999 200.213 113.005 198.887C112.01 197.562 111.133 197.367 109.69 197.23C108.248 197.094 106.864 197.523 105.85 198.771C101.678 202.631 96.9604 203.976 91.8137 203.937C78.9469 203.84 67.8733 198.986 58.1446 190.565C56.273 189.044 55.1617 186.588 54.3622 184.385C52.7048 179.414 51.0473 174.442 50.2086 169.101C50.0916 167.97 49.6627 166.586 49.2922 165.767C49.2337 165.202 48.8632 164.383 49.682 164.013C50.5007 163.642 50.8712 164.461 51.1831 164.714C52.7428 165.982 54.3025 167.249 55.8622 168.516C63.0368 174.345 70.9132 178.672 79.5498 182.064C85.496 184.306 91.6371 185.67 98.1094 184.715C99.8055 184.539 101.19 184.11 102.262 183.428C104.153 182.375 104.543 180.621 102.924 178.788C101.677 177.775 100.175 177.073 98.1673 176.995C90.1938 177.249 83.0585 174.558 76.3713 170.679C69.0604 166.293 62.8215 161.224 57.2845 154.655C55.2958 152.004 53.5605 149.04 51.8253 146.077C48.9786 140.658 48.7053 135.258 50.3815 129.37C51.4145 125.549 52.194 122.04 54.1043 118.414C55.7027 114.534 56.7356 110.713 57.1447 106.385C57.0862 105.82 57.2811 104.943 57.2226 104.377C57.2419 101.804 57.4952 101.492 60.1271 102.077C67.0285 102.505 73.1303 100.731 79.1152 97.8261C84.0278 95.6035 88.6092 95.7008 93.1713 98.3715C96.4856 100.028 98.7277 102.368 100.775 105.584C104.44 110.634 106.215 116.735 107.424 122.896C108.029 125.976 108.38 129.368 108.419 132.507C108.575 136.776 109.55 140.675 111.656 144.457C112.338 145.529 112.826 147.479 114.775 146.991C116.725 146.504 117.114 144.749 117.563 143.56C118.537 139.174 117.562 135.275 116.587 131.376C113.292 118.86 107.228 107.202 99.3317 97.1626C99.0197 96.9092 98.7078 96.6557 98.6492 96.0904C97.9668 95.0182 97.9084 94.4529 99.2925 94.0239C102.373 93.4195 105.511 93.3804 108.709 93.9066C115.98 95.1541 122.492 97.3373 128.672 101.841C130.232 103.108 131.85 104.94 132.591 106.578C133.644 108.469 134.131 110.418 134.619 112.368C136.939 120.984 137.564 129.777 137.311 138.374C137.312 146.659 136.747 155.003 134.427 162.957C134.038 164.712 134.779 166.349 136.28 167.051C137.781 167.753 139.418 167.012 140.686 165.452C141.446 164.517 141.894 163.327 142.03 161.885C144.876 150.734 146.025 139.758 144.855 128.451C144.153 121.666 143.197 115.194 140.799 108.585C139.999 106.382 139.258 104.745 138.205 102.854C137.776 101.47 137.718 100.904 139.414 100.729C139.979 100.67 140.545 100.612 140.545 100.612C146.315 101.158 152.086 101.703 157.272 104.881C160.021 106.596 163.335 108.253 166.084 109.969C168.268 111.743 169.32 113.634 170.432 116.09C172.46 121.88 172.48 127.592 171.681 133.674C170.59 145.216 167.744 156.367 161.078 166.485C160.122 168.298 159.167 170.111 159.655 172.061C159.83 173.757 160.825 175.082 162.579 175.472C164.334 175.862 165.718 175.433 166.732 174.185C168.506 172.002 169.968 169.565 170.806 166.621C172.989 160.11 174.294 153.403 175.035 146.756C176.165 138.353 176.983 129.697 176.105 121.217C176.183 119.209 175.696 117.26 174.896 115.057C176.651 115.446 177.899 116.46 179.088 116.909C182.149 118.877 185.21 120.846 188.329 123.381C195.562 129.775 202.854 136.734 208.82 144.688C211.491 148.412 211.842 151.804 210.868 156.19C208.996 162.955 204.63 167.692 199.639 171.923C196.481 174.535 193.323 177.148 189.541 179.253C188.469 179.936 187.65 180.306 186.578 180.988C185.253 181.983 184.863 183.737 185.857 185.063C186.286 186.447 188.041 186.837 189.737 186.661C191.94 185.862 193.889 185.375 195.722 183.756C201.219 178.902 206.151 174.106 210.401 168.238C213.13 164.241 214.669 159.796 215.332 155.157C215.273 154.591 215.215 154.026 215.468 153.714C215.722 153.402 216.034 153.656 216.346 153.909C218.198 158.003 220.616 162.038 221.649 166.503C222.254 169.583 221.922 171.903 220.519 174.905C217.322 182.664 210.694 187.636 204.008 192.042C202.117 193.094 200.479 193.835 198.9 195.142C196.249 197.13 195.918 199.45 197.712 202.979C198.823 205.435 200.948 206.643 203.97 205.474C210.89 203.329 215.939 199.664 217.752 192.334C218.122 193.152 218.064 192.587 218.883 192.217ZM155.483 167.635C157.568 165.705 158.465 163.327 159.108 161.26C163.338 149.68 165.189 137.203 164.779 124.96C164.915 123.518 164.486 122.134 164.057 120.75C163.94 119.619 163.004 118.859 161.874 118.976C160.743 119.093 159.671 119.775 159.534 121.218C159.34 122.095 159.457 123.226 159.827 124.044C159.944 125.175 160.315 125.994 160.12 126.871C160.393 132.271 160.413 137.983 160.121 143.442C159.751 150.908 158.25 158.492 155.814 165.315C154.995 165.686 154.488 166.31 155.483 167.635ZM98.6174 200.662C99.8844 199.102 99.085 196.899 96.765 196.568C95.8877 196.373 94.757 196.49 93.9383 196.86C90.8581 197.465 88.0313 197.757 84.8926 197.796C83.7619 197.913 82.5726 197.465 81.4419 197.582C80.5646 197.387 79.7458 197.758 79.2975 198.947C79.1026 199.824 80.0384 200.584 80.9157 200.779C83.8595 201.617 87.1153 202.709 90.0006 202.982C92.0086 203.06 93.7047 202.884 95.4008 202.709C97.0383 201.968 97.8571 201.598 98.6174 200.662ZM182.13 129.736C180.863 131.296 181.35 133.245 181.526 134.941C182.072 137.456 182.93 140.224 183.223 143.051C183.281 143.617 183.34 144.182 184.217 144.377C185.094 144.572 185.601 143.948 185.542 143.383C187.199 140.068 187.979 136.559 187.569 132.602C187.452 131.471 187.023 130.087 186.087 129.327C184.84 128.313 183.144 128.489 182.13 129.736ZM185.238 259.125C188.279 255.382 188.513 249.358 186.095 245.322C185.354 243.685 184.165 243.236 182.781 243.665C181.397 244.094 181.202 244.971 181.689 246.921C182.43 248.558 182.353 250.566 182.781 251.951C183.269 253.9 183.133 255.343 182.119 256.59C181.612 257.214 181.417 258.092 180.91 258.715C180.657 259.027 180.716 259.593 181.086 260.411C181.71 260.918 182.275 260.86 182.841 260.801C183.913 260.119 184.732 259.749 185.238 259.125ZM116.049 244.856C116.302 244.545 116.809 243.921 116.692 242.79C116.322 241.971 115.444 241.776 114.314 241.893C113.748 241.952 112.871 241.757 112.364 242.381C108.777 243.609 105.502 245.091 101.857 245.754C100.726 245.871 100.219 246.495 100.083 247.937C100.2 249.068 100.824 249.575 102.266 249.711C102.832 249.653 103.144 249.906 103.709 249.848C107.101 249.497 111 248.522 114.022 247.352C114.217 246.475 115.035 246.104 116.049 244.856ZM60.4226 146.33C61.6703 147.344 63.4835 148.299 64.9847 149.001C66.1739 149.449 66.6808 148.826 66.2518 147.441C65.4523 145.238 64.7114 143.601 63.9119 141.398C63.5415 140.579 63.171 139.76 62.4886 138.688C61.8062 137.616 61.1823 137.109 59.9931 136.661C58.2385 136.271 56.406 137.889 56.6401 140.151C56.9328 142.977 58.5509 144.81 60.4226 146.33ZM165.778 200.855C166.539 199.919 166.733 199.041 166.304 197.657C165.622 196.585 164.686 195.825 163.555 195.942C161.859 196.117 159.91 196.605 158.584 197.599C156.947 198.34 156.927 200.913 158.741 201.869C160.3 203.136 164.511 202.414 165.778 200.855ZM136.594 208.731C136.088 209.355 135.581 209.979 135.327 210.291C134.821 210.915 134.626 211.792 135.308 212.865C135.679 213.683 136.556 213.878 137.687 213.761C138.817 213.644 139.948 213.527 140.708 212.591C142.287 211.285 143.301 210.037 143.379 208.029C143.203 206.333 142.891 206.08 141.195 206.255C138.875 205.924 137.55 206.918 136.594 208.731ZM148.253 219.239C149.189 219.999 150.32 219.882 151.645 218.888C153.224 217.582 153.439 214.131 152.386 212.24C151.08 210.661 148.506 210.642 147.239 212.201C145.719 214.073 146.44 218.284 148.253 219.239ZM147.413 189.041C148.68 187.481 148.641 184.343 146.769 182.822C145.21 181.555 143.007 182.355 142.617 184.109C142.227 185.864 142.656 187.248 143.65 188.573C144.703 190.464 146.146 190.601 147.413 189.041Z" fill="#248E94"/>
    <path d="M348.091 263.404C347.444 262.425 347.61 261.611 347.369 260.715C347.808 252.334 345.641 244.268 344.371 235.962C343.815 232.46 342.852 228.876 341.806 225.698C341.001 223.416 341.416 221.383 340.611 219.101C340.37 218.205 340.619 216.985 338.909 217.059C337.2 217.134 336.138 218.188 336.213 219.898C336.769 223.399 336.512 226.735 337.964 229.996C342.48 241.082 342.273 252.476 339.461 264.184C339.046 266.217 338.225 268.167 336.997 270.035C336.914 270.441 336.341 271.171 335.528 271.005C334.715 270.84 334.881 270.026 335.046 269.213C336.606 265.72 336.457 262.301 336.307 258.882C336.24 255.057 335.277 251.472 334.315 247.887C333.916 245.688 333.028 243.813 332.629 241.614C330.944 235.341 330.562 228.91 332.296 222.487C332.462 221.674 332.628 220.86 332.387 219.964C330.188 220.363 327.906 221.168 326.031 222.056C324.562 223.027 324.637 224.736 324.795 226.039C325.11 228.645 325.509 230.843 326.314 233.125C327.518 237.606 329.128 242.17 329.842 246.975C330.398 250.476 330.548 253.895 329.884 257.148C329.71 260.077 329.046 263.33 328.466 266.176C326.972 273.495 322.799 279.421 317.488 284.69C317.405 285.097 316.999 285.014 316.509 285.337C316.019 285.661 315.206 285.495 315.372 284.682C315.538 283.869 315.704 283.056 316.36 281.919C317.513 278.342 318.583 275.172 319.329 271.513C320.823 264.194 321.013 257.032 320.473 249.299C319.842 244.088 319.128 239.283 319.31 234.238C319.243 230.412 319.907 227.159 321.874 223.749C321.957 223.342 322.446 223.019 322.122 222.529C320.82 222.687 319.434 223.251 318.537 223.492C316.255 224.297 313.974 225.102 312.181 225.583C309.493 226.305 309.327 227.119 309.236 229.641C309.46 234.769 310.091 239.981 309.909 245.026C309.884 251.374 309.777 258.129 308.533 264.228C307.04 271.547 304.327 278.617 299.746 284.459C294.594 291.031 289.2 296.708 282.346 301.239C281.856 301.562 280.877 302.21 280.388 302.533C279.898 302.857 279.409 303.181 278.678 302.608C278.355 302.119 278.844 301.795 278.927 301.388L279.417 301.065C287.258 293.77 292.502 284.675 296.692 274.518C299.405 267.448 300.409 260.453 301.088 252.968C301.445 244.993 302.614 237.185 306.223 229.874C306.306 229.467 306.879 228.737 306.555 228.247C306.231 227.758 305.335 227.998 304.846 228.322C302.564 229.127 299.875 229.849 297.593 230.654C295.394 231.053 294.249 232.513 294.241 234.629C293.818 238.778 293.312 243.334 293.703 247.649C294.085 254.08 293.654 260.345 292.409 266.444C290.908 275.879 286.726 283.92 281.001 291.223C276.91 296.741 272.089 301.687 266.538 306.061C262.538 309.057 258.464 310.343 253.577 311.464C253.17 311.381 252.68 311.704 252.274 311.621C251.46 311.456 251.137 310.966 251.709 310.236C251.792 309.829 252.199 309.912 252.688 309.588C265.658 302.07 274.246 291.116 279.266 276.892C280.253 274.129 280.751 271.689 280.925 268.76C281.588 265.507 281.928 261.765 282.185 258.429C282.948 250.537 284.848 243.301 289.187 236.563C289.843 235.426 290.905 234.372 290.664 233.476C290.34 232.987 289.851 233.31 289.444 233.227C286.266 234.273 283.171 234.912 279.993 235.958C277.304 236.68 276.732 237.41 276.557 240.34C275.139 249.368 274.045 258.886 270.593 267.499C266.81 277.74 261.973 286.918 254.455 294.702C247.51 301.755 239.593 307.34 230.466 310.561C228.673 311.042 226.798 311.93 224.922 312.818C224.026 313.059 223.537 313.382 222.723 313.217C222.234 313.54 221.421 313.374 221.097 312.885C220.773 312.395 221.263 312.072 221.752 311.748C223.221 310.777 224.2 310.13 225.669 309.159C234.315 304.146 242.398 297.748 248.289 289.632C253.69 281.84 258.362 273.475 261.896 264.455C264.858 256.165 268.633 248.041 273.628 240.165C274.201 239.435 274.69 239.112 274.533 237.809C273.802 237.236 272.823 237.883 271.927 238.124C266.06 239.892 260.193 241.66 254.816 243.104C252.617 243.503 252.451 244.316 252.443 246.432C252.841 248.631 253.157 251.236 253.556 253.435C254.51 259.136 253.432 264.422 251.051 269.866C248.097 276.04 244.737 282.131 241.053 287.732C237.203 294.147 231.651 298.52 225.046 301.831C219.91 304.172 214.773 306.512 209.637 308.853C208.74 309.093 207.761 309.741 206.948 309.575C206.135 309.409 205.811 308.919 206.384 308.189C206.956 307.459 207.446 307.135 208.425 306.488C217.81 299.932 226.63 291.99 233.99 282.903C239.06 276.737 242.586 269.833 244.569 262.19C246.054 256.987 247.622 251.378 250.327 246.424C250.41 246.017 250.493 245.61 250.576 245.204C250.824 243.984 250.418 243.901 249.115 244.059C245.937 245.105 242.352 246.067 239.257 246.706C237.954 246.864 237.298 248.001 237.05 249.221C236.635 251.254 236.137 253.694 236.942 255.976C237.582 259.071 237.324 262.407 235.931 265.087C232.811 272.074 229.608 279.468 225.269 286.206C220.846 293.351 214.963 299.351 208.433 304.372C207.371 305.426 205.495 306.314 204.11 306.878C200.276 309.061 196.442 311.243 192.609 313.426C189.671 315.368 186.003 316.737 182.742 318.19C182.253 318.513 181.846 318.43 181.357 318.754C180.543 318.588 180.22 318.098 180.709 317.775C181.282 317.045 181.854 316.314 182.833 315.667C192.708 308.787 201.205 300.356 208.888 291.759C214.854 285.352 220.09 278.373 224.596 270.822C225.824 268.954 226.562 267.411 226.977 265.378C228.702 261.071 230.752 257.254 232.801 253.437C233.457 252.3 234.195 250.756 233.548 249.777C232.9 248.798 231.432 249.769 230.129 249.927C226.544 250.89 223.449 251.529 220.271 252.574C217.989 253.379 217.989 253.379 217.898 255.902C217.724 258.831 217.956 261.844 217.782 264.773C217.691 267.295 216.704 270.059 215.799 272.415C210.382 284.44 202.125 293.767 192.002 301.867C187.92 305.269 183.107 308.099 177.647 309.95C170.311 312.689 163.141 314.614 156.212 317.436C155.316 317.677 154.337 318.324 154.096 317.428C153.449 316.449 154.752 316.291 155.324 315.561C159.241 312.972 163.075 310.789 167.315 308.689C177.181 303.926 185.67 297.61 192.781 289.743C198.175 284.067 202.514 277.329 206.447 270.507C208.58 266.284 211.201 261.736 213.74 257.595C213.823 257.189 214.313 256.865 214.479 256.052C214.562 255.645 215.134 254.915 214.81 254.425C214.163 253.446 213.591 254.176 212.777 254.01C208.786 254.89 204.795 255.77 200.803 256.65C199.5 256.808 198.928 257.538 198.679 258.758C197.526 262.334 195.966 265.828 195.219 269.487C193.568 275.504 190.374 280.781 186.366 285.893C179.579 294.25 171.737 301.544 162.435 307.694C156.154 311.495 149.549 314.806 143.026 317.711C142.537 318.034 142.13 317.952 141.724 317.869C140.91 317.703 140.587 317.213 141.076 316.889C141.732 315.753 142.711 315.105 143.283 314.375C149.98 308.541 156.27 302.624 162.966 296.79C172.276 288.525 180.532 279.197 187.975 269.704C190.265 266.783 192.962 263.944 194.604 260.044C194.687 259.638 195.177 259.314 194.936 258.418C193.716 258.169 192.331 258.733 191.028 258.891C185.244 260.252 186.306 259.198 183.925 264.642C179.494 273.903 174.416 282.185 167.065 289.156C160.858 294.666 154.41 299.28 146.909 302.832C144.544 304.044 142.262 304.849 140.063 305.247C134.196 307.015 128.006 308.293 122.463 310.551C121.566 310.792 120.587 311.439 120.346 310.543C120.106 309.647 121.085 308.999 121.575 308.676C124.512 306.734 127.449 304.792 130.387 302.85C130.876 302.526 131.366 302.202 131.856 301.879C139.689 296.7 147.846 292.011 155.679 286.833C158.127 285.215 160.899 284.086 163.023 281.978C168.74 276.791 174.864 271.688 179.61 265.032C180.265 263.895 181.734 262.925 181.087 261.945C180.522 260.56 178.564 261.854 177.261 262.012C175.552 262.087 173.842 262.162 171.643 262.56C169.527 262.552 168.058 263.523 166.83 265.39C164.947 268.394 163.146 270.991 160.856 273.912C158.317 278.053 154.724 281.132 151.214 283.804C141.174 291.497 129.598 296.336 117.782 300.278C111.915 302.046 105.641 303.731 99.8575 305.092C99.368 305.416 98.9612 305.333 98.065 305.574C97.6584 305.491 96.7623 305.731 96.8452 305.325C96.5215 304.835 97.011 304.511 97.5006 304.188C97.5006 304.188 97.9902 303.864 98.3968 303.947C104.836 301.449 110.387 297.076 116.503 294.088C120.254 292.312 124.088 290.129 127.838 288.353C132.568 285.93 137.298 283.506 141.704 280.594C146.11 277.681 150.84 275.257 155.246 272.344C158.184 270.403 160.391 267.888 163.005 265.457C163.495 265.133 163.577 264.726 163.254 264.237C162.93 263.747 162.523 263.664 162.44 264.071C160.241 264.469 157.719 264.378 155.437 265.183C147.694 267.839 139.952 270.495 131.887 272.661C126.916 274.188 121.862 276.122 116.651 276.753C110.95 277.708 105.407 279.965 99.3824 280.43C92.8683 281.219 86.7608 282.091 80.5704 283.369C79.6742 283.61 78.7781 283.85 78.1307 282.871C78.2966 282.058 78.7861 281.734 79.6823 281.494C83.7567 280.207 87.6734 277.618 91.507 275.435C98.2782 271.311 105.937 269.062 113.92 267.302C123.289 264.978 132.732 264.363 141.935 262.852C146.74 262.138 151.545 261.424 156.673 261.2C160.498 261.133 164.083 260.171 167.992 259.697C166.938 258.635 166.041 258.876 165.145 259.117C160.747 259.914 156.109 259.814 151.636 258.902C142.69 257.077 133.819 256.961 124.541 256.763C114.368 256.805 104.028 257.66 93.9289 259.412C92.626 259.569 91.3234 259.727 90.0205 259.885C89.6139 259.802 88.7175 260.043 88.8834 259.229C88.6427 258.333 89.456 258.499 89.9456 258.175C92.2275 257.37 94.103 256.482 96.385 255.677C105.596 252.051 115.122 251.029 124.649 250.008C131.976 249.385 139.221 249.169 146.382 249.359C152.241 249.708 158.016 250.462 163.137 252.354C164.68 253.092 165.817 253.748 167.361 254.486C169.228 255.714 171.585 256.619 173.941 257.523C175.568 257.855 177.601 258.27 179.394 257.788C182.895 257.232 186.314 257.082 189.492 256.037C189.899 256.12 190.389 255.796 190.878 255.472C189.501 253.921 187.874 253.589 185.841 253.174C177.468 250.619 168.846 249.283 160.307 247.541C154.614 246.38 148.597 244.729 142.987 243.161C138.597 241.842 134.042 241.336 129.079 240.747C122.49 239.826 115.901 238.906 109.553 238.881C106.217 238.624 102.798 238.774 99.3793 238.923C98.566 238.757 98.0764 239.081 97.2632 238.915C96.8565 238.832 96.0434 238.666 95.7198 238.177C95.4791 237.281 96.3753 237.04 96.8649 236.716C101.835 235.189 106.399 233.579 111.934 233.438C128.133 232.93 143.999 234.05 159.609 238.505C163.185 239.658 166.355 240.728 169.442 242.205C176.754 245.814 184.231 248.61 191.052 252.543C191.052 252.543 191.052 252.543 191.459 252.626C194.297 255.323 197.309 255.09 200.488 254.044C203.259 252.916 206.271 252.683 209.367 252.044C209.856 251.72 211.076 251.969 211.242 251.156C211.408 250.343 210.188 250.094 209.458 249.521C207.914 248.783 205.964 247.962 204.337 247.63C197.425 246.219 191.168 243.672 184.587 240.636C176.786 237.35 168.82 234.878 160.77 232.812C151.094 230.415 140.845 228.747 131.169 226.35C123.037 224.691 114.821 223.438 106.847 223.082C106.033 222.916 105.627 222.833 104.813 222.667C104.407 222.584 104.407 222.584 104.083 222.095C104.332 220.875 105.145 221.041 105.552 221.124C113.535 219.364 121.676 218.907 130.14 218.94C141.127 219.063 151.375 220.731 161.865 223.294C167.557 224.456 173.001 226.837 178.122 228.728C184.055 230.786 189.582 232.761 194.86 235.955C201.275 239.805 207.69 243.655 213.126 248.152C214.586 249.297 216.213 249.629 218.005 249.147C221.183 248.102 224.278 247.463 227.457 246.417C228.353 246.176 229.656 246.018 230.228 245.288C230.394 244.475 229.581 244.309 229.257 243.819C226.577 242.425 223.896 241.032 220.967 240.858C217.714 240.194 214.544 239.124 211.863 237.73C205.689 234.776 199.515 231.822 193.258 229.275C187.407 226.811 181.474 224.753 175.051 223.02C169.117 220.962 163.184 218.904 157.25 216.847C150.91 214.706 144.487 212.972 138.388 211.728C131.882 210.401 125.376 209.074 119.11 208.642C118.297 208.477 116.994 208.634 116.754 207.738C116.596 206.435 118.222 206.767 119.036 206.933C126.28 206.717 133.848 206.99 141.333 207.67C149.632 208.516 157.847 209.769 165.897 211.834C183.216 216.215 200.286 221.815 215.796 230.908C218.07 232.219 220.668 234.02 222.858 235.737C226.103 238.517 230.244 241.056 233.489 243.836C234.626 244.491 235.846 244.74 237.149 244.582C240.327 243.537 243.422 242.897 246.194 241.769C246.684 241.445 247.497 241.611 248.069 240.881C247.829 239.984 246.609 239.736 245.878 239.163C236.617 234.733 227.356 230.302 218.26 225.058C207.539 219.482 196.9 213.5 185.439 209.468C179.506 207.411 173.489 205.76 167.556 203.702C163.166 202.383 158.693 201.47 154.303 200.151C151.946 199.247 149.507 198.749 146.984 198.658C144.055 198.484 141.291 197.497 138.121 196.427C137.714 196.344 137.391 195.854 137.474 195.447C137.557 195.041 138.046 194.717 138.453 194.8C139.349 194.559 140.652 194.402 141.548 194.161C147.656 193.289 153.921 193.72 160.103 194.558C167.505 195.645 174.659 197.951 182.219 200.34C190.268 202.406 197.745 205.202 205.546 208.488C218.791 214.154 230.89 221.282 242.086 230.766C244.276 232.483 245.978 234.524 248.085 236.649C248.733 237.628 249.463 238.2 250.6 238.856C251.33 239.428 251.737 239.511 252.633 239.271C256.708 237.984 260.865 236.291 264.939 235.005C265.188 233.785 264.375 233.619 263.562 233.453C255.678 230.574 249.023 225.828 242.043 220.592C229.869 211.756 217.611 203.326 204.043 197.169C197.056 194.05 190.558 190.606 183.081 187.81C177.147 185.753 170.724 184.019 164.459 183.588C163.646 183.422 162.426 183.173 161.613 183.007C161.206 182.924 159.986 182.675 160.069 182.269C160.235 181.455 161.048 181.621 161.944 181.381C163.654 181.306 165.363 181.231 167.073 181.156C176.433 180.948 185.869 182.45 195.138 184.764C201.154 186.415 206.599 188.796 211.959 191.584C224.225 197.898 236.241 205.432 247.279 213.613C251.661 217.048 255.636 220.401 259.528 224.159C261.96 226.773 264.557 228.574 267.395 231.27C268.856 232.415 269.993 233.071 271.868 232.183C273.744 231.295 275.943 230.896 277.818 230.008C278.714 229.768 278.88 228.954 278.15 228.382C277.419 227.809 277.096 227.32 276.283 227.154C270.025 224.607 264.831 221.006 259.635 217.405C252.98 212.659 246.814 207.589 240.482 203.332C236.747 200.876 233.096 198.014 228.872 195.881C216.772 188.754 205.162 181.303 191.669 176.856C191.262 176.773 190.855 176.69 190.532 176.201C190.125 176.118 189.802 175.628 190.291 175.305C190.374 174.898 190.781 174.981 190.781 174.981C191.27 174.657 192.084 174.823 192.49 174.906C195.826 175.163 199.245 175.014 202.498 175.677C207.054 176.183 211.361 177.909 215.668 179.635C224.282 183.086 232.157 188.081 239.626 192.993C245.958 197.25 252.124 202.319 257.801 207.713C263.071 213.023 268.506 217.52 273.859 222.424C275.967 224.548 278.648 225.942 280.839 227.66C281.975 228.315 283.195 228.564 284.091 228.323C285.477 227.759 286.78 227.601 288.166 227.037C287.925 226.141 287.112 225.975 286.705 225.892C283.295 223.926 280.373 221.635 277.452 219.345C275.992 218.2 274.614 216.649 273.07 215.91C265.601 210.998 258.705 205.356 252.298 199.39C246.622 193.997 240.29 189.74 233.551 185.401C231.684 184.173 230.223 183.028 228.356 181.8C223.485 178.688 218.041 176.307 212.838 174.822C211.618 174.573 210.481 173.918 209.668 173.752C208.854 173.586 208.041 173.42 208.207 172.607C208.456 171.387 209.676 171.636 210.082 171.719C213.501 171.569 216.92 171.42 220.173 172.083C224.24 172.913 227.816 174.066 231.227 176.032C238.862 180.131 246.662 183.417 253.642 188.652C260.704 193.481 266.787 198.958 272.132 205.977C275.128 209.977 278.613 213.653 282.099 217.329C284.207 219.453 286.232 221.984 288.829 223.784C292.805 227.136 292.315 227.46 298.348 224.879C298.431 224.472 298.107 223.983 297.7 223.9C293.07 221.684 289.095 218.332 285.526 215.063C276.928 207.38 268.986 198.559 261.451 189.822C255.21 183.043 248.886 176.67 242.072 170.621C240.288 168.987 238.255 168.572 236.139 168.564C232.72 168.713 229.384 168.456 226.048 168.199C223.932 168.191 221.899 167.776 220.115 166.142C224.679 164.532 228.828 164.955 232.902 163.668C232.745 162.365 231.931 162.199 231.201 161.627C229.334 160.399 227.467 159.171 225.599 157.943C225.193 157.86 224.462 157.287 225.035 156.557C225.201 155.744 226.014 155.91 226.827 156.076C229.591 157.063 232.761 158.133 235.441 159.527C240.719 162.722 246.578 163.07 252.354 163.825C264.801 165.093 275.855 169.043 285.672 176.975C291.838 182.045 296.536 188.085 300.171 195.18C303.159 201.295 305.657 207.735 308.562 214.257C309.45 216.132 310.421 217.601 311.392 219.069C312.04 220.049 312.853 220.214 313.749 219.974C316.521 218.845 319.209 218.123 321.898 217.401C323.284 216.836 323.45 216.023 321.906 215.285C317.441 212.256 314.039 208.174 311.615 203.444C305.15 191.537 296.237 181.248 286.751 171.689C281.157 165.889 273.846 162.28 266.942 158.753C264.668 157.443 262.718 156.621 260.527 154.904C260.203 154.414 259.39 154.248 259.556 153.435L260.045 153.111C266.958 154.521 273.547 155.442 280.128 158.479C291.016 163.241 299.53 171.331 306.983 180.475C313.788 188.64 318.146 198.423 322.096 208.124C322.337 209.02 322.578 209.916 322.818 210.812C322.976 212.115 323.623 213.094 324.677 214.156C325.731 215.218 326.545 215.384 327.931 214.82C329.806 213.932 332.005 213.533 334.37 212.322C329.664 208.397 325.938 203.825 323.191 198.606C320.602 194.689 318.908 190.532 316.402 186.209C312.767 179.114 308.559 172.75 302.883 167.356C299.638 164.577 295.903 162.121 292.658 159.341C291.928 158.769 291.198 158.196 290.874 157.706C290.55 157.217 290.633 156.81 291.53 156.57C292.426 156.329 293.563 156.984 294.376 157.15C299.496 159.042 304.044 161.664 308.509 164.692C316.708 170.177 321.887 178.01 326.41 186.98C329.074 192.606 330.925 198.066 332.693 203.932C333.174 205.725 334.145 207.193 335.116 208.662C337.058 211.599 338.361 211.442 341.706 209.583C337.158 206.961 335.141 202.314 333.531 197.75C332.003 192.78 330.966 187.486 328.542 182.756C325.471 177.047 321.828 172.068 317.778 167.007C317.454 166.517 316.317 165.862 316.483 165.049C317.379 164.808 317.703 165.297 318.11 165.38C323.388 168.575 327.687 172.417 331.33 177.395C337.239 185.801 341.273 195.094 343.025 205.193C343.348 205.683 343.265 206.089 343.506 206.985C344.311 209.267 344.718 209.35 346.593 208.462C360.285 203.632 373.653 198.312 386.864 191.689C392.573 188.619 398.523 186.444 404.232 183.374C405.211 182.726 406.596 182.162 407.41 182.328C409.119 182.253 410.09 183.722 409.352 185.265C408.696 186.402 408.124 187.132 407.144 187.78C402.083 191.829 396.697 195.39 390.988 198.46C379.081 204.925 367.098 209.681 354.386 213.864C352.593 214.345 350.311 215.15 348.436 216.038C346.643 216.52 346.478 217.333 347.449 218.802L347.772 219.291C352.312 224.029 353.507 230.626 354.786 236.816C356.064 243.006 355.957 249.761 354.63 256.267C354.215 258.3 353.8 260.333 353.385 262.366C349.643 262.026 349.394 263.246 348.091 263.404ZM305.036 221.161C305.202 220.348 304.795 220.265 304.388 220.182C301.384 218.298 299.276 216.174 297.334 213.237C294.015 208.748 291.591 204.018 288.761 199.205C284.396 191.538 278.644 184.435 270.769 179.44C265.574 175.839 259.234 173.699 253.3 171.641C252.894 171.558 252.163 170.986 251.184 171.633C251.832 172.612 252.562 173.185 253.699 173.84C262.869 180.793 270.57 188.718 277.616 197.779C280.936 202.268 284.173 207.163 287.982 211.329C291.061 214.922 294.464 219.004 298.115 221.867C298.845 222.439 299.576 223.012 300.472 222.771C302.671 222.373 303.974 222.215 305.036 221.161Z" fill="#8EDAA7"/>
</svg>
