<svg width="236" height="304" viewBox="0 0 236 304" fill="none" xmlns="http://www.w3.org/2000/svg">
    <path d="M152.628 51.505C152.628 51.505 146.529 47.0881 137.838 33.2809C129.146 19.4738 129.045 17.4945 129.747 14.5668C130.651 10.7854 112.958 11.9363 116.392 21.6111C119.826 31.2827 124.451 42.393 131.249 51.505C138.046 60.617 143.829 64.4079 147.301 66.2259C150.776 68.0439 161.181 59.8456 152.628 51.505Z" fill="#926C43"/>
    <path d="M158.936 55.2892C158.936 55.2892 170.29 63.5539 172.885 65.3435C175.481 67.133 172.604 73.9338 169.942 76.4569C167.28 78.9799 161.038 81.0129 157.184 78.0693C153.33 75.1258 147.301 69.4474 147.301 69.4474L158.936 55.2892Z" fill="#98D5CB"/>
    <path d="M139.242 64.1928L153.4 48.4222L161.389 55.359L147.374 72.1066L139.242 64.1928Z" fill="#8DCDC2"/>
    <path d="M193.338 266.153L197.767 284.744L212.909 278.5L209.333 255.884L193.338 266.153Z" fill="#F3F3F4"/>
    <path d="M155.635 257.645L156.912 276.716L172.879 273.074L173.116 250.18L155.635 257.645Z" fill="#F3F3F4"/>
    <path d="M150.782 253.022C149.593 241.877 147.282 216.239 147.911 194.468C148.54 172.696 152.113 124.54 152.113 124.54L186.604 130.007C186.604 130.007 180.227 173.955 180.786 196.665C181.346 219.376 179.104 255.884 179.104 255.884L150.782 253.022Z" fill="#4A7645"/>
    <path d="M187.47 260.82C187.47 260.82 179.139 230.417 176.037 206.391C172.936 182.368 169.78 128.116 169.78 128.116L210.576 131.06C210.576 131.06 210.155 190.971 210.576 202.651C210.996 214.33 216.308 260.121 216.308 260.121L187.47 260.82Z" fill="#588353"/>
    <path d="M147.206 133.561C147.206 133.561 156.944 139.366 173.321 140.121C189.699 140.877 215.587 138.724 215.587 138.724C215.587 138.724 218.881 83.1412 204.306 68.4108C189.73 53.6804 170.175 62.6945 165.338 67.124C160.504 71.5504 151.781 80.3336 147.206 133.561Z" fill="#A4E0D6" stroke="#97D4CA" stroke-width="5" stroke-miterlimit="10"/>
    <path d="M183.572 256.952L218.237 251.274L219.849 265.666L185.994 271L183.572 256.952Z" fill="#4C7746"/>
    <path d="M147.3 262.811L147.193 248.96H181.557V262.811H147.3Z" fill="#3A6A34"/>
    <path d="M154.743 267.681C158.218 268.961 167.725 271.946 173.103 268.509C173.862 268.022 174.861 268.528 174.902 269.429C175.522 283.708 175.462 296.228 175.462 296.228L119.36 296.547C119.36 296.547 117.002 287.103 123.581 285.364C130.161 283.625 142.163 282.933 148.568 277.194C151.623 274.46 152.786 270.568 153.207 268.531C153.349 267.836 154.079 267.434 154.743 267.681Z" fill="#9C5F51" stroke="#414F60" stroke-width="3.2132" stroke-miterlimit="10"/>
    <path d="M175.436 292.187L118.946 292.51" stroke="#414F60" stroke-width="3.2132" stroke-miterlimit="10"/>
    <path d="M158.957 271.639L152.596 271.434C152.596 271.434 149.229 267.188 144.632 269.037C140.035 270.887 150.392 272.006 152.457 271.75" stroke="#414F60" stroke-width="3.2132" stroke-miterlimit="10"/>
    <path d="M156.776 275.803L150.171 275.332" stroke="#414F60" stroke-width="3.2132" stroke-miterlimit="10"/>
    <path d="M134.986 283.243C134.986 283.243 138.919 286.462 138.821 292.393" stroke="#414F60" stroke-width="3.2132" stroke-miterlimit="10"/>
    <path d="M153.181 271.753C153.181 271.753 145.41 270.055 143.861 275.241C142.311 280.423 153.181 271.753 153.181 271.753Z" stroke="#414F60" stroke-width="3.2132" stroke-miterlimit="10"/>
    <path d="M148.568 277.195L154.436 279.806" stroke="#414F60" stroke-width="3.2132" stroke-miterlimit="10"/>
    <path d="M194.606 272.619C198.081 273.9 207.588 276.885 212.966 273.448C213.725 272.961 214.724 273.467 214.765 274.368C215.385 288.646 215.325 301.166 215.325 301.166L159.223 301.486C159.223 301.486 156.865 292.042 163.444 290.303C170.024 288.564 182.026 287.871 188.431 282.133C191.485 279.398 192.649 275.506 193.069 273.47C193.212 272.774 193.942 272.373 194.606 272.619Z" fill="#9C5F51" stroke="#414F60" stroke-width="3.2132" stroke-miterlimit="10"/>
    <path d="M215.303 297.126L158.812 297.448" stroke="#414F60" stroke-width="3.2132" stroke-miterlimit="10"/>
    <path d="M198.82 276.578L192.459 276.372C192.459 276.372 189.092 272.126 184.495 273.976C179.897 275.825 190.255 276.945 192.32 276.688" stroke="#414F60" stroke-width="3.2132" stroke-miterlimit="10"/>
    <path d="M196.639 280.742L190.034 280.271" stroke="#414F60" stroke-width="3.2132" stroke-miterlimit="10"/>
    <path d="M174.852 288.181C174.852 288.181 178.785 291.4 178.687 297.331" stroke="#414F60" stroke-width="3.2132" stroke-miterlimit="10"/>
    <path d="M193.044 276.688C193.044 276.688 185.273 274.991 183.723 280.176C182.174 285.361 193.044 276.688 193.044 276.688Z" stroke="#414F60" stroke-width="3.2132" stroke-miterlimit="10"/>
    <path d="M188.431 282.133L194.299 284.745" stroke="#414F60" stroke-width="3.2132" stroke-miterlimit="10"/>
    <path d="M214.31 98.3958C214.31 98.3958 220.409 105.405 219.498 111.504C218.588 117.603 207.651 139.681 207.651 139.681C207.651 139.681 197.452 149.571 203.971 153.147C210.491 156.723 219.147 150.479 221.528 146.764C223.912 143.049 235.686 124.053 235.478 109.544C235.269 95.0349 225.243 87.8136 225.243 87.8136L214.31 98.3958Z" fill="#926C43"/>
    <path d="M208.913 93.7006C208.913 93.7006 198.309 85.1071 194.755 82.837C191.581 80.8104 189.778 73.3741 193.282 69.0994C196.785 64.8248 202.112 64.6825 205.268 66.295C208.423 67.9075 221.038 79.5236 221.038 79.5236L208.913 93.7006Z" fill="#98D5CB"/>
    <path d="M205.619 93.0683L220.76 77.5096L230.852 88.6546L213.118 101.061L205.619 93.0683Z" fill="#8DCDC2"/>
    <path d="M180.034 70.0102C187.135 69.8869 189.427 66.1561 189.427 62.5802C189.427 59.0043 185.851 50.0346 185.361 49.4718C184.871 48.9122 171.624 50.8029 171.273 54.5179C170.922 58.2329 170.922 64.8409 170.922 66.4786C170.922 68.1164 175.971 70.0798 180.034 70.0102Z" fill="#926C43"/>
    <path d="M166.439 32.3707C166.439 32.3707 161.393 50.3134 166.929 55.2899C176.853 64.209 186.765 55.2899 188.239 51.5053C189.851 47.354 191.884 41.0907 191.884 41.0907L190.623 28.0233L172.784 23.7487L166.439 32.3707Z" fill="#926C43"/>
    <path d="M166.366 30.1257C166.366 30.1257 164.125 38.9564 163.982 46.1777C163.84 53.3991 166.885 56.9275 172.462 58.9858C176.879 60.6172 182.627 57.8128 182.627 57.8128" stroke="#573D20" stroke-width="3" stroke-miterlimit="10" stroke-linecap="round"/>
    <path d="M198.189 27.6721C197.967 23.5935 193.212 21.608 191.249 21.7534C189.285 21.8989 189.285 21.8989 189.285 21.8989C189.285 21.8989 188.163 16.1414 179.892 15.2688C171.621 14.393 168.677 17.6748 168.677 17.6748C168.677 17.6748 164.248 12.4169 157.953 16.4607C154.797 18.4874 154.62 22.2087 154.62 22.2087C154.62 22.2087 150.874 24.1405 150.314 26.7647C149.754 29.389 150.915 32.9617 153.858 33.5466C156.802 34.1283 158.936 32.3957 158.936 32.3957C158.936 32.3957 160.665 35.2096 164.124 34.3623C172.465 32.323 174.359 27.4413 174.359 27.4413C174.359 27.4413 175.861 29.4806 180.505 29.1898C185.15 28.8989 187.044 27.0777 187.044 27.0777C187.044 27.0777 189.216 25.9237 189.848 27.8176C190.48 29.7114 191.372 31.3903 191.372 31.3903C191.372 31.3903 192.444 36.1297 192.513 38.7508C192.583 41.3718 192.121 42.706 192.121 42.706C192.121 42.706 193.424 43.1044 194.758 37.7137C196.092 32.323 194.897 31.3745 194.897 31.3745C194.897 31.3745 198.4 31.5357 198.189 27.6721Z" fill="#355380"/>
    <path d="M198.189 27.6723C197.967 23.7518 194.265 23.3977 192.301 23.5368C190.338 23.6759 189.219 24.0269 189.219 24.0269C189.219 24.0269 189.219 18.1398 180.948 17.2988C172.677 16.4577 169.733 19.6131 169.733 19.6131C169.733 19.6131 164.807 15.0919 158.658 19.1926C154.453 21.997 155.923 25.2915 155.923 25.2915C155.923 25.2915 151.648 25.1524 151.089 27.6755C150.529 30.1985 151.721 33.2116 154.665 33.7744C157.608 34.334 159.992 33.7744 159.992 33.7744C159.992 33.7744 161.721 36.4808 165.18 35.6683C173.521 33.7048 175.415 29.0097 175.415 29.0097C175.415 29.0097 176.917 30.9731 181.561 30.6917C186.209 30.4103 188.1 28.6588 188.1 28.6588C188.1 28.6588 187.54 31.0427 188.169 32.8638C188.802 34.685 190.341 35.8485 190.341 35.8485C190.341 35.8485 190.202 39.3105 190.272 41.8336C190.341 44.3566 190.484 45.6181 190.484 45.6181C190.484 45.6181 194.48 44.0752 195.811 38.89C197.142 33.7017 195.95 32.7911 195.95 32.7911C195.95 32.7911 198.4 31.3873 198.189 27.6723Z" fill="#212056"/>
    <path d="M168.33 35.8042C168.33 35.8042 169.31 33.7712 172.465 33.7712" stroke="#0C273A" stroke-width="3" stroke-miterlimit="10" stroke-linecap="round"/>
    <path d="M175.658 33.6356C175.658 33.6356 177.824 33.0001 179.939 35.3397" stroke="#0C273A" stroke-width="3" stroke-miterlimit="10" stroke-linecap="round"/>
    <path d="M173.904 38.3967C173.904 38.3967 171.197 40.3949 171.573 42.5512C171.855 44.1605 174.191 43.5123 174.191 43.5123" stroke="#573D20" stroke-width="3" stroke-miterlimit="10" stroke-linecap="round"/>
    <path d="M172.781 47.5306C172.781 47.5306 174.919 48.7921 178.494 46.62" stroke="#522221" stroke-width="3" stroke-miterlimit="10" stroke-linecap="round"/>
    <path d="M176.743 39.8099C177.151 39.8099 177.483 39.0384 177.483 38.0867C177.483 37.1351 177.151 36.3636 176.743 36.3636C176.334 36.3636 176.003 37.1351 176.003 38.0867C176.003 39.0384 176.334 39.8099 176.743 39.8099Z" fill="black"/>
    <path d="M170.824 39.6204C171.232 39.6204 171.564 38.8489 171.564 37.8972C171.564 36.9456 171.232 36.1741 170.824 36.1741C170.415 36.1741 170.084 36.9456 170.084 37.8972C170.084 38.8489 170.415 39.6204 170.824 39.6204Z" fill="black"/>
    <path d="M44.4062 257.228L39.3569 281.2L49.4523 283.584L55.6207 259.052L44.4062 257.228Z" fill="#DADADA"/>
    <path d="M77.6895 252.558L77.7717 277.055L88.1389 277.273L89.04 251.992L77.6895 252.558Z" fill="#DADADA"/>
    <path d="M81.1423 123.662C81.1423 123.662 95.1329 160.353 99.221 195.198C103.312 230.044 102.323 260.605 102.323 260.605L65.4571 260.222C65.4571 260.222 66.1084 220.985 64.047 206.916C61.9856 192.843 47.8433 132.451 47.8433 132.451L81.1423 123.662Z" fill="#B56D4D"/>
    <path d="M71.3188 127.696C71.3188 127.696 78.3283 166.332 75.9443 201.338C73.5604 236.345 66.9714 266.201 66.9714 266.201L30.8047 259.052C30.8047 259.052 38.6552 220.606 39.2148 206.394C39.7744 192.182 36.9732 130.222 36.9732 130.222L71.3188 127.696Z" fill="#A66243"/>
    <path d="M59.832 78.2846C63.1929 73.9372 65.501 72.9223 74.1577 69.1883C82.8145 65.4544 93.6085 60.8351 100.058 52.0709C106.508 43.3066 109.031 17.2732 109.031 15.1295C109.031 10.4502 113.138 8.96419 115.427 9.52382C117.72 10.0834 118.703 16.2519 118.143 20.7352C117.584 25.2185 118.184 41.9028 110.666 58.0244C103.144 74.1459 72.7255 88.7245 72.7255 88.7245L59.832 78.2846Z" fill="#B4926A"/>
    <path d="M31.3322 41.2709C31.3322 41.2709 29.6502 30.7583 39.3219 26.2718C48.9935 21.7853 56.6354 26.6923 59.5789 30.0564C62.5225 33.4204 31.3322 41.2709 31.3322 41.2709Z" fill="#DACBB9"/>
    <path d="M27.5827 50.5254C25.6193 44.6351 31.1586 37.4169 41.0421 32.2317C50.9256 27.0434 65.716 26.9043 70.3416 36.0163C74.9671 45.1283 53.1672 56.9025 53.1672 56.9025C53.1672 56.9025 40.2706 58.3032 35.5028 56.9721C30.7381 55.641 28.2846 52.6279 27.5827 50.5254Z" fill="#A6927B"/>
    <path d="M31.2219 83.6096C28.1456 76.6697 27.4437 74.4281 29.8276 68.9615C32.2115 63.4949 34.3141 61.8129 34.3836 56.1344C34.4532 50.456 41.6145 39.8137 41.6145 39.8137L57.8656 35.3431C57.8656 35.3431 63.4112 44.2559 64.7044 50.162C65.9975 56.068 67.0567 59.0274 65.5454 66.097C64.0341 73.1665 59.8354 78.2885 59.8354 78.2885L31.2219 83.6096Z" fill="#4C5D9C"/>
    <path d="M39.0791 76.2836C43.7742 74.1937 41.7286 72.4484 51.688 72.3915C61.6473 72.3378 69.7793 77.4123 69.7793 77.4123C69.7793 77.4123 71.1103 86.2493 64.1008 89.8821C57.0913 93.5149 43.8438 93.4611 42.7909 90.4575C41.7413 87.4602 39.0791 76.2836 39.0791 76.2836Z" fill="#B4926A"/>
    <path d="M44.5835 87.3936C44.5835 87.3936 50.8816 91.7599 59.962 89.2969C69.0456 86.834 70.1269 83.6059 70.1269 83.6059L76.7538 126.713C76.7538 126.713 72.5551 130.567 64.948 131.901C57.3378 133.232 51.2104 132.881 51.2104 132.881L44.5835 87.3936Z" fill="#5C8A82" stroke="#98D5CB" stroke-width="5" stroke-miterlimit="10"/>
    <path d="M42.7941 73.5835C54.9287 70.0708 59.7471 72.2397 69.0963 76.5238C77.5064 80.3779 81.566 88.0893 82.0688 93.1892C82.6094 98.6779 80.8009 111.644 80.6839 116.131C80.4721 124.051 88.1487 136.527 88.1487 136.527C88.1487 136.527 82.4007 137.159 78.3348 133.722C74.2688 130.289 70.9048 124.12 69.5737 112.273C68.2426 100.426 70.206 95.0988 69.5042 89.8441C68.8022 84.5862 64.379 75.9484 58.0082 74.1178C51.6373 72.2872 45.1116 73.3716 43.7805 74.7027C42.4494 76.0338 41.327 78.6264 42.6581 81.4308C43.9892 84.2352 51.1378 92.0162 53.1708 101.055C55.2038 110.098 53.3099 145.986 53.3099 145.986C53.3099 145.986 38.8799 141.453 36.4201 133.558C33.9603 125.663 35.2945 122.998 33.4006 114.445C31.5068 105.893 27.093 95.0293 29.126 86.7583C31.159 78.4904 37.4666 75.1264 42.7941 73.5835Z" fill="#DACBB9" stroke="#B8A67A" stroke-width="4" stroke-miterlimit="10"/>
    <path d="M37.748 100.429C37.748 100.429 47.562 97.2042 49.3135 97.6943C51.0651 98.1844 51.9631 107.088 51.6912 108.207C51.4192 109.329 39.8537 111.151 39.8537 111.151L37.748 100.429Z" fill="#DACBB9" stroke="#B8A67A" stroke-width="4" stroke-miterlimit="10"/>
    <path d="M71.7427 93.7014C71.7427 93.7014 78.7522 91.8802 79.4541 93.069C80.156 94.261 78.8944 103.234 78.4012 103.794C77.9112 104.353 72.7228 105.074 72.5141 104.397C72.3023 103.724 71.7427 93.7014 71.7427 93.7014Z" fill="#DACBB9" stroke="#B8A67A" stroke-width="4" stroke-miterlimit="10"/>
    <path d="M38.7973 82.0658C36.9034 75.9668 29.8591 76.8078 25.6541 79.1222C21.449 81.4366 0 94.8928 0 110.768C0 126.643 24.2882 131.584 29.4386 132.533C34.589 133.478 38.0606 134.111 39.4265 134.319C40.7923 134.531 42.7905 131.901 42.7905 129.482C42.7905 127.063 38.5633 123.911 34.9463 123.595C31.3293 123.279 10.617 119.285 10.1965 111.293C9.77599 103.303 27.9653 95.3386 32.6952 93.6945C37.4314 92.0536 40.7891 88.4809 38.7973 82.0658Z" fill="#B4926A"/>
    <path d="M121.143 13.8916C121.143 13.8916 119.948 8.21317 119.249 6.11064C118.55 4.00811 118.13 3.16709 116.236 3.51804C114.342 3.86899 114.693 10.4137 115.044 14.5366C115.395 18.6594 115.746 20.1296 115.746 20.1296" fill="#916C43"/>
    <path d="M121.143 13.8916C121.143 13.8916 119.948 8.21317 119.249 6.11064C118.55 4.00811 118.13 3.16709 116.236 3.51804C114.342 3.86899 114.693 10.4137 115.044 14.5366C115.395 18.6594 115.746 20.1296 115.746 20.1296" stroke="#573D20" stroke-width="3" stroke-miterlimit="10" stroke-linecap="round"/>
    <path d="M130.173 19.5236C130.173 19.5236 131.881 12.4636 130.97 10.8511C130.06 9.23863 128.096 9.45046 126.904 10.8511" fill="#916C43"/>
    <path d="M130.173 19.5236C130.173 19.5236 131.881 12.4636 130.97 10.8511C130.06 9.23863 128.096 9.45046 126.904 10.8511" stroke="#573D20" stroke-width="3" stroke-miterlimit="10" stroke-linecap="round"/>
    <path d="M124.634 13.6023L123.433 4.61355C123.433 4.61355 122.171 1.91662 120.35 2.00198C118.108 2.10948 119.297 7.98393 119.436 10.8516C119.575 13.6971 119.93 15.6194 119.93 15.6194" fill="#916C43"/>
    <path d="M124.634 13.6023L123.433 4.61355C123.433 4.61355 122.171 1.91662 120.35 2.00198C118.108 2.10948 119.297 7.98393 119.436 10.8516C119.575 13.6971 119.93 15.6194 119.93 15.6194" stroke="#573D20" stroke-width="3" stroke-miterlimit="10" stroke-linecap="round"/>
    <path d="M127.186 14.9303C127.186 14.9303 127.745 7.83862 126.765 4.89507C125.785 1.95153 125.153 1.95153 124.103 2.02109C123.05 2.09064 122.772 5.73609 122.98 7.55723C123.192 9.37837 123.682 14.9303 123.682 14.9303" fill="#916C43"/>
    <path d="M127.186 14.9303C127.186 14.9303 127.745 7.83862 126.765 4.89507C125.785 1.95153 125.153 1.95153 124.103 2.02109C123.05 2.09064 122.772 5.73609 122.98 7.55723C123.192 9.37837 123.682 14.9303 123.682 14.9303" stroke="#573D20" stroke-width="3" stroke-miterlimit="10" stroke-linecap="round"/>
    <path d="M44.3364 62.1599C44.3364 62.1599 44.6874 72.5335 44.8265 76.318C44.9656 80.1026 50.644 81.0859 53.5876 80.5231C56.5311 79.9635 57.9318 80.874 59.1237 79.4702C60.3157 78.0696 56.1106 65.3121 56.1106 65.3121L44.3364 62.1599Z" fill="#B4926A"/>
    <path d="M59.6139 40.711C60.8754 44.3565 62.9779 49.4721 62.8388 55.4319C62.6997 61.3886 60.5972 65.385 58.7033 66.9279C56.8095 68.4708 54.6374 68.1199 53.1672 67.6993C51.6938 67.2788 45.6297 64.604 43.2995 63.1876C40.9693 61.7712 39.0786 58.9383 39.0786 58.9383L44.757 39.5222L54.3591 37.0688L59.6139 40.711Z" fill="#B4926A"/>
    <path d="M47.207 47.0187C47.207 47.0187 48.3294 44.7043 50.9916 44.6348" stroke="#4C5D9C" stroke-width="3" stroke-miterlimit="10" stroke-linecap="round"/>
    <path d="M57.8621 45.827C57.8621 45.827 56.8819 44.2841 54.3589 44.4264" stroke="#4C5D9C" stroke-width="3" stroke-miterlimit="10" stroke-linecap="round"/>
    <path d="M50.5209 50.5912C50.9574 50.5912 51.3113 49.9486 51.3113 49.1558C51.3113 48.3631 50.9574 47.7204 50.5209 47.7204C50.0844 47.7204 49.7305 48.3631 49.7305 49.1558C49.7305 49.9486 50.0844 50.5912 50.5209 50.5912Z" fill="black"/>
    <path d="M55.9843 49.785C56.4208 49.785 56.7747 49.1424 56.7747 48.3496C56.7747 47.5569 56.4208 46.9142 55.9843 46.9142C55.5477 46.9142 55.1938 47.5569 55.1938 48.3496C55.1938 49.1424 55.5477 49.785 55.9843 49.785Z" fill="black"/>
    <path d="M53.5874 49.1557L55.984 52.5577L53.5874 53.6074" stroke="#997347" stroke-width="3" stroke-miterlimit="10" stroke-linecap="round"/>
    <path d="M49.1011 55.4288C49.1011 55.4288 50.5017 57.4618 54.359 57.0413" stroke="#522121" stroke-width="3" stroke-miterlimit="10" stroke-linecap="round"/>
    <path d="M47.207 65.8751C47.207 65.8751 54.147 69.3277 57.9315 67.5666C61.7161 65.8056 65.0106 56.4121 61.577 44.0056" stroke="#997347" stroke-width="3" stroke-miterlimit="10" stroke-linecap="round"/>
    <path d="M58.7033 75.1959L57.1636 67.7659" stroke="#997347" stroke-width="3" stroke-miterlimit="10" stroke-linecap="round"/>
    <path d="M52.5347 38.3271C52.5347 38.3271 51.6937 41.0619 48.3296 43.1645C44.9656 45.267 43.0717 47.5877 42.4425 51.9287C41.8134 56.2697 41.6711 61.4581 40.0586 63.842C38.4462 66.2259 33.8901 66.4346 33.8901 66.4346C33.8901 66.4346 34.3802 60.2661 34.3802 56.9716C34.3802 53.6771 32.7677 51.0845 32.5591 49.823C32.3504 48.5615 32.5591 46.8099 32.5591 46.8099C32.5591 46.8099 36.3436 40.7806 43.214 37.2774C50.0844 33.7742 54.359 33.9829 55.8292 33.9133C57.3026 33.8438 59.3324 33.9133 59.3324 33.9133C59.3324 33.9133 62.6964 37.4892 63.6765 41.903C64.6567 46.3199 64.6978 50.1582 64.6978 50.1582C64.6978 50.1582 62.415 46.8099 60.9448 45.3366C59.4715 43.8632 57.4417 42.2539 55.8988 41.3402C54.3558 40.4264 52.5347 38.3271 52.5347 38.3271Z" fill="#4C5D9C"/>
    <path d="M91.6262 270.722C91.6262 270.722 80.007 272.936 74.9672 272.752C69.9275 272.569 84.68 291.254 84.68 291.254L91.6262 275.209V270.722Z" fill="#224965" stroke="#123249" stroke-width="3" stroke-miterlimit="10"/>
    <path d="M91.8952 269.432C82.7737 266.729 83.0835 295.981 83.0835 295.981C83.0835 295.981 84.4367 268.265 74.8346 271.117C74.0569 271.348 73.2506 271.143 73.2222 271.955C72.7353 284.814 72.8554 299.62 72.8554 299.62H123.367C123.367 299.62 125.441 291.106 119.51 289.572C113.578 288.042 103.581 286.376 96.9697 282.344C94.1463 280.624 93.6721 272.025 93.2832 270.191C93.1504 269.565 92.5054 269.612 91.8952 269.432Z" fill="#224965" stroke="#123249" stroke-width="3" stroke-miterlimit="10"/>
    <path d="M72.8521 295.978H123.718" stroke="#123249" stroke-width="3" stroke-miterlimit="10"/>
    <path d="M109.955 287.28C109.955 287.28 105.702 290.638 105.819 295.978L109.955 287.28Z" fill="#224965"/>
    <path d="M109.955 287.28C109.955 287.28 105.702 290.638 105.819 295.978" stroke="#123249" stroke-width="3" stroke-miterlimit="10"/>
    <path d="M54.5081 273.536C54.5081 273.536 42.8888 275.749 37.8491 275.566C32.8093 275.383 47.5618 294.068 47.5618 294.068L54.5081 278.023V273.536Z" fill="#224965" stroke="#123249" stroke-width="3" stroke-miterlimit="10"/>
    <path d="M54.7765 272.246C45.655 269.543 45.9649 298.795 45.9649 298.795C45.9649 298.795 47.3181 271.079 37.716 273.931C36.9382 274.162 36.132 273.956 36.1035 274.769C35.6166 287.628 35.7367 302.434 35.7367 302.434H86.2481C86.2481 302.434 88.3222 293.919 82.3909 292.386C76.4595 290.856 66.4622 289.189 59.8511 285.158C57.0277 283.438 56.5534 274.838 56.1645 273.005C56.0349 272.379 55.3899 272.429 54.7765 272.246Z" fill="#224965" stroke="#123249" stroke-width="3" stroke-miterlimit="10"/>
    <path d="M35.7368 298.795H86.6023" stroke="#123249" stroke-width="3" stroke-miterlimit="10"/>
    <path d="M72.8395 290.097C72.8395 290.097 68.587 293.454 68.704 298.794L72.8395 290.097Z" fill="#224965"/>
    <path d="M72.8395 290.097C72.8395 290.097 68.587 293.454 68.704 298.794" stroke="#123249" stroke-width="3" stroke-miterlimit="10"/>
    <path d="M201.972 147.567C201.972 147.567 198.548 146.726 200.471 144.099C202.393 141.471 208.384 139.053 208.384 139.053" fill="#916C43"/>
    <path d="M201.972 147.567C201.972 147.567 198.548 146.726 200.471 144.099C202.393 141.471 208.384 139.053 208.384 139.053" stroke="#573D20" stroke-width="3" stroke-miterlimit="10" stroke-linecap="round"/>
    <path d="M203.971 153.148C203.971 153.148 203.749 155.525 206.81 155.98C211.066 156.613 217.848 150.413 217.848 150.413" fill="#916C43"/>
    <path d="M203.971 153.148C203.971 153.148 203.749 155.525 206.81 155.98C211.066 156.613 217.848 150.413 217.848 150.413" stroke="#573D20" stroke-width="3" stroke-miterlimit="10" stroke-linecap="round"/>
    <path d="M200.132 152.357C200.132 152.357 199.5 154.191 200.973 154.823C202.447 155.456 206.914 153.891 210.49 151.624" fill="#916C43"/>
    <path d="M200.132 152.357C200.132 152.357 199.5 154.191 200.973 154.823C202.447 155.456 206.914 153.891 210.49 151.624" stroke="#573D20" stroke-width="3" stroke-miterlimit="10" stroke-linecap="round"/>
    <path d="M208.388 143.467C208.388 143.467 204.287 146.514 201.973 147.567C199.658 148.62 196.769 149.67 197.505 151.456C198.242 153.243 201.337 152.623 202.811 152.038C204.284 151.453 207.86 149.246 207.86 149.246" fill="#916C43"/>
    <path d="M208.388 143.467C208.388 143.467 204.287 146.514 201.973 147.567C199.658 148.62 196.769 149.67 197.505 151.456C198.242 153.243 201.337 152.623 202.811 152.038C204.284 151.453 207.86 149.246 207.86 149.246" stroke="#573D20" stroke-width="3" stroke-miterlimit="10" stroke-linecap="round"/>
    <path d="M41.6368 126.314C41.6368 126.314 43.2808 124.619 41.2542 123.81C39.2275 123.001 34.9624 123.763 34.9624 123.763" fill="#B4926A"/>
    <path d="M41.6368 126.314C41.6368 126.314 43.2808 124.619 41.2542 123.81C39.2275 123.001 34.9624 123.763 34.9624 123.763" stroke="#997347" stroke-width="2" stroke-miterlimit="10" stroke-linecap="round"/>
    <path d="M42.487 130.194C42.487 130.194 43.4608 131.465 41.8832 132.811C39.6921 134.686 33.6343 133.58 33.6343 133.58" fill="#B4926A"/>
    <path d="M42.487 130.194C42.487 130.194 43.4608 131.465 41.8832 132.811C39.6921 134.686 33.6343 133.58 33.6343 133.58" stroke="#997347" stroke-width="2" stroke-miterlimit="10" stroke-linecap="round"/>
    <path d="M44.3871 128.379C44.3871 128.379 45.3988 129.198 44.7886 130.08C44.1784 130.962 41.0831 131.667 38.2471 131.651" fill="#B4926A"/>
    <path d="M44.3871 128.379C44.3871 128.379 45.3988 129.198 44.7886 130.08C44.1784 130.962 41.0831 131.667 38.2471 131.651" stroke="#997347" stroke-width="2" stroke-miterlimit="10" stroke-linecap="round"/>
    <path d="M36.5337 126.27C36.5337 126.27 39.9483 126.541 41.6335 126.314C43.3187 126.086 45.3359 125.656 45.554 126.933C45.7722 128.211 43.793 128.96 42.7496 129.153C41.7062 129.346 38.8892 129.365 38.8892 129.365" fill="#B4926A"/>
    <path d="M36.5337 126.27C36.5337 126.27 39.9483 126.541 41.6335 126.314C43.3187 126.086 45.3359 125.656 45.554 126.933C45.7722 128.211 43.793 128.96 42.7496 129.153C41.7062 129.346 38.8892 129.365 38.8892 129.365" stroke="#997347" stroke-width="2" stroke-miterlimit="10" stroke-linecap="round"/>
    <path d="M111.829 10.1842C111.829 10.1842 110.214 8.4611 109.31 10.4466C108.405 12.4322 108.959 16.729 108.959 16.729" fill="#B4926A"/>
    <path d="M111.829 10.1842C111.829 10.1842 110.214 8.4611 109.31 10.4466C108.405 12.4322 108.959 16.729 108.959 16.729" stroke="#997347" stroke-width="2" stroke-miterlimit="10" stroke-linecap="round"/>
    <path d="M115.744 9.52058C115.744 9.52058 117.062 8.61 118.33 10.2509C120.097 12.5305 118.7 18.5283 118.7 18.5283" fill="#B4926A"/>
    <path d="M115.744 9.52058C115.744 9.52058 117.062 8.61 118.33 10.2509C120.097 12.5305 118.7 18.5283 118.7 18.5283" stroke="#997347" stroke-width="2" stroke-miterlimit="10" stroke-linecap="round"/>
    <path d="M113.818 8.72726C113.818 8.72726 114.685 7.75661 115.535 8.40792C116.386 9.0624 116.942 12.1862 116.79 15.019" fill="#B4926A"/>
    <path d="M113.818 8.72726C113.818 8.72726 114.685 7.75661 115.535 8.40792C116.386 9.0624 116.942 12.1862 116.79 15.019" stroke="#997347" stroke-width="2" stroke-miterlimit="10" stroke-linecap="round"/>
    <path d="M111.539 15.2781C111.539 15.2781 111.975 11.8824 111.829 10.1846C111.684 8.48677 111.349 6.4538 112.636 6.29571C113.923 6.13763 114.574 8.15163 114.719 9.20448C114.865 10.2573 114.748 13.0712 114.748 13.0712" fill="#B4926A"/>
    <path d="M111.539 15.2781C111.539 15.2781 111.975 11.8824 111.829 10.1846C111.684 8.48677 111.349 6.4538 112.636 6.29571C113.923 6.13763 114.574 8.15163 114.719 9.20448C114.865 10.2573 114.748 13.0712 114.748 13.0712" stroke="#997347" stroke-width="2" stroke-miterlimit="10" stroke-linecap="round"/>
    <rect x="113.818" y="14.5063" width="3.79404" height="6.95575" fill="#B4926A"/>
    <rect x="113.818" y="13.242" width="2.84553" height="1.89702" fill="#B4926A"/>
    <rect x="115.083" y="11.661" width="0.948511" height="1.58085" fill="#B4926A"/>
    <rect x="117.296" y="15.1387" width="0.948511" height="2.84553" fill="#B4926A"/>
</svg>
