<svg width="430" height="348" viewBox="0 0 430 348" fill="none" xmlns="http://www.w3.org/2000/svg">
    <path d="M302.88 67.4608C301.919 66.8112 300.734 65.8705 300.064 64.9975C298.142 63.6981 296.288 61.8844 294.366 60.5851C291.036 58.054 288.871 54.6297 287.287 50.7588C286.461 49.0804 285.927 47.1787 285.615 45.5681C284.323 41.4738 285.602 37.718 288.647 34.4561C293.438 29.8542 297.938 25.4756 302.729 20.8738C306.938 16.7186 311.08 13.0777 316.406 10.3775C318.375 9.32858 320.568 8.57064 322.469 8.03602C324.371 7.5014 326.496 7.25787 328.127 8.78054C328.865 9.13922 329.379 9.20679 329.893 9.27446C333.047 9.16619 335.192 10.7565 337.27 12.8612C341.357 17.5849 343.834 22.6198 345.662 28.6158C347.712 34.9027 349.472 41.4131 351.232 47.9234C352.078 51.4356 352.924 54.9479 354.575 58.3046C354.954 59.4009 354.596 60.1386 353.567 60.0032C352.247 60.0912 350.704 59.8882 349.452 59.4619C348.424 59.3265 347.395 59.1912 346.008 59.7935C346.969 60.4431 347.997 60.5783 348.735 60.937C351.016 61.4987 353.52 62.3514 355.442 63.6508C356.626 64.5915 357.296 65.4646 357.607 67.0752C358.562 73.7411 358.196 80.4949 357.831 87.2488C357.466 94.0027 356.363 100.398 355.484 107.084C354.787 110.393 353.575 113.635 352.879 116.944C351.891 120.477 350.903 124.009 351.167 127.968C351.187 129.802 351.207 131.636 351.519 133.247C351.83 134.858 351.336 136.624 351.357 138.458C351.445 139.778 350.348 140.157 349.029 140.245C345.584 140.576 342.275 139.879 338.898 139.696C338.384 139.629 337.355 139.493 336.55 139.649C338.248 140.657 340.015 141.151 342.072 141.422C344.129 141.693 346.186 141.964 348.176 142.749C349.942 143.243 350.389 143.824 349.604 145.814C348.887 147.289 348.169 148.765 347.452 150.24C345.95 153.705 345.185 157.528 344.712 161.129C342.486 172.085 338.561 182.033 332.355 191.42C331.056 193.342 330.474 193.788 327.97 192.936C326.718 192.509 325.243 191.792 323.991 191.366C322.225 190.872 320.682 190.669 318.557 190.912C314.821 191.467 310.639 191.44 306.748 191.19C305.719 191.054 304.69 190.919 303.818 191.589C304.42 192.976 305.963 193.179 306.633 194.052C307.973 195.798 309.536 197.835 310.294 200.028C311.343 201.997 312.392 203.966 313.732 205.712C315.072 207.458 315.072 207.459 313.549 209.089C309.049 213.468 305.287 218.205 302.932 224.174C301.721 227.416 300.063 230.075 298.114 232.958C297.106 234.657 295.874 236.064 294.419 237.181C291.442 239.929 287.95 242.608 284.079 244.192C278.306 246.31 272.31 248.137 266.761 250.547C263.696 251.975 260.562 253.917 257.72 255.636C254.587 257.578 251.454 259.52 248.321 261.462C244.023 264.298 239.036 264.427 234.61 262.275C232.62 261.489 231.524 261.868 230.069 262.985C225.413 266.558 220.757 270.131 215.878 273.414C207.575 278.861 199.116 283.504 189.919 287.788C184.079 290.42 177.724 292.985 171.661 295.327C162.309 298.805 152.733 301.992 143.069 303.86C137.946 305.017 132.6 305.884 126.963 306.973C125.352 307.284 123.742 307.596 122.199 307.393C121.908 307.616 121.684 307.325 121.393 307.548C119.336 307.278 117.637 306.269 117.394 304.144C117.082 302.534 118.091 300.835 120.283 300.077C122.185 299.543 124.086 299.008 126.211 298.764C134.779 297.275 143.123 295.496 151.244 293.425C155.852 292.2 160.752 290.752 165.428 289.012C170.395 287.05 175.586 285.378 180.33 283.125C188.071 279.958 195.657 275.985 202.952 272.236C210.248 268.487 217.164 263.641 224.08 258.796C225.826 257.456 225.826 257.456 225.068 255.263C223.707 251.683 222.929 247.657 223.694 243.833C224.661 238.467 224.018 233.411 223.375 228.356C222.732 223.301 223.118 218.381 224.308 213.305C225.005 209.996 225.993 206.463 227.428 203.513C228.077 202.552 227.698 201.456 228.348 200.495C228.483 199.466 229.289 199.31 229.735 199.892C231.231 202.444 234.026 203.073 236.53 203.926C241.47 206.146 246.41 208.365 251.351 210.585C249.05 208.189 246.681 206.308 243.798 204.359C241.139 202.701 238.547 200.529 236.178 198.647C234.547 197.125 233.43 195.669 232.381 193.7C231.779 192.313 231.691 190.993 231.894 189.45C233.443 183.637 235.284 177.6 238.085 172.214C239.452 169.777 241.557 167.7 243.147 165.555C244.379 164.147 245.32 162.963 245.813 161.196C245.881 160.682 245.949 160.168 246.24 159.944C246.598 159.207 247.113 159.274 247.559 159.856C248.696 163.145 251.803 165.385 253.813 168.004C256.939 172.078 261.365 174.23 265.5 176.606C264.965 174.704 263.334 173.181 261.994 171.435C259.917 169.331 258.645 167.07 257.372 164.81C255.051 160.58 253.244 156.418 250.05 152.859C248.71 151.113 248.689 149.279 249.474 147.289C250.55 145.076 251.112 142.796 252.188 140.583C254.631 135.933 255.016 131.013 255.178 125.803C255.293 122.94 255.632 120.368 255.232 117.438C254.968 113.479 256.47 110.014 258.487 106.617C260.571 102.705 262.588 99.3082 264.449 95.1056C266.31 90.9031 267.656 86.6328 268.265 82.0039C269.368 75.6086 270.18 69.4368 272.02 63.4003C273.076 59.3534 274.802 56.1795 277.109 52.5589C277.177 52.0446 277.759 51.5978 278.05 51.3745C278.99 50.1902 279.728 50.5489 280.33 51.9362C281.623 56.0305 283.924 58.4263 287.836 60.5107C291.01 62.2364 294.251 63.4477 297.493 64.6591C298.677 65.5998 300.599 66.8991 302.88 67.4608Z" fill="#65BD83"/>
    <path d="M257.71 205.969C256.513 206.66 255.316 207.351 253.88 208.18C253.162 208.595 252.582 209.249 251.864 209.664C246.597 212.705 241.606 216.224 236.754 219.983C232.722 222.95 228.689 225.916 224.656 228.883C220.623 231.85 216.489 235.194 212.457 238.161C204.29 244.472 196.261 251.022 187.993 257.711C186.695 258.78 186.318 258.678 185.488 257.242C184.935 256.284 184.521 255.566 183.968 254.609C183.277 253.412 183.378 253.034 184.437 252.104C187.853 249.174 191.646 246.346 195.301 243.278C199.674 239.795 204.287 236.174 208.661 232.692C213.273 229.071 217.647 225.589 222.536 222.447C227.526 218.927 232.517 215.408 237.507 211.888C239.523 210.405 241.678 209.161 243.694 207.677C250.839 202.914 258.399 198.868 265.581 194.722C266.06 194.445 266.539 194.169 266.64 193.791C266.603 193.174 265.986 193.211 265.746 193.35C263.895 193.461 262.044 193.572 260.47 194.162C257.937 195.305 255.506 196.07 253.389 197.931C252.671 198.345 252.192 198.622 251.474 199.037C250.277 199.728 249.043 199.802 248.112 198.743C246.942 197.822 246.086 197.998 244.889 198.689C243.692 199.38 242.872 200.172 241.814 201.103C239.319 202.862 236.786 204.005 233.664 203.573C230.92 203.243 229.814 201.328 230.9 198.786C231.645 196.759 232.768 194.834 234.407 193.25C234.987 192.596 235.429 191.702 235.871 190.809C236.073 190.054 235.797 189.575 235.142 188.995C233.042 187.016 230.739 185.792 227.756 185.599C225.389 185.37 223.261 185.002 220.894 184.773C220.277 184.81 219.522 184.607 218.666 184.783C216.336 185.17 213.969 184.941 211.602 184.711C210.847 184.509 210.092 184.307 209.336 184.104C207.927 183.322 207.337 181.747 207.982 180.099C208.525 178.828 208.524 178.828 207.355 177.907C206.839 177.567 206.185 176.987 205.77 176.268C204.84 175.21 204.627 173.736 205.41 172.327C206.155 170.301 205.74 169.583 203.714 168.837C202.959 168.635 202.443 168.294 201.688 168.092C200.417 167.549 199.486 166.49 198.795 165.294C197.929 163.24 198.573 161.592 200.111 160.385C201.888 159.04 204.116 159.03 206.382 159.637C209.403 160.446 212.184 161.394 214.865 162.719C218.816 164.587 222.906 166.694 226.857 168.563C228.644 169.446 230.532 169.952 232.521 170.08C233.277 170.282 234.133 170.107 234.575 169.214C235.016 168.32 234.602 167.602 233.948 167.022C232.879 165.724 231.571 164.564 230.162 163.782C228.752 163 227.684 161.701 226.855 160.265C225.058 157.153 223.362 153.663 222.044 150.275C221.178 148.221 220.929 146.131 220.919 143.902C220.872 141.057 223.266 139.675 225.808 140.761C227.457 141.405 228.626 142.325 229.695 143.623C230.349 144.203 230.764 144.921 231.657 145.363C232.173 145.704 232.652 145.427 232.753 145.05C233.094 144.534 233.057 143.917 233.158 143.539C233.185 141.928 232.733 140.592 232.282 139.257C231.554 137.443 231.203 135.731 231.47 133.981C231.8 131.236 233.955 129.992 236.635 131.318C238.422 132.201 239.868 133.6 241.214 135.377C242.697 137.393 244.42 139.272 246.823 140.118C248.094 140.661 249.264 141.581 250.535 142.124C251.567 142.806 252.359 143.625 252.673 144.721C253.677 147.013 254.304 149.205 254.692 151.535C255.254 154.721 255.955 158.146 256.518 161.333C257.468 166.849 259.993 171.775 264.056 175.494C265.364 176.654 266.635 177.197 268.108 176.984C269.342 176.91 269.582 176.772 269.885 175.639C270.391 173.751 269.902 171.799 269.174 169.985C268.861 168.889 268.446 168.171 267.893 167.213C266.714 164.064 264.337 161.606 262.061 158.771C261.785 158.292 261.269 157.951 260.993 157.472C259.27 155.594 258.882 153.265 259.867 151.1C260.41 149.829 260.336 148.595 259.645 147.398C257.673 143.43 255.839 139.701 254.724 135.557C253.921 132.509 253.736 129.424 253.689 126.578C253.615 125.344 254.158 124.073 255.493 123.622C256.829 123.17 258.1 123.713 259.03 124.771C260.375 126.548 261.859 128.565 262.964 130.48C263.969 132.773 265.112 135.305 266.116 137.597C266.531 138.316 267.084 139.273 267.738 139.853C270.833 141.897 272.629 145.009 273.469 148.674C273.681 150.147 274.271 151.722 274.483 153.195C274.907 156.142 275.571 158.95 275.996 161.897C276.485 163.849 277.452 165.525 278.558 167.44C278.972 168.158 279.866 168.6 280.52 169.18C281.929 169.962 283.126 169.271 283.153 167.66C283.319 166.287 282.628 165.09 282.176 163.755C281.899 163.276 281.623 162.798 281.347 162.319C279.725 160.063 279.061 157.255 279.014 154.409C279.069 151.186 277.889 148.037 277.087 144.989C276.911 144.132 276.497 143.414 276.082 142.696C275.115 141.02 274.147 139.344 273.318 137.908C271.659 135.035 272.368 132.392 274.863 130.632C276.4 129.425 276.943 128.154 276.832 126.303C276.509 122.979 277.42 119.581 278.846 116.523C279.389 115.252 280.209 114.459 281.028 113.667C282.565 112.46 284.076 112.865 285.043 114.541C286.011 116.216 286.122 118.067 286.472 119.78C286.823 121.493 286.934 123.344 287.045 125.195C287.193 127.663 286.964 130.03 287.112 132.498C287.058 135.721 288.817 138.216 290.577 140.711C292.06 142.727 292.927 144.781 292.937 147.009C293.159 150.711 293.003 154.312 293.225 158.014C293.272 160.86 293.559 163.567 294.324 165.998C294.6 166.477 294.775 167.333 295.052 167.812C295.881 169.248 296.876 169.313 297.796 168.143C298.717 166.973 299.26 165.702 299.665 164.191C300.501 159.559 299.625 155.277 298.509 151.133C297.744 148.702 296.74 146.41 295.358 144.016C294.114 141.861 293.487 139.67 293.956 137.164C294.664 134.521 293.66 132.228 292.655 129.936C291.826 128.499 290.996 127.063 290.407 125.488C288.95 121.861 289.723 118.223 291.49 114.649C292.714 112.346 294.943 112.336 296.426 114.353C298.048 116.608 299.089 119.518 300.232 122.05C300.647 122.768 300.96 123.864 301.375 124.582C302.342 126.258 303.411 127.556 305.437 128.301C308.734 129.59 309.776 132.499 309.86 135.962C309.897 136.579 309.833 137.574 309.87 138.191C309.704 139.563 310.156 140.898 311.225 142.196C312.708 144.212 312.856 146.68 312.627 149.047C312.397 151.414 311.79 153.68 311.8 155.908C311.635 157.281 311.709 158.515 312.16 159.85C312.335 160.706 312.75 161.424 313.644 161.866C315.053 162.648 316.627 162.058 317.032 160.548C317.777 158.522 317.768 156.293 317.758 154.064C317.499 149.745 316.622 145.463 315.028 141.596C314.613 140.878 314.438 140.022 314.263 139.165C313.184 135.639 313.478 132.277 315.66 129.421C316.921 127.736 317.187 125.986 316.938 123.896C316.891 121.05 316.844 118.204 317.553 115.561C317.856 114.428 318.298 113.535 318.74 112.641C319.283 111.37 320.139 111.195 321.41 111.738C322.304 112.18 322.958 112.76 323.372 113.478C324.754 115.872 325.897 118.404 326.8 121.074C327.842 123.984 328.266 126.931 328.452 130.016C328.526 131.25 328.36 132.622 328.195 133.994C327.827 136.122 327.8 137.733 328.666 139.787C329.772 141.702 329.644 143.691 329.037 145.957C328.632 147.467 328.227 148.977 327.822 150.488C327.62 151.243 327.556 152.238 327.731 153.094C328.045 154.19 328.975 155.249 329.97 155.313C331.102 155.616 332.299 154.925 332.842 153.654C332.944 153.277 333.284 152.761 333.385 152.383C333.854 149.878 334.323 147.373 334.037 144.666C333.649 142.336 333.501 139.868 333.731 137.501C333.859 135.512 334.365 133.624 335.764 132.177C336.924 130.869 337.329 129.359 337.356 127.747C337.346 125.519 337.576 123.152 338.321 121.126C338.864 119.855 339.407 118.584 340.328 117.414C340.908 116.76 341.865 116.207 342.722 116.032C343.818 115.718 344.573 115.92 345.126 116.878C345.817 118.075 346.508 119.272 346.582 120.506C346.757 121.362 346.693 122.357 346.73 122.974C346.565 124.346 347.256 125.543 348.186 126.602C350.047 128.719 350.057 130.948 349.21 133.352C349.008 134.107 348.566 135 348.125 135.894C347.784 136.41 347.821 137.027 347.72 137.404C347.416 138.537 347.969 139.495 348.862 139.936C349.756 140.378 350.612 140.203 351.432 139.411C353.07 137.826 354.193 135.901 355.178 133.737C355.961 132.327 356.466 130.439 357.249 129.03C359.761 123.43 364.172 120.564 370.028 119.098C371.502 118.886 373.113 118.913 374.523 119.695C377.618 121.739 378.558 125.026 376.413 128.499C375.391 130.046 374.13 131.732 372.97 133.04C372.63 133.556 372.151 133.832 371.949 134.587C372.842 135.029 373.183 134.513 373.901 134.099C374.858 133.546 375.954 133.232 377.05 132.919C380.236 132.356 382.475 134.575 382.282 137.558C382.181 137.936 382.319 138.175 382.218 138.553C382.228 140.782 381.206 142.329 379.291 143.435C378.333 143.988 377.136 144.679 377.349 146.152C377.561 147.626 378.933 147.791 380.066 148.094C382.949 148.664 385.656 148.378 388.603 147.953C389.837 147.879 391.071 147.805 392.443 147.971C392.821 148.072 393.199 148.173 393.576 148.274C394.847 148.817 395.879 149.498 395.953 150.732C396.165 152.205 395.484 153.237 394.287 153.928C392.611 154.896 390.696 156.001 388.744 156.49C379.563 158.28 370.28 160.447 361.062 161.62C359.589 161.832 357.6 161.704 356.264 162.156C355.408 162.331 354.036 162.166 354.11 163.4C354.046 164.394 355.28 164.32 356.035 164.522C358.061 165.268 360.327 165.875 362.454 166.242C364.72 166.849 366.645 167.972 368.229 169.611C368.884 170.191 369.538 170.771 369.952 171.489C371.398 172.888 373.047 173.532 374.898 173.421C376.132 173.347 377.504 173.512 378.637 173.816C379.77 174.12 380.562 174.939 381.115 175.896C381.806 177.093 382.7 177.535 383.971 178.078C385.481 178.483 386.853 178.648 388.263 179.43C389.156 179.872 389.81 180.452 390.464 181.032C391.772 182.192 391.644 184.181 390.208 185.01C388.67 186.217 386.856 186.946 385.005 187.057C382.537 187.205 380.308 187.215 378.043 186.608C375.915 186.24 373.649 185.633 371.66 185.505C370.288 185.339 368.575 185.69 367.277 186.759C365.638 188.343 363.787 188.454 361.521 187.847C359.873 187.203 358.224 186.559 356.677 185.537C352.965 183.531 349.593 181.009 345.983 178.625C344.435 177.603 342.51 176.48 340.723 175.597C339.074 174.953 337.564 174.548 335.713 174.659C334.718 174.595 334.239 174.872 333.798 175.765C333.356 176.658 333.531 177.515 334.185 178.095C335.669 180.111 337.971 181.335 340.375 182.182C342.263 182.687 344.151 183.193 345.8 183.837C348.342 184.923 349.134 185.743 348.942 188.726C348.878 189.721 349.292 190.439 350.186 190.881C351.494 192.041 353.041 193.063 354.589 194.084C359.194 196.532 362.98 199.773 367.245 202.737C368.415 203.657 369.483 204.955 370.073 206.53C370.663 208.104 370.36 209.237 369.163 209.928C367.966 210.619 366.87 210.933 365.737 210.629C361.381 210.272 357.328 208.781 353.718 206.397C353.202 206.057 352.686 205.716 352.17 205.375C351.516 204.795 350.899 204.833 349.941 205.385C348.505 206.215 346.995 205.81 346.064 204.751C344.894 203.831 343.964 202.772 343.135 201.336C340.269 196.925 336.584 193.307 332.66 189.828C330.698 188.088 328.257 186.624 325.752 186.156C324.619 185.852 323.284 186.304 322.188 186.617C321.231 187.17 320.89 187.686 321.443 188.644C321.996 189.601 322.41 190.319 323.203 191.139C324.649 192.538 326.196 193.56 327.744 194.581C329.908 195.566 331.972 196.928 334.237 197.535C336.263 198.281 337.71 199.68 339.294 201.319C339.709 202.037 340.124 202.755 340.059 203.749C339.995 204.744 340.548 205.702 341.34 206.521C343.579 208.74 345.919 210.581 348.258 212.422C352.284 215.524 355.969 219.142 358.493 224.068C359.184 225.265 359.774 226.839 358.854 228.009C357.694 229.317 356.322 229.152 354.811 228.747C351.79 227.938 349.11 226.613 346.973 224.016C346.042 222.958 344.872 222.037 343.702 221.117C343.048 220.537 342.293 220.334 341.538 220.132C339.687 220.243 338.139 219.221 336.969 218.301C335.8 217.38 334.869 216.322 333.939 215.263C331.7 213.044 329.839 210.927 327.361 208.846C323.198 205.505 319.476 201.27 315.892 197.274C314.685 195.737 313.138 194.715 311.351 193.832C310.596 193.629 309.84 193.427 308.984 193.602C307.75 193.676 307.17 194.33 307.484 195.426C307.834 197.139 308.525 198.336 309.833 199.496C311.418 201.135 313.242 202.635 315.406 203.62C317.571 204.604 318.916 206.381 319.782 208.435C320.648 210.488 322.233 212.127 324.397 213.111C325.291 213.553 326.423 213.857 327.455 214.538C328.864 215.32 329.657 216.139 330.247 217.714C330.873 219.905 332.458 221.544 334.282 223.045C337.515 225.327 340.748 227.61 344.082 229.515C346.763 230.841 349.103 232.682 351.203 234.661C351.857 235.241 352.133 235.72 352.548 236.438C353.377 237.874 353.451 239.108 352.43 240.656C351.509 241.825 350.174 242.277 348.663 241.872C345.504 240.824 342.207 239.535 339.112 237.492C337.942 236.572 336.533 235.789 335.225 234.629C334.193 233.948 332.922 233.405 331.55 233.24C329.938 233.213 328.289 232.569 326.88 231.787C322.892 229.301 320.579 225.849 318.847 221.742C317.566 218.971 315.944 216.715 313.163 215.767C307.977 213.973 304.532 210.217 301.289 205.706C299.944 203.929 298.359 202.29 296.195 201.305C294.924 200.762 293.69 200.837 292.769 202.006C291.71 202.937 291.508 203.692 292.199 204.889C292.752 205.847 292.927 206.703 293.719 207.522C295.82 209.502 297.681 211.619 300.121 213.083C301.015 213.524 301.669 214.104 302.562 214.546C305.344 215.494 307.684 217.335 310.465 218.282C313.385 219.469 314.629 221.624 314.436 224.608C314.409 226.219 314.861 227.554 315.69 228.991C318.518 232.784 321.448 236.2 324.617 239.477C326.34 241.355 327.584 243.51 329.306 245.388C329.721 246.106 330.375 246.686 330.79 247.404C331.204 248.122 331.757 249.08 332.172 249.798C332.762 251.372 332.596 252.745 331.538 253.675C330.617 254.845 329.107 254.44 327.835 253.897C326.942 253.456 326.049 253.014 325.256 252.195C321.369 249.332 317.445 245.852 313.558 242.989C311.872 241.728 309.947 240.605 308.059 240.099C304.283 239.088 301.289 236.667 299.354 233.315C296.728 228.767 294.719 224.181 291.854 219.771C290.886 218.095 289.679 216.558 288.132 215.536C287.478 214.956 286.722 214.754 285.728 214.69C284.116 214.663 283.398 215.077 282.993 216.588C282.147 218.992 282.258 220.843 284.22 222.583C286.182 224.322 288.043 226.44 290.244 228.042C293.616 230.564 295.689 234.155 297.283 238.022C297.56 238.501 297.597 239.118 297.735 239.357C297.745 241.586 299.09 243.363 300.536 244.762C302.36 246.262 302.95 247.837 302.96 250.066C302.933 251.677 303.624 252.874 304.794 253.795C306.894 255.774 308.037 258.306 308.461 261.253C308.674 262.726 308.37 263.859 307.827 265.13C306.704 267.055 304.89 267.783 302.726 266.799C299.668 265.372 297.19 263.292 295.052 260.696C293.468 259.057 292.123 257.28 290.299 255.779C289.645 255.199 289.129 254.859 288.613 254.518C288.097 254.178 287.582 253.837 287.103 254.114C286.624 254.39 286.661 255.007 286.698 255.624C286.597 256.002 286.873 256.48 286.772 256.858C287.399 259.05 287.547 261.518 288.174 263.709C288.349 264.566 288.386 265.183 288.322 266.177C288.194 268.166 286.656 269.373 284.667 269.245C282.061 269.154 280.237 267.653 278.753 265.637C276.717 262.663 274.819 259.929 273.023 256.817C271.502 254.183 269.982 251.55 268.462 248.917C267.909 247.959 267.356 247.002 266.564 246.182C265.357 244.645 265.117 244.783 263.856 246.469C262.733 248.394 261.749 250.558 261.141 252.824C260.231 256.222 259.044 259.142 257.755 262.439C257.415 262.955 257.212 263.71 256.872 264.226C256.089 265.636 254.791 266.704 253.041 266.438C251.292 266.171 250.122 265.251 249.532 263.676C248.804 261.862 248.076 260.048 247.826 257.958C247.365 254.394 247.382 250.554 247.777 246.815C248.108 244.07 248.954 241.666 250.178 239.364C251.301 237.439 252.185 235.652 252.691 233.764C253.197 231.876 254.117 230.706 255.277 229.398C256.097 228.606 256.778 227.574 257.459 226.542C257.901 225.649 257.762 225.409 256.869 224.968C254.944 223.845 254.253 222.648 254.86 220.382C255.126 218.632 256.148 217.085 257.446 216.016C258.745 214.947 259.048 213.815 258.219 212.378C257.39 210.942 257.794 209.432 258.577 208.022C258.816 207.884 258.917 207.506 258.917 207.506C257.849 206.208 257.71 205.969 257.71 205.969Z" fill="#248E94"/>
    <path d="M280.831 239.92C281.294 243.19 283.382 245.613 285.067 248.453C291.794 258.993 298.528 269.943 303.63 281.33C306.604 287.835 309.176 294.757 310.519 301.699C311.398 305.371 311.465 309.466 311.533 313.562C311.539 313.971 311.539 313.971 311.546 314.381C311.553 314.79 311.56 315.2 311.15 315.207C310.741 315.214 310.324 314.811 310.318 314.401L310.311 313.991C309.418 309.5 306.9 305.855 305.195 301.786C303.073 297.315 301.361 292.837 299.643 287.949C296.655 280.625 292.855 273.723 289.055 266.822C286.108 261.954 283.57 257.08 280.623 252.213C278.515 248.561 277.212 244.076 277.145 239.981C277.111 237.933 276.682 236.711 274.614 235.516C272.962 234.724 270.894 233.529 269.236 232.327C268.854 233.972 269.686 234.778 270.109 235.59C275.178 244.929 279.844 254.684 284.906 263.613C290.391 273.354 294.245 283.532 295.245 294.576C295.749 300.303 295.843 306.036 295.521 311.367C295.528 311.776 295.534 312.186 295.132 312.602C294.729 313.018 294.326 313.435 293.903 312.622C293.487 312.22 293.064 311.407 293.05 310.588C292.601 308.138 291.741 305.694 291.291 303.243C288.666 293.045 284.826 283.686 280.167 274.341C276.783 267.842 272.587 261.767 270.015 254.845C267.035 247.93 264.866 240.592 265.557 232.797C265.517 230.34 264.678 229.125 262.617 228.339C260.965 227.547 259.716 226.339 257.662 225.963C257.273 227.198 258.112 228.413 258.542 229.635C260.697 236.154 262.449 243.089 264.604 249.608C266.316 254.086 268.035 258.974 270.559 263.029C272.668 266.681 274.373 270.75 276.078 274.818C277.79 279.296 279.912 283.767 281.221 288.661C282.537 293.965 283.846 298.859 283.934 304.183C283.947 305.002 284.383 306.634 283.155 306.654C281.933 307.084 281.906 305.446 281.483 304.633C279.764 299.746 278.046 294.858 275.917 289.977C273.789 285.097 271.245 279.813 268.304 275.355C265.786 271.71 264.074 267.232 261.96 263.17C258.569 256.262 255.588 249.347 253.822 241.593C253.373 239.142 252.513 236.698 252.473 234.241C252.016 231.381 252.795 228.91 253.574 226.44C253.943 223.976 254.352 223.969 251.875 222.781C250.64 222.391 249.391 221.183 247.753 221.21C247.793 223.667 248.646 225.701 249.082 227.333C250.801 232.22 251.298 237.538 251.788 242.445C252.769 252.261 254.978 262.056 259.221 270.998C261.779 277.101 264.739 282.787 268.11 288.467C270.218 292.119 271.916 295.778 274.024 299.43C274.031 299.84 274.447 300.243 274.454 300.652C274.461 301.062 274.474 301.881 274.065 301.888C273.655 301.894 273.246 301.901 272.829 301.498C271.997 300.693 271.164 299.887 270.742 299.075C267.808 295.026 264.88 291.388 261.947 287.339C255.24 278.028 248.942 268.709 245.485 257.705C243.343 252.005 242.423 245.876 241.913 239.74C240.986 233.201 242.523 227.031 244.477 221.264C245.255 218.793 245.256 218.793 242.778 217.605C239.891 216.423 237.407 214.825 234.521 213.644C234.104 213.241 233.279 212.845 232.876 213.261C232.473 213.678 232.486 214.496 232.493 214.906C233.413 221.036 234.333 227.165 235.253 233.295C236.159 238.605 237.066 243.916 238.382 249.22C239.704 254.933 242.242 259.807 244.377 265.097C246.076 268.756 247.774 272.415 249.473 276.074C252.87 283.392 256.267 290.71 257.221 298.887C257.234 299.706 258.08 301.331 256.852 301.351C255.63 301.78 255.603 300.142 255.18 299.33C252.629 293.637 249.675 288.36 246.311 283.09C242.518 276.598 238.731 270.515 234.938 264.023C229.446 253.872 225.579 242.875 225.787 230.583C225.706 225.668 226.444 220.74 228.002 215.799C229.559 210.858 229.559 210.858 224.611 208.891C223.376 208.501 222.134 207.703 220.899 207.313C219.254 206.931 218.851 207.347 218.878 208.985C219.342 212.254 219.389 215.121 219.852 218.391C220.295 220.432 220.322 222.07 220.356 224.117C220.503 233.127 221.873 241.707 224.471 250.267C225.774 254.752 227.889 258.814 229.601 263.292C231.749 269.401 234.314 275.913 236.462 282.023C237.342 285.695 237.812 289.374 237.872 293.06C237.879 293.469 237.886 293.879 237.483 294.295C237.08 294.711 236.677 295.128 236.255 294.315C235.838 293.913 235.832 293.503 235.825 293.094C234.052 284.93 229.433 278.042 226.036 270.724C224.774 268.696 223.921 266.662 222.243 264.232C221.162 273.261 219.263 282.305 214.886 290.16C214.04 288.535 214.422 286.891 214.805 285.246C215.933 279.082 215.422 272.946 215.731 266.796C216.067 262.285 215.173 257.793 214.28 253.302C212.904 244.312 210.715 235.746 208.117 227.186C206.385 221.479 205.062 215.766 205.377 210.026C205.344 207.978 205.727 206.333 205.693 204.286C206.062 201.822 204.813 200.613 202.759 200.237C200.289 199.459 198.221 198.264 196.166 197.888C195.764 198.304 195.764 198.304 195.77 198.713C198.295 202.768 199.597 207.253 201.309 211.731C203.464 218.25 206.022 224.353 206.956 231.301C208.305 238.653 210.064 245.998 209.776 253.376C209.508 261.983 208.004 270.201 204.855 278.035C204.862 278.445 204.459 278.861 204.459 278.861C204.466 279.271 204.057 279.277 203.647 279.284C203.238 279.291 203.231 278.881 202.815 278.478C202.801 277.659 202.781 276.431 202.767 275.612C203.506 270.684 203.016 265.776 202.935 260.862C203.203 252.255 202.25 244.078 200.471 235.504C198.718 228.569 196.973 222.043 194.811 215.115C193.092 210.227 192.192 205.327 192.112 200.412C192.098 199.593 192.085 198.774 192.071 197.955C192.044 196.317 191.205 195.102 189.56 194.719C187.506 194.343 185.445 193.558 183.793 192.765C183.377 192.363 182.552 191.967 182.149 192.383C181.336 192.806 182.169 193.611 182.182 194.431C182.612 195.652 183.042 196.874 183.471 198.096C186.063 206.246 188.661 214.806 189.621 223.393C190.085 226.663 190.132 229.529 190.595 232.799C191.099 238.526 192.019 244.655 192.522 250.382C192.999 254.47 193.476 258.559 193.543 262.654C193.604 266.34 194.067 269.61 194.537 273.289C194.993 276.149 195.45 279.009 195.907 281.869C195.913 282.279 195.927 283.098 195.933 283.507C195.537 284.333 195.128 284.34 194.712 283.937C194.295 283.534 193.872 282.722 193.859 281.903C189.985 270.496 186.923 258.667 184.271 246.831C183.399 243.568 182.942 240.708 182.069 237.445C180.297 229.281 178.934 221.111 177.571 212.94C176.664 207.63 176.583 202.715 177.731 197.781C178.114 196.136 178.087 194.498 178.06 192.86C178.04 191.631 177.624 191.228 176.798 190.832C173.918 190.06 170.622 188.885 167.332 188.12C167.359 189.758 168.191 190.564 168.621 191.786C170.749 196.666 171.656 201.977 172.159 207.703C172.724 217.116 172.878 226.535 174.261 235.935C175.208 243.702 176.162 251.879 177.108 259.647C178.028 265.777 178.539 271.913 179.459 278.043C179.895 279.674 179.929 281.722 180.365 283.353C180.372 283.763 180.795 284.575 179.982 284.998C179.17 285.421 178.74 284.199 178.324 283.796C177.471 281.762 176.625 280.137 176.182 278.096C173.168 269.134 170.972 260.158 168.367 251.188C167.058 246.294 166.152 240.983 165.655 235.666C164.742 229.946 164.647 224.213 163.734 218.493C163.251 213.995 163.177 209.49 163.103 204.985C163.063 202.528 163.425 199.654 163.794 197.19C164.163 194.726 164.533 192.262 164.902 189.798C164.882 188.57 164.868 187.751 163.223 187.368C159.101 185.797 158.692 185.804 158.356 190.315C158 193.598 157.652 197.291 157.705 200.567C157.806 206.71 157.081 212.457 156.356 218.204C155.994 221.077 155.631 223.951 155.672 226.408C155.725 229.684 155.363 232.558 155.007 235.841C154.685 241.172 154.363 246.502 154.041 251.833C153.739 258.392 153.846 264.945 153.954 271.497C153.994 273.954 154.028 276.002 154.471 278.043C154.478 278.453 154.485 278.862 154.491 279.272C154.511 280.5 154.941 281.722 153.719 282.152C152.491 282.172 152.464 280.534 152.041 279.722C150.289 272.786 148.952 266.254 148.429 259.299C147.952 255.21 147.475 251.121 146.998 247.033C146.488 240.896 146.394 235.163 146.703 229.013C147.031 224.092 147.36 219.171 147.689 214.25C148.387 206.865 149.911 199.876 151.844 192.88C152.63 190.819 153.422 189.167 154.214 187.516C155.402 185.038 154.986 184.636 152.515 183.857C148.4 182.696 147.991 182.702 146.836 187.227C144.513 195.458 142.191 203.689 140.284 212.323C138.391 221.776 135.679 231.243 133.377 240.702C131.853 247.691 129.497 253.874 126.738 260.474C126.341 261.3 125.952 262.535 125.147 263.368C124.744 263.784 124.341 264.2 123.925 263.797C123.508 263.394 123.502 262.985 123.495 262.575C123.878 260.931 123.844 258.883 124.227 257.238C126.133 248.604 126.811 239.991 127.898 231.37C128.616 225.214 128.918 218.654 130.456 212.485C131.959 204.267 134.705 196.848 139.921 190.208C141.526 188.134 143.546 186.462 144.735 183.985C145.527 182.333 145.52 181.924 143.875 181.541C142.23 181.158 140.995 180.769 139.35 180.386C138.115 179.997 137.309 180.829 136.913 181.655C134.557 187.839 130.965 193.633 127.777 199.01C124.997 204.381 122.628 209.746 120.258 215.11C116.317 224.596 112.384 234.492 108.443 243.979C108.047 244.805 107.651 245.631 107.248 246.047C106.845 246.463 106.442 246.879 106.026 246.476C105.2 246.08 105.194 245.671 105.597 245.255C105.59 244.845 105.583 244.436 105.986 244.019C107.939 238.252 108.241 231.693 109.369 225.53C111.262 216.077 113.148 206.214 117.928 197.943C121.124 192.975 124.319 188.007 128.34 183.435C129.549 182.186 131.167 180.93 132.785 179.675C133.187 179.258 133.597 179.252 133.583 178.433C131.522 177.647 129.468 177.272 127.414 176.896C126.178 176.506 125.379 177.748 124.983 178.574C122.996 182.293 120.6 186.02 117.794 189.752C109.369 200.541 102.602 212.532 96.6606 224.919C95.4724 227.396 94.2841 229.874 93.5121 232.754C93.1093 233.17 93.1228 233.989 92.2971 233.593C91.4713 233.197 91.8741 232.781 91.8673 232.371C92.2433 230.317 93.0354 228.665 93.4113 226.611C95.2706 215.111 100.01 204.382 105.582 194.459C108.368 189.497 112.389 184.925 116.008 180.769C117.619 179.104 119.646 177.842 121.674 176.58C119.599 174.975 115.491 174.224 113.45 174.667C112.631 174.68 112.228 175.096 111.832 175.922C111.429 176.338 111.033 177.164 111.04 177.574C108.663 182.529 104.635 186.691 100.178 189.632C96.5391 192.559 92.4841 195.084 89.2618 198.414C85.2271 202.167 82.4277 206.309 79.635 210.861C79.2322 211.277 79.2389 211.687 78.8361 212.103C78.8361 212.103 78.4334 212.519 78.0239 212.526C77.1981 212.13 77.5941 211.304 77.5874 210.895C78.3258 205.967 80.3061 201.838 82.696 197.702C87.8718 188.605 94.7261 181.938 104.071 177.279C105.696 176.433 107.314 175.177 108.938 174.331C108.938 174.331 108.932 173.922 109.341 173.915C109.334 173.505 108.918 173.103 108.509 173.109C99.8817 171.613 90.8454 170.122 81.8226 169.451C74.0283 168.76 66.234 168.068 58.4464 167.787C50.2493 167.512 42.4618 167.23 34.2647 166.954C28.9342 166.632 23.6171 167.129 18.6961 166.8C14.5942 166.458 10.499 166.525 6.39712 166.183C4.75231 165.8 3.51706 165.411 2.67785 164.196C0.596628 162.182 1.36867 159.302 3.38939 157.63C4.60448 156.791 6.24256 156.764 7.47113 156.744C14.0234 156.636 20.992 156.931 27.551 157.233C29.1891 157.206 30.8271 157.18 32.8747 157.146C43.1127 156.978 53.3573 157.219 63.206 158.286C72.2356 159.367 81.668 160.032 90.6976 161.113C98.0891 162.22 105.481 163.328 113.282 164.428C116.155 164.791 116.155 164.791 117.336 161.904C118.511 158.608 118.867 155.325 119.632 152.035C122.364 143.797 127.581 137.157 134.039 131.316C136.462 129.228 138.886 127.14 142.142 125.858C142.954 125.435 143.76 124.602 144.592 125.408C145.425 126.214 143.793 126.65 143.397 127.476C140.168 130.396 137.355 133.72 134.959 137.446C132.159 141.588 129.776 146.133 127.393 150.679C125.413 154.808 123.029 159.353 120.633 163.079C120.23 163.495 119.424 164.328 120.257 165.133C121.089 165.939 123.137 165.905 123.533 165.08C123.936 164.663 124.332 163.837 124.728 163.012C127.474 155.593 132.287 149.369 137.1 143.146C143.115 135.264 151.232 130.624 160.194 127.61C160.604 127.603 160.604 127.603 161.02 128.006C161.033 128.825 160.631 129.241 160.221 129.248C154.569 134.256 149.749 140.07 144.512 145.482C138.866 150.9 134.053 157.123 129.239 163.347C127.239 166.248 127.239 166.248 130.938 167.006C131.757 166.993 132.173 167.395 132.992 167.382C135.872 168.154 135.872 168.154 136.651 165.684C139.397 158.265 143.801 152.048 149.037 146.636C152.662 142.89 156.294 139.553 160.335 136.21C163.974 133.283 167.626 131.174 171.681 128.65C172.896 127.811 174.521 126.965 176.159 126.938C176.179 128.167 175.77 128.173 174.964 129.006C168.499 134.437 162.866 140.674 157.65 147.314C152.025 153.961 146.808 160.601 141.169 166.429C140.773 167.254 139.551 167.684 139.974 168.497C140.404 169.718 141.216 169.295 142.042 169.691C143.277 170.081 144.513 170.47 146.157 170.853C147.393 171.242 148.205 170.819 148.594 169.584C152.099 158.466 160.161 150.55 168.231 143.044C174.286 137.619 180.771 133.417 187.679 130.026C189.713 129.173 191.747 128.321 193.788 127.878C194.198 127.871 194.607 127.864 195.024 128.267C195.447 129.079 194.627 129.093 194.225 129.509C190.975 131.201 187.323 133.309 184.497 135.813C178.838 140.412 174.011 145.817 169.184 151.221C165.968 154.961 163.162 158.694 159.947 162.434C157.939 164.924 155.925 167.006 153.092 169.1C152.28 169.523 151.884 170.349 151.078 171.182C150.273 172.014 150.689 172.417 151.515 172.813C153.16 173.196 154.811 173.988 156.456 174.371C157.282 174.767 158.094 174.344 158.49 173.518C158.886 172.692 159.698 172.269 160.095 171.443C163.256 164.427 168.902 159.009 174.964 153.994C183.457 147.3 192.372 141.419 201.71 136.35C206.175 133.819 211.062 132.1 216.372 131.193C217.601 131.173 219.226 130.328 219.655 131.549C220.085 132.771 218.037 132.805 217.225 133.228C206.645 137.498 198.159 144.601 189.264 151.711C181.181 158.398 173.105 165.495 165.022 172.182C163.807 173.021 162.592 173.86 161.377 174.699C163.861 176.297 166.734 176.66 169.614 177.432C170.024 177.425 170.843 177.411 170.836 177.002C171.239 176.586 171.232 176.176 171.635 175.76C173.609 171.221 177.65 167.878 181.282 164.541C191.788 155.766 203.141 148.616 214.909 141.868C218.964 139.344 222.616 137.236 227.094 135.524C230.759 134.235 234.425 132.945 238.104 132.475C238.513 132.469 239.326 132.046 239.749 132.858C239.762 133.677 238.943 133.691 238.131 134.114C230.806 137.101 224.328 141.714 217.85 146.326C213.399 149.676 208.948 153.027 204.49 155.967C199.63 159.324 195.595 163.077 191.144 166.427C186.686 169.368 182.645 172.712 178.187 175.652C176.972 176.492 175.348 177.338 174.126 177.767C174.139 178.586 174.958 178.573 175.375 178.976C178.261 180.157 181.141 180.929 184.022 181.701C186.492 182.48 186.902 182.473 187.68 180.003C188.835 175.478 191.641 171.745 194.454 168.421C203.295 158.035 214.231 150.482 226.416 144.137C233.727 140.33 241.461 137.336 249.208 135.161C251.658 134.711 253.686 133.449 256.143 133.408C256.552 133.401 257.365 132.979 257.378 133.798C257.385 134.207 256.982 134.623 256.579 135.04C256.176 135.456 255.767 135.463 255.364 135.879C245.2 140.552 235.882 146.849 226.973 153.14C221.71 156.914 216.433 159.868 211.586 164.044C205.524 169.059 199.462 174.074 193.823 179.902C193.017 180.734 191.802 181.573 191.003 182.815C189.795 184.064 190.211 184.467 191.447 184.856C193.514 186.051 194.743 186.031 195.528 183.97C199.892 175.296 207.176 169.851 215.299 165.621C222.61 161.815 230.337 158.411 238.064 155.007C245.791 151.603 253.095 147.386 260.393 142.76C262.011 141.505 264.045 140.652 266.072 139.39C266.475 138.974 266.884 138.967 267.301 139.37C267.717 139.773 267.314 140.189 267.321 140.598C265.716 142.673 264.105 144.338 262.084 146.01C254.411 152.69 245.912 158.974 236.983 164.037C231.707 166.991 226.43 169.945 220.744 172.906C213.433 176.712 206.532 180.512 199.637 184.722C199.234 185.138 198.825 185.145 198.422 185.561C197.207 186.401 197.214 186.81 198.456 187.609C201.752 188.784 205.048 189.959 208.351 191.543C209.593 192.342 209.983 191.107 210.379 190.281C211.56 187.394 213.165 185.319 215.179 183.238C216.79 181.573 217.991 179.915 220.019 178.653C226.081 173.637 232.976 169.428 240.293 166.03C244.361 164.325 248.013 162.217 252.075 160.102C257.358 157.557 263.051 155.006 268.342 152.871C273.632 150.736 278.922 148.601 284.621 146.459C285.031 146.452 285.434 146.036 285.85 146.439C285.864 147.258 285.058 148.09 284.655 148.507C281.433 151.837 277.794 154.764 273.739 157.288C266.442 161.914 258.735 166.547 251.015 170.36C239.233 176.289 228.693 183.016 218.166 190.562C216.951 191.402 215.326 192.248 214.118 193.496C216.193 195.101 218.254 195.886 220.315 196.672C224.443 198.652 224.443 198.652 226.84 194.926C228.438 192.442 230.042 190.368 232.472 188.689C233.688 187.85 234.903 187.011 235.702 185.769C239.729 181.606 244.603 179.068 249.471 176.121C258.809 171.052 268.563 166.386 278.325 162.129C281.581 160.847 284.837 159.564 288.093 158.282C294.188 155.314 300.291 152.756 306.4 150.608C307.212 150.185 307.615 149.768 308.448 150.574C308.871 151.386 308.058 151.809 307.655 152.225C301.587 156.831 295.934 161.84 289.449 166.043C282.964 170.246 275.646 173.643 268.329 177.04C258.567 181.297 248.813 185.963 239.891 191.435C235.836 193.959 232.197 196.887 228.149 199.821C228.163 200.64 228.989 201.036 229.398 201.029C232.292 202.62 235.178 203.802 238.072 205.393C239.307 205.782 239.717 205.775 240.516 204.533C244.087 197.511 250.156 192.905 256.231 188.709C262.307 184.513 268.396 181.136 275.324 178.974C281.03 177.241 286.744 175.918 292.873 174.999C301.855 173.213 310.845 171.836 319.807 168.822C320.619 168.399 321.848 168.378 323.083 168.768C323.103 169.996 322.284 170.01 321.472 170.433C313.758 174.656 306.031 178.06 297.888 181.061C287.704 184.505 277.52 187.95 267.349 192.213C259.212 195.624 251.908 199.84 245.034 205.278C242.603 206.957 242.61 207.366 245.087 208.555C247.565 209.743 247.974 209.736 249.169 207.668C251.969 203.526 255.614 201.008 260.078 198.477C269.007 193.415 278.788 190.387 289 188.581C295.129 187.661 301.265 187.15 307.421 187.868C313.161 188.184 319.317 188.902 325.064 189.627C325.474 189.62 325.474 189.62 325.883 189.614C326.702 189.6 327.931 189.58 327.951 190.809C327.971 192.037 326.736 191.648 325.917 191.661C321.009 192.151 316.109 193.051 311.194 193.132C309.147 193.165 307.106 193.609 305.468 193.636C294.431 195.046 283.401 196.865 273.23 201.129C267.94 203.264 262.656 205.808 257.373 208.353C255.748 209.199 254.117 209.635 252.492 210.481C251.68 210.904 251.277 211.321 252.11 212.126C254.594 213.724 257.071 214.912 259.548 216.101C260.374 216.497 261.193 216.483 261.589 215.657C261.992 215.241 262.798 214.409 262.791 213.999C265.181 209.863 268.826 207.346 272.894 205.64C280.621 202.236 288.772 199.645 297.358 198.685C309.214 197.261 320.701 198.301 332.214 200.98C333.04 201.376 334.269 201.356 335.101 202.161C334.705 202.987 333.886 203 333.476 203.007C331.019 203.047 328.555 202.678 326.098 202.719C319.539 202.417 312.584 202.941 306.052 204.277C300.332 205.19 294.619 206.513 288.913 208.245C284.025 209.964 278.729 211.689 273.841 213.408C271.398 214.268 269.363 215.12 266.92 215.98C265.698 216.409 264.483 217.248 263.274 218.497C264.933 219.699 266.584 220.491 267.826 221.29C268.652 221.686 269.471 221.673 270.277 220.84C274.291 215.859 280.4 213.71 286.523 212.381C288.564 211.937 290.605 211.494 292.646 211.051C300.399 209.285 308.174 208.748 316.364 208.614C324.971 208.882 332.785 210.802 341.016 213.125L341.425 213.118C341.835 213.111 342.251 213.514 341.848 213.93C341.855 214.34 341.445 214.347 341.036 214.353C339.398 214.38 338.163 213.991 336.524 214.018C329.959 213.306 323.004 213.83 316.458 214.347C309.912 214.864 303.374 215.791 296.842 217.127C292.35 218.02 287.866 219.322 283.388 221.034C280.132 222.317 276.869 223.19 273.6 223.653C273.19 223.66 272.781 223.667 272.787 224.076C274.875 226.5 275.701 226.896 278.131 225.217C282.999 222.27 288.718 221.357 294.445 220.853C304.26 219.873 313.699 220.947 323.152 222.84C328.496 223.981 333.846 225.532 339.203 227.492C342.909 228.66 346.622 230.238 350.744 231.809C351.154 231.802 351.57 232.205 351.576 232.614C350.771 233.447 349.938 232.641 349.119 232.655C344.594 231.5 339.667 230.762 335.149 230.016C330.221 229.278 324.897 229.365 319.97 228.627C309.302 227.573 299.057 227.332 288.416 227.916C285.959 227.956 283.509 228.406 280.649 228.863C282.73 230.877 284.798 232.072 286.866 233.267C287.691 233.663 288.913 233.233 290.135 232.804C294.203 231.098 298.688 229.795 303.199 230.131C304.838 230.104 306.073 230.494 307.711 230.467C314.693 231.581 321.259 232.293 327.845 234.233C334.014 235.77 339.788 238.133 345.568 240.906C351.348 243.678 356.733 247.277 362.923 250.043C363.332 250.036 363.339 250.446 363.755 250.848C363.359 251.674 362.54 251.687 361.714 251.291C358.431 250.936 355.545 249.754 352.255 248.989C343.615 246.673 334.961 243.538 326.321 241.222C320.151 239.684 313.988 238.557 307.832 237.838C303.32 237.503 298.406 237.583 293.888 236.838C293.478 236.845 293.069 236.852 292.666 237.268C294.331 238.879 296.808 240.068 298.883 241.672C299.299 242.075 300.118 242.062 300.521 241.645C310.739 240.249 319.789 242.558 329.281 246.908C337.532 250.459 344.588 256.079 351.651 262.107C354.142 264.115 356.639 266.532 359.13 268.539C360.372 269.338 361.204 270.143 362.037 270.949C361.641 271.775 361.225 271.372 360.815 271.379C358.754 270.593 357.103 269.801 355.041 269.016C348.012 265.035 340.567 260.651 333.538 256.67C331.47 255.475 329.409 254.689 327.348 253.904C321.991 251.943 317.036 249.567 311.276 248.023C309.631 247.64 307.98 246.848 306.335 246.465C306.348 247.284 307.174 247.681 307.584 247.674C308 248.077 308.416 248.479 308.826 248.473C317.513 253.655 324.596 260.913 331.672 267.761C337.499 273.4 343.327 279.039 348.751 285.095C354.592 291.554 359.621 298.435 363.441 306.565C364.287 308.19 365.542 309.808 366.388 311.432C366.804 311.835 366.811 312.245 366.408 312.661C366.005 313.077 365.589 312.674 365.18 312.681C358.929 306.229 350.672 302.269 344.824 295.401C340.655 290.963 336.479 286.116 332.31 281.678C328.55 277.234 324.381 272.796 320.219 268.768C315.633 263.927 311.86 258.664 307.275 253.824C303.938 250.192 300.608 246.969 296.063 244.586C296.903 245.801 298.151 247.009 298.991 248.225C305.644 254.26 309.86 261.564 314.486 268.862C318.279 275.354 322.072 281.846 325.462 288.754C328.873 296.891 332.29 305.438 334.07 314.011C334.083 314.83 334.922 316.045 333.701 316.475C332.479 316.905 332.458 315.676 332.035 314.864C330.767 312.427 329.907 309.983 328.645 307.956C325.255 301.047 321.468 294.965 317.265 288.48C310.968 279.161 305.087 270.245 299.602 260.504C296.648 255.227 294.506 249.527 292.774 243.821C292.337 242.189 291.498 240.974 289.847 240.182C284.147 242.324 282.489 241.122 280.831 239.92ZM212.433 215.645L212.843 215.638C213.232 214.403 214.025 212.751 214.414 211.516C216.374 206.159 215.562 206.581 211.849 205.004C211.44 205.01 211.433 204.601 211.023 204.608C209.379 204.225 208.976 204.641 209.405 205.863C210.285 209.536 211.151 212.389 212.433 215.645Z" fill="#8EDAA7"/>
</svg>
