<svg width="320" height="273" viewBox="0 0 320 273" fill="none" xmlns="http://www.w3.org/2000/svg">
    <path d="M213.427 72.8763C216.469 74.16 219.621 73.6152 222.923 73.6299C235.423 73.2794 248.276 73.1336 260.666 74.6114C267.775 75.4052 275.034 76.7585 281.678 79.1759C285.28 80.3096 288.827 82.3577 292.374 84.4056C292.729 84.6104 292.729 84.6105 293.084 84.8152C293.439 85.02 293.793 85.2248 293.589 85.5795C293.384 85.9342 292.824 86.0841 292.47 85.8793L292.115 85.6744C287.803 84.1311 283.382 84.4162 279.016 83.7871C274.09 83.3078 269.369 82.4739 264.293 81.4352C256.475 80.2318 248.602 79.9426 240.729 79.6534C235.038 79.6788 229.553 79.3495 223.863 79.3749C219.647 79.3052 215.131 78.1166 211.583 76.0686C209.81 75.0446 208.541 74.7849 206.453 75.944C204.924 76.9533 202.836 78.1125 200.953 78.9169C202.167 80.0908 203.286 79.7909 204.2 79.8458C214.816 80.2996 225.582 81.313 235.843 81.5621C247.018 81.866 257.729 83.7936 267.716 88.6136C272.887 91.126 277.853 93.9932 282.26 97.0103C282.614 97.2151 282.969 97.4199 283.119 97.9793C283.269 98.5388 283.419 99.0983 282.505 99.0434C281.945 99.1933 281.031 99.1385 280.321 98.7289C277.988 97.8548 275.45 97.3355 273.117 96.4614C263.021 93.4697 253.019 91.9517 242.608 91.1432C235.294 90.7041 227.926 91.1792 220.667 89.8259C213.203 88.8273 205.794 86.9144 199.464 82.3139C197.336 81.0852 195.862 81.1802 194.129 82.5441C192.601 83.5533 190.922 84.0031 189.543 85.5718C190.403 86.5409 191.876 86.4458 193.145 86.7055C199.845 88.2087 206.694 90.2714 213.393 91.7746C218.114 92.6086 223.19 93.6473 227.966 93.567C232.182 93.6367 236.549 94.2659 240.915 94.8951C245.636 95.729 250.562 96.2081 255.433 97.6015C260.658 99.1998 265.529 100.593 270.141 103.255C270.85 103.665 272.474 104.13 271.859 105.194C271.6 106.463 270.181 105.643 269.267 105.589C264.191 104.55 259.115 103.511 253.835 102.827C248.554 102.143 242.714 101.609 237.379 101.839C232.958 102.124 228.237 101.29 223.665 101.016C215.997 100.372 208.533 99.3733 200.975 96.901C198.642 96.027 196.104 95.5076 193.976 94.2788C191.288 93.2 189.569 91.2618 187.85 89.3236C185.927 87.7401 186.131 87.3854 183.839 88.8992C182.869 89.7585 181.191 90.2083 180.372 91.6271C182.5 92.8559 184.683 93.1705 186.307 93.635C191.383 94.6737 196.199 96.9813 200.66 99.0842C209.583 103.29 219.12 106.431 228.972 107.39C235.521 108.334 241.921 108.718 248.525 108.747C252.741 108.817 256.753 109.241 260.969 109.311C261.324 109.516 261.883 109.366 262.238 109.571C262.593 109.775 263.302 110.185 263.097 110.54C262.893 110.894 262.688 111.249 262.128 111.399C261.009 111.699 259.89 111.999 258.976 111.944C253.995 112.379 249.37 113.018 244.389 113.453C232.954 114.418 221.723 115.029 210.508 112.337C204.518 111.243 198.788 108.881 193.262 106.163C187.177 103.596 182.676 99.1054 178.734 94.4648C177.015 92.5266 177.015 92.5265 174.722 94.0404C172.224 95.9089 169.577 97.2179 167.079 99.0865C166.52 99.2364 165.755 99.741 165.905 100.3C166.055 100.86 166.764 101.27 167.119 101.474C172.849 103.837 178.58 106.199 184.31 108.562C189.331 110.515 194.352 112.468 199.578 114.066C205.158 115.869 210.643 116.198 216.279 117.087C220.29 117.512 224.302 117.936 228.313 118.36C236.336 119.209 244.36 120.058 251.863 123.444C252.573 123.854 254.401 123.963 253.787 125.027C253.527 126.296 252.108 125.477 251.194 125.422C244.999 124.683 238.955 124.504 232.705 124.679C225.186 124.595 218.023 124.715 210.504 124.631C198.974 124.122 187.554 121.785 177.117 115.286C172.861 112.829 169.013 109.662 165.576 105.786C162.139 101.909 162.139 101.909 157.908 105.142C156.938 106.001 155.615 106.656 154.646 107.515C153.472 108.729 153.622 109.288 155.041 110.108C158.083 111.391 160.566 112.825 163.609 114.109C165.587 114.778 167.006 115.597 168.779 116.621C176.583 121.126 184.647 124.363 193.324 126.535C197.84 127.724 202.412 127.999 207.133 128.832C213.477 130.131 220.381 131.279 226.726 132.578C230.328 133.711 233.725 135.2 236.918 137.043C237.272 137.248 237.627 137.453 237.777 138.012C237.927 138.572 238.077 139.131 237.163 139.076C236.603 139.226 236.248 139.021 235.894 138.817C227.98 136.14 219.698 136.56 211.674 135.711C209.286 135.751 207.103 135.437 204.156 135.627C211.345 141.196 218.125 147.475 222.612 155.268C220.784 155.158 219.569 153.984 218.355 152.811C213.649 148.675 208.123 145.957 203.008 142.531C199.31 139.923 194.999 138.38 190.688 136.837C182.27 133.395 173.797 130.868 165.119 128.696C159.334 127.247 153.753 125.444 148.992 122.222C147.218 121.198 146.004 120.025 144.231 119.001C142.307 117.417 140.629 117.867 139.25 119.435C137.312 121.154 135.224 122.313 133.845 123.882C133.995 124.441 133.995 124.441 134.35 124.646C139.126 124.566 143.642 125.755 148.363 126.589C155.062 128.092 161.612 129.035 168.052 131.808C175.051 134.43 182.255 136.697 188.435 140.738C195.679 145.394 201.954 150.908 207.056 157.637C207.41 157.842 207.56 158.401 207.56 158.401C207.915 158.606 207.71 158.961 207.505 159.316C207.301 159.67 206.946 159.465 206.386 159.615C205.677 159.206 204.613 158.591 203.903 158.182C200.056 155.015 195.595 152.912 191.338 150.455C184.094 145.799 176.59 142.413 168.322 139.531C161.473 137.468 154.978 135.61 147.924 133.902C142.848 132.863 138.182 131.115 133.926 128.658C133.216 128.248 132.507 127.839 131.797 127.429C130.379 126.61 128.905 126.705 127.731 127.919C126.352 129.488 124.619 130.851 123.09 131.861C122.531 132.011 121.767 132.515 121.917 133.075C121.862 133.989 122.981 133.689 123.69 134.099C124.959 134.358 126.228 134.618 127.497 134.878C135.82 136.845 144.498 139.018 152.356 142.609C155.399 143.893 157.882 145.326 160.924 146.61C166.095 149.122 171.825 151.485 176.996 153.997C180.748 155.691 184.5 157.384 188.047 159.432C191.24 161.275 194.282 162.559 197.679 164.047C200.367 165.126 203.055 166.205 205.743 167.284C206.097 167.488 206.807 167.898 207.162 168.103C207.666 168.867 207.461 169.222 206.902 169.372C206.342 169.522 205.428 169.467 204.719 169.057C192.944 166.515 181.223 163.059 169.708 159.248C166.461 158.319 163.773 157.24 160.526 156.312C152.612 153.634 144.904 150.603 137.195 147.571C132.174 145.618 127.917 143.16 124.275 139.639C123.061 138.465 121.642 137.646 120.223 136.826C119.159 136.212 118.6 136.362 117.835 136.867C115.692 138.94 112.99 141.163 110.642 143.591C112.061 144.41 113.18 144.111 114.449 144.37C119.73 145.054 124.75 147.007 129.921 149.52C138.284 153.875 146.443 158.585 155.216 162.232C162.365 165.413 169.869 168.8 177.018 171.981C182.748 174.344 188.274 177.061 194.004 179.424C195.628 179.888 197.401 180.912 199.025 181.377C199.379 181.581 200.294 181.636 200.239 182.551C200.184 183.465 198.915 183.205 198.356 183.355C196.173 183.04 194.344 182.931 192.366 182.261C183.128 180.239 174.301 177.507 165.268 175.13C160.397 173.736 155.377 171.783 150.561 169.476C145.185 167.318 140.219 164.451 134.843 162.293C130.737 160.395 126.835 158.142 122.933 155.89C120.805 154.661 118.526 152.872 116.603 151.289C114.679 149.705 112.756 148.122 110.833 146.539C109.768 145.924 109.059 145.515 107.885 146.729C104.418 149.456 104.213 149.811 107.911 152.419C110.543 154.412 113.531 156.609 116.369 158.248C121.69 161.32 126.246 164.896 130.802 168.473C133.081 170.261 135.359 172.049 137.487 173.278C140.325 174.916 142.603 176.705 145.236 178.698C149.643 181.715 154.049 184.732 158.456 187.749C163.926 191.38 169.602 194.657 175.277 197.934C177.405 199.163 179.179 200.187 181.157 200.856C181.512 201.061 181.867 201.265 182.221 201.47C183.286 202.085 184.555 202.344 184.295 203.613C183.681 204.677 182.262 203.858 181.347 203.803C174.498 201.74 168.208 199.528 161.973 196.401C158.221 194.708 154.469 193.015 150.717 191.321C145.192 188.604 140.226 185.737 135.11 182.31C131.058 179.498 127.006 176.686 122.955 173.874C116.979 169.478 111.769 164.578 106.762 159.323C105.398 157.589 104.389 156.061 103.38 154.532C101.866 152.239 101.306 152.389 99.3682 154.108C96.2562 157.04 96.0513 157.395 99.3388 160.712C105.204 166.936 111.07 173.16 117.495 179.234C124.629 185.718 131.354 192.911 138.284 199.75C143.495 204.65 147.587 209.85 151.829 215.61C152.334 216.374 153.193 217.343 153.493 218.462C153.643 219.022 153.793 219.581 153.233 219.731C152.674 219.881 152.319 219.676 151.964 219.471C150.75 218.298 148.977 217.274 147.763 216.1C141.338 210.026 134.298 205.015 127.464 199.651C122.552 195.869 117.082 192.238 112.58 187.747C106.305 182.232 101.354 176.063 98.3405 168.175C97.386 165.733 96.9912 163.14 95.4772 160.847C94.4679 159.318 94.1131 159.114 92.9392 160.328C91.7653 161.542 90.7963 162.401 89.6224 163.615C88.6534 164.474 88.9532 165.593 89.4579 166.358C93.5499 171.558 96.6728 177.617 99.6458 183.117C102.824 188.262 106.206 193.053 109.589 197.843C115.699 206.101 122.165 214.563 128.275 222.82C128.78 223.584 129.285 224.349 129.434 224.908C129.584 225.468 129.734 226.027 129.175 226.177C128.41 226.682 128.056 226.477 127.906 225.917C127.551 225.713 127.196 225.508 127.046 224.948C123.104 220.308 117.634 216.676 112.927 212.54C105.793 206.057 98.3036 199.368 93.6668 191.016C91.0485 185.72 88.4303 180.425 86.5763 174.626C86.1265 172.947 85.8814 170.914 85.6364 168.881C85.4865 168.321 85.6913 167.966 84.9818 167.557C83.2485 168.921 81.87 170.49 80.4913 172.058C79.5222 172.918 80.1767 174.241 80.6813 175.006C82.8498 178.622 84.8136 182.594 86.5725 186.92C91.4945 199.693 98.2999 211.662 105.87 223.126C107.383 225.419 108.897 227.712 110.971 229.855C111.121 230.415 111.83 230.824 111.066 231.329C110.302 231.833 110.152 231.274 109.797 231.069C108.228 229.69 107.219 228.162 105.65 226.783C96.7421 219.276 89.9768 209.694 84.3307 199.813C81.5076 194.873 79.6537 189.073 77.9496 183.833C77.3499 181.595 77.3097 179.207 77.2695 176.819C74.8267 177.774 72.0694 180.911 71.4002 182.889C70.9906 183.599 71.1405 184.158 71.6451 184.922C71.795 185.482 72.2997 186.246 72.6545 186.451C75.6823 191.037 77.1817 196.632 77.412 201.967C78.052 206.593 78.1323 211.369 79.3317 215.845C80.4763 221.235 82.5899 225.766 85.0583 230.501C85.2082 231.061 85.5628 231.266 85.7128 231.825C85.7128 231.825 85.8629 232.385 85.6581 232.739C84.8938 233.244 84.389 232.48 84.0343 232.275C80.1873 229.108 77.664 225.287 75.3456 221.11C70.2041 211.994 68.0102 202.687 68.8185 192.276C68.9282 190.448 68.6831 188.415 68.7928 186.586C68.7928 186.586 68.438 186.381 68.6428 186.027C68.2881 185.822 67.7287 185.972 67.5239 186.327C61.8046 192.956 55.8804 199.94 50.6656 207.334C46.0652 213.664 41.4649 219.994 37.2192 226.528C32.7688 233.418 28.5229 239.952 24.0725 246.841C21.0555 251.248 18.7481 256.064 15.9359 260.115C13.5333 263.457 11.4854 267.004 9.08282 270.347C7.90895 271.561 6.93988 272.42 5.46617 272.515C2.66864 273.264 0.595336 271.122 0.200423 268.529C0.105339 267.055 0.924452 265.636 1.53882 264.572C4.81541 258.897 8.65154 253.072 12.2829 247.601C13.102 246.183 13.9211 244.764 14.9451 242.99C20.0647 234.123 25.539 225.46 31.518 217.562C37.0875 210.373 42.5072 202.624 48.0767 195.435C52.827 189.665 57.5772 183.894 62.5323 177.769C64.3205 175.491 64.3206 175.491 62.4519 172.994C60.2286 170.291 57.5956 168.298 55.1675 165.95C49.5067 159.372 46.4935 151.484 44.8041 142.941C44.2592 139.789 43.7144 136.637 44.2886 133.185C44.3434 132.271 44.0436 131.152 45.1626 130.852C46.2816 130.552 45.8172 132.176 46.3218 132.94C47.1666 137.211 48.5706 141.333 50.5343 145.304C52.648 149.835 55.3211 154.216 57.9943 158.597C60.5175 162.418 63.1906 166.799 65.1543 170.77C65.3042 171.33 65.6042 172.449 66.7232 172.149C67.8422 171.849 68.8661 170.076 68.3614 169.312C68.2115 168.752 67.7068 167.988 67.2022 167.223C62.2508 161.054 59.3876 153.726 56.5243 146.398C52.8566 137.186 53.0504 127.839 55.0728 118.602C55.2775 118.247 55.2774 118.247 55.8369 118.098C56.5464 118.507 56.6965 119.067 56.4917 119.421C57.8813 126.845 60.3897 133.968 62.3388 141.242C64.083 148.87 66.9462 156.198 69.8095 163.526C71.2686 166.734 71.2686 166.734 73.8212 163.951C74.2307 163.241 74.7901 163.092 75.1997 162.382C77.3427 160.309 77.3428 160.309 75.6241 158.371C70.6728 152.201 67.6045 145.228 65.6555 137.954C64.3061 132.919 63.3115 128.088 62.5217 122.903C61.8818 118.277 61.9513 114.061 61.8709 109.285C61.7758 107.811 61.8857 105.983 62.7048 104.564C63.769 105.178 63.5642 105.533 63.8641 106.652C65.1988 114.99 67.6523 123.027 70.6655 130.915C73.4739 139.158 76.4872 147.046 78.5862 154.879C79.0908 155.643 78.8312 156.912 79.7454 156.967C81.0144 157.226 81.0692 156.312 81.8335 155.807C82.8026 154.948 83.7716 154.089 84.9454 152.875C85.9145 152.016 85.9694 151.101 85.1101 150.132C77.3759 141.41 74.7319 130.425 72.4428 119.645C70.9033 111.662 70.6328 103.939 71.2765 96.2707C71.591 94.0876 71.9055 91.9045 72.5747 89.9262C72.7795 89.5715 72.9843 89.2167 73.5438 89.0668C74.458 89.1217 74.0484 89.8311 74.1983 90.3906C73.9788 94.0474 73.9093 98.2637 74.6041 101.975C75.6389 109.194 77.7929 116.113 79.9467 123.031C81.5008 127.712 83.2598 132.038 84.8139 136.719C85.9183 139.721 86.6678 142.519 87.0079 146.026C86.953 146.94 87.4577 147.704 87.7576 148.823C88.0574 149.942 88.6169 149.792 89.3812 149.288C90.5551 148.074 92.0838 147.065 93.2576 145.85C94.0219 145.346 94.0768 144.432 93.5721 143.667C93.0675 142.903 93.1223 141.989 92.6177 141.225C88.2258 134.905 86.4815 127.277 85.2968 119.499C83.9219 108.774 83.4611 98.1031 83.9147 87.4875C84.039 82.357 85.0775 77.2814 87.0304 72.2607C87.6447 71.1966 87.7546 69.3682 89.0235 69.6279C90.2925 69.8876 89.2684 71.661 89.2135 72.5752C87.4362 83.8454 89.1659 94.7757 90.6907 106.061C92.2704 116.431 94.2049 127.007 95.7846 137.378C95.8797 138.851 95.9747 140.325 96.0697 141.799C98.7173 140.49 100.506 138.212 102.649 136.138C102.853 135.784 103.263 135.074 102.908 134.869C102.758 134.31 102.403 134.105 102.254 133.546C99.3756 129.519 98.5857 124.334 97.5911 119.503C95.4665 105.98 95.1705 92.5673 95.4339 79.0042C95.3535 74.2284 95.423 70.0121 96.2568 65.2913C97.0358 61.4846 97.8147 57.6778 99.3031 54.2807C99.5078 53.926 99.5626 53.0117 100.477 53.0666C101.186 53.4762 100.777 54.1857 100.722 55.0999C99.5188 62.9181 100.144 70.846 100.769 78.774C101.354 84.314 101.939 89.8542 102.17 95.1894C102.55 101.084 103.694 106.474 104.28 112.014C104.51 117.35 105.3 122.535 105.53 127.87C105.625 129.344 105.515 131.173 105.256 132.441C105.965 132.851 106.375 132.142 106.934 131.992C109.432 130.123 111.575 128.05 113.718 125.976C115.656 124.258 115.861 123.903 114.142 121.965C110.855 118.648 109.096 114.322 107.691 110.201C103.329 97.2775 102.473 84.0142 103.296 70.3012C103.79 62.0734 105.198 53.9007 107.315 46.1374C108.189 43.8044 108.149 41.4164 109.378 39.2882C109.583 38.9335 109.638 38.0194 110.347 38.429C110.702 38.6338 110.852 39.1932 111.002 39.7527C111.151 40.3122 110.947 40.667 111.097 41.2265C109.879 52.3467 110.489 63.5768 111.305 74.4521C111.835 80.9064 111.656 86.951 112.745 93.2554C113.93 101.033 115.115 108.812 117.214 116.645C117.514 117.764 117.609 119.237 118.263 120.561C118.713 122.239 119.273 122.089 120.242 121.23C122.33 120.071 122.944 119.007 121.58 117.274C116.384 109.071 115.459 100.024 116.007 90.8823C116.501 82.6545 117.554 74.2768 118.608 65.8991C119.661 57.5214 119.8 49.0888 119.584 40.4514C119.339 38.4182 119.654 36.2352 119.613 33.8473C119.463 33.2878 119.668 32.933 120.228 32.7831C120.787 32.6332 120.937 33.1927 121.292 33.3975C122.246 35.8402 122.846 38.0784 123.241 40.6711C125.026 50.6871 126.046 61.2077 125.797 71.4687C125.618 77.5134 125.438 83.558 125.054 89.9574C124.561 98.1852 124.272 106.058 124.337 114.136C124.487 114.696 124.283 115.05 124.433 115.61C124.528 117.084 124.882 117.288 126.206 116.634C128.909 114.411 131.611 112.187 134.668 110.169C135.992 109.514 135.133 108.545 134.628 107.781C132.759 105.283 131.805 102.841 131.055 100.043C130.456 97.8052 129.651 95.9219 129.611 93.534C128.426 85.7559 128.36 77.6781 129.209 69.6551C129.838 65.2889 129.907 61.0726 130.182 56.5016C130.716 50.6617 131.454 44.4671 132.343 38.832C133.232 33.1969 134.12 27.5618 135.214 21.572C135.418 21.2173 135.269 20.6577 135.828 20.5078C136.537 20.9174 136.837 22.0364 136.987 22.5959C138.187 27.0719 138.827 31.6978 138.907 36.4736C139.123 45.111 139.134 54.103 138.435 62.6855C137.462 75.839 137.813 88.3379 138.874 101.246C138.969 102.72 138.859 104.549 139.309 106.227C141.752 105.273 143.485 103.909 145.218 102.545C149.04 100.022 149.04 100.022 147.076 96.0505C145.767 93.403 144.813 90.9602 144.622 88.0128C144.527 86.5391 144.432 85.0654 143.778 83.7417C142.278 78.1467 142.608 72.6614 142.582 66.9715C143.036 56.3558 144.049 45.5903 145.416 35.0295C145.991 31.5775 146.565 28.1254 147.139 24.6734C147.728 17.9193 148.671 11.37 149.969 5.02552C150.024 4.11132 149.874 3.55182 150.993 3.25201C151.908 3.3069 151.853 4.22106 152.002 4.78056C152.832 12.3538 154.222 19.7773 154.493 27.5005C154.763 35.2236 153.915 43.2466 153.066 51.2696C151.699 61.8304 150.686 72.596 150.792 83.0618C150.872 87.8376 151.512 92.4635 151.947 97.444C152.656 97.8536 153.421 97.3489 153.626 96.9942C156.478 95.3305 158.975 93.462 161.828 91.7983C162.797 90.939 163.002 90.5842 162.347 89.2604C158.16 82.5866 157.33 75.0134 156.855 67.6449C156.379 60.2764 156.613 53.3175 158.321 46.2636C159.769 40.4786 161.572 34.8984 163.935 29.1683C167.021 20.5457 170.462 12.1279 172.485 2.89088C172.54 1.97668 173.154 0.912511 174.123 0.0532031C175.187 0.667591 174.777 1.377 174.723 2.2912C174.379 11.0785 173.326 19.4561 171.713 27.9837C169.431 38.4896 167.149 48.9956 165.576 59.9111C164.318 68.6435 164.179 77.076 165.309 85.7683C165.499 88.7157 165.854 88.9204 168.147 87.4066C170.44 85.8928 170.645 85.5382 169.486 83.4501C167.372 78.9193 167.087 74.4981 167.211 69.3676C167.46 59.1066 169.892 49.1603 173.592 39.4736C175.955 33.7435 178.672 28.2181 182.453 23.3072C185.675 18.5461 189.456 13.6351 193.033 9.07889C193.237 8.72419 193.237 8.72425 193.442 8.36955C193.852 7.66015 194.466 6.59602 195.53 7.2104C196.594 7.82479 195.625 8.68412 195.216 9.39353C193.113 13.8547 191.365 18.5206 188.907 22.7771C187.884 24.5506 187.214 26.529 186.395 27.9478C181.93 38.1392 177.82 48.5353 176.247 59.4508C175.359 65.0859 174.824 70.9257 174.291 76.7656C174.181 78.594 173.716 80.2176 173.607 82.046C173.552 82.9602 173.702 83.5197 174.821 83.2198C177.468 81.9108 179.761 80.397 182.054 78.8832C182.818 78.3786 183.228 77.6692 182.723 76.9049C182.574 76.3455 182.274 75.2265 181.919 75.0217C179.6 70.8455 179.315 66.4244 179.944 62.0582C180.997 53.6805 182.965 45.3578 186.556 37.4994C191.431 26.5987 198.229 17.2813 206.446 8.78325C207.21 8.27864 207.825 7.21459 208.944 6.91478C209.448 7.67907 209.039 8.38835 208.834 8.74305C207.605 10.8713 206.022 12.7948 204.793 14.923C201.162 20.3934 198.035 26.6281 195.823 32.9177C193.665 38.2931 191.862 43.8733 190.414 49.6583C189.375 54.7339 188.132 60.1643 187.093 65.2399C186.574 67.7777 186.26 69.9608 185.74 72.4986C185.481 73.7675 185.576 75.2411 186.025 76.9196C187.909 76.1152 189.437 75.106 190.761 74.4515C191.525 73.9469 191.935 73.2375 191.635 72.1185C189.427 66.1139 190.725 59.7694 192.732 53.8345C193.402 51.8562 194.071 49.8779 194.74 47.8996C197.212 40.3411 200.748 33.397 204.844 26.303C209.499 19.0591 215.164 13.3436 221.388 7.47833L221.593 7.1236C221.797 6.7689 222.357 6.619 222.507 7.1785C222.862 7.38329 222.657 7.73811 222.452 8.09281C221.633 9.51162 220.664 10.3709 219.845 11.7897C215.859 17.0553 212.732 23.29 209.81 29.1701C206.888 35.0501 204.321 41.1349 202.109 47.4245C200.565 51.7359 199.377 56.2519 198.543 60.9728C197.969 64.4248 197.04 67.6721 195.757 70.7145C195.552 71.0692 195.347 71.4238 195.702 71.6286C198.854 71.0839 199.618 70.5793 199.428 67.6319C199.402 61.9419 201.56 56.5665 204.072 51.3959C208.278 42.4734 214.052 34.9297 220.536 27.7956C224.262 23.7988 228.343 20.0068 232.779 16.4197C235.686 13.8417 238.948 11.4686 242.415 8.74075C242.62 8.38605 243.179 8.23623 243.534 8.44103C243.834 9.56002 242.715 9.85986 242.305 10.5693C238.988 13.8566 235.822 17.7034 232.859 21.1955C229.693 25.0423 227.03 29.6534 223.863 33.5002C217.475 42.1081 212 50.7709 207.031 60.1979C205.802 62.3261 204.928 64.6591 203.849 67.3468C206.647 66.5973 208.735 65.4381 210.823 64.279C211.587 63.7744 211.847 62.5056 212.106 61.2367C212.735 56.8705 213.924 52.3543 216.531 48.6573C217.35 47.2385 218.32 46.3793 219.139 44.9605C223.684 39.5449 227.67 34.2793 232.72 29.628C237.211 25.1267 242.206 21.3897 247.556 17.8574C252.906 14.3252 258.761 11.5571 264.316 7.67018C264.521 7.31548 264.875 7.52031 265.435 7.3704C265.94 8.13469 265.53 8.84404 264.766 9.34865C262.773 11.9815 260.275 13.8501 257.927 16.2781C251.499 22.4981 244.36 28.3084 237.932 34.5284C233.441 39.0297 229.305 43.7358 225.524 48.6467C222.916 52.3437 220.459 56.6002 217.497 60.0923C217.292 60.447 217.087 60.8017 217.237 61.3611C219.475 60.7615 221.768 59.2478 224.211 58.2934C224.77 58.1435 225.18 57.4341 225.03 56.8747C229.085 47.3927 235.719 40.818 244.331 34.9126C251.619 29.6617 260.066 26.4989 268.868 23.5409C271.871 22.4366 275.228 21.5372 278.23 20.433C279.554 19.7784 280.673 19.4786 281.792 19.1788C282.297 19.9431 281.737 20.0931 281.532 20.4478C279.799 21.8117 278.27 22.8208 276.537 24.1847C269.508 28.1667 261.92 32.2987 254.892 36.2807C252.804 37.4398 251.07 38.8037 249.337 40.1676C244.901 43.7548 240.316 46.7824 236.03 50.929C234.856 52.1431 233.327 53.1523 232.153 54.3663C232.863 54.7759 233.627 54.2713 233.832 53.9166C234.392 53.7667 234.951 53.6167 235.156 53.262C244.067 48.4756 253.934 46.1321 263.445 43.5837C271.278 41.485 279.111 39.3862 287.094 37.847C295.637 36.1579 304.124 35.383 313.062 36.2865C314.89 36.3963 316.923 36.1514 318.752 36.2612C319.311 36.1113 319.666 36.3161 319.816 36.8756C319.966 37.4351 319.406 37.585 319.202 37.9397C310.454 39.9835 302.812 45.0296 293.914 46.5139C287.965 47.8082 281.66 48.8976 275.71 50.1919C269.965 51.1315 264.016 52.4257 258.421 53.9248C251.911 55.3689 245.457 55.8991 238.948 57.3432C234.117 58.3377 229.641 59.5369 225.26 62.2099C226.734 62.1148 228.412 61.6651 229.886 61.5701C238.483 58.9668 246.916 59.106 255.554 58.8906C263.072 58.975 270.591 59.0595 278.259 59.7034C286.992 60.9617 296.079 62.4248 304.347 65.3066C305.057 65.7162 306.53 65.6211 306.271 66.89C306.011 68.1589 304.947 67.5447 304.033 67.4898C301.29 67.3251 298.752 66.8057 296.364 66.8458C288.696 66.2019 281.532 66.3224 273.809 66.5927C262.579 67.2029 251.908 67.6632 240.732 67.3592C234.688 67.1798 228.698 66.0863 222.912 64.6379C221.289 64.1735 219.815 64.2685 218.286 65.2777C217.193 71.2675 215.31 72.0719 213.427 72.8763ZM157.439 119.06L157.644 118.705C156.785 117.736 155.776 116.207 154.916 115.238C151.329 110.802 151.274 111.716 148.012 114.09C147.807 114.444 147.453 114.239 147.248 114.594C146.074 115.808 146.224 116.368 147.493 116.627C151.095 117.761 153.987 118.485 157.439 119.06Z" fill="#8EDAA7"/>
</svg>
