<svg width="351" height="249" viewBox="0 0 351 249" fill="none" xmlns="http://www.w3.org/2000/svg">
    <path d="M106.46 28.6912C106.748 26.9016 106.916 25.2782 106.964 23.8208C107.18 22.4787 106.891 22.5296 105.638 22.1705C101.519 21.5915 97.5922 20.399 93.9062 18.8744C93.1112 18.5796 92.5569 17.9527 91.9305 17.7731C91.0872 17.1971 90.6778 17.4141 90.365 18.1936C89.5707 19.6375 88.7765 21.0814 88.4882 22.8709C88.1762 25.3891 87.5751 27.9581 85.8416 30.002C85.1194 30.9985 85.1677 31.2798 86.228 32.2523C87.2882 33.2249 88.3485 34.1974 89.3604 34.8887C89.6978 35.1191 90.1554 35.1834 90.1316 35.9121C88.879 35.553 87.5059 35.36 86.3736 34.8348C84.4463 34.0149 83.7962 34.564 83.2188 36.4044C82.8102 38.36 82.811 40.0987 82.6913 42.0034C82.7887 44.3046 82.7656 46.7719 81.2008 48.931C80.7193 49.5953 81.105 50.107 81.7313 50.2866C83.3214 50.8761 84.6223 51.5164 86.4531 51.7738C88.4525 52.1463 90.4519 52.5189 92.3792 53.3388C91.8011 53.4406 91.2231 53.5423 90.7654 53.478C87.9473 53.5394 85.1772 53.882 82.3108 53.6621C81.1064 53.5843 80.9861 53.7504 80.7699 55.0925C80.8672 57.3938 81.5426 59.5932 82.507 61.7418C83.3027 63.7752 84.5079 65.5916 85.5926 67.5741C87.9308 71.6544 89.4019 75.8872 90.3433 80.5031C91.2601 84.109 92.2973 87.5489 93.9126 90.8871C94.5635 92.0766 95.3346 93.1 96.3949 94.0725C97.4551 95.0451 98.5154 96.0176 99.407 96.8749C100.13 97.6171 100.925 97.9119 101.792 97.7592C104.731 97.5318 107.886 97.7008 110.752 97.9208C112.415 98.0629 113.788 98.2559 115.498 98.6794C114.728 99.3946 113.981 99.3811 113.114 99.5337C109.645 100.144 106.394 101.151 103.311 102.273C101.915 102.809 101.794 102.975 102.325 104.331C103.916 108.397 105.748 112.132 108.448 115.714C110.038 118.042 111.34 120.421 112.69 123.082C114.594 126.369 116.739 129.324 119.414 131.896C120.691 133.265 122.161 134.021 123.799 134.891C124.932 135.417 125.799 135.264 127.027 134.613C130.832 132.494 134.926 130.325 139.213 129.28C139.502 129.229 139.622 129.063 139.791 129.179C139.887 129.741 139.598 129.792 139.309 129.843C136.131 132.141 133.073 134.273 130.28 137.083C130.039 137.415 129.75 137.466 129.509 137.799C128.907 138.629 128.884 139.358 129.847 139.768C131.148 140.408 132.401 140.767 133.702 141.407C138.303 143.061 142.423 145.378 146.23 148.476C148.303 150.139 150.375 151.803 152.688 153.135C156.181 155.273 159.988 156.631 164.227 157.044C168.467 157.457 172.899 157.257 177.162 156.941C179.523 156.815 181.811 157.137 184.051 157.178C187.544 157.577 190.965 158.424 194.337 158.989C197.999 159.504 201.66 160.019 205.2 158.961C207.464 158.273 209.728 157.584 211.558 156.103L211.679 155.937C213.075 153.663 215.194 153.869 217.483 154.191C221.433 154.655 225.625 154.786 229.599 154.521C235.934 154.131 242.052 153.344 248.242 152.109C253.733 151.143 259.176 149.895 264.691 148.2C268.232 147.142 271.893 145.918 275.553 144.694C276.252 144.426 276.95 144.158 277.432 143.494C277.913 142.83 278.106 142.216 277.672 141.423C277.238 140.63 276.732 140.284 275.816 140.156C274.901 140.027 274.203 140.295 273.384 140.729C271 141.583 268.615 142.438 266.351 143.126C263.148 144.414 259.8 144.859 256.549 145.866C250.576 147.496 244.506 148.565 238.557 149.467C232.319 150.42 226.105 150.645 219.794 150.307C218.589 150.229 217.554 150.266 216.349 150.188C215.145 150.111 215.097 149.829 215.361 148.768C215.674 147.989 216.107 147.043 216.131 146.315C216.755 141.278 215.982 136.778 212.608 132.735C210.728 130.457 208.656 128.794 206.536 126.849C204.921 125.249 203.138 123.534 202.463 121.335C201.884 119.698 201.305 118.061 200.895 116.539C199.423 110.568 195.832 106.129 191.423 102.123C189.856 100.805 188.049 99.819 186.604 98.3348C185.375 97.247 184.314 96.2745 183.085 95.1867C181.688 93.9838 181.11 94.0855 180.364 95.8106C178.078 100.705 175.96 105.714 173.385 110.659C173.24 109.816 173.312 109.368 173.384 108.921C174.755 103.898 176.126 98.875 177.497 93.8521C177.954 92.1778 177.785 92.0626 176.026 91.3578C172.846 90.1788 169.594 89.4472 166.727 87.4886C165.715 86.7974 165.306 87.0143 164.752 88.126C164.199 89.2378 163.814 90.4647 163.549 91.5255C162.635 94.8741 161.673 97.9414 160.639 101.456C160.205 100.663 160.397 100.05 160.421 99.321C160.925 94.4507 161.477 89.8617 161.692 85.0423C161.667 84.0323 161.354 83.0733 160.92 82.2803C159.281 79.6708 156.751 77.9427 154.149 76.6619C152.848 76.0215 151.667 75.215 150.607 74.2425C148.703 72.6939 148.221 69.881 149.665 67.888C152.144 64.1189 151.805 60.4112 149.636 56.4461C146.599 50.8951 142.02 46.7746 137.153 42.7048C134.526 40.4141 131.659 38.4555 129.442 35.9478C127.948 34.1823 126.863 32.1997 125.658 30.3833C123.031 26.3539 119.08 24.1515 114.142 24.0064C112.769 23.8134 111.444 23.9016 110.071 23.7086C108.698 23.5156 108.409 23.5665 108.192 24.9086C107.808 26.1355 107.591 27.4777 107.038 28.5894C107.11 28.142 106.869 28.4742 106.46 28.6912Z" fill="#65BD83"/>
    <path d="M245.575 47.6914C245.156 47.0818 244.673 46.2475 244.479 45.5733C243.642 44.3542 242.965 42.8456 242.128 41.6264C240.743 39.3482 240.257 36.8116 240.221 34.1457C240.123 32.9574 240.249 31.7045 240.44 30.6764C240.628 27.9459 242.263 26.0162 244.831 24.7915C248.746 23.1792 252.438 21.6313 256.353 20.019C259.82 18.5359 263.126 17.3421 266.915 16.9826C268.328 16.8197 269.806 16.8816 271.059 17.008C272.311 17.1345 273.629 17.4857 274.241 18.7695C274.595 19.1544 274.885 19.3144 275.174 19.4745C277.07 20.146 277.972 21.5899 278.713 23.3231C280.036 27.0789 280.331 30.6437 280.017 34.627C279.766 38.8351 279.292 43.1078 278.817 47.3805C278.5 49.6614 278.182 51.9424 278.379 54.3189C278.348 55.0577 277.963 55.4117 277.384 55.0914C276.581 54.8358 275.713 54.3554 275.07 53.8105C274.491 53.4902 273.912 53.1699 272.949 53.2036C273.367 53.8132 273.946 54.1334 274.3 54.5182C275.522 55.3835 276.808 56.4735 277.646 57.6926C278.129 58.527 278.323 59.2012 278.131 60.2294C277.143 64.4065 275.35 68.3279 273.558 72.2494C271.766 76.1709 269.62 79.7075 267.538 83.4689C266.353 85.2695 264.878 86.91 263.693 88.7106C262.283 90.5758 260.873 92.441 260.106 94.8512C259.69 95.9439 259.274 97.0367 259.083 98.0648C258.892 99.093 258.187 100.026 257.771 101.118C257.516 101.922 256.777 101.891 255.974 101.635C253.853 101.028 252.052 99.8428 250.091 98.9466C249.802 98.7865 249.223 98.4662 248.709 98.3707C249.482 99.3651 250.414 100.07 251.572 100.711C252.729 101.351 253.886 101.992 254.884 102.922C255.816 103.627 255.945 104.076 255.016 105.073C254.246 105.781 253.476 106.489 252.707 107.197C251.007 108.902 249.662 110.992 248.541 113.017C244.664 118.998 240.015 123.984 234.144 128.105C232.925 128.942 232.476 129.071 231.189 127.981C230.546 127.436 229.838 126.666 229.195 126.122C228.262 125.416 227.394 124.936 226.077 124.585C223.731 124.043 221.256 123.051 219.006 121.995C218.428 121.674 217.849 121.354 217.175 121.548C217.209 122.512 218.077 122.992 218.271 123.666C218.658 125.014 219.11 126.588 219.049 128.065C219.211 129.478 219.374 130.891 219.762 132.239C220.15 133.588 220.15 133.588 218.866 134.2C215.175 135.748 211.838 137.681 209.048 140.672C207.574 142.313 205.97 143.504 204.141 144.759C203.147 145.532 202.088 146.08 200.964 146.403C198.557 147.338 195.86 148.113 193.194 148.15C189.275 148.06 185.292 147.745 181.438 147.88C179.287 148.012 176.975 148.433 174.888 148.79C172.576 149.211 170.264 149.632 167.952 150.054C164.741 150.733 161.753 149.646 159.629 147.337C158.632 146.407 157.893 146.376 156.769 146.699C153.174 147.733 149.578 148.767 145.918 149.575C139.721 150.87 133.62 151.651 127.165 152.047C123.086 152.246 118.718 152.286 114.575 152.26C108.215 152.142 101.791 151.799 95.6223 150.653C92.3133 150.144 88.9396 149.411 85.3412 148.742C84.3131 148.551 83.2851 148.36 82.4171 147.88C82.1924 147.944 82.1278 147.72 81.903 147.784C80.7457 147.144 79.9733 146.149 80.3244 144.832C80.5154 143.804 81.5098 143.031 82.9874 143.093C84.2402 143.22 85.493 143.346 86.8104 143.697C92.2403 144.813 97.6055 145.703 102.906 146.369C105.926 146.717 109.17 147.001 112.35 147.06C115.755 147.055 119.224 147.274 122.564 147.044C127.895 146.971 133.322 146.384 138.525 145.862C143.727 145.339 148.96 144.078 154.194 142.817C155.542 142.429 155.542 142.429 155.604 140.952C155.632 138.511 156.109 135.94 157.455 133.85C159.281 130.892 160.079 127.743 160.876 124.594C161.674 121.445 163.051 118.617 164.941 115.883C166.127 114.083 167.537 112.218 169.076 110.802C169.686 110.383 169.716 109.644 170.326 109.226C170.646 108.647 171.16 108.743 171.29 109.192C171.582 111.055 173.093 112.08 174.379 113.17C176.792 115.639 179.205 118.109 181.618 120.578C180.812 118.62 179.846 116.951 178.59 115.123C177.399 113.518 176.368 111.625 175.402 109.956C174.79 108.673 174.467 107.549 174.304 106.136C174.27 105.172 174.526 104.369 175.006 103.501C177.281 100.414 179.781 97.2621 182.7 94.7199C184.079 93.5935 185.812 92.852 187.256 91.9503C188.315 91.4026 189.15 90.9194 189.855 89.9868C190.015 89.6975 190.175 89.4081 190.4 89.3435C190.784 88.9896 191.074 89.1497 191.203 89.5992C191.11 91.8156 192.43 93.8691 193.012 95.8916C193.916 99.0379 196.04 101.347 197.939 103.721C198.065 102.468 197.453 101.184 197.065 99.8357C196.324 98.1025 196.096 96.4648 195.869 94.8271C195.478 91.7764 195.377 88.8857 194.313 86.0288C193.925 84.6804 194.341 83.5877 195.27 82.5905C196.425 81.5287 197.29 80.3067 198.445 79.2449C200.978 77.0567 202.355 74.2279 203.667 71.1744C204.403 69.503 205.203 68.0564 205.65 66.2249C206.417 63.8147 208.116 62.1096 210.105 60.5646C212.254 58.7303 214.243 57.1854 216.327 55.1264C218.411 53.0673 220.206 50.8481 221.648 48.2441C223.794 44.7075 225.715 41.2356 228.215 38.0838C229.785 35.9292 231.549 34.4489 233.763 32.8393C233.923 32.55 234.373 32.4207 234.597 32.3561C235.432 31.873 235.785 32.2578 235.819 33.2213C235.631 35.9518 236.437 37.9098 238.271 40.0589C239.752 41.823 241.392 43.2979 243.033 44.7727C243.516 45.607 244.353 46.8262 245.575 47.6914Z" fill="#65BD83"/>
    <path d="M288.461 94.2736C290.114 95.1283 291.908 94.9608 293.762 95.1142C300.799 95.4664 308.025 95.9492 314.92 97.3237C318.878 98.0819 322.896 99.161 326.522 100.811C328.496 101.606 330.398 102.912 332.301 104.218C332.491 104.349 332.491 104.349 332.681 104.48C332.872 104.61 333.062 104.741 332.931 104.931C332.801 105.121 332.48 105.181 332.29 105.05L332.099 104.92C329.745 103.863 327.249 103.829 324.824 103.284C322.078 102.798 319.463 102.123 316.658 101.316C312.319 100.297 307.909 99.7883 303.499 99.2799C300.302 99.0442 297.235 98.6182 294.038 98.3825C291.673 98.1581 289.188 97.292 287.285 95.9858C286.334 95.3327 285.633 95.131 284.409 95.6904C283.506 96.1901 282.282 96.7496 281.189 97.1187C281.819 97.8314 282.461 97.7121 282.972 97.7831C288.915 98.5045 294.918 99.5467 300.671 100.137C306.935 100.799 312.867 102.352 318.265 105.499C321.059 107.137 323.723 108.966 326.065 110.854C326.256 110.985 326.446 111.115 326.505 111.436C326.565 111.757 326.625 112.078 326.114 112.007C325.793 112.067 325.282 111.996 324.901 111.734C323.629 111.141 322.226 110.738 320.954 110.144C315.414 108.02 309.863 106.728 304.05 105.816C299.961 105.249 295.801 105.192 291.783 104.113C287.635 103.224 283.557 101.824 280.204 98.9615C279.062 98.1777 278.23 98.1664 277.197 98.8563C276.294 99.3561 275.331 99.535 274.488 100.356C274.928 100.938 275.76 100.949 276.461 101.151C280.158 102.289 283.915 103.749 287.612 104.888C290.227 105.564 293.033 106.37 295.719 106.535C298.084 106.759 300.509 107.304 302.934 107.85C305.55 108.525 308.295 109.011 310.97 110.008C313.835 111.135 316.51 112.132 318.984 113.83C319.364 114.091 320.256 114.423 319.864 114.994C319.662 115.695 318.901 115.173 318.39 115.102C315.585 114.295 312.779 113.489 309.843 112.873C306.907 112.256 303.65 111.7 300.643 111.595C298.147 111.561 295.532 110.885 292.976 110.53C288.697 109.831 284.548 108.942 280.411 107.222C279.139 106.628 277.736 106.225 276.595 105.441C275.132 104.717 274.252 103.553 273.372 102.389C272.361 101.415 272.491 101.224 271.137 101.974C270.555 102.414 269.592 102.593 269.07 103.354C270.211 104.138 271.424 104.41 272.315 104.743C275.121 105.549 277.725 107.057 280.139 108.434C284.966 111.189 290.185 113.372 295.677 114.343C299.314 115.161 302.892 115.658 306.6 115.965C308.966 116.189 311.2 116.604 313.566 116.828C313.756 116.959 314.077 116.899 314.267 117.03C314.457 117.161 314.838 117.422 314.707 117.612C314.577 117.802 314.446 117.993 314.125 118.052C313.483 118.171 312.842 118.291 312.331 118.22C309.514 118.245 306.887 118.401 304.07 118.427C297.605 118.466 291.27 118.316 285.088 116.311C281.771 115.433 278.656 113.855 275.672 112.086C272.367 110.376 270.035 107.656 268.025 104.876C267.145 103.712 267.145 103.712 265.79 104.461C264.305 105.401 262.76 106.02 261.275 106.96C260.954 107.02 260.503 107.27 260.563 107.59C260.622 107.911 261.003 108.172 261.193 108.303C264.308 109.882 267.423 111.461 270.538 113.04C273.272 114.357 276.007 115.675 278.872 116.802C281.928 118.06 284.994 118.486 288.121 119.233C290.355 119.648 292.59 120.062 294.825 120.477C299.294 121.306 303.764 122.135 307.83 124.367C308.211 124.628 309.233 124.77 308.841 125.341C308.639 126.042 307.878 125.52 307.367 125.449C303.92 124.762 300.532 124.395 297.014 124.219C292.795 123.841 288.765 123.594 284.546 123.217C278.091 122.424 271.779 120.61 266.202 116.501C263.919 114.933 261.897 112.985 260.137 110.657C258.376 108.329 258.376 108.329 255.857 109.958C255.275 110.399 254.503 110.708 253.921 111.148C253.208 111.779 253.268 112.099 254.029 112.622C255.681 113.477 257.013 114.391 258.666 115.246C259.748 115.709 260.509 116.231 261.46 116.884C265.646 119.758 270.033 121.93 274.812 123.532C277.296 124.398 279.852 124.753 282.467 125.429C285.974 126.437 289.802 127.385 293.309 128.393C295.282 129.188 297.125 130.174 298.837 131.349C299.028 131.48 299.218 131.611 299.277 131.931C299.337 132.252 299.397 132.573 298.886 132.502C298.565 132.562 298.374 132.431 298.184 132.301C293.857 130.449 289.186 130.321 284.716 129.492C283.373 129.41 282.161 129.137 280.497 129.114C284.29 132.559 287.823 136.384 290.001 140.958C288.979 140.816 288.348 140.103 287.718 139.391C285.256 136.861 282.271 135.091 279.548 132.942C277.586 131.315 275.232 130.259 272.878 129.202C268.301 126.899 263.652 125.107 258.873 123.506C255.687 122.438 252.632 121.18 250.099 119.161C249.148 118.508 248.517 117.795 247.566 117.142C246.555 116.168 245.593 116.347 244.749 117.168C243.585 118.048 242.361 118.607 241.518 119.428C241.578 119.749 241.578 119.749 241.768 119.879C244.454 120.044 246.939 120.91 249.554 121.586C253.251 122.725 256.888 123.543 260.384 125.383C264.2 127.163 268.147 128.753 271.441 131.295C275.306 134.228 278.589 137.602 281.158 141.605C281.349 141.736 281.408 142.057 281.408 142.057C281.598 142.187 281.468 142.378 281.337 142.568C281.207 142.758 281.016 142.627 280.696 142.687C280.315 142.426 279.744 142.034 279.364 141.773C277.342 139.825 274.928 138.448 272.645 136.88C268.781 133.947 264.714 131.715 260.197 129.733C256.44 128.273 252.873 126.944 248.986 125.675C246.181 124.869 243.636 123.682 241.353 122.114C240.973 121.853 240.592 121.592 240.212 121.33C239.451 120.808 238.619 120.797 237.906 121.427C237.063 122.248 236.029 122.937 235.126 123.437C234.805 123.497 234.354 123.747 234.414 124.068C234.343 124.579 234.984 124.459 235.365 124.721C236.066 124.922 236.767 125.124 237.469 125.326C242.058 126.796 246.837 128.398 251.093 130.761C252.746 131.615 254.077 132.53 255.73 133.384C258.524 135.023 261.639 136.602 264.433 138.24C266.466 139.356 268.5 140.472 270.402 141.778C272.114 142.954 273.767 143.809 275.61 144.794C277.072 145.518 278.535 146.242 279.997 146.966C280.187 147.097 280.568 147.358 280.758 147.489C281.008 147.94 280.877 148.13 280.556 148.19C280.236 148.25 279.725 148.179 279.344 147.917C272.841 145.972 266.41 143.516 260.109 140.869C258.326 140.205 256.863 139.481 255.08 138.816C250.752 136.965 246.556 134.923 242.359 132.882C239.624 131.564 237.341 129.997 235.45 127.858C234.82 127.146 234.059 126.623 233.298 126.101C232.727 125.709 232.406 125.768 231.954 126.018C230.66 127.089 229.044 128.219 227.619 129.48C228.38 130.002 229.021 129.883 229.723 130.084C232.659 130.701 235.393 132.018 238.187 133.657C242.694 136.471 247.07 139.475 251.837 141.909C255.713 144.01 259.779 146.242 263.656 148.343C266.771 149.922 269.755 151.691 272.87 153.27C273.762 153.602 274.713 154.255 275.604 154.587C275.795 154.718 276.306 154.789 276.235 155.3C276.164 155.811 275.462 155.61 275.142 155.669C273.929 155.397 272.907 155.255 271.825 154.792C266.725 153.25 261.887 151.327 256.917 149.595C254.242 148.598 251.508 147.281 248.904 145.773C245.979 144.325 243.316 142.496 240.391 141.048C238.168 139.801 236.075 138.365 233.982 136.928C232.841 136.144 231.639 135.039 230.629 134.065C229.618 133.091 228.607 132.118 227.596 131.144C227.025 130.752 226.645 130.49 225.932 131.121C223.865 132.501 223.734 132.691 225.696 134.318C227.088 135.553 228.669 136.919 230.191 137.964C233.045 139.923 235.447 142.133 237.85 144.342C239.051 145.446 240.252 146.551 241.393 147.335C242.915 148.38 244.117 149.484 245.508 150.719C247.851 152.608 250.193 154.496 252.536 156.384C255.449 158.665 258.493 160.754 261.537 162.844C262.679 163.628 263.63 164.281 264.712 164.744C264.902 164.875 265.093 165.005 265.283 165.136C265.854 165.528 266.555 165.729 266.353 166.431C265.962 167.002 265.2 166.479 264.689 166.408C260.933 164.948 257.497 163.429 254.132 161.399C252.099 160.283 250.066 159.167 248.032 158.051C245.048 156.282 242.385 154.453 239.661 152.304C237.509 150.546 235.357 148.788 233.204 147.031C230.041 144.299 227.329 141.318 224.748 138.146C224.058 137.112 223.558 136.209 223.058 135.306C222.309 133.952 221.988 134.011 220.824 134.892C218.947 136.402 218.816 136.592 220.517 138.6C223.538 142.354 226.56 146.108 229.902 149.802C233.624 153.757 237.086 158.093 240.678 162.239C243.39 165.221 245.46 168.322 247.59 171.743C247.84 172.195 248.28 172.777 248.399 173.419C248.459 173.739 248.518 174.06 248.197 174.12C247.877 174.179 247.686 174.049 247.496 173.918C246.866 173.206 245.914 172.552 245.284 171.84C241.942 168.145 238.208 165.022 234.604 161.708C232.012 159.368 229.098 157.088 226.767 154.368C223.484 150.994 220.974 147.312 219.628 142.748C219.199 141.334 219.092 139.861 218.342 138.506C217.842 137.603 217.652 137.473 216.939 138.103C216.226 138.733 215.644 139.173 214.932 139.804C214.349 140.244 214.469 140.886 214.719 141.337C216.789 144.438 218.277 147.979 219.705 151.199C221.264 154.229 222.954 157.068 224.643 159.908C227.713 164.814 230.973 169.852 234.042 174.759C234.292 175.21 234.542 175.661 234.602 175.982C234.661 176.303 234.721 176.624 234.4 176.684C233.949 176.934 233.758 176.803 233.699 176.482C233.508 176.351 233.318 176.221 233.259 175.9C231.248 173.12 228.335 170.84 225.873 168.31C222.15 164.354 218.237 160.268 216 155.373C214.761 152.283 213.523 149.194 212.737 145.855C212.558 144.892 212.509 143.739 212.461 142.586C212.402 142.266 212.532 142.075 212.152 141.814C211.118 142.504 210.275 143.325 209.432 144.145C208.849 144.585 209.159 145.358 209.409 145.809C210.468 147.936 211.397 150.253 212.194 152.76C214.398 160.152 217.695 167.174 221.443 173.946C222.193 175.301 222.943 176.655 224.013 177.95C224.073 178.271 224.453 178.532 224.002 178.782C223.55 179.032 223.491 178.711 223.3 178.58C222.48 177.737 221.98 176.834 221.159 175.991C216.485 171.382 213.106 165.703 210.369 159.905C209 157.005 208.213 153.666 207.486 150.648C207.248 149.364 207.33 148.021 207.413 146.678C205.998 147.107 204.312 148.748 203.849 149.83C203.588 150.21 203.647 150.531 203.897 150.983C203.957 151.304 204.207 151.755 204.397 151.886C205.896 154.595 206.493 157.803 206.388 160.81C206.544 163.437 206.379 166.123 206.856 168.69C207.262 171.768 208.251 174.406 209.429 177.174C209.489 177.495 209.679 177.626 209.739 177.947C209.739 177.947 209.798 178.268 209.668 178.458C209.216 178.708 208.966 178.256 208.776 178.126C206.754 176.178 205.505 173.92 204.386 171.473C201.898 166.126 201.075 160.802 201.986 154.989C202.128 153.967 202.08 152.814 202.222 151.792C202.222 151.792 202.032 151.661 202.162 151.471C201.972 151.34 201.651 151.4 201.521 151.59C198.017 155.063 194.382 158.726 191.128 162.65C188.266 166.004 185.404 169.357 182.732 172.841C179.929 176.515 177.257 179.999 174.455 183.673C172.566 186.016 171.059 188.62 169.301 190.772C167.804 192.544 166.498 194.446 165.002 196.218C164.289 196.849 163.707 197.289 162.875 197.277C161.271 197.575 160.2 196.281 160.092 194.807C160.104 193.975 160.626 193.214 161.018 192.643C163.108 189.599 165.519 186.496 167.799 183.582C168.321 182.822 168.844 182.061 169.497 181.109C172.762 176.353 176.218 171.728 179.923 167.554C183.368 163.76 186.752 159.646 190.197 155.852C193.118 152.82 196.04 149.787 199.093 146.564C200.197 145.363 200.197 145.363 199.257 143.878C198.127 142.263 196.736 141.027 195.475 139.602C192.584 135.658 191.238 131.095 190.665 126.222C190.497 124.427 190.33 122.633 190.804 120.719C190.875 120.208 190.755 119.566 191.397 119.447C192.039 119.328 191.707 120.219 191.957 120.671C192.243 123.107 192.851 125.484 193.78 127.801C194.768 130.439 196.077 133.017 197.386 135.595C198.635 137.853 199.944 140.431 200.873 142.748C200.933 143.069 201.052 143.711 201.694 143.591C202.335 143.472 202.989 142.521 202.739 142.07C202.679 141.749 202.429 141.297 202.179 140.846C199.669 137.163 198.383 132.921 197.096 128.678C195.441 123.343 195.96 118.101 197.502 113.001C197.633 112.811 197.633 112.811 197.953 112.751C198.334 113.013 198.394 113.334 198.263 113.524C198.717 117.755 199.814 121.866 200.589 126.038C201.233 130.399 202.52 134.641 203.806 138.884C204.485 140.749 204.485 140.749 206.041 139.298C206.302 138.918 206.623 138.858 206.884 138.478C208.179 137.407 208.179 137.407 207.299 136.243C204.789 132.56 203.372 128.508 202.596 124.337C202.06 121.449 201.713 118.692 201.497 115.744C201.341 113.118 201.565 110.753 201.73 108.066C201.741 107.234 201.883 106.212 202.406 105.451C202.977 105.843 202.846 106.033 202.965 106.675C203.349 111.417 204.374 116.04 205.72 120.603C206.935 125.356 208.281 129.919 209.116 134.412C209.366 134.863 209.164 135.564 209.676 135.635C210.377 135.837 210.448 135.326 210.899 135.076C211.481 134.636 212.064 134.196 212.776 133.565C213.358 133.125 213.429 132.614 212.989 132.032C209.028 126.793 208.025 120.506 207.213 114.35C206.699 109.799 206.887 105.448 207.585 101.169C207.858 99.9569 208.13 98.7444 208.593 97.6626C208.724 97.4723 208.854 97.282 209.175 97.2224C209.686 97.2934 209.425 97.6739 209.485 97.9947C209.201 100.039 208.976 102.404 209.204 104.52C209.468 108.62 210.374 112.601 211.28 116.582C211.947 119.28 212.745 121.787 213.412 124.485C213.901 126.22 214.199 127.824 214.236 129.809C214.165 130.32 214.415 130.771 214.534 131.413C214.653 132.055 214.974 131.995 215.426 131.745C216.138 131.115 217.041 130.615 217.754 129.985C218.205 129.735 218.276 129.224 218.027 128.772C217.777 128.321 217.848 127.81 217.598 127.358C215.408 123.616 214.764 119.254 214.44 114.833C214.139 108.748 214.349 102.734 215.07 96.7909C215.365 93.9144 216.172 91.1091 217.489 88.3746C217.881 87.8039 218.023 86.7817 218.724 86.9833C219.426 87.1849 218.773 88.1361 218.702 88.6472C217.208 94.8998 217.7 101.116 218.06 107.521C218.492 113.416 219.114 119.442 219.546 125.337C219.534 126.169 219.523 127.001 219.512 127.832C221.056 127.214 222.161 126.012 223.456 124.942C223.586 124.752 223.847 124.371 223.657 124.241C223.598 123.92 223.407 123.789 223.348 123.468C221.908 121.08 221.692 118.133 221.346 115.376C220.746 107.686 221.169 100.139 221.913 92.5318C222.078 89.8456 222.302 87.4803 222.978 84.8651C223.583 82.7611 224.188 80.657 225.173 78.8141C225.304 78.6239 225.374 78.1128 225.886 78.1838C226.266 78.445 226.005 78.8255 225.934 79.3367C224.915 83.6754 224.917 88.1561 224.92 92.6369C225.006 95.7745 225.091 98.9122 224.986 101.919C224.94 105.247 225.347 108.325 225.432 111.463C225.327 114.47 225.543 117.417 225.438 120.424C225.426 121.256 225.284 122.279 225.083 122.98C225.463 123.241 225.724 122.861 226.045 122.801C227.53 121.861 228.825 120.791 230.12 119.72C231.284 118.84 231.415 118.65 230.535 117.486C228.834 115.478 228.036 112.971 227.428 110.594C225.545 103.143 225.647 95.6553 226.712 87.9886C227.351 83.3886 228.501 78.8597 230.031 74.5919C230.625 73.3198 230.707 71.9767 231.491 70.8352C231.621 70.645 231.692 70.1339 232.073 70.3952C232.263 70.5258 232.323 70.8466 232.382 71.1675C232.442 71.4884 232.311 71.6787 232.371 71.9995C231.198 78.1925 231.048 84.5274 231.028 90.6721C231.042 94.3208 230.676 97.7083 231.011 101.297C231.335 105.719 231.659 110.14 232.494 114.632C232.613 115.274 232.602 116.106 232.911 116.878C233.09 117.841 233.411 117.781 233.993 117.341C235.217 116.781 235.609 116.211 234.919 115.177C232.36 110.341 232.238 105.219 232.948 100.108C233.587 95.5078 234.546 90.8482 235.506 86.1885C236.466 81.5289 236.914 76.7983 237.173 71.937C237.124 70.7842 237.397 69.5718 237.479 68.2287C237.42 67.9078 237.55 67.7175 237.871 67.6579C238.192 67.5983 238.252 67.9191 238.442 68.0498C238.871 69.4638 239.109 70.7474 239.217 72.2211C239.78 77.9257 239.89 83.8801 239.3 89.6329C238.934 93.0205 238.567 96.408 238.07 99.9857C237.432 104.586 236.923 108.995 236.605 113.536C236.665 113.857 236.534 114.047 236.594 114.368C236.583 115.2 236.773 115.33 237.545 115.021C239.161 113.891 240.777 112.761 242.583 111.761C243.355 111.452 242.915 110.87 242.665 110.418C241.725 108.933 241.296 107.519 240.998 105.915C240.76 104.631 240.39 103.538 240.473 102.195C240.149 97.7738 240.467 93.2335 241.296 88.7641C241.841 86.3392 242.065 83.9738 242.42 81.4183C242.977 78.1614 243.664 74.7142 244.411 71.5879C245.157 68.4616 245.904 65.3354 246.782 62.0188C246.912 61.8286 246.853 61.5077 247.173 61.4481C247.554 61.7093 247.673 62.3511 247.733 62.6719C248.21 65.2389 248.366 67.8654 248.202 70.5516C247.943 75.4128 247.554 80.4643 246.785 85.2545C245.66 92.6003 245.308 99.6366 245.337 106.934C245.326 107.766 245.184 108.788 245.363 109.751C246.777 109.322 247.81 108.632 248.844 107.942C251.101 106.693 251.101 106.693 250.173 104.376C249.554 102.831 249.125 101.417 249.148 99.7531C249.159 98.9212 249.17 98.0892 248.861 97.3169C248.264 94.1082 248.69 91.0415 248.926 87.8442C249.647 81.9011 250.689 75.8985 251.921 70.0264C252.395 68.1126 252.87 66.1987 253.344 64.2849C253.971 60.5169 254.789 56.8795 255.797 53.3727C255.868 52.8616 255.808 52.5407 256.45 52.4215C256.961 52.4925 256.89 53.0036 256.95 53.3244C257.083 57.6149 257.538 61.8459 257.35 66.196C257.163 70.5461 256.334 75.0155 255.505 79.4849C254.273 85.3569 253.231 91.3597 252.83 97.2431C252.666 99.9293 252.822 102.556 252.848 105.373C253.228 105.634 253.68 105.384 253.81 105.194C255.485 104.384 256.97 103.445 258.646 102.635C259.228 102.195 259.359 102.005 259.049 101.233C256.99 97.2999 256.857 93.0094 256.913 88.8496C256.97 84.6897 257.407 80.791 258.677 76.9038C259.744 73.7179 261.002 70.6626 262.581 67.5477C264.693 62.8398 266.996 58.2626 268.538 53.1628C268.609 52.6517 269.001 52.081 269.583 51.6408C270.154 52.0327 269.892 52.4132 269.821 52.9243C269.242 57.8452 268.283 62.5048 267.002 67.224C265.259 73.0251 263.515 78.8262 262.152 84.8886C261.062 89.7384 260.613 94.469 260.866 99.4012C260.844 101.065 261.034 101.196 262.388 100.446C263.743 99.6966 263.873 99.5064 263.314 98.2826C262.326 95.6446 262.36 93.1487 262.655 90.2722C263.246 84.5194 265.049 79.0393 267.553 73.7607C269.132 70.6457 270.901 67.6614 273.24 65.069C275.259 62.5362 277.599 59.9437 279.808 57.5415C279.939 57.3513 279.939 57.3513 280.069 57.1611C280.331 56.7806 280.723 56.2098 281.293 56.6017C281.864 56.9935 281.282 57.4337 281.021 57.8142C279.644 60.2277 278.457 62.7718 276.889 65.0548C276.236 66.006 275.773 67.0879 275.251 67.8489C272.295 73.3774 269.529 79.0365 268.167 85.0988C267.42 88.2251 266.863 91.4819 266.307 94.7388C266.165 95.7611 265.833 96.6527 265.691 97.6749C265.62 98.186 265.679 98.5069 266.321 98.3876C267.866 97.7686 269.22 97.0191 270.575 96.2694C271.026 96.0196 271.287 95.6391 271.038 95.1876C270.978 94.8668 270.859 94.225 270.668 94.0944C269.55 91.6467 269.584 89.1508 270.129 86.7259C271.088 82.0662 272.559 77.4777 274.922 73.2213C278.139 67.3123 282.367 62.3773 287.356 57.9648C287.807 57.7149 288.199 57.1442 288.841 57.0249C289.091 57.4764 288.829 57.8568 288.699 58.0471C287.915 59.1886 286.941 60.1995 286.158 61.3409C283.877 64.2542 281.847 67.619 280.328 71.0548C278.88 73.9794 277.622 77.0347 276.555 80.2206C275.748 83.0261 274.811 86.0218 274.005 88.8272C273.602 90.2299 273.329 91.4424 272.926 92.8451C272.724 93.5464 272.713 94.3784 272.892 95.3409C273.985 94.9718 274.888 94.4721 275.66 94.1626C276.112 93.9127 276.373 93.5323 276.254 92.8905C275.277 89.4206 276.285 85.9139 277.673 82.6683C278.136 81.5865 278.599 80.5047 279.062 79.4228C280.783 75.2857 283.074 71.5404 285.686 67.7355C288.62 63.871 292.052 60.9094 295.806 57.8882L295.937 57.698C296.067 57.5077 296.388 57.4481 296.448 57.769C296.638 57.8996 296.508 58.0899 296.377 58.2802C295.855 59.0411 295.272 59.4812 294.75 60.2422C292.28 63.0249 290.249 66.3896 288.35 69.5642C286.45 72.7387 284.741 76.0439 283.222 79.4797C282.166 81.8336 281.299 84.3182 280.624 86.9333C280.149 88.8471 279.485 90.6304 278.63 92.283C278.5 92.4732 278.369 92.6634 278.559 92.794C280.354 92.6265 280.805 92.3766 280.828 90.7127C281.064 87.5154 282.512 84.5907 284.15 81.7967C286.905 76.9696 290.48 72.9859 294.435 69.2633C296.704 67.182 299.163 65.2313 301.812 63.4112C303.558 62.0908 305.495 60.9011 307.562 59.5212C307.693 59.3309 308.014 59.2714 308.204 59.402C308.323 60.0437 307.681 60.163 307.42 60.5435C305.413 62.2443 303.465 64.266 301.647 66.0974C299.699 68.1191 298.001 70.5922 296.054 72.6139C292.087 77.1684 288.631 81.794 285.425 86.8709C284.642 88.0124 284.048 89.2845 283.324 90.7468C284.929 90.4487 286.152 89.8893 287.376 89.33C287.828 89.0801 288.029 88.3788 288.231 87.6774C288.776 85.2525 289.642 82.7679 291.269 80.8058C291.791 80.0448 292.374 79.6048 292.896 78.8438C295.687 76.0015 298.158 73.2188 301.199 70.828C303.919 68.4968 306.889 66.6171 310.05 64.8681C313.21 63.119 316.62 61.8214 319.911 59.882C320.042 59.6918 320.232 59.8224 320.553 59.7628C320.803 60.2143 320.542 60.5947 320.09 60.8446C318.855 62.236 317.37 63.1758 315.945 64.4366C312.06 67.648 307.795 70.5981 303.911 73.8095C301.19 76.1407 298.66 78.6025 296.321 81.1949C294.694 83.157 293.126 85.44 291.309 87.2715C291.178 87.4617 291.048 87.6519 291.107 87.9728C292.391 87.7343 293.745 86.9847 295.159 86.556C295.48 86.4963 295.741 86.1159 295.682 85.795C298.376 80.647 302.391 77.2453 307.488 74.3065C311.813 71.6772 316.697 70.2717 321.771 68.9969C323.506 68.5085 325.431 68.1508 327.166 67.6624C327.939 67.3529 328.58 67.2337 329.222 67.1144C329.472 67.5659 329.151 67.6256 329.021 67.8158C327.987 68.5058 327.084 69.0055 326.05 69.6955C321.927 71.6234 317.484 73.611 313.361 75.539C312.137 76.0984 311.103 76.7883 310.07 77.4783C307.42 79.2984 304.711 80.7976 302.122 82.9385C301.409 83.5689 300.506 84.0686 299.793 84.699C300.174 84.9602 300.625 84.7104 300.756 84.5201C301.077 84.4605 301.398 84.4008 301.528 84.2106C306.745 81.9135 312.39 81.0306 317.844 80.017C322.337 79.1823 326.829 78.3475 331.38 77.8336C336.253 77.2601 341.055 77.1977 346.035 78.098C347.058 78.24 348.21 78.1917 349.233 78.3337C349.554 78.2741 349.744 78.4047 349.803 78.7256C349.863 79.0464 349.542 79.1061 349.412 79.2963C344.408 80.06 339.894 82.5587 334.831 83.0016C331.432 83.4672 327.842 83.8022 324.444 84.2678C321.175 84.5432 317.776 85.0088 314.568 85.605C310.848 86.1302 307.199 86.1445 303.479 86.6697C300.722 87.0161 298.155 87.493 295.577 88.802C296.409 88.8134 297.371 88.6345 298.203 88.6459C303.147 87.5613 307.878 88.0099 312.739 88.2684C316.959 88.6461 321.178 89.024 325.457 89.7226C330.307 90.813 335.348 92.0341 339.865 94.0162C340.246 94.2774 341.078 94.2887 340.876 94.9901C340.675 95.6914 340.104 95.2997 339.593 95.2287C338.059 95.0157 336.657 94.6124 335.314 94.53C331.034 93.8314 327.005 93.5844 322.655 93.3969C316.32 93.2463 310.306 93.036 304.042 92.3742C300.654 92.0079 297.337 91.1305 294.151 90.0627C293.26 89.7305 292.428 89.7191 291.525 90.2189C290.647 93.5354 289.554 93.9045 288.461 94.2736ZM254.983 117.756L255.114 117.565C254.674 116.983 254.174 116.08 253.734 115.498C251.913 112.849 251.842 113.36 249.906 114.55C249.775 114.74 249.585 114.609 249.454 114.8C248.742 115.43 248.801 115.751 249.503 115.953C251.476 116.748 253.069 117.282 254.983 117.756Z" fill="#8EDAA7"/>
    <path d="M151.136 161.962C151.177 161.237 151.559 160.894 151.77 160.361C155.082 156.363 156.984 151.559 159.419 146.967C160.436 145.024 161.281 142.889 161.935 140.925C162.377 139.495 163.334 138.639 163.776 137.209C163.988 136.675 164.561 136.162 163.685 135.568C162.809 134.974 161.893 135.105 161.299 135.981C160.283 137.925 158.924 139.486 158.441 141.641C156.59 148.81 152.282 154.39 146.564 159.164C145.608 160.02 144.481 160.685 143.182 161.158C142.991 161.329 142.437 161.481 142.094 161.098C141.752 160.715 142.134 160.373 142.517 160.031C144.581 158.872 145.768 157.12 146.956 155.368C148.335 153.444 149.18 151.309 150.025 149.174C150.639 147.936 150.891 146.677 151.505 145.438C152.984 141.703 155.168 138.369 158.399 135.821C158.782 135.479 159.164 135.136 159.376 134.602C158.137 133.989 156.707 133.546 155.448 133.294C154.361 133.234 153.767 134.11 153.364 134.815C152.559 136.225 151.946 137.464 151.503 138.894C150.446 141.562 149.561 144.422 148.142 147.07C147.126 149.014 145.938 150.766 144.408 152.136C143.24 153.526 141.71 154.896 140.371 156.094C136.928 159.176 132.67 160.577 128.088 161.232C127.897 161.403 127.726 161.212 127.363 161.192C127.001 161.172 126.658 160.789 127.041 160.447C127.424 160.104 127.806 159.762 128.551 159.44C130.444 158.09 132.145 156.912 133.866 155.371C137.309 152.289 140.047 148.804 142.634 144.766C144.244 141.946 145.663 139.298 147.616 136.861C148.995 134.937 150.525 133.567 152.76 132.6C152.951 132.429 153.314 132.449 153.334 132.087C152.629 131.684 151.732 131.453 151.199 131.241C149.769 130.799 148.339 130.356 147.271 129.933C145.67 129.299 145.288 129.642 144.311 130.86C142.53 133.489 140.92 136.308 138.967 138.745C136.612 141.888 134.065 145.201 131.196 147.769C127.753 150.851 123.797 153.359 119.367 154.568C114.383 155.929 109.611 156.756 104.536 156.475C104.173 156.455 103.448 156.415 103.086 156.395C102.724 156.375 102.361 156.355 102.21 155.801C102.23 155.438 102.592 155.458 102.784 155.287L103.146 155.307C109.731 154.581 115.691 152.002 121.52 148.506C125.477 145.998 128.557 142.896 131.657 139.432C134.777 135.605 138.24 132.161 142.73 129.864C142.922 129.693 143.475 129.541 143.495 129.179C143.515 128.816 142.982 128.605 142.619 128.585C141.189 128.142 139.588 127.508 138.158 127.066C136.92 126.452 135.812 126.754 135.027 127.801C133.286 129.705 131.353 131.78 129.954 134.066C127.77 137.399 125.243 140.35 122.374 142.918C118.147 147.047 113.103 149.495 107.565 151.007C103.498 152.236 99.2789 152.912 94.909 153.034C91.8179 153.044 89.3206 152.179 86.4808 150.931C86.3096 150.74 85.9471 150.72 85.7759 150.529C85.4334 150.146 85.4535 149.783 86.0072 149.632C86.1985 149.461 86.3697 149.652 86.7322 149.672C95.9456 150.728 104.252 148.46 111.993 143.253C113.504 142.245 114.651 141.218 115.819 139.828C117.349 138.459 118.899 136.726 120.258 135.165C123.549 131.53 127.163 128.639 131.805 126.896C132.55 126.574 133.466 126.442 133.677 125.909C133.697 125.546 133.335 125.526 133.164 125.335C131.2 124.681 129.428 123.856 127.464 123.202C125.863 122.568 125.309 122.719 124.142 124.109C120.105 128.067 116.048 132.387 111.156 135.389C105.498 139.076 99.709 141.846 93.1041 142.935C87.0529 143.873 81.0618 143.723 75.3421 141.952C74.2747 141.53 73.016 141.278 71.7573 141.027C71.2236 140.815 70.8611 140.795 70.5187 140.413C70.1562 140.393 69.8138 140.01 69.8338 139.648C69.8539 139.285 70.2163 139.305 70.5788 139.325C71.6663 139.385 72.3912 139.426 73.4787 139.486C79.6209 140.189 85.9946 139.996 91.9146 138.142C97.4722 136.268 102.879 133.84 107.963 130.667C112.493 127.646 117.365 125.006 122.752 122.941C123.305 122.79 123.668 122.81 124.071 122.105C123.919 121.551 123.194 121.511 122.661 121.3C119.096 120.012 115.531 118.724 112.329 117.456C111.09 116.842 110.708 117.184 109.923 118.232C109.309 119.47 108.504 120.88 107.89 122.119C106.259 125.301 103.773 127.527 100.582 129.35C96.8365 131.324 92.9202 133.108 89.0239 134.528C84.7451 136.291 80.3751 136.413 75.8741 135.619C72.4605 134.884 69.047 134.15 65.6334 133.416C65.0997 133.205 64.3747 133.165 64.0323 132.782C63.6898 132.399 63.7099 132.037 64.2636 131.886C64.8174 131.735 65.1798 131.755 65.9048 131.795C72.9833 132.004 80.2932 131.318 87.3007 129.524C92.0932 128.335 96.3921 126.209 100.197 123.148C102.855 121.113 105.704 118.907 108.875 117.446C109.066 117.275 109.258 117.104 109.449 116.933C110.023 116.419 109.852 116.228 109.147 115.825C107.183 115.171 105.048 114.326 103.276 113.501C102.571 113.098 101.826 113.421 101.252 113.934C100.296 114.79 99.1482 115.818 98.7056 117.248C97.8804 119.02 96.5214 120.581 94.8401 121.397C90.7125 123.714 86.3936 126.202 81.7522 127.945C76.9197 129.859 71.7848 130.666 66.6899 130.747C65.7737 130.878 64.5149 130.627 63.6187 130.396C60.9101 130.064 58.2015 129.732 55.4929 129.401C53.318 129.28 50.9918 128.606 48.8369 128.123C48.4744 128.103 48.3032 127.912 47.9407 127.892C47.5983 127.51 47.6183 127.147 47.9808 127.167C48.5346 127.016 49.0883 126.865 49.8133 126.905C57.2543 127.135 64.5843 126.086 71.5717 124.655C76.8979 123.677 82.073 122.145 87.0968 120.059C88.3956 119.586 89.3318 119.092 90.2881 118.236C92.7345 116.735 95.1608 115.597 97.5871 114.459C98.3321 114.136 99.2684 113.643 99.3085 112.918C99.3486 112.193 98.2611 112.133 97.5562 111.73C95.4213 110.885 93.649 110.059 91.6853 109.405C90.2554 108.963 90.2555 108.963 89.2791 110.181C88.1115 111.571 87.115 113.152 85.9474 114.542C84.9711 115.76 83.461 116.768 82.1422 117.604C75.0145 121.573 67.4732 123.155 59.4584 123.439C56.176 123.621 52.7424 123.249 49.3489 122.152C44.6967 120.804 40.4269 119.114 35.946 117.957C35.4122 117.745 34.6873 117.705 34.8986 117.172C34.9386 116.447 35.6436 116.849 36.1973 116.698C39.0972 116.859 41.8059 117.19 44.6858 117.713C51.3417 118.99 57.8865 118.989 64.3202 117.709C69.0926 116.882 73.734 115.139 78.2041 113.205C80.8217 111.895 83.8017 110.605 86.5905 109.487C86.7818 109.316 87.1442 109.336 87.5267 108.993C87.718 108.822 88.2718 108.671 88.2918 108.309C88.3319 107.584 87.7781 107.735 87.4357 107.352C85.1296 106.316 82.8236 105.279 80.5176 104.243C79.8126 103.84 79.2588 103.991 78.685 104.505C76.7924 105.855 74.7286 107.013 73.0073 108.554C69.9671 110.931 66.4333 112.372 62.557 113.43C56.1033 115.072 49.5183 115.799 42.6311 115.418C38.11 114.986 33.609 114.192 29.2992 113.226C28.9367 113.206 28.7655 113.015 28.5943 112.823C28.2519 112.441 28.2719 112.078 28.6344 112.098C29.3794 111.776 30.1043 111.816 30.6581 111.665C36.1355 111.241 41.4417 110.625 46.9191 110.201C54.5914 109.535 62.1326 107.952 69.3314 105.987C71.5464 105.382 73.9326 104.969 76.1877 103.639C76.3789 103.468 76.7414 103.488 76.9527 102.955C76.4391 102.381 75.5429 102.149 74.838 101.747C71.4645 100.288 72.3807 100.156 69.1893 101.98C63.5717 104.941 57.9941 107.178 51.7717 107.924C46.6568 108.369 41.7532 108.279 36.7185 107.274C35.0973 107.002 33.6674 106.559 32.4287 105.945C28.864 104.657 25.3192 103.007 21.7344 102.081C21.2007 101.87 20.4757 101.83 20.687 101.296C20.8983 100.763 21.6233 100.803 21.9858 100.823C24.1608 100.943 26.3357 101.063 28.5106 101.184C28.8731 101.204 29.2355 101.224 29.598 101.244C35.3978 101.565 41.1776 102.248 46.9774 102.569C48.7899 102.669 50.5823 103.132 52.4147 102.87C57.1672 102.405 62.0908 102.132 66.9033 100.581C67.6483 100.258 68.7358 100.318 68.7759 99.5935C69.0072 98.6973 67.5573 98.617 66.8523 98.2144C65.9762 97.6205 65.1 97.0267 63.8614 96.4128C62.814 95.6276 61.7265 95.5675 60.4278 96.041C58.384 96.8369 56.5315 97.4617 54.3164 98.0663C51.5276 99.1846 48.6077 99.3867 45.879 99.4175C38.0555 99.5301 30.5235 97.6591 23.2027 95.2543C19.638 93.9663 15.902 92.487 12.5285 91.0278C12.166 91.0077 11.9947 90.8164 11.461 90.6051C11.2898 90.4138 10.7561 90.2025 10.9474 90.0313C10.9674 89.6688 11.3299 89.6888 11.6924 89.7089C11.6924 89.7089 12.0549 89.729 12.2261 89.9202C16.3446 91.0571 20.7145 90.9352 24.853 91.7095C27.3704 92.2124 30.0791 92.5441 32.5964 93.047C35.8388 93.5899 39.0811 94.1328 42.3434 94.3133C45.6058 94.4938 48.8483 95.0369 52.1107 95.2174C54.2856 95.3377 56.3093 94.9042 58.5043 94.6621C58.8668 94.6821 59.058 94.5109 59.0781 94.1484C59.0981 93.786 58.9269 93.5947 58.7356 93.7659C57.4969 93.152 56.2783 92.1755 54.8484 91.7328C50.0249 90.1933 45.2016 88.654 40.3982 86.7521C37.3671 85.6754 34.1448 84.7699 31.3251 83.1595C28.1428 81.5291 24.558 80.6035 21.3958 78.6106C17.8712 76.5976 14.5177 74.7759 10.973 73.1254C10.4393 72.9141 9.90562 72.7028 9.9457 71.9779C10.3282 71.6354 10.6907 71.6554 11.2244 71.8668C13.7218 72.7321 16.6217 72.8925 19.3303 73.2242C24.2139 73.6762 28.8461 75.3869 33.4582 77.46C38.9665 79.7645 43.881 82.9451 49.0068 85.5921C51.6553 87.0112 54.3038 88.4303 56.9323 90.2119C58.8559 91.5909 60.9906 92.4362 63.1054 93.644C62.9743 92.7277 62.4406 92.5164 61.9069 92.3051C59.4296 91.0772 57.1637 89.3158 55.2802 87.2118C51.5133 83.0038 47.1526 79.672 42.6206 76.1489C37.5549 72.4145 32.1066 69.0224 26.4471 66.1642C25.7422 65.7616 25.0373 65.359 24.3324 64.9565C24.1611 64.7652 23.6274 64.5538 24.0099 64.2113C24.2212 63.6776 24.5637 64.0602 24.9262 64.0802C26.3561 64.5229 27.6148 64.7744 29.0447 65.2171C34.9556 66.8167 40.0613 69.8261 45.167 72.8355C49.0342 75.2311 52.7101 77.7978 56.1947 80.5358C58.9743 82.8712 61.5627 85.3777 63.4061 88.2067C63.8997 89.143 64.2221 89.8881 64.7158 90.8244C65.1894 92.1232 66.0254 93.4419 66.8614 94.7607C67.5463 95.5258 68.4025 96.4823 69.47 96.9049C71.4135 97.9214 73.1658 99.1091 75.1295 99.7632C75.3007 99.9544 75.6632 99.9745 76.0256 99.9945C75.9145 98.7158 75.2297 97.9507 74.3736 96.9944C71.1604 92.6352 67.3734 88.7898 63.7777 84.7731C61.3806 82.0953 59.0034 79.055 56.7976 76.2059C55.1054 73.9307 53.0307 71.998 50.7848 69.874C47.854 66.9849 44.9231 64.0957 41.781 61.7403C40.2199 60.3814 38.4676 59.1936 36.7152 58.0059C36.3728 57.6233 36.0103 57.6033 35.6678 57.2207C35.4966 57.0295 35.1543 56.647 35.1743 56.2845C35.3856 55.7508 35.9193 55.9622 36.2818 55.9822C39.3128 57.0589 42.1726 57.9442 44.9723 59.9171C53.2002 65.6444 60.663 72.0566 66.7669 80.0299C68.1166 81.9225 69.2952 83.6239 70.2824 85.4965C72.5793 89.9867 75.2589 94.1346 77.1933 98.6048C77.1933 98.6048 77.1933 98.6047 77.3645 98.796C77.7779 101.182 79.3591 102.179 81.3227 102.833C83.1151 103.296 84.6962 104.292 86.4685 105.117C86.831 105.137 87.3446 105.711 87.7272 105.369C88.1097 105.026 87.596 104.452 87.4448 103.899C86.9512 102.962 86.2864 101.835 85.6015 101.07C82.6907 97.8181 80.5249 94.2441 78.3791 90.3076C75.7197 85.7973 72.6778 81.6295 69.4446 77.6328C65.5265 72.8711 61.0547 68.2606 57.1366 63.4988C53.7121 59.6734 50.0963 56.0192 46.2693 52.8987C45.9268 52.5161 45.7556 52.3249 45.4132 51.9423C45.2419 51.7511 45.242 51.7511 45.2621 51.3887C45.8359 50.875 46.1783 51.2575 46.3495 51.4488C50.9617 53.5219 55.1712 56.3 59.3608 59.4406C64.7689 63.5575 69.2407 68.168 73.5012 73.3123C75.8983 75.99 77.7217 79.1816 79.5651 82.0105C81.7509 85.222 83.7655 88.2422 85.2063 91.7761C86.9695 96.055 88.7328 100.334 89.771 104.573C90.0734 105.68 90.7582 106.445 91.8256 106.868C93.7892 107.522 95.5616 108.347 97.5253 109.001C98.059 109.213 98.7639 109.615 99.3176 109.464C99.7002 109.122 99.3577 108.739 99.3778 108.377C98.5617 106.695 97.7457 105.014 96.3559 103.846C94.9861 102.316 93.8075 100.615 92.9915 98.9333C91.017 95.1881 89.0425 91.4429 86.8767 87.8689C84.8821 84.4862 82.6963 81.2748 80.148 78.0432C77.9622 74.8317 75.7764 71.6202 73.5906 68.4087C71.2335 65.0059 68.6852 61.7744 66.1169 58.9053C63.3773 55.845 60.6377 52.7846 57.6868 50.258C57.3443 49.8754 56.6395 49.4729 56.8508 48.9392C57.2533 48.2343 57.9382 48.9993 58.2807 49.3819C61.9565 51.9486 65.6123 54.8778 69.0769 57.9783C72.8839 61.4613 76.4996 65.1155 79.7328 69.1121C86.7129 77.6792 93.1192 86.7599 97.4616 96.9991C98.1065 98.4891 98.7312 100.342 99.1847 102.003C99.7694 104.58 100.888 107.369 101.473 109.947C101.795 110.692 102.309 111.266 103.014 111.668C104.977 112.322 106.75 113.148 108.542 113.61C108.904 113.63 109.247 114.013 109.801 113.862C110.012 113.328 109.498 112.754 109.347 112.2C106.385 106.583 103.424 100.965 100.844 95.0046C97.5801 88.2793 94.5072 81.3828 90.3068 75.151C88.121 71.9395 85.7439 68.8993 83.5581 65.6878C81.8659 63.4126 79.9825 61.3086 78.2903 59.0334C77.4542 57.7145 76.4269 56.5669 75.2083 55.5905C73.8184 54.4228 72.8111 52.9127 71.6326 51.2113C71.4614 51.0201 71.4814 50.6576 71.6726 50.4863C71.8639 50.3151 72.2264 50.3352 72.3976 50.5265C72.9314 50.7378 73.6363 51.1404 74.17 51.3517C77.5234 53.1735 80.4743 55.7 83.2339 58.3979C86.5072 61.6695 89.2067 65.4548 92.0774 69.4314C95.3106 73.4281 97.9901 77.5759 100.65 82.0862C105.132 89.7879 108.508 97.792 110.564 106.632C111.018 108.293 111.108 109.934 111.371 111.767C111.331 112.492 111.482 113.046 111.804 113.791C111.955 114.345 112.127 114.536 112.66 114.747C115.158 115.612 117.846 116.307 120.344 117.172C120.917 116.658 120.575 116.276 120.233 115.893C117.382 111.554 115.83 106.742 114.298 101.567C111.517 92.6863 108.544 83.9773 104.081 75.913C101.764 71.7853 99.8099 67.6777 97.1305 63.5299C94.9446 60.3184 92.3963 57.0868 89.4454 54.5601C89.103 54.1776 88.5893 53.6037 88.2468 53.2212C88.0756 53.0299 87.562 52.4562 87.7533 52.285C88.1358 51.9425 88.4782 52.325 89.0119 52.5363C89.888 53.1302 90.7642 53.7241 91.6404 54.318C96.3636 57.6698 100.493 61.8978 104.24 66.4683C106.617 69.5086 108.44 72.7001 110.072 76.0628C113.83 83.7244 117.014 91.8996 119.473 100.035C120.38 103.357 121.116 106.489 121.661 109.791C121.903 111.986 122.528 113.839 122.941 116.225C123.244 117.332 123.566 118.077 124.825 118.329C126.083 118.58 127.322 119.194 128.581 119.446C129.114 119.657 129.497 119.315 129.346 118.761C129.195 118.207 129.215 117.845 128.872 117.462C126.706 113.888 125.457 110.183 124.207 106.478C122.655 101.665 121.466 96.8727 119.894 92.4226C118.947 89.825 118.191 87.0561 116.881 84.4385C113.506 76.4344 110.493 68.4505 105.437 61.2624C105.266 61.0712 105.094 60.8798 105.114 60.5173C104.943 60.326 104.963 59.9636 105.326 59.9836C105.517 59.8124 105.688 60.0036 105.688 60.0036C106.051 60.0237 106.393 60.4063 106.564 60.5976C108.125 61.9565 109.878 63.1443 111.247 64.6745C113.322 66.6072 114.823 69.0536 116.324 71.5C119.326 76.3929 121.391 81.7793 123.286 86.9744C124.858 91.4246 126.047 96.2171 126.874 100.99C127.53 105.571 128.568 109.81 129.415 114.22C129.677 116.052 130.493 117.734 130.947 119.395C131.269 120.14 131.783 120.714 132.317 120.925C133.213 121.156 133.918 121.559 134.814 121.79C135.025 121.257 134.683 120.874 134.512 120.683C133.544 118.448 132.94 116.233 132.335 114.018C132.033 112.91 131.921 111.631 131.428 110.695C129.534 105.5 128.193 100.154 127.215 94.8273C126.388 90.0548 124.816 85.6047 123.073 80.9633C122.599 79.6645 122.297 78.557 121.823 77.2582C120.554 73.9156 118.73 70.7241 116.696 68.0664C116.182 67.4926 115.86 66.7476 115.517 66.365C115.175 65.9825 114.832 65.5999 115.215 65.2575C115.788 64.7438 116.302 65.3177 116.473 65.5089C118.226 66.6967 119.978 67.8844 121.348 69.4146C123.06 71.3273 124.41 73.2199 125.377 75.455C127.654 80.3078 130.313 84.818 131.845 89.9931C133.568 94.997 134.566 99.9608 134.628 105.418C134.639 108.509 135.013 111.621 135.386 114.732C135.648 116.564 135.719 118.568 136.344 120.421C137.08 123.552 136.718 123.532 140.665 124.477C140.856 124.306 140.876 123.944 140.705 123.752C139.224 120.944 138.488 117.812 137.923 114.872C136.492 107.885 135.805 100.575 135.29 93.4561C134.694 87.7874 133.907 82.2899 132.758 76.7723C132.476 75.3023 131.619 74.346 130.572 73.5608C128.82 72.3731 127.259 71.0141 125.698 69.6551C124.65 68.87 123.794 67.9137 123.512 66.4437C126.372 67.3291 128.275 69.0706 130.773 69.936C131.175 69.231 130.833 68.8485 130.681 68.2947C130.208 66.996 129.734 65.6972 129.261 64.3984C129.089 64.2071 128.938 63.6533 129.492 63.5021C129.875 63.1597 130.217 63.5423 130.559 63.9248C131.567 65.435 132.745 67.1364 133.561 68.8177C135.002 72.3516 137.782 74.6869 140.37 77.1934C146.081 82.4179 150.11 88.4584 152.055 96.0197C153.245 100.812 153.347 105.545 152.532 110.408C151.758 114.547 150.621 118.665 149.656 122.975C149.405 124.234 149.344 125.321 149.284 126.409C149.244 127.134 149.587 127.516 150.12 127.727C151.913 128.19 153.514 128.824 155.115 129.458C156.011 129.689 156.394 129.347 155.9 128.411C154.802 125.259 154.62 121.977 155.162 118.735C156.348 110.438 155.722 102.04 154.542 93.7939C153.906 88.8502 151.609 84.3599 149.483 80.061C148.838 78.5709 148.174 77.4433 147.72 75.7821C147.74 75.4196 147.398 75.0371 147.78 74.6946L148.143 74.7147C151.054 77.9663 153.984 80.8555 156.13 84.7919C159.777 91.1748 161.017 98.3335 161.341 105.623C161.706 112.188 160.257 118.653 158.638 124.926C158.427 125.46 158.215 125.994 158.004 126.527C157.601 127.232 157.561 127.957 157.692 128.874C157.824 129.79 158.166 130.172 159.062 130.404C160.321 130.655 161.56 131.269 163.181 131.541C162.294 127.855 162.132 124.211 162.695 120.606C162.855 117.706 163.549 115.017 163.901 111.946C164.715 107.083 164.975 102.37 164.148 97.5978C163.564 95.0203 162.617 92.4227 162.032 89.8452C161.881 89.2914 161.73 88.7377 161.75 88.3752C161.77 88.0127 161.961 87.8414 162.495 88.0528C163.028 88.2641 163.351 89.0091 163.693 89.3917C165.537 92.2206 166.826 95.2008 167.924 98.3521C169.97 104.101 169.649 109.901 168.584 116.023C167.83 119.799 166.733 123.193 165.445 126.757C165.022 127.825 164.962 128.912 164.902 130C164.782 132.175 165.487 132.577 167.833 132.889C166.543 129.909 167.258 126.858 168.143 123.998C169.219 120.967 170.658 117.956 171.201 114.713C171.784 110.746 171.813 106.93 171.671 102.923C171.691 102.56 171.369 101.815 171.751 101.473C172.285 101.684 172.265 102.046 172.436 102.238C173.877 105.772 174.593 109.265 174.564 113.082C174.394 119.435 172.966 125.537 170.108 131.197C170.088 131.559 169.897 131.73 169.686 132.264C169.243 133.694 169.414 133.885 170.673 134.137C179.252 136.793 187.852 139.087 196.854 140.675C200.821 141.258 204.577 142.375 208.545 142.958C209.27 142.998 210.166 143.23 210.508 143.612C211.384 144.206 211.324 145.294 210.388 145.787C209.643 146.11 209.089 146.261 208.364 146.221C204.357 146.363 200.369 146.142 196.402 145.559C188.105 144.373 180.402 142.31 172.547 139.694C171.48 139.272 170.05 138.829 168.791 138.577C167.724 138.155 167.341 138.497 167.281 139.585L167.261 139.947C167.766 143.975 165.924 147.691 164.274 151.235C162.623 154.78 160.077 158.093 157.016 160.833C156.06 161.689 155.104 162.545 154.147 163.401C152.415 161.851 151.841 162.364 151.136 161.962ZM145.357 125.101C145.74 124.758 145.568 124.567 145.397 124.376C144.601 122.332 144.339 120.499 144.459 118.324C144.468 114.871 145.011 111.628 145.383 108.195C146.046 102.777 145.813 97.1288 143.747 91.7424C142.498 88.0373 140.141 84.6345 137.955 81.423C137.784 81.2317 137.632 80.678 136.907 80.6379C136.867 81.3629 137.019 81.9166 137.341 82.6617C139.326 89.498 140.224 96.2742 140.377 103.373C140.368 106.827 140.168 110.451 140.521 113.925C140.723 116.845 140.905 120.128 141.661 122.896C141.812 123.45 141.964 124.004 142.497 124.215C143.736 124.829 144.441 125.232 145.357 125.101Z" fill="#8EDAA7"/>
    <path d="M212.721 111.666C212.77 112.15 212.311 112.441 212.118 112.95C209.266 116.173 206.39 119.154 203.247 121.917C200.105 124.681 194.539 125.245 190.639 122.951C188.555 121.696 187.174 120.124 185.985 118.044C185.694 117.585 185.378 116.883 184.845 116.448C185.185 117.392 185.55 118.577 185.89 119.521C188.32 126.609 190.968 133.431 195.285 139.84C195.892 141.001 196.716 141.895 197.564 143.032C198.147 143.951 198.171 144.193 197.252 144.775C197.035 145.041 196.793 145.066 196.575 145.333C195.197 146.206 194.446 146.037 193.356 144.925C192.507 143.789 191.658 142.653 191.051 141.492C188.383 136.872 186.657 131.913 184.908 126.711C183.813 123.154 182.695 119.356 181.818 115.533C181.769 115.049 181.478 114.589 181.405 113.863C180.994 114.638 180.826 115.389 180.657 116.139C180.201 118.875 178.995 121.442 177.521 123.792C175.252 127.934 170.461 128.909 166.417 127.608C163.124 126.475 160.458 124.3 158.252 121.834C157.137 120.48 156.022 119.126 154.882 117.53C154.591 117.071 153.792 116.418 154.226 115.885C154.661 115.352 155.194 115.787 155.945 115.955C157.688 116.268 159.407 116.338 161.101 116.166C162.069 116.068 163.012 115.728 163.956 115.388C165.576 114.49 166.204 113.448 165.815 112.021C165.401 110.351 163.802 109.046 162.083 108.976C161.115 109.074 160.389 109.148 159.688 109.463C158.744 109.803 158.067 110.361 157.39 110.919C156.713 111.476 155.794 112.059 155.118 112.616C152.603 114.338 150.351 113.833 147.977 112.118C145.602 110.402 143.88 107.887 142.643 105.323C142.036 104.162 141.405 102.759 141.04 101.574C140.724 100.872 140.675 100.388 140.844 99.6379C142.611 100.192 144.379 100.746 145.88 101.083C149.657 102.167 153.361 102.525 157.208 101.891C157.45 101.866 157.45 101.866 157.692 101.842C159.145 101.694 160.281 100.846 160.4 99.6111C160.544 98.6185 159.671 97.24 158.629 96.6121C157.321 95.7668 155.894 96.156 154.466 96.5452C152.555 96.9835 150.401 97.4464 148.465 97.6426C146.045 97.888 143.576 97.6493 141.275 96.6601C139.75 96.0812 138.659 94.9693 137.786 93.5909C136.888 91.9704 136.232 90.3253 136.036 88.3892C135.889 86.9372 135.475 85.2676 135.328 83.8156C135.131 81.8795 135.177 79.9188 135.465 77.9337C135.44 77.6916 135.391 77.2076 135.851 76.9165C136.31 76.6255 136.601 77.0849 136.868 77.3024C138.783 79.3087 140.89 80.8066 143.216 82.0378C146.34 83.9215 149.658 85.2966 153.144 85.9212C155.13 86.2089 157.115 86.4966 159.244 85.7918C160.671 85.4025 160.864 84.894 160.717 83.4419C160.254 81.2883 157.88 79.573 155.726 80.0359C151.202 81.2281 147.375 79.6601 143.935 77.0749C142.36 76.012 140.978 74.4406 139.863 73.0867C137.342 69.9193 136.514 66.5802 136.847 62.6344C137.325 57.696 138.577 53.168 140.556 48.5664C140.556 48.5664 140.531 48.3245 140.773 48.2999C140.99 48.0334 140.941 47.5493 141.425 47.5002C141.909 47.4512 142.2 47.9107 142.25 48.3947C143.828 51.9022 145.623 55.1432 147.661 58.3596C149.698 61.576 152.195 64.5014 154.91 67.1602C156.267 68.4896 158.108 69.7699 159.9 70.5662C160.917 70.9521 161.91 71.0959 162.878 70.9978C163.822 70.6576 164.498 70.1 164.642 69.1075C164.786 68.1149 164.495 67.6553 163.938 66.9783C163.38 66.3014 162.605 65.891 161.637 65.9891C158.2 65.8486 155.608 64.3999 153.426 62.176C147.973 56.6164 145.325 49.7943 144.782 42.0254C144.635 40.5733 145.214 39.0477 145.817 37.764C147.241 34.9301 148.665 32.0962 150.598 29.4552C151.033 28.9221 151.443 28.1471 151.636 27.6385C151.854 27.372 152.047 26.8634 152.555 27.0563C153.064 27.2493 152.871 27.7578 152.895 27.9998C153.018 29.2099 153.141 30.4199 153.263 31.63C153.828 37.1963 155.336 42.4225 157.569 47.575C159.147 51.0825 161.185 54.2989 164.359 56.6666C165.159 57.3191 165.934 57.7295 166.684 57.8979C167.943 58.2593 168.862 57.6771 168.957 56.2005C168.859 55.2324 168.519 54.2889 167.695 53.3944C164.18 50.0832 162.287 45.8742 161.095 41.3496C159.853 36.3409 159.363 31.5006 159.815 26.3202C160.103 24.3351 160.633 22.3254 161.162 20.3157C162.271 16.7803 164.47 14.3568 167.711 12.5612C169.791 11.3724 171.629 10.208 174 9.47863C176.346 8.50724 178.426 7.31832 180.457 5.64542C180.674 5.37887 181.134 5.08782 181.351 4.82127C182.463 3.73054 182.705 3.70596 183.578 5.08443C186.342 8.22725 189.709 10.0864 193.511 11.4124C196.562 12.5701 198.477 14.5765 199.28 17.6736C199.985 19.8026 199.939 21.7633 199.434 24.015C198.834 27.7433 196.975 31.1103 194.849 34.2598C193.786 35.8346 192.482 37.4338 191.152 38.7911C189.388 40.6815 188.132 42.7648 187.41 45.2831C187.241 46.0337 186.613 47.0753 187.655 47.7032C188.697 48.3311 189.615 47.7489 190.317 47.4333C192.614 45.9779 193.87 43.8946 195.126 41.8112C199.086 35.0527 201.496 27.4734 202.429 19.7993C202.405 19.5573 202.38 19.3152 202.598 19.0487C202.766 18.2981 202.983 18.0316 203.759 18.442C205.333 19.5049 206.69 20.8342 207.83 22.4302C210.401 26.0815 212.245 29.8066 212.954 34.3803C213.076 35.5903 212.982 37.0669 212.596 38.0841C212.234 39.3432 211.607 40.3848 210.979 41.4265C208.274 46.1017 204.77 50.1245 200.975 53.6877C197.422 57.2265 193.602 60.5478 189.201 62.9501C188.282 63.5322 187.896 64.5494 188.236 65.4929C188.576 66.4364 189.593 66.8222 190.803 66.6995C191.529 66.6259 192.231 66.3103 192.908 65.7527C198.905 62.2106 204.103 58.0161 208.453 52.6851C211.062 49.4865 213.43 46.3125 215.24 42.4615C215.843 41.1778 216.229 40.1607 216.59 38.9015C217.001 38.1264 217.218 37.8599 218.018 38.5123C218.284 38.7298 218.551 38.9473 218.551 38.9473C220.782 41.6552 223.012 44.363 223.864 47.9441C224.302 49.8557 225.007 51.9847 225.445 53.8963C225.617 55.5904 225.256 56.8495 224.677 58.3752C223.06 61.7176 220.619 64.1656 217.669 66.4207C212.254 70.8818 206.256 74.4239 199.069 75.886C197.884 76.2507 196.698 76.6154 196.071 77.657C195.418 78.4567 195.274 79.4493 195.856 80.3683C196.439 81.2872 197.214 81.6977 198.182 81.5995C199.876 81.4278 201.545 81.014 203.166 80.1162C206.891 78.2715 210.324 75.9674 213.492 73.4458C217.578 70.342 221.639 66.9962 224.901 62.998C225.796 62.1738 226.424 61.1321 227.027 59.8485C227.609 60.7674 227.707 61.7355 228.023 62.437C228.486 64.5906 228.948 66.7441 229.194 69.1643C229.541 74.9971 229.67 81.0965 228.807 87.0521C228.351 89.7878 227.046 91.3871 224.749 92.8425C221.048 94.9291 217.152 95.0798 213.206 94.7463C210.737 94.5076 208.268 94.2689 205.75 93.5462C204.999 93.3778 204.491 93.1849 203.74 93.0165C202.748 92.8726 201.829 93.4548 201.685 94.4474C201.274 95.2225 201.857 96.1415 202.656 96.7939C203.94 97.3973 204.981 98.0251 206.458 98.1199C210.888 98.4043 215.051 98.4713 219.382 97.7876C222.262 97.2512 224.826 96.0132 227.099 94.3158C227.316 94.0492 227.533 93.7827 227.775 93.7581C228.017 93.7336 228.042 93.9756 228.067 94.2176C227.102 96.7604 226.404 99.5207 224.931 101.871C223.868 103.445 222.731 104.294 220.844 104.974C216.152 106.917 211.189 106.198 206.444 105.212C205.184 104.851 204.167 104.465 202.933 104.345C200.948 104.058 199.811 104.906 199.064 107.183C198.485 108.708 198.875 110.136 200.667 110.932C204.542 112.984 208.27 113.584 212.188 111.231C211.995 111.74 212.213 111.473 212.721 111.666ZM196.187 73.9778C197.905 74.048 199.308 73.4168 200.469 72.8101C207.242 69.6785 213.383 65.1438 218.459 59.7392C219.136 59.1816 219.546 58.4064 219.956 57.6313C220.391 57.0982 220.318 56.3722 219.785 55.9372C219.252 55.5023 218.501 55.3339 217.824 55.8915C217.365 56.1826 216.93 56.7157 216.737 57.2243C216.302 57.7573 216.109 58.2659 215.649 58.557C213.45 60.9805 211.009 63.4285 208.543 65.6345C205.183 68.6647 201.29 71.2599 197.323 73.1291C196.814 72.9361 196.33 72.9852 196.187 73.9778ZM157.737 63.6951C158.947 63.5724 159.55 62.2887 158.701 61.1523C158.41 60.6928 157.877 60.2578 157.369 60.0649C155.794 59.002 154.461 57.9146 153.104 56.5852C152.571 56.1503 152.255 55.4487 151.722 55.0138C151.431 54.5543 150.923 54.3614 150.221 54.677C149.762 54.9681 149.835 55.6941 150.126 56.1536C151.024 57.7741 151.947 59.6366 153.062 60.9905C153.886 61.8849 154.686 62.5374 155.485 63.1898C156.502 63.5757 157.011 63.7687 157.737 63.6951ZM223.821 69.2201C222.611 69.3428 221.983 70.3844 221.33 71.184C220.485 72.4922 219.664 74.0425 218.577 75.3752C218.359 75.6417 218.142 75.9083 218.433 76.3678C218.724 76.8273 219.208 76.7782 219.426 76.5117C221.555 75.8068 223.393 74.6425 224.915 72.7767C225.35 72.2436 225.76 71.4684 225.686 70.7424C225.588 69.7743 224.789 69.1219 223.821 69.2201ZM169.658 125.812C172.562 125.518 175.245 123.045 175.943 120.285C176.329 119.268 176.014 118.566 175.238 118.156C174.463 117.745 174.004 118.036 173.376 119.078C172.99 120.095 172.096 120.919 171.685 121.694C171.058 122.736 170.381 123.294 169.413 123.392C168.929 123.441 168.469 123.732 167.985 123.781C167.743 123.806 167.526 124.072 167.333 124.581C167.382 125.065 167.648 125.282 167.915 125.5C168.665 125.668 169.174 125.861 169.658 125.812ZM146.228 90.0454C146.47 90.0209 146.954 89.9718 147.389 89.4387C147.582 88.9301 147.291 88.4707 146.758 88.0357C146.491 87.8183 146.2 87.3587 145.716 87.4078C143.657 86.394 141.623 85.6223 139.782 84.3419C139.249 83.907 138.765 83.9561 138.088 84.5137C137.653 85.0468 137.702 85.5308 138.26 86.2078C138.526 86.4253 138.551 86.6673 138.817 86.8847C140.416 88.1896 142.5 89.4454 144.292 90.2417C144.751 89.9506 145.26 90.1436 146.228 90.0454ZM164.726 24.1109C164.824 25.0789 165.188 26.2645 165.529 27.208C165.844 27.9095 166.328 27.8604 166.739 27.0853C167.342 25.8017 167.728 24.7845 168.331 23.5009C168.524 22.9923 168.717 22.4837 168.885 21.7331C169.054 20.9826 169.005 20.4986 168.689 19.7971C168.107 18.8781 166.63 18.7833 165.761 19.8495C164.673 21.1822 164.578 22.6588 164.726 24.1109ZM186.337 92.5804C187.063 92.5068 187.523 92.2157 187.933 91.4406C188.101 90.69 188.028 89.964 187.495 89.529C186.695 88.8766 185.653 88.2487 184.661 88.1048C183.644 87.7189 182.532 88.8097 182.897 89.9952C183.019 91.2053 185.127 92.7031 186.337 92.5804ZM170.495 83.4285C170.011 83.4776 169.527 83.5267 169.285 83.5512C168.801 83.6003 168.342 83.8914 168.173 84.642C167.98 85.1505 168.271 85.61 168.804 86.0449C169.338 86.4799 169.871 86.9149 170.597 86.8413C171.831 86.9606 172.799 86.8625 173.694 86.0383C174.346 85.2386 174.321 84.9966 173.522 84.3442C172.673 83.2077 171.681 83.0638 170.495 83.4285ZM170.968 92.9161C171.042 93.6422 171.575 94.0771 172.567 94.2209C173.802 94.3403 175.373 92.9585 175.735 91.6993C175.854 90.4647 174.763 89.3528 173.553 89.4755C172.101 89.6227 170.603 91.7306 170.968 92.9161ZM183.56 79.6589C184.77 79.5362 186.099 78.179 185.952 76.7269C185.829 75.5169 184.546 74.9135 183.627 75.4957C182.708 76.0778 182.298 76.8529 182.154 77.8455C181.792 79.1047 182.35 79.7816 183.56 79.6589Z" fill="#248E94"/>
</svg>
