<svg
        xmlns:xlink="http://www.w3.org/1999/xlink"
        xmlns="http://www.w3.org/2000/svg" xml:space="preserve"
        xmlns:vectornator="http://vectornator.io"
        width="558"
        height="108"
        version="1.1" viewbox="0 0 558 108"
>
    <path d="M251.07+98.8555C250.219+98.8555+250.03+98.6665+249.557+97.9105L234.809+70.1145C232.445+72.7615+231.405+75.1255+231.405+78.8125L231.405+87.5095C231.405+94.6955+231.5+95.2625+233.769+95.3575L237.645+95.4525C238.212+95.5465+238.401+95.6405+238.401+96.2085L238.401+98.1935C238.401+98.7605+238.212+98.8555+237.645+98.8555L207.958+98.8555C207.391+98.8555+207.297+98.7605+207.297+98.1935L207.297+96.2085C207.297+95.6405+207.391+95.5465+207.958+95.4525L211.835+95.3575C214.104+95.2625+214.293+94.6955+214.293+87.5095L214.293+46.3835C214.293+39.1975+214.104+38.6305+211.835+38.5365L207.958+38.3475C207.391+38.3475+207.202+38.2525+207.202+37.6855L207.202+35.6995C207.202+35.1325+207.391+35.0385+207.958+35.0385L237.645+35.0385C238.212+35.0385+238.307+35.1325+238.307+35.6995L238.307+37.6855C238.307+38.2525+238.212+38.3475+237.645+38.3475L233.769+38.5365C231.5+38.6305+231.405+39.1975+231.405+46.3835L231.405+68.6965L231.5+68.6965C233.012+65.7655+236.983+61.6055+246.627+50.9215C249.936+47.4235+252.11+44.3035+252.11+41.6555C252.11+39.5765+250.975+38.6305+248.612+38.5365L246.059+38.3475C245.492+38.3475+245.398+38.2525+245.398+37.6855L245.398+35.6995C245.398+35.1325+245.492+35.0385+246.059+35.0385L270.546+35.0385C271.113+35.0385+271.302+35.1325+271.302+35.6995L271.302+37.6855C271.302+38.2525+271.113+38.3475+270.546+38.3475L268.939+38.5365C264.117+38.9145+261.754+40.7105+254.852+48.1795L246.91+56.9725L262.604+86.0915C267.048+94.2225+267.899+95.0745+270.262+95.3575L271.302+95.4525C271.87+95.5465+272.058+95.6405+272.058+96.2085L272.058+98.1935C272.058+98.7605+271.87+98.8555+271.302+98.8555L251.07+98.8555Z" opacity="1" fill="#231f20"></path>
    <path d="M307.147+71.249C304.31+72.1+301.569+73.14+299.205+74.274C295.045+76.354+293.343+79.38+293.343+84.391C293.343+90.157+295.518+93.277+299.205+93.277C302.514+93.277+305.255+90.819+307.147+87.227L307.147+71.249ZM325.393+95.357C326.717+95.357+327.757+94.317+328.325+92.994C328.608+92.521+328.892+92.427+329.365+92.615L330.783+93.183C331.255+93.372+331.35+93.655+331.066+94.223C329.648+97.815+326.055+100.085+320.099+100.085C313.67+100.085+308.848+96.87+307.903+91.009L307.714+91.009C304.405+96.87+299.205+100.085+292.303+100.085C283.889+100.085+277.933+95.641+277.933+87.132C277.933+78.434+283.227+75.03+295.045+71.722C307.147+68.224+307.147+67.467+307.147+64.347L307.147+62.268C307.147+55.46+303.176+52.718+297.409+52.718C294.573+52.718+292.02+53.379+289.845+54.419C291.358+56.689+291.925+59.053+291.925+60.943C291.925+63.874+290.507+66.238+286.158+66.238C282.092+66.238+279.634+64.631+279.634+61.038C279.634+54.987+289.467+48.369+301.947+48.369C312.63+48.369+322.747+52.339+322.747+64.158L322.747+89.212C322.747+93.939+323.597+95.357+325.393+95.357" opacity="1" fill="#231f20"></path>
    <path d="M371.04+98.8555C370.473+98.8555+370.284+98.7605+370.284+98.1935L370.284+96.3975C370.284+95.8305+370.473+95.7355+371.04+95.6405L373.687+95.5465C376.051+95.4525+376.145+94.8845+376.145+87.6995L376.145+64.4415C376.145+57.5405+373.404+54.9865+368.582+54.9865C363.854+54.9865+361.019+57.9175+358.938+61.9835L358.938+87.6995C358.938+94.8845+359.033+95.4525+361.396+95.5465L364.044+95.6405C364.611+95.7355+364.801+95.8305+364.801+96.3975L364.801+98.1935C364.801+98.7605+364.611+98.8555+364.044+98.8555L337.288+98.8555C336.721+98.8555+336.532+98.7605+336.532+98.1935L336.532+96.3975C336.532+95.8305+336.721+95.6405+337.288+95.6405L340.881+95.5465C343.244+95.4525+343.339+94.8845+343.339+87.6995L343.339+60.7545C343.339+53.4745+343.244+53.0015+340.881+52.9065L337.288+52.7185C336.721+52.7185+336.532+52.6235+336.532+52.0565L336.532+50.2595C336.532+49.6925+336.721+49.5985+337.288+49.5985L357.331+49.5985C357.898+49.5985+358.183+49.9765+358.183+50.8265L358.183+57.9175L358.371+57.9175C361.303+52.4345+366.691+48.3685+375.39+48.3685C383.142+48.3685+391.745+51.9615+391.745+64.8205L391.745+87.6995C391.745+94.8845+391.84+95.4525+394.203+95.5465L397.891+95.6405C398.458+95.6405+398.553+95.8305+398.553+96.3975L398.553+98.1935C398.553+98.7605+398.458+98.8555+397.891+98.8555L371.04+98.8555Z" opacity="1" fill="#231f20"></path>
    <path d="M422.18+100.085C417.453+100.085+412.443+99.139+409.039+97.153L408.755+98.666C408.66+99.233+408.567+99.423+408.093+99.423L406.58+99.423C405.919+99.423+405.825+99.328+405.825+98.666L405.162+82.783C405.162+82.216+405.257+82.121+405.825+82.121L407.715+82.121C408.283+82.121+408.377+82.216+408.472+82.783L408.755+84.863C409.512+90.725+414.901+96.586+422.086+96.586C427.57+96.586+430.973+94.317+430.973+90.063C430.973+85.147+426.245+82.783+419.911+79.947C412.726+76.732+406.014+72.762+406.014+63.496C406.014+54.797+413.293+48.369+425.3+48.369C429.366+48.369+433.809+49.314+436.741+51.111L436.929+49.693C437.024+49.126+437.118+48.841+437.686+48.841L439.199+48.841C439.766+48.841+439.86+49.126+439.86+49.693L439.86+64.347C439.86+65.009+439.766+65.198+439.104+65.198L437.307+65.198C436.741+65.198+436.646+65.009+436.646+64.347L436.551+63.118C436.362+56.217+431.256+51.867+425.584+51.867C420.951+51.867+418.682+54.042+418.682+57.256C418.682+61.795+423.032+63.969+429.555+67.089C437.402+70.776+443.925+74.369+443.925+84.012C443.925+94.317+433.998+100.085+422.18+100.085" opacity="1" fill="#231f20"></path>
    <path d="M480.723+71.249C477.886+72.1+475.145+73.14+472.781+74.274C468.621+76.354+466.919+79.38+466.919+84.391C466.919+90.157+469.094+93.277+472.781+93.277C476.09+93.277+478.831+90.819+480.723+87.227L480.723+71.249ZM498.969+95.357C500.293+95.357+501.333+94.317+501.901+92.994C502.184+92.521+502.468+92.427+502.941+92.615L504.359+93.183C504.831+93.372+504.926+93.655+504.642+94.223C503.224+97.815+499.631+100.085+493.675+100.085C487.246+100.085+482.424+96.87+481.479+91.009L481.29+91.009C477.981+96.87+472.781+100.085+465.879+100.085C457.465+100.085+451.509+95.641+451.509+87.132C451.509+78.434+456.803+75.03+468.621+71.722C480.723+68.224+480.723+67.467+480.723+64.347L480.723+62.268C480.723+55.46+476.752+52.718+470.985+52.718C468.149+52.718+465.596+53.379+463.421+54.419C464.934+56.689+465.501+59.053+465.501+60.943C465.501+63.874+464.083+66.238+459.734+66.238C455.668+66.238+453.21+64.631+453.21+61.038C453.21+54.987+463.043+48.369+475.523+48.369C486.206+48.369+496.323+52.339+496.323+64.158L496.323+89.212C496.323+93.939+497.173+95.357+498.969+95.357" opacity="1" fill="#231f20"></path>
    <path d="M527.731+100.085C523.004+100.085+517.994+99.139+514.59+97.153L514.306+98.666C514.211+99.233+514.118+99.423+513.644+99.423L512.131+99.423C511.47+99.423+511.376+99.328+511.376+98.666L510.713+82.783C510.713+82.216+510.808+82.121+511.376+82.121L513.266+82.121C513.834+82.121+513.928+82.216+514.023+82.783L514.306+84.863C515.063+90.725+520.452+96.586+527.637+96.586C533.121+96.586+536.524+94.317+536.524+90.063C536.524+85.147+531.796+82.783+525.462+79.947C518.277+76.732+511.565+72.762+511.565+63.496C511.565+54.797+518.844+48.369+530.851+48.369C534.917+48.369+539.36+49.314+542.292+51.111L542.48+49.693C542.575+49.126+542.669+48.841+543.237+48.841L544.75+48.841C545.317+48.841+545.411+49.126+545.411+49.693L545.411+64.347C545.411+65.009+545.317+65.198+544.655+65.198L542.858+65.198C542.292+65.198+542.197+65.009+542.197+64.347L542.102+63.118C541.913+56.217+536.807+51.867+531.135+51.867C526.502+51.867+524.233+54.042+524.233+57.256C524.233+61.795+528.583+63.969+535.106+67.089C542.953+70.776+549.476+74.369+549.476+84.012C549.476+94.317+539.549+100.085+527.731+100.085" opacity="1" fill="#231f20"></path>
    <path d="M79.7012+95.0391L79.7012+93.4241L80.7782+93.4241C81.3302+93.4241+81.9172+93.5431+81.9172+94.1891C81.9172+94.9921+81.3172+95.0391+80.6462+95.0391L79.7012+95.0391ZM79.7012+95.7111L80.6112+95.7111L81.9882+97.9751L82.8752+97.9751L81.3892+95.6741C82.1562+95.5801+82.7432+95.1721+82.7432+94.2361C82.7432+93.2071+82.1332+92.7521+80.8982+92.7521L78.9102+92.7521L78.9102+97.9751L79.7012+97.9751L79.7012+95.7111ZM76.9702+95.3511C76.9702+93.2071+78.5872+91.5901+80.6592+91.5901C82.7072+91.5901+84.3252+93.2071+84.3252+95.3511C84.3252+97.5331+82.7072+99.1371+80.6592+99.1371C78.5872+99.1371+76.9702+97.5331+76.9702+95.3511M80.6592+99.8911C83.1272+99.8911+85.2352+97.9751+85.2352+95.3511C85.2352+92.7521+83.1272+90.8361+80.6592+90.8361C78.1672+90.8361+76.0582+92.7521+76.0582+95.3511C76.0582+97.9751+78.1672+99.8911+80.6592+99.8911" opacity="1" fill="#005db9"></path>
    <path d="M164.524+95.0391L164.524+93.4241L165.602+93.4241C166.153+93.4241+166.741+93.5431+166.741+94.1891C166.741+94.9921+166.141+95.0391+165.47+95.0391L164.524+95.0391ZM164.524+95.7111L165.435+95.7111L166.812+97.9751L167.699+97.9751L166.213+95.6741C166.98+95.5801+167.567+95.1721+167.567+94.2361C167.567+93.2071+166.956+92.7521+165.722+92.7521L163.733+92.7521L163.733+97.9751L164.524+97.9751L164.524+95.7111ZM161.793+95.3511C161.793+93.2071+163.41+91.5901+165.483+91.5901C167.531+91.5901+169.148+93.2071+169.148+95.3511C169.148+97.5331+167.531+99.1371+165.483+99.1371C163.41+99.1371+161.793+97.5331+161.793+95.3511M165.483+99.8911C167.95+99.8911+170.058+97.9751+170.058+95.3511C170.058+92.7521+167.95+90.8361+165.483+90.8361C162.991+90.8361+160.883+92.7521+160.883+95.3511C160.883+97.9751+162.991+99.8911+165.483+99.8911" opacity="1" fill="#005db9"></path>
    <path d="M72.0088+98.6953L72.0088+73.8833L96.8208+73.8833L96.8208+34.2143L72.0088+34.2143L72.0088+9.4033L32.4778+9.4033L32.4778+34.2143L7.66679+34.2143L7.66679+73.8833L32.4778+73.8833L32.4778+98.6953L72.0088+98.6953Z" opacity="1" fill="#005db9"></path>
    <path d="M29.3677+45.479L45.8157+47.069C48.9017+47.495+49.2617+50.49+48.4417+52.287L37.1777+73.435L37.1917+73.404C31.4767+68.918+27.8057+61.946+27.8057+54.118C27.8057+51.076+28.3597+48.163+29.3737+45.475L29.3677+45.479Z" opacity="1" fill="#ffffff"></path>
    <path d="M52.3813+32.728C49.4793+32.728+48.5803+36.011+49.8593+37.704C51.0173+39.204+51.2383+39.648+51.1773+41.057C51.1263+42.242+50.0323+43.698+47.5433+43.752L30.1003+43.751C34.0053+35.398+42.4833+29.611+52.3123+29.611" opacity="1" fill="#ffffff"></path>
    <path d="M31.8101+49.0977L44.2611+50.2477C45.1591+50.3177+45.2291+50.6977+45.0211+51.2157L36.3001+67.8667C33.1271+64.1717+31.2091+59.3687+31.2091+54.1187C31.2091+52.3877+31.4171+50.7077+31.8101+49.0977" opacity="1" fill="#005db9"></path>
    <path d="M46.4497+33.8398C45.2057+35.9138+46.2137+38.6108+47.3877+39.8898C47.6067+40.1088+47.4977+40.3418+47.3027+40.3998L36.2737+40.4018C38.9177+37.3138+42.4387+34.9978+46.4497+33.8398" opacity="1" fill="#005db9"></path>
    <path d="M75.2573+45.479L58.8093+47.069C55.7233+47.495+55.3633+50.49+56.1823+52.287L67.4483+73.435L67.4343+73.404C73.1483+68.918+76.8193+61.946+76.8193+54.118C76.8193+51.076+76.2643+48.163+75.2513+45.475L75.2573+45.479Z" opacity="1" fill="#ffffff"></path>
    <path d="M52.2437+32.728C55.1457+32.728+56.0447+36.011+54.7657+37.704C53.6077+39.204+53.3857+39.648+53.4467+41.057C53.4987+42.242+54.5927+43.698+57.0807+43.752L74.5247+43.751C70.6187+35.398+62.1407+29.611+52.3127+29.611" opacity="1" fill="#ffffff"></path>
    <path d="M72.8145+49.0977L60.3635+50.2477C59.4645+50.3177+59.3965+50.6977+59.6035+51.2157L68.3245+67.8667C71.4985+64.1717+73.4155+59.3687+73.4155+54.1187C73.4155+52.3877+73.2075+50.7077+72.8145+49.0977" opacity="1" fill="#005db9"></path>
    <path d="M58.1748+33.8398C59.4198+35.9138+58.4108+38.6108+57.2368+39.8898C57.0178+40.1088+57.1268+40.3418+57.3228+40.3998L68.3508+40.4018C65.7068+37.3138+62.1868+34.9978+58.1748+33.8398" opacity="1" fill="#005db9"></path>
    <path d="M52.3125+78.625C57.2905+78.625+61.9215+77.141+65.7885+74.59L65.7895+74.609L53.8415+56.749C53.0035+55.602+51.6665+55.504+50.7835+56.749L38.8355+74.609L38.8365+74.59C42.7035+77.141+47.3345+78.625+52.3125+78.625" opacity="1" fill="#ffffff"></path>
    <path d="M145.791+99.6572C162.926+90.1822+173.313+75.1142+178.665+58.5672C184.219+41.3972+183.296+21.0902+176.863+8.4342C167.077+13.3662+157.234+15.8372+145.79+15.8702C134.348+15.9052+124.503+13.3662+114.718+8.4342C108.286+21.0902+107.362+41.3972+112.916+58.5672C118.267+75.1142+128.655+90.1822+145.79+99.6572L145.791+99.6572Z" opacity="1" fill="#005db9"></path>
    <path d="M145.773+91.9863C159.879+83.2523+167.392+70.7393+172.205+56.6043C176.477+44.0573+177.522+29.3803+172.823+17.9193C165.776+20.3393+161.645+21.0873+157.808+21.6863C154.235+22.2443+151.041+22.5823+145.809+22.6533L145.773+22.6533C140.541+22.5823+137.347+22.2443+133.773+21.6863C129.937+21.0873+125.806+20.3393+118.758+17.9193C114.061+29.3803+115.105+44.0573+119.377+56.6043C124.19+70.7393+131.703+83.2523+145.809+91.9863L145.773+91.9863Z" opacity="1" fill="#ffffff"></path>
    <path d="M145.781+88.5156C155.32+82.5216+166.136+68.9026+170.458+50.9896C172.752+41.4816+173.392+30.8036+170.403+22.3326C166.132+23.4716+162.145+24.4146+158.023+24.9696C153.899+25.5246+149.821+25.9276+145.807+25.9536L145.774+25.9536C141.76+25.9276+137.681+25.5246+133.559+24.9696C129.435+24.4146+125.449+23.4716+121.178+22.3326C118.189+30.8036+118.829+41.4816+121.123+50.9896C125.445+68.9026+136.261+82.5216+145.801+88.5156L145.781+88.5156Z" opacity="1" fill="#005db9"></path>
    <path d="M136.048+32.3164C132.825+33.9924+131.708+37.9334+133.156+41.1124C134.413+43.8684+136.893+45.6984+139.772+46.5544C141.214+46.9834+142.675+47.0934+144.17+47.1664C145.996+47.2564+147.652+47.3094+149.412+47.7564C149.783+47.8514+150.192+48.0714+150.387+48.4384C150.855+49.3174+150.429+50.2824+149.505+50.5494C149.485+52.0874+149.351+55.1754+149.351+55.1754C149.351+55.1754+156.831+54.4644+155.566+47.7334C155.263+46.1214+153.995+44.4714+152.549+43.7284C148.795+41.7974+144.673+42.6334+140.828+41.3904C139.534+40.9714+137.733+40.3294+137.38+38.8754C137.238+38.2924+137.366+37.1274+137.965+36.9364C138.934+36.6284+140.009+37.4404+141.418+37.7674C142.305+37.9734+143.189+37.9674+143.888+37.7584C144.196+37.6664+144.653+37.5444+144.69+37.3664C144.652+37.2064+144.301+37.0664+144.122+36.9754C143.691+36.7514+143.241+36.6504+142.771+36.4704C141.994+36.1744+141.22+35.8034+140.439+35.3654C141.176+35.2144+142.413+35.1764+143.147+35.2634C143.735+35.3324+145.548+35.3114+146.09+35.1684C146.206+35.1374+146.476+35.0344+146.357+34.8334C146.148+34.4774+145.793+34.3454+145.551+34.0174C145.022+33.2974+144.565+32.5554+143.71+32.2254C141.246+31.2784+138.502+31.0414+136.048+32.3164" opacity="1" fill="#ffffff"></path>
    <path d="M148.54+56.333L148.58+48.481C148.58+48.481+147.571+48.269+146.16+48.176C144.325+48.055+143.49+48.082+143.49+48.082L143.488+48.741C143.488+48.741+142.599+49.116+142.464+49.355C142.402+49.464+142.169+49.762+142.277+50.052C143.005+51.994+144.004+53.879+144.29+55.95C145.658+56.142+146.869+56.102+148.54+56.333" opacity="1" fill="#ffffff"></path>
    <path d="M139.147+55.1445C138.814+58.2245+140.83+59.8725+143.051+60.4045C144.809+60.8245+146.518+60.9125+148.348+61.1285C148.579+61.1555+149.072+61.1655+149.439+61.3265C149.765+61.4685+149.927+61.6575+149.987+61.8615C150.073+62.1495+150.041+62.3725+149.853+62.6005C149.653+62.8445+149.128+62.9835+149.128+62.9835L149.022+66.6865C149.022+66.6865+150.515+66.6285+151.722+65.9025C152.867+65.2145+153.576+64.3405+153.83+63.2365C154.125+61.9595+153.92+60.7115+153.02+59.4705C152.423+58.6485+151.378+58.0565+150.32+57.6855C148.137+56.9205+145.769+57.0345+143.503+56.7125C143.16+56.6655+142.844+56.3995+142.812+56.0835C142.754+55.5145+143.29+55.2485+143.29+55.2485C143.29+55.2485+143.021+54.3675+142.732+53.5055C142.479+52.8545+142.114+51.9515+141.852+51.4685C140.315+52.1295+139.318+53.5525+139.147+55.1445" opacity="1" fill="#ffffff"></path>
    <path d="M148.349+61.9902L148.291+68.6362L146.626+67.8722L144.981+67.1912L144.944+61.6442C146.419+61.8192+147.096+61.8342+148.349+61.9902" opacity="1" fill="#ffffff"></path>
    <path d="M140.906+65.6533C139.997+67.8033+141.136+69.9103+142.949+70.8023C143.894+71.2663+145.135+71.6863+146.156+72.0833C147.155+72.4663+148.921+73.5553+149.056+74.0833C149.139+74.4113+148.76+74.7173+148.76+74.7173L148.717+77.3173C148.717+77.3173+149.801+77.0893+150.6+76.4293C151.352+75.8073+151.902+74.9993+151.895+73.7063C151.887+72.2843+151.227+71.1793+149.207+69.9963C147.639+69.0773+145.737+68.3373+144.26+67.6833C144.045+67.5893+143.852+67.1683+143.933+66.9113C144.021+66.6353+144.194+66.5333+144.194+66.5333L144.157+63.5343C144.157+63.5343+143.022+63.7603+142.485+64.0773C141.989+64.3713+141.241+64.8613+140.906+65.6533" opacity="1" fill="#ffffff"></path>
    <path d="M148.077+74.4893C148.091+74.2753+148.017+74.2483+147.919+74.1023C147.475+73.6383+146.834+73.3183+146.68+73.2253C146.216+72.9533+145.19+72.5733+145.19+72.5733C145.19+72.5733+145.264+79.3723+145.387+82.8853C145.415+83.6833+145.863+83.8903+146.627+83.9353C147.566+83.9883+147.836+83.3963+147.849+83.0583C147.89+81.9363+148.028+77.0523+148.077+74.4893" opacity="1" fill="#ffffff"></path>
    <path d="M148.794+30.7368C149.132+30.9868+149.132+31.0038+149.236+31.5028C149.464+32.5908+149.224+34.2888+149.439+35.0378C149.551+35.2798+149.794+35.2698+149.977+35.1718C151.483+34.3568+152.504+32.9568+154.031+32.3098C154.747+32.0058+156.729+33.0028+156.269+34.4958C156.054+35.1928+155.738+35.2998+155.302+35.7538C154.417+36.6758+153.16+37.5478+152.064+38.7438C151.323+39.5528+150.423+40.1428+149.854+41.0588C149.674+41.3468+149.372+41.7468+149.372+41.7468C147.257+41.3168+145.13+41.3918+143.481+41.0548L143.475+38.6028C143.475+38.6028+145.157+38.3228+145.472+37.4908C145.498+37.4228+145.45+37.1398+145.207+36.9598C144.921+36.7458+144.424+36.5258+144.272+36.4718C145.96+36.7378+147.007+37.0158+148.638+37.7268C148.746+37.5498+148.685+37.1508+148.56+37.0108C148.338+36.7568+148.218+36.6748+147.643+36.5388C146.644+36.2808+143.937+35.9478+143.937+35.9478C143.937+35.9478+145.191+35.9418+146.239+35.7698C146.751+35.6858+147.169+35.5908+147.281+35.4168C147.402+35.1498+147.182+34.7608+146.822+34.3788C146.585+34.1238+146.315+33.8568+146.117+33.5938C145.872+33.2558+145.467+32.6368+145.025+32.2458C144.643+31.9058+143.687+31.4158+143.687+31.4158C143.687+31.4158+143.52+30.0968+143.785+29.5688C143.982+29.1778+144.494+28.9518+144.768+29.0838C145.977+29.7618+147.173+30.4568+148.794+30.7368" opacity="1" fill="#ffffff"></path>
    <path d="M143.46+33.2695C143.148+33.4895+142.931+33.7145+142.582+33.7705C141.889+33.8855+141.989+33.2815+141.512+32.9445C141.22+32.7395+140.944+33.0035+140.682+32.5205C141.688+32.5485+143.008+32.4555+143.762+33.2275C143.668+33.1785+143.503+33.2395+143.46+33.2695" opacity="1" fill="#005db9"></path>
    <path d="M51.9668+60.7891C52.1598+60.5311+52.4308+60.5151+52.6578+60.7891L60.8998+73.4011C58.2768+74.5721+55.3708+75.2221+52.3128+75.2221C49.2548+75.2221+46.3478+74.5721+43.7248+73.4011L51.9668+60.7891C52.1948+60.5151+52.4658+60.5311+52.6578+60.7891" opacity="1" fill="#005db9"></path>
    <path d="M143.549+77.002C143.14+77.428+142.458+78.298+142.336+79.685C142.228+80.925+142.515+81.273+142.827+81.942C143.083+82.49+143.681+82.456+143.894+81.948C144.067+81.533+143.816+81.147+143.974+80.233C144.09+79.568+144.618+79.203+144.618+79.203L144.565+76.181C144.565+76.181+144.096+76.43+143.549+77.002" opacity="1" fill="#ffffff"></path>
    <path d="M291.8+27.8433L295.447+27.8433C298.197+27.8433+299.18+25.8793+299.18+24.3923C299.18+21.1643+297.188+20.6043+294.55+20.6043L291.8+20.6043L291.8+27.8433ZM291.8+18.3593L295.56+18.3593C297.58+18.3303+298.563+17.0963+298.563+15.1323C298.563+13.4483+297.609+12.0733+295.447+12.0733L291.8+12.0733L291.8+18.3593ZM289.218+30.0883L289.218+9.8283L295.813+9.8283C298.618+9.8283+299.572+10.7823+300.33+11.9053C301.031+12.9993+301.144+14.2053+301.144+14.5993C301.144+17.1243+300.274+18.8083+297.664+19.3973L297.664+19.5373C300.555+19.8743+301.818+21.6143+301.818+24.3923C301.818+29.5833+298.029+30.0883+295.728+30.0883L289.218+30.0883Z" opacity="1" fill="#231f20"></path>
    <path d="M309.258+30.088L306.956+30.088L306.956+9.828L309.258+9.828L309.258+30.088Z" opacity="1" fill="#231f20"></path>
    <path d="M321.634+15.9175L323.935+15.9175L323.935+27.1425C323.935+28.1245+323.991+29.1055+324.075+30.0885L321.634+30.0885L321.634+28.3765L321.55+28.3765C320.792+29.6675+319.446+30.3685+317.958+30.3685C315.488+30.3685+314.142+29.1345+314.142+26.7215L314.142+15.9175L316.443+15.9175L316.443+25.7385C316.443+27.4505+317.229+28.6015+318.856+28.6015C320.091+28.6015+321.634+27.6755+321.634+25.3175L321.634+15.9175Z" opacity="1" fill="#231f20"></path>
    <path d="M336.228+22.0073C336.228+17.8823+335.078+17.3763+333.394+17.3763C331.935+17.3763+330.728+18.0783+330.701+22.0073L336.228+22.0073ZM330.701+23.7463C330.701+27.7033+331.767+28.4883+333.563+28.4883C335.134+28.4883+335.948+27.2263+336.032+25.7953L338.557+25.7953C338.53+28.9383+336.593+30.3683+333.619+30.3683C330.616+30.3683+328.231+29.4713+328.231+23.2133C328.231+19.0603+328.707+15.6373+333.619+15.6373C337.66+15.6373+338.669+17.8543+338.669+22.5393L338.669+23.7463L330.701+23.7463Z" opacity="1" fill="#231f20"></path>
    <path d="M352.704+15.4126C352.732+14.2626+352.648+13.1116+352.115+12.4666C351.582+11.8206+350.375+11.5966+349.842+11.5966C347.709+11.5966+346.867+12.8876+346.783+13.1676C346.699+13.3916+346.194+13.8966+346.194+17.3766L346.194+22.7926C346.194+27.7596+347.821+28.3486+349.813+28.3486C350.6+28.3486+352.984+28.0676+353.013+24.1116L355.679+24.1116C355.791+30.5096+351.273+30.5096+349.954+30.5096C347.429+30.5096+343.557+30.3416+343.557+22.4836L343.557+16.7596C343.557+11.0346+346.082+9.4076+350.066+9.4076C354.079+9.4076+355.622+11.4836+355.37+15.4126L352.704+15.4126Z" opacity="1" fill="#231f20"></path>
    <path d="M362.838+18.0503L362.895+18.0503C363.849+15.8893+365.027+15.6373+367.272+15.6373L367.272+18.0223C367.075+17.9933+366.851+17.9663+366.654+17.9383C366.458+17.9093+366.262+17.8823+366.037+17.8823C363.484+17.8823+362.838+19.8183+362.838+21.7263L362.838+30.0883L360.537+30.0883L360.537+15.9173L362.838+15.9173L362.838+18.0503Z" opacity="1" fill="#231f20"></path>
    <path d="M379.172+22.231C379.172+18.359+377.966+17.517+376.198+17.517C374.43+17.517+373.224+18.359+373.224+22.231C373.224+26.834+373.813+28.489+376.198+28.489C378.583+28.489+379.172+26.834+379.172+22.231M370.811+23.213C370.811+19.06+371.287+15.637+376.198+15.637C381.109+15.637+381.586+19.06+381.586+23.213C381.586+29.471+379.2+30.369+376.198+30.369C373.195+30.369+370.811+29.471+370.811+23.213" opacity="1" fill="#231f20"></path>
    <path d="M390.007+30.3687C386.948+30.3687+385.04+29.0217+385.125+25.7667L387.735+25.7667C387.735+26.5807+387.763+28.4887+390.092+28.4887C391.466+28.4887+392.532+27.7877+392.532+26.3287C392.532+23.8027+385.461+23.7467+385.461+19.5097C385.461+18.0217+386.36+15.6377+390.344+15.6377C392.869+15.6377+395.03+16.8437+394.834+19.6497L392.28+19.6497C392.309+18.1627+391.523+17.3767+390.064+17.3767C388.828+17.3767+387.874+18.0507+387.874+19.2847C387.874+21.7827+394.946+21.7257+394.946+26.0477C394.946+29.1627+392.814+30.3687+390.007+30.3687" opacity="1" fill="#231f20"></path>
    <path d="M403.198+30.3687C400.139+30.3687+398.231+29.0217+398.316+25.7667L400.926+25.7667C400.926+26.5807+400.954+28.4887+403.283+28.4887C404.657+28.4887+405.723+27.7877+405.723+26.3287C405.723+23.8027+398.652+23.7467+398.652+19.5097C398.652+18.0217+399.551+15.6377+403.535+15.6377C406.06+15.6377+408.221+16.8437+408.025+19.6497L405.471+19.6497C405.5+18.1627+404.714+17.3767+403.255+17.3767C402.019+17.3767+401.065+18.0507+401.065+19.2847C401.065+21.7827+408.137+21.7257+408.137+26.0477C408.137+29.1627+406.005+30.3687+403.198+30.3687" opacity="1" fill="#231f20"></path>
    <path d="M424.165+27.8433L427.812+27.8433C430.562+27.8433+431.545+25.8793+431.545+24.3923C431.545+21.1643+429.553+20.6043+426.915+20.6043L424.165+20.6043L424.165+27.8433ZM424.165+18.3593L427.925+18.3593C429.945+18.3303+430.928+17.0963+430.928+15.1323C430.928+13.4483+429.974+12.0733+427.812+12.0733L424.165+12.0733L424.165+18.3593ZM421.583+30.0883L421.583+9.8283L428.178+9.8283C430.983+9.8283+431.937+10.7823+432.695+11.9053C433.396+12.9993+433.509+14.2053+433.509+14.5993C433.509+17.1243+432.639+18.8083+430.029+19.3973L430.029+19.5373C432.92+19.8743+434.183+21.6143+434.183+24.3923C434.183+29.5833+430.394+30.0883+428.093+30.0883L421.583+30.0883Z" opacity="1" fill="#231f20"></path>
    <path d="M441.623+30.088L439.321+30.088L439.321+9.828L441.623+9.828L441.623+30.088Z" opacity="1" fill="#231f20"></path>
    <path d="M453.999+15.9175L456.3+15.9175L456.3+27.1425C456.3+28.1245+456.356+29.1055+456.44+30.0885L453.999+30.0885L453.999+28.3765L453.915+28.3765C453.157+29.6675+451.811+30.3685+450.323+30.3685C447.853+30.3685+446.507+29.1345+446.507+26.7215L446.507+15.9175L448.808+15.9175L448.808+25.7385C448.808+27.4505+449.594+28.6015+451.221+28.6015C452.456+28.6015+453.999+27.6755+453.999+25.3175L453.999+15.9175Z" opacity="1" fill="#231f20"></path>
    <path d="M468.594+22.0073C468.594+17.8823+467.444+17.3763+465.76+17.3763C464.301+17.3763+463.094+18.0783+463.067+22.0073L468.594+22.0073ZM463.067+23.7463C463.067+27.7033+464.133+28.4883+465.929+28.4883C467.5+28.4883+468.314+27.2263+468.398+25.7953L470.923+25.7953C470.896+28.9383+468.959+30.3683+465.985+30.3683C462.982+30.3683+460.597+29.4713+460.597+23.2133C460.597+19.0603+461.073+15.6373+465.985+15.6373C470.026+15.6373+471.035+17.8543+471.035+22.5393L471.035+23.7463L463.067+23.7463Z" opacity="1" fill="#231f20"></path>
    <path d="M477.802+24.0552L477.802+24.6452C477.802+27.3942+479.541+28.2642+481.197+28.2642C483.245+28.2642+484.817+27.3942+484.817+24.9812C484.817+20.4922+475.725+20.9962+475.725+14.9082C475.725+11.3162+478.279+9.4082+481.674+9.4082C485.378+9.4082+487.454+11.2032+487.286+15.3282L484.592+15.3282C484.62+13.1122+483.919+11.6532+481.478+11.6532C479.934+11.6532+478.363+12.4382+478.363+14.6262C478.363+19.0882+487.454+18.4432+487.454+24.8682C487.454+29.1342+484.508+30.5092+481.169+30.5092C475.192+30.5652+475.192+25.9922+475.248+24.0552L477.802+24.0552Z" opacity="1" fill="#231f20"></path>
    <path d="M499.834+30.0884L499.834+20.4914C499.834+18.7514+499.272+17.5174+497.309+17.5174C495.008+17.5174+494.418+19.3684+494.418+21.7544L494.418+30.0884L492.117+30.0884L492.117+9.8284L494.418+9.8284L494.418+17.7414L494.53+17.7414C495.457+16.0864+496.522+15.6374+498.375+15.6374C500.788+15.6374+502.135+16.8434+502.135+20.0424L502.135+30.0884L499.834+30.0884Z" opacity="1" fill="#231f20"></path>
    <path d="M509.631+30.088L507.329+30.088L507.329+15.917L509.631+15.917L509.631+30.088ZM507.189+9.829L509.77+9.829L509.77+12.298L507.189+12.298L507.189+9.829Z" opacity="1" fill="#231f20"></path>
    <path d="M522.175+22.0073C522.175+17.8823+521.025+17.3763+519.341+17.3763C517.882+17.3763+516.675+18.0783+516.648+22.0073L522.175+22.0073ZM516.648+23.7463C516.648+27.7033+517.714+28.4883+519.51+28.4883C521.081+28.4883+521.895+27.2263+521.979+25.7953L524.504+25.7953C524.477+28.9383+522.54+30.3683+519.566+30.3683C516.563+30.3683+514.178+29.4713+514.178+23.2133C514.178+19.0603+514.654+15.6373+519.566+15.6373C523.607+15.6373+524.616+17.8543+524.616+22.5393L524.616+23.7463L516.648+23.7463Z" opacity="1" fill="#231f20"></path>
    <path d="M531.523+30.088L529.221+30.088L529.221+9.828L531.523+9.828L531.523+30.088Z" opacity="1" fill="#231f20"></path>
    <path d="M541.149+17.5171C538.68+17.5171+538.343+19.4811+538.343+23.2701C538.343+25.4021+538.343+28.4891+541.233+28.4891C543.815+28.4891+543.815+25.2891+543.815+22.4281C543.815+20.5471+543.703+17.5171+541.149+17.5171M543.815+9.8291L546.116+9.8291L546.116+30.0881L543.815+30.0881L543.815+28.4051L543.758+28.4051C542.973+29.7231+541.991+30.3691+540.503+30.3691C538.231+30.3691+535.93+29.4711+535.93+23.2421C535.93+19.7051+536.043+15.6371+540.616+15.6371C541.962+15.6371+542.945+16.2261+543.731+17.3491L543.815+17.3491L543.815+9.8291Z" opacity="1" fill="#231f20"></path>
        </svg>
