<svg width="100" height="91" viewBox="0 0 100 91" fill="none" xmlns="http://www.w3.org/2000/svg">
<path d="M50 67C62.1503 67 72 57.1503 72 45C72 32.8497 62.1503 23 50 23C37.8497 23 28 32.8497 28 45C28 57.1503 37.8497 67 50 67Z" fill="#F5AB00"/>
<path d="M41.9904 36.6101C43.1139 35.9839 44.5468 35.8367 45.9169 36.1825C46.5835 36.3508 47.1531 36.7815 47.4952 37.3759L48.7738 39.5978C49.5979 41.0299 49.2242 42.8492 47.9017 43.8435L47.1109 44.4382C46.7389 44.7178 46.585 45.1136 46.6608 45.4483C46.9018 46.5127 47.433 47.5008 48.1766 48.2285C48.3984 48.4456 48.7888 48.5201 49.2132 48.3584L50.089 48.0246C51.6139 47.4434 53.336 48.0648 54.1338 49.4842L55.3882 51.716C55.7342 52.3317 55.7921 53.0674 55.5464 53.7292C55.0583 55.0439 54.1184 56.1038 52.9619 56.6347C51.787 57.1742 50.4113 57.1523 49.1667 56.3251C47.1968 55.0159 44.8216 52.814 42.6708 49.1405C40.492 45.4191 39.9427 42.2502 40.0046 39.889C40.0442 38.3764 40.8469 37.2476 41.9904 36.6101ZM53.1062 44.55C53.1062 44.912 52.8117 45.2054 52.4484 45.2054C52.0851 45.2054 51.7906 44.912 51.7906 44.55C51.7906 44.188 52.0851 43.8946 52.4484 43.8946C52.8117 43.8946 53.1062 44.188 53.1062 44.55ZM53.764 43.8946C54.1273 43.8946 54.4218 43.6012 54.4218 43.2392C54.4218 42.8772 54.1273 42.5838 53.764 42.5838C53.4007 42.5838 53.1062 42.8772 53.1062 43.2392C53.1062 43.6012 53.4007 43.8946 53.764 43.8946ZM55.7375 41.9284C55.7375 42.2903 55.443 42.5838 55.0797 42.5838C54.7164 42.5838 54.4218 42.2903 54.4218 41.9284C54.4218 41.5664 54.7164 41.273 55.0797 41.273C55.443 41.273 55.7375 41.5664 55.7375 41.9284ZM59.6844 43.2392C59.6844 43.6012 59.9789 43.8946 60.3422 43.8946C60.7055 43.8946 61 43.6012 61 43.2392V36.6852C61 36.3232 60.7055 36.0298 60.3422 36.0298H53.764C53.4007 36.0298 53.1062 36.3232 53.1062 36.6852C53.1062 37.0471 53.4007 37.3406 53.764 37.3406H58.7541L55.9301 40.1541C55.6733 40.4101 55.6733 40.8251 55.9301 41.081C56.187 41.337 56.6035 41.337 56.8604 41.081L59.6844 38.2674V43.2392Z" fill="white"/>
</svg>
