<svg width="197" height="163" viewBox="0 0 197 163" fill="none" xmlns="http://www.w3.org/2000/svg">
    <path opacity="0.6" d="M134.337 2.36383C121.077 1.3669 107.834 4.51166 96.4373 11.3638C92.7465 13.5865 88.4582 14.6126 84.1612 14.3011C79.8641 13.9896 75.7688 12.3557 72.4373 9.62384C65.7692 4.16768 57.6032 0.862217 49.0174 0.143862C24.0974 -1.91614 2.07725 18.3939 0.147247 45.2139C-0.632312 55.4244 1.69636 65.6317 6.82718 74.4938C9.88016 79.7528 11.1039 85.8754 10.3072 91.9039C10.3072 92.0939 10.2573 92.2839 10.2373 92.4739C5.75734 129.254 31.9172 161.934 66.3672 162.604C76.9484 162.796 87.3619 159.943 96.3672 154.384C104.297 149.516 113.576 147.312 122.847 148.094H123.427C160.857 150.904 193.667 120.544 196.697 80.2839C199.727 40.0239 171.777 5.17383 134.337 2.36383Z" fill="#FDE8D7"/>
    <path d="M69.4173 155.264C60.4173 162.344 34.8074 154.174 34.7874 153.584C34.6774 150.474 35.6074 131.584 37.0274 113.514C37.8974 102.404 42.1772 97.954 41.3872 97.314C42.5166 98.1259 43.7994 98.6998 45.1575 99.0006C46.5156 99.3014 47.9207 99.323 49.2874 99.064C52.1511 98.6403 54.9864 98.0425 57.7774 97.2739C60.0564 101.773 61.6923 106.57 62.6372 111.524C66.5172 133.994 69.4173 155.264 69.4173 155.264Z" fill="#F46F67"/>
    <path d="M164.577 13.0239C158.577 6.37387 123.577 6.02384 116.637 10.1138C106.157 16.2838 113.637 41.8539 118.467 44.6839C120.199 45.6348 121.986 46.4829 123.817 47.2239C125.714 51.149 128.506 54.5742 131.967 57.2239C131.967 57.2239 130.397 53.0739 130.967 50.0039C139.407 52.9339 149.587 55.4139 156.527 54.5639C167.787 53.1739 170.537 19.6839 164.577 13.0239Z" fill="#9BCDCA"/>
    <path d="M156.827 23.734C156.887 23.4774 156.927 23.2166 156.947 22.954C157.047 21.9606 156.756 20.9674 156.137 20.184C155.557 19.404 154.667 19.2639 153.407 19.7539C152.976 19.4114 152.525 19.0942 152.057 18.804C152.057 18.674 152.057 18.544 152.057 18.424C152.009 17.5808 151.721 16.769 151.227 16.084C150.077 14.796 148.47 14.0068 146.747 13.8839C146.335 13.3411 145.85 12.8568 145.307 12.444C144.537 11.8738 143.646 11.4873 142.703 11.314C141.76 11.1407 140.79 11.1851 139.867 11.444C138.75 11.7304 137.684 12.1892 136.707 12.804C135.659 12.9272 134.642 13.2425 133.707 13.734C132.491 14.3856 131.427 15.2889 130.587 16.3839C129.806 16.3413 129.025 16.4726 128.3 16.7683C127.576 17.064 126.926 17.5168 126.397 18.094C125.157 19.6377 124.489 21.5635 124.507 23.544C124.458 24.2331 124.458 24.9248 124.507 25.6139C124.036 25.9695 123.644 26.4204 123.358 26.9373C123.072 27.4541 122.898 28.0254 122.847 28.6139C122.709 29.525 122.775 30.4556 123.042 31.3378C123.308 32.22 123.768 33.0318 124.387 33.714C124.168 35.6637 124.239 37.635 124.597 39.564C124.813 41.0525 125.394 42.4645 126.287 43.674C123.997 47.204 120.957 50.224 115.907 50.974C114.812 51.1101 113.701 51.0286 112.637 50.734C111.537 49.5099 110.267 48.4492 108.867 47.584C106.917 46.3326 104.721 45.5142 102.427 45.184C100.419 44.9081 98.3756 45.0545 96.4274 45.6139C94.159 46.2766 92.0453 47.3847 90.2098 48.8733C88.3744 50.3619 86.8541 52.2012 85.7374 54.284C84.7336 56.2825 84.1838 58.4783 84.1273 60.714C84.0945 64.411 85.3939 67.9962 87.7875 70.814C89.1609 72.4874 90.9867 73.7301 93.0472 74.394L93.4474 74.524C93.7249 74.6819 94.012 74.8223 94.3072 74.944C94.5172 75.084 94.7274 75.204 94.9374 75.324C96.9391 76.4001 99.2656 76.706 101.477 76.184C103.772 76.0952 106.009 75.4389 107.987 74.274C108.679 73.8724 109.346 73.4317 109.987 72.954C111.705 71.6977 113.165 70.1223 114.287 68.314C115.649 66.1107 116.399 63.5836 116.457 60.9939C116.474 60.3997 116.451 59.8051 116.387 59.214C116.406 58.8809 116.406 58.5471 116.387 58.214C116.355 56.4705 115.686 54.7989 114.507 53.5139C114.08 52.7589 113.591 52.0398 113.047 51.3639C113.977 51.5621 114.934 51.6028 115.877 51.484C118.142 51.1606 120.29 50.2772 122.127 48.914C123.011 48.2476 123.825 47.4938 124.557 46.664C125.283 45.8441 125.951 44.9754 126.557 44.064C126.937 44.4281 127.386 44.7136 127.877 44.9041C128.368 45.0946 128.891 45.1863 129.417 45.174H130.017C130.148 45.6591 130.43 46.09 130.822 46.4046C131.214 46.7191 131.695 46.9011 132.197 46.924C134.513 47.3936 136.919 47.0138 138.977 45.854C139.577 46.1243 140.191 46.3613 140.817 46.564C141.914 46.9458 143.097 47.0081 144.227 46.7439C145.398 46.4532 146.469 45.8521 147.327 45.0039C148.137 44.2117 148.812 43.293 149.327 42.284C149.981 42.2878 150.624 42.1151 151.187 41.784C152.096 41.2338 152.885 40.5084 153.51 39.6499C154.135 38.7915 154.583 37.8172 154.827 36.784C155.001 36.1285 155.118 35.4594 155.177 34.784C155.818 34.0035 156.371 33.1551 156.827 32.2539C157.536 30.9459 157.908 29.4817 157.908 27.9939C157.908 26.5062 157.536 25.042 156.827 23.734ZM108.667 47.924C109.815 48.6299 110.873 49.4728 111.817 50.434C111.497 50.344 111.177 50.2339 110.817 50.1239C110.06 49.2505 109.201 48.4715 108.257 47.804C107.853 47.5194 107.432 47.259 106.997 47.024C107.573 47.2872 108.131 47.5879 108.667 47.924ZM114.797 59.394C114.797 59.644 114.877 59.8839 114.907 60.1339C114.915 60.6086 114.889 61.0832 114.827 61.554C114.232 65.1974 112.42 68.5318 109.687 71.0139L109.457 71.184C107.99 72.2602 106.364 73.1003 104.637 73.674L105.047 73.454C107.951 71.9407 110.459 69.7655 112.367 67.104C113.984 64.8617 114.836 62.1582 114.797 59.394ZM113.797 66.8839C112.685 69.2188 110.916 71.1788 108.707 72.524C109.107 72.194 109.507 71.854 109.887 71.524C111.266 70.5063 112.428 69.2248 113.307 67.7539C113.417 67.4439 113.597 67.1739 113.757 66.8839H113.797ZM106.797 73.354L106.457 73.564L105.927 73.734L106.797 73.354ZM112.047 66.834C109.641 70.1475 106.318 72.6848 102.487 74.1339C101.927 74.112 101.369 74.0519 100.817 73.954H100.657C102.942 73.4386 105.099 72.4658 106.997 71.094C109.203 69.982 110.997 68.1953 112.117 65.9939C112.38 65.4665 112.579 64.9092 112.707 64.334C112.787 64.154 112.867 63.974 112.937 63.794C113.191 63.1233 113.366 62.4253 113.457 61.714C113.818 60.62 113.934 59.4601 113.798 58.3162C113.661 57.1723 113.276 56.0724 112.667 55.094C110.747 51.804 107.467 49.834 103.197 49.394C102.767 49.394 102.347 49.324 101.927 49.314C99.4396 48.8813 96.8821 49.1054 94.5074 49.964C92.9235 50.5816 91.5016 51.5532 90.3507 52.8046C89.1999 54.056 88.3504 55.554 87.8673 57.184C86.9973 59.824 87.4974 63.464 89.2074 66.924C89.6093 67.7432 90.0704 68.532 90.5873 69.284C90.2273 68.974 89.8873 68.644 89.5873 68.284C88.3454 65.7433 87.4314 63.0551 86.8673 60.284C86.8673 60.164 86.8172 60.044 86.7972 59.924C87.011 57.8005 87.6942 55.7511 88.7972 53.924C89.468 53.0562 90.2215 52.2558 91.0472 51.534L91.8473 51.0039C94.7408 49.2841 98.0917 48.4916 101.449 48.7329C104.807 48.9743 108.01 50.238 110.627 52.354C112.047 53.4982 113.201 54.9383 114.007 56.574C114.465 58.3265 114.521 60.1599 114.169 61.9368C113.817 63.7137 113.068 65.3879 111.977 66.834H112.047ZM92.1674 70.484C91.1613 69.33 90.3107 68.049 89.6373 66.674C87.9873 63.324 87.4973 59.824 88.3273 57.304C88.7815 55.7395 89.5911 54.301 90.6925 53.1007C91.7939 51.9004 93.1576 50.9707 94.6774 50.3839C95.0174 50.2539 95.3574 50.144 95.6774 50.044H95.5572C94.4602 50.5037 93.4697 51.1845 92.6473 52.044C91.1239 52.9762 89.9044 54.3312 89.1373 55.944C88.0273 58.264 88.1373 62.9439 89.4073 66.0139C90.3111 68.0206 91.7376 69.7475 93.5375 71.0139C94.7046 71.8552 96.0314 72.4489 97.4364 72.7585C98.8414 73.068 100.295 73.0869 101.707 72.814C102.423 72.6839 103.131 72.5136 103.827 72.304C102.385 72.9922 100.837 73.4285 99.2474 73.594C96.6938 73.004 94.2701 71.9498 92.0973 70.484H92.1674ZM97.4974 73.6139C97.0037 73.5616 96.5171 73.4544 96.0472 73.294C95.2489 73.0018 94.5027 72.5831 93.8373 72.054C94.9831 72.6768 96.1811 73.1987 97.4174 73.6139H97.4974ZM105.297 50.8839C107.62 51.7561 109.638 53.2849 111.107 55.284C112.495 57.0721 113.152 59.32 112.947 61.574C112.943 61.6239 112.943 61.6741 112.947 61.724C112.904 61.0303 112.804 60.3412 112.647 59.664C112.07 57.3264 110.867 55.1902 109.167 53.484C107.025 51.3999 104.156 50.2308 101.167 50.224H101.247C102.605 50.173 103.959 50.3975 105.227 50.8839H105.297ZM104.837 50.1139C106.374 50.391 107.833 50.9998 109.111 51.8979C110.389 52.7959 111.456 53.9617 112.237 55.314C112.94 56.4638 113.329 57.7772 113.367 59.1239C113.072 57.6325 112.443 56.2273 111.527 55.0139C110.009 52.9448 107.926 51.358 105.527 50.444L104.837 50.1139ZM108.837 53.844C110.79 55.7997 112.045 58.344 112.407 61.084C112.298 62.3034 111.959 63.491 111.407 64.584C109.227 67.3327 106.235 69.3237 102.857 70.274C100.245 70.8916 97.5149 70.788 94.9574 69.974C94.44 69.6622 93.9543 69.3004 93.5074 68.894C91.8188 67.2258 90.6275 65.1206 90.0673 62.814C89.8373 59.344 91.0674 55.2239 94.4474 52.8739C96.5739 51.3579 99.1601 50.626 101.766 50.8029C104.371 50.9798 106.835 52.0545 108.737 53.844H108.837ZM89.0472 59.314C89.0569 60.5194 89.2184 61.7188 89.5275 62.8839C89.6021 64.489 90.0689 66.0513 90.8873 67.434C91.7833 68.8264 93.1165 69.8817 94.6774 70.434C96.5828 71.5321 98.7971 71.9714 100.977 71.684C106.757 71.114 110.157 67.9939 111.767 64.8639C111.947 64.6339 112.117 64.394 112.277 64.154C111.054 66.762 109.163 69.0008 106.797 70.644C105.183 71.4709 103.454 72.0507 101.667 72.3639C95.5274 73.5039 91.1973 68.974 89.9073 65.854C88.7073 62.914 88.5673 58.394 89.6273 56.184C89.9244 55.5521 90.3009 54.9607 90.7474 54.424C89.6952 55.85 89.0708 57.5461 88.9474 59.314H89.0472ZM92.9274 52.5139C94.5991 51.4891 96.4589 50.8091 98.3973 50.5139C96.8669 50.8827 95.4188 51.5339 94.1273 52.434C92.9051 53.3045 91.8763 54.4183 91.1053 55.7056C90.3344 56.9929 89.8379 58.4256 89.6473 59.914C89.6473 60.064 89.5973 60.2239 89.5873 60.3839C89.5472 60.0154 89.5307 59.6446 89.5375 59.274C89.4775 56.734 91.1073 54.1739 92.8273 52.5139H92.9274ZM90.7174 66.024C91.1552 66.8914 91.6993 67.701 92.3373 68.434C91.9546 68.0556 91.6189 67.6326 91.3373 67.174C91.0558 66.8182 90.8144 66.4326 90.6173 66.024H90.7174ZM98.0275 71.104C99.663 71.2125 101.305 71.0912 102.907 70.7439C105.322 70.0682 107.549 68.8469 109.417 67.174C107.137 69.5327 104.061 70.9585 100.787 71.174C99.8351 71.2738 98.8737 71.2503 97.9274 71.104H98.0275ZM94.7675 51.034C95.0819 50.8374 95.4173 50.6764 95.7675 50.554C97.446 50.0528 99.1858 49.7869 100.937 49.7639C98.7941 49.8587 96.6786 50.2872 94.6674 51.034H94.7675ZM89.1974 68.544C89.3074 68.774 89.4272 68.994 89.5472 69.204C89.7972 69.664 90.0473 70.0939 90.3173 70.5039C89.672 69.8275 89.0802 69.1021 88.5472 68.334C88.3272 67.924 88.1374 67.504 87.9574 67.074C88.3049 67.5884 88.6856 68.0794 89.0973 68.544H89.1974ZM87.2775 65.1139C86.9918 64.0792 86.8207 63.0162 86.7675 61.944C87.2051 63.6493 87.7665 65.3204 88.4474 66.944C87.9767 66.3683 87.552 65.7563 87.1774 65.1139H87.2775ZM91.2274 50.7439C91.7511 50.1973 92.3198 49.6955 92.9274 49.2439C95.0714 47.6257 97.7623 46.9081 100.427 47.2439C98.1934 47.3223 96.0059 47.9035 94.0275 48.944C93.0025 49.4445 92.0307 50.0475 91.1273 50.7439H91.2274ZM110.907 52.0039C108.094 49.6564 104.57 48.3281 100.907 48.234C98.6342 48.1592 96.3685 48.5295 94.2374 49.324C96.5886 48.0652 99.2515 47.5073 101.91 47.7165C104.569 47.9256 107.112 48.893 109.237 50.5039C110.724 51.496 112.021 52.7457 113.067 54.194V54.2639C112.402 53.4272 111.644 52.6689 110.807 52.0039H110.907ZM109.487 50.104H109.427L109.817 50.2539C110.237 50.5239 110.667 50.8139 111.117 51.1239C111.337 51.4039 111.547 51.694 111.757 51.984C111.03 51.2949 110.247 50.6662 109.417 50.104H109.487ZM101.487 45.8739C104.659 46.0621 107.648 47.4197 109.877 49.684C107.587 48.234 105.877 47.594 104.727 47.684C100.117 46.114 95.1573 45.564 90.3473 50.964C89.9224 51.434 89.5251 51.9281 89.1573 52.444C88.4236 53.1453 87.7968 53.9505 87.2972 54.834C86.9824 55.3861 86.7341 55.9735 86.5572 56.584C86.4472 56.824 86.3374 57.064 86.2474 57.304C86.5829 55.8903 87.1433 54.5398 87.9073 53.304C88.9767 51.5285 90.383 49.9794 92.0472 48.7439C94.7451 46.7333 98.0562 45.7192 101.417 45.8739H101.487ZM86.3973 62.8739C86.1608 62.0935 86.0165 61.2881 85.9674 60.474C86.0079 59.9229 86.1017 59.377 86.2474 58.844C86.246 59.223 86.2793 59.6012 86.3473 59.974C86.2291 60.9529 86.2092 61.9411 86.2875 62.924L86.3973 62.8739ZM88.3973 70.404C82.8173 63.404 85.1473 56.884 86.3973 54.404C87.8584 51.6859 90.0153 49.4048 92.6473 47.794C90.5641 49.1503 88.8168 50.9627 87.5375 53.094C86.3984 54.9043 85.7124 56.9624 85.5375 59.094C85.5075 59.5535 85.5075 60.0145 85.5375 60.474C85.5278 60.6606 85.5278 60.8474 85.5375 61.034C85.6388 63.5681 86.4609 66.0208 87.9073 68.104C88.0173 68.264 88.1174 68.424 88.2374 68.584C89.1057 70.2655 90.2828 71.7682 91.7074 73.0139L91.9674 73.234C90.5365 72.5949 89.2658 71.6452 88.2474 70.454L88.3973 70.404ZM91.7574 72.404L91.9274 72.544L91.9874 72.604L91.7574 72.404ZM94.2972 73.594C93.5964 73.1856 92.9278 72.7243 92.2972 72.214C91.5866 71.3923 90.9508 70.5088 90.3973 69.574C90.8673 69.984 91.3973 70.364 91.8873 70.734C92.9798 72.0587 94.3857 73.0899 95.9774 73.734C96.7989 74.0097 97.661 74.1448 98.5275 74.1339H99.3773C99.8573 74.2439 100.377 74.344 100.827 74.434L101.307 74.5039C100.861 74.5773 100.411 74.6273 99.9574 74.654C98.623 74.7556 97.2814 74.7086 95.9574 74.5139C95.3359 74.2671 94.7312 73.9798 94.1473 73.654L94.2972 73.594ZM97.2274 75.5139H97.5873C97.8973 75.6039 98.2074 75.6839 98.5175 75.7439C98.0333 75.731 97.5511 75.6741 97.0773 75.574L97.2274 75.5139ZM101.697 75.574C100.904 75.6038 100.11 75.5536 99.3273 75.424C100.172 75.2992 101.005 75.1052 101.817 74.844C102.297 74.764 102.777 74.664 103.257 74.544C103.827 74.5358 104.396 74.4823 104.957 74.3839C104.467 74.6239 103.957 74.834 103.477 75.034C102.851 75.2844 102.205 75.485 101.547 75.6339L101.697 75.574ZM107.997 73.7439C106.819 74.4227 105.55 74.9279 104.227 75.2439C105.094 74.8671 105.933 74.4294 106.737 73.934C107.532 73.6764 108.299 73.3415 109.027 72.934C111.378 71.5203 113.247 69.4288 114.387 66.934C114.847 65.9355 115.183 64.8843 115.387 63.804C115.72 63.0224 116.004 62.2208 116.237 61.404C115.807 66.484 112.827 70.964 107.847 73.804L107.997 73.7439ZM114.427 53.654C115.377 55.3329 115.975 57.187 116.187 59.104C116.096 60.0392 115.901 60.9615 115.607 61.854C115.629 61.2631 115.606 60.6714 115.537 60.084C115.528 57.8541 114.829 55.6816 113.537 53.8639C113.217 53.1729 112.849 52.5047 112.437 51.8639L113.157 52.404C113.572 52.8038 113.947 53.2425 114.277 53.714L114.427 53.654ZM113.427 52.074C112.817 51.604 112.227 51.174 111.667 50.774L112.607 51.044C112.727 51.434 113.007 51.784 113.267 52.174L113.427 52.074ZM155.917 20.414C156.206 20.782 156.417 21.2049 156.538 21.657C156.658 22.1091 156.685 22.581 156.617 23.044C156.297 22.5326 155.936 22.0478 155.537 21.594C155.065 21.0415 154.55 20.5266 153.997 20.054C154.737 19.814 155.347 19.924 155.757 20.474L155.917 20.414ZM152.207 19.294C152.497 19.494 152.787 19.694 153.077 19.914C153.081 20.0386 153.05 20.1618 152.987 20.2697C152.925 20.3775 152.833 20.4657 152.723 20.5244C152.613 20.5832 152.489 20.61 152.364 20.602C152.24 20.5939 152.12 20.5513 152.019 20.4789C151.917 20.4066 151.838 20.3074 151.79 20.1924C151.741 20.0774 151.726 19.9512 151.746 19.828C151.766 19.7049 151.819 19.5897 151.901 19.4954C151.982 19.401 152.088 19.3312 152.207 19.294ZM151.207 28.294C151.207 28.034 151.147 27.7639 151.117 27.4939C151.434 27.1761 151.735 26.8423 152.017 26.4939C153.127 26.9139 153.827 27.434 154.017 27.984C154.257 28.804 153.367 29.7939 151.427 30.8639C151.197 30.0439 151.127 29.174 151.027 28.324L151.207 28.294ZM151.437 33.484C151.808 33.6771 152.108 33.9813 152.297 34.354C152.382 34.5889 152.394 34.8435 152.334 35.0856C152.273 35.3277 152.142 35.5465 151.957 35.714C151.771 35.9512 151.516 36.1257 151.227 36.214L151.287 35.714C151.177 35.024 151.227 34.2739 151.257 33.5139L151.437 33.484ZM130.717 43.064C130.963 42.2108 131.334 41.3986 131.817 40.654L132.457 41.294C132.691 41.892 132.797 42.5325 132.767 43.174C132.023 43.2119 131.277 43.1852 130.537 43.094L130.717 43.064ZM132.647 43.654C132.599 43.7544 132.539 43.8485 132.467 43.934C132.312 44.0789 132.12 44.1788 131.912 44.2228C131.704 44.2669 131.488 44.2534 131.287 44.184C131.036 44.115 130.794 44.0141 130.567 43.8839C130.567 43.7739 130.567 43.654 130.617 43.534C131.23 43.6246 131.848 43.6748 132.467 43.684L132.647 43.654ZM127.957 41.064V41.1339C127.757 41.4939 127.557 41.854 127.347 42.214C127.111 42.1424 126.896 42.0137 126.722 41.8393C126.548 41.6648 126.419 41.4501 126.347 41.214C126.037 40.264 126.537 38.7839 127.397 37.1139C127.304 38.4525 127.432 39.7974 127.777 41.094L127.957 41.064ZM127.957 24.844H128.217C128.28 26.8691 128.714 28.8655 129.497 30.734C129.667 31.124 129.847 31.494 130.037 31.854L129.947 31.9939C129.457 32.7539 128.947 33.524 128.497 34.284C128.087 33.964 127.707 33.634 127.367 33.284C126.987 32.4498 126.653 31.5952 126.367 30.724C126.207 30.264 126.067 29.8139 125.937 29.3639C126.218 28.3471 126.552 27.3457 126.937 26.3639C127.177 25.9539 127.457 25.534 127.777 25.084C127.647 25.044 127.707 24.9539 127.777 24.8739L127.957 24.844ZM127.957 24.054L128.237 23.4939C128.242 23.5638 128.242 23.6341 128.237 23.704L127.957 24.054ZM136.017 17.7439L136.387 17.814C135.802 18.0968 135.243 18.4314 134.717 18.814C134.402 19.0519 134.101 19.309 133.817 19.584C132.828 20.5187 132.18 21.758 131.977 23.104C131.717 23.1371 131.465 23.2212 131.237 23.3516C131.008 23.482 130.808 23.6561 130.647 23.8639C130.543 23.996 130.449 24.1365 130.367 24.284C129.811 24.254 129.254 24.254 128.697 24.284V23.8639C130.588 21.3253 133.024 19.2441 135.827 17.774L136.017 17.7439ZM128.747 23.064C128.747 22.844 128.797 22.614 128.827 22.404C128.878 22.2974 128.935 22.194 128.997 22.094C130.023 20.2898 131.229 18.5943 132.597 17.034C133.457 17.234 134.337 17.414 135.227 17.594C134.867 17.784 134.497 17.994 134.127 18.234C133.757 18.474 133.327 18.754 132.927 19.044C131.314 20.2145 129.847 21.5743 128.557 23.094L128.747 23.064ZM137.207 17.964L137.567 18.034C137.579 18.0984 137.596 18.162 137.617 18.224C137.344 18.2042 137.07 18.2487 136.817 18.354C136.579 18.4423 136.357 18.5671 136.157 18.724C134.798 19.9744 133.767 21.5406 133.157 23.284C133.015 23.224 132.868 23.1771 132.717 23.144H132.457C132.577 21.004 134.297 19.1739 137.017 17.9939L137.207 17.964ZM136.817 17.414C137.007 17.344 137.187 17.274 137.367 17.224V17.3739L137.117 17.474L136.817 17.414ZM147.967 32.5139C147.78 31.9969 147.623 31.4694 147.497 30.934L150.387 28.224L150.707 27.924C150.837 29.004 150.917 30.064 150.957 31.084C150.256 31.4692 149.587 31.9106 148.957 32.404C148.56 32.405 148.164 32.452 147.777 32.544L147.967 32.5139ZM148.297 32.934L148.177 33.034V32.964L148.297 32.934ZM147.797 33.3639C146.977 34.1039 146.207 34.894 145.457 35.684V35.464C145.573 35.1179 145.72 34.7831 145.897 34.464C146.301 33.7867 146.949 33.2894 147.707 33.074L147.797 33.3639ZM150.067 27.8739C149.127 28.7439 148.247 29.5739 147.387 30.3839C147.383 30.3174 147.383 30.2506 147.387 30.184C147.757 29.644 148.117 29.094 148.457 28.554C149.037 27.624 149.557 26.744 150.007 25.904L150.477 26.0039C150.547 26.4439 150.607 26.884 150.667 27.324L150.067 27.8739ZM147.347 25.6239C148.057 25.642 148.766 25.7055 149.467 25.814C148.837 26.974 148.087 28.204 147.247 29.464C147.192 28.9121 147.192 28.3559 147.247 27.804C147.284 27.0861 147.254 26.3663 147.157 25.654L147.347 25.6239ZM150.197 25.464C150.238 25.3961 150.275 25.3259 150.307 25.2539C150.312 25.3339 150.312 25.414 150.307 25.4939L150.197 25.464ZM150.507 23.7439C150.417 23.2739 150.307 22.814 150.207 22.344C150.577 22.074 150.957 21.814 151.337 21.554V21.6339C151.042 22.3679 150.702 23.0827 150.317 23.774L150.507 23.7439ZM150.087 21.834C150.007 21.474 149.907 21.1039 149.817 20.7439C150.2 20.8893 150.571 21.0632 150.927 21.2639L150.087 21.834ZM150.167 24.464L149.707 25.3739C148.918 25.2348 148.119 25.1612 147.317 25.154C147.317 24.854 147.237 24.574 147.177 24.294C148.081 23.7947 148.952 23.2403 149.787 22.6339C149.737 23.2839 149.857 23.8939 149.977 24.4939L150.167 24.464ZM147.057 23.814C146.925 23.3479 146.741 22.8984 146.507 22.474C146.631 22.037 146.728 21.5928 146.797 21.144C146.873 20.7049 146.896 20.2585 146.867 19.814C147.737 20.034 148.547 20.274 149.267 20.534C149.417 21.074 149.547 21.6039 149.667 22.1339C148.771 22.763 147.836 23.3342 146.867 23.844L147.057 23.814ZM146.977 30.814L146.897 30.8839L146.967 30.774L146.977 30.814ZM146.847 30.104C146.267 30.954 145.657 31.804 145.007 32.654L144.597 33.034C144.455 32.7908 144.284 32.5658 144.087 32.3639C144.6 32.056 145.019 31.6133 145.297 31.084C145.496 30.6331 145.593 30.1438 145.581 29.6512C145.569 29.1585 145.448 28.6747 145.227 28.234L145.147 28.084C145.537 26.714 145.937 25.764 146.567 25.704H146.877C146.915 26.4086 146.885 27.1152 146.787 27.814C146.64 28.5644 146.596 29.3317 146.657 30.094L146.847 30.104ZM141.287 37.104L141.077 36.824C141.437 36.514 141.817 36.194 142.207 35.824C142.235 35.8686 142.258 35.9154 142.277 35.964L141.287 37.104ZM141.517 39.824C141.074 40.2407 140.595 40.6187 140.087 40.954C140.576 40.3141 141.027 39.6463 141.437 38.954C141.287 39.254 141.317 39.554 141.327 39.834L141.517 39.824ZM132.447 34.0139L132.717 33.644C133.185 33.9249 133.695 34.1276 134.227 34.2439C134.137 34.4839 134.047 34.724 133.967 34.974C133.356 34.739 132.78 34.4191 132.257 34.024L132.447 34.0139ZM130.377 29.454C130.534 29.8015 130.718 30.1359 130.927 30.454L130.347 31.3839C130.203 31.114 130.073 30.837 129.957 30.554C129.191 28.7298 128.765 26.7813 128.697 24.804C129.18 24.7788 129.664 24.7788 130.147 24.804C129.958 25.3071 129.85 25.837 129.827 26.3739C129.716 27.408 129.84 28.4538 130.187 29.434L130.377 29.454ZM131.957 24.5139C131.597 24.5139 131.247 24.4139 130.897 24.3839L131.017 24.224C131.249 23.9329 131.574 23.7313 131.937 23.654C131.861 23.9296 131.804 24.2103 131.767 24.4939L131.957 24.5139ZM132.017 25.0039C132.07 25.2975 132.151 25.5854 132.257 25.8639C131.885 27.0923 131.617 28.3502 131.457 29.6239C131.377 29.7539 131.297 29.894 131.207 30.024C131.062 29.7789 130.931 29.5251 130.817 29.2639C130.187 27.8689 130.127 26.2833 130.647 24.844C130.907 24.864 131.357 24.914 131.827 24.984L132.017 25.0039ZM134.637 36.454C134.497 36.274 134.357 36.094 134.207 35.924C134.226 35.8328 134.249 35.7427 134.277 35.654L134.657 35.784C134.417 36.004 134.417 36.224 134.417 36.434L134.637 36.454ZM134.637 37.2539C134.393 37.3825 134.159 37.5296 133.937 37.694C133.937 37.304 134.007 36.914 134.067 36.534L134.637 37.2539ZM134.387 35.184C134.477 34.904 134.567 34.6339 134.677 34.3739H134.747C134.747 34.5939 134.747 34.814 134.747 35.034C134.742 35.1139 134.742 35.194 134.747 35.274L134.387 35.184ZM134.387 33.834C133.892 33.729 133.416 33.5468 132.977 33.294C133.157 33.074 133.337 32.864 133.517 32.674C133.93 32.8472 134.358 32.9779 134.797 33.064C134.487 33.294 134.357 33.544 134.227 33.814L134.387 33.834ZM131.837 31.584C131.987 31.724 132.137 31.844 132.287 31.964C132.535 32.146 132.796 32.3097 133.067 32.454L132.587 33.0039C132.105 32.6633 131.778 32.1455 131.677 31.564L131.837 31.584ZM132.297 33.3839L132.057 33.734C131.479 33.1903 130.981 32.5674 130.577 31.8839L131.207 30.8839C131.245 30.9416 131.289 30.9953 131.337 31.044V31.214C131.311 31.6086 131.368 32.0044 131.506 32.375C131.644 32.7457 131.859 33.0827 132.137 33.3639L132.297 33.3839ZM133.887 32.304C134.193 32.0168 134.529 31.762 134.887 31.544C134.887 31.884 134.887 32.234 134.837 32.544C134.459 32.4987 134.087 32.4114 133.727 32.284L133.887 32.304ZM134.147 31.464C133.889 31.6598 133.642 31.8701 133.407 32.094C132.804 31.7979 132.264 31.3868 131.817 30.8839C131.817 30.5339 131.817 30.164 131.887 29.784C132.367 29.004 132.787 28.264 133.137 27.564L133.257 27.334C133.761 27.7606 134.357 28.0652 134.997 28.224C134.997 28.594 134.997 28.9739 134.997 29.3639C134.997 29.7539 134.997 30.434 134.997 30.974C134.647 31.1003 134.309 31.2576 133.987 31.444L134.147 31.464ZM133.457 26.8839C133.674 26.4125 133.842 25.9199 133.957 25.414C134.337 25.504 134.727 25.614 135.107 25.734C135.107 26.364 135.037 27.034 135.007 27.734C134.373 27.5926 133.785 27.2932 133.297 26.8639L133.457 26.8839ZM133.457 25.294C133.366 25.7055 133.235 26.1072 133.067 26.4939C132.919 26.2907 132.792 26.073 132.687 25.844C132.757 25.624 132.827 25.394 132.907 25.174L133.457 25.294ZM133.057 24.724C133.137 24.504 133.217 24.294 133.307 24.074C133.35 24.1373 133.387 24.2041 133.417 24.274C133.48 24.4503 133.511 24.6367 133.507 24.824L133.057 24.724ZM132.587 24.6339H132.367C132.34 24.3012 132.34 23.9667 132.367 23.6339C132.434 23.6242 132.501 23.6242 132.567 23.6339C132.69 23.6603 132.811 23.6971 132.927 23.7439C132.677 24.0339 132.567 24.3239 132.467 24.6139L132.587 24.6339ZM132.497 26.4939C132.572 26.6079 132.652 26.7182 132.737 26.824C132.774 26.8764 132.814 26.9265 132.857 26.974C132.627 27.464 132.347 27.974 132.037 28.534C132.037 27.854 132.187 27.174 132.417 26.474L132.497 26.4939ZM131.217 33.6139C130.987 33.5587 130.748 33.5587 130.517 33.6139C129.991 33.7597 129.487 33.975 129.017 34.2539C129.417 33.6039 129.837 32.944 130.247 32.304C130.493 32.7576 130.778 33.1892 131.097 33.594L131.217 33.6139ZM130.657 34.104C131 34.0264 131.36 34.0874 131.657 34.274C131.307 34.804 130.977 35.384 130.657 35.984L129.807 35.344L129.097 34.814C129.535 34.4956 130.022 34.2492 130.537 34.084L130.657 34.104ZM132.057 34.524C132.637 34.9725 133.164 35.4858 133.627 36.054C133.493 36.7127 133.416 37.3819 133.397 38.054L133.267 38.164C132.553 37.4901 131.806 36.8526 131.027 36.2539C131.247 35.6339 131.587 35.0439 131.937 34.5039L132.057 34.524ZM134.647 37.7639C134.655 38.1146 134.75 38.4578 134.925 38.7619C135.1 39.0659 135.348 39.3211 135.647 39.5039C135.872 39.6099 136.12 39.6547 136.367 39.6339C136.677 40.0739 136.997 40.504 137.317 40.934L136.707 41.434C136.008 41.0621 135.398 40.5436 134.917 39.914C134.587 39.514 134.247 39.144 133.917 38.784C133.917 38.624 133.917 38.464 133.917 38.304C134.108 38.1037 134.312 37.9165 134.527 37.7439L134.647 37.7639ZM135.967 39.1339L135.827 39.074C135.653 38.9649 135.506 38.8187 135.395 38.6458C135.284 38.4729 135.214 38.2776 135.187 38.074L135.967 39.1339ZM135.327 37.444C135.839 37.206 136.421 37.1662 136.96 37.3324C137.5 37.4987 137.958 37.8592 138.247 38.344C137.732 38.7078 137.156 38.9785 136.547 39.144L136.497 39.064C135.987 38.484 135.597 37.944 135.207 37.424L135.327 37.444ZM137.567 41.314L137.817 41.6339L137.727 41.704C137.549 41.6928 137.371 41.6659 137.197 41.6239L137.567 41.314ZM137.647 40.6239L136.857 39.544C137.444 39.3597 138 39.0901 138.507 38.7439C138.65 39.0114 138.741 39.3031 138.777 39.604L137.647 40.6239ZM138.647 38.074C138.298 37.5018 137.752 37.076 137.112 36.8755C136.472 36.6751 135.781 36.7137 135.167 36.984H135.047C135.047 36.644 135.047 36.2739 135.047 35.8639C136.563 36.2126 138.148 36.1119 139.607 35.574H139.737C139.898 35.991 140.103 36.3898 140.347 36.7639L139.707 37.284C139.227 37.564 138.867 37.824 138.537 38.054L138.647 38.074ZM143.337 20.324C143.645 20.4594 143.94 20.6235 144.217 20.814C144.083 21.524 143.906 22.2252 143.687 22.914C143.551 23.3436 143.367 23.7562 143.137 24.144C142.895 23.9951 142.69 23.7935 142.537 23.554C142.375 23.2884 142.27 22.9922 142.227 22.684C142.582 22.403 142.867 22.0438 143.059 21.6343C143.252 21.2249 143.347 20.7764 143.337 20.324ZM143.247 19.474L143.557 19.164L144.417 19.334C144.417 19.644 144.357 19.964 144.307 20.334C143.987 20.1387 143.653 19.9682 143.307 19.824C143.177 19.664 143.157 19.564 143.137 19.454L143.247 19.474ZM146.247 19.7439C146.309 20.2019 146.309 20.666 146.247 21.1239C146.247 21.3939 146.157 21.674 146.087 21.964C145.987 21.824 145.887 21.694 145.777 21.564C145.487 21.1901 145.151 20.8541 144.777 20.564C144.847 20.164 144.897 19.774 144.927 19.404L146.247 19.7439ZM144.867 18.954C144.867 18.814 144.867 18.684 144.867 18.554C145.056 18.5245 145.249 18.5245 145.437 18.554C145.593 18.5963 145.736 18.6757 145.855 18.7854C145.973 18.8951 146.063 19.0319 146.117 19.184L144.867 18.954ZM146.187 23.184C146.314 23.4767 146.421 23.7774 146.507 24.084C146.259 24.1959 146.001 24.2863 145.737 24.354C145.864 23.9407 145.991 23.5473 146.117 23.174L146.187 23.184ZM146.617 24.554C146.617 24.764 146.687 24.984 146.717 25.214H146.397C146.18 25.2391 145.972 25.322 145.797 25.454C145.433 25.7819 145.155 26.1938 144.987 26.654C144.887 26.904 144.797 27.1839 144.697 27.4939C144.597 27.3339 144.487 27.1739 144.367 27.0139C144.786 26.3219 145.167 25.6075 145.507 24.8739H145.627C145.945 24.7915 146.253 24.6777 146.547 24.534L146.617 24.554ZM143.547 32.044C143.412 31.9582 143.268 31.8878 143.117 31.834C143.155 31.4056 143.107 30.974 142.977 30.564C142.856 30.2338 142.691 29.921 142.487 29.6339C143.072 28.9506 143.609 28.2291 144.097 27.474C144.253 27.6872 144.393 27.9111 144.517 28.144C144.387 28.654 144.247 29.214 144.107 29.814C143.967 30.414 143.687 31.234 143.477 32.024L143.547 32.044ZM143.807 32.904C143.924 33.0534 144.031 33.2104 144.127 33.3739L143.487 33.964C143.527 33.594 143.637 33.2339 143.737 32.8839L143.807 32.904ZM138.037 30.554C138.739 29.9771 139.355 29.3038 139.867 28.554C139.967 28.404 140.067 28.254 140.157 28.094C140.787 28.5134 141.359 29.0145 141.857 29.584C141.211 30.2939 140.487 30.9279 139.697 31.474C139.201 31.0317 138.609 30.71 137.967 30.534L138.037 30.554ZM139.267 31.774C138.213 32.4608 136.975 32.8097 135.717 32.774H135.517C135.909 32.2483 136.39 31.7949 136.937 31.434C137.147 31.294 137.357 31.1539 137.547 31.0039C138.151 31.1129 138.718 31.3706 139.197 31.7539L139.267 31.774ZM139.217 19.534H139.657C140.552 19.5601 141.439 19.7014 142.297 19.954C141.865 20.7145 141.65 21.5795 141.677 22.454C141.422 22.6089 141.135 22.7046 140.837 22.734C140.502 21.5557 139.927 20.4594 139.147 19.5139L139.217 19.534ZM140.337 22.714H140.267C139.892 22.5992 139.555 22.3822 139.296 22.0873C139.036 21.7924 138.863 21.4312 138.797 21.044C138.667 20.574 138.537 20.104 138.397 19.654H138.647C139.384 20.5496 139.935 21.5831 140.267 22.694L140.337 22.714ZM142.507 25.714L142.717 25.904C143.096 26.2697 143.453 26.6571 143.787 27.064C143.44 27.6227 143.059 28.1603 142.647 28.674C142.507 28.854 142.357 29.0439 142.177 29.2439C141.653 28.649 141.051 28.1277 140.387 27.694C140.467 27.524 140.537 27.354 140.607 27.194C141.274 26.7804 141.883 26.2793 142.417 25.704L142.507 25.714ZM140.857 26.464C140.94 26.1582 141.003 25.8476 141.047 25.534C141.079 25.2751 141.096 25.0147 141.097 24.7539C141.446 24.949 141.781 25.1696 142.097 25.414C141.698 25.8055 141.259 26.1541 140.787 26.454L140.857 26.464ZM142.447 25.054C142.017 24.736 141.562 24.4518 141.087 24.204C141.065 23.8677 141.018 23.5335 140.947 23.204C141.226 23.17 141.496 23.0889 141.747 22.964C141.813 23.2656 141.932 23.5533 142.097 23.814C142.285 24.1144 142.542 24.3648 142.847 24.544C142.647 24.704 142.517 24.884 142.417 25.044L142.447 25.054ZM140.567 25.474C140.51 25.9427 140.396 26.4028 140.227 26.844C140.007 26.964 139.797 27.074 139.567 27.174C138.808 26.7339 138.02 26.3463 137.207 26.0139C136.987 25.9139 136.757 25.8239 136.527 25.7439C136.847 25.1775 137.337 24.7259 137.927 24.4532C138.518 24.1804 139.179 24.1002 139.817 24.224C140.096 24.2928 140.368 24.3899 140.627 24.5139C140.609 24.8335 140.565 25.1512 140.497 25.464L140.567 25.474ZM137.027 26.474C137.711 26.7725 138.379 27.1063 139.027 27.474C138.252 27.7663 137.435 27.935 136.607 27.974V27.914C136.461 27.6662 136.367 27.3912 136.331 27.1057C136.295 26.8203 136.317 26.5303 136.397 26.2539L137.027 26.474ZM139.537 27.734L139.747 27.8739C139.404 28.4669 138.984 29.0116 138.497 29.4939C137.905 29.2322 137.372 28.8548 136.927 28.3839C137.804 28.2885 138.66 28.0592 139.467 27.704L139.537 27.734ZM142.157 30.0039C142.305 30.2291 142.426 30.4708 142.517 30.724C142.623 31.0462 142.667 31.3855 142.647 31.724C142.098 31.6773 141.546 31.7883 141.057 32.044C140.868 32.1309 140.688 32.2347 140.517 32.354L140.057 31.844C140.799 31.2951 141.479 30.6682 142.087 29.974L142.157 30.0039ZM140.647 33.344L140.127 33.4939C140.21 33.3311 140.318 33.1826 140.447 33.054C140.495 33.1385 140.538 33.2253 140.577 33.314L140.647 33.344ZM140.807 33.794H140.927C141.017 33.944 141.107 34.084 141.187 34.234C140.825 34.5274 140.429 34.7759 140.007 34.974C139.956 34.7444 139.932 34.5093 139.937 34.274C139.937 34.204 139.937 34.134 139.937 34.064C140.177 33.924 140.417 33.8539 140.737 33.7639L140.807 33.794ZM141.127 33.194C141.029 33.0384 140.922 32.8881 140.807 32.7439C140.95 32.6456 141.101 32.5587 141.257 32.484C141.663 32.271 142.12 32.1741 142.577 32.204C142.532 32.3757 142.472 32.543 142.397 32.704C141.937 32.844 141.517 33.014 141.057 33.174L141.127 33.194ZM141.977 33.394C141.851 33.5622 141.71 33.7194 141.557 33.8639L141.397 33.604C141.527 33.514 141.717 33.4339 141.907 33.3639L141.977 33.394ZM142.427 33.594C142.55 33.4257 142.661 33.2486 142.757 33.064L143.347 32.7639C143.177 33.3739 142.977 34.004 142.757 34.644L142.237 35.1139C142.097 34.8339 141.957 34.564 141.807 34.294C142.01 34.0656 142.194 33.8215 142.357 33.564L142.427 33.594ZM143.017 32.404C143.022 32.3775 143.022 32.3505 143.017 32.324H143.087L143.017 32.404ZM144.567 29.934C144.657 29.564 144.747 29.2039 144.827 28.8639C145.046 29.5188 145.014 30.2313 144.737 30.8639C144.603 31.1542 144.4 31.4081 144.147 31.604C144.227 31.024 144.417 30.444 144.497 29.904L144.567 29.934ZM144.057 26.654C143.743 26.28 143.409 25.9229 143.057 25.584L142.827 25.3839C142.992 25.1898 143.146 24.9861 143.287 24.774C143.826 24.9616 144.4 25.0266 144.967 24.964C144.617 25.504 144.317 26.0639 143.987 26.6239L144.057 26.654ZM142.197 22.024C142.233 21.3187 142.439 20.6325 142.797 20.024H142.857C142.883 20.3853 142.831 20.748 142.705 21.0877C142.579 21.4274 142.382 21.7363 142.127 21.9939L142.197 22.024ZM142.557 19.544C141.622 19.2596 140.654 19.0982 139.677 19.064C139.401 19.0436 139.124 19.0436 138.847 19.064L138.757 18.964C138.558 18.7333 138.313 18.5461 138.037 18.414C138.037 18.324 137.987 18.244 137.967 18.164L139.677 18.464C140.677 18.634 141.627 18.804 142.567 18.984C142.567 19.114 142.647 19.224 142.677 19.344L142.557 19.544ZM139.767 18.0139L137.947 17.694H138.097C138.878 17.4387 139.677 17.2447 140.487 17.1139C140.871 17.214 141.232 17.3892 141.548 17.6295C141.864 17.8699 142.128 18.1705 142.327 18.5139L139.767 18.0139ZM137.947 17.194L137.727 17.2639C137.727 17.2639 137.727 17.184 137.727 17.154C138.056 17.0685 138.39 17.0051 138.727 16.964C138.417 17.004 138.117 17.074 137.877 17.174L137.947 17.194ZM138.337 21.194C138.425 21.6636 138.642 22.0994 138.963 22.4527C139.284 22.8059 139.698 23.0627 140.157 23.194H140.467C140.522 23.4482 140.562 23.7053 140.587 23.964C140.371 23.8742 140.146 23.8039 139.917 23.7539C139.168 23.6033 138.39 23.698 137.698 24.024C137.007 24.3499 136.438 24.8899 136.077 25.564L135.527 25.3739C135.707 23.0439 136.097 21.244 137.137 20.284C137.373 20.0621 137.648 19.8858 137.947 19.7639C138.007 20.1739 138.137 20.664 138.267 21.174L138.337 21.194ZM135.897 26.064C135.708 26.6895 135.758 27.3633 136.037 27.954C135.817 27.954 135.607 27.9539 135.397 27.8739C135.397 27.2073 135.427 26.5406 135.487 25.8739L135.897 26.064ZM136.327 28.434C136.807 29.0513 137.428 29.5449 138.137 29.8739C137.917 30.0739 137.677 30.274 137.427 30.464C136.938 30.417 136.444 30.4541 135.967 30.574C135.742 30.6307 135.521 30.7042 135.307 30.794C135.307 30.334 135.307 29.874 135.307 29.414C135.307 28.954 135.307 28.704 135.307 28.414C135.624 28.4209 135.942 28.4075 136.257 28.3739L136.327 28.434ZM136.077 31.044C136.31 30.9837 136.548 30.9469 136.787 30.934L136.667 31.0039L136.397 31.194C135.966 31.5186 135.58 31.8985 135.247 32.324C135.247 31.984 135.247 31.654 135.247 31.324C135.49 31.1882 135.744 31.0744 136.007 30.984L136.077 31.044ZM135.687 33.234C137.103 33.3062 138.504 32.9242 139.687 32.144C139.857 32.314 140.017 32.504 140.187 32.704C139.908 32.9814 139.705 33.3257 139.597 33.704C138.158 34.0492 136.673 34.164 135.197 34.044C135.197 33.774 135.197 33.5039 135.197 33.2439L135.687 33.234ZM139.467 34.174V34.2439C139.451 34.5507 139.485 34.8581 139.567 35.154L139.407 35.214C138.009 35.7337 136.486 35.8208 135.037 35.464V35.1239C135.037 34.9139 135.037 34.694 135.087 34.484C136.541 34.5798 138.001 34.455 139.417 34.1139L139.467 34.174ZM139.967 37.694L140.587 37.204L140.837 37.524C140.267 38.134 139.697 38.7039 139.137 39.2439C139.075 38.9931 138.981 38.7512 138.857 38.524C139.137 38.224 139.507 37.9539 139.897 37.6339L139.967 37.694ZM140.687 36.4939C140.474 36.1552 140.293 35.7969 140.147 35.424C140.601 35.2105 141.03 34.949 141.427 34.644C141.587 34.914 141.727 35.184 141.867 35.474L140.687 36.4939ZM141.867 37.9939C142.087 37.5739 142.287 37.154 142.467 36.734L143.047 38.0039L143.117 38.174L142.597 38.724C142.277 38.414 142.027 38.174 141.797 37.934L141.867 37.9939ZM142.277 39.054L141.847 39.474C141.847 39.274 141.847 39.064 141.777 38.854C141.707 38.644 141.777 38.644 141.777 38.544L142.277 39.054ZM143.347 38.6339C143.507 39.0039 143.677 39.364 143.837 39.704C143.537 39.484 143.247 39.254 142.967 39.024L143.347 38.6339ZM142.897 36.5039C143.466 36.3088 144.073 36.254 144.667 36.344C144.663 36.3973 144.663 36.4507 144.667 36.5039L144.167 37.044L143.487 37.794L142.897 36.5039ZM142.827 36.0139C143.377 35.3839 143.907 34.734 144.437 34.074C144.606 34.5452 144.733 35.0304 144.817 35.524C144.817 35.644 144.757 35.7539 144.737 35.8639C144.08 35.7375 143.401 35.7684 142.757 35.954L142.827 36.0139ZM148.427 19.8839C147.877 19.7039 147.287 19.544 146.667 19.394C146.623 19.1013 146.493 18.8284 146.294 18.6095C146.094 18.3907 145.834 18.2356 145.547 18.164C145.319 18.1293 145.086 18.1293 144.857 18.164C144.829 17.7671 144.772 17.3728 144.687 16.984C145.895 17.0846 147.088 17.3125 148.247 17.664C148.437 18.184 148.617 18.734 148.777 19.314C148.857 19.584 148.927 19.8539 149.007 20.1139L148.427 19.8839ZM145.367 21.8839C145.557 22.1056 145.728 22.3432 145.877 22.594C145.688 23.2317 145.458 23.8564 145.187 24.464C144.636 24.5493 144.073 24.5117 143.537 24.354C143.777 23.949 143.965 23.5156 144.097 23.064C144.307 22.394 144.477 21.7439 144.607 21.1339C144.861 21.3499 145.092 21.5912 145.297 21.854L145.367 21.8839ZM144.367 18.8839L144.027 18.814L144.367 18.674V18.8839ZM143.367 18.684L142.897 18.594C142.598 17.9022 142.082 17.3265 141.427 16.954C142.338 16.8635 143.254 16.8434 144.167 16.894C144.273 17.3171 144.34 17.7489 144.367 18.184C143.99 18.2594 143.632 18.4126 143.317 18.6339L143.367 18.684ZM140.487 16.594C140.337 16.594 140.187 16.5339 140.027 16.5039C139.213 16.413 138.388 16.4775 137.597 16.694C137.514 16.3844 137.494 16.0615 137.537 15.7439C137.58 15.4263 137.685 15.1205 137.847 14.844C138.247 14.314 139.107 14.064 140.447 14.094H141.667H141.997C142.593 14.4123 143.106 14.864 143.497 15.414C143.713 15.7221 143.884 16.0587 144.007 16.414C142.809 16.3369 141.607 16.3804 140.417 16.544L140.487 16.594ZM137.627 18.814C137.677 18.994 137.727 19.174 137.787 19.354C137.529 19.4575 137.284 19.5917 137.057 19.7539L136.787 19.984C135.657 20.984 135.237 22.884 135.037 25.274C134.657 25.164 134.287 25.054 133.907 24.964C133.933 24.6752 133.892 24.3843 133.787 24.1139C133.71 23.9234 133.586 23.7551 133.427 23.6239C134.487 21.0639 135.757 19.2939 136.847 18.8739C137.074 18.764 137.328 18.7256 137.577 18.7639L137.627 18.814ZM128.067 35.954L128.237 36.234L128.137 36.164L128.017 36.074C128.025 36.0176 128.025 35.9604 128.017 35.904L128.067 35.954ZM128.067 34.954L127.827 34.5039L128.167 34.784L128.067 34.954ZM126.247 32.184C126.081 31.9336 125.943 31.6652 125.837 31.3839C125.716 31.0629 125.642 30.7261 125.617 30.3839C125.677 30.5839 125.747 30.774 125.807 30.974C125.847 31.314 125.997 31.704 126.147 32.104L126.247 32.184ZM126.437 26.184C126.071 26.7848 125.76 27.4173 125.507 28.074C125.354 27.334 125.24 26.5863 125.167 25.834C125.696 25.4884 126.282 25.2379 126.897 25.094C126.637 25.424 126.487 25.784 126.337 26.174L126.437 26.184ZM125.387 31.5039C125.73 32.3154 126.245 33.0423 126.897 33.6339C127.177 34.2239 127.477 34.8039 127.787 35.3639L127.597 35.714C126.675 35.0724 125.818 34.3422 125.037 33.534C125.117 32.8673 125.227 32.1673 125.367 31.434L125.387 31.5039ZM128.107 41.804C128.232 42.1176 128.386 42.4189 128.567 42.704L127.737 42.444L128.107 41.804ZM127.917 36.534L129.017 37.344L129.527 38.074L129.317 38.484C128.967 39.174 128.607 39.874 128.237 40.574C127.781 39.2688 127.637 37.8748 127.817 36.5039L127.917 36.534ZM129.327 36.984C129.007 36.494 128.687 35.984 128.397 35.484C128.48 35.3538 128.581 35.2359 128.697 35.1339L129.497 35.7439L130.397 36.414C130.217 36.744 130.047 37.074 129.877 37.414L129.327 36.984ZM130.777 36.714C131.477 37.264 132.197 37.854 132.897 38.524C132.572 38.8361 132.268 39.1702 131.987 39.524C131.484 38.8452 130.9 38.2306 130.247 37.694L130.777 36.714ZM131.687 39.944C131.267 39.504 130.877 39.034 130.497 38.554C130.906 38.9696 131.271 39.4252 131.587 39.914L131.687 39.944ZM132.257 39.944C132.562 39.5488 132.896 39.1778 133.257 38.834L133.407 38.984C133.407 39.304 133.457 39.624 133.507 39.984C133.615 40.8687 133.908 41.7207 134.367 42.484C133.837 42.064 133.367 41.6139 132.817 41.1339C132.638 40.7128 132.417 40.3108 132.157 39.934L132.257 39.944ZM133.167 43.184C133.194 42.7741 133.156 42.3626 133.057 41.964C133.477 42.344 133.907 42.704 134.347 43.044L133.917 43.1139C133.567 43.1739 133.317 43.174 133.067 43.174L133.167 43.184ZM133.307 43.654L133.037 43.794C133.042 43.7541 133.042 43.7139 133.037 43.674L133.307 43.654ZM133.957 39.8639C133.957 39.7539 133.957 39.644 133.957 39.534C134.157 39.754 134.347 39.974 134.537 40.204C135.012 40.8258 135.603 41.3489 136.277 41.7439C135.887 42.0539 135.497 42.334 135.117 42.594C134.434 41.8265 133.995 40.8725 133.857 39.854L133.957 39.8639ZM135.787 42.674C136.097 42.454 136.407 42.214 136.727 41.964C136.857 42.0178 136.991 42.0613 137.127 42.094C136.689 42.3423 136.226 42.5466 135.747 42.704L135.787 42.674ZM137.857 42.184C137.977 42.194 138.098 42.194 138.217 42.184C137.936 42.5055 137.583 42.7571 137.187 42.9185C136.792 43.0799 136.364 43.1468 135.937 43.1139C136.587 42.893 137.201 42.5763 137.757 42.174L137.857 42.184ZM138.137 41.284C138.067 41.184 137.987 41.0939 137.907 40.9939L138.707 40.284C138.62 40.5994 138.467 40.8926 138.257 41.144L138.137 41.284ZM138.627 41.444C139.022 40.9803 139.242 40.3928 139.247 39.784C139.877 39.174 140.527 38.534 141.167 37.844L141.297 37.9939V38.074C140.66 39.2611 139.9 40.3773 139.027 41.404L138.947 41.5039C138.791 41.5612 138.631 41.6047 138.467 41.6339C138.492 41.5688 138.512 41.502 138.527 41.434L138.627 41.444ZM139.227 41.904C140.038 41.5526 140.785 41.0695 141.437 40.474C141.432 41.6728 141.085 42.8452 140.437 43.854C140.227 43.674 140.007 43.4739 139.787 43.2439C139.567 43.0139 139.197 42.6039 138.897 42.2439L139.227 41.904ZM141.917 40.054C142.157 39.814 142.417 39.574 142.667 39.314C143.189 39.7572 143.741 40.1647 144.317 40.534C144.427 40.744 144.547 40.9339 144.657 41.1239C144.217 43.0339 143.437 44.3439 142.557 44.6339C142.251 44.6943 141.936 44.6824 141.635 44.599C141.335 44.5157 141.058 44.3633 140.827 44.154C141.57 42.9175 141.915 41.483 141.817 40.044L141.917 40.054ZM143.727 38.204C143.997 37.914 144.277 37.614 144.547 37.304C144.626 37.2323 144.699 37.1555 144.767 37.074C144.819 37.2969 144.9 37.5121 145.007 37.714C145.007 38.5646 144.94 39.4138 144.807 40.2539L144.657 40.164C144.257 39.584 143.947 38.904 143.627 38.174L143.727 38.204ZM144.797 33.594L145.287 32.964L147.007 31.344C147.121 31.7941 147.258 32.238 147.417 32.674C147.009 32.8049 146.624 33.0007 146.277 33.2539C145.909 33.5215 145.599 33.8619 145.367 34.2539C145.287 34.3839 145.227 34.5139 145.167 34.6339C145.041 34.2712 144.884 33.92 144.697 33.584L144.797 33.594ZM145.167 41.034C145.907 41.4486 146.688 41.7839 147.497 42.034C147.372 42.1433 147.226 42.2256 147.068 42.2755C146.909 42.3255 146.742 42.3419 146.577 42.324C146.087 42.244 145.577 41.764 145.177 41.064L145.167 41.034ZM145.267 40.544V40.3639C145.375 39.7019 145.441 39.034 145.467 38.3639C146.209 39.0441 147.163 39.4469 148.167 39.5039C148.379 39.5115 148.591 39.4914 148.797 39.444C148.817 39.8464 148.749 40.2483 148.597 40.6215C148.445 40.9946 148.213 41.3301 147.917 41.604C146.955 41.3777 146.029 41.0175 145.167 40.534L145.267 40.544ZM145.457 36.434C145.597 36.434 145.727 36.514 145.867 36.554C146.88 36.8604 147.769 37.4801 148.407 38.324C148.544 38.5247 148.651 38.7435 148.727 38.974C148.562 38.9969 148.393 38.9969 148.227 38.974C147.699 38.9568 147.18 38.8222 146.71 38.5801C146.239 38.338 145.829 37.9943 145.507 37.574C145.417 37.174 145.417 36.814 145.357 36.424L145.457 36.434ZM148.797 38.054C148.099 37.127 147.127 36.4445 146.017 36.104L145.747 36.0139C146.437 35.2839 147.157 34.5439 147.917 33.8639C148.356 35.0058 149.162 35.9697 150.207 36.604C150.331 36.6652 150.462 36.7089 150.597 36.734C150.507 37.294 150.407 37.834 150.287 38.354C149.936 38.5501 149.568 38.714 149.187 38.844C149.071 38.5513 148.905 38.2807 148.697 38.044L148.797 38.054ZM150.397 36.174C149.429 35.5435 148.689 34.6178 148.287 33.534C148.527 33.324 148.777 33.124 149.027 32.924H149.257C149.816 32.952 150.366 33.0702 150.887 33.274C150.887 34.104 150.817 34.914 150.727 35.694C150.727 35.874 150.727 36.0639 150.657 36.2539L150.397 36.174ZM149.607 32.484C150.017 32.1851 150.445 31.9112 150.887 31.664C150.887 32.034 150.887 32.414 150.887 32.784C150.443 32.6193 149.979 32.5151 149.507 32.474L149.607 32.484ZM150.847 26.164C151.054 26.212 151.258 26.2722 151.457 26.344C151.307 26.534 151.137 26.724 150.957 26.924C150.817 26.664 150.787 26.404 150.747 26.174L150.847 26.164ZM151.767 25.934C151.447 25.824 151.107 25.734 150.767 25.644C150.767 25.294 150.647 24.944 150.587 24.584C151.019 23.703 151.384 22.7904 151.677 21.854C152.107 22.1756 152.43 22.6176 152.607 23.1239C152.766 23.8068 152.652 24.5248 152.287 25.1239C152.099 25.4041 151.892 25.6714 151.667 25.924L151.767 25.934ZM151.427 20.934L151.277 21.034C150.735 20.7223 150.166 20.4579 149.577 20.2439C149.477 19.8639 149.377 19.4939 149.267 19.1139C149.157 18.7339 148.997 18.204 148.847 17.784C149.834 18.1231 150.783 18.5656 151.677 19.104C151.626 19.7116 151.508 20.3117 151.327 20.894L151.427 20.934ZM150.927 16.414C151.375 17.0411 151.632 17.7843 151.667 18.554C150.715 18.0069 149.71 17.5579 148.667 17.214C148.303 16.252 147.833 15.3331 147.267 14.474C148.643 14.6617 149.906 15.3356 150.827 16.3739L150.927 16.414ZM146.567 14.414C147.172 15.2429 147.672 16.143 148.057 17.094C147.707 16.994 147.347 16.904 146.987 16.824C146.192 16.6571 145.387 16.5402 144.577 16.474C144.425 16.0195 144.21 15.5885 143.937 15.194C143.657 14.8115 143.32 14.4743 142.937 14.194C144.116 14.1656 145.294 14.209 146.467 14.324L146.567 14.414ZM140.057 11.964C140.912 11.7388 141.807 11.7117 142.673 11.885C143.54 12.0584 144.355 12.4274 145.057 12.964C145.425 13.2606 145.761 13.5958 146.057 13.964C144.728 13.8269 143.393 13.7601 142.057 13.7639C140.882 13.2024 139.6 12.899 138.297 12.8739H137.787C138.469 12.4556 139.197 12.1199 139.957 11.8739L140.057 11.964ZM136.947 13.314C137.427 13.2737 137.908 13.2737 138.387 13.314C139.227 13.3472 140.06 13.4815 140.867 13.714H140.417C139.505 13.6229 138.586 13.8261 137.797 14.294C137.657 14.3957 137.533 14.5169 137.427 14.654C137.221 14.9902 137.086 15.3648 137.029 15.755C136.972 16.1453 136.996 16.543 137.097 16.924C136.644 17.0631 136.2 17.2301 135.767 17.424C134.767 17.234 133.767 17.024 132.767 16.804C133.953 15.4252 135.326 14.2201 136.847 13.224L136.947 13.314ZM135.747 13.534L135.507 13.714C134.925 14.145 134.367 14.6091 133.837 15.104C133.327 15.574 132.837 16.1039 132.337 16.6239C132.007 16.5539 131.673 16.5006 131.337 16.464C132.428 15.037 133.934 13.9822 135.647 13.444L135.747 13.534ZM130.747 17.1339L130.897 16.924C131.233 16.9381 131.568 16.9782 131.897 17.044C130.787 18.3158 129.784 19.677 128.897 21.1139C129.232 19.6566 129.84 18.2758 130.687 17.044L130.747 17.1339ZM126.827 18.464C127.272 17.9806 127.811 17.5935 128.411 17.3269C129.012 17.0603 129.66 16.9198 130.317 16.914C129.207 18.5429 128.495 20.4096 128.237 22.3639C127.827 23.0939 127.447 23.844 127.097 24.604C126.393 24.7397 125.717 24.9932 125.097 25.354C124.837 22.344 125.417 19.8539 126.767 18.3739L126.827 18.464ZM124.577 33.084C124.099 32.4702 123.751 31.765 123.555 31.0117C123.359 30.2585 123.319 29.4732 123.437 28.704C123.527 27.7572 123.969 26.8788 124.677 26.2439C124.787 27.1945 124.961 28.1367 125.197 29.064C125.108 29.4845 125.071 29.9145 125.087 30.344L125.027 30.6339C124.777 31.3739 124.627 32.1739 124.517 32.9939L124.577 33.084ZM126.677 43.274C125.894 42.1502 125.384 40.8593 125.187 39.5039C124.865 37.76 124.781 35.9805 124.937 34.214C125.678 34.9414 126.473 35.6101 127.317 36.214C126.137 38.344 125.377 40.214 125.787 41.524C125.884 41.8092 126.044 42.0689 126.255 42.2836C126.467 42.4983 126.724 42.6625 127.007 42.7639L126.677 43.274ZM129.477 44.784C128.535 44.7458 127.645 44.3402 126.997 43.654C127.157 43.414 127.307 43.164 127.457 42.924C127.955 43.1028 128.463 43.253 128.977 43.3739C129.265 43.7159 129.602 44.0126 129.977 44.2539C129.962 44.4269 129.962 44.6009 129.977 44.774C129.789 44.7605 129.602 44.7338 129.417 44.694L129.477 44.784ZM130.007 43.714L129.807 43.554H130.027C129.998 43.5744 129.971 43.5978 129.947 43.6239L130.007 43.714ZM129.237 42.944C128.849 42.4568 128.557 41.9003 128.377 41.304C128.837 40.444 129.277 39.5839 129.697 38.7639L129.807 38.554C130.257 39.144 130.717 39.7039 131.207 40.2439L131.367 40.414C130.814 41.2464 130.396 42.161 130.127 43.1239C129.767 42.9839 129.467 42.924 129.177 42.854L129.237 42.944ZM130.447 44.724C130.447 44.664 130.447 44.604 130.447 44.534L130.777 44.674H130.467L130.447 44.724ZM132.307 46.534C131.914 46.5112 131.536 46.3729 131.222 46.1363C130.907 45.8997 130.669 45.5754 130.537 45.204C131.965 44.9304 133.325 44.3764 134.537 43.574L134.847 43.5139L135.537 44.0039C136.493 44.6433 137.496 45.2083 138.537 45.694C136.586 46.6469 134.369 46.9113 132.247 46.444L132.307 46.534ZM138.977 45.394C137.914 44.9101 136.89 44.3417 135.917 43.694C136.398 43.7386 136.883 43.6715 137.334 43.4981C137.785 43.3246 138.19 43.0495 138.517 42.694C138.817 43.054 139.117 43.394 139.407 43.694C139.697 43.994 139.897 44.1639 140.127 44.3639C139.997 44.5139 139.867 44.664 139.727 44.804C139.472 44.993 139.201 45.1602 138.917 45.304L138.977 45.394ZM147.037 44.734C146.278 45.5208 145.311 46.0757 144.249 46.3341C143.187 46.5926 142.073 46.544 141.037 46.194C140.527 46.024 140.037 45.8239 139.507 45.6139C139.716 45.4542 139.913 45.2806 140.097 45.094C140.251 44.9436 140.395 44.7832 140.527 44.6139C140.815 44.8781 141.164 45.0666 141.543 45.1626C141.922 45.2586 142.318 45.2591 142.697 45.164C143.454 44.8411 144.053 44.2344 144.367 43.474C144.635 42.9191 144.85 42.3397 145.007 41.7439C145.335 42.2946 145.867 42.6936 146.487 42.854C146.78 42.8826 147.074 42.8412 147.347 42.7334C147.62 42.6256 147.863 42.4545 148.057 42.234H148.217C148.429 42.2748 148.642 42.3015 148.857 42.314C148.356 43.1838 147.722 43.9699 146.977 44.644L147.037 44.734ZM149.037 41.8839C148.82 41.8748 148.602 41.8515 148.387 41.814C148.694 41.493 148.927 41.1098 149.072 40.6905C149.217 40.2712 149.27 39.8255 149.227 39.3839C149.515 39.2914 149.796 39.1777 150.067 39.044C149.802 39.9922 149.447 40.913 149.007 41.794L149.037 41.8839ZM150.937 41.454C150.521 41.7026 150.051 41.8467 149.567 41.8739C150.025 40.8715 150.384 39.8265 150.637 38.7539C151.241 38.4128 151.819 38.0285 152.367 37.604C153.172 36.9724 153.925 36.2767 154.617 35.524C154.483 36.7153 154.079 37.8604 153.437 38.8723C152.794 39.8843 151.929 40.7363 150.907 41.3639L150.937 41.454ZM154.787 29.5139C154.787 30.0939 154.787 30.7939 154.787 31.5139C154.787 32.5139 154.787 33.514 154.727 34.654C153.945 35.5991 153.059 36.4544 152.087 37.204C151.672 37.5263 151.238 37.8235 150.787 38.094C150.877 37.684 150.947 37.254 151.017 36.814C151.478 36.7412 151.893 36.4941 152.177 36.1239C152.426 35.8922 152.6 35.5907 152.675 35.2588C152.75 34.927 152.723 34.5802 152.597 34.2639C152.32 33.721 151.865 33.2902 151.307 33.044C151.307 32.534 151.307 32.044 151.307 31.474C153.647 30.214 154.667 29.024 154.307 27.914C154.097 27.4879 153.798 27.1114 153.431 26.8097C153.064 26.508 152.636 26.2879 152.177 26.164C152.544 25.7414 152.807 25.24 152.948 24.6988C153.088 24.1576 153.102 23.5913 152.987 23.044C152.765 22.3788 152.329 21.8057 151.747 21.414C151.747 21.364 151.747 21.3139 151.747 21.2639C151.934 20.9347 152.222 20.6748 152.569 20.5232C152.916 20.3717 153.303 20.3367 153.671 20.4235C154.039 20.5102 154.37 20.7141 154.612 21.0044C154.855 21.2948 154.997 21.656 155.017 22.034C155.511 22.606 155.946 23.2257 156.317 23.8839C156.177 24.4339 155.967 25.0039 155.747 25.6239C155.244 26.8391 154.911 28.1179 154.757 29.424L154.787 29.5139ZM156.397 32.1139C156.067 32.7769 155.679 33.4094 155.237 34.0039C155.237 33.1239 155.237 32.284 155.237 31.524C155.237 30.764 155.237 30.104 155.237 29.524C155.389 28.2389 155.726 26.9826 156.237 25.794C156.397 25.354 156.547 24.9239 156.677 24.5039C157.216 25.6927 157.473 26.99 157.428 28.2945C157.383 29.5989 157.037 30.8753 156.417 32.024L156.397 32.1139Z" fill="#F46F67"/>
    <path d="M175.527 59.6439C175.075 59.1107 174.512 58.6824 173.877 58.3887C173.242 58.0949 172.552 57.9427 171.852 57.9427C171.153 57.9427 170.462 58.0949 169.827 58.3887C169.193 58.6824 168.63 59.1107 168.177 59.6439C167.47 60.4119 166.971 61.348 166.728 62.3632C166.484 63.3783 166.505 64.4389 166.787 65.444C167.157 66.444 167.877 67.364 167.887 68.444C167.887 70.254 165.957 71.344 164.887 72.804C164.37 73.5175 164.044 74.3511 163.939 75.2261C163.834 76.101 163.954 76.9883 164.287 77.804C164.927 79.314 166.287 80.6139 166.197 82.2539C166 83.321 165.48 84.3019 164.707 85.064C163.554 86.3322 162.606 87.7729 161.897 89.334C161.543 90.1226 161.367 90.9797 161.383 91.844C161.399 92.7083 161.605 93.5586 161.987 94.334C162.677 95.574 163.987 96.484 164.297 97.854C164.607 99.224 163.907 100.574 163.787 101.954C163.746 103.266 164.151 104.553 164.938 105.604C165.725 106.654 166.846 107.405 168.117 107.734C169.233 108.013 170.401 108.013 171.517 107.734C171.764 107.674 172.021 107.674 172.267 107.734C173.383 108.013 174.551 108.013 175.667 107.734C176.938 107.405 178.059 106.654 178.846 105.604C179.633 104.553 180.039 103.266 179.997 101.954C179.877 100.574 179.167 99.204 179.487 97.854C179.807 96.504 181.107 95.574 181.797 94.334C182.179 93.5586 182.386 92.7083 182.401 91.844C182.417 90.9797 182.241 90.1226 181.887 89.334C181.179 87.7729 180.231 86.3322 179.077 85.064C178.304 84.3019 177.784 83.321 177.587 82.2539C177.477 80.6139 178.857 79.314 179.497 77.804C179.831 76.9883 179.951 76.101 179.846 75.2261C179.741 74.3511 179.414 73.5175 178.897 72.804C177.817 71.344 175.897 70.254 175.897 68.444C175.897 67.374 176.627 66.444 176.997 65.444C177.28 64.4389 177.3 63.3783 177.057 62.3632C176.813 61.348 176.314 60.4119 175.607 59.6439H175.527Z" fill="#8EDAA7"/>
    <path d="M171.917 60.1539H171.527V117.764H171.917V60.1539Z" fill="#65BD83"/>
    <path d="M168.903 64.2346L168.582 64.457L171.581 68.7784L171.901 68.5559L168.903 64.2346Z" fill="#65BD83"/>
    <path d="M167.372 75.3955L167.026 75.5748L171.551 84.3125L171.897 84.1332L167.372 75.3955Z" fill="#65BD83"/>
    <path d="M168.999 75.447L168.609 75.4543L168.666 78.4538L169.055 78.4465L168.999 75.447Z" fill="#65BD83"/>
    <path d="M171.897 92.7839L171.597 92.5239L177.817 85.5139L178.107 85.7739L171.897 92.7839Z" fill="#65BD83"/>
    <path d="M174.707 89.4139L174.327 89.3339L175.357 84.3839L175.747 84.4639L174.707 89.4139Z" fill="#65BD83"/>
    <path d="M171.517 100.574L165.837 92.4639L166.157 92.2339L171.837 100.344L171.517 100.574Z" fill="#65BD83"/>
    <path d="M167.347 94.434L166.227 89.304L166.607 89.214L167.727 94.354L167.347 94.434Z" fill="#65BD83"/>
    <path d="M177.727 94.7996L171.633 104.399L171.962 104.608L178.056 95.0087L177.727 94.7996Z" fill="#65BD83"/>
    <path d="M176.357 97.444L175.977 97.364L176.627 94.344L177.007 94.434L176.357 97.444Z" fill="#65BD83"/>
    <path d="M171.927 70.644L171.607 70.414L174.947 65.724L175.267 65.954L171.927 70.644Z" fill="#65BD83"/>
    <path d="M174.43 63.6956L173.985 67.3384L174.372 67.3857L174.817 63.7429L174.43 63.6956Z" fill="#65BD83"/>
    <path d="M173.477 116.424H169.507C166.558 116.424 164.167 118.815 164.167 121.764C164.167 124.713 166.558 127.104 169.507 127.104H173.477C176.426 127.104 178.817 124.713 178.817 121.764C178.817 118.815 176.426 116.424 173.477 116.424Z" fill="#E7A886"/>
    <path d="M114.957 114.444H111.957C111.891 114.449 111.829 114.478 111.783 114.526C111.736 114.574 111.71 114.637 111.707 114.704L109.997 126.874C109.987 126.913 109.985 126.955 109.992 126.995C109.999 127.035 110.014 127.074 110.037 127.108C110.059 127.142 110.089 127.171 110.124 127.192C110.158 127.214 110.197 127.228 110.237 127.234H111.557C111.615 127.231 111.67 127.208 111.713 127.17C111.757 127.132 111.786 127.081 111.797 127.024L115.157 114.844C115.171 114.805 115.177 114.763 115.175 114.721C115.172 114.679 115.161 114.639 115.143 114.601C115.124 114.564 115.098 114.531 115.066 114.504C115.034 114.477 114.997 114.456 114.957 114.444Z" fill="url(#paint0_linear)"/>
    <path d="M141.347 114.924H144.347C144.412 114.929 144.473 114.956 144.519 115.002C144.565 115.048 144.593 115.109 144.597 115.174L146.307 127.354C146.316 127.394 146.316 127.435 146.308 127.474C146.3 127.514 146.284 127.551 146.26 127.584C146.236 127.617 146.206 127.645 146.171 127.666C146.136 127.686 146.097 127.699 146.057 127.704H144.737C144.68 127.701 144.625 127.678 144.581 127.64C144.538 127.602 144.508 127.551 144.497 127.494L141.147 115.324C141.132 115.285 141.125 115.243 141.127 115.2C141.128 115.158 141.139 115.117 141.158 115.079C141.177 115.041 141.203 115.008 141.236 114.981C141.269 114.955 141.306 114.935 141.347 114.924Z" fill="url(#paint1_linear)"/>
    <path d="M131.017 112.294H128.017C127.952 112.296 127.89 112.324 127.843 112.37C127.797 112.416 127.77 112.478 127.767 112.544L126.057 124.714C126.047 124.754 126.046 124.796 126.053 124.837C126.06 124.878 126.076 124.917 126.1 124.951C126.124 124.985 126.155 125.014 126.19 125.035C126.226 125.056 126.266 125.07 126.307 125.074H127.617C127.675 125.071 127.73 125.048 127.773 125.01C127.817 124.972 127.846 124.921 127.857 124.864L131.217 112.684C131.231 112.645 131.237 112.604 131.234 112.563C131.232 112.522 131.221 112.482 131.202 112.446C131.183 112.409 131.157 112.377 131.125 112.351C131.094 112.325 131.057 112.305 131.017 112.294Z" fill="url(#paint2_linear)"/>
    <path d="M157.417 112.764H160.417C160.481 112.77 160.541 112.799 160.587 112.844C160.632 112.89 160.661 112.95 160.667 113.014L162.377 125.194C162.386 125.234 162.386 125.275 162.378 125.314C162.37 125.354 162.353 125.391 162.33 125.424C162.306 125.457 162.276 125.485 162.241 125.506C162.206 125.526 162.167 125.539 162.127 125.544H160.807C160.751 125.54 160.697 125.517 160.656 125.479C160.614 125.441 160.586 125.39 160.577 125.334L157.217 113.164C157.202 113.125 157.194 113.083 157.196 113.04C157.198 112.998 157.209 112.957 157.228 112.919C157.247 112.881 157.273 112.848 157.306 112.821C157.339 112.795 157.377 112.775 157.417 112.764Z" fill="url(#paint3_linear)"/>
    <path d="M114.957 114.444C113.417 119.654 112.227 125.444 110.037 126.874C110.027 126.913 110.025 126.955 110.032 126.995C110.039 127.035 110.054 127.074 110.077 127.108C110.099 127.142 110.129 127.171 110.163 127.192C110.198 127.214 110.237 127.228 110.277 127.234H111.597C111.655 127.231 111.71 127.208 111.753 127.17C111.797 127.132 111.826 127.081 111.837 127.024L115.197 114.844C115.211 114.802 115.215 114.758 115.21 114.714C115.205 114.67 115.191 114.627 115.168 114.589C115.145 114.552 115.115 114.519 115.078 114.494C115.042 114.469 115.001 114.452 114.957 114.444Z" fill="url(#paint4_linear)"/>
    <path d="M144.307 114.924C144.372 114.929 144.433 114.956 144.479 115.002C144.525 115.048 144.552 115.109 144.557 115.174L146.267 127.354C146.276 127.394 146.276 127.435 146.268 127.474C146.26 127.514 146.244 127.551 146.22 127.584C146.196 127.617 146.166 127.645 146.131 127.666C146.096 127.686 146.058 127.699 146.017 127.704H144.697C144.64 127.701 144.585 127.678 144.541 127.64C144.498 127.602 144.468 127.551 144.457 127.494C145.717 124.974 144.887 119.984 144.307 114.924Z" fill="url(#paint5_linear)"/>
    <path d="M131.017 112.294C129.577 117.404 128.497 122.654 126.097 124.714C126.087 124.754 126.085 124.796 126.093 124.837C126.1 124.878 126.116 124.917 126.14 124.951C126.164 124.985 126.194 125.014 126.23 125.035C126.266 125.056 126.306 125.07 126.347 125.074H127.657C127.715 125.071 127.77 125.048 127.813 125.01C127.857 124.972 127.886 124.921 127.897 124.864L131.257 112.684C131.271 112.643 131.275 112.599 131.27 112.555C131.265 112.512 131.25 112.47 131.228 112.433C131.205 112.396 131.174 112.365 131.138 112.34C131.101 112.316 131.06 112.3 131.017 112.294Z" fill="url(#paint6_linear)"/>
    <path d="M160.417 112.764C160.481 112.77 160.541 112.799 160.587 112.844C160.632 112.89 160.661 112.95 160.667 113.014L162.377 125.194C162.386 125.234 162.386 125.275 162.378 125.314C162.37 125.354 162.353 125.391 162.33 125.424C162.306 125.457 162.276 125.485 162.241 125.506C162.206 125.526 162.167 125.539 162.127 125.544H160.807C160.751 125.54 160.697 125.517 160.656 125.479C160.614 125.441 160.586 125.39 160.577 125.334C161.787 122.354 161.017 117.734 160.417 112.764Z" fill="url(#paint7_linear)"/>
    <path d="M126.417 103.264H162.417L163.647 86.0439C163.642 84.8062 163.147 83.6209 162.27 82.7476C161.392 81.8742 160.205 81.3839 158.967 81.3839H132.417C131.179 81.3839 129.992 81.8742 129.115 82.7476C128.238 83.6209 127.743 84.8062 127.737 86.0439L126.417 103.264Z" fill="url(#paint8_linear)"/>
    <path d="M124.487 116.504L110.177 116.294C109.916 116.294 109.659 116.239 109.42 116.133C109.182 116.026 108.969 115.871 108.795 115.676C108.622 115.482 108.491 115.253 108.412 115.004C108.333 114.756 108.308 114.493 108.337 114.234L110.427 96.3738C110.486 95.9206 110.708 95.5045 111.053 95.2042C111.398 94.9038 111.84 94.7401 112.297 94.7438H126.617C126.875 94.7417 127.129 94.7931 127.366 94.8946C127.602 94.9961 127.815 95.1456 127.991 95.3336C128.167 95.5215 128.302 95.7439 128.387 95.9866C128.473 96.2294 128.507 96.4872 128.487 96.7438L126.387 114.814C126.342 115.283 126.121 115.718 125.769 116.032C125.416 116.345 124.959 116.514 124.487 116.504Z" fill="url(#paint9_linear)"/>
    <path d="M124.517 103.264H159.957L161.157 86.0439C161.161 85.4359 161.045 84.833 160.816 84.2698C160.587 83.7065 160.249 83.194 159.822 82.7612C159.395 82.3285 158.887 81.9841 158.327 81.7478C157.767 81.5115 157.165 81.3878 156.557 81.3839H130.327C129.718 81.3865 129.116 81.5093 128.555 81.745C127.993 81.9807 127.484 82.3248 127.056 82.7577C126.627 83.1905 126.289 83.7037 126.059 84.2676C125.829 84.8315 125.713 85.4351 125.717 86.0439L124.517 103.264Z" fill="url(#paint10_linear)"/>
    <path d="M159.877 117.054L146.097 118.004C146.078 118.003 146.059 117.998 146.042 117.989C146.025 117.98 146.009 117.968 145.997 117.953C145.985 117.938 145.976 117.92 145.971 117.901C145.966 117.883 145.965 117.863 145.967 117.844L149.817 95.844C149.822 95.8131 149.838 95.7849 149.862 95.7647C149.886 95.7445 149.916 95.7337 149.947 95.734L166.827 95.174C166.848 95.173 166.869 95.1771 166.888 95.1859C166.908 95.1948 166.924 95.2082 166.937 95.2249C166.95 95.2416 166.958 95.2611 166.962 95.2819C166.965 95.3026 166.964 95.324 166.957 95.344L165.097 112.524C164.915 113.78 164.288 114.928 163.329 115.759C162.371 116.591 161.146 117.05 159.877 117.054Z" fill="url(#paint11_linear)"/>
    <path d="M110.857 111.094L144.437 111.334L145.207 101.154C133.991 100.455 122.74 100.552 111.537 101.444L110.857 111.094Z" fill="url(#paint12_linear)"/>
    <path d="M144.557 109.814L144.447 111.534L110.867 111.184L110.967 109.614C122.145 110.475 133.37 110.542 144.557 109.814Z" fill="url(#paint13_linear)"/>
    <path d="M111.467 102.524L111.537 101.444C122.74 100.552 133.991 100.455 145.207 101.154L145.127 102.154C133.517 101.914 122.287 102.114 111.467 102.524Z" fill="url(#paint14_linear)"/>
    <path d="M106.977 114.274L107.377 110.644L108.787 97.6439C108.871 96.7025 109.298 95.825 109.988 95.1792C110.678 94.5334 111.583 94.1648 112.527 94.1439H125.167L125.087 95.314H117.417C116.498 95.3326 115.618 95.6899 114.947 96.3174C114.275 96.9449 113.859 97.7983 113.777 98.714L112.517 110.344C112.508 110.42 112.514 110.498 112.535 110.572C112.556 110.646 112.592 110.715 112.641 110.775C112.689 110.835 112.749 110.884 112.818 110.92C112.886 110.956 112.961 110.978 113.037 110.984L143.037 111.394C143.183 111.402 143.326 111.354 143.436 111.259C143.546 111.163 143.615 111.029 143.627 110.884L144.987 98.2839C145.069 97.3683 145.485 96.5148 146.157 95.8873C146.828 95.2598 147.708 94.9025 148.627 94.8839H150.417L166.417 94.7639C166.555 94.7638 166.688 94.8118 166.794 94.8994C166.9 94.987 166.972 95.1089 166.997 95.2439C167.014 95.3257 167.011 95.4101 166.991 95.4911C166.971 95.572 166.934 95.6477 166.881 95.7125C166.829 95.7774 166.763 95.8299 166.688 95.8665C166.613 95.903 166.531 95.9226 166.447 95.924L153.547 96.0439C152.629 96.0647 151.75 96.4227 151.079 97.0498C150.408 97.6769 149.991 98.5291 149.907 99.444L148.127 115.904C148.074 116.496 147.795 117.045 147.349 117.438C146.902 117.831 146.322 118.037 145.727 118.014L109.427 117.274C109.065 117.25 108.711 117.151 108.389 116.985C108.066 116.818 107.781 116.587 107.551 116.306C107.321 116.025 107.152 115.699 107.053 115.35C106.954 115 106.929 114.634 106.977 114.274Z" fill="url(#paint15_linear)"/>
    <path d="M135.157 59.0539C138.287 56.5039 142.337 57.864 143.067 61.224C144.017 65.584 143.367 69.2239 144.647 72.0339C145.849 74.8453 146.452 77.8765 146.417 80.9339C141.567 75.1139 137.107 77.9339 134.177 71.9339C133.237 70.0339 132.147 61.4939 135.157 59.0539Z" fill="#03053E"/>
    <path d="M137.367 73.794L141.277 73.564L140.817 66.074L138.427 66.214L137.367 73.794Z" fill="#D2996C"/>
    <path d="M133.787 62.7039C133.307 65.8139 133.987 68.8839 135.887 69.4439C137.787 70.0039 140.587 68.1138 141.777 64.9938C143.037 61.7038 142.177 59.3538 139.547 58.6238C136.757 57.8438 134.307 59.2839 133.787 62.7039Z" fill="#D2996C"/>
    <path d="M118.417 99.174H118.687L138.267 95.554L141.707 94.9139L142.567 102.334L139.067 102.494L123.067 103.254C122.961 103.26 122.858 103.292 122.767 103.346C122.676 103.4 122.598 103.476 122.542 103.565C122.485 103.655 122.45 103.757 122.441 103.863C122.432 103.969 122.448 104.075 122.487 104.174L128.997 119.814L129.327 120.604L127.887 121.304L127.467 120.564L117.047 102.254C116.935 102.054 116.854 101.838 116.807 101.614C116.752 101.348 116.75 101.074 116.801 100.807C116.852 100.54 116.955 100.286 117.105 100.059C117.254 99.832 117.447 99.6371 117.672 99.4852C117.898 99.3334 118.151 99.2276 118.417 99.174Z" fill="#D2996C"/>
    <path d="M116.477 100.244H116.727L138.447 96.2439L141.887 95.6139L142.787 102.974L139.287 103.184L119.817 104.354C119.597 104.368 119.391 104.463 119.236 104.619C119.081 104.776 118.989 104.984 118.977 105.204L117.907 125.324V126.174H116.297L116.247 125.324L114.877 102.384C114.833 101.893 114.972 101.403 115.267 101.008C115.563 100.613 115.994 100.341 116.477 100.244Z" fill="#D2996C"/>
    <path d="M123.417 126.174L124.317 125.174L126.987 120.704C127.178 120.888 127.425 121.001 127.689 121.025C127.953 121.048 128.217 120.981 128.437 120.834C128.87 120.618 129.221 120.267 129.437 119.834C129.442 119.79 129.459 119.748 129.487 119.714C129.737 119.514 130.267 119.774 130.677 120.284C130.799 120.444 130.9 120.618 130.977 120.804L131.537 121.514L123.917 127.514L123.347 126.784C123.308 126.741 123.279 126.69 123.262 126.635C123.244 126.579 123.238 126.521 123.245 126.463C123.251 126.406 123.27 126.35 123.3 126.3C123.33 126.25 123.37 126.207 123.417 126.174Z" fill="#03053E"/>
    <path d="M109.757 126.634L111.087 126.414L115.947 124.584C115.981 124.847 116.105 125.091 116.299 125.273C116.492 125.456 116.742 125.565 117.007 125.584C117.491 125.682 117.993 125.618 118.437 125.404C118.468 125.373 118.506 125.349 118.547 125.334C118.867 125.334 119.127 125.874 119.117 126.524C119.118 126.723 119.091 126.922 119.037 127.114V128.024L109.377 127.934V127.014C109.384 126.915 109.427 126.823 109.496 126.753C109.566 126.683 109.659 126.641 109.757 126.634Z" fill="#03053E"/>
    <path d="M146.757 93.7639H136.587C133.057 97.0839 122.887 97.304 122.107 98.224C120.967 99.574 123.367 103.454 123.527 104.824C123.687 106.194 122.957 107.344 123.667 109.094C123.926 109.626 124.292 110.097 124.744 110.48C125.195 110.862 125.72 111.146 126.287 111.314C126.287 111.314 127.807 106.194 132.887 105.314C137.147 104.544 142.357 104.604 145.047 102.314C148.417 99.494 146.757 93.7639 146.757 93.7639Z" fill="#034A89"/>
    <path d="M116.707 84.1739C116.517 84.8339 117.267 85.9439 118.617 86.5339C119.967 87.1239 120.967 86.6438 121.197 85.9938C121.737 84.5338 117.017 83.1739 116.707 84.1739Z" fill="#D2996C"/>
    <path d="M138.667 75.064L131.167 88.4139L132.707 87.814L122.017 84.924L121.017 84.6639L120.447 86.5339L121.447 86.854L131.937 90.3839C132.213 90.4794 132.513 90.478 132.787 90.3798C133.062 90.2816 133.295 90.0926 133.447 89.844V89.7839L141.537 76.7839L142.427 75.354L139.427 73.594L138.667 75.064Z" fill="#D2996C"/>
    <path d="M143.467 77.174C142.467 80.674 137.197 88.734 132.657 90.564C129.487 91.844 124.077 90.704 124.077 90.704L124.707 85.274C124.707 85.274 129.197 87.554 131.217 85.274C133.437 82.704 137.047 74.814 139.217 74.174C141.137 73.524 143.897 75.554 143.467 77.174Z" fill="#1FA3AA"/>
    <path d="M141.787 72.064C141.787 72.064 148.317 82.684 148.617 94.234C148.667 96.234 148.917 96.294 140.757 96.234C132.597 96.174 133.197 94.8739 133.197 94.8739C135.577 88.6439 136.257 81.874 136.977 73.424C136.977 73.444 140.027 73.454 141.787 72.064Z" fill="#3FB9C0"/>
    <path d="M138.607 57.844C139.386 57.7482 140.177 57.8621 140.897 58.1739C142.157 58.7339 143.897 60.1739 144.377 63.5439C144.877 66.7139 143.697 68.344 146.597 71.184C149.807 73.324 155.237 72.594 154.927 77.854C154.617 83.114 147.657 82.854 145.847 80.344C144.037 77.834 144.087 75.4939 143.067 73.9139C142.047 72.3339 140.527 73.3839 139.617 71.6139C138.707 69.8439 139.967 66.034 140.217 65.354C140.134 64.9706 139.94 64.6201 139.659 64.3463C139.378 64.0725 139.023 63.8874 138.637 63.814C136.367 63.344 134.387 61.3439 134.337 60.6639C134.287 59.9839 136.227 57.984 138.607 57.844Z" fill="#03053E"/>
    <path d="M140.729 64.9714C140.928 64.4442 140.733 63.8827 140.294 63.7171C139.854 63.5516 139.337 63.8447 139.139 64.3718C138.94 64.8989 139.135 65.4605 139.574 65.6261C140.014 65.7916 140.531 65.4985 140.729 64.9714Z" fill="#D2996C"/>
    <path d="M117.907 83.354C118.117 83.054 119.117 83.204 120.197 83.844C121.277 84.484 121.637 85.2039 121.447 85.5239C121.027 86.2439 117.567 83.814 117.907 83.354Z" fill="#D2996C"/>
    <path d="M140.987 108.894C141.687 108.894 142.507 107.404 142.657 105.354C142.797 103.474 142.057 102.184 141.357 102.144C139.797 102.064 139.927 108.924 140.987 108.894Z" fill="#D2996C"/>
    <path d="M139.597 105.884C139.317 105.774 139.247 104.944 139.597 103.944C139.947 102.944 140.417 102.524 140.717 102.614C141.327 102.814 140.027 106.064 139.597 105.884Z" fill="#D2996C"/>
    <path d="M138.637 77.6639C139.287 79.5939 139.897 81.594 140.417 83.584C140.687 84.584 140.927 85.584 141.127 86.584C141.342 87.5495 141.493 88.5283 141.577 89.5139C141.577 89.7472 141.577 89.9773 141.577 90.204V90.944C141.577 91.454 141.577 91.944 141.507 92.474C141.437 93.474 141.347 94.534 141.247 95.574C141.027 97.644 140.777 99.7239 140.477 101.774L140.337 102.774L142.257 103.114L142.457 102.114C142.877 100.034 143.257 97.9639 143.597 95.8639C143.757 94.8639 143.917 93.764 144.047 92.704C144.107 92.174 144.167 91.634 144.217 91.094V90.2639C144.232 89.9674 144.232 89.6704 144.217 89.3739C144.179 88.265 144.072 87.1596 143.897 86.064C143.727 84.984 143.527 83.9339 143.307 82.8839C142.867 80.7839 142.357 78.7339 141.777 76.6439L141.317 75.0239L138.017 76.0239L138.637 77.6639Z" fill="#D2996C"/>
    <path d="M142.787 74.9939C144.787 77.9939 145.617 83.8739 145.787 88.7639C145.81 92.1208 145.491 95.4713 144.837 98.7639L138.837 97.444C138.837 97.444 141.497 92.8939 140.987 89.5339C140.477 86.1739 137.277 77.9939 138.207 75.9339C138.987 74.1739 141.877 73.6539 142.787 74.9939Z" fill="#1FA3AA"/>
    <path d="M142.677 111.374H142.987C143.133 111.382 143.275 111.334 143.385 111.239C143.496 111.143 143.564 111.009 143.577 110.864L144.937 98.2639C145.018 97.3483 145.435 96.4948 146.106 95.8673C146.778 95.2398 147.658 94.8825 148.577 94.8639H150.417L166.417 94.7439C166.555 94.7438 166.688 94.7918 166.794 94.8794C166.9 94.967 166.972 95.089 166.997 95.224C167.013 95.3058 167.011 95.3901 166.991 95.4711C166.971 95.552 166.934 95.6277 166.881 95.6925C166.829 95.7574 166.763 95.8099 166.688 95.8464C166.613 95.883 166.531 95.9026 166.447 95.9039L153.547 96.0239C152.629 96.0447 151.75 96.4027 151.079 97.0298C150.408 97.6568 149.991 98.5091 149.907 99.424L148.127 115.884C148.074 116.476 147.795 117.025 147.348 117.418C146.902 117.811 146.322 118.017 145.727 117.994L142.727 117.934L142.677 111.374Z" fill="url(#paint16_linear)"/>
    <path d="M48.8972 60.074L68.8372 87.704L65.2673 86.7639L88.1772 77.684L90.2673 76.8639L91.9873 80.8639L89.9873 81.814L67.6772 92.2739C67.0922 92.5497 66.4311 92.6197 65.8013 92.4727C65.1714 92.3256 64.6098 91.9702 64.2073 91.464L64.1072 91.334L42.9373 64.6339L48.8972 60.074Z" fill="#EFBC90"/>
    <path d="M103.297 73.9039C103.817 75.3539 101.447 78.254 97.2972 80.224C93.4972 82.044 90.2372 81.5439 89.5972 80.1239C88.1772 76.9639 102.497 71.6639 103.297 73.9039Z" fill="#EFBC90"/>
    <path d="M78.6771 79.7439L83.6771 92.524C83.6771 92.524 68.7271 96.334 62.1071 92.064C52.8371 86.064 36.7872 65.784 43.0072 59.954C49.9172 53.464 56.7171 73.234 65.6171 80.304C69.4171 83.334 78.6771 79.7439 78.6771 79.7439Z" fill="url(#paint17_linear)"/>
    <path d="M96.0571 73.434C95.6071 72.934 93.8072 73.434 91.9472 74.804C90.0872 76.174 89.5973 77.6039 90.0073 78.1539C90.9273 79.3739 96.7671 74.174 96.0571 73.434Z" fill="#EFBC90"/>
    <path d="M58.8673 54.454L45.1974 53.644C41.2674 45.714 39.9073 39.644 40.8673 33.434C41.8673 26.764 50.2073 24.164 56.3573 29.154C62.2573 33.924 61.0873 50.904 58.8673 54.454Z" fill="#03053E"/>
    <path d="M52.0772 58.064L44.4072 57.604L45.2772 42.934L49.9672 43.214L52.0772 58.064Z" fill="#EDBA8E"/>
    <path d="M59.0571 36.304C59.9871 42.404 58.6772 48.414 54.9572 49.524C51.4772 50.524 45.7471 46.934 43.3971 40.814C40.9171 34.374 42.5872 29.814 47.7372 28.334C53.2172 26.794 58.0271 29.614 59.0571 36.304Z" fill="#F1C8A9"/>
    <path d="M49.5872 26.7939C48.0617 26.6122 46.5154 26.84 45.1072 27.4539C42.6472 28.5539 39.3171 31.324 38.2971 37.984C37.2971 44.194 39.6573 47.394 33.9673 52.984L47.6472 53.7939C49.6472 50.5539 46.9473 42.8639 46.4573 41.5339C46.6333 40.7899 47.0187 40.1118 47.5681 39.5801C48.1175 39.0485 48.8077 38.6854 49.5571 38.5339C54.0071 37.6039 57.8773 33.6739 57.9573 32.3439C58.0373 31.0139 54.2572 27.0739 49.5872 26.7939Z" fill="#03053E"/>
    <path d="M47.8139 42.0136C48.6765 41.6869 49.0585 40.5848 48.6674 39.5518C48.2762 38.5188 47.2599 37.9462 46.3974 38.2728C45.5349 38.5994 45.1528 39.7015 45.5439 40.7345C45.9351 41.7675 46.9514 42.3402 47.8139 42.0136Z" fill="#F1C8A9"/>
    <path d="M44.7072 55.604C44.7072 55.604 32.3071 76.6039 34.8371 98.8939C34.8371 98.8939 33.7571 102.624 47.8371 102.684C60.5671 102.684 60.567 100.684 60.567 100.684C56.117 88.684 54.797 74.3539 53.077 58.0239C53.067 57.9939 47.8072 58.174 44.7072 55.604Z" fill="#F46F67"/>
    <path d="M50.7773 57.174C51.2506 66.3606 52.2523 75.5124 53.7773 84.584C55.0758 92.4259 57.1148 100.127 59.8671 107.584C59.8671 107.584 33.5772 107.324 31.2172 102.524C28.4872 96.9539 37.7972 62.7039 43.4372 55.2839L50.7773 57.174Z" fill="url(#paint18_linear)"/>
    <path d="M47.3472 65.814C45.3472 69.584 43.3472 73.514 41.5972 77.434C40.7172 79.434 39.8672 81.374 39.0972 83.354C38.3262 85.2776 37.6783 87.2481 37.1572 89.2539C37.0372 89.7339 36.9372 90.1939 36.8572 90.6639L36.6172 92.214C36.4772 93.214 36.3473 94.3239 36.2373 95.3939C36.0173 97.5339 35.8473 99.7039 35.7073 101.874C35.4273 106.224 35.2372 110.604 35.1272 114.964L35.0771 117.064H30.9873L30.9172 114.954C30.7772 110.514 30.7173 106.104 30.7473 101.654C30.7473 99.4339 30.8172 97.204 30.9172 94.954C30.9672 93.834 31.0372 92.704 31.1172 91.574L31.2873 89.844C31.3673 89.224 31.4571 88.6039 31.5771 88.0139C32.0402 85.7309 32.6482 83.4797 33.3972 81.2739C34.1172 79.1139 34.8973 77.0039 35.7173 74.9139C37.3573 70.7239 39.1171 66.664 41.0471 62.574L42.5471 59.3739L49.0073 62.6639L47.3472 65.814Z" fill="#F4CAAB"/>
    <path d="M34.8671 123.624C35.4971 123.534 36.0672 121.884 35.9572 119.694C35.8472 117.694 35.0071 116.384 34.3671 116.424C32.9271 116.494 33.8871 123.764 34.8671 123.624Z" fill="#F4CAAB"/>
    <path d="M30.557 129.574C29.157 129.214 28.167 125.724 28.837 121.304C29.457 117.224 31.5872 114.844 33.0272 115.074C36.2572 115.614 32.727 130.174 30.557 129.574Z" fill="#F4CAAB"/>
    <path d="M41.5173 105.174L28.3672 106.794C28.3672 106.794 28.8972 91.844 30.8472 83.284C33.2972 72.524 37.8472 56.494 46.1172 58.674C56.8972 61.534 41.2572 83.134 40.1172 89.054C39.2172 93.794 41.5173 105.174 41.5173 105.174Z" fill="url(#paint19_linear)"/>
</svg>
