<svg width="100" height="91" viewBox="0 0 100 91" fill="none" xmlns="http://www.w3.org/2000/svg">
        <path opacity="0.25" d="M2.04002 26.66C1.31002 32.98 3.31003 39.16 7.33003 44.66C7.98674 45.4616 8.47737 46.3858 8.77333 47.3789C9.06929 48.3719 9.16466 49.414 9.05391 50.4443C8.94316 51.4746 8.62849 52.4725 8.12822 53.38C7.62795 54.2875 6.9521 55.0863 6.14003 55.73C2.88771 58.3697 0.746152 62.1353 0.140031 66.28C-1.28997 77.8 11.03 88.76 27.48 90.61C33.5601 91.3516 39.7293 90.6387 45.48 88.53C48.9088 87.2841 52.6 86.9398 56.2 87.53L56.55 87.59C79.1 90.97 99.34 79.95 99.99 63.95C100.092 58.7785 98.3759 53.7353 95.14 49.7C92.3034 46.1711 90.9802 41.6622 91.46 37.16V36.89C93.46 19.58 75.02 3.25 50.32 0.420001C25.62 -2.41 4.02002 9.33999 2.04002 26.66Z" fill="#9BCDCA"/>
        <path d="M79.79 36.45C79.4079 36.1792 79.0959 35.821 78.8802 35.4053C78.6646 34.9896 78.5513 34.5283 78.5499 34.06C78.5514 33.4281 78.7585 32.8138 79.14 32.31C79.5282 31.8131 79.7394 31.2007 79.7399 30.57C79.7319 29.9346 79.5222 29.3181 79.1412 28.8095C78.7602 28.3009 78.2275 27.9264 77.6199 27.74C77.0158 27.5524 76.4865 27.1787 76.1075 26.6722C75.7286 26.1658 75.5194 25.5525 75.5099 24.92C75.5086 24.6063 75.5628 24.2948 75.67 24C75.8129 23.5459 75.8456 23.0644 75.7656 22.5952C75.6856 22.1259 75.4951 21.6825 75.2098 21.3014C74.9245 20.9204 74.5526 20.6127 74.1249 20.4038C73.6972 20.1949 73.2259 20.0907 72.7499 20.1C71.939 20.0937 71.1618 19.775 70.58 19.21C70.2968 18.9403 70.071 18.6162 69.9164 18.257C69.7617 17.8978 69.6813 17.5111 69.6799 17.12C69.6734 16.7195 69.5881 16.3241 69.4288 15.9566C69.2694 15.589 69.0393 15.2564 68.7514 14.9778C68.4635 14.6993 68.1236 14.4801 67.751 14.3329C67.3784 14.1858 66.9805 14.1134 66.58 14.12C66.2649 14.1225 65.9518 14.1696 65.65 14.26C65.351 14.3465 65.0412 14.3903 64.73 14.39C64.0769 14.4052 63.4357 14.2144 62.8972 13.8446C62.3587 13.4749 61.9503 12.9449 61.73 12.33C61.5096 11.7151 61.1012 11.1852 60.5627 10.8154C60.0243 10.4456 59.383 10.2548 58.73 10.27C58.0917 10.2702 57.4682 10.4617 56.9399 10.82C56.4117 11.1783 55.7882 11.3699 55.15 11.37C54.6635 11.3735 54.1828 11.2643 53.7455 11.0509C53.3083 10.8375 52.9265 10.5257 52.6299 10.14C52.3313 9.76317 51.9513 9.45873 51.5183 9.24945C51.0854 9.04017 50.6108 8.93146 50.1299 8.93146C49.6491 8.93146 49.1745 9.04017 48.7415 9.24945C48.3086 9.45873 47.9286 9.76317 47.6299 10.14C47.1206 10.7689 46.3926 11.1821 45.5915 11.2971C44.7905 11.4121 43.9756 11.2202 43.31 10.76C42.7765 10.3871 42.1409 10.188 41.49 10.19C40.8522 10.1794 40.2267 10.3658 39.6988 10.7237C39.1709 11.0816 38.7662 11.5937 38.5399 12.19C38.3096 12.7937 37.897 13.3107 37.3593 13.6691C36.8217 14.0275 36.1858 14.2096 35.5399 14.19C35.2008 14.1933 34.8632 14.1427 34.5399 14.04C34.2165 13.9381 33.8791 13.8875 33.5399 13.89C32.7385 13.8764 31.9637 14.1778 31.3821 14.7295C30.8005 15.2811 30.4587 16.039 30.43 16.84C30.4241 17.2307 30.3396 17.6162 30.1816 17.9736C30.0235 18.331 29.7951 18.6528 29.5099 18.92C28.9151 19.4735 28.1325 19.7808 27.3199 19.78C26.9168 19.7652 26.5149 19.8319 26.1381 19.976C25.7613 20.1201 25.4175 20.3388 25.1272 20.6188C24.8368 20.8989 24.606 21.2347 24.4484 21.606C24.2908 21.9773 24.2097 22.3766 24.21 22.78C24.2083 23.0823 24.2555 23.3828 24.3499 23.67C24.445 23.9536 24.4924 24.251 24.49 24.55C24.5086 25.1765 24.3305 25.7931 23.9808 26.3133C23.6311 26.8334 23.1272 27.2309 22.5399 27.45C21.9252 27.6316 21.3847 28.0053 20.9978 28.5164C20.6109 29.0275 20.3979 29.649 20.39 30.29C20.3907 30.9065 20.5906 31.5063 20.96 32C21.3327 32.4957 21.5329 33.0998 21.53 33.72C21.529 34.1956 21.4119 34.6637 21.1888 35.0837C20.9657 35.5037 20.6434 35.8629 20.2499 36.13C19.8601 36.3973 19.5413 36.7555 19.321 37.1737C19.1007 37.5918 18.9856 38.0574 18.9856 38.53C18.9856 39.0026 19.1007 39.4682 19.321 39.8864C19.5413 40.3045 19.8601 40.6627 20.2499 40.93C20.6285 41.2042 20.9378 41.5631 21.1531 41.9781C21.3684 42.393 21.4838 42.8526 21.49 43.32C21.4907 43.9523 21.2834 44.5673 20.9 45.07C20.5123 45.5711 20.3013 46.1864 20.3 46.82C20.3101 47.4537 20.5208 48.068 20.9016 48.5746C21.2825 49.0812 21.814 49.4542 22.42 49.64C23.0256 49.8281 23.5561 50.2034 23.9352 50.7118C24.3143 51.2203 24.5226 51.8358 24.53 52.47C24.5297 52.7836 24.4755 53.0948 24.37 53.39C24.2723 53.687 24.2217 53.9974 24.2199 54.31C24.2198 54.7099 24.2997 55.1058 24.4548 55.4745C24.61 55.8431 24.8372 56.177 25.1232 56.4565C25.4093 56.736 25.7483 56.9555 26.1204 57.1021C26.4925 57.2486 26.8901 57.3193 27.2899 57.31C28.0989 57.3166 28.8749 57.6313 29.46 58.19C29.7444 58.4609 29.9708 58.7867 30.1255 59.1476C30.2802 59.5086 30.36 59.8973 30.36 60.29C30.3665 60.6906 30.4518 61.0859 30.6111 61.4535C30.7705 61.821 31.0006 62.1536 31.2885 62.4322C31.5764 62.7107 31.9163 62.9299 32.2889 63.0771C32.6615 63.2243 33.0594 63.2966 33.46 63.29C33.7754 63.2925 34.0892 63.2453 34.39 63.15C34.689 63.0635 34.9987 63.0197 35.31 63.02C35.963 63.0048 36.6042 63.1956 37.1427 63.5654C37.6812 63.9352 38.0896 64.4651 38.31 65.08C38.4783 65.5295 38.7466 65.9348 39.0944 66.2655C39.4423 66.5962 39.8607 66.8435 40.3181 66.989C40.7755 67.1344 41.26 67.174 41.7349 67.1049C42.2099 67.0358 42.663 66.8598 43.06 66.59C43.5911 66.2391 44.2134 66.0514 44.8499 66.05C45.3368 66.0442 45.8183 66.1524 46.2559 66.3659C46.6935 66.5795 47.075 66.8926 47.37 67.28C47.6708 67.6535 48.0515 67.9549 48.4842 68.162C48.9168 68.369 49.3903 68.4765 49.87 68.4765C50.3496 68.4765 50.8231 68.369 51.2557 68.162C51.6884 67.9549 52.0691 67.6535 52.37 67.28C52.6675 66.9049 53.046 66.6021 53.4773 66.3943C53.9085 66.1865 54.3812 66.079 54.86 66.08C55.5137 66.0798 56.1519 66.2787 56.6899 66.65C57.2234 67.0229 57.8591 67.222 58.5099 67.22C59.1561 67.2411 59.7927 67.0596 60.3306 66.701C60.8686 66.3424 61.2809 65.8246 61.5099 65.22C61.7403 64.6163 62.1529 64.0993 62.6906 63.7409C63.2282 63.3825 63.8641 63.2004 64.5099 63.22C64.8486 63.2133 65.1862 63.2606 65.5099 63.36C65.8334 63.4619 66.1708 63.5125 66.5099 63.51C67.3105 63.5263 68.0853 63.2271 68.6672 62.677C69.249 62.127 69.5912 61.3702 69.6199 60.57C69.6252 60.1792 69.7095 59.7935 69.8676 59.4361C70.0257 59.0786 70.2544 58.7568 70.54 58.49C71.1348 57.9365 71.9174 57.6292 72.73 57.63C73.1331 57.6448 73.535 57.5781 73.9118 57.434C74.2886 57.2899 74.6324 57.0713 74.9227 56.7912C75.2131 56.5111 75.444 56.1754 75.6016 55.804C75.7592 55.4327 75.8402 55.0334 75.84 54.63C75.8416 54.3277 75.7944 54.0272 75.7 53.74C75.6049 53.4565 75.5575 53.1591 75.5599 52.86C75.57 52.2208 75.784 51.6015 76.1708 51.0924C76.5575 50.5833 77.0968 50.2111 77.71 50.03C78.3247 49.8484 78.8652 49.4747 79.2521 48.9637C79.639 48.4526 79.852 47.831 79.8599 47.19C79.8599 46.5703 79.6601 45.9671 79.29 45.47C78.9187 44.9774 78.7185 44.3769 78.72 43.76C78.721 43.2831 78.8381 42.8135 79.0611 42.3919C79.2841 41.9703 79.6063 41.6093 79.9999 41.34C80.3897 41.0727 80.7086 40.7145 80.9289 40.2964C81.1492 39.8782 81.2643 39.4126 81.2643 38.94C81.2643 38.4674 81.1492 38.0018 80.9289 37.5837C80.7086 37.1655 80.3897 36.8073 79.9999 36.54L79.79 36.45ZM49.9999 61.67C36.7499 61.67 25.9999 51.37 25.9999 38.67C25.9999 25.97 36.7499 15.67 49.9999 15.67C63.2499 15.67 73.9999 25.97 73.9999 38.67C73.9999 51.37 63.2599 61.68 49.9999 61.68V61.67Z" fill="#8EDAA7"/>
        <path d="M69.5 63.63C68.8761 64.1889 68.117 64.5751 67.2979 64.7505C66.4788 64.9259 65.6281 64.8844 64.83 64.63C64.6745 64.5822 64.5127 64.5586 64.35 64.56C64.0289 64.553 63.7135 64.6453 63.4468 64.8243C63.1802 65.0033 62.9752 65.2602 62.86 65.56C62.524 66.4537 61.9198 67.2217 61.1304 67.7588C60.3409 68.2958 59.4047 68.5757 58.45 68.56C57.4773 68.5643 56.5272 68.2674 55.73 67.71C55.3925 67.4756 54.9785 67.3783 54.5718 67.4377C54.1652 67.4971 53.7964 67.7088 53.54 68.03C53.0931 68.6065 52.5132 69.0662 51.85 69.37C51.5814 69.4995 51.2998 69.6 51.01 69.67L59.01 90.8L65.34 78.8L78.23 84.08L70.14 62.86C69.9537 63.138 69.7392 63.396 69.5 63.63Z" fill="#65BD83"/>
        <path d="M47.76 69.45C47.0899 69.1346 46.5065 68.661 46.06 68.07C45.8083 67.7464 45.4425 67.5311 45.0374 67.4679C44.6323 67.4047 44.2184 67.4985 43.88 67.73C43.087 68.2603 42.154 68.5423 41.2 68.54C40.2346 68.5556 39.2886 68.2677 38.4955 67.7169C37.7025 67.1661 37.1025 66.3801 36.78 65.47C36.6713 65.1601 36.468 64.8921 36.1989 64.7037C35.9298 64.5153 35.6085 64.4161 35.28 64.42C35.1243 64.423 34.9696 64.4465 34.82 64.49C34.3682 64.6207 33.9004 64.688 33.43 64.69C32.7377 64.6937 32.0532 64.5441 31.4256 64.2519C30.798 63.9597 30.2428 63.5321 29.8 63L21.75 84.19L34.64 78.91L40.97 90.91L48.97 69.85C48.5501 69.7733 48.1429 69.6387 47.76 69.45Z" fill="#65BD83"/>
        <path d="M50 60.02C62.3049 60.02 72.28 50.4613 72.28 38.67C72.28 26.8787 62.3049 17.32 50 17.32C37.6951 17.32 27.72 26.8787 27.72 38.67C27.72 50.4613 37.6951 60.02 50 60.02Z" fill="#8EDAA7"/>
        <path d="M63.7599 34.28L48.9999 48.45C48.4535 48.9691 47.7286 49.2586 46.9749 49.2586C46.2212 49.2586 45.4963 48.9691 44.9499 48.45L36.4499 40.3C36.2009 40.0688 36.0024 39.7888 35.8665 39.4773C35.7307 39.1659 35.6606 38.8298 35.6606 38.49C35.6606 38.1503 35.7307 37.8142 35.8665 37.5027C36.0024 37.1913 36.2009 36.9112 36.4499 36.68L36.7099 36.42C37.2234 35.9384 37.9009 35.6704 38.6049 35.6704C39.3089 35.6704 39.9864 35.9384 40.4999 36.42L46.9799 42.63L59.7099 30.45C60.2217 29.9691 60.8976 29.7014 61.5999 29.7014C62.3022 29.7014 62.9781 29.9691 63.4899 30.45L63.6099 30.57L63.7599 30.71C63.9985 30.9421 64.1882 31.2196 64.3177 31.5262C64.4472 31.8327 64.5139 32.1622 64.5139 32.495C64.5139 32.8278 64.4472 33.1573 64.3177 33.4639C64.1882 33.7705 63.9985 34.048 63.7599 34.28Z" fill="#F2F9F8"/>
</svg>
