<svg width="251" height="219" viewBox="0 0 251 230" fill="none" xmlns="http://www.w3.org/2000/svg">
    <path opacity="0.25" d="M174.834 7.01398C157.454 5.01398 140.574 9.22398 125.834 18.144C121.105 21.1275 115.5 22.4115 109.944 21.7844C104.387 21.1573 99.2099 18.6565 95.2644 14.694C87.3392 6.84404 77.0559 1.8131 65.9943 0.373962C34.3043 -3.56604 4.81441 24.084 0.554407 61.754C-1.15868 75.9194 1.11667 90.2818 7.12435 103.224C10.6931 110.918 11.8371 119.515 10.4044 127.874C10.4044 128.144 10.3144 128.414 10.2744 128.674C2.08438 180.244 33.2744 227.324 77.2744 229.674C90.978 230.328 104.548 226.727 116.124 219.364C126.306 212.908 138.406 210.17 150.374 211.614L151.094 211.704C198.724 217.234 242.654 175.884 249.214 119.354C255.774 62.8239 222.454 12.544 174.834 7.01398Z" fill="#93CFA4"/>
    <path d="M182.964 58.1844C182.814 58.4144 187.074 62.9244 189.354 64.5944C189.709 65.5879 189.954 66.6174 190.084 67.6644C190.024 68.3344 192.604 70.2544 193.234 70.7844C193.864 71.3144 194.054 70.3044 193.964 70.2244L191.575 68.2244C190.235 67.0944 191.044 64.3044 191.684 64.0244C192.514 64.3944 194.324 65.0844 194.954 64.8844C195.49 64.6824 195.995 64.4064 196.454 64.0644C196.238 63.9968 196.008 63.9833 195.785 64.0252C195.561 64.067 195.352 64.1629 195.174 64.3044C194.504 64.8044 192.835 63.8144 192.325 63.5744C191.815 63.3344 192.034 63.1344 192.234 62.8944C192.434 62.6544 193.235 63.6944 193.815 63.8944C194.395 64.0944 196.384 63.1444 196.684 62.7844C196.984 62.4244 194.964 63.3343 194.264 63.3543C193.564 63.3743 192.434 62.6243 192.464 62.2943C192.494 61.9643 193.765 62.6844 194.565 62.9944C194.964 63.084 195.382 63.0487 195.761 62.8931C196.141 62.7375 196.463 62.4691 196.684 62.1244C196.884 61.8644 196.684 61.8844 196.284 61.9744C196.656 61.7159 196.961 61.3732 197.174 60.9744C197.314 60.6344 195.854 61.4444 195.044 61.3744C194.234 61.3044 192.984 60.2444 193.284 59.8844C193.584 59.5244 194.414 60.7344 195.524 60.8044C196.359 60.8238 197.169 60.5192 197.784 59.9544C197.964 59.7444 196.204 60.0544 195.484 60.0144C194.764 59.9744 193.154 59.3744 193.554 58.8944C193.954 58.4144 195.554 59.8944 196.434 59.7844C197.127 59.6633 197.8 59.4479 198.434 59.1444C198.011 58.9174 197.515 58.867 197.054 59.0044C195.985 59.1623 194.892 58.9768 193.934 58.4744C193.404 58.0744 193.694 57.9744 193.934 57.6644C194.174 57.3544 195.464 58.3444 195.784 58.6644C196.104 58.9844 198.784 58.0944 198.954 57.8044C199.124 57.5144 197.144 58.0744 196.724 58.0344C196.304 57.9944 193.964 57.1244 194.144 56.9144C194.324 56.7044 195.855 57.2944 196.315 57.3744C196.775 57.4544 199.684 56.0343 199.684 55.6743C199.684 55.3143 196.994 56.5644 196.504 56.5244C196.004 56.5244 194.374 56.3444 194.674 55.9944C194.974 55.6444 197.674 56.1244 198.234 55.7644C199.175 55.2219 200.034 54.5485 200.784 53.7644C200.784 53.4844 197.924 54.8344 196.854 55.2044C195.784 55.5744 194.314 55.6244 194.794 55.0544C195.274 54.4844 198.274 54.0044 198.894 53.6944C199.861 53.0784 200.706 52.2883 201.384 51.3643C201.434 50.9943 197.274 53.6743 196.714 53.8643C196.154 54.0543 195.204 54.3244 195.464 54.0244C195.724 53.7244 198.684 52.5543 199.534 51.8543C200.384 51.1543 202.315 49.2243 202.195 48.8543C202.075 48.4843 199.275 50.9943 198.195 51.8543C197.115 52.7143 196.404 52.9544 196.674 52.6344C197.289 51.8737 197.957 51.1585 198.674 50.4944C199.224 50.0844 202.154 47.6344 201.934 47.4044C201.714 47.1744 200.825 47.9444 200.075 48.5944C199.325 49.2444 196.245 52.2744 196.075 52.0944C195.905 51.9144 198.954 48.6844 199.474 48.0944C199.994 47.5044 201.674 45.2444 201.274 45.0944C200.874 44.9444 196.275 51.3644 196.065 51.2644C195.855 51.1644 198.404 47.4144 198.854 46.5744C199.304 45.7344 200.354 43.9543 199.854 44.1743C199.354 44.3943 195.394 51.0244 195.164 51.3044C195.479 50.3192 195.853 49.3542 196.284 48.4144C196.594 47.5544 198.284 43.7444 198.004 43.6244C197.724 43.5044 197.004 44.9644 196.334 46.0944C195.664 47.2244 194.134 52.2144 193.834 52.5744C193.534 52.9344 194.284 48.1044 194.754 46.3944C195.224 44.6844 195.524 43.3943 195.364 43.6043C194.783 44.4976 194.319 45.4623 193.984 46.4744C193.564 47.7644 193.194 52.4744 192.984 52.7044C192.774 52.9344 192.674 50.3444 192.474 49.0644C192.274 47.7844 192.854 43.3444 192.474 43.2444C192.094 43.1444 191.644 47.5444 191.644 48.3744C191.644 49.2044 192.104 53.7243 191.934 53.9243C191.764 54.1243 191.134 50.6443 190.764 49.4243C190.394 48.2043 190.354 44.1644 190.274 44.2544C189.825 45.689 189.699 47.2052 189.904 48.6944C190.274 50.6944 191.554 54.3744 191.024 54.5844C190.494 54.7944 190.244 52.3544 190.024 51.5244C189.804 50.6944 187.794 45.9144 187.644 46.0944C187.829 47.5234 188.144 48.9326 188.584 50.3044C188.844 51.1444 190.714 55.4844 190.464 55.7244C190.214 55.9644 189.585 54.2043 188.945 52.7943C188.305 51.3843 186.085 47.6444 185.815 47.9644C185.545 48.2844 190.244 56.8144 190.024 57.0844C189.804 57.3544 188.274 54.7444 187.554 53.7844C186.834 52.8244 184.984 48.9544 184.734 49.2444C184.484 49.5344 186.114 53.2444 186.734 54.2444C187.354 55.2444 189.585 58.0244 189.315 58.2444C189.045 58.4644 187.454 56.0944 187.024 55.5744C186.594 55.0544 183.424 51.1744 183.244 51.3244C183.064 51.4744 184.864 54.0644 186.244 55.6544C187.299 56.8733 188.277 58.1557 189.174 59.4944C189.054 59.3944 182.774 52.7244 182.624 52.9044C182.474 53.0844 183.824 54.5244 184.544 55.5944C185.264 56.6644 189.844 60.8244 189.434 60.8844C189.024 60.9444 186.804 58.3044 185.934 57.5244C185.064 56.7444 181.674 54.0944 181.764 54.4144C181.854 54.7344 189.195 61.5444 189.065 61.7544C188.935 61.9644 186.695 60.0144 186.065 59.5044C185.435 58.9944 182.185 55.7644 182.065 56.1444C181.945 56.5244 188.674 62.5844 188.384 62.7544C188.094 62.9244 183.104 57.9544 182.964 58.1844Z" fill="#93CFA4"/>
    <path d="M199.054 76.7742C197.424 77.1342 191.134 75.9842 190.484 76.0442C189.834 76.1042 187.184 79.4842 186.554 79.4942C185.924 79.5042 185.364 79.0842 185.454 78.7042C185.544 78.3242 189.004 75.3542 189.084 74.9742C189.164 74.5942 188.744 72.8242 188.794 71.3242C188.966 70.0825 189.356 68.8808 189.944 67.7742L191.054 68.5142L190.054 67.0742C190.753 65.293 191.913 63.7295 193.414 62.5442L194.704 64.5442L195.274 61.9542C196.435 60.8287 197.898 60.0645 199.484 59.7542L200.384 61.8742L201.014 59.0142C201.973 58.4487 203.039 58.0878 204.144 57.9542L205.144 60.4542L205.784 57.5442C207.046 57.3349 208.333 57.3349 209.594 57.5442C210.174 57.8342 210.174 58.8642 210.104 59.3442L208.104 60.7842L210.614 60.5042C210.961 61.3887 211.125 62.3346 211.094 63.2842L205.454 64.1642L210.854 64.3642C210.647 65.6091 210.015 66.7437 209.064 67.5742L203.354 68.7242L208.674 69.3541C208.178 70.3438 207.429 71.1853 206.504 71.7942L198.394 71.0542L205.394 73.1442C205.334 74.0542 203.974 74.9342 203.104 74.9042L197.834 73.6442L201.044 75.5842C201.044 75.5842 200.674 76.4042 199.054 76.7742Z" fill="#65BD84"/>
    <path d="M58.1545 71.724C57.4145 63.374 50.3046 60.0839 40.6946 62.3039C42.8546 69.7039 50.2245 76.304 58.1545 71.724Z" fill="#40B9BF"/>
    <path d="M58.2243 71.9941C58.1625 72.014 58.0961 72.014 58.0344 71.9941C56.5744 71.3141 54.2344 69.9941 51.7643 68.5441C48.7643 66.8241 45.3944 64.8741 42.7644 63.6341C42.6978 63.5997 42.6465 63.5416 42.6206 63.4713C42.5946 63.4009 42.596 63.3235 42.6243 63.2541C42.6403 63.2203 42.6629 63.19 42.6909 63.165C42.7188 63.14 42.7515 63.1209 42.7869 63.1088C42.8224 63.0967 42.8598 63.0918 42.8972 63.0944C42.9345 63.0971 42.971 63.1071 43.0043 63.1241C45.6543 64.3841 49.0043 66.3341 52.0043 68.0541C54.4643 69.4741 56.7943 70.8141 58.2343 71.4841C58.2682 71.5001 58.2985 71.5228 58.3234 71.5507C58.3484 71.5786 58.3676 71.6112 58.3797 71.6466C58.3918 71.6821 58.3966 71.7196 58.394 71.7569C58.3914 71.7943 58.3813 71.8307 58.3643 71.8641C58.3351 71.923 58.2853 71.9693 58.2243 71.9941Z" fill="#21A4AA"/>
    <path d="M52.0445 68.034C53.5045 69.114 60.3145 70.754 60.9345 71.104C61.5545 71.454 62.6645 75.934 63.2945 76.2241C63.9245 76.514 64.6644 76.344 64.7544 75.934C64.8444 75.524 62.7545 71.084 62.8145 70.674C62.8745 70.264 64.1445 68.6741 64.8145 67.2241C65.2103 65.9298 65.3695 64.5748 65.2845 63.2241L63.8444 63.454L65.4544 62.454C65.5668 60.4004 65.1211 58.3547 64.1645 56.534L61.9744 57.894L62.5844 55.094C61.9277 53.4789 60.816 52.0893 59.3844 51.094L57.5245 52.774L58.1945 49.694C57.4863 48.7143 56.5843 47.8906 55.5445 47.274L53.4045 49.274L54.0944 46.134C53.0944 45.574 50.9945 44.474 50.2745 44.504C49.5545 44.534 49.0845 45.504 48.9345 46.044L50.3245 48.364L47.9445 46.9741C47.1955 47.686 46.6 48.5435 46.1945 49.494L51.4345 52.844L45.9345 50.654C45.5744 51.965 45.6913 53.3612 46.2644 54.594L51.4445 58.234L45.8444 56.514C45.8934 57.7051 46.2594 58.8615 46.9045 59.864L55.3344 62.7241L47.4045 61.7241C47.0545 62.6441 48.0044 64.094 48.8944 64.454L54.7244 65.544L50.6344 66.024C50.6344 66.024 50.5945 66.964 52.0445 68.034Z" fill="#65BD84"/>
    <path d="M150.584 170.884H106.584V183.884H150.584V170.884Z" fill="#C7C8CA"/>
    <path d="M155.094 181.944H102.094C101.744 181.944 101.464 182.374 101.464 182.944V184.404C101.464 184.934 101.744 185.404 102.094 185.404H155.094C155.434 185.404 155.714 184.964 155.714 184.404V182.944C155.714 182.374 155.434 181.944 155.094 181.944Z" fill="#27304D"/>
    <path d="M198.774 66.9141H58.3944C57.1805 66.9088 56.0139 67.3845 55.1499 68.2372C54.2859 69.09 53.795 70.2502 53.7844 71.4641V165.774C53.7844 168.274 55.8544 170.944 58.3944 170.944H198.774C201.304 170.944 203.384 168.194 203.384 165.704V71.4641C203.371 70.2511 202.879 69.0923 202.016 68.2402C201.153 67.388 199.988 66.9114 198.774 66.9141Z" fill="#27304D"/>
    <path d="M53.7844 168.454C53.7433 169.258 54.0204 170.045 54.5557 170.646C55.091 171.247 55.8414 171.613 56.6444 171.664H200.514C201.317 171.613 202.068 171.247 202.603 170.646C203.138 170.045 203.415 169.258 203.374 168.454V165.634H53.7744L53.7844 168.454Z" fill="#CBCCCE"/>
    <path d="M199.504 70.8442H57.6643V162.804H199.504V70.8442Z" fill="#CFD1D2"/>
    <path d="M57.6042 162.864H199.604V70.7842H57.6042V162.864ZM57.7142 70.8641H199.444V162.704H57.7142V70.8641Z" fill="#27304D"/>
    <path d="M171.634 73.374H60.7244V160.044H171.634V73.374Z" fill="white"/>
    <path d="M196.345 73.374H173.875V160.044H196.345V73.374Z" fill="white"/>
    <path opacity="0.58" d="M193.244 76.7642H176.674V81.4542H193.244V76.7642Z" fill="#CBCCCE"/>
    <path opacity="0.5" d="M193.244 85.314H176.674V102.424H193.244V85.314Z" fill="#3FB9C0"/>
    <path opacity="0.58" d="M193.244 108.494H176.674V119.534H193.244V108.494Z" fill="#CBCCCE"/>
    <path opacity="0.5" d="M193.244 125.874H176.674V152.634H193.244V125.874Z" fill="#3FB9C0"/>
    <path opacity="0.5" d="M115.145 139.254H63.1245V158.124H115.145V139.254Z" fill="#9BCDCA"/>
    <path opacity="0.5" d="M169.304 139.254H118.354V148.094H169.304V139.254Z" fill="#9BCDCA"/>
    <path opacity="0.5" d="M169.304 149.294H118.354V158.134H169.304V149.294Z" fill="#9BCDCA"/>
    <path opacity="0.5" d="M77.9245 78.874H69.5945V91.144H77.9245V78.874Z" fill="#93CFA4"/>
    <g opacity="0.5">
        <path opacity="0.5" d="M136.514 79.4243H88.2444C87.9892 79.4239 87.7436 79.5209 87.5577 79.6957C87.3718 79.8704 87.2597 80.1096 87.2444 80.3643V80.4343C87.2597 80.689 87.3718 80.9282 87.5577 81.103C87.7436 81.2777 87.9892 81.3748 88.2444 81.3743H136.514C136.77 81.3748 137.015 81.2777 137.201 81.103C137.387 80.9282 137.499 80.689 137.514 80.4343V80.3643C137.499 80.1096 137.387 79.8704 137.201 79.6957C137.015 79.5209 136.77 79.4239 136.514 79.4243Z" fill="#9BCDCA"/>
        <path opacity="0.5" d="M157.425 88.6343H109.145C108.879 88.6343 108.625 88.7396 108.437 88.9272C108.25 89.1147 108.145 89.3691 108.145 89.6343C108.16 89.889 108.272 90.1282 108.458 90.3029C108.644 90.4777 108.889 90.5747 109.145 90.5743H157.425C157.68 90.5747 157.925 90.4777 158.111 90.3029C158.297 90.1282 158.409 89.889 158.425 89.6343C158.425 89.3691 158.319 89.1147 158.132 88.9272C157.944 88.7396 157.69 88.6343 157.425 88.6343Z" fill="#9BCDCA"/>
        <path opacity="0.5" d="M106.684 83.9543H88.2444C87.9892 83.9539 87.7436 84.051 87.5577 84.2257C87.3718 84.4005 87.2597 84.6397 87.2444 84.8943V84.9644C87.2572 85.2208 87.3683 85.4625 87.5544 85.6393C87.7406 85.8162 87.9876 85.9147 88.2444 85.9144H106.684C106.941 85.9147 107.188 85.8162 107.374 85.6393C107.561 85.4625 107.672 85.2208 107.684 84.9644V84.8943C107.669 84.6397 107.557 84.4005 107.371 84.2257C107.185 84.051 106.94 83.9539 106.684 83.9543Z" fill="#9BCDCA"/>
        <path opacity="0.5" d="M131.344 83.9543H112.895C112.639 83.9539 112.394 84.051 112.208 84.2257C112.022 84.4005 111.91 84.6397 111.895 84.8943V84.9644C111.907 85.2208 112.018 85.4625 112.204 85.6393C112.391 85.8162 112.638 85.9147 112.895 85.9144H131.344C131.601 85.9147 131.848 85.8162 132.035 85.6393C132.221 85.4625 132.332 85.2208 132.344 84.9644V84.8943C132.329 84.6397 132.217 84.4005 132.031 84.2257C131.845 84.051 131.6 83.9539 131.344 83.9543Z" fill="#9BCDCA"/>
        <path opacity="0.5" d="M161.305 79.4243H142.854C142.599 79.4239 142.354 79.5209 142.168 79.6957C141.982 79.8704 141.87 80.1096 141.854 80.3643V80.4343C141.87 80.689 141.982 80.9282 142.168 81.103C142.354 81.2777 142.599 81.3748 142.854 81.3743H161.305C161.56 81.3748 161.805 81.2777 161.991 81.103C162.177 80.9282 162.289 80.689 162.305 80.4343V80.3643C162.289 80.1096 162.177 79.8704 161.991 79.6957C161.805 79.5209 161.56 79.4239 161.305 79.4243Z" fill="#9BCDCA"/>
        <path opacity="0.5" d="M102.864 88.6343H88.2043C87.9391 88.6343 87.6849 88.7396 87.4973 88.9272C87.3098 89.1147 87.2043 89.3691 87.2043 89.6343C87.2043 89.8995 87.3098 90.1538 87.4973 90.3414C87.6849 90.5289 87.9391 90.6343 88.2043 90.6343H102.864C103.13 90.6343 103.384 90.5289 103.572 90.3414C103.759 90.1538 103.864 89.8995 103.864 89.6343C103.864 89.3691 103.759 89.1147 103.572 88.9272C103.384 88.7396 103.13 88.6343 102.864 88.6343Z" fill="#9BCDCA"/>
    </g>
    <path d="M113.755 97.2041H91.5746C91.3947 97.2028 91.2162 97.237 91.0494 97.3046C90.8827 97.3722 90.7311 97.472 90.6029 97.5983C90.4748 97.7246 90.3727 97.8749 90.3026 98.0406C90.2326 98.2063 90.1959 98.3842 90.1946 98.5641V128.804C90.1959 128.984 90.2326 129.162 90.3026 129.328C90.3727 129.493 90.4748 129.644 90.6029 129.77C90.7311 129.896 90.8827 129.996 91.0494 130.064C91.2162 130.131 91.3947 130.165 91.5746 130.164H113.755C113.934 130.165 114.113 130.131 114.28 130.064C114.446 129.996 114.598 129.896 114.726 129.77C114.854 129.644 114.956 129.493 115.026 129.328C115.096 129.162 115.133 128.984 115.135 128.804V98.5641C115.133 98.3842 115.096 98.2063 115.026 98.0406C114.956 97.8749 114.854 97.7246 114.726 97.5983C114.598 97.472 114.446 97.3722 114.28 97.3046C114.113 97.237 113.934 97.2028 113.755 97.2041Z" fill="#93CFA4"/>
    <path d="M102.674 121.454C108.595 121.454 113.394 116.726 113.394 110.894C113.394 105.062 108.595 100.334 102.674 100.334C96.7539 100.334 91.9543 105.062 91.9543 110.894C91.9543 116.726 96.7539 121.454 102.674 121.454Z" fill="#64BD84"/>
    <path d="M108.814 110.884L106.084 110.664C106.396 112.621 106.905 114.54 107.604 116.394C108.084 118.23 108.23 120.137 108.034 122.024H109.754C110.329 120.025 110.539 117.938 110.374 115.864C110.042 114.151 109.519 112.481 108.814 110.884Z" fill="#B66B3E"/>
    <path d="M107.314 107.314C105.664 106.314 103.944 109.254 106.534 116.314C107.824 116.474 109.814 116.194 110.384 115.504C110.454 115.394 108.974 108.334 107.314 107.314Z" fill="#F3B24C"/>
    <path d="M98.7444 122.024H107.864C107.864 121.474 107.764 120.934 107.704 120.424L98.7444 122.024Z" fill="#0C7283"/>
    <path d="M104.304 103.024C104.184 103.374 102.924 101.954 102.924 101.954C102.924 101.954 101.704 106.054 101.104 106.624C100.944 107.094 101.904 110.204 102.974 110.324C103.744 110.414 104.644 107.694 104.834 107.274C104.724 107.114 104.154 106.054 104.304 103.024Z" fill="#B66B3E"/>
    <path d="M105.254 106.634C104.897 106.892 104.493 107.079 104.065 107.184C103.745 107.274 103.065 108.774 103.065 108.834C103.065 108.894 102.304 107.224 101.914 107.084C101.337 106.868 100.8 106.557 100.325 106.164C100.325 106.164 97.3244 107.384 96.9744 108.104C96.9744 108.104 96.8745 117.254 97.0345 122.044H108.514C108.514 117.514 108.144 108.564 107.514 107.724C106.876 107.16 106.094 106.783 105.254 106.634Z" fill="#F3B24C"/>
    <path d="M93.9343 116.364C93.7218 118.255 93.8265 120.168 94.2442 122.024H96.0643C95.9766 120.334 96.1864 118.641 96.6843 117.024C97.445 115.19 98.0178 113.284 98.3942 111.334L95.6543 111.474C94.8989 113.034 94.3219 114.674 93.9343 116.364Z" fill="#B66B3E"/>
    <path d="M96.7845 107.864C95.0145 108.774 93.2345 115.344 93.3045 115.424C93.8745 116.084 95.9545 116.424 97.3045 116.304C100.254 109.774 98.5145 106.954 96.7845 107.864Z" fill="#F3B24C"/>
    <path d="M100.854 101.964C100.494 104.344 102.944 106.694 104.244 105.534C106.014 103.964 104.904 100.534 104.904 100.534C104.034 99.2039 101.174 99.8539 100.854 101.964Z" fill="#B66B3E"/>
    <path d="M104.814 99.9343C104.814 99.9343 105.594 99.3444 105.094 99.1344C104.94 99.0825 104.774 99.0746 104.615 99.1117C104.456 99.1488 104.31 99.2294 104.194 99.3444C104.194 99.3444 104.814 98.5543 104.114 98.6043C103.556 98.7084 103.032 98.945 102.584 99.2943C102.584 99.2943 103.494 98.4043 102.514 98.6743C101.623 99.1311 100.847 99.7842 100.244 100.584C100.244 100.584 100.244 100.224 100.044 100.234C99.8444 100.244 99.7944 102.164 101.194 104.004C100.959 103.167 100.959 102.281 101.194 101.444C101.194 101.444 101.194 101.444 102.194 101.444C102.584 101.274 102.194 100.884 102.194 100.884C102.672 101.206 103.239 101.368 103.814 101.344C104.174 101.114 103.814 100.834 103.714 100.774C104.111 100.921 104.531 100.995 104.954 100.994C106.074 101.104 104.814 99.9343 104.814 99.9343Z" fill="#343F60"/>
    <path d="M100.734 102.194C100.7 102.425 100.737 102.661 100.84 102.87C100.944 103.08 101.11 103.252 101.314 103.364C101.774 103.494 101.314 102.204 101.314 102.204C101.314 102.204 100.884 101.804 100.734 102.194Z" fill="#B66B3E"/>
    <path d="M112.584 114.904C111.757 116.85 110.375 118.51 108.611 119.676C106.847 120.843 104.779 121.465 102.665 121.465C100.55 121.465 98.4818 120.843 96.7179 119.676C94.954 118.51 93.5722 116.85 92.7445 114.904H90.1946V128.804C90.1959 128.984 90.2326 129.162 90.3026 129.328C90.3727 129.494 90.4748 129.644 90.6029 129.77C90.7311 129.896 90.8827 129.996 91.0494 130.064C91.2162 130.131 91.3947 130.166 91.5746 130.164H113.755C113.934 130.166 114.113 130.131 114.28 130.064C114.446 129.996 114.598 129.896 114.726 129.77C114.854 129.644 114.956 129.494 115.026 129.328C115.096 129.162 115.133 128.984 115.135 128.804V114.904H112.584Z" fill="#93CFA4"/>
    <path d="M103.515 123.564H98.8046C98.7488 123.555 98.6917 123.558 98.6373 123.573C98.5829 123.589 98.5325 123.615 98.4895 123.652C98.4465 123.689 98.4119 123.734 98.3882 123.786C98.3645 123.837 98.3523 123.893 98.3523 123.949C98.3523 124.006 98.3645 124.061 98.3882 124.113C98.4119 124.164 98.4465 124.209 98.4895 124.246C98.5325 124.283 98.5829 124.309 98.6373 124.325C98.6917 124.34 98.7488 124.343 98.8046 124.334H103.515C103.57 124.343 103.627 124.34 103.682 124.325C103.736 124.309 103.787 124.283 103.83 124.246C103.873 124.209 103.907 124.164 103.931 124.113C103.954 124.061 103.967 124.006 103.967 123.949C103.967 123.893 103.954 123.837 103.931 123.786C103.907 123.734 103.873 123.689 103.83 123.652C103.787 123.615 103.736 123.589 103.682 123.573C103.627 123.558 103.57 123.555 103.515 123.564Z" fill="#F8F8F9"/>
    <path d="M102.385 125.754H98.7845C98.7288 125.745 98.6717 125.748 98.6173 125.763C98.5629 125.779 98.5125 125.805 98.4695 125.842C98.4265 125.879 98.392 125.924 98.3683 125.975C98.3446 126.027 98.3323 126.083 98.3323 126.139C98.3323 126.196 98.3446 126.251 98.3683 126.303C98.392 126.354 98.4265 126.399 98.4695 126.436C98.5125 126.473 98.5629 126.499 98.6173 126.515C98.6717 126.53 98.7288 126.533 98.7845 126.524H102.385C102.44 126.533 102.497 126.53 102.552 126.515C102.606 126.499 102.657 126.473 102.7 126.436C102.743 126.399 102.777 126.354 102.801 126.303C102.824 126.251 102.837 126.196 102.837 126.139C102.837 126.083 102.824 126.027 102.801 125.975C102.777 125.924 102.743 125.879 102.7 125.842C102.657 125.805 102.606 125.779 102.552 125.763C102.497 125.748 102.44 125.745 102.385 125.754Z" fill="#F8F8F9"/>
    <path d="M112.814 125.754H105.814C105.759 125.745 105.701 125.748 105.647 125.763C105.593 125.779 105.542 125.805 105.499 125.842C105.456 125.879 105.422 125.924 105.398 125.975C105.374 126.027 105.362 126.083 105.362 126.139C105.362 126.196 105.374 126.251 105.398 126.303C105.422 126.354 105.456 126.399 105.499 126.436C105.542 126.473 105.593 126.499 105.647 126.515C105.701 126.53 105.759 126.533 105.814 126.524H112.814C112.87 126.533 112.927 126.53 112.981 126.515C113.036 126.499 113.086 126.473 113.129 126.436C113.172 126.399 113.207 126.354 113.231 126.303C113.254 126.251 113.266 126.196 113.266 126.139C113.266 126.083 113.254 126.027 113.231 125.975C113.207 125.924 113.172 125.879 113.129 125.842C113.086 125.805 113.036 125.779 112.981 125.763C112.927 125.748 112.87 125.745 112.814 125.754Z" fill="#F8F8F9"/>
    <path d="M105.754 127.914H98.7544C98.7032 127.914 98.6524 127.924 98.6051 127.944C98.5578 127.963 98.5149 127.992 98.4787 128.028C98.4424 128.064 98.4137 128.107 98.3941 128.155C98.3745 128.202 98.3644 128.253 98.3644 128.304C98.363 128.356 98.3721 128.407 98.3912 128.455C98.4104 128.503 98.4391 128.546 98.4756 128.583C98.5121 128.619 98.5556 128.648 98.6035 128.667C98.6515 128.686 98.7028 128.695 98.7544 128.694H105.754C105.858 128.694 105.957 128.653 106.03 128.58C106.103 128.507 106.144 128.407 106.144 128.304C106.142 128.201 106.1 128.104 106.027 128.031C105.955 127.958 105.857 127.917 105.754 127.914Z" fill="#F8F8F9"/>
    <path d="M111.364 123.564H106.654C106.599 123.555 106.542 123.558 106.487 123.573C106.433 123.589 106.382 123.615 106.339 123.652C106.296 123.689 106.262 123.734 106.238 123.786C106.214 123.837 106.202 123.893 106.202 123.949C106.202 124.006 106.214 124.061 106.238 124.113C106.262 124.164 106.296 124.209 106.339 124.246C106.382 124.283 106.433 124.309 106.487 124.325C106.542 124.34 106.599 124.343 106.654 124.334H111.364C111.42 124.343 111.477 124.34 111.532 124.325C111.586 124.309 111.636 124.283 111.679 124.246C111.722 124.209 111.757 124.164 111.781 124.113C111.804 124.061 111.817 124.006 111.817 123.949C111.817 123.893 111.804 123.837 111.781 123.786C111.757 123.734 111.722 123.689 111.679 123.652C111.636 123.615 111.586 123.589 111.532 123.573C111.477 123.558 111.42 123.555 111.364 123.564Z" fill="#F8F8F9"/>
    <path d="M96.0645 123.554H92.5845V128.684H96.0645V123.554Z" fill="#F8F8F9"/>
    <path d="M96.0645 127.114C96.0045 127.044 95.7945 126.874 95.0645 126.734C95.0645 126.734 94.9044 126.584 94.8944 126.604C94.8897 126.544 94.8897 126.484 94.8944 126.424C95.0144 126.278 95.0907 126.101 95.1144 125.914C95.1744 125.914 95.1744 125.754 95.1744 125.734C95.1744 125.714 95.2444 125.524 95.2444 125.464C95.2444 125.404 95.1744 125.334 95.1744 125.334C95.1744 125.184 95.3144 124.474 94.7444 124.334C94.5501 124.243 94.3304 124.223 94.1227 124.276C93.9149 124.329 93.7319 124.452 93.6044 124.624C93.5069 124.854 93.4757 125.107 93.5144 125.354C93.5144 125.354 93.5143 125.354 93.4543 125.484C93.4632 125.577 93.4869 125.668 93.5244 125.754C93.5244 125.754 93.5244 125.934 93.5244 125.944C93.5528 126.128 93.6247 126.303 93.7344 126.454C93.7494 126.52 93.7494 126.588 93.7344 126.654C93.7344 126.654 93.5945 126.724 93.5745 126.784C92.8345 126.934 92.6445 127.104 92.5745 127.174V128.744H96.0544L96.0645 127.114Z" fill="#3FB9C0"/>
    <path d="M167.925 97.2041H145.745C145.565 97.2028 145.386 97.237 145.219 97.3046C145.053 97.3722 144.901 97.472 144.773 97.5983C144.645 97.7246 144.543 97.8749 144.473 98.0406C144.403 98.2063 144.366 98.3842 144.365 98.5641V128.804C144.366 128.984 144.403 129.162 144.473 129.328C144.543 129.493 144.645 129.644 144.773 129.77C144.901 129.896 145.053 129.996 145.219 130.064C145.386 130.131 145.565 130.165 145.745 130.164H167.925C168.104 130.165 168.283 130.131 168.45 130.064C168.616 129.996 168.768 129.896 168.896 129.77C169.024 129.644 169.126 129.493 169.196 129.328C169.266 129.162 169.303 128.984 169.305 128.804V98.5641C169.303 98.3842 169.266 98.2063 169.196 98.0406C169.126 97.8749 169.024 97.7246 168.896 97.5983C168.768 97.472 168.616 97.3722 168.45 97.3046C168.283 97.237 168.104 97.2028 167.925 97.2041Z" fill="#93CFA4"/>
    <path d="M156.835 121.454C162.755 121.454 167.554 116.726 167.554 110.894C167.554 105.062 162.755 100.334 156.835 100.334C150.914 100.334 146.115 105.062 146.115 110.894C146.115 116.726 150.914 121.454 156.835 121.454Z" fill="#64BD84"/>
    <path d="M152.064 108.084C152.064 108.084 151.394 108.204 150.974 109.904C150.734 110.844 149.554 115.374 149.974 116.554C150.394 117.734 153.264 117.094 153.534 117.044C153.804 116.994 153.584 107.324 152.064 108.084Z" fill="#FCC597"/>
    <path d="M152.354 122.064H158.124C158.124 121.874 158.124 121.694 158.124 121.504C158.454 121.504 152.304 120.634 152.304 120.634C152.304 120.634 152.344 121.164 152.354 122.064Z" fill="#27304D"/>
    <path d="M157.954 103.724C157.954 103.724 155.814 104.494 155.754 104.164C155.134 106.714 154.044 107.404 153.854 107.504C154.194 108.504 159.494 108.944 159.324 108.194C158.654 107.524 157.954 103.724 157.954 103.724Z" fill="#D9A5A1"/>
    <path d="M155.294 121.024L155.404 122.024H161.194C161.194 121.764 161.194 121.514 161.194 121.264C161.514 121.264 155.294 121.024 155.294 121.024Z" fill="#343F60"/>
    <path d="M162.034 108.184C161.056 107.621 159.975 107.261 158.854 107.124C158.504 108.024 155.654 108.994 154.204 107.184C153.808 107.296 153.441 107.491 153.127 107.757C152.813 108.022 152.56 108.352 152.384 108.724C152.024 108.674 152.444 115.554 152.144 118.094C151.897 119.419 151.924 120.78 152.224 122.094H162.104C162.154 121.644 162.164 120.964 162.164 119.884C162.164 118.434 162.544 111.604 162.684 109.324C162.702 109.091 162.65 108.858 162.534 108.654C162.418 108.451 162.244 108.287 162.034 108.184Z" fill="#FCE7D7"/>
    <path d="M154.514 101.314C154.514 101.314 153.324 105.314 154.744 106.314C156.164 107.314 158.504 105.174 158.394 103.054C158.284 100.934 155.444 100.054 154.514 101.314Z" fill="#F1B7B2"/>
    <path d="M154.624 99.294C153.984 99.414 153.344 100.074 154.294 102.194C154.3 101.987 154.353 101.784 154.448 101.601C154.543 101.417 154.679 101.258 154.844 101.134C155.363 101.068 155.89 101.123 156.383 101.297C156.876 101.471 157.322 101.757 157.684 102.134C157.966 102.845 158.121 103.6 158.144 104.364C158.458 103.777 158.642 103.13 158.685 102.466C158.729 101.802 158.629 101.137 158.394 100.514C157.694 99.304 155.264 99.174 154.624 99.294Z" fill="#343F60"/>
    <path d="M157.184 104.444C156.945 104.662 156.633 104.783 156.309 104.783C155.986 104.783 155.674 104.662 155.434 104.444C155.384 104.393 155.316 104.365 155.244 104.364H155.124C155.073 104.344 155.016 104.344 154.964 104.364C154.891 104.42 154.805 104.457 154.714 104.474C154.623 104.49 154.53 104.485 154.441 104.459C154.353 104.432 154.272 104.386 154.204 104.322C154.137 104.259 154.086 104.181 154.054 104.094C153.894 104.38 153.814 104.704 153.824 105.032C153.833 105.359 153.931 105.678 154.108 105.955C154.285 106.231 154.533 106.454 154.826 106.6C155.12 106.746 155.448 106.81 155.774 106.784C157.774 106.554 157.774 103.704 157.774 103.704C157.62 103.981 157.42 104.231 157.184 104.444Z" fill="#8E4C32"/>
    <path d="M157.804 102.734V104.094C157.804 104.094 158.304 103.354 158.274 103.034C158.27 102.98 158.253 102.928 158.225 102.882C158.198 102.836 158.159 102.796 158.114 102.767C158.068 102.738 158.017 102.72 157.963 102.714C157.909 102.709 157.855 102.715 157.804 102.734Z" fill="#F1B7B2"/>
    <path d="M155.244 102.634C155.067 102.572 154.882 102.532 154.694 102.514H154.134C154.076 102.516 154.02 102.54 153.978 102.581C153.935 102.621 153.909 102.676 153.904 102.734C153.88 102.923 153.88 103.115 153.904 103.304C153.904 103.554 154.474 103.644 154.634 103.664C154.737 103.684 154.842 103.684 154.944 103.664C155.155 103.472 155.296 103.215 155.344 102.934C155.365 102.899 155.375 102.86 155.375 102.819C155.375 102.779 155.365 102.739 155.344 102.704L155.244 102.634ZM155.154 102.934C155.103 103.132 155.004 103.314 154.864 103.464C154.785 103.473 154.704 103.473 154.624 103.464C154.274 103.464 154.024 103.314 154.014 103.234C153.987 103.062 153.987 102.886 154.014 102.714C154.014 102.693 154.023 102.673 154.038 102.658C154.053 102.643 154.073 102.634 154.094 102.634L154.644 102.684C154.814 102.699 154.982 102.733 155.144 102.784C155.144 102.784 155.184 102.864 155.154 102.964V102.934Z" fill="#27304D"/>
    <path d="M157.075 102.774H156.765C156.433 102.727 156.099 102.71 155.765 102.724C155.733 102.741 155.707 102.765 155.688 102.795C155.669 102.825 155.657 102.859 155.655 102.894C155.66 103.215 155.765 103.526 155.954 103.784C156.071 103.839 156.196 103.873 156.325 103.884C156.415 103.884 157.165 103.964 157.325 103.684C157.382 103.509 157.422 103.328 157.445 103.144C157.456 103.063 157.435 102.981 157.386 102.916C157.338 102.85 157.265 102.807 157.185 102.794L157.075 102.774ZM157.175 103.104C157.157 103.275 157.12 103.442 157.065 103.604C157.065 103.684 156.685 103.744 156.285 103.694C156.185 103.689 156.088 103.669 155.995 103.634C155.862 103.426 155.78 103.19 155.755 102.944C155.751 102.914 155.751 102.884 155.755 102.854C156.087 102.825 156.422 102.825 156.755 102.854H157.055C157.073 102.855 157.09 102.859 157.106 102.868C157.121 102.877 157.135 102.889 157.145 102.904C157.165 102.91 157.184 102.921 157.198 102.937C157.213 102.953 157.222 102.973 157.225 102.994C157.229 103.016 157.226 103.037 157.217 103.057C157.207 103.077 157.193 103.093 157.175 103.104Z" fill="#27304D"/>
    <path d="M155.184 102.694V102.854C155.318 102.817 155.46 102.817 155.594 102.854L155.654 102.704C155.502 102.655 155.339 102.652 155.184 102.694Z" fill="#27304D"/>
    <path d="M157.164 102.854L157.234 103.004C157.475 102.861 157.739 102.76 158.014 102.704C157.722 102.671 157.427 102.723 157.164 102.854Z" fill="#27304D"/>
    <path d="M162.684 108.534C161.501 107.726 160.163 107.171 158.754 106.904V122.064H162.494C162.494 121.144 162.494 120.174 162.494 119.184C162.394 114.354 162.974 109.034 162.684 108.534Z" fill="#FCC597"/>
    <path d="M152.064 108.154C151.884 108.394 152.354 112.574 151.914 117.764C151.794 119.214 151.734 120.684 151.684 122.064H154.044C154.154 115.524 154.334 106.994 154.334 106.994C153.495 107.191 152.716 107.589 152.064 108.154Z" fill="#FCC597"/>
    <path d="M162.704 108.554C162.604 108.834 161.564 114.244 161.564 114.424C161.564 114.604 153.634 114.134 153.324 116.734C153.324 116.734 159.394 118.734 163.104 117.354C164.384 116.634 164.344 109.824 162.704 108.554Z" fill="#E7A886"/>
    <path d="M160.364 108.074C160.114 107.69 159.799 107.352 159.434 107.074C159.221 106.924 158.966 106.844 158.704 106.844V113.764L160.484 109.034L159.484 108.464L160.364 108.074Z" fill="#E7A886"/>
    <path d="M153.634 107.194C153.274 107.477 152.961 107.815 152.704 108.194L153.584 108.544L152.584 109.114L154.264 113.844L154.404 106.924C154.124 106.923 153.852 107.019 153.634 107.194Z" fill="#E7A886"/>
    <path d="M159.984 113.254C159.235 113.349 158.515 113.604 157.874 114.004L158.144 115.424C158.573 115.101 159.058 114.86 159.574 114.714C160.474 114.474 161.574 114.554 161.574 114.394C161.454 114.066 161.238 113.783 160.955 113.579C160.671 113.376 160.333 113.263 159.984 113.254Z" fill="#F1B7B2"/>
    <path d="M152.425 114.484C152.542 114.452 152.653 114.401 152.755 114.334L152.515 110.334C152.515 110.334 152.445 113.814 152.425 114.484Z" fill="#E7A886"/>
    <path d="M151.964 113.074C151.524 113.074 151.144 114.564 151.144 114.564C151.244 114.744 155.144 114.294 154.984 113.804C154.824 113.314 152.414 113.024 151.964 113.074Z" fill="#F1B7B2"/>
    <path d="M150.054 115.034C149.784 115.444 149.814 116.724 150.244 116.954C151.255 117.328 152.358 117.37 153.394 117.074C155.2 116.71 156.955 116.132 158.624 115.354L158.344 113.734C158.344 113.734 151.414 112.874 150.054 115.034Z" fill="#FCC597"/>
    <path d="M166.755 114.904C165.927 116.85 164.545 118.51 162.781 119.676C161.017 120.843 158.949 121.465 156.834 121.465C154.72 121.465 152.652 120.843 150.888 119.676C149.124 118.51 147.742 116.85 146.915 114.904H144.365V128.804C144.366 128.984 144.403 129.162 144.473 129.328C144.543 129.494 144.645 129.644 144.773 129.77C144.901 129.896 145.053 129.996 145.219 130.064C145.386 130.131 145.565 130.166 145.745 130.164H167.925C168.104 130.166 168.283 130.131 168.45 130.064C168.616 129.996 168.768 129.896 168.896 129.77C169.024 129.644 169.126 129.494 169.196 129.328C169.266 129.162 169.303 128.984 169.305 128.804V114.904H166.755Z" fill="#93CFA4"/>
    <path d="M157.664 123.564H152.954C152.899 123.555 152.842 123.558 152.787 123.573C152.733 123.589 152.682 123.615 152.639 123.652C152.596 123.689 152.562 123.734 152.538 123.786C152.514 123.837 152.502 123.893 152.502 123.949C152.502 124.006 152.514 124.061 152.538 124.113C152.562 124.164 152.596 124.209 152.639 124.246C152.682 124.283 152.733 124.309 152.787 124.325C152.842 124.34 152.899 124.343 152.954 124.334H157.664C157.72 124.343 157.777 124.34 157.832 124.325C157.886 124.309 157.936 124.283 157.979 124.246C158.023 124.209 158.057 124.164 158.081 124.113C158.104 124.061 158.117 124.006 158.117 123.949C158.117 123.893 158.104 123.837 158.081 123.786C158.057 123.734 158.023 123.689 157.979 123.652C157.936 123.615 157.886 123.589 157.832 123.573C157.777 123.558 157.72 123.555 157.664 123.564Z" fill="#F8F8F9"/>
    <path d="M164.214 125.754H159.515C159.459 125.745 159.402 125.748 159.347 125.763C159.293 125.779 159.242 125.805 159.199 125.842C159.156 125.879 159.122 125.924 159.098 125.975C159.075 126.027 159.062 126.083 159.062 126.139C159.062 126.196 159.075 126.251 159.098 126.303C159.122 126.354 159.156 126.399 159.199 126.436C159.242 126.473 159.293 126.499 159.347 126.515C159.402 126.53 159.459 126.533 159.515 126.524H164.224C164.28 126.533 164.337 126.53 164.392 126.515C164.446 126.499 164.497 126.473 164.54 126.436C164.583 126.399 164.617 126.354 164.641 126.303C164.665 126.251 164.677 126.196 164.677 126.139C164.677 126.083 164.665 126.027 164.641 125.975C164.617 125.924 164.583 125.879 164.54 125.842C164.497 125.805 164.446 125.779 164.392 125.763C164.337 125.748 164.28 125.745 164.224 125.754H164.214Z" fill="#F8F8F9"/>
    <path d="M156.514 125.754H152.914C152.859 125.745 152.802 125.748 152.747 125.763C152.693 125.779 152.642 125.805 152.599 125.842C152.556 125.879 152.522 125.924 152.498 125.975C152.474 126.027 152.462 126.083 152.462 126.139C152.462 126.196 152.474 126.251 152.498 126.303C152.522 126.354 152.556 126.399 152.599 126.436C152.642 126.473 152.693 126.499 152.747 126.515C152.802 126.53 152.859 126.533 152.914 126.524H156.514C156.57 126.533 156.627 126.53 156.682 126.515C156.736 126.499 156.786 126.473 156.829 126.436C156.872 126.399 156.907 126.354 156.931 126.303C156.954 126.251 156.967 126.196 156.967 126.139C156.967 126.083 156.954 126.027 156.931 125.975C156.907 125.924 156.872 125.879 156.829 125.842C156.786 125.805 156.736 125.779 156.682 125.763C156.627 125.748 156.57 125.745 156.514 125.754Z" fill="#F8F8F9"/>
    <path d="M159.914 127.914H152.914C152.81 127.914 152.71 127.955 152.635 128.028C152.56 128.101 152.517 128.2 152.514 128.304C152.514 128.356 152.525 128.408 152.545 128.456C152.565 128.504 152.595 128.547 152.632 128.583C152.669 128.62 152.714 128.648 152.762 128.667C152.811 128.686 152.862 128.695 152.914 128.694H159.914C159.966 128.695 160.018 128.686 160.067 128.667C160.115 128.648 160.159 128.62 160.197 128.583C160.234 128.547 160.264 128.504 160.284 128.456C160.304 128.408 160.314 128.356 160.314 128.304C160.312 128.2 160.268 128.101 160.194 128.028C160.119 127.955 160.019 127.914 159.914 127.914Z" fill="#F8F8F9"/>
    <path d="M165.515 123.564H160.805C160.749 123.555 160.692 123.558 160.637 123.573C160.583 123.589 160.533 123.615 160.49 123.652C160.446 123.689 160.412 123.734 160.388 123.786C160.364 123.837 160.352 123.893 160.352 123.949C160.352 124.006 160.364 124.061 160.388 124.113C160.412 124.164 160.446 124.209 160.49 124.246C160.533 124.283 160.583 124.309 160.637 124.325C160.692 124.34 160.749 124.343 160.805 124.334H165.515C165.57 124.343 165.627 124.34 165.682 124.325C165.736 124.309 165.787 124.283 165.83 124.246C165.873 124.209 165.907 124.164 165.931 124.113C165.954 124.061 165.967 124.006 165.967 123.949C165.967 123.893 165.954 123.837 165.931 123.786C165.907 123.734 165.873 123.689 165.83 123.652C165.787 123.615 165.736 123.589 165.682 123.573C165.627 123.558 165.57 123.555 165.515 123.564Z" fill="#F8F8F9"/>
    <path d="M150.234 123.554H146.754V128.684H150.234V123.554Z" fill="#F8F8F9"/>
    <path d="M150.234 127.114C150.174 127.044 149.964 126.874 149.234 126.734C149.234 126.734 149.084 126.584 149.074 126.604C149.06 126.545 149.06 126.483 149.074 126.424C149.191 126.276 149.266 126.1 149.294 125.914C149.354 125.914 149.294 125.754 149.354 125.734C149.382 125.646 149.402 125.556 149.414 125.464C149.414 125.344 149.354 125.334 149.354 125.334C149.354 125.184 149.504 124.474 148.924 124.334C148.732 124.242 148.513 124.221 148.307 124.274C148.1 124.327 147.919 124.451 147.794 124.624C147.692 124.853 147.661 125.107 147.704 125.354C147.704 125.354 147.654 125.354 147.644 125.484C147.655 125.576 147.675 125.666 147.704 125.754C147.704 125.754 147.704 125.934 147.764 125.944C147.793 126.128 147.865 126.303 147.974 126.454C147.984 126.52 147.984 126.588 147.974 126.654C147.974 126.654 147.834 126.724 147.804 126.784C147.064 126.934 146.874 127.104 146.804 127.174V128.744H150.284L150.234 127.114Z" fill="#3FB9C0"/>
    <path d="M140.864 97.2041H118.684C118.505 97.2028 118.326 97.237 118.159 97.3046C117.993 97.3722 117.841 97.472 117.713 97.5983C117.585 97.7246 117.483 97.8749 117.412 98.0406C117.342 98.2063 117.306 98.3842 117.304 98.5641V128.804C117.306 128.984 117.342 129.162 117.412 129.328C117.483 129.493 117.585 129.644 117.713 129.77C117.841 129.896 117.993 129.996 118.159 130.064C118.326 130.131 118.505 130.165 118.684 130.164H140.864C141.044 130.165 141.223 130.131 141.389 130.064C141.556 129.996 141.708 129.896 141.836 129.77C141.964 129.644 142.066 129.493 142.136 129.328C142.206 129.162 142.243 128.984 142.244 128.804V98.5641C142.243 98.3842 142.206 98.2063 142.136 98.0406C142.066 97.8749 141.964 97.7246 141.836 97.5983C141.708 97.472 141.556 97.3722 141.389 97.3046C141.223 97.237 141.044 97.2028 140.864 97.2041Z" fill="#93CFA4"/>
    <path d="M129.774 121.454C135.695 121.454 140.494 116.726 140.494 110.894C140.494 105.062 135.695 100.334 129.774 100.334C123.854 100.334 119.054 105.062 119.054 110.894C119.054 116.726 123.854 121.454 129.774 121.454Z" fill="#64BD84"/>
    <path d="M123.074 115.574C122.994 117.746 123.333 119.912 124.074 121.954H125.614C125.424 120.764 125.174 117.544 125.734 115.954C126.336 114.158 126.752 112.305 126.974 110.424L124.374 110.734C123.757 112.293 123.321 113.917 123.074 115.574Z" fill="#F1B7B2"/>
    <path d="M124.865 107.344C124.865 107.344 124.015 108.064 122.865 114.174C123.035 114.404 124.864 115.794 126.474 115.364C127.644 115.034 128.195 111.214 128.135 111.004C128.075 110.794 125.515 106.304 124.865 107.344Z" fill="#EFEFF0"/>
    <path d="M125.514 121.954H131.674V121.784C132.014 121.784 125.504 120.854 125.504 120.854L125.514 121.954Z" fill="#343F60"/>
    <path d="M131.514 102.164C131.514 102.164 129.274 103.054 129.204 102.704C128.634 105.424 127.504 106.194 127.314 106.314C127.704 107.314 133.314 107.654 133.124 106.854C132.394 106.174 131.514 102.164 131.514 102.164Z" fill="#D9A5A1"/>
    <path d="M128.664 121.284C128.664 121.284 128.664 121.524 128.744 121.954H134.914C134.914 121.814 134.914 121.684 134.914 121.544C135.244 121.514 128.664 121.284 128.664 121.284Z" fill="#343F60"/>
    <path d="M135.984 107.184C134.98 106.537 133.854 106.105 132.674 105.914C132.254 106.844 129.194 107.744 127.744 105.764C127.744 105.764 125.614 106.024 124.984 107.304C124.354 108.584 124.714 113.114 124.604 116.504C124.53 118.321 124.563 120.141 124.704 121.954H135.964C136.034 121.204 136.094 120.344 136.134 119.374C136.184 117.834 136.374 110.784 136.624 108.374C136.647 108.135 136.598 107.894 136.484 107.682C136.37 107.471 136.196 107.297 135.984 107.184Z" fill="white"/>
    <path d="M135.205 111.944C135.205 112.334 135.615 117.784 134.955 118.614C133.692 119.974 132.141 121.034 130.415 121.714C130.415 121.714 128.265 120.364 128.665 122.184C128.945 123.494 130.175 123.184 130.665 123.264C132.93 123.108 135.049 122.088 136.585 120.414C138.795 118.124 137.145 109.234 137.145 109.234C135.925 108.824 135.195 111.554 135.205 111.944Z" fill="#F1B7B2"/>
    <path d="M134.194 110.334C133.995 112.409 134.075 114.501 134.434 116.554C134.434 116.554 137.094 116.554 138.334 115.204C137.594 108.964 136.524 107.604 136.524 107.604C135.854 107.034 134.564 108.234 134.194 110.334Z" fill="#EFEFF0"/>
    <path d="M128.594 100.514C128.594 100.514 127.484 104.364 128.854 105.314C129.154 105.531 129.511 105.652 129.88 105.663C130.249 105.674 130.613 105.573 130.924 105.374C131.394 104.981 131.767 104.486 132.015 103.926C132.263 103.366 132.379 102.756 132.354 102.144C132.224 100.104 129.514 99.2942 128.594 100.514Z" fill="#F1B7B2"/>
    <path d="M132.434 99.1544C132.434 99.2344 132.434 98.5443 131.254 98.4843C130.074 98.4243 129.984 99.1844 129.164 98.9644C128.074 98.6644 127.554 100.964 128.584 101.354C129.067 101.58 129.603 101.667 130.132 101.607C130.662 101.547 131.164 101.342 131.584 101.014L131.734 101.144C132.039 101.564 132.188 102.077 132.154 102.594C132.076 103.067 132.039 103.545 132.044 104.024C132.472 103.516 132.863 102.978 133.214 102.414C133.514 101.634 134.514 99.6344 132.434 99.1544Z" fill="#343F60"/>
    <path d="M131.945 101.934V103.254C131.945 103.254 132.525 102.574 132.495 102.254C132.501 102.187 132.488 102.12 132.458 102.061C132.427 102.001 132.38 101.951 132.322 101.918C132.264 101.884 132.198 101.868 132.131 101.87C132.064 101.873 131.999 101.895 131.945 101.934Z" fill="#F1B7B2"/>
    <path d="M132.704 105.804C129.704 108.284 127.764 105.614 127.764 105.614C127.507 105.693 127.256 105.794 127.014 105.914C127.264 106.782 127.8 107.54 128.534 108.064L129.934 107.064L131.374 108.324L133.814 106.094C133.454 105.966 133.082 105.869 132.704 105.804Z" fill="#EFEFF0"/>
    <path d="M139.694 114.904C138.867 116.85 137.485 118.51 135.721 119.676C133.957 120.843 131.889 121.465 129.774 121.465C127.66 121.465 125.592 120.843 123.828 119.676C122.064 118.51 120.682 116.85 119.854 114.904H117.304V128.804C117.306 128.984 117.342 129.162 117.412 129.328C117.483 129.494 117.585 129.644 117.713 129.77C117.841 129.896 117.993 129.996 118.159 130.064C118.326 130.131 118.505 130.166 118.684 130.164H140.864C141.044 130.166 141.223 130.131 141.389 130.064C141.556 129.996 141.708 129.896 141.836 129.77C141.964 129.644 142.066 129.494 142.136 129.328C142.206 129.162 142.243 128.984 142.244 128.804V114.904H139.694Z" fill="#93CFA4"/>
    <path d="M130.604 123.564H125.894C125.839 123.555 125.782 123.558 125.727 123.573C125.673 123.589 125.622 123.615 125.579 123.652C125.536 123.689 125.502 123.734 125.478 123.786C125.454 123.837 125.442 123.893 125.442 123.949C125.442 124.006 125.454 124.061 125.478 124.113C125.502 124.164 125.536 124.209 125.579 124.246C125.622 124.283 125.673 124.309 125.727 124.325C125.782 124.34 125.839 124.343 125.894 124.334H130.604C130.66 124.343 130.717 124.34 130.772 124.325C130.826 124.309 130.876 124.283 130.919 124.246C130.962 124.209 130.997 124.164 131.021 124.113C131.044 124.061 131.057 124.006 131.057 123.949C131.057 123.893 131.044 123.837 131.021 123.786C130.997 123.734 130.962 123.689 130.919 123.652C130.876 123.615 130.826 123.589 130.772 123.573C130.717 123.558 130.66 123.555 130.604 123.564Z" fill="#F8F8F9"/>
    <path d="M129.514 125.754H125.914C125.859 125.745 125.802 125.748 125.747 125.763C125.693 125.779 125.642 125.805 125.599 125.842C125.556 125.879 125.522 125.924 125.498 125.975C125.474 126.027 125.462 126.083 125.462 126.139C125.462 126.196 125.474 126.251 125.498 126.303C125.522 126.354 125.556 126.399 125.599 126.436C125.642 126.473 125.693 126.499 125.747 126.515C125.802 126.53 125.859 126.533 125.914 126.524H129.514C129.57 126.533 129.627 126.53 129.682 126.515C129.736 126.499 129.786 126.473 129.829 126.436C129.872 126.399 129.907 126.354 129.931 126.303C129.954 126.251 129.967 126.196 129.967 126.139C129.967 126.083 129.954 126.027 129.931 125.975C129.907 125.924 129.872 125.879 129.829 125.842C129.786 125.805 129.736 125.779 129.682 125.763C129.627 125.748 129.57 125.745 129.514 125.754Z" fill="#F8F8F9"/>
    <path d="M137.344 127.914H133.745C133.689 127.905 133.632 127.908 133.577 127.924C133.523 127.939 133.472 127.966 133.429 128.002C133.386 128.039 133.352 128.084 133.328 128.136C133.305 128.187 133.292 128.243 133.292 128.299C133.292 128.356 133.305 128.411 133.328 128.463C133.352 128.514 133.386 128.56 133.429 128.596C133.472 128.633 133.523 128.66 133.577 128.675C133.632 128.69 133.689 128.693 133.745 128.684H137.344C137.4 128.693 137.457 128.69 137.512 128.675C137.566 128.66 137.617 128.633 137.66 128.596C137.703 128.56 137.737 128.514 137.761 128.463C137.785 128.411 137.797 128.356 137.797 128.299C137.797 128.243 137.785 128.187 137.761 128.136C137.737 128.084 137.703 128.039 137.66 128.002C137.617 127.966 137.566 127.939 137.512 127.924C137.457 127.908 137.4 127.905 137.344 127.914Z" fill="#F8F8F9"/>
    <path d="M139.255 125.754H132.255C132.153 125.754 132.055 125.794 131.982 125.865C131.909 125.936 131.867 126.032 131.865 126.134C131.865 126.237 131.906 126.337 131.979 126.41C132.052 126.483 132.151 126.524 132.255 126.524H139.255C139.306 126.525 139.357 126.516 139.405 126.497C139.453 126.478 139.497 126.449 139.533 126.413C139.57 126.376 139.599 126.333 139.618 126.285C139.637 126.237 139.646 126.186 139.645 126.134C139.645 126.083 139.634 126.033 139.615 125.986C139.595 125.94 139.566 125.897 139.53 125.862C139.493 125.826 139.45 125.799 139.403 125.78C139.356 125.762 139.305 125.753 139.255 125.754Z" fill="#F8F8F9"/>
    <path d="M138.515 123.564H133.805C133.749 123.555 133.692 123.558 133.637 123.573C133.583 123.589 133.533 123.615 133.49 123.652C133.446 123.689 133.412 123.734 133.388 123.786C133.364 123.837 133.352 123.893 133.352 123.949C133.352 124.006 133.364 124.061 133.388 124.113C133.412 124.164 133.446 124.209 133.49 124.246C133.533 124.283 133.583 124.309 133.637 124.325C133.692 124.34 133.749 124.343 133.805 124.334H138.515C138.57 124.343 138.627 124.34 138.682 124.325C138.736 124.309 138.787 124.283 138.83 124.246C138.873 124.209 138.907 124.164 138.931 124.113C138.954 124.061 138.967 124.006 138.967 123.949C138.967 123.893 138.954 123.837 138.931 123.786C138.907 123.734 138.873 123.689 138.83 123.652C138.787 123.615 138.736 123.589 138.682 123.573C138.627 123.558 138.57 123.555 138.515 123.564Z" fill="#F8F8F9"/>
    <path d="M130.604 127.914H125.894C125.839 127.905 125.782 127.908 125.727 127.924C125.673 127.939 125.622 127.966 125.579 128.002C125.536 128.039 125.502 128.084 125.478 128.136C125.454 128.187 125.442 128.243 125.442 128.299C125.442 128.356 125.454 128.411 125.478 128.463C125.502 128.514 125.536 128.56 125.579 128.596C125.622 128.633 125.673 128.66 125.727 128.675C125.782 128.69 125.839 128.693 125.894 128.684H130.604C130.66 128.693 130.717 128.69 130.772 128.675C130.826 128.66 130.876 128.633 130.919 128.596C130.962 128.56 130.997 128.514 131.021 128.463C131.044 128.411 131.057 128.356 131.057 128.299C131.057 128.243 131.044 128.187 131.021 128.136C130.997 128.084 130.962 128.039 130.919 128.002C130.876 127.966 130.826 127.939 130.772 127.924C130.717 127.908 130.66 127.905 130.604 127.914Z" fill="#F8F8F9"/>
    <path d="M123.174 123.554H119.694V128.684H123.174V123.554Z" fill="#F8F8F9"/>
    <path d="M123.174 127.114C123.114 127.044 122.904 126.874 122.174 126.734C122.174 126.734 122.024 126.584 122.014 126.604C122 126.545 122 126.483 122.014 126.424C122.131 126.276 122.206 126.1 122.234 125.914C122.294 125.914 122.234 125.754 122.294 125.734C122.322 125.646 122.342 125.556 122.354 125.464C122.354 125.344 122.294 125.334 122.294 125.334C122.294 125.184 122.444 124.474 121.864 124.334C121.672 124.242 121.453 124.221 121.247 124.274C121.04 124.327 120.859 124.451 120.734 124.624C120.632 124.853 120.601 125.107 120.644 125.354C120.644 125.354 120.644 125.354 120.584 125.484C120.595 125.576 120.615 125.666 120.644 125.754C120.644 125.754 120.644 125.934 120.704 125.944C120.733 126.128 120.805 126.303 120.914 126.454C120.924 126.52 120.924 126.588 120.914 126.654C120.914 126.654 120.774 126.724 120.744 126.784C120.004 126.934 119.814 127.104 119.744 127.174V128.744H123.224L123.174 127.114Z" fill="#3FB9C0"/>
    <path d="M109.774 132.254H95.5645V135.894H109.774V132.254Z" fill="#CFD1D2"/>
    <path d="M136.874 132.254H122.664V135.894H136.874V132.254Z" fill="#CFD1D2"/>
    <path d="M163.934 132.254H149.724V135.894H163.934V132.254Z" fill="#CFD1D2"/>
    <path d="M86.6746 97.2039H64.5145C64.3346 97.2026 64.1562 97.2368 63.9895 97.3044C63.8228 97.372 63.671 97.4718 63.5428 97.5981C63.4147 97.7244 63.3127 97.8747 63.2427 98.0404C63.1726 98.2061 63.1358 98.384 63.1345 98.5639V128.804C63.1358 128.984 63.1726 129.162 63.2427 129.327C63.3127 129.493 63.4147 129.643 63.5428 129.77C63.671 129.896 63.8228 129.996 63.9895 130.063C64.1562 130.131 64.3346 130.165 64.5145 130.164H86.6946C86.8745 130.165 87.0529 130.131 87.2196 130.063C87.3863 129.996 87.5381 129.896 87.6663 129.77C87.7944 129.643 87.8964 129.493 87.9664 129.327C88.0365 129.162 88.0733 128.984 88.0746 128.804V98.5639C88.0733 98.3823 88.0359 98.2028 87.9646 98.0357C87.8933 97.8687 87.7895 97.7175 87.6592 97.5909C87.5289 97.4644 87.3747 97.365 87.2057 97.2985C87.0367 97.2321 86.8561 97.2 86.6746 97.2039Z" fill="#93CFA4"/>
    <path d="M75.5845 121.454C81.505 121.454 86.3045 116.726 86.3045 110.894C86.3045 105.062 81.505 100.334 75.5845 100.334C69.664 100.334 64.8645 105.062 64.8645 110.894C64.8645 116.726 69.664 121.454 75.5845 121.454Z" fill="#64BD84"/>
    <path d="M80.3145 107.504C80.3145 107.504 81.1044 119.774 81.1744 119.504C81.2444 119.234 82.1744 115.104 82.0244 113.594C81.5579 111.536 80.9872 109.504 80.3145 107.504Z" fill="#EBCDAC"/>
    <path d="M80.4045 107.214C80.2796 109.333 80.2796 111.456 80.4045 113.574C80.5645 113.574 82.0045 112.974 81.9445 112.484C81.7745 111.634 80.4045 107.214 80.4045 107.214Z" fill="#1DA3AA"/>
    <path d="M72.7644 119.064C72.7644 119.064 72.6544 120.434 72.5144 122.324H79.9144C79.7044 120.564 79.5244 119.324 79.5244 119.324C79.1744 120.344 72.7644 119.064 72.7644 119.064Z" fill="#343F60"/>
    <path d="M76.1244 98.6341C75.4154 98.4284 74.6625 98.4293 73.954 98.6365C73.2455 98.8438 72.6108 99.2488 72.1244 99.8041C71.7982 100.108 71.6008 100.525 71.5729 100.969C71.545 101.414 71.6886 101.852 71.9744 102.194C71.4476 101.941 70.8507 101.873 70.2806 102.002C69.7106 102.131 69.2009 102.449 68.8344 102.904C68.7531 103.03 68.7011 103.172 68.6821 103.32C68.6631 103.469 68.6777 103.62 68.7247 103.762C68.7718 103.904 68.8501 104.033 68.9539 104.141C69.0576 104.249 69.1843 104.332 69.3245 104.384C68.8658 104.514 68.4255 104.703 68.0144 104.944C67.6013 105.191 67.3002 105.589 67.1744 106.054C67.119 106.285 67.1396 106.528 67.2333 106.746C67.327 106.964 67.4888 107.146 67.6945 107.264C67.3163 107.357 66.9775 107.568 66.7275 107.866C66.4776 108.165 66.3294 108.536 66.3044 108.924C66.3081 109.313 66.4567 109.686 66.7212 109.971C66.9857 110.256 67.347 110.432 67.7344 110.464C67.9264 110.469 68.1174 110.433 68.2948 110.36C68.4722 110.286 68.6321 110.176 68.7642 110.036C68.8962 109.896 68.9974 109.731 69.0612 109.549C69.1249 109.368 69.1499 109.176 69.1344 108.984C69.845 109.18 70.5914 109.207 71.3145 109.064C71.6716 108.99 71.9916 108.793 72.2197 108.509C72.4478 108.224 72.5698 107.869 72.5645 107.504C72.9813 107.684 73.4175 107.815 73.8644 107.894C74.3189 107.974 74.787 107.889 75.1844 107.654C75.3765 107.534 75.5285 107.36 75.6211 107.153C75.7137 106.947 75.7427 106.717 75.7043 106.494C76.1691 106.554 76.6396 106.554 77.1044 106.494C77.5729 106.439 78.0026 106.207 78.3044 105.844C78.4478 105.662 78.5305 105.44 78.5413 105.209C78.552 104.977 78.4902 104.749 78.3644 104.554C78.9344 104.324 79.5443 102.974 78.9543 101.434C78.7805 100.755 78.4255 100.135 77.927 99.6423C77.4286 99.1491 76.8055 98.8007 76.1244 98.6341Z" fill="#2C190E"/>
    <path d="M77.4445 105.474C77.208 105.268 77.0521 104.984 77.0044 104.674C76.7603 103.548 76.6563 102.396 76.6945 101.244C76.8945 100.384 74.7544 101.534 74.7544 101.534C74.8878 102.679 74.8609 103.837 74.6745 104.974C74.5445 105.624 73.5844 105.864 73.3444 106.124C72.5544 107.024 77.1744 107.334 78.0144 106.954C79.3944 106.344 77.8845 105.874 77.4445 105.474Z" fill="#EBCDAC"/>
    <path d="M74.9644 100.144C74.7104 100.298 74.5011 100.515 74.3572 100.775C74.2134 101.035 74.14 101.327 74.1445 101.624C74.1445 103.624 75.7644 105.274 77.2344 104.504C78.0744 104.064 78.2345 102.034 78.0145 101.394C77.9304 101.087 77.7769 100.803 77.5659 100.565C77.3548 100.326 77.0917 100.139 76.7971 100.019C76.5024 99.8979 76.1839 99.8464 75.8662 99.8681C75.5484 99.8899 75.2399 99.9843 74.9644 100.144Z" fill="#EBCDAC"/>
    <path d="M80.2144 107.214C79.6878 106.516 78.9576 105.999 78.1244 105.734C78.1244 105.734 76.5544 107.684 74.1244 105.734C73.3423 105.951 72.6447 106.401 72.1244 107.024C71.6544 107.854 71.7445 119.594 72.0545 120.784C72.2445 120.884 78.2644 121.784 80.3544 120.564C81.0644 120.664 80.4144 111.894 80.3544 110.564C80.2644 109.834 80.8644 108.184 80.2144 107.214Z" fill="#F2F9F8"/>
    <path d="M71.8345 106.904C71.7345 107.254 71.4946 115.784 71.1946 122.324H74.3845C74.7445 115.594 75.0345 106.694 74.2145 105.424C74.2145 105.424 72.0045 106.344 71.8345 106.904Z" fill="#3FB9C0"/>
    <path d="M76.3744 99.2542C76.3744 99.2542 73.2845 98.7042 73.4445 103.474C73.5045 105.594 74.8244 103.994 75.0344 102.854C75.4702 102.669 75.8629 102.396 76.1881 102.051C76.5134 101.707 76.764 101.3 76.9245 100.854C77.3461 101.065 77.6962 101.396 77.9309 101.805C78.1657 102.214 78.2747 102.684 78.2444 103.154C79.2544 99.5542 76.3744 99.2542 76.3744 99.2542Z" fill="#2C190E"/>
    <path d="M77.7844 105.634L78.7844 122.324H81.4044C81.0844 115.914 80.6144 107.444 80.4044 107.214C80.0959 106.789 79.705 106.43 79.2549 106.158C78.8048 105.887 78.3048 105.709 77.7844 105.634Z" fill="#3FB9C0"/>
    <path d="M80.9544 113.434L76.9544 113.184C76.8206 113.178 76.6876 113.208 76.5696 113.271C76.4516 113.335 76.3531 113.429 76.2844 113.544L73.1044 119.424C73.0479 119.523 73.0179 119.636 73.0171 119.75C73.0163 119.865 73.0448 119.977 73.1 120.078C73.1551 120.178 73.235 120.262 73.332 120.323C73.4291 120.384 73.5401 120.418 73.6544 120.424L77.9744 120.824C78.116 120.841 78.2594 120.813 78.3848 120.745C78.5101 120.677 78.6114 120.572 78.6745 120.444L81.5745 114.444C81.6331 114.339 81.6625 114.219 81.6599 114.099C81.6573 113.978 81.6228 113.86 81.5597 113.758C81.4966 113.655 81.4073 113.571 81.3009 113.514C81.1946 113.457 81.0749 113.429 80.9544 113.434Z" fill="#343F60"/>
    <path d="M81.0643 113.494L77.0643 113.244C76.9305 113.238 76.7974 113.268 76.6794 113.331C76.5615 113.395 76.4629 113.489 76.3943 113.604L73.2142 119.414C73.1574 119.514 73.1275 119.627 73.1272 119.743C73.1269 119.858 73.1562 119.971 73.2125 120.072C73.2688 120.172 73.3501 120.257 73.4485 120.317C73.5469 120.376 73.6591 120.41 73.7743 120.414L78.0842 120.814C78.2282 120.829 78.3735 120.8 78.5004 120.73C78.6273 120.66 78.7299 120.554 78.7943 120.424L81.6843 114.474C81.7357 114.37 81.7593 114.254 81.7531 114.138C81.7468 114.021 81.7109 113.909 81.6487 113.81C81.5865 113.712 81.5002 113.631 81.3978 113.576C81.2955 113.521 81.1807 113.492 81.0643 113.494Z" fill="#3E4B6F"/>
    <path d="M80.1745 112.724L78.7745 112.664C78.7437 112.664 78.7134 112.672 78.6869 112.688C78.6605 112.704 78.6389 112.727 78.6244 112.754L78.2845 113.404C78.2727 113.428 78.2672 113.455 78.2685 113.482C78.2697 113.508 78.2777 113.534 78.2917 113.557C78.3056 113.58 78.325 113.599 78.3482 113.613C78.3714 113.626 78.3977 113.633 78.4245 113.634L79.8845 113.724C79.918 113.725 79.9511 113.716 79.9795 113.698C80.008 113.68 80.0307 113.655 80.0445 113.624L80.3145 112.944C80.3241 112.92 80.3279 112.895 80.3256 112.869C80.3233 112.844 80.3149 112.819 80.3012 112.798C80.2875 112.776 80.2688 112.758 80.2468 112.746C80.2247 112.733 80.2 112.725 80.1745 112.724Z" fill="#108195"/>
    <path d="M78.6345 113.414C77.0545 113.294 77.3545 113.764 77.3545 113.764L80.4346 113.944C80.7246 113.444 79.7345 113.494 78.6345 113.414Z" fill="#108195"/>
    <path d="M79.8442 112.144C79.1642 111.994 78.9143 112.894 78.9143 112.894L79.9143 112.954C79.9143 112.954 80.3442 112.244 79.8442 112.144ZM79.6743 112.614C79.6525 112.616 79.6306 112.613 79.61 112.605C79.5894 112.598 79.5705 112.586 79.5546 112.571C79.5386 112.556 79.526 112.538 79.5173 112.518C79.5087 112.498 79.5042 112.476 79.5043 112.454C79.5137 112.415 79.5361 112.38 79.5679 112.355C79.5996 112.33 79.6389 112.316 79.6793 112.316C79.7197 112.316 79.7589 112.33 79.7906 112.355C79.8224 112.38 79.8448 112.415 79.8542 112.454C79.8575 112.479 79.8552 112.504 79.8473 112.527C79.8394 112.55 79.8263 112.571 79.8088 112.589C79.7914 112.606 79.7703 112.619 79.7469 112.627C79.7236 112.635 79.6987 112.638 79.6743 112.634V112.614Z" fill="#108195"/>
    <path d="M77.8643 118.694C76.1734 118.12 74.6132 117.216 73.2744 116.034C71.6344 114.314 73.2744 110.704 73.2744 110.404C73.2744 110.104 72.9743 108.044 71.5843 108.154C71.5843 108.154 68.9744 114.664 71.1544 116.744C72.9041 118.344 75.071 119.415 77.4044 119.834C77.9544 119.834 79.2844 120.274 79.7444 119.324C80.3844 118.004 77.8643 118.694 77.8643 118.694Z" fill="#EBCDAC"/>
    <path d="M71.8943 106.764C71.8943 106.764 70.8943 107.914 69.8943 113.414C70.6684 114.21 71.7157 114.681 72.8243 114.734C73.3479 112.949 73.5874 111.093 73.5343 109.234C73.3243 107.364 72.5143 106.294 71.8943 106.764Z" fill="#1DA3AA"/>
    <path d="M85.5143 114.904C84.6866 116.85 83.3048 118.51 81.5409 119.676C79.777 120.843 77.709 121.465 75.5942 121.465C73.4795 121.465 71.4116 120.843 69.6477 119.676C67.8838 118.51 66.502 116.85 65.6743 114.904H63.1243V128.804C63.1256 128.984 63.1624 129.162 63.2324 129.328C63.3025 129.494 63.4044 129.644 63.5326 129.77C63.6607 129.896 63.8125 129.996 63.9792 130.064C64.146 130.131 64.3244 130.166 64.5043 130.164H86.6843C86.8642 130.166 87.0426 130.131 87.2094 130.064C87.3761 129.996 87.5279 129.896 87.656 129.77C87.7842 129.644 87.8861 129.494 87.9562 129.328C88.0262 129.162 88.063 128.984 88.0643 128.804V114.904H85.5143Z" fill="#93CFA4"/>
    <path d="M76.4144 123.564H71.7043C71.6486 123.555 71.5916 123.558 71.5372 123.573C71.4828 123.589 71.4324 123.615 71.3894 123.652C71.3464 123.689 71.3118 123.734 71.2881 123.786C71.2644 123.837 71.2522 123.893 71.2522 123.949C71.2522 124.006 71.2644 124.061 71.2881 124.113C71.3118 124.164 71.3464 124.209 71.3894 124.246C71.4324 124.283 71.4828 124.309 71.5372 124.325C71.5916 124.34 71.6486 124.343 71.7043 124.334H76.4144C76.4702 124.343 76.5273 124.34 76.5817 124.325C76.6361 124.309 76.6865 124.283 76.7295 124.246C76.7725 124.209 76.807 124.164 76.8307 124.113C76.8544 124.061 76.8667 124.006 76.8667 123.949C76.8667 123.893 76.8544 123.837 76.8307 123.786C76.807 123.734 76.7725 123.689 76.7295 123.652C76.6865 123.615 76.6361 123.589 76.5817 123.573C76.5273 123.558 76.4702 123.555 76.4144 123.564Z" fill="#F8F8F9"/>
    <path d="M75.3044 125.754H71.7043C71.6486 125.745 71.5916 125.748 71.5372 125.763C71.4828 125.779 71.4324 125.805 71.3894 125.842C71.3464 125.879 71.3118 125.924 71.2881 125.975C71.2644 126.027 71.2522 126.083 71.2522 126.139C71.2522 126.196 71.2644 126.251 71.2881 126.303C71.3118 126.354 71.3464 126.399 71.3894 126.436C71.4324 126.473 71.4828 126.499 71.5372 126.515C71.5916 126.53 71.6486 126.533 71.7043 126.524H75.3044C75.3602 126.533 75.4172 126.53 75.4716 126.515C75.526 126.499 75.5765 126.473 75.6195 126.436C75.6625 126.399 75.697 126.354 75.7207 126.303C75.7444 126.251 75.7567 126.196 75.7567 126.139C75.7567 126.083 75.7444 126.027 75.7207 125.975C75.697 125.924 75.6625 125.879 75.6195 125.842C75.5765 125.805 75.526 125.779 75.4716 125.763C75.4172 125.748 75.3602 125.745 75.3044 125.754Z" fill="#F8F8F9"/>
    <path d="M83.1545 127.914H79.5145C79.4588 127.905 79.4017 127.908 79.3473 127.924C79.2929 127.939 79.2425 127.966 79.1995 128.002C79.1565 128.039 79.122 128.084 79.0983 128.136C79.0746 128.187 79.0623 128.243 79.0623 128.299C79.0623 128.356 79.0746 128.411 79.0983 128.463C79.122 128.514 79.1565 128.56 79.1995 128.596C79.2425 128.633 79.2929 128.66 79.3473 128.675C79.4017 128.69 79.4588 128.693 79.5145 128.684H83.1145C83.1703 128.693 83.2273 128.69 83.2817 128.675C83.3361 128.66 83.3866 128.633 83.4296 128.596C83.4726 128.56 83.5071 128.514 83.5308 128.463C83.5544 128.411 83.5668 128.356 83.5668 128.299C83.5668 128.243 83.5544 128.187 83.5308 128.136C83.5071 128.084 83.4726 128.039 83.4296 128.002C83.3866 127.966 83.3361 127.939 83.2817 127.924C83.2273 127.908 83.1703 127.905 83.1145 127.914H83.1545Z" fill="#F8F8F9"/>
    <path d="M85.0643 125.754H78.0643C78.0131 125.753 77.9621 125.761 77.9143 125.78C77.8665 125.798 77.8227 125.826 77.7855 125.861C77.7484 125.896 77.7186 125.939 77.6978 125.986C77.6769 126.032 77.6656 126.083 77.6643 126.134C77.6643 126.186 77.6747 126.238 77.6949 126.286C77.7152 126.334 77.7447 126.377 77.782 126.413C77.8193 126.45 77.8635 126.478 77.912 126.497C77.9605 126.516 78.0123 126.525 78.0643 126.524H85.0643C85.1164 126.525 85.1681 126.516 85.2166 126.497C85.265 126.478 85.3093 126.45 85.3466 126.413C85.3838 126.377 85.4135 126.334 85.4337 126.286C85.4539 126.238 85.4643 126.186 85.4642 126.134C85.4629 126.083 85.4516 126.032 85.4308 125.986C85.41 125.939 85.3802 125.896 85.343 125.861C85.3059 125.826 85.2622 125.798 85.2144 125.78C85.1665 125.761 85.1156 125.753 85.0643 125.754Z" fill="#F8F8F9"/>
    <path d="M76.4144 127.914H71.7043C71.6486 127.905 71.5916 127.908 71.5372 127.924C71.4828 127.939 71.4324 127.966 71.3894 128.002C71.3464 128.039 71.3118 128.084 71.2881 128.136C71.2644 128.187 71.2522 128.243 71.2522 128.299C71.2522 128.356 71.2644 128.411 71.2881 128.463C71.3118 128.514 71.3464 128.56 71.3894 128.596C71.4324 128.633 71.4828 128.66 71.5372 128.675C71.5916 128.69 71.6486 128.693 71.7043 128.684H76.4144C76.4702 128.693 76.5273 128.69 76.5817 128.675C76.6361 128.66 76.6865 128.633 76.7295 128.596C76.7725 128.56 76.807 128.514 76.8307 128.463C76.8544 128.411 76.8667 128.356 76.8667 128.299C76.8667 128.243 76.8544 128.187 76.8307 128.136C76.807 128.084 76.7725 128.039 76.7295 128.002C76.6865 127.966 76.6361 127.939 76.5817 127.924C76.5273 127.908 76.4702 127.905 76.4144 127.914Z" fill="#F8F8F9"/>
    <path d="M68.9844 123.554H65.5044V128.684H68.9844V123.554Z" fill="#F8F8F9"/>
    <path d="M68.9844 127.114C68.9244 127.044 68.7144 126.874 67.9844 126.734C67.9844 126.734 67.8245 126.584 67.8145 126.604C67.8098 126.544 67.8098 126.484 67.8145 126.424C67.9306 126.276 68.0064 126.1 68.0344 125.914C68.0944 125.914 68.0944 125.754 68.0944 125.734C68.0944 125.714 68.1644 125.524 68.1644 125.464C68.1644 125.404 68.0944 125.334 68.0944 125.334C68.0944 125.184 68.2344 124.474 67.6644 124.334C67.4701 124.243 67.2505 124.223 67.0427 124.276C66.835 124.329 66.6519 124.452 66.5244 124.624C66.4225 124.853 66.3912 125.107 66.4344 125.354C66.4344 125.354 66.3844 125.354 66.3744 125.484C66.3832 125.577 66.4069 125.668 66.4445 125.754C66.4445 125.754 66.4445 125.934 66.4445 125.944C66.4728 126.128 66.5448 126.303 66.6544 126.454C66.6694 126.52 66.6694 126.588 66.6544 126.654C66.6544 126.654 66.5144 126.724 66.4844 126.784C65.7544 126.934 65.5644 127.104 65.4844 127.174V128.744H68.9644L68.9844 127.114Z" fill="#3FB9C0"/>
    <path d="M82.6944 132.254H68.4844V135.894H82.6944V132.254Z" fill="#CFD1D2"/>
    <path opacity="0.1" d="M151.644 170.294H105.234V172.024H151.644V170.294Z" fill="#27304D"/>
    <path d="M114.814 135.274C112.964 136.434 110.084 137.934 110.084 137.934L108.724 136.064C110.297 134.84 112.005 133.8 113.814 132.964C115.947 131.655 117.883 130.048 119.564 128.194C119.564 127.794 119.564 126.484 119.854 126.734L120.234 127.004C120.319 126.698 120.35 126.38 120.324 126.064C120.324 125.444 122.064 126.714 121.914 127.354C121.707 128.07 121.258 128.691 120.644 129.114C119.168 131.563 117.179 133.665 114.814 135.274Z" fill="#8E4C32"/>
    <path d="M124.004 118.834L115.564 136.634L118.444 138.094L126.894 120.304L124.004 118.834Z" fill="#343F60"/>
    <path opacity="0.32" d="M141.954 93.6341C140.517 92.3333 138.831 91.3374 136.997 90.7063C135.164 90.0753 133.222 89.8222 131.289 89.9624C129.355 90.1026 127.47 90.6331 125.747 91.5219C124.024 92.4108 122.499 93.6396 121.264 95.1341C118.709 98.1951 117.435 102.124 117.707 106.102C117.979 110.08 119.777 113.799 122.724 116.484C124.162 117.785 125.848 118.781 127.681 119.412C129.514 120.043 131.456 120.296 133.39 120.156C135.324 120.016 137.209 119.485 138.932 118.596C140.654 117.707 142.179 116.479 143.414 114.984C145.969 111.923 147.244 107.994 146.971 104.016C146.699 100.038 144.902 96.3188 141.954 93.6341Z" fill="#6FCDE0"/>
    <path opacity="0.59" d="M132.934 93.0939C126.334 92.7039 120.714 97.0939 120.384 102.994C120.334 103.973 120.432 104.954 120.674 105.904C120.674 105.754 120.674 105.614 120.674 105.464C121.004 99.6039 126.624 95.1739 133.224 95.5639C138.704 95.8939 143.144 99.4339 144.304 103.984C144.374 98.3039 139.374 93.4839 132.934 93.0939Z" fill="white"/>
    <path d="M139.184 90.6342C137.34 89.7136 135.329 89.1737 133.271 89.0467C131.214 88.9198 129.152 89.2083 127.208 89.8951C125.264 90.5819 123.479 91.6529 121.958 93.0443C120.437 94.4358 119.211 96.1192 118.354 97.9942C116.527 101.804 116.248 106.173 117.578 110.184C118.908 114.194 121.743 117.532 125.484 119.494C127.33 120.415 129.341 120.955 131.4 121.082C133.458 121.209 135.521 120.921 137.465 120.234C139.41 119.547 141.196 118.476 142.718 117.085C144.24 115.693 145.467 114.01 146.324 112.134C148.154 108.324 148.432 103.952 147.1 99.9411C145.768 95.9299 142.93 92.5929 139.184 90.6342ZM126.314 117.754C123.023 116.029 120.529 113.093 119.36 109.566C118.19 106.038 118.435 102.194 120.044 98.8442C120.797 97.1945 121.875 95.7134 123.212 94.4893C124.55 93.2651 126.121 92.3229 127.831 91.719C129.54 91.1152 131.354 90.862 133.164 90.9746C134.974 91.0872 136.743 91.5631 138.364 92.3742C141.655 94.0974 144.149 97.0313 145.318 100.557C146.488 104.083 146.243 107.926 144.634 111.274C143.884 112.926 142.809 114.411 141.473 115.638C140.136 116.866 138.566 117.811 136.857 118.419C135.147 119.027 133.332 119.284 131.521 119.174C129.71 119.065 127.939 118.593 126.314 117.784V117.754Z" fill="#343F60"/>
    <path d="M127.614 119.914L123.854 118.014C123.777 117.977 123.693 117.956 123.607 117.951C123.521 117.947 123.436 117.959 123.355 117.988C123.274 118.017 123.199 118.061 123.136 118.119C123.072 118.177 123.021 118.247 122.984 118.324C122.945 118.403 122.921 118.489 122.915 118.577C122.909 118.665 122.92 118.753 122.948 118.836C122.976 118.92 123.02 118.997 123.077 119.064C123.135 119.13 123.206 119.185 123.284 119.224L127.034 121.124C127.111 121.165 127.196 121.189 127.283 121.196C127.369 121.203 127.457 121.192 127.539 121.164C127.621 121.136 127.697 121.091 127.762 121.033C127.826 120.974 127.878 120.903 127.914 120.824C127.99 120.663 128 120.479 127.944 120.31C127.889 120.141 127.771 119.999 127.614 119.914Z" fill="#343F60"/>
    <path d="M118.514 138.004L115.674 136.564C115.616 136.535 115.551 136.519 115.486 136.516C115.421 136.512 115.355 136.522 115.294 136.545C115.232 136.567 115.176 136.601 115.128 136.646C115.08 136.691 115.041 136.744 115.014 136.804C114.955 136.925 114.946 137.064 114.99 137.191C115.033 137.319 115.124 137.424 115.244 137.484L118.084 138.924C118.204 138.979 118.34 138.984 118.464 138.939C118.587 138.894 118.688 138.803 118.744 138.684C118.803 138.563 118.812 138.424 118.769 138.297C118.726 138.169 118.635 138.064 118.514 138.004Z" fill="#343F60"/>
    <path d="M106.704 123.034C103.644 122.454 101.804 123.484 99.7043 126.954C97.6043 130.424 93.6444 128.424 90.4144 130.954C87.1844 133.484 89.3044 136.544 90.5344 136.284C86.7444 140.904 91.5344 144.834 97.0544 143.414C104.234 141.564 106.764 132.694 109.424 129.144C110.954 124.684 107.574 123.204 106.704 123.034Z" fill="#27304D"/>
    <path d="M107.514 130.554C107.734 129.274 104.664 131.014 104.664 131.014C104.664 131.014 105.664 133.874 104.664 135.204C103.664 136.534 109.794 135.504 109.794 135.504C109.794 135.504 107.324 131.844 107.514 130.554Z" fill="#8E4C32"/>
    <path d="M104.364 128.874C105.594 131.644 108.975 133.024 110.045 130.874C111.465 127.944 107.984 124.204 107.984 124.204C105.984 123.174 103.134 126.104 104.364 128.874Z" fill="#8E4C32"/>
    <path d="M100.984 155.494C99.1844 159.634 99.9844 162.034 99.9844 163.244C99.9844 164.454 97.5544 178.724 96.5344 189.724C96.5344 190.254 98.1945 189.934 98.1945 189.934L106.864 159.794L108.004 152.494L104.474 152.794C104.474 152.794 102.794 151.354 100.984 155.494Z" fill="#8E4C32"/>
    <path d="M98.3145 189.544L96.4644 189.174L96.1845 190.114C96.1297 190.284 96.1428 190.469 96.2211 190.629C96.2994 190.789 96.4368 190.913 96.6044 190.974C97.6944 191.364 99.8744 192.084 100.034 191.664C100.194 191.244 98.3145 189.544 98.3145 189.544Z" fill="#27304D"/>
    <path d="M107.414 152.394C107.414 152.394 105.484 151.394 104.764 155.914C104.308 158.49 104.546 161.141 105.454 163.594C105.704 164.774 107.074 179.534 108.914 190.184C109.014 190.714 110.574 189.964 110.574 189.964L111.464 158.524L110.754 151.174L107.414 152.394Z" fill="#8E4C32"/>
    <path d="M105.285 147.244C98.8545 151.334 97.6945 166.794 97.7945 168.244C102.545 170.764 110.795 169.384 112.795 168.544C113.312 161.597 112.532 154.615 110.494 147.954C108.813 147.412 107.049 147.172 105.285 147.244Z" fill="#27304D"/>
    <path d="M111.514 142.564C111.83 141.549 111.955 140.485 111.884 139.424C111.644 136.704 109.064 134.024 109.064 134.024C107.804 133.487 106.424 133.293 105.064 133.464C101.904 135.964 102.774 143.164 103.064 145.314C103.049 146.798 102.781 148.269 102.274 149.664C106.504 152.264 112.274 149.034 112.274 149.034C111.437 146.987 111.174 144.75 111.514 142.564Z" fill="#64BD84"/>
    <path d="M110.644 189.524L108.764 189.654V190.654C108.758 190.742 108.768 190.83 108.796 190.914C108.823 190.998 108.867 191.076 108.925 191.143C108.982 191.21 109.053 191.265 109.132 191.304C109.21 191.344 109.296 191.368 109.384 191.374C110.534 191.464 112.814 191.594 112.874 191.134C112.934 190.674 110.644 189.524 110.644 189.524Z" fill="#27304D"/>
    <path d="M102.824 125.724C102.034 127.114 97.2144 141.394 97.8244 143.164C98.2444 144.334 102.654 143.834 104.494 141.064C106.874 137.484 105.794 134.924 106.064 134.774C108.464 133.424 107.444 130.324 107.734 129.944C110.334 127.684 108.984 125.414 108.874 125.184C107.514 122.304 104.444 122.844 102.824 125.724Z" fill="#27304D"/>
    <path d="M122.285 128.264C122.285 128.264 121.085 132.184 119.065 134.264C117.045 136.344 112.334 134.494 111.954 134.434C111.574 134.374 108.955 134.894 109.165 136.684C109.165 136.684 117.475 139.824 120.035 136.944C122.006 134.635 123.288 131.817 123.734 128.814C123.734 128.104 124.235 126.384 123.015 125.814C121.335 125.034 122.285 128.264 122.285 128.264Z" fill="#8E4C32"/>
    <path d="M107.604 134.314C106.464 135.814 106.844 138.904 113.034 138.504C113.395 137.844 113.611 137.115 113.668 136.365C113.725 135.615 113.621 134.861 113.364 134.154C113.364 134.154 108.994 132.444 107.604 134.314Z" fill="#64BD84"/>
</svg>
