<svg width="251" height="219" viewBox="0 0 251 219" fill="none" xmlns="http://www.w3.org/2000/svg">
    <path d="M172.489 39.2901C170.869 39.6601 164.579 38.51 163.929 38.57C163.279 38.63 160.629 42.0101 159.989 42.0201C159.349 42.0301 158.809 41.61 158.889 41.23C158.969 40.85 162.449 37.8801 162.529 37.5001C162.609 37.1201 162.179 35.34 162.239 33.85C162.404 32.6082 162.79 31.4058 163.379 30.3L164.489 31.0301L163.539 29.6C164.228 27.8162 165.385 26.2512 166.889 25.07L168.189 27.07L168.759 24.47C169.919 23.3509 171.377 22.5905 172.959 22.2801L173.859 24.4001L174.489 21.5401C175.452 20.9757 176.521 20.6149 177.629 20.48L178.629 22.98L179.269 20.06C180.528 19.8609 181.81 19.8609 183.069 20.06C183.659 20.36 183.659 21.3901 183.579 21.8701L181.579 23.31L184.099 23.0201C184.437 23.9105 184.6 24.8578 184.579 25.81L178.929 26.68L184.339 26.8901C184.13 28.1367 183.493 29.2716 182.539 30.1L176.839 31.2401L182.149 31.8801C181.655 32.8719 180.906 33.7141 179.979 34.32L171.869 33.58L178.869 35.6701C178.799 36.5801 177.449 37.46 176.569 37.43L171.309 36.1701L174.509 38.11C174.509 38.11 174.119 38.9301 172.489 39.2901Z" fill="#65BD83"/>
    <path d="M84.0289 112.72C83.9689 111.3 81.6289 107.46 81.5389 106.95C81.4489 106.44 83.6489 102.36 83.5389 101.89C83.5251 101.793 83.4844 101.701 83.4213 101.625C83.3582 101.549 83.2753 101.493 83.1818 101.462C83.0883 101.43 82.988 101.426 82.8921 101.449C82.7962 101.471 82.7085 101.52 82.6389 101.59C82.3489 101.89 80.6389 106.31 80.3589 106.59C80.0789 106.87 78.5089 107.71 77.2889 108.7C76.285 109.632 75.3863 110.672 74.6089 111.8L75.4589 112.14L74.059 112.36C72.7668 113.952 71.7525 115.751 71.059 117.68L72.9589 117.37L70.9589 119.44C70.3146 120.835 70.0128 122.365 70.0789 123.9L72.0189 123.2L69.799 125.48C69.5512 126.46 69.49 127.478 69.6189 128.48L71.9089 127.61L69.6389 129.94C69.7789 130.75 70.1489 132.43 70.5189 132.67C70.8889 132.91 71.7489 132.25 72.1289 131.89L72.8589 129.49L73.179 131.49C74.0486 131.139 74.8608 130.661 75.5889 130.07L75.0689 125.4L76.429 129.21C77.4097 128.267 78.177 127.125 78.679 125.86L78.3689 120.98L80.0689 124.44C80.756 123.489 81.2736 122.427 81.5989 121.3L79.1989 115.88L82.4689 119.63C82.8384 119.273 83.1208 118.835 83.2942 118.352C83.4676 117.868 83.5274 117.351 83.4689 116.84L81.2589 113.84L83.5689 114.94C83.9628 114.271 84.1246 113.491 84.0289 112.72Z" fill="#65BD83"/>
    <path d="M149.749 32.0501C149.599 32.2901 153.869 36.8002 156.139 38.4602C156.495 39.4568 156.74 40.4898 156.869 41.5402C156.869 42.2002 159.389 44.1202 160.019 44.6502C160.649 45.1802 160.839 44.1702 160.749 44.0902L158.359 42.0902C157.019 40.9602 157.839 38.1702 158.469 37.9002C159.299 38.2702 161.119 38.9602 161.739 38.7502C162.277 38.5523 162.782 38.2759 163.239 37.9301C163.023 37.8648 162.794 37.8535 162.573 37.897C162.351 37.9406 162.144 38.0378 161.969 38.1801C161.289 38.6801 159.619 37.6801 159.109 37.4501C158.599 37.2201 158.819 37.0002 159.019 36.7602C159.219 36.5202 159.969 37.5702 160.599 37.7602C161.229 37.9502 163.179 37.0102 163.479 36.6602C163.779 36.3102 161.749 37.2002 161.049 37.2202C160.349 37.2402 159.219 36.5002 159.249 36.1602C159.279 35.8202 160.549 36.5502 161.349 36.8702C161.75 36.9621 162.17 36.9279 162.552 36.7722C162.933 36.6165 163.257 36.3468 163.479 36.0002C163.679 35.7302 163.479 35.7502 163.069 35.8502C163.443 35.5949 163.749 35.2515 163.959 34.8502C164.099 34.5102 162.639 35.3102 161.829 35.2402C161.019 35.1702 159.769 34.1102 160.069 33.7502C160.369 33.3902 161.199 34.6001 162.309 34.6801C163.146 34.7001 163.957 34.3914 164.569 33.8201C164.749 33.6101 162.989 33.9302 162.269 33.8802C161.549 33.8302 159.939 33.2402 160.339 32.7602C160.739 32.2802 162.339 33.7602 163.219 33.6502C163.911 33.532 164.584 33.3201 165.219 33.0202C165.012 32.9054 164.784 32.8338 164.548 32.8098C164.313 32.7857 164.075 32.8097 163.849 32.8802C162.775 33.031 161.68 32.8422 160.719 32.3402C160.189 31.9502 160.479 31.8402 160.719 31.5402C160.959 31.2402 162.249 32.2202 162.569 32.5402C162.889 32.8602 165.569 31.9701 165.739 31.6801C165.909 31.3901 163.929 31.9602 163.509 31.9102C163.089 31.8602 160.749 31.0001 160.929 30.8001C161.109 30.6001 162.639 31.1702 163.099 31.2502C163.559 31.3302 166.469 29.9101 166.469 29.5501C166.469 29.1901 163.789 30.4402 163.289 30.4002C162.789 30.4002 161.159 30.2202 161.459 29.8702C161.759 29.5202 164.459 30.0002 165.019 29.6502C165.95 29.0987 166.804 28.4262 167.559 27.6502C167.559 27.3702 164.709 28.7201 163.629 29.0801C162.549 29.4401 161.089 29.5001 161.569 28.9401C162.049 28.3801 165.049 27.9401 165.669 27.5801C166.639 26.9609 167.487 26.1676 168.169 25.2402C168.169 24.8802 164.059 27.5602 163.489 27.7402C162.919 27.9202 161.989 28.2002 162.239 27.9102C162.489 27.6202 165.459 26.4402 166.309 25.7302C167.159 25.0202 169.089 23.1002 168.979 22.7302C168.869 22.3602 166.049 24.8702 164.979 25.7302C163.909 26.5902 163.189 26.8302 163.469 26.5002C164.08 25.7367 164.748 25.0212 165.469 24.3602C166.019 23.9502 168.949 21.5102 168.739 21.2802C168.529 21.0502 167.619 21.8102 166.869 22.4602C166.119 23.1102 163.039 26.1402 162.869 25.9602C162.699 25.7802 165.749 22.5502 166.269 21.9602C166.789 21.3702 168.469 19.1102 168.069 18.9602C167.669 18.8102 163.069 25.2302 162.869 25.1402C162.669 25.0502 165.199 21.2901 165.649 20.4501C166.099 19.6101 167.149 17.8302 166.649 18.0402C166.149 18.2502 162.189 24.8902 161.949 25.1702C162.268 24.1869 162.642 23.222 163.069 22.2802C163.379 21.4302 165.069 17.6102 164.799 17.5002C164.529 17.3902 163.799 18.8402 163.119 19.9702C162.439 21.1002 160.929 26.0901 160.619 26.4401C160.309 26.7901 161.069 21.9702 161.539 20.2702C162.009 18.5702 162.309 17.2702 162.149 17.4702C161.574 18.367 161.11 19.3308 160.769 20.3402C160.359 21.6402 159.979 26.3401 159.769 26.5701C159.559 26.8001 159.449 24.2101 159.259 22.9301C159.069 21.6501 159.639 17.2202 159.259 17.1102C158.879 17.0002 158.429 21.4102 158.429 22.2502C158.429 23.0902 158.899 27.5901 158.719 27.8001C158.539 28.0101 157.919 24.5102 157.559 23.2902C157.199 22.0702 157.139 18.0302 157.059 18.1202C156.61 19.5548 156.483 21.071 156.689 22.5601C157.059 24.5601 158.339 28.2401 157.809 28.4501C157.279 28.6601 157.029 26.2202 156.809 25.3902C156.589 24.5602 154.589 19.7802 154.439 19.9602C154.62 21.3922 154.931 22.8046 155.369 24.1801C155.639 25.0101 157.499 29.3502 157.249 29.5902C156.999 29.8302 156.369 28.0702 155.729 26.6702C155.089 25.2702 152.869 21.5102 152.599 21.8402C152.329 22.1702 157.039 30.6901 156.809 30.9501C156.579 31.2101 155.059 28.6102 154.339 27.6502C153.619 26.6902 151.769 22.8202 151.519 23.1202C151.269 23.4202 152.909 27.1202 153.519 28.1202C154.129 29.1202 156.369 31.8902 156.099 32.1202C155.829 32.3502 154.239 29.9701 153.809 29.4501C153.379 28.9301 150.219 25.0501 150.039 25.2001C149.859 25.3501 151.659 27.9502 153.039 29.5302C154.093 30.7492 155.072 32.0315 155.969 33.3702C155.849 33.2702 149.579 26.6102 149.429 26.7802C149.279 26.9502 150.619 28.4002 151.349 29.4702C152.079 30.5402 156.649 34.7102 156.239 34.7702C155.829 34.8302 153.599 32.1902 152.729 31.4102C151.859 30.6302 148.479 27.9702 148.559 28.2902C148.639 28.6102 155.989 35.4202 155.859 35.6402C155.729 35.8602 153.499 33.9002 152.859 33.3902C152.219 32.8802 148.979 29.6402 148.859 30.0202C148.739 30.4002 155.479 36.4702 155.189 36.6302C154.899 36.7902 149.889 31.8201 149.749 32.0501Z" fill="#8EDAA7"/>
    <path d="M79.4887 110.91C80.4887 109.73 81.2887 104.91 81.5887 104.4C81.8887 103.89 86.8188 102.27 87.0488 101.79C87.1074 101.697 87.1385 101.588 87.1386 101.478C87.1388 101.368 87.108 101.259 87.0496 101.166C86.9913 101.072 86.9077 100.996 86.8086 100.948C86.7094 100.899 86.5986 100.879 86.4887 100.89C86.0087 100.89 81.2788 103.22 80.7988 103.24C80.3188 103.26 78.3488 102.77 76.5588 102.66C75.0021 102.663 73.4501 102.83 71.9288 103.16L72.4288 104.07L71.0488 103.2C68.7654 103.52 66.5515 104.22 64.4987 105.27L66.3888 106.44L63.1087 106.61C61.5323 107.238 60.1371 108.248 59.0488 109.55L61.2487 110.43L57.6288 110.62C56.7059 111.206 55.9102 111.971 55.2888 112.87L57.9188 113.87L54.2287 114.06C53.7487 114.81 52.8187 116.45 52.9787 116.92C53.1387 117.39 54.3487 117.49 54.9787 117.48L57.3788 116.11L56.1788 117.97C57.1906 118.329 58.2473 118.544 59.3187 118.61L62.3187 114.46L60.6888 118.54C62.2229 118.525 63.7361 118.184 65.1287 117.54L68.4687 113.37L67.3888 117.43C68.6761 117.179 69.9107 116.709 71.0388 116.04L72.9587 109.88L73.0388 115.34C73.6053 115.324 74.1602 115.177 74.66 114.909C75.1598 114.642 75.5907 114.262 75.9188 113.8L76.2387 109.71L77.4388 112.32C78.2584 112.088 78.9787 111.593 79.4887 110.91Z" fill="#1FA3AA"/>
    <path d="M80.079 38.55C81.539 39.63 88.349 41.2701 88.969 41.6201C89.589 41.9701 90.699 46.4501 91.329 46.7401C91.959 47.0301 92.699 46.86 92.789 46.45C92.879 46.04 90.789 41.6 90.859 41.19C90.929 40.78 92.179 39.1901 92.859 37.7401C93.2548 36.4458 93.414 35.0908 93.329 33.7401L91.889 33.97L93.499 32.97C93.6175 30.916 93.1713 28.8686 92.209 27.05L90.019 28.4001L90.629 25.6101C89.9753 23.9931 88.8631 22.6027 87.4291 21.6101L85.569 23.2901L86.239 20.21C85.5334 19.228 84.6309 18.4039 83.589 17.7901L81.459 19.7901L82.139 16.6501C81.139 16.0901 79.039 14.9801 78.319 15.0201C77.599 15.0601 77.129 16.02 76.989 16.56L78.369 18.8801L75.989 17.4901C75.2434 18.2049 74.6483 19.0617 74.239 20.0101L79.479 23.3601L73.989 21.1701C73.6236 22.4806 73.7407 23.8786 74.319 25.1101L79.489 28.7501L73.889 27.0301C73.938 28.2212 74.3039 29.3776 74.949 30.3801L83.389 33.2401L75.449 32.2401C75.099 33.1501 76.0491 34.61 76.9391 34.97L82.769 36.06L78.6891 36.5401C78.6891 36.5401 78.629 37.48 80.079 38.55Z" fill="#65BD83"/>
    <path d="M105.449 146.17C104.759 148.52 109.039 149.68 111.269 149.96L118.779 146.3C121.119 142.65 122.169 137.3 119.209 137.78C115.509 138.33 118.119 142.49 115.689 141.59C113.259 140.69 119.889 135.99 115.809 135.21C113.109 134.69 114.939 139.08 112.809 138.65C110.679 138.22 115.979 134.23 112.489 132.54C110.349 131.54 111.909 134.86 110.679 135.46C109.739 135.92 110.339 128.89 107.269 130.18C104.199 131.47 109.609 135.51 108.269 136.61C106.929 137.71 107.059 134.12 105.129 135.53C102.799 137.24 108.459 139.34 108.589 140.68C108.719 142.02 105.229 138.62 104.589 140.68C103.949 142.74 109.309 143.28 109.149 144.77C108.989 146.26 106.319 143.24 105.449 146.17Z" fill="#009AA3"/>
    <path d="M93.1688 147.25C91.6888 149.02 94.9788 151.63 96.8088 152.71L104.689 152.34C108.089 150.05 110.989 145.83 108.259 145.11C104.839 144.21 105.539 148.79 103.779 147.11C102.019 145.43 109.519 143.82 106.269 141.62C104.109 140.16 104.059 144.62 102.409 143.49C100.759 142.36 106.809 140.84 104.409 138.06C102.939 136.36 103.029 139.86 101.749 139.92C100.749 139.92 103.909 134.09 100.749 134.06C97.5887 134.03 100.749 139.57 99.2587 140.06C97.7687 140.55 99.1288 137.45 96.9388 137.95C94.2688 138.56 98.3987 142.5 98.0087 143.72C97.6187 144.94 95.8688 140.72 94.5588 142.19C93.2488 143.66 97.6787 146.19 96.9887 147.45C96.2987 148.71 95.0188 145.03 93.1688 147.25Z" fill="#2BA9B0"/>
    <path d="M113.559 141.32C111.769 142.7 109.559 143.5 108.839 144.16C108.539 143 108.139 141.63 107.739 140.24C107.739 140.24 107.679 140.24 107.649 140.19C107.471 140.27 107.279 140.312 107.084 140.312C106.889 140.312 106.696 140.27 106.519 140.19C106.104 139.991 105.653 139.88 105.193 139.865C104.734 139.849 104.276 139.929 103.849 140.1C103.003 140.405 102.133 140.639 101.249 140.8L103.099 139.28C103.941 138.682 104.937 138.335 105.969 138.28C106.269 138.329 106.555 138.444 106.806 138.617C107.057 138.79 107.266 139.017 107.419 139.28C107.414 139.217 107.414 139.153 107.419 139.09C106.679 136.53 105.979 134.15 105.849 133.35C105.738 132.748 105.587 132.153 105.399 131.57C105.07 131.494 104.728 131.494 104.399 131.57C103.721 131.556 103.045 131.654 102.399 131.86C102.109 131.96 101.329 132.3 101.039 132.43C101.435 131.786 101.943 131.217 102.539 130.75C102.945 130.465 103.423 130.302 103.919 130.28C104.353 130.258 104.781 130.389 105.129 130.65C104.859 129.89 104.579 129.18 104.389 128.74C104.222 128.599 104.086 128.425 103.989 128.23C103.929 128.04 103.379 127.88 102.879 127.42C102.379 126.96 102.489 125.89 102.539 125.35C102.666 125.709 102.848 126.047 103.079 126.35C103.389 126.74 103.809 126.75 104.209 127.26C104.455 127.716 104.519 128.249 104.389 128.75C104.579 129.19 104.859 129.9 105.129 130.66L105.269 130.78C105.259 130.677 105.259 130.573 105.269 130.47C105.343 130.04 105.532 129.639 105.818 129.309C106.104 128.98 106.474 128.734 106.889 128.6C107.517 128.322 108.215 128.245 108.889 128.38C108.139 128.67 107.458 129.113 106.889 129.68C106.391 130.295 105.968 130.966 105.629 131.68C105.629 131.77 105.529 131.68 105.469 131.61C105.657 132.193 105.808 132.788 105.919 133.39C106.049 134.19 106.749 136.57 107.489 139.13C107.483 139.084 107.483 139.037 107.489 138.99C107.563 138.501 107.744 138.034 108.019 137.623C108.293 137.212 108.655 136.866 109.079 136.61C110.136 136.082 111.335 135.906 112.499 136.11C112.049 136.39 111.339 136.85 110.499 137.46C109.501 138.251 108.625 139.184 107.899 140.23C107.899 140.23 107.899 140.23 107.849 140.23C108.249 141.62 108.649 142.99 108.949 144.15C109.023 143.595 109.218 143.063 109.521 142.591C109.823 142.119 110.225 141.72 110.699 141.42C111.135 141.183 111.621 141.05 112.117 141.033C112.613 141.015 113.107 141.114 113.559 141.32Z" fill="#E7A886"/>
    <path d="M108.929 133.31C108.469 133.63 107.759 134.87 106.769 136.02C106.569 136.26 106.329 135.25 106.409 134.78C106.505 134.313 106.692 133.869 106.96 133.475C107.228 133.08 107.57 132.742 107.969 132.48C108.929 132.133 109.961 132.037 110.969 132.2C110.269 132.532 109.588 132.903 108.929 133.31Z" fill="#E7A886"/>
    <path d="M105.379 134.35C105.665 134.592 105.901 134.887 106.073 135.22C106.244 135.553 106.348 135.917 106.379 136.29C106.037 136.234 105.702 136.144 105.379 136.02C104.643 135.866 103.888 135.819 103.139 135.88C102.356 136.033 101.586 136.25 100.839 136.53C101.339 136.14 102.429 135.26 102.839 134.9C103.157 134.562 103.57 134.328 104.023 134.23C104.477 134.132 104.95 134.174 105.379 134.35Z" fill="#E7A886"/>
    <path d="M106.299 142.8C107.299 142.57 108.129 143.6 108.429 144.14L109.119 145.27C108.959 145.27 108.549 145.78 108.259 145.65C107.559 145.34 106.629 143.86 105.399 144.4C104.382 144.671 103.328 144.769 102.279 144.69C103.552 143.927 104.899 143.294 106.299 142.8Z" fill="#E7A886"/>
    <path d="M107.789 140.21C108.515 139.164 109.391 138.231 110.389 137.44C111.279 136.83 111.989 136.37 112.389 136.09C111.225 135.886 110.026 136.062 108.969 136.59C108.545 136.846 108.183 137.192 107.908 137.603C107.634 138.014 107.453 138.481 107.379 138.97C107.379 139.43 107.599 140.46 107.789 140.21ZM107.789 140.21C107.71 139.75 107.494 139.324 107.169 138.989C106.844 138.654 106.426 138.424 105.969 138.33C104.937 138.385 103.941 138.732 103.099 139.33L101.249 140.85C102.133 140.689 103.003 140.455 103.849 140.15C104.276 139.979 104.733 139.899 105.193 139.915C105.653 139.93 106.104 140.041 106.519 140.24C107.219 140.54 107.529 140.11 107.789 140.21ZM104.329 128.72C104.459 128.219 104.395 127.686 104.149 127.23C103.749 126.72 103.329 126.71 103.019 126.32C102.788 126.017 102.606 125.679 102.479 125.32C102.479 125.86 102.479 127.01 102.819 127.39C103.159 127.77 103.819 128.01 103.929 128.2C104.04 128.404 104.193 128.581 104.379 128.72H104.329ZM104.329 128.72C104.979 130.218 105.485 131.776 105.839 133.37C106.109 135.07 108.989 143.97 109.359 146.46L104.329 128.72ZM108.839 144.16C109.609 143.5 111.769 142.7 113.559 141.32C113.088 141.092 112.568 140.982 112.045 141.001C111.522 141.021 111.012 141.168 110.559 141.43C110.091 141.733 109.694 142.134 109.397 142.605C109.1 143.077 108.909 143.607 108.839 144.16V144.16ZM106.769 136.02C107.769 134.87 108.469 133.63 108.929 133.31C109.575 132.904 110.243 132.534 110.929 132.2C109.921 132.037 108.889 132.133 107.929 132.48C107.53 132.742 107.187 133.08 106.92 133.475C106.652 133.869 106.465 134.313 106.369 134.78C106.379 135.25 106.569 136.26 106.769 136.02V136.02ZM105.579 131.68C105.918 130.966 106.341 130.295 106.839 129.68C107.408 129.113 108.089 128.67 108.839 128.38C108.165 128.245 107.467 128.322 106.839 128.6C106.424 128.734 106.053 128.98 105.768 129.309C105.482 129.639 105.292 130.04 105.219 130.47C105.139 130.9 105.449 131.97 105.579 131.68ZM105.419 131.61C105.089 131.41 104.639 131.55 104.339 131.55C103.661 131.536 102.985 131.634 102.339 131.84C102.049 131.94 101.269 132.28 100.979 132.41C101.375 131.766 101.883 131.197 102.479 130.73C102.884 130.445 103.363 130.282 103.859 130.26C104.147 130.246 104.434 130.299 104.698 130.415C104.962 130.531 105.195 130.708 105.379 130.93C105.619 131.2 105.839 131.37 105.379 131.61H105.419ZM106.419 136.29C106.388 135.917 106.284 135.553 106.112 135.22C105.941 134.887 105.705 134.592 105.419 134.35C104.991 134.176 104.52 134.135 104.068 134.233C103.617 134.331 103.206 134.564 102.889 134.9C102.509 135.26 101.419 136.14 100.889 136.53C101.636 136.25 102.405 136.033 103.189 135.88C103.938 135.819 104.693 135.866 105.429 136.02C105.755 136.144 106.094 136.235 106.439 136.29H106.419ZM108.419 144.14C108.119 143.6 107.279 142.57 106.289 142.8C104.896 143.295 103.556 143.928 102.289 144.69C103.338 144.769 104.392 144.671 105.409 144.4C106.639 143.86 107.569 145.34 108.269 145.65C108.559 145.78 108.969 145.26 109.129 145.27L108.419 144.14Z" stroke="#E7A886" stroke-width="2"/>
    <path d="M102.679 156.05C102.679 156.32 108.749 157.67 111.569 157.78C112.42 158.404 113.198 159.122 113.889 159.92C114.219 160.5 117.429 160.65 118.249 160.74C119.069 160.83 118.649 159.88 118.539 159.87L115.429 159.53C113.689 159.35 112.799 156.53 113.179 155.99C114.069 155.84 115.959 155.4 116.359 154.87C116.694 154.404 116.96 153.892 117.149 153.35C116.933 153.417 116.736 153.536 116.576 153.697C116.415 153.857 116.296 154.054 116.229 154.27C115.949 155.07 114.009 155.17 113.449 155.27C112.889 155.37 112.969 155.06 112.999 154.75C113.029 154.44 114.239 154.88 114.879 154.75C115.519 154.62 116.599 152.69 116.649 152.22C116.699 151.75 115.519 153.64 114.949 154.05C114.379 154.46 113.029 154.47 112.869 154.18C112.709 153.89 114.159 153.77 114.999 153.59C115.385 153.441 115.715 153.177 115.944 152.833C116.173 152.489 116.29 152.083 116.279 151.67C116.279 151.35 116.119 151.49 115.849 151.78C116.023 151.37 116.092 150.923 116.049 150.48C115.969 150.12 115.219 151.6 114.509 151.99C113.799 152.38 112.169 152.21 112.209 151.75C112.249 151.29 113.629 151.82 114.589 151.26C114.941 151.034 115.244 150.742 115.483 150.398C115.721 150.055 115.89 149.668 115.979 149.26C115.979 148.99 114.729 150.26 114.109 150.6C113.489 150.94 111.819 151.37 111.889 150.76C111.959 150.15 114.129 150.41 114.769 149.88C115.287 149.391 115.734 148.832 116.099 148.22C115.863 148.242 115.633 148.31 115.423 148.422C115.214 148.533 115.029 148.686 114.879 148.87C114.076 149.597 113.065 150.055 111.989 150.18C111.329 150.18 111.509 149.89 111.509 149.53C111.509 149.17 113.159 149.24 113.579 149.28C113.999 149.32 115.769 147.12 115.729 146.8C115.689 146.48 114.379 148.04 114.009 148.23C113.639 148.42 111.209 149.03 111.239 148.76C111.269 148.49 112.879 148.11 113.299 147.92C113.719 147.73 115.299 144.92 115.139 144.62C114.979 144.32 113.409 146.86 112.979 147.1C112.539 147.34 111.109 148.1 111.159 147.68C111.209 147.26 113.679 146.14 113.989 145.51C114.461 144.534 114.797 143.497 114.989 142.43C114.859 142.18 113.229 144.92 112.539 145.82C111.849 146.72 110.669 147.59 110.749 146.82C110.829 146.05 113.049 144 113.379 143.39C113.84 142.338 114.098 141.208 114.139 140.06C113.979 139.73 112.039 144.28 111.679 144.75C111.319 145.22 110.679 145.97 110.679 145.59C110.679 145.21 112.519 142.59 112.829 141.5C113.139 140.41 113.659 137.77 113.369 137.5C113.079 137.23 112.149 140.92 111.689 142.24C111.229 143.56 110.819 144.15 110.869 143.73C110.949 142.752 111.106 141.783 111.339 140.83C111.559 140.19 112.619 136.52 112.339 136.45C112.059 136.38 111.719 137.52 111.459 138.45C111.199 139.38 110.349 143.64 110.069 143.61C109.789 143.58 110.549 139.18 110.639 138.36C110.729 137.54 110.859 134.78 110.459 134.89C110.059 135 109.799 142.89 109.599 142.89C109.399 142.89 109.379 138.4 109.279 137.45C109.179 136.5 109.059 134.45 108.729 134.91C108.399 135.37 108.879 143.09 108.839 143.45C108.55 142.464 108.317 141.462 108.139 140.45C107.929 139.56 107.219 135.45 106.899 135.52C106.579 135.59 106.799 137.2 106.899 138.52C106.999 139.84 108.509 144.82 108.459 145.29C108.409 145.76 106.329 141.29 105.769 139.65C105.547 138.72 105.189 137.827 104.709 137C104.723 138.065 104.874 139.124 105.159 140.15C105.549 141.45 107.879 145.58 107.849 145.85C107.819 146.12 106.269 144.07 105.389 143.12C104.509 142.17 102.509 138.17 102.139 138.29C101.769 138.41 103.859 142.29 104.339 143.01C104.819 143.73 107.709 147.17 107.679 147.45C107.649 147.73 105.179 145.17 104.189 144.36C103.199 143.55 100.909 140.24 100.889 140.36C101.319 141.799 102.063 143.124 103.069 144.24C104.519 145.73 107.619 148.03 107.299 148.5C106.979 148.97 105.399 147.08 104.719 146.5C104.039 145.92 99.7189 143.1 99.7189 143.33C100.668 144.428 101.719 145.432 102.859 146.33C103.539 146.87 107.519 149.42 107.439 149.77C107.359 150.12 105.869 149 104.549 148.2C103.229 147.4 99.299 145.52 99.249 145.95C99.199 146.38 107.879 150.79 107.839 151.14C107.799 151.49 105.079 150.14 103.949 149.79C102.819 149.44 99.1089 147.22 99.0689 147.61C99.0289 148 102.449 150.14 103.539 150.61C104.629 151.08 108.009 152.15 107.899 152.46C107.789 152.77 105.149 151.72 104.509 151.54C103.869 151.36 99.059 149.9 98.999 150.13C98.939 150.36 101.879 151.49 103.909 152.03C105.46 152.46 106.986 152.977 108.479 153.58C108.329 153.58 99.3989 151.58 99.3689 151.79C99.3389 152 101.269 152.46 102.469 152.94C103.669 153.42 109.789 154.31 109.469 154.59C109.149 154.87 105.839 153.92 104.689 153.76C103.539 153.6 99.2389 153.3 99.4889 153.52C99.7389 153.74 109.639 155.27 109.649 155.52C109.659 155.77 106.719 155.4 105.929 155.32C105.139 155.24 100.619 154.38 100.739 154.76C100.859 155.14 109.829 156.4 109.679 156.69C109.529 156.98 102.669 155.77 102.679 156.05Z" fill="#8EDAA7"/>
    <path d="M75.4287 194.45C75.4287 192.35 89.3387 190.65 106.499 190.65C123.659 190.65 137.569 192.35 137.569 194.45C137.569 196.55 123.659 198.25 106.499 198.25C89.3387 198.25 75.4287 196.55 75.4287 194.45Z" fill="#E9EFFF"/>
    <path d="M80.379 43.1101C81.739 34.8401 75.6691 29.8901 65.8091 29.6501C66.0191 37.3801 71.509 45.6101 80.379 43.1101Z" fill="#3FB9C0"/>
    <path d="M80.379 43.4203C80.3143 43.4189 80.2515 43.398 80.199 43.3602C78.959 42.3602 77.029 40.4502 74.989 38.4602C72.529 36.0502 69.729 33.3202 67.489 31.4602C67.4608 31.4366 67.4375 31.4076 67.4204 31.375C67.4034 31.3424 67.393 31.3067 67.3898 31.27C67.3865 31.2333 67.3905 31.1964 67.4015 31.1613C67.4125 31.1261 67.4303 31.0934 67.454 31.0652C67.4776 31.037 67.5067 31.0137 67.5393 30.9967C67.572 30.9797 67.6076 30.9692 67.6443 30.9659C67.681 30.9627 67.7179 30.9666 67.7531 30.9777C67.7882 30.9887 67.8208 31.0066 67.849 31.0303C70.109 32.9003 72.909 35.6403 75.379 38.0303C77.379 40.0303 79.3791 41.8903 80.5591 42.9003C80.6104 42.9542 80.639 43.0258 80.639 43.1002C80.639 43.1747 80.6104 43.2463 80.5591 43.3002C80.5148 43.3599 80.4511 43.4024 80.379 43.4203Z" fill="#1FA3AA"/>
    <path opacity="0.6" d="M174.319 7.34012C157.326 5.41882 140.166 9.01984 125.379 17.6101C120.596 20.4152 115.034 21.5951 109.525 20.9732C104.015 20.3512 98.8555 17.9608 94.8188 14.1602C86.7296 6.60571 76.4684 1.78818 65.4889 0.390164C33.7989 -3.52984 4.48887 22.5402 0.488866 58.2602C-1.117 71.7772 1.25311 85.4693 7.30893 97.6602C10.9043 104.906 12.102 113.108 10.7289 121.08C10.7289 121.33 10.6389 121.58 10.5989 121.83C2.72885 170.72 34.1889 215.59 78.1289 218.13C91.7105 218.852 105.2 215.524 116.889 208.57C127.174 202.472 139.191 199.954 151.059 201.41L151.789 201.5C199.409 207.03 243.059 168.05 249.279 114.43C255.499 60.8101 221.939 12.8701 174.319 7.34012Z" fill="#FDE8D7"/>
    <path d="M166.969 63.0304C166.866 63.0275 166.766 63.0644 166.69 63.1333C166.613 63.2022 166.566 63.2978 166.559 63.4004C166.544 63.6468 166.544 63.8939 166.559 64.1404C166.544 64.3868 166.544 64.6339 166.559 64.8804C166.566 64.9829 166.613 65.0786 166.69 65.1475C166.766 65.2164 166.866 65.2532 166.969 65.2504H167.599C167.694 65.2504 167.787 65.2831 167.862 65.3431C167.936 65.4032 167.988 65.4868 168.009 65.5803C168.009 65.7903 168.109 66.0003 168.179 66.2103C168.207 66.3 168.203 66.3966 168.169 66.484C168.134 66.5714 168.071 66.6442 167.989 66.6903L167.439 67.0104C167.349 67.0611 167.282 67.1438 167.25 67.2421C167.219 67.3403 167.225 67.4469 167.269 67.5404C167.474 67.9897 167.722 68.4182 168.009 68.8203C168.069 68.9023 168.157 68.9597 168.256 68.9818C168.355 69.0039 168.459 68.9891 168.549 68.9403L169.099 68.6204C169.182 68.5725 169.278 68.5543 169.373 68.5688C169.467 68.5834 169.554 68.6298 169.619 68.7003C169.762 68.8635 169.916 69.0172 170.079 69.1604C170.149 69.225 170.196 69.3117 170.21 69.4062C170.225 69.5008 170.207 69.5975 170.159 69.6803L169.839 70.2303C169.788 70.3191 169.772 70.4238 169.794 70.5237C169.816 70.6236 169.875 70.7116 169.959 70.7704C170.363 71.0536 170.791 71.3012 171.239 71.5104C171.333 71.5516 171.438 71.5571 171.536 71.5258C171.634 71.4944 171.716 71.4285 171.769 71.3403L172.079 70.7904C172.127 70.7077 172.201 70.6438 172.29 70.6093C172.379 70.5747 172.478 70.5716 172.569 70.6003C172.779 70.6703 172.989 70.7204 173.199 70.7704C173.291 70.7905 173.373 70.8408 173.433 70.9133C173.493 70.9859 173.526 71.0764 173.529 71.1704V71.8103C173.528 71.9125 173.566 72.0112 173.634 72.087C173.703 72.1629 173.797 72.2104 173.899 72.2203C174.391 72.2737 174.887 72.2737 175.379 72.2203C175.48 72.2104 175.575 72.1629 175.643 72.087C175.712 72.0112 175.749 71.9125 175.749 71.8103V71.1704C175.751 71.0764 175.785 70.9859 175.845 70.9133C175.905 70.8408 175.987 70.7905 176.079 70.7704C176.289 70.7204 176.499 70.6703 176.709 70.6003C176.8 70.5716 176.898 70.5747 176.987 70.6093C177.076 70.6438 177.151 70.7077 177.199 70.7904L177.509 71.3403C177.563 71.4292 177.647 71.4955 177.747 71.5267C177.846 71.558 177.953 71.5522 178.049 71.5104C178.492 71.2987 178.916 71.0513 179.319 70.7704C179.404 70.7132 179.465 70.625 179.487 70.5244C179.509 70.4238 179.492 70.3185 179.439 70.2303L179.119 69.6803C179.071 69.5975 179.053 69.5008 179.067 69.4062C179.082 69.3117 179.128 69.225 179.199 69.1604C179.362 69.0172 179.516 68.8635 179.659 68.7003C179.723 68.6298 179.81 68.5834 179.905 68.5688C179.999 68.5543 180.096 68.5725 180.179 68.6204L180.729 68.9403C180.818 68.9891 180.922 69.0039 181.021 68.9818C181.121 68.9597 181.209 68.9023 181.269 68.8203C181.556 68.4182 181.803 67.9897 182.009 67.5404C182.052 67.4469 182.059 67.3403 182.027 67.2421C181.996 67.1438 181.929 67.0611 181.839 67.0104L181.289 66.6903C181.207 66.6442 181.143 66.5714 181.109 66.484C181.074 66.3966 181.071 66.3 181.099 66.2103C181.169 66.0043 181.226 65.7939 181.269 65.5803C181.289 65.4868 181.341 65.4032 181.416 65.3431C181.49 65.2831 181.583 65.2504 181.679 65.2504H182.309C182.413 65.2534 182.514 65.2169 182.592 65.1482C182.67 65.0795 182.719 64.9838 182.729 64.8804C182.729 64.6304 182.729 64.3904 182.729 64.1404C182.729 63.8904 182.729 63.6404 182.729 63.4004C182.719 63.297 182.67 63.2013 182.592 63.1326C182.514 63.0639 182.413 63.0274 182.309 63.0304H181.679C181.583 63.0303 181.49 62.9975 181.416 62.9375C181.341 62.8775 181.289 62.7938 181.269 62.7003C181.227 62.4865 181.171 62.2759 181.099 62.0703C181.07 61.9792 181.073 61.8811 181.108 61.792C181.142 61.7029 181.206 61.6282 181.289 61.5803L181.839 61.2604C181.93 61.2114 181.999 61.1287 182.031 61.0298C182.063 60.9309 182.055 60.8235 182.009 60.7303C181.803 60.2843 181.556 59.859 181.269 59.4603C181.212 59.3746 181.123 59.3143 181.023 59.292C180.922 59.2696 180.817 59.2869 180.729 59.3403L180.179 59.6604C180.096 59.7083 179.999 59.7265 179.905 59.7119C179.81 59.6974 179.723 59.6509 179.659 59.5803C179.516 59.4172 179.362 59.2635 179.199 59.1204C179.13 59.0548 179.084 58.9681 179.07 58.874C179.055 58.7799 179.073 58.6836 179.119 58.6003L179.439 58.0503C179.492 57.9622 179.509 57.8568 179.487 57.7562C179.465 57.6556 179.404 57.5676 179.319 57.5104C178.919 57.2256 178.494 56.978 178.049 56.7704C177.954 56.7263 177.846 56.7193 177.746 56.7507C177.646 56.7822 177.561 56.8497 177.509 56.9403L177.199 57.4904C177.151 57.573 177.076 57.637 176.987 57.6715C176.898 57.7061 176.8 57.7091 176.709 57.6803C176.503 57.6097 176.292 57.553 176.079 57.5104C175.985 57.4899 175.902 57.438 175.841 57.3634C175.781 57.2888 175.749 57.1961 175.749 57.1003V56.4703C175.752 56.3665 175.715 56.2653 175.647 56.1874C175.578 56.1094 175.482 56.0604 175.379 56.0503C175.129 56.0503 174.889 56.0503 174.639 56.0503C174.389 56.0503 174.149 56.0503 173.899 56.0503C173.795 56.0604 173.7 56.1094 173.631 56.1874C173.562 56.2653 173.526 56.3665 173.529 56.4703V57.1003C173.529 57.1961 173.496 57.2888 173.436 57.3634C173.376 57.438 173.292 57.4899 173.199 57.5104C172.985 57.553 172.775 57.6097 172.569 57.6803C172.478 57.7091 172.379 57.7061 172.29 57.6715C172.201 57.637 172.127 57.573 172.079 57.4904L171.769 56.9403C171.718 56.8505 171.635 56.7831 171.537 56.7516C171.439 56.7201 171.332 56.7268 171.239 56.7704C170.789 56.9757 170.361 57.2235 169.959 57.5104C169.875 57.5692 169.816 57.6572 169.794 57.7571C169.772 57.857 169.788 57.9615 169.839 58.0503L170.159 58.6003C170.205 58.6836 170.222 58.7799 170.208 58.874C170.193 58.9681 170.148 59.0548 170.079 59.1204C169.916 59.2635 169.762 59.4172 169.619 59.5803C169.554 59.6509 169.467 59.6974 169.373 59.7119C169.278 59.7265 169.182 59.7083 169.099 59.6604L168.549 59.3403C168.461 59.2869 168.355 59.2696 168.255 59.292C168.154 59.3143 168.066 59.3746 168.009 59.4603C167.722 59.859 167.474 60.2843 167.269 60.7303C167.223 60.8235 167.215 60.9309 167.246 61.0298C167.278 61.1287 167.347 61.2114 167.439 61.2604L167.989 61.5803C168.071 61.6282 168.135 61.7029 168.17 61.792C168.204 61.8811 168.208 61.9792 168.179 62.0703C168.112 62.2773 168.055 62.4876 168.009 62.7003C167.988 62.7938 167.936 62.8775 167.862 62.9375C167.787 62.9975 167.694 63.0303 167.599 63.0304H166.969ZM174.639 60.1604C175.43 60.1604 176.203 60.3949 176.861 60.8345C177.519 61.274 178.032 61.8987 178.334 62.6296C178.637 63.3605 178.716 64.1648 178.562 64.9407C178.407 65.7166 178.027 66.4294 177.467 66.9888C176.908 67.5482 176.195 67.9292 175.419 68.0835C174.643 68.2378 173.839 68.1586 173.108 67.8558C172.377 67.5531 171.752 67.0405 171.313 66.3827C170.873 65.7249 170.639 64.9515 170.639 64.1604C170.639 63.0995 171.06 62.0821 171.81 61.3319C172.56 60.5818 173.578 60.1604 174.639 60.1604Z" fill="#F46F67"/>
    <path d="M172.989 64.1102C172.989 63.7839 173.086 63.4648 173.267 63.1935C173.448 62.9221 173.706 62.7107 174.007 62.5858C174.309 62.4609 174.641 62.4283 174.961 62.4919C175.281 62.5556 175.575 62.7127 175.806 62.9435C176.036 63.1742 176.193 63.4682 176.257 63.7883C176.321 64.1084 176.288 64.4402 176.163 64.7417C176.038 65.0432 175.827 65.3008 175.555 65.4822C175.284 65.6635 174.965 65.7602 174.639 65.7602C174.422 65.7602 174.208 65.7175 174.007 65.6346C173.807 65.5517 173.625 65.4302 173.472 65.277C173.319 65.1237 173.197 64.9419 173.114 64.7417C173.031 64.5415 172.989 64.3269 172.989 64.1102Z" fill="#F46F67"/>
    <path d="M55.5289 54.4702C55.4251 54.4672 55.3239 54.5037 55.246 54.5724C55.168 54.6411 55.119 54.7368 55.1089 54.8402C55.1089 55.0802 55.1089 55.3302 55.1089 55.5802C55.1089 55.8302 55.1089 56.0702 55.1089 56.3102C55.1189 56.4145 55.1675 56.5114 55.2452 56.5817C55.3229 56.652 55.4241 56.6907 55.5289 56.6902H56.1589C56.2546 56.6902 56.3474 56.7231 56.422 56.7831C56.4966 56.8431 56.5483 56.9268 56.5688 57.0203C56.6102 57.2308 56.6671 57.438 56.7389 57.6403C56.7677 57.7314 56.7645 57.8295 56.73 57.9186C56.6954 58.0077 56.6316 58.0824 56.549 58.1302L55.9989 58.4502C55.9091 58.5009 55.8417 58.5838 55.8102 58.682C55.7787 58.7802 55.7853 58.8867 55.8289 58.9802C56.0342 59.4295 56.282 59.8581 56.5688 60.2603C56.6291 60.3423 56.7171 60.3996 56.8164 60.4216C56.9157 60.4437 57.0196 60.429 57.1089 60.3802L57.6589 60.0602C57.7412 60.0104 57.8384 59.9912 57.9335 60.0059C58.0285 60.0205 58.1154 60.0681 58.179 60.1403C58.319 60.3003 58.4789 60.4502 58.6389 60.6002C58.7087 60.6632 58.7547 60.7482 58.7693 60.8411C58.7839 60.9339 58.766 61.0289 58.7189 61.1102L58.3989 61.6703C58.3455 61.7584 58.3281 61.8638 58.3505 61.9644C58.3728 62.065 58.4332 62.153 58.5189 62.2102C58.9199 62.4934 59.3448 62.741 59.7889 62.9502C59.8825 62.9937 59.9889 63.0005 60.0872 62.969C60.1854 62.9375 60.2681 62.8701 60.3188 62.7803L60.6389 62.2302C60.6868 62.1475 60.7614 62.0836 60.8505 62.0491C60.9395 62.0145 61.0378 62.0115 61.1289 62.0403C61.3389 62.1103 61.5489 62.1602 61.7589 62.2102C61.8507 62.2303 61.9332 62.2807 61.993 62.3533C62.0529 62.4258 62.0866 62.5162 62.0889 62.6102V63.2502C62.0884 63.3524 62.1261 63.451 62.1946 63.5269C62.263 63.6027 62.3572 63.6503 62.4589 63.6603C62.6989 63.6603 62.9489 63.6603 63.1989 63.6603C63.4489 63.6603 63.689 63.6603 63.939 63.6603C64.0406 63.6503 64.1348 63.6027 64.2032 63.5269C64.2717 63.451 64.3094 63.3524 64.309 63.2502V62.6102C64.3113 62.5162 64.345 62.4258 64.4048 62.3533C64.4646 62.2807 64.5471 62.2303 64.6389 62.2102C64.8489 62.2102 65.0589 62.1103 65.2689 62.0403C65.3586 62.0121 65.4552 62.0156 65.5426 62.0502C65.63 62.0848 65.7028 62.1483 65.7489 62.2302L66.0688 62.7803C66.1212 62.8684 66.2041 62.9343 66.3018 62.9656C66.3994 62.9969 66.505 62.9914 66.5989 62.9502C67.0462 62.741 67.4745 62.4935 67.8789 62.2102C67.9609 62.15 68.0183 62.0621 68.0404 61.9628C68.0625 61.8635 68.0477 61.7596 67.9989 61.6703L67.679 61.1102C67.6318 61.0289 67.614 60.9339 67.6285 60.8411C67.6431 60.7482 67.6891 60.6632 67.7589 60.6002C67.9189 60.4502 68.0789 60.3003 68.2189 60.1403C68.2824 60.0681 68.3693 60.0205 68.4644 60.0059C68.5594 59.9912 68.6566 60.0104 68.7389 60.0602L69.2889 60.3802C69.3782 60.429 69.4821 60.4437 69.5814 60.4216C69.6807 60.3996 69.7687 60.3423 69.8289 60.2603C70.1158 59.8581 70.3635 59.4295 70.5688 58.9802C70.6124 58.8867 70.6192 58.7802 70.5876 58.682C70.5561 58.5838 70.4887 58.5009 70.3989 58.4502L69.8489 58.1302C69.7662 58.0824 69.7024 58.0077 69.6678 57.9186C69.6333 57.8295 69.6301 57.7314 69.6589 57.6403C69.7261 57.4366 69.7828 57.2297 69.8289 57.0203C69.849 56.9284 69.8994 56.846 69.9719 56.7861C70.0444 56.7263 70.1349 56.6925 70.2289 56.6902H70.8689C70.9726 56.6905 71.0726 56.6514 71.1487 56.5809C71.2248 56.5104 71.2713 56.4136 71.2789 56.3102C71.2941 56.0671 71.2941 55.8233 71.2789 55.5802C71.2942 55.3338 71.2942 55.0866 71.2789 54.8402C71.269 54.7385 71.2213 54.6442 71.1455 54.5758C71.0697 54.5074 70.971 54.4697 70.8689 54.4702H70.2289C70.1349 54.4679 70.0444 54.4342 69.9719 54.3744C69.8994 54.3146 69.849 54.2321 69.8289 54.1403C69.7841 53.9272 69.7274 53.7169 69.6589 53.5103C69.6301 53.4191 69.6333 53.3209 69.6678 53.2318C69.7024 53.1427 69.7662 53.0681 69.8489 53.0203L70.3989 52.7002C70.4887 52.6494 70.5561 52.5667 70.5876 52.4685C70.6192 52.3703 70.6124 52.2638 70.5688 52.1703C70.3613 51.7222 70.1137 51.2937 69.8289 50.8903C69.7686 50.8081 69.68 50.7513 69.5802 50.731C69.4804 50.7106 69.3765 50.7282 69.2889 50.7803L68.7389 51.1002C68.6545 51.1451 68.5577 51.1607 68.4635 51.1444C68.3693 51.1281 68.2832 51.0809 68.2189 51.0103C68.0789 50.8503 67.9189 50.7002 67.7589 50.5502C67.6891 50.4872 67.6431 50.4023 67.6285 50.3094C67.614 50.2166 67.6318 50.1216 67.679 50.0403L67.9989 49.4902C68.0484 49.3994 68.0634 49.2939 68.0414 49.1929C68.0193 49.0919 67.9617 49.0021 67.8789 48.9402C67.4766 48.6565 67.0479 48.4121 66.5989 48.2102C66.5054 48.1667 66.3989 48.16 66.3007 48.1915C66.2024 48.223 66.1196 48.2904 66.0688 48.3802L65.7489 48.9302C65.7026 49.0116 65.6292 49.0743 65.5415 49.1072C65.4538 49.1401 65.3573 49.1412 65.2689 49.1102C65.0589 49.0502 64.8489 48.9902 64.6389 48.9502C64.5463 48.9281 64.4635 48.8758 64.4038 48.8016C64.3441 48.7274 64.3108 48.6355 64.309 48.5403V47.9003C64.3094 47.7981 64.2717 47.6994 64.2032 47.6235C64.1348 47.5477 64.0406 47.5002 63.939 47.4902C63.689 47.4902 63.4489 47.4902 63.1989 47.4902C62.9489 47.4902 62.6989 47.4902 62.4589 47.4902C62.3572 47.5002 62.263 47.5477 62.1946 47.6235C62.1261 47.6994 62.0884 47.7981 62.0889 47.9003V48.5403C62.087 48.6355 62.0537 48.7274 61.994 48.8016C61.9343 48.8758 61.8516 48.9281 61.7589 48.9502C61.5489 48.9502 61.3389 49.0502 61.1289 49.1102C61.039 49.1418 60.941 49.1411 60.8516 49.1083C60.7621 49.0754 60.687 49.0124 60.6389 48.9302L60.3188 48.3802C60.2699 48.2886 60.1873 48.2197 60.0884 48.188C59.9895 48.1563 59.8821 48.1642 59.7889 48.2102C59.3431 48.4121 58.9178 48.6565 58.5189 48.9402C58.4325 48.9992 58.3719 49.0891 58.3496 49.1914C58.3273 49.2937 58.3449 49.4006 58.3989 49.4902L58.7189 50.0403C58.766 50.1216 58.7839 50.2166 58.7693 50.3094C58.7547 50.4023 58.7087 50.4872 58.6389 50.5502C58.4789 50.7002 58.319 50.8503 58.179 51.0103C58.1146 51.0809 58.0285 51.1281 57.9343 51.1444C57.8402 51.1607 57.7433 51.1451 57.6589 51.1002L57.1089 50.7803C57.0213 50.7282 56.9175 50.7106 56.8176 50.731C56.7178 50.7513 56.6291 50.8081 56.5688 50.8903C56.284 51.2937 56.0364 51.7222 55.8289 52.1703C55.7853 52.2638 55.7787 52.3703 55.8102 52.4685C55.8417 52.5667 55.9091 52.6494 55.9989 52.7002L56.549 53.0203C56.6316 53.0681 56.6954 53.1427 56.73 53.2318C56.7645 53.3209 56.7677 53.4191 56.7389 53.5103C56.6658 53.7155 56.6089 53.9261 56.5688 54.1403C56.5483 54.2337 56.4966 54.3174 56.422 54.3774C56.3474 54.4375 56.2546 54.4702 56.1589 54.4702H55.5289ZM63.1989 51.6002C63.99 51.6002 64.7633 51.8348 65.4211 52.2743C66.0789 52.7138 66.5917 53.3386 66.8944 54.0695C67.1972 54.8004 67.2764 55.6047 67.1221 56.3806C66.9677 57.1565 66.5868 57.8693 66.0273 58.4287C65.4679 58.9881 64.7552 59.369 63.9792 59.5233C63.2033 59.6777 62.3991 59.5985 61.6682 59.2958C60.9373 58.993 60.3126 58.4803 59.873 57.8225C59.4335 57.1647 59.1989 56.3913 59.1989 55.6002C59.1989 54.5394 59.6203 53.522 60.3705 52.7719C61.1206 52.0217 62.138 51.6002 63.1989 51.6002Z" fill="#F46F67"/>
    <path d="M63.1988 57.2302C64.1101 57.2302 64.8488 56.4914 64.8488 55.5802C64.8488 54.6689 64.1101 53.9302 63.1988 53.9302C62.2876 53.9302 61.5488 54.6689 61.5488 55.5802C61.5488 56.4914 62.2876 57.2302 63.1988 57.2302Z" fill="#F46F67"/>
    <path d="M126.949 117.49C126.847 117.49 126.748 117.527 126.672 117.596C126.597 117.664 126.549 117.759 126.539 117.86C126.539 118.1 126.539 118.35 126.539 118.6C126.539 118.85 126.539 119.09 126.539 119.33C126.547 119.434 126.593 119.53 126.669 119.601C126.745 119.671 126.845 119.71 126.949 119.71H127.589C127.683 119.713 127.774 119.746 127.846 119.806C127.919 119.866 127.969 119.948 127.989 120.04C128.039 120.25 128.089 120.46 128.159 120.67C128.187 120.76 128.184 120.856 128.149 120.944C128.114 121.031 128.051 121.104 127.969 121.15L127.419 121.47C127.331 121.523 127.265 121.605 127.234 121.703C127.202 121.801 127.208 121.906 127.249 122C127.458 122.448 127.706 122.876 127.989 123.28C128.049 123.362 128.137 123.42 128.236 123.442C128.336 123.464 128.44 123.449 128.529 123.4L129.089 123.08C129.17 123.033 129.265 123.015 129.358 123.03C129.451 123.044 129.536 123.091 129.599 123.16C129.749 123.32 129.899 123.47 130.059 123.62C130.131 123.682 130.178 123.767 130.192 123.861C130.207 123.954 130.188 124.049 130.139 124.13L129.819 124.69C129.77 124.779 129.756 124.883 129.778 124.983C129.8 125.082 129.857 125.17 129.939 125.23C130.344 125.513 130.772 125.761 131.219 125.97C131.313 126.011 131.419 126.017 131.516 125.986C131.614 125.954 131.697 125.888 131.749 125.8L132.069 125.25C132.117 125.168 132.192 125.104 132.281 125.069C132.37 125.035 132.468 125.031 132.559 125.06C132.763 125.127 132.97 125.184 133.179 125.23C133.271 125.25 133.353 125.301 133.413 125.373C133.473 125.446 133.507 125.536 133.509 125.63V126.27C133.509 126.374 133.548 126.474 133.618 126.55C133.689 126.626 133.786 126.673 133.889 126.68C134.129 126.68 134.379 126.68 134.619 126.68C134.859 126.68 135.119 126.68 135.359 126.68C135.461 126.67 135.555 126.623 135.623 126.547C135.692 126.471 135.729 126.372 135.729 126.27V125.63C135.731 125.536 135.765 125.446 135.825 125.373C135.885 125.301 135.967 125.25 136.059 125.23C136.272 125.185 136.482 125.129 136.689 125.06C136.78 125.031 136.878 125.035 136.967 125.069C137.056 125.104 137.131 125.168 137.179 125.25L137.499 125.8C137.551 125.888 137.634 125.954 137.732 125.986C137.829 126.017 137.935 126.011 138.029 125.97C138.475 125.759 138.903 125.511 139.309 125.23C139.391 125.17 139.448 125.081 139.468 124.981C139.489 124.882 139.471 124.778 139.419 124.69L139.099 124.13C139.053 124.048 139.037 123.952 139.053 123.859C139.07 123.766 139.118 123.682 139.189 123.62L139.649 123.16C139.712 123.091 139.797 123.044 139.89 123.03C139.983 123.015 140.078 123.033 140.159 123.08L140.709 123.4C140.8 123.45 140.905 123.465 141.006 123.443C141.107 123.421 141.197 123.363 141.259 123.28C141.542 122.876 141.79 122.448 141.999 122C142.038 121.906 142.042 121.801 142.011 121.704C141.98 121.607 141.916 121.524 141.829 121.47L141.269 121.15C141.189 121.103 141.127 121.029 141.095 120.942C141.062 120.855 141.06 120.759 141.089 120.67C141.149 120.46 141.209 120.25 141.249 120.04C141.271 119.948 141.323 119.865 141.398 119.805C141.472 119.745 141.564 119.712 141.659 119.71H142.299C142.403 119.71 142.503 119.671 142.579 119.601C142.655 119.53 142.701 119.434 142.709 119.33C142.709 119.09 142.709 118.85 142.709 118.6C142.709 118.35 142.709 118.1 142.709 117.86C142.699 117.759 142.652 117.664 142.576 117.596C142.5 117.527 142.401 117.49 142.299 117.49H141.659C141.564 117.488 141.472 117.455 141.398 117.395C141.323 117.336 141.271 117.253 141.249 117.16C141.208 116.947 141.154 116.737 141.089 116.53C141.057 116.44 141.058 116.342 141.091 116.253C141.124 116.164 141.187 116.088 141.269 116.04L141.829 115.72C141.917 115.668 141.983 115.585 142.014 115.487C142.046 115.39 142.04 115.284 141.999 115.19C141.79 114.746 141.542 114.321 141.259 113.92C141.2 113.834 141.11 113.773 141.008 113.751C140.906 113.729 140.799 113.746 140.709 113.8L140.159 114.12C140.077 114.168 139.981 114.185 139.887 114.169C139.794 114.152 139.71 114.103 139.649 114.03C139.499 113.87 139.349 113.72 139.189 113.58C139.118 113.516 139.071 113.43 139.055 113.336C139.039 113.242 139.054 113.145 139.099 113.06L139.419 112.51C139.472 112.421 139.49 112.316 139.469 112.214C139.449 112.113 139.392 112.022 139.309 111.96C138.905 111.679 138.477 111.434 138.029 111.23C137.936 111.187 137.829 111.18 137.731 111.212C137.632 111.243 137.55 111.31 137.499 111.4L137.179 111.95C137.131 112.032 137.056 112.095 136.966 112.128C136.877 112.161 136.779 112.162 136.689 112.13C136.482 112.065 136.272 112.012 136.059 111.97C135.966 111.95 135.882 111.898 135.822 111.823C135.762 111.749 135.729 111.656 135.729 111.56V110.92C135.729 110.818 135.692 110.719 135.623 110.644C135.555 110.568 135.461 110.52 135.359 110.51C135.119 110.51 134.869 110.51 134.619 110.51C134.369 110.51 134.129 110.51 133.889 110.51C133.786 110.518 133.689 110.564 133.618 110.64C133.548 110.716 133.509 110.817 133.509 110.92V111.56C133.509 111.656 133.476 111.749 133.416 111.823C133.356 111.898 133.273 111.95 133.179 111.97C132.97 112.013 132.763 112.066 132.559 112.13C132.469 112.162 132.371 112.161 132.282 112.128C132.192 112.095 132.117 112.032 132.069 111.95L131.749 111.4C131.698 111.31 131.616 111.243 131.517 111.212C131.419 111.18 131.313 111.187 131.219 111.23C130.77 111.432 130.341 111.677 129.939 111.96C129.856 112.022 129.799 112.112 129.776 112.213C129.754 112.314 129.77 112.419 129.819 112.51L130.139 113.06C130.189 113.142 130.208 113.24 130.193 113.335C130.179 113.43 130.131 113.517 130.059 113.58C129.899 113.72 129.749 113.87 129.599 114.03C129.538 114.103 129.454 114.152 129.361 114.169C129.267 114.185 129.171 114.168 129.089 114.12L128.529 113.8C128.441 113.747 128.336 113.729 128.235 113.752C128.134 113.774 128.046 113.835 127.989 113.92C127.706 114.321 127.458 114.746 127.249 115.19C127.205 115.284 127.199 115.39 127.23 115.489C127.262 115.587 127.329 115.669 127.419 115.72L127.969 116.04C128.052 116.088 128.116 116.163 128.15 116.252C128.185 116.341 128.188 116.439 128.159 116.53C128.091 116.737 128.034 116.947 127.989 117.16C127.969 117.252 127.919 117.334 127.846 117.394C127.774 117.454 127.683 117.488 127.589 117.49H126.949ZM134.619 114.62C135.41 114.62 136.184 114.855 136.841 115.294C137.499 115.734 138.012 116.359 138.315 117.089C138.617 117.82 138.696 118.625 138.542 119.401C138.388 120.177 138.007 120.889 137.448 121.449C136.888 122.008 136.175 122.389 135.399 122.543C134.623 122.698 133.819 122.619 133.088 122.316C132.357 122.013 131.733 121.5 131.293 120.843C130.854 120.185 130.619 119.411 130.619 118.62C130.619 117.559 131.041 116.542 131.791 115.792C132.541 115.042 133.558 114.62 134.619 114.62Z" fill="#F46F67"/>
    <path d="M134.619 120.25C135.53 120.25 136.269 119.511 136.269 118.6C136.269 117.689 135.53 116.95 134.619 116.95C133.708 116.95 132.969 117.689 132.969 118.6C132.969 119.511 133.708 120.25 134.619 120.25Z" fill="#F46F67"/>
    <path d="M76.7788 43.6301V109.11C76.7815 110.491 77.3311 111.815 78.3076 112.791C79.2841 113.768 80.6078 114.317 81.9888 114.32H167.179C168.558 114.315 169.879 113.764 170.853 112.788C171.828 111.812 172.376 110.489 172.379 109.11V43.6501L76.7788 43.6301Z" fill="#F0F4F5"/>
    <path d="M172.379 41.8401C172.376 40.4608 171.828 39.1387 170.853 38.1625C169.879 37.1863 168.558 36.6354 167.179 36.6301H81.9888C80.6078 36.6328 79.2841 37.1826 78.3076 38.1591C77.3311 39.1355 76.7815 40.4591 76.7788 41.8401V43.6301H172.379V41.8401Z" fill="#034A89"/>
    <path d="M92.7888 40.3799C92.7888 40.0991 92.872 39.8245 93.0281 39.591C93.1841 39.3575 93.4059 39.1755 93.6654 39.0681C93.9249 38.9606 94.2104 38.9325 94.4858 38.9872C94.7613 39.042 95.0143 39.1772 95.2129 39.3758C95.4115 39.5744 95.5466 39.8274 95.6014 40.1028C95.6562 40.3783 95.6282 40.6638 95.5208 40.9233C95.4133 41.1828 95.2312 41.4046 94.9977 41.5606C94.7642 41.7166 94.4896 41.7999 94.2087 41.7999C94.0223 41.7999 93.8377 41.7632 93.6654 41.6918C93.4931 41.6205 93.3366 41.5158 93.2047 41.384C93.0729 41.2521 92.9682 41.0956 92.8969 40.9233C92.8255 40.751 92.7888 40.5664 92.7888 40.3799Z" fill="white"/>
    <path d="M87.5988 41.9802C87.3188 41.9802 87.1988 41.7803 87.3488 41.5303L88.7888 39.0303C88.9288 38.7803 89.1588 38.7803 89.2988 39.0303L90.7488 41.5303C90.8888 41.7803 90.7488 41.9802 90.4888 41.9802H87.5988Z" fill="white"/>
    <path d="M84.5289 38.9702H82.5589C82.3214 38.9702 82.1289 39.1627 82.1289 39.4002V41.3702C82.1289 41.6077 82.3214 41.8002 82.5589 41.8002H84.5289C84.7664 41.8002 84.9589 41.6077 84.9589 41.3702V39.4002C84.9589 39.1627 84.7664 38.9702 84.5289 38.9702Z" fill="white"/>
    <path d="M157.669 38.0801H100.729C100.154 38.0801 99.6887 38.5457 99.6887 39.1201V41.1401C99.6887 41.7145 100.154 42.1801 100.729 42.1801H157.669C158.243 42.1801 158.709 41.7145 158.709 41.1401V39.1201C158.709 38.5457 158.243 38.0801 157.669 38.0801Z" fill="#3E73A1"/>
    <path d="M148.569 48.02H81.1689V56.47H148.569V48.02Z" fill="white"/>
    <path d="M158.589 48.02H148.569V56.47H158.589V48.02Z" fill="#034A89"/>
    <path d="M83.5991 53.5601C83.5977 53.4962 83.6092 53.4327 83.6328 53.3733C83.6563 53.3139 83.6915 53.2599 83.7362 53.2142C83.7809 53.1686 83.8341 53.1323 83.893 53.1075C83.9519 53.0828 84.0152 53.0701 84.0791 53.0701C84.2117 53.0701 84.3389 53.1228 84.4327 53.2166C84.5265 53.3103 84.5791 53.4375 84.5791 53.5701C84.5791 53.7027 84.5265 53.8299 84.4327 53.9237C84.3389 54.0175 84.2117 54.0701 84.0791 54.0701C84.0134 54.0702 83.9485 54.0569 83.8883 54.0309C83.828 54.0049 83.7736 53.9669 83.7286 53.9191C83.6836 53.8713 83.6489 53.8148 83.6267 53.7531C83.6044 53.6913 83.595 53.6256 83.5991 53.5601Z" fill="#CED3F8"/>
    <path d="M86.2892 53.56C86.2872 53.4627 86.3142 53.367 86.3668 53.2851C86.4194 53.2032 86.4952 53.1389 86.5846 53.1003C86.6739 53.0616 86.7727 53.0505 86.8684 53.0683C86.9641 53.0861 87.0524 53.1319 87.1219 53.2C87.1915 53.2681 87.2392 53.3554 87.2589 53.4507C87.2786 53.5461 87.2695 53.645 87.2328 53.7352C87.196 53.8253 87.1331 53.9024 87.0523 53.9567C86.9716 54.011 86.8765 54.0401 86.7792 54.0401C86.6509 54.0401 86.5277 53.9898 86.4361 53.9001C86.3445 53.8103 86.2918 53.6882 86.2892 53.56Z" fill="#CED3F8"/>
    <path d="M88.9789 53.5601C88.9789 53.4957 88.9917 53.432 89.0163 53.3726C89.0409 53.3131 89.077 53.2591 89.1225 53.2136C89.168 53.1681 89.222 53.132 89.2814 53.1074C89.3409 53.0828 89.4046 53.0701 89.4689 53.0701C89.6015 53.0701 89.7288 53.1228 89.8226 53.2166C89.9163 53.3103 89.9689 53.4375 89.9689 53.5701C89.9689 53.7027 89.9163 53.8299 89.8226 53.9237C89.7288 54.0175 89.6015 54.0701 89.4689 54.0701C89.4028 54.0701 89.3374 54.0569 89.2767 54.031C89.2159 54.0051 89.1609 53.9672 89.1152 53.9196C89.0694 53.8719 89.0337 53.8156 89.0103 53.7538C88.9869 53.692 88.9762 53.6261 88.9789 53.5601Z" fill="#CED3F8"/>
    <path d="M91.6789 53.5601C91.6776 53.4962 91.689 53.4327 91.7125 53.3733C91.736 53.3139 91.7712 53.2599 91.8159 53.2142C91.8606 53.1686 91.914 53.1323 91.9729 53.1075C92.0318 53.0828 92.095 53.0701 92.1589 53.0701C92.2915 53.0701 92.4187 53.1228 92.5124 53.2166C92.6062 53.3103 92.6589 53.4375 92.6589 53.5701C92.6589 53.7027 92.6062 53.8299 92.5124 53.9237C92.4187 54.0175 92.2915 54.0701 92.1589 54.0701C92.0933 54.0702 92.0283 54.0569 91.968 54.0309C91.9077 54.0049 91.8534 53.9669 91.8084 53.9191C91.7635 53.8713 91.7287 53.8148 91.7064 53.7531C91.6841 53.6913 91.6748 53.6256 91.6789 53.5601Z" fill="#CED3F8"/>
    <path d="M94.379 53.56C94.377 53.4627 94.404 53.367 94.4566 53.2851C94.5093 53.2032 94.5851 53.1389 94.6744 53.1003C94.7638 53.0616 94.8627 53.0505 94.9584 53.0683C95.0541 53.0861 95.1422 53.1319 95.2118 53.2C95.2813 53.2681 95.329 53.3554 95.3487 53.4507C95.3685 53.5461 95.3594 53.645 95.3226 53.7352C95.2858 53.8253 95.223 53.9024 95.1422 53.9567C95.0614 54.011 94.9663 54.0401 94.869 54.0401C94.7408 54.0401 94.6176 53.9898 94.526 53.9001C94.4344 53.8103 94.3816 53.6882 94.379 53.56Z" fill="#CED3F8"/>
    <path d="M97.059 53.5601C97.059 53.4957 97.0716 53.432 97.0962 53.3726C97.1209 53.3131 97.1569 53.2591 97.2024 53.2136C97.2479 53.1681 97.302 53.132 97.3615 53.1074C97.4209 53.0828 97.4846 53.0701 97.549 53.0701C97.6816 53.0701 97.8087 53.1228 97.9025 53.2166C97.9963 53.3103 98.049 53.4375 98.049 53.5701C98.049 53.7027 97.9963 53.8299 97.9025 53.9237C97.8087 54.0175 97.6816 54.0701 97.549 54.0701C97.4829 54.0701 97.4175 54.0569 97.3567 54.031C97.2959 54.0051 97.241 53.9672 97.1952 53.9196C97.1495 53.8719 97.1138 53.8156 97.0904 53.7538C97.067 53.692 97.0563 53.6261 97.059 53.5601Z" fill="#CED3F8"/>
    <path d="M99.759 53.5601C99.7577 53.4962 99.769 53.4327 99.7926 53.3733C99.8161 53.3139 99.8513 53.2599 99.896 53.2142C99.9407 53.1686 99.994 53.1323 100.053 53.1075C100.112 53.0828 100.175 53.0701 100.239 53.0701C100.372 53.0701 100.499 53.1228 100.592 53.2166C100.686 53.3103 100.739 53.4375 100.739 53.5701C100.739 53.7027 100.686 53.8299 100.592 53.9237C100.499 54.0175 100.372 54.0701 100.239 54.0701C100.173 54.0702 100.108 54.0569 100.048 54.0309C99.9878 54.0049 99.9335 53.9669 99.8885 53.9191C99.8435 53.8713 99.8089 53.8148 99.7866 53.7531C99.7643 53.6913 99.7549 53.6256 99.759 53.5601Z" fill="#CED3F8"/>
    <path d="M102.449 53.56C102.447 53.4627 102.474 53.367 102.527 53.2851C102.579 53.2032 102.655 53.1389 102.744 53.1003C102.834 53.0616 102.932 53.0505 103.028 53.0683C103.124 53.0861 103.212 53.1319 103.282 53.2C103.351 53.2681 103.399 53.3554 103.419 53.4507C103.438 53.5461 103.429 53.645 103.392 53.7352C103.356 53.8253 103.293 53.9024 103.212 53.9567C103.131 54.011 103.036 54.0401 102.939 54.0401C102.811 54.0401 102.688 53.9898 102.596 53.9001C102.504 53.8103 102.451 53.6882 102.449 53.56Z" fill="#CED3F8"/>
    <path d="M105.139 53.5601C105.139 53.4957 105.152 53.432 105.176 53.3726C105.201 53.3131 105.237 53.2591 105.283 53.2136C105.328 53.1681 105.382 53.132 105.442 53.1074C105.501 53.0828 105.565 53.0701 105.629 53.0701C105.762 53.0701 105.889 53.1228 105.983 53.2166C106.076 53.3103 106.129 53.4375 106.129 53.5701C106.129 53.7027 106.076 53.8299 105.983 53.9237C105.889 54.0175 105.762 54.0701 105.629 54.0701C105.563 54.0701 105.498 54.0569 105.437 54.031C105.376 54.0051 105.321 53.9672 105.275 53.9196C105.23 53.8719 105.194 53.8156 105.17 53.7538C105.147 53.692 105.136 53.6261 105.139 53.5601Z" fill="#CED3F8"/>
    <path d="M107.839 53.5601C107.837 53.4962 107.849 53.4327 107.873 53.3733C107.896 53.3139 107.931 53.2599 107.976 53.2142C108.021 53.1686 108.074 53.1323 108.133 53.1075C108.192 53.0828 108.255 53.0701 108.319 53.0701C108.451 53.0701 108.579 53.1228 108.672 53.2166C108.766 53.3103 108.819 53.4375 108.819 53.5701C108.819 53.7027 108.766 53.8299 108.672 53.9237C108.579 54.0175 108.451 54.0701 108.319 54.0701C108.253 54.0702 108.188 54.0569 108.128 54.0309C108.068 54.0049 108.013 53.9669 107.968 53.9191C107.923 53.8713 107.889 53.8148 107.866 53.7531C107.844 53.6913 107.835 53.6256 107.839 53.5601Z" fill="#CED3F8"/>
    <path d="M110.529 53.56C110.527 53.4627 110.554 53.367 110.607 53.2851C110.659 53.2032 110.735 53.1389 110.824 53.1003C110.914 53.0616 111.013 53.0505 111.108 53.0683C111.204 53.0861 111.292 53.1319 111.362 53.2C111.431 53.2681 111.479 53.3554 111.499 53.4507C111.518 53.5461 111.509 53.645 111.473 53.7352C111.436 53.8253 111.373 53.9024 111.292 53.9567C111.211 54.011 111.116 54.0401 111.019 54.0401C110.891 54.0401 110.767 53.9898 110.676 53.9001C110.584 53.8103 110.532 53.6882 110.529 53.56Z" fill="#CED3F8"/>
    <path d="M113.219 53.5601C113.219 53.4957 113.232 53.432 113.256 53.3726C113.281 53.3131 113.317 53.2591 113.362 53.2136C113.408 53.1681 113.462 53.132 113.521 53.1074C113.581 53.0828 113.645 53.0701 113.709 53.0701C113.842 53.0701 113.969 53.1228 114.063 53.2166C114.156 53.3103 114.209 53.4375 114.209 53.5701C114.209 53.7027 114.156 53.8299 114.063 53.9237C113.969 54.0175 113.842 54.0701 113.709 54.0701C113.643 54.0701 113.577 54.0569 113.517 54.031C113.456 54.0051 113.401 53.9672 113.355 53.9196C113.309 53.8719 113.274 53.8156 113.25 53.7538C113.227 53.692 113.216 53.6261 113.219 53.5601Z" fill="#CED3F8"/>
    <path d="M115.919 53.5601C115.918 53.4962 115.929 53.4327 115.952 53.3733C115.976 53.3139 116.011 53.2599 116.056 53.2142C116.101 53.1686 116.154 53.1323 116.213 53.1075C116.272 53.0828 116.335 53.0701 116.399 53.0701C116.532 53.0701 116.659 53.1228 116.752 53.2166C116.846 53.3103 116.899 53.4375 116.899 53.5701C116.899 53.7027 116.846 53.8299 116.752 53.9237C116.659 54.0175 116.532 54.0701 116.399 54.0701C116.333 54.0702 116.268 54.0569 116.208 54.0309C116.148 54.0049 116.093 53.9669 116.048 53.9191C116.003 53.8713 115.969 53.8148 115.946 53.7531C115.924 53.6913 115.915 53.6256 115.919 53.5601Z" fill="#CED3F8"/>
    <path d="M118.609 53.56C118.607 53.4627 118.634 53.367 118.687 53.2851C118.739 53.2032 118.815 53.1389 118.905 53.1003C118.994 53.0616 119.093 53.0505 119.188 53.0683C119.284 53.0861 119.372 53.1319 119.442 53.2C119.511 53.2681 119.559 53.3554 119.579 53.4507C119.598 53.5461 119.589 53.645 119.553 53.7352C119.516 53.8253 119.453 53.9024 119.372 53.9567C119.292 54.011 119.196 54.0401 119.099 54.0401C118.971 54.0401 118.848 53.9898 118.756 53.9001C118.664 53.8103 118.612 53.6882 118.609 53.56Z" fill="#CED3F8"/>
    <path d="M121.299 53.5601C121.299 53.4957 121.312 53.432 121.336 53.3726C121.361 53.3131 121.397 53.2591 121.442 53.2136C121.488 53.1681 121.542 53.132 121.601 53.1074C121.661 53.0828 121.725 53.0701 121.789 53.0701C121.922 53.0701 122.049 53.1228 122.142 53.2166C122.236 53.3103 122.289 53.4375 122.289 53.5701C122.289 53.7027 122.236 53.8299 122.142 53.9237C122.049 54.0175 121.922 54.0701 121.789 54.0701C121.723 54.0701 121.658 54.0569 121.597 54.031C121.536 54.0051 121.481 53.9672 121.435 53.9196C121.389 53.8719 121.354 53.8156 121.33 53.7538C121.307 53.692 121.296 53.6261 121.299 53.5601Z" fill="#CED3F8"/>
    <path d="M123.999 53.5601C123.998 53.4962 124.009 53.4327 124.033 53.3733C124.056 53.3139 124.091 53.2599 124.136 53.2142C124.181 53.1686 124.234 53.1323 124.293 53.1075C124.352 53.0828 124.415 53.0701 124.479 53.0701C124.612 53.0701 124.739 53.1228 124.833 53.2166C124.926 53.3103 124.979 53.4375 124.979 53.5701C124.979 53.7027 124.926 53.8299 124.833 53.9237C124.739 54.0175 124.612 54.0701 124.479 54.0701C124.413 54.0702 124.348 54.0569 124.288 54.0309C124.228 54.0049 124.173 53.9669 124.128 53.9191C124.084 53.8713 124.049 53.8148 124.027 53.7531C124.004 53.6913 123.995 53.6256 123.999 53.5601Z" fill="#CED3F8"/>
    <path d="M126.689 53.56C126.687 53.4627 126.714 53.367 126.767 53.2851C126.819 53.2032 126.895 53.1389 126.984 53.1003C127.074 53.0616 127.173 53.0505 127.268 53.0683C127.364 53.0861 127.452 53.1319 127.522 53.2C127.591 53.2681 127.639 53.3554 127.659 53.4507C127.678 53.5461 127.669 53.645 127.633 53.7352C127.596 53.8253 127.533 53.9024 127.452 53.9567C127.371 54.011 127.276 54.0401 127.179 54.0401C127.051 54.0401 126.928 53.9898 126.836 53.9001C126.744 53.8103 126.692 53.6882 126.689 53.56Z" fill="#CED3F8"/>
    <path d="M166.219 75.1599H148.569V98.4499H166.219V75.1599Z" fill="#E7A886"/>
    <g style="mix-blend-mode:multiply">
        <g style="mix-blend-mode:multiply">
            <path d="M166.209 59.54H143.619V60.67H166.209V59.54Z" fill="#E9EDF7"/>
        </g>
        <g style="mix-blend-mode:multiply">
            <path d="M138.679 59.54H87.8091V60.67H138.679V59.54Z" fill="#E9EDF7"/>
        </g>
        <g style="mix-blend-mode:multiply">
            <path d="M166.219 62.49H109.929V63.62H166.219V62.49Z" fill="#E9EDF7"/>
        </g>
        <g style="mix-blend-mode:multiply">
            <path d="M102.039 62.49H81.1689V63.62H102.039V62.49Z" fill="#E9EDF7"/>
        </g>
        <g style="mix-blend-mode:multiply">
            <path d="M166.219 65.4399H127.279V66.5699H166.219V65.4399Z" fill="#E9EDF7"/>
        </g>
        <g style="mix-blend-mode:multiply">
            <path d="M123.199 65.4399H81.1689V66.5699H123.199V65.4399Z" fill="#E9EDF7"/>
        </g>
        <g style="mix-blend-mode:multiply">
            <path d="M166.219 68.3901H81.1689V69.5201H166.219V68.3901Z" fill="#E9EDF7"/>
        </g>
        <g style="mix-blend-mode:multiply">
            <path d="M166.219 71.3401H81.1689V72.4701H166.219V71.3401Z" fill="#E9EDF7"/>
        </g>
        <g style="mix-blend-mode:multiply">
            <path d="M143.749 77.24H124.889V78.37H143.749V77.24Z" fill="#E9EDF7"/>
        </g>
        <g style="mix-blend-mode:multiply">
            <path d="M116.689 77.24H87.8091V78.37H116.689V77.24Z" fill="#E9EDF7"/>
        </g>
        <g style="mix-blend-mode:multiply">
            <path d="M143.759 80.1899H81.1689V81.3199H143.759V80.1899Z" fill="#E9EDF7"/>
        </g>
        <g style="mix-blend-mode:multiply">
            <path d="M143.759 83.1401H81.1689V84.2701H143.759V83.1401Z" fill="#E9EDF7"/>
        </g>
        <g style="mix-blend-mode:multiply">
            <path d="M143.759 86.0801H81.1689V87.2101H143.759V86.0801Z" fill="#E9EDF7"/>
        </g>
        <g style="mix-blend-mode:multiply">
            <path d="M143.759 89.03H133.869V90.16H143.759V89.03Z" fill="#E9EDF7"/>
        </g>
        <g style="mix-blend-mode:multiply">
            <path d="M130.749 89.03H81.1689V90.16H130.749V89.03Z" fill="#E9EDF7"/>
        </g>
        <g style="mix-blend-mode:multiply">
            <path d="M143.759 91.98H120.729V93.11H143.759V91.98Z" fill="#E9EDF7"/>
        </g>
        <g style="mix-blend-mode:multiply">
            <path d="M115.399 91.98H81.1689V93.11H115.399V91.98Z" fill="#E9EDF7"/>
        </g>
        <g style="mix-blend-mode:multiply">
            <path d="M138.419 94.9299H81.1689V96.0599H138.419V94.9299Z" fill="#E9EDF7"/>
        </g>
        <g style="mix-blend-mode:multiply">
            <path d="M143.759 97.8801H81.1689V99.0101H143.759V97.8801Z" fill="#E9EDF7"/>
        </g>
        <g style="mix-blend-mode:multiply">
            <path d="M143.749 100.83H125.019V101.96H143.749V100.83Z" fill="#E9EDF7"/>
        </g>
        <g style="mix-blend-mode:multiply">
            <path d="M120.469 100.83H81.1689V101.96H120.469V100.83Z" fill="#E9EDF7"/>
        </g>
        <g style="mix-blend-mode:multiply">
            <path d="M143.759 103.78H81.1689V104.91H143.759V103.78Z" fill="#E9EDF7"/>
        </g>
        <g style="mix-blend-mode:multiply">
            <path d="M143.759 106.73H81.1689V107.86H143.759V106.73Z" fill="#E9EDF7"/>
        </g>
    </g>
    <path d="M117.339 67.7592L117.34 66.019L115.33 66.0187L115.329 67.7588L117.339 67.7592Z" fill="#1F196F"/>
    <path d="M118.249 80.6603V67.7502H116.319V82.6002C116.832 82.5976 117.323 82.392 117.684 82.0284C118.046 81.6649 118.249 81.1731 118.249 80.6603Z" fill="#362E93"/>
    <path d="M114.379 67.7502V80.6603C114.378 80.9146 114.427 81.1665 114.523 81.4019C114.619 81.6372 114.761 81.8511 114.941 82.0314C115.12 82.2116 115.333 82.3548 115.568 82.4524C115.803 82.55 116.055 82.6002 116.309 82.6002V67.7502H114.379Z" fill="#1F196F"/>
    <path d="M124.679 46.1102C123.585 45.0048 122.283 44.1273 120.848 43.5284C119.413 42.9295 117.874 42.6211 116.319 42.6211C114.764 42.6211 113.224 42.9295 111.789 43.5284C110.354 44.1273 109.052 45.0048 107.959 46.1102C105.751 48.3547 104.514 51.377 104.514 54.5253C104.514 57.6736 105.751 60.6957 107.959 62.9402C109.052 64.0456 110.354 64.9232 111.789 65.5221C113.224 66.121 114.764 66.4293 116.319 66.4293C117.874 66.4293 119.413 66.121 120.848 65.5221C122.283 64.9232 123.585 64.0456 124.679 62.9402C126.887 60.6957 128.124 57.6736 128.124 54.5253C128.124 51.377 126.887 48.3547 124.679 46.1102ZM116.379 65.3602C114.232 65.3879 112.125 64.7773 110.325 63.6058C108.526 62.4343 107.114 60.7548 106.271 58.7802C105.427 56.8055 105.189 54.6247 105.586 52.5145C105.984 50.4043 106.999 48.4597 108.503 46.9274C110.008 45.395 111.933 44.344 114.036 43.9075C116.138 43.471 118.323 43.6687 120.313 44.4757C122.303 45.2827 124.008 46.6625 125.213 48.4401C126.417 50.2177 127.067 52.3129 127.079 54.4602C127.092 57.316 125.974 60.0608 123.969 62.0941C121.964 64.1275 119.235 65.2838 116.379 65.3102V65.3602Z" fill="#362E93"/>
    <g style="mix-blend-mode:multiply">
        <path d="M123.109 46.1104C124.415 47.6869 125.248 49.6006 125.512 51.6305C125.776 53.6604 125.461 55.7237 124.603 57.582C123.744 59.4403 122.377 61.0178 120.66 62.1323C118.943 63.2468 116.946 63.8528 114.899 63.8804C112.398 63.8993 109.97 63.0392 108.039 61.4503C109.461 63.1522 111.374 64.3728 113.516 64.9449C115.658 65.5171 117.925 65.4127 120.006 64.6461C122.087 63.8795 123.879 62.4883 125.139 60.663C126.398 58.8377 127.061 56.6677 127.039 54.4503C127.036 52.857 126.682 51.284 126.003 49.8427C125.324 48.4013 124.336 47.1271 123.109 46.1104Z" fill="#E9EDF7"/>
    </g>
    <path d="M113.249 189.18C112.869 186.91 106.719 164.38 107.599 155.3H115.159C115.789 170.71 115.639 177.06 115.909 189.12C115.879 189.94 113.619 190.42 113.249 189.18Z" fill="#D2996C"/>
    <path d="M114.779 193.54C114.535 193.561 114.305 193.661 114.124 193.826C113.944 193.99 113.822 194.21 113.779 194.45H113.049C112.612 193.603 112.491 192.628 112.709 191.7C112.949 190.7 113.199 190.96 113.449 191.21C114.029 191.68 116.389 191.84 116.569 191.04C117.179 191.14 123.439 192.94 123.439 193.51C123.439 194.45 122.699 194.45 122.199 194.45C116.379 194.45 117.119 194.11 114.779 193.54Z" fill="#034A89"/>
    <path d="M115.979 190.05C115.779 189.16 113.199 188.49 113.329 190.05C113.367 190.389 113.322 190.732 113.199 191.05C113.719 191.8 119.199 193.19 120.049 192.05C119.429 191.69 115.979 191 115.979 190.05Z" fill="#D2996C"/>
    <path d="M94.8089 189.83C94.6889 187.49 92.8089 164.4 94.6789 155.3L102.139 155.91C100.489 171.57 99.1388 178.17 97.4588 190.05C97.3788 190.9 95.0389 191.11 94.8089 189.83Z" fill="#D2996C"/>
    <path d="M96.2589 193.54C96.0153 193.561 95.7852 193.661 95.6044 193.826C95.4236 193.99 95.3021 194.21 95.2589 194.45H94.5289C94.0916 193.603 93.9711 192.628 94.189 191.7C94.429 190.7 94.679 190.96 94.929 191.21C95.509 191.68 97.869 191.84 98.049 191.04C98.659 191.14 104.909 192.94 104.909 193.51C104.909 194.45 104.179 194.45 103.679 194.45C97.809 194.45 98.5889 194.11 96.2589 193.54Z" fill="#034A89"/>
    <path d="M97.4589 190.05C97.2589 189.16 94.679 188.49 94.809 190.05C94.8471 190.389 94.8025 190.732 94.679 191.05C95.199 191.8 100.679 193.19 101.529 192.05C100.909 191.69 97.4589 191 97.4589 190.05Z" fill="#D2996C"/>
    <path d="M92.8689 93.5801C91.7989 96.9501 87.5689 116.05 88.1189 117.19C90.0489 121.13 97.4589 130.26 97.4589 130.26C97.4589 130.26 98.5989 135.21 100.709 135.83C102.819 136.45 103.239 135.83 103.449 135.49C103.949 134.78 100.929 131.49 101.619 130.84C102.209 130.52 102.749 130.25 102.979 130.13C101.499 129.8 101.589 128.9 100.529 128.41C98.739 127.57 93.4289 118.74 92.8289 116.84C93.5989 112.49 96.7589 104.16 98.1089 100.84C99.4589 97.5201 92.8689 93.5801 92.8689 93.5801Z" fill="#D2996C"/>
    <path d="M111.059 88.3701C114.869 87.0601 122.329 84.98 122.619 84.09C122.909 83.2 117.059 77.69 115.509 76.59C114.309 75.75 117.299 73.31 118.149 74.05C120.729 76.31 128.729 82.3301 128.379 84.1201C127.479 88.8401 114.989 93.9501 112.939 95.3601C111.069 96.6501 111.039 96.0401 109.939 93.9001C108.839 91.7601 109.269 88.9901 111.059 88.3701Z" fill="#D2996C"/>
    <path d="M110.889 117.99C110.889 114.3 115.199 89.6202 111.059 88.3702C106.919 87.1202 96.2789 86.8302 93.7189 91.3702C91.1589 95.9102 93.7189 100.26 94.3389 104.3C94.9589 108.34 96.9989 114.09 96.6989 118.3C98.3789 118.25 110.889 117.99 110.889 117.99Z" fill="#3FB9C0"/>
    <path d="M110.889 117.99C112.989 121.63 125.129 134.41 124.889 158.73C110.889 163.81 97.5489 163.8 85.8889 155.81C85.5489 147.81 87.6688 128.92 96.7488 118.27L110.889 117.99Z" fill="#3FB9C0"/>
    <path d="M115.209 161.4C118.493 160.774 121.72 159.881 124.859 158.73C125.129 134.41 112.989 121.63 110.859 117.99C110.859 115.5 112.859 103.39 112.859 95.4302C111.179 109.43 107.559 113.89 107.619 118.13C107.709 123.94 117.499 134.55 117.619 149.99C117.579 155.3 116.079 160.32 115.209 161.4Z" fill="#1FA3AA"/>
    <path d="M102.059 71.6801C98.1792 71.6801 93.3791 76.1402 94.9891 84.6202C96.5991 93.1002 93.5792 101.03 88.1592 101.24C91.6692 107.09 95.5191 110.73 101.499 108.41C105.089 107.02 108.429 102.41 109.299 95.3302C109.973 90.2489 110.12 85.1117 109.739 80.0002C109.379 73.3402 105.379 71.6401 102.059 71.6801Z" fill="#2C1608"/>
    <path d="M115.509 76.5902C114.892 76.3031 114.385 75.8254 114.061 75.2275C113.736 74.6297 113.613 73.9435 113.709 73.2703C113.829 71.6603 113.379 70.6302 114.269 70.8502C115.466 70.9217 116.655 70.6061 117.659 69.9502C118.879 69.9502 118.659 73.0502 118.149 74.0502C117.393 75.0172 116.504 75.8724 115.509 76.5902Z" fill="#D2996C"/>
</svg>
