<svg width="2560" height="75" viewBox="0 0 2560 75" fill="none" xmlns="http://www.w3.org/2000/svg">
    <path d="M1440 35.7967C1174.5 -5.89231 896 -9.39232 779.5 16.1077C663 41.6077 638.5 25.7967 500 25.7967C361.5 25.7967 323.5 -7.89231 242 2.60772C160.5 13.1077 76.3333 15.9004 0 35.7967V68.1077H1440H2564.5C2535.5 50.7744 2433.3 16.1077 2256.5 16.1077C2035.5 16.1077 1965 35.7967 1812 35.7967C1659 35.7967 1591.53 55.4856 1440 35.7967Z" fill="white"/>
    <path d="M1440 46.6078C1251 25.1077 1013.5 27.1077 923 27.1077C832.5 27.1077 686.5 46.6078 548 46.6078C409.5 46.6078 289.3 34.1077 230.5 34.1077C171.7 34.1077 76.3333 33.4411 0 46.6078V74.6078H1440H2564.5V12.1077C2510.33 23.6077 2362.7 46.6078 2205.5 46.6078C2009 46.6078 2014.5 30.1077 1896.5 12.1077C1778.5 -5.89235 1678 46.6078 1440 46.6078Z" fill="#E5F1F3"/>
</svg>
