<svg width="182" height="361" viewBox="0 0 182 361" fill="none" xmlns="http://www.w3.org/2000/svg">
    <path d="M170.189 43.2368C171.664 41.306 222.231 62.5358 243.066 76.1732C250.514 75.8373 266.48 74.6619 270.758 72.6467C276.105 70.1276 299.937 85.4431 306.33 89.0231C312.722 92.6031 304.865 97.2609 303.966 96.7575L279.894 83.2766C266.41 75.7251 245.848 91.121 245.559 97.2602C251.202 102.959 262.544 115.804 262.763 121.598C262.983 127.392 261.462 133.997 260.674 136.575C259.356 135.18 257.125 130.964 258.747 125.256C260.774 118.121 247.335 107.444 243.811 103.895C240.287 100.347 239.244 102.913 237.901 105.311C236.558 107.71 247.49 110.681 251.277 115.165C255.064 119.649 253.137 138.786 251.123 142.384C249.108 145.981 250.235 126.397 248.255 120.562C246.274 114.726 236.558 107.71 233.884 108.969C231.211 110.229 241.122 118.536 246.24 124.159C251.357 129.782 249.134 138.907 245.644 144.435C244.089 146.899 243.543 145.001 243.132 141.527C242.061 146.165 239.307 150.647 237.91 151.919C235.5 154.114 237.621 139.549 234.542 133.098C231.463 126.648 218.777 119.544 216.763 123.141C214.748 126.739 227.314 129.838 231.352 138.795C235.39 147.751 232.494 158.075 231.319 160.174C230.144 162.272 227.286 146.757 224.638 140.942C221.991 135.127 212.123 123.694 209.437 128.491C206.751 133.288 223.799 142.441 225.719 149.555C227.256 155.246 227.071 164.402 226.786 168.268C225.454 167.523 222.503 164.295 221.354 157.35C219.918 148.669 212.144 136.308 207.218 133.156C202.292 130.003 202.315 132.773 200.449 135.403C198.582 138.033 210.82 145.937 214.116 147.783C217.412 149.629 218.801 174.561 216.858 176.624C214.916 178.686 213.502 160.829 211.812 157.52C210.123 154.211 195.737 137.49 194.562 139.589C193.387 141.687 203.022 152.597 205.111 156.13C207.2 159.663 204.473 188.197 201.5 189.289C198.526 190.38 200.522 164.324 198.657 160.392L198.627 160.329C196.726 156.321 190.535 143.266 188.531 146.844C186.516 150.442 198.83 170.86 197.774 176.963C196.718 183.067 191.419 203.072 189.213 204.199C187.007 205.327 189.199 177.28 188.902 167.268C188.604 157.256 184.467 144.963 181.277 150.659C178.087 156.355 183.408 182.701 182.763 188.773C182.118 194.844 174.038 215.13 171.197 216.689C168.355 218.248 177.595 175.508 177.381 170.268C177.166 165.028 176.497 156.383 174.818 159.381C173.139 162.379 172.681 190.609 169.478 199.843C166.276 209.076 156.377 230.969 153.14 231.125C149.904 231.282 161.77 200.252 165.249 188.416C168.728 176.581 168.774 170.174 166.927 173.472C165.08 176.769 157.133 190.96 155.478 196.728C153.822 202.495 142.686 234.329 140.121 233.286C137.556 232.243 141.095 222.41 144.149 214.144C147.204 205.878 162.632 171.066 160.534 169.892C158.437 168.717 141.283 204.269 137.757 210.564C134.231 216.86 121.056 237.574 118.731 234.697C116.406 231.82 154.927 173.578 153.597 172.439C152.267 171.3 129.007 203.695 123.48 210.051C117.952 216.407 106.469 230.587 106.554 225.515C106.639 220.443 149.379 167.32 150.946 164.522C152.513 161.724 136.598 177.49 130.507 182.743C124.416 187.996 98.221 214.153 96.3275 211.911C94.434 209.669 104.202 199.256 111.541 190.369C118.879 181.483 155.324 153.19 157.338 149.592C159.353 145.995 121.755 167.209 109.122 176.412C96.4893 185.616 86.8578 192.036 87.9211 190.138C88.9844 188.239 97.9097 177.222 107.334 169.766C116.757 162.31 154.654 144.545 155.83 142.446C157.005 140.347 135.362 147.13 124.177 149.531C112.992 151.931 78.0837 170.451 76.0585 167.742C74.0334 165.032 109.049 147.491 115.986 144.944C122.924 142.396 161.594 132.153 162.769 130.054C163.944 127.956 133.075 133.641 121.863 134.451C110.65 135.26 77.122 147.333 77.6256 146.434C78.1293 145.534 95.1786 132.897 113.173 129.584C131.167 126.271 165.288 125.557 165.373 120.485C165.458 115.413 144.486 120.997 136.778 121.406C129.07 121.815 83.5134 120.457 84.5208 118.658C85.5281 116.859 114.587 113.704 122.295 113.295C130.003 112.886 171.687 114.833 172.899 111.967C174.11 109.101 157.639 109.46 143.997 108.515C130.356 107.57 92.4806 100.931 94.3274 97.6328C96.1743 94.3351 181.291 106.821 182.802 104.123C184.313 101.425 157.974 96.9132 147.809 93.9775C137.644 91.0418 99.8679 87.7395 101.547 84.7415C103.226 81.7436 138.804 83.8151 149.005 85.9835C159.206 88.1519 189.097 97.8026 189.897 94.9687C190.697 92.1347 166.319 86.228 160.722 84.2746C155.124 82.3212 113.138 68.2602 113.846 66.2936C114.554 64.327 141.552 71.1765 158.933 77.6281C176.313 84.0797 201.022 90.5659 199.824 89.8947C198.625 89.2234 123.974 58.0501 124.981 56.2513C125.988 54.4525 142.078 61.1002 153.178 63.772C164.278 66.4438 212.93 91.3271 212.175 87.754C211.421 84.1809 182.633 73.9664 173.476 69.2319C164.318 64.4973 131.828 44.727 134.765 44.4027C137.702 44.0784 216.827 83.6643 218.19 81.9334C219.553 80.2025 196.456 67.7926 190.363 64.3804C184.27 60.9682 147.344 43.9646 150.11 41.8377C152.876 39.7108 223.982 76.5125 224.426 73.6107C224.87 70.7089 168.714 45.1676 170.189 43.2368Z" fill="#A7DBB9"/>
    <path d="M170.543 124.994C172.577 123.664 213.2 160.507 228.312 180.3C235.447 182.461 250.895 186.664 255.6 186.187C261.48 185.59 278.859 207.962 283.697 213.464C288.534 218.967 279.575 220.746 278.895 219.972L260.679 199.251C250.475 187.643 225.962 195.321 223.647 201.015C227.073 208.266 233.496 224.153 231.775 229.69C230.054 235.227 226.423 240.949 224.822 243.118C224.043 241.365 223.342 236.646 226.77 231.803C231.056 225.749 221.934 211.209 219.791 206.691C217.649 202.172 215.811 204.245 213.747 206.06C211.682 207.875 221.003 214.314 223.083 219.802C225.162 225.29 216.979 242.697 213.882 245.419C210.785 248.142 218.364 230.047 218.437 223.886C218.511 217.724 211.682 207.875 208.742 208.173C205.802 208.471 212.385 219.603 215.341 226.608C218.296 233.613 213.163 241.479 208.033 245.531C205.747 247.337 205.864 245.366 206.632 241.953C204.078 245.97 199.991 249.281 198.25 250.016C195.247 251.284 202.093 238.254 201.335 231.146C200.577 224.039 190.978 213.119 187.881 215.842C184.784 218.564 195.604 225.667 196.432 235.457C197.26 245.246 191.095 254.019 189.288 255.607C187.482 257.195 189.949 241.613 189.386 235.249C188.824 228.884 183.322 214.819 179.193 218.449C175.064 222.079 188.096 236.383 187.54 243.731C187.096 249.609 183.875 258.181 182.32 261.733C181.313 260.586 179.604 256.561 180.83 249.629C182.364 240.965 179.146 226.722 175.549 222.11C171.952 217.498 171.053 220.118 168.417 221.978C165.782 223.837 174.693 235.362 177.187 238.199C179.681 241.036 172.697 265.01 170.179 266.309C167.661 267.609 172.268 250.297 171.775 246.615C171.283 242.932 163.28 222.378 161.473 223.967C159.667 225.555 165.124 239.048 165.919 243.075C166.713 247.102 154.648 273.103 151.481 273.143C148.314 273.184 158.865 249.276 158.414 244.947L158.407 244.878C157.948 240.465 156.452 226.094 153.372 228.802C150.275 231.525 155.095 254.876 152.069 260.28C149.042 265.685 137.389 282.788 134.934 283.117C132.478 283.447 143.876 257.727 146.927 248.186C149.977 238.645 150.166 225.676 145.262 229.986C140.359 234.297 136.611 260.912 133.984 266.423C131.356 271.935 116.987 288.377 113.789 288.902C110.591 289.427 133.523 252.195 135.064 247.182C136.605 242.17 138.85 233.794 136.269 236.063C133.688 238.332 123.865 264.801 117.773 272.443C111.681 280.085 95.0624 297.438 91.9581 296.508C88.8538 295.579 110.368 270.265 117.586 260.261C124.804 250.257 126.979 244.23 124.14 246.726C121.301 249.221 109.086 259.959 105.606 264.848C102.126 269.736 81.034 296.052 78.9619 294.215C76.8898 292.378 83.498 284.283 89.1287 277.504C94.7594 270.725 120.89 243.028 119.303 241.223C117.715 239.417 89.7107 267.237 84.2913 272.001C78.8719 276.765 59.556 291.916 58.3207 288.429C57.0853 284.942 112.789 242.834 111.913 241.317C111.037 239.8 78.3255 262.612 70.9981 266.767C63.6707 270.923 48.1243 280.474 49.8919 275.719C51.6596 270.964 109.638 235.086 112.046 232.969C114.455 230.851 94.2012 240.425 86.7097 243.353C79.2181 246.28 45.8136 262.232 44.7738 259.488C43.734 256.744 56.4102 250.173 66.287 244.234C76.1638 238.295 119.945 223.739 123.042 221.016C126.139 218.294 83.6247 225.792 68.6496 230.268C53.6744 234.744 42.4554 237.595 44.0899 236.158C45.7243 234.721 57.8064 227.301 69.1739 223.405C80.5415 219.509 122.19 215.363 123.996 213.775C125.803 212.187 103.136 211.383 91.7897 209.926C80.4433 208.468 41.3623 214.32 40.3539 211.091C39.3455 207.863 78.2021 202.97 85.5918 202.875C92.9814 202.781 132.857 205.986 134.663 204.398C136.47 202.81 105.467 197.902 94.6241 194.935C83.7809 191.968 48.1463 192.199 48.9205 191.519C49.6947 190.838 69.977 184.593 88.0483 187.455C106.119 190.317 138.534 200.995 140.302 196.24C142.069 191.486 120.435 189.774 113.03 187.596C105.625 185.417 63.1149 168.98 64.6633 167.619C66.2118 166.258 94.6648 172.95 102.07 175.129C109.475 177.307 148.137 193.01 150.233 190.711C152.329 188.411 136.677 183.27 124.127 177.841C111.576 172.411 78.0675 153.549 80.9062 151.054C83.745 148.558 159.86 188.65 162.182 186.608C164.505 184.567 141.166 171.549 132.557 165.399C123.948 159.249 89.4225 143.567 92.0031 141.299C94.5838 139.03 127.447 152.82 136.345 158.259C145.244 163.697 170.221 182.742 171.918 180.336C173.615 177.93 152.592 164.249 147.963 160.545C143.333 156.84 108.418 129.612 109.739 127.993C111.061 126.374 134.243 141.816 148.487 153.682C162.731 165.548 183.875 179.885 182.968 178.853C182.061 177.822 122.032 123.589 123.581 122.227C125.129 120.866 138.091 132.488 147.669 138.701C157.248 144.913 194.851 184.564 195.328 180.944C195.805 177.323 172.055 158.114 164.995 150.602C157.934 143.091 133.872 113.638 136.75 114.309C139.627 114.98 201.076 178.635 202.937 177.456C204.798 176.277 187.145 156.89 182.534 151.645C177.924 146.4 148.758 118.081 152.074 116.995C155.389 115.909 210.202 174.271 211.586 171.682C212.97 169.093 168.51 126.324 170.543 124.994Z" fill="#65BD83"/>
</svg>
