<svg width="100" height="86" fill="none" xmlns="http://www.w3.org/2000/svg"><path d="M25.15 66.57a7.25 7.25 0 1 0 0-14.5 7.25 7.25 0 0 0 0 14.5Z" fill="#3FB9C0"/><path d="M25.15 52.25a7.08 7.08 0 1 1 0 14.16 7.08 7.08 0 0 1 0-14.16Zm0-.36a7.44 7.44 0 1 0-.02 14.88 7.44 7.44 0 0 0 .02-14.88Z" fill="#fff"/><path opacity=".1" d="m27.62 55.3 8.23 8.23-8.3 5.05-3.1-3.1.26-3.57 2.78-5.47.13-1.14Z" fill="#000"/><path d="M29.2 64.33c-.14-.53-2.21-1-2.78-1.16a1.46 1.46 0 0 0-.43-.09h-1.9c-.11.04-.22.08-.34.1-.51.13-2.67.67-2.82 1.21-.11.63-.17 1.28-.16 1.92 0 .86 8.54.85 8.54 0 .03-.66 0-1.33-.11-1.98Z" fill="#FFE058"/><path d="M25.2 64.18a1.78 1.78 0 0 0 1.57-.89l-.35-.12a3.12 3.12 0 0 0-.43-.12h-1.85c-.1.05-.22.09-.34.11l-.31.09a2 2 0 0 0 1.71.93Z" fill="#F4BE47"/><path d="M29.2 64.33c-.12-.45-1.62-.88-2.43-1.09-.14 0 1.8.67 1.94 1.21.12.64.18 1.29.17 1.94 0 .12-.17.22-.45.31.57-.11.93-.25.93-.42.01-.65-.04-1.3-.16-1.95Z" fill="#F4BE47"/><path d="M25.99 62.09s-.27.85.19 1a1.36 1.36 0 0 1-1 .52 1.61 1.61 0 0 1-1.09-.55s.47-.28.21-1l1.69.03Z" fill="#A06635"/><path d="M25.99 62.09h-.52s-.25 1.13.13 1.47c.23-.1.43-.25.58-.44-.46-.18-.19-1.03-.19-1.03Z" fill="#93582C"/><path d="M28.07 59.11a.64.64 0 0 0-.23.05v-1.57a2.65 2.65 0 0 0-2.69-2.64 2.71 2.71 0 0 0-2.75 2.64v1.53h-.1a.57.57 0 0 0-.52.8.58.58 0 0 0 .54.35h.12a2.71 2.71 0 0 0 4.6 1.85c.5-.5.78-1.17.79-1.88.08.02.15.02.23 0a.57.57 0 0 0 .53-.78.56.56 0 0 0-.52-.35Z" fill="#AF743F"/><path d="M28.07 59.11a.64.64 0 0 0-.23.05v-1.57a2.65 2.65 0 0 0-2.69-2.64 2.78 2.78 0 0 0-.51 0c0 .3-1.28 2-1.1 2.13a4.28 4.28 0 0 0 3.6.8c.18.71.29 1.44.32 2.17a3.11 3.11 0 0 1-.85 2.34 2.7 2.7 0 0 0 1.23-2.24c.08.02.15.02.23 0a.58.58 0 0 0 .57-.57.56.56 0 0 0-.57-.47Z" fill="#A06635"/><path d="M25.22 54.51c-2.32 0-3.31 1.37-3.17 2.67.14 1.3.36 3 .41 3.33 0 0 .21-1.32.22-1.63 0-.47 0-1.32.14-1.47.14-.15 2 .29 2.42.29.42 0 1.61-.39 2-.38.39.01.43.79.44 1.1l.13 2.13c.1-.81.28-1.45.33-2 .7-2.31-.32-4.04-2.92-4.04Z" fill="#42210B"/><path d="M25.22 54.51c-1.9 0-2.91.92-3.14 2 1.92-2.8 5.9-1.19 6.2 0-.28-1.18-1.32-2-3.06-2Z" fill="#5B2C0D"/><path d="M28.08 59.33h-.14a.14.14 0 0 1-.16-.12 1.5 1.5 0 0 0-.11-.22 1.07 1.07 0 0 0-.86-.5h-.13a1.18 1.18 0 0 0-.26 0c-.22.08-.42.23-.55.43a.83.83 0 0 1-.11.15h-.05a.34.34 0 0 1-.12.06.65.65 0 0 0-.31-.05.6.6 0 0 0-.23.05h-.06a.39.39 0 0 1-.16-.1l-.12-.16a1 1 0 0 0-.54-.42.7.7 0 0 0-.25 0h-.34l-.18.07a1 1 0 0 0-.51.6.2.2 0 0 1-.18.13h-.32v.18h.17a.17.17 0 0 1 .13.13 1 1 0 0 0 .26.49l.22.17a1 1 0 0 0 .84.12c.2-.06.4-.18.53-.35l.13-.19.26-.4a.19.19 0 0 1 .12-.07h.34a.18.18 0 0 1 .13.08l.12.18.17.25a1.06 1.06 0 0 0 1.48.37l.23-.19a.36.36 0 0 0 .07-.1v-.07l.07-.2a.18.18 0 0 1 .12-.12h.19l.11-.2Zm-3.64.77a.89.89 0 0 1-.59.32.9.9 0 0 1-.83-.3.93.93 0 0 1-.2-.38.91.91 0 0 1 0-.49.87.87 0 0 1 .26-.44.84.84 0 0 1 .28-.18H23.95l.24.11c.18.12.3.3.38.49v.14a1 1 0 0 1-.13.75v-.02Zm1.24-.82a.55.55 0 0 0 0 .18v.1-.07a.31.31 0 0 0-.15-.1.94.94 0 0 0-.5 0 .2.2 0 0 0-.13.09c0 .03-.03.05-.05.07v-.17a.5.5 0 0 0 0-.12.5.5 0 0 0 .13 0h.25c.1-.03.22-.03.32 0a.14.14 0 0 0 .11 0h.09l-.07.07v-.05Zm1.96.3c0 .11-.03.22-.08.32v.07l-.12.16a1 1 0 0 1-.73.28 1 1 0 0 1-.85-.67V59.3a.94.94 0 0 1 1.54-.45.9.9 0 0 1 .29.55v.11a.5.5 0 0 1-.05.09v-.02Z" fill="#2C2C2A"/><path d="M75.9 39.9a7.25 7.25 0 1 0 0-14.5 7.25 7.25 0 0 0 0 14.5Z" fill="#3FB9C0"/><path d="M75.9 25.22a7.44 7.44 0 1 0 .01 14.88 7.44 7.44 0 0 0-.01-14.88Zm0 14.51a7.08 7.08 0 1 1-.02-14.16 7.08 7.08 0 0 1 .02 14.16Z" fill="#FCFCFC"/><path d="M26.25 19.98a1.28 1.28 0 1 0 0-2.56 1.28 1.28 0 0 0 0 2.56ZM89.19 25.76a1.93 1.93 0 1 0 0-3.86 1.93 1.93 0 0 0 0 3.86Z" fill="#3FB9C0"/><path opacity=".1" d="m78.73 28.7 8.23 8.23-8.3 5.05-3.1-3.1.26-3.56 2.78-5.48.13-1.14Z" fill="#000"/><path d="M76.6 35.67a2.09 2.09 0 0 0 2.42 1.24c.16.53.2 1.09.11 1.63-.18.35-.4.69-.63 1-.2.28-.4.55-.64.8-.35.31-.69.65-1 1-.21.26-.35.55-.53.82a.76.76 0 0 1-.28.31c-.14.06-.31-.06-.43-.12-.35-.23-.66-.5-.94-.81-.29-.29-2.94-3.86-2.8-4.08a.57.57 0 0 1 .5-.29c.19 0 2.62-.26 2.71-1.51l1.72-.21" fill="#F2B879"/><path d="m74.68 33.72.15.41a3.4 3.4 0 0 0 1.83 1.1c.24 0-.19.63-.09.85.28.67 1.16.82 1.73 1 .27.06.52.17.75.32l.17.14c.02-.1.02-.2 0-.3a.55.55 0 0 0-.18-.29c-.08-.05-2.16-.22-2.16-1.08 0-.32.13-.53.15-.85v-.49a.89.89 0 0 0-.09-.45.84.84 0 0 0-.28-.25c-.23-.16-.45-.33-.69-.48a1.74 1.74 0 0 0-1.21-.32c-.09 0-.06 0-.11.09l-.13.09c.04.06.07.12.09.19 0 .12.06.24.1.36M75.63 41.27c.02.34 0 .67-.08 1l.12.08c.11.06.27.17.41.13a3.34 3.34 0 0 0-.54-1.94c.05.25.08.5.09.75" fill="#DDA166"/><path d="m74.25 36.69-.46.17-.72 2.13 2.86 2.92 3.09-3.1-.31-.54-.56-1.54c-.04-.12-.34-.11-.34-.11s.7 2.09.68 2.23c-.02.14-2.24 2.6-2.24 2.6l-.34.21-2.34-2.4s.38-1.64.44-1.75" fill="#3B3B38"/><path d="M72.28 37.19s2.07 2.54 3.73 2.54c1.66 0 3-2.82 3-2.82s1 .31 1.2 1c.17.54.44 1.03.8 1.47l.6 1 .66.84a5 5 0 0 1 .49.65 8.1 8.1 0 0 1-.15 1l-1.16 1.85s-.14.8-.54.83c-.38.02-.75.02-1.13 0 0 0-.59-.12-.63-.42l-.14-.95v-.8l-.22.91s-.2.71-.26 1c-.06.29-.59.53-1.26.52-.4.05-.79.05-1.18 0a6.52 6.52 0 0 0-1-.18l-1.4-.07s-.53 0-.61-.32a4 4 0 0 1-.11-.69v-.58c0-.18-.2-.8-.2-.8-.08.22-.14.45-.17.68-.05.33 0 .83-.23.93-.23.07-.48.1-.72.09l-.58-.22-.89-.39-1.88-.7s-.25 0-.23-.39c.02-.39 0-.55.15-.69.14-.16.27-.33.39-.51l.83-.74c.37-.34.69-.73.94-1.17.3-.5.63-.98 1-1.42 0-.1 0-1.41.88-1.41" fill="#FF4C54"/><path d="M73.24 43.73v.23a.62.62 0 0 0 .25.43c.09.08.17.25.31.15.14-.1.18-.28.29-.27.07.28.52-.17.63-.24.14-.1.3-.19.46-.26 0 0 .12-.07.16-.06.04.01 0 .17.07.22.07.05.24-.08.38-.1.2-.02.4-.02.61 0 .17.03.33.08.49.14 0 0 .21.1.25.07a5.6 5.6 0 0 0-.75-.71c-.09-.08-.25-.29-.38-.31-.13-.02 0 .11-.09.13h-.31c-.13 0-.25.09-.38.12l-.61.16c-.25.1-.5.23-.73.38-.06-.08 0-.23 0-.33-.15.07-.23.24-.39.28-.16.04-.15-.27-.26-.39 0 .27.12.48.08.29" fill="#fff"/><path d="M82.77 41.91c-.05-.1-.11-.19-.18-.27a1.65 1.65 0 0 0-.73 0 2 2 0 0 0-1 .72c-.23.33-.38.72-.43 1.12 0 .32-.1.63-.27.9a.32.32 0 0 1-.44 0c-.54-.54-.19-1.43 0-2 .2-.54.3-1.1.3-1.68a4.72 4.72 0 0 0-.43-.85c.14.35.2.73.15 1.11 0 .07-.03.14-.06.21-.07.31-.24.59-.49.79-.45.32-1 .45-1.54.36-.48 0-.95-.25-1.43-.28h-.24c-.51.23-1.04.41-1.59.55-.92.09-2-.38-2-1.44 0-.33.11-.66.31-.93 0-.11.05-.21.08-.32l.07-.28-.41.33c-.18.24-.31.5-.41.78-.27.85.33 1.83-.1 2.64a.69.69 0 0 1-.92.31c-.35-.16-.55-.51-.82-.77-.26-.33-.6-.57-1-.72-.49-.09-.74.32-1 .61v.25c0 .37.23.39.23.39l1.88.7.89.39.58.22c.24.01.49-.02.72-.09.27-.1.18-.6.23-.93.03-.23.09-.46.17-.68 0 0 .18.63.2.8.02.17 0 .58 0 .58a4 4 0 0 0 .11.69c.08.34.57.31.61.32l1.4.07c.34.03.67.1 1 .18.4.05.79.05 1.18 0 .67 0 1.2-.26 1.26-.52.06-.26.25-.92.26-1l.22-.91v.8l.14.95c.04.31.63.42.63.42.38.02.75.02 1.13 0 .4 0 .54-.83.54-.83l1.16-1.85c.07-.33.12-.66.15-1" fill="#056E86"/><path d="M73.11 43.15h.16a1.29 1.29 0 0 0 1.1 0c.15-.07.3-.16.43-.26l.09-.12a2 2 0 0 1-1.53.15 1.4 1.4 0 0 1-.88-.8.25.25 0 0 1-.12-.13 1.92 1.92 0 0 1 0-1c-.07.15-.12.31-.17.47v.52c.15.32.35.62.52.93l.09.16v.07a.36.36 0 0 1 .3-.09l.01.1Zm-2.89.12a3.87 3.87 0 0 0-1.45-.83h-.09a2.4 2.4 0 0 0-.08.25c.02.13.06.26.1.39a.34.34 0 0 1-.21.4l1.68.62.75.33a7.17 7.17 0 0 1-.66-1 .33.33 0 0 1 0-.14l-.04-.02Zm8.27-.51c-.55.06-1.1-.05-1.59-.31l.13.11.14.12c.4.18.8.35 1.22.48a.3.3 0 0 1 .16.15.83.83 0 0 1 .2.84 1.3 1.3 0 0 1-1.07 1.23c-.3.05-.62 0-.93.05a3.9 3.9 0 0 1-1.08 0 4.7 4.7 0 0 0-1.18-.13c-.36.07-.73 0-1.05-.18a1.15 1.15 0 0 1-.42-.49c.01.15.04.3.08.44.08.34.57.31.61.32l1.4.07c.34.03.67.1 1 .18.4.05.79.05 1.18 0 .67 0 1.2-.26 1.26-.52.06-.26.25-.92.26-1l.22-.91a9.2 9.2 0 0 1 .56-1.11c.08-.2.14-.41.18-.63a2 2 0 0 1-1.3 1.15l.02.14Zm4.29-1.07a.27.27 0 0 1-.13.1c-.25.07-.5.11-.76.13-.3.06-.58.24-.77.49a3.31 3.31 0 0 0-.58 1.15c.01.25.07.5.18.73.16.3.37.58.51.89a2 2 0 0 0 .24-.63l1.16-1.85c.07-.33.12-.66.15-1" fill="#095A6B"/><path d="M78.82 32.44a.64.64 0 0 0-.23 0v-1.57a2.65 2.65 0 0 0-2.69-2.64 2.71 2.71 0 0 0-2.75 2.64v1.53h-.09a.57.57 0 0 0-.4.98c.1.1.26.17.41.17h.12a2.86 2.86 0 0 0 1.26 2.1 2.29 2.29 0 0 0 2.97-.06 2.83 2.83 0 0 0 1.17-2.07c.07.02.15.02.22 0a.58.58 0 0 0 .57-.57.56.56 0 0 0-.56-.51Z" fill="#FFCB8A"/><path d="M78.82 32.44a.64.64 0 0 0-.23 0v-1.57a2.65 2.65 0 0 0-2.69-2.64 2.78 2.78 0 0 0-.51 0c.13.53.4 1.02.76 1.42a4.42 4.42 0 0 1 1.06 6 2.83 2.83 0 0 0 1.39-2.24.4.4 0 0 0 .22 0 .57.57 0 0 0 0-1.13v.16Z" fill="#F2B879"/><path d="M75.07 30.1a2.25 2.25 0 0 1 2 .38 4.34 4.34 0 0 1 1.67 2.93 4.14 4.14 0 0 0 .52-3.79c-.11-.32-.3-.61-.57-.83-.44-.39-.64-.25-.74-.32-.28-.28-.62-.5-1-.62a3 3 0 0 0-2.51.1 3.46 3.46 0 0 0-2.15 3 7.5 7.5 0 0 0 .06 2.59c.24.58.35 1.09.84 1.43.01-.17.13-4.21 1.88-4.87Z" fill="#FFE77A"/><path d="M73.66 38.49a.59.59 0 0 0 .2-.48 2 2 0 0 0-.24-.62c.1-.2.13-.44.09-.67-.06-.32 0-.07 0-.07.04-.29.04-.58 0-.87.05-.34.02-.68-.08-1l-.47-.21s-.51.48-.41 1a.85.85 0 0 0-.28.61c0 .3.08.49.26.57a1.3 1.3 0 0 0 0 1 .51.51 0 0 0-.24.35c0 .17.19.39.3.33 0 0-.24.43 0 .64 0 0-.26.21-.25.44a.54.54 0 0 0 .21.44s-.26.46.08.65c0 0-1.16 1.68-1 2.56.16.88.06 1.6.38 2-.04-.4 0-.8.14-1.19a1.36 1.36 0 0 0 .54 1.41s-.41-.73-.28-1.12c0 0 0 1.14 1 1 0 0-.77-.32-.54-1.73.05-.55.05-1.1 0-1.64.06-.43.06-.88 0-1.31a.73.73 0 0 0 .3-.81c-.12-.58.28-.58.28-.86l.01-.42Z" fill="#FFE77A"/><path d="M79.44 36.33c-.02-.25-.05-.5-.11-.75s-.15-.49-.23-.72a1.6 1.6 0 0 1-.08-.69c.01-.48.06-.96.14-1.43a5 5 0 0 0-.12-1.43c-.43-1.74-1.68-1.33-1.68-1.33l-.35.48v.09c.89.43 1.26 1.89 1.26 1.89v.37c-.02.25-.02.5 0 .74 0 .25.08.5.11.76.13.46.28.91.45 1.36.06.22.1.44.11.66v1.37c0 .11 0 .22-.07.33a2 2 0 0 1-.09.33c-.07.23-.15.46-.21.7a4.35 4.35 0 0 0-.11 1.45 5.4 5.4 0 0 1 .34-1.37l.3-.65c.1-.23.19-.46.24-.71 0-.12.06-.24.08-.37.02-.13 0-.25 0-.37v-.71h.02Z" fill="#FFF0AA"/><path d="M76.76 29.4a1.44 1.44 0 0 0-2.11-.46 3.24 3.24 0 0 0-1.78 2.58c-.05.88-.05 1.77 0 2.65.08.56.24 1.12.46 1.64.28.78.38 1.62.28 2.44-.3.89-.4 1.83-.26 2.76 0 0 .61-1.91.76-2.14.18-.3.28-.65.29-1a6.89 6.89 0 0 0-.21-2.19 5.64 5.64 0 0 1-.48-3c.07-.73.35-1.42.8-2h.42l.2-.24c.16 0 .32.02.48.05l.09-.15a3 3 0 0 1 .5.12l.07-.17.14.09c.2.04.38.12.55.23a1.19 1.19 0 0 0-.2-1.21Z" fill="#FFF0AA"/><g style="mix-blend-mode:multiply" opacity=".1"><path d="M56.89 70.38a3.73 3.73 0 1 0 0-7.46 3.73 3.73 0 0 0 0 7.46Z" fill="#000" style="mix-blend-mode:multiply" opacity=".1"/><path d="M56.89 63.06a3.59 3.59 0 1 1 0 7.18 3.59 3.59 0 0 1 0-7.18Zm0-.28a3.87 3.87 0 1 0 0 7.74 3.87 3.87 0 0 0 0-7.74Z" fill="#000" style="mix-blend-mode:multiply" opacity=".1"/><g style="mix-blend-mode:multiply" opacity=".1"><path d="m58.27 64.35 5.02 5.02-5.06 3.07-1.89-1.88.16-2.18 1.69-3.34.08-.69Z" fill="#000" style="mix-blend-mode:multiply" opacity=".1"/><path d="M58.94 69.21c-.06-.23-.83-.45-1.23-.55h-.18a.54.54 0 0 0-.21 0H56.21c-.26.07-1.36.34-1.43.62-.06.33-.09.66-.08 1 0 .43 4.33.43 4.33 0 .01-.36-.02-.72-.09-1.07Z" fill="#000" style="mix-blend-mode:multiply" opacity=".1"/><path d="M58.94 69.21c-.06-.23-.82-.45-1.23-.55-.07 0 .92.34 1 .61.06.33.08.66.08 1 0 .06-.08.11-.23.16.29-.05.48-.13.48-.21 0-.34-.03-.68-.1-1.01Z" fill="#000" style="mix-blend-mode:multiply" opacity=".1"/><path d="M57.53 68.6h-.17c-.16-.13 0-.5 0-.5h-.86c.1.29 0 .48-.08.48a.38.38 0 0 1-.17.08h-.16a1.16 1.16 0 0 0 .87.62 1 1 0 0 0 .79-.6l-.22-.08Z" fill="#000" style="mix-blend-mode:multiply" opacity=".1"/><path d="M57.06 68.06a1.29 1.29 0 0 0 .31 1c.15-.11.26-.26.34-.43l-.18-.06h-.17c-.16-.13 0-.5 0-.5l-.3-.01Z" fill="#000" style="mix-blend-mode:multiply" opacity=".1"/><path d="M59.28 68.96c-.07-.18-.06-.15-.23-.23a7.12 7.12 0 0 0-.82-.34h-.07l-.08-.12h-2.33l-.08.12h-.08c-.28.1-.56.21-.83.34-.17.08-.15.05-.23.23-.2.44-.36.9-.5 1.36.45.5 1.03.86 1.67 1.07.24.06.49.13.75.17a3 3 0 0 0 .42 0h.09a3 3 0 0 0 .42 0 3.88 3.88 0 0 0 2.41-1.23c-.14-.47-.31-.92-.51-1.37Z" fill="#000" style="mix-blend-mode:multiply" opacity=".1"/><path d="M57.72 67.62V68.07c.06.59-.07 1.17-.35 1.69a.74.74 0 0 1-.52.25.75.75 0 0 1-.54-.26 3.17 3.17 0 0 1-.36-1.57l.07-.32v-.24c-.01-.18 1.86-.2 1.7 0Z" fill="#000" style="mix-blend-mode:multiply" opacity=".1"/><path d="M57.76 67.88v-.24a1 1 0 0 1-.78.4 1 1 0 0 1-.76-.38v.07c.08.11.18.2.29.28.15.1.32.16.49.19.2.02.4.02.61 0h.06c.17.7-.13 1.83-1.2 1.58a.76.76 0 0 0 .53.25.74.74 0 0 0 .52-.25c.3-.58.4-1.26.24-1.9Z" fill="#000" style="mix-blend-mode:multiply" opacity=".1"/><path d="M58.19 68.33a2.02 2.02 0 0 1 .15.51v.05a.52.52 0 0 1-.1.11l-.13.11.18.18.17.19-.75.95-.75 1-.74-1-.75-.95.17-.19.18-.18a.75.75 0 0 1-.13-.11.35.35 0 0 1-.1-.11v-.05c0-.09.03-.18.06-.26a1.06 1.06 0 0 1 .28-.52.91.91 0 0 1 .24-.2c-.15.56-.09 1.15.17 1.66.27.55.48 1.13.64 1.73.17-.6.38-1.17.65-1.73.26-.51.33-1.1.17-1.66.09.07.17.14.24.22.06.08.1.16.15.25Z" fill="#000" style="mix-blend-mode:multiply" opacity=".1"/><path d="M56.94 71.27c.13-.5.3-.99.53-1.45a.74.74 0 0 1-.52.25.76.76 0 0 1-.53-.25c.23.46.4.95.52 1.45ZM58.39 66.54h-.12v-.8a1.32 1.32 0 0 0-1.34-1.34 1.36 1.36 0 0 0-1.39 1.34v.78h-.05a.29.29 0 0 0 0 .58h.07a1.43 1.43 0 0 0 .63 1.06 1.16 1.16 0 0 0 1.51-.02 1.44 1.44 0 0 0 .59-1.06h.12a.27.27 0 0 0 .28-.28.3.3 0 0 0-.3-.26Z" fill="#000" style="mix-blend-mode:multiply" opacity=".1"/><path d="M58.39 66.54v-.16l-.1-.61a1.32 1.32 0 0 0-1.34-1.34 1.1 1.1 0 0 0-.26 0c.07.27.2.52.38.72a2.23 2.23 0 0 1 .54 3 1.4 1.4 0 0 0 .7-1.13h.12a.27.27 0 0 0 .28-.28.3.3 0 0 0-.32-.2Z" fill="#000" style="mix-blend-mode:multiply" opacity=".1"/><path d="M58.77 64.95a1.49 1.49 0 0 0-1.29-.93h-.23c-.27-.13-.56-.2-.86-.18-1.18-.07-1.8 1.81-1.9 2.39-.48 1.81 1.32 2.13 1.6 1.84a2 2 0 0 1-.47-1.67c.39-.41 1.66-.58 2-1.67.08.37.25.71.5 1a2.31 2.31 0 0 1-.25 2.28c.27.4 2.6-.11.9-3.06Z" fill="#000" style="mix-blend-mode:multiply" opacity=".1"/><path d="M54.46 66.49c.09-.59.72-2.46 1.9-2.39.3-.01.6.04.86.17h.22a1.48 1.48 0 0 1 1.29.93 4 4 0 0 1 .61 1.71c0-.71-.21-1.4-.61-2a1.48 1.48 0 0 0-1.29-.93h-.22c-.27-.13-.56-.2-.86-.18-1.18-.07-1.81 1.81-1.9 2.39-.06.23-.09.47-.08.71.02-.14.04-.28.08-.41ZM63.63 66.33s.15-.07.06-.07-.15.07-.06.07Z" fill="#000" style="mix-blend-mode:multiply" opacity=".1"/></g></g><path d="M56.61 70.09a3.73 3.73 0 1 0 0-7.46 3.73 3.73 0 0 0 0 7.46Z" fill="#65BD83"/><path d="M56.6 62.78a3.59 3.59 0 1 1 .02 7.18 3.59 3.59 0 0 1-.02-7.18Zm0-.29a3.88 3.88 0 1 0 0 7.76 3.88 3.88 0 0 0 0-7.76Z" fill="#fff"/><path d="M56.61 69.95a3.59 3.59 0 1 0 0-7.18 3.59 3.59 0 0 0 0 7.18Z" fill="#8EDAA7"/><path opacity=".1" d="M57.98 64.06 63 69.08l-5.06 3.08-1.89-1.89.16-2.18 1.69-3.33.08-.7Z" fill="#000"/><path d="M58.66 68.92c-.06-.23-.84-.45-1.24-.55h-.17a.51.51 0 0 0-.22 0H55.92c-.26.06-1.35.33-1.43.61-.06.33-.08.66-.08 1 0 .44 4.33.43 4.33 0 0-.36-.02-.71-.08-1.06Z" fill="#636E73"/><path d="M58.66 68.92c-.06-.22-.82-.44-1.23-.55-.08 0 .91.34 1 .61.06.33.09.66.08 1 0 .06-.08.11-.22.15.29 0 .47-.12.47-.21 0-.34-.04-.67-.1-1Z" fill="#4C5456"/><path d="m57.25 68.33-.17-.05c-.16-.13-.05-.49-.05-.49h-.86c.1.29 0 .49-.08.49a.38.38 0 0 1-.17.07h-.16c.18.27.48.63.87.63a1 1 0 0 0 .8-.61l-.18-.04Z" fill="#F2B879"/><path d="M56.77 67.77a1.3 1.3 0 0 0 .32 1c.13-.13.23-.27.3-.44l-.18-.06-.17-.05c-.16-.13-.05-.49-.05-.49l-.22.04Z" fill="#E5A667"/><path d="M59 68.67c-.08-.17-.06-.14-.24-.23a8.33 8.33 0 0 0-.82-.34h-.07l-.09-.13h-2.33s0 .08-.07.13h-.09c-.28.1-.55.21-.82.34-.18.09-.16.06-.23.23-.2.44-.37.9-.51 1.36a3.88 3.88 0 0 0 2.42 1.25c.25.05.28 0 .43 0h.5l.75-.17a4 4 0 0 0 1.67-1.07c-.14-.47-.3-.92-.5-1.37Z" fill="#3B3B38"/><path d="m57.39 67.33.05.23v.2c.05.59-.07 1.18-.36 1.69a.7.7 0 0 1-.52.25.71.71 0 0 1-.53-.26 3.08 3.08 0 0 1-.37-1.57c0-.11 0-.22.07-.31v-.23c-.01-.18 1.87-.2 1.66 0Z" fill="#F2B879"/><path d="m57.48 67.56-.09-.23a.95.95 0 0 1-1.54 0v.06a1.22 1.22 0 0 0 .78.47c.2.03.4.03.61 0h.06c.18.69-.12 1.83-1.2 1.57a.72.72 0 0 0 .53.25.7.7 0 0 0 .52-.25c.33-.55.44-1.2.33-1.84v-.03Z" fill="#DB9C5E"/><path d="M56.66 70.98c.12-.5.3-.99.52-1.45a.7.7 0 0 1-.52.25.72.72 0 0 1-.53-.25c.23.46.4.95.53 1.45Z" fill="#fff"/><path d="M58.07 66.26h-.13v-.8a1.32 1.32 0 0 0-1.33-1.34 1.37 1.37 0 0 0-1.39 1.34v.78h-.05a.29.29 0 0 0-.29.29.3.3 0 0 0 .3.29h.06a1.47 1.47 0 0 0 .63 1.07c.21.17.47.26.74.27.28 0 .55-.11.76-.3a1.45 1.45 0 0 0 .6-1.06.2.2 0 0 0 .11 0 .28.28 0 0 0 .28-.29.29.29 0 0 0-.29-.25Z" fill="#FFCB8A"/><path d="M58.07 66.26s.05-.18 0-.17l-.11-.61a1.32 1.32 0 0 0-1.33-1.34h-.26c.07.27.2.52.39.72a2.27 2.27 0 0 1 .54 3.06 1.46 1.46 0 0 0 .7-1.14.2.2 0 0 0 .11 0 .28.28 0 0 0 .28-.29.29.29 0 0 0-.32-.23Z" fill="#F2B879"/><path d="M58.48 64.67a1.49 1.49 0 0 0-1.29-.94h-.22a1.73 1.73 0 0 0-.87-.17c-1.17-.08-1.8 1.8-1.89 2.39-.48 1.81 1.31 2.12 1.59 1.83a2 2 0 0 1-.47-1.67c.4-.41 1.67-.58 2-1.66.09.37.26.71.5 1a2.33 2.33 0 0 1-.25 2.29c.27.38 2.6-.13.9-3.07Z" fill="#42210B"/><path d="M54.17 66.21c.09-.59.72-2.47 1.9-2.4.3-.01.6.05.86.18h.23a1.5 1.5 0 0 1 1.29.94c.33.51.53 1.1.61 1.7 0-.71-.21-1.4-.61-2a1.52 1.52 0 0 0-1.29-.94h-.23a1.72 1.72 0 0 0-.86-.17c-1.18-.08-1.81 1.8-1.9 2.39a2 2 0 0 0-.07.7c.01-.14.04-.27.07-.4Z" fill="#5B2C0D"/><path d="M63.39 66.03s.15-.06 0-.06-.15.06 0 .06Z" fill="#89410B"/><path d="M66.43 48.71a1.24 1.24 0 1 0 0-2.48 1.24 1.24 0 0 0 0 2.48Z" fill="#65BD83"/><path d="M66.39 46.33a1.19 1.19 0 1 1 0 2.38 1.19 1.19 0 0 1 0-2.38Zm0-.09a1.29 1.29 0 1 0 0 2.58 1.29 1.29 0 0 0 0-2.58ZM26.91 46.76a1.86 1.86 0 1 0 0-3.72 1.86 1.86 0 0 0 0 3.72Z" fill="#65BD83"/><path d="M26.91 43.12a1.79 1.79 0 1 1 0 3.58 1.79 1.79 0 0 1 0-3.58Zm0-.14a1.93 1.93 0 1 0-.02 3.86 1.93 1.93 0 0 0 .02-3.86Z" fill="#65BD83"/><g style="mix-blend-mode:multiply" opacity=".15"><path d="M37.11 41.11a7.25 7.25 0 1 0 0-14.5 7.25 7.25 0 0 0 0 14.5Z" fill="#000" style="mix-blend-mode:multiply" opacity=".15"/><path d="M37.1 26.78a7.08 7.08 0 1 1 .02 14.16 7.08 7.08 0 0 1-.02-14.16Zm0-.35a7.43 7.43 0 1 0 .02 14.86 7.43 7.43 0 0 0-.02-14.86Z" fill="#000" style="mix-blend-mode:multiply" opacity=".15"/><g style="mix-blend-mode:multiply" opacity=".15"><path d="M41.16 39.7c-.14-.53-2.21-1.06-2.79-1.2-.14-.05-.28-.1-.42-.12H36.1c-.1.05-.22.1-.34.12-.51.13-2.68.68-2.82 1.22a9.74 9.74 0 0 0-.16 1.93c0 .85 8.54.85 8.54 0 0-.65-.05-1.3-.16-1.95Z" fill="#000" style="mix-blend-mode:multiply" opacity=".15"/><path d="M41.16 39.7c-.12-.45-1.63-.88-2.43-1.09-.15 0 1.8.67 1.94 1.2.12.64.17 1.29.16 1.94 0 .12-.16.23-.45.31.58-.1.94-.24.94-.42 0-.65-.05-1.3-.16-1.94Z" fill="#000" style="mix-blend-mode:multiply" opacity=".15"/><path d="M38.39 38.5c-.1-.05-.22-.08-.34-.1-.31-.27-.08-1-.08-1h-1.7c.2.57 0 .91-.15 1-.1.05-.22.1-.34.12l-.32.09a2.32 2.32 0 0 0 1.72 1.22 2 2 0 0 0 1.57-1.2l-.36-.13Z" fill="#000" style="mix-blend-mode:multiply" opacity=".15"/><path d="M37.39 37.42a2.58 2.58 0 0 0 .63 2c.28-.24.5-.53.67-.86l-.36-.11c-.1-.05-.22-.08-.34-.1-.31-.27-.08-1-.08-1l-.52.07Z" fill="#000" style="mix-blend-mode:multiply" opacity=".15"/><path d="M41.99 33.08a4.9 4.9 0 1 1-9.8 0 4.9 4.9 0 0 1 9.8 0Z" fill="#000" style="mix-blend-mode:multiply" opacity=".15"/><path d="M40.02 34.44a.54.54 0 0 0-.22 0v-1.57a2.65 2.65 0 0 0-2.69-2.64 2.7 2.7 0 0 0-2.74 2.64v1.53h-.1a.56.56 0 0 0-.56.58.57.57 0 0 0 .58.57h.12a2.84 2.84 0 0 0 1.25 2.09 2.28 2.28 0 0 0 2.96-.05 2.83 2.83 0 0 0 1.17-2.08.56.56 0 1 0 .23-1.07Z" fill="#000" style="mix-blend-mode:multiply" opacity=".15"/><path d="M40.02 34.44a.54.54 0 0 0-.22 0v-1.57a2.65 2.65 0 0 0-2.69-2.64 2.73 2.73 0 0 0-.5 0c.12.53.39 1.02.76 1.42a4.44 4.44 0 0 1 1.06 6 2.84 2.84 0 0 0 1.38-2.24c.08.02.15.02.23 0a.56.56 0 0 0 0-1.12l-.02.15Z" fill="#000" style="mix-blend-mode:multiply" opacity=".15"/><path d="M34.39 34.01s.26-2.85 2.79-2.85c2.53 0 2.66 2.85 2.66 2.85l1.2-1.85-1.87-2.25-2.9-.24-1.88 1.06-.48 2.78.48.5Z" fill="#000" style="mix-blend-mode:multiply" opacity=".15"/><path d="M37.13 29.71c-3.25 0-3.32-.57-3.32 2.68 0 3 .76 1.93 1.09.48.31-.92.5-1.26 2.3-1.26 1.8 0 2 .29 2.23 1.16.51 3 1.05 1 .79-.38s.16-2.37-3.09-2.37v-.31Z" fill="#000" style="mix-blend-mode:multiply" opacity=".15"/></g></g><path d="M36.82 40.82a7.25 7.25 0 1 0 0-14.5 7.25 7.25 0 0 0 0 14.5Z" fill="#65BD83"/><path d="M36.82 26.5a7.08 7.08 0 1 1 0 14.16 7.08 7.08 0 0 1 0-14.16Zm0-.36a7.43 7.43 0 1 0 0 14.86 7.43 7.43 0 0 0 0-14.86Z" fill="#fff"/><path d="M40.87 39.41c-.14-.53-2.21-1.05-2.78-1.2a3.13 3.13 0 0 0-.43-.12h-1.85c-.1.06-.22.1-.34.12-.51.13-2.67.68-2.82 1.22-.11.64-.17 1.28-.16 1.93 0 .85 8.54.85 8.54 0a9.9 9.9 0 0 0-.16-1.95Z" fill="#BB95B2"/><path d="M40.87 39.41c-.12-.45-1.62-.88-2.43-1.09-.14 0 1.8.67 2 1.2.11.64.17 1.3.16 1.95 0 .12-.17.22-.45.3.57-.1.93-.24.93-.41 0-.66-.08-1.3-.21-1.95Z" fill="#8C7086"/><path d="m38.09 38.21-.34-.1c-.32-.26-.08-1-.08-1h-1.71c.2.57 0 .91-.15 1-.1.06-.22.1-.34.12l-.31.09a2.29 2.29 0 0 0 1.71 1.22 2 2 0 0 0 1.57-1.2c-.14-.01-.27-.11-.35-.13Z" fill="#A06635"/><path d="M37.14 37.13a2.58 2.58 0 0 0 .63 2.05c.28-.23.51-.53.67-.86-.14 0-.27-.09-.35-.11l-.34-.1c-.32-.26-.08-1-.08-1l-.53.02Z" fill="#93582C"/><path d="M41.71 32.79a4.91 4.91 0 1 1-9.82.02 4.91 4.91 0 0 1 9.82-.02Z" fill="#42210B"/><path d="M39.74 34.15a.64.64 0 0 0-.23 0v-1.52a2.65 2.65 0 0 0-2.69-2.64 2.71 2.71 0 0 0-2.75 2.64v1.52h-.09a.56.56 0 0 0-.57.57.58.58 0 0 0 .58.58h.12a2.82 2.82 0 0 0 1.28 2.03c.4.34.92.52 1.45.52.56.02 1.11-.16 1.55-.52a2.83 2.83 0 0 0 1.17-2.08.5.5 0 0 0 .22.05.57.57 0 0 0 .57-.56.56.56 0 0 0-.61-.59Z" fill="#AF743F"/><path d="M39.74 34.15a.64.64 0 0 0-.23 0v-1.52a2.65 2.65 0 0 0-2.69-2.64 2.8 2.8 0 0 0-.51 0c.13.53.39 1.03.76 1.43a4.42 4.42 0 0 1 1.06 6 2.83 2.83 0 0 0 1.39-2.24.5.5 0 0 0 .22.05.58.58 0 0 0 .57-.57.56.56 0 0 0-.57-.51Z" fill="#A06635"/><path d="M34.06 33.73s.27-2.86 2.79-2.86 2.66 2.86 2.66 2.86l1.2-1.86-1.87-2.24-2.89-.24-1.89 1.05-.47 2.78.47.51Z" fill="#42210B"/><path d="M36.85 29.43c-3.25 0-3.33-.58-3.33 2.67 0 3 .76 1.93 1.1.49.3-.93.5-1.27 2.3-1.27 1.8 0 2 .29 2.23 1.16.51 3 1 1 .78-.38-.22-1.38.17-2.37-3.08-2.37v-.3Z" fill="#42210B"/><g style="mix-blend-mode:multiply" opacity=".15"><path d="M55.13 56.39a7.85 7.85 0 1 0 0-15.7 7.85 7.85 0 0 0 0 15.7Z" fill="#000" style="mix-blend-mode:multiply" opacity=".15"/><path d="M55.13 40.92a7.62 7.62 0 1 1 0 15.24 7.62 7.62 0 0 1 0-15.24Zm0-.45a8.07 8.07 0 1 0 0 16.14 8.07 8.07 0 0 0 0-16.14Z" fill="#000" style="mix-blend-mode:multiply" opacity=".15"/><g style="mix-blend-mode:multiply" opacity=".15"><path d="m57.66 43.61 9.51 9.51-9.59 5.83L54 55.37l.46-4 3.05-6.44.15-1.32Z" fill="#000" style="mix-blend-mode:multiply" opacity=".1"/><path d="M59.5 53.98c-.15-.57-2.38-1.13-3-1.29a2.1 2.1 0 0 0-.46-.12h-2c-.11.06-.24.1-.36.12-.56.14-2.89.73-3 1.32-.13.68-.19 1.38-.18 2.07 0 .92 9.2.91 9.2 0 0-.7-.06-1.4-.2-2.1Z" fill="#000" style="mix-blend-mode:multiply" opacity=".15"/><path d="M59.5 53.98c-.13-.48-1.75-.95-2.62-1.17-.15 0 2 .72 2.1 1.29.13.7.18 1.4.17 2.1 0 .12-.18.23-.48.33.61-.11 1-.26 1-.45.01-.7-.04-1.4-.17-2.1Z" fill="#000" style="mix-blend-mode:multiply" opacity=".15"/><path d="M55.25 53.78a1.73 1.73 0 0 0 1.73-1l-.48-.13-.23-.07h-2.35a1.3 1.3 0 0 1-.23.07l-.42.11c.12.32.58 1.02 1.98 1.02Z" fill="#000" style="mix-blend-mode:multiply" opacity=".15"/><path d="M56.5 52.69a3.07 3.07 0 0 0-.36-.11c-.34-.29-.09-1.06-.09-1.06h-1.84a.91.91 0 0 1-.16 1.06c-.11.06-.24.1-.36.12a2 2 0 0 0 1.5.71c.91-.01 1.41-.7 1.31-.72Z" fill="#000" style="mix-blend-mode:multiply" opacity=".15"/><path d="M55.49 51.53a2.13 2.13 0 0 0 .29 1.76c.52-.19.79-.58.72-.6a3.07 3.07 0 0 0-.36-.11c-.34-.29-.09-1.06-.09-1.06l-.56.01Z" fill="#000" style="mix-blend-mode:multiply" opacity=".15"/><path d="M58.28 48.33a.68.68 0 0 0-.23 0v-1.69a2.89 2.89 0 0 0-2.91-2.87 3 3 0 0 0-3 2.87v1.69h-.09a.61.61 0 0 0-.6.62.63.63 0 0 0 .63.62h.13a3 3 0 0 0 1.35 2.24c.44.36 1 .55 1.56.55.6 0 1.18-.2 1.63-.6a3 3 0 0 0 1.26-2.24.5.5 0 0 0 .24.06.6.6 0 0 0 .61-.6.6.6 0 0 0-.58-.65Z" fill="#000" style="mix-blend-mode:multiply" opacity=".15"/><path d="M58.28 48.33a.68.68 0 0 0-.23 0v-1.69a2.89 2.89 0 0 0-2.91-2.87 3.41 3.41 0 0 0-.55 0c.14.58.43 1.1.83 1.54a4.77 4.77 0 0 1 1.14 6.49 3 3 0 0 0 1.49-2.4.61.61 0 0 0 .85-.56.6.6 0 0 0-.62-.51Z" fill="#000" style="mix-blend-mode:multiply" opacity=".15"/><path d="M55.12 42.88c-2.74-.76-3.89 2-4.23 4.35-.2.9-.2 1.85 0 2.75a1.9 1.9 0 0 0 1.74.11 5.62 5.62 0 0 1-.22-3.59c0 .66 1.33.94 2.57.94.87 0 2.44-.14 2.3-1a4.5 4.5 0 0 1 .45 3.46 1.48 1.48 0 0 0 1.39-.22c.23-.93.2-1.9-.06-2.82-.36-2.14-1.46-4.53-3.94-3.98Z" fill="#000" style="mix-blend-mode:multiply" opacity=".15"/><path d="M51.39 46.14c0 .22 0 .45-.08.67l-.09.66-.09.67c0 .22-.06.44-.1.66a5.08 5.08 0 0 1 0-.68v-.67l.06-.34c0-.11 0-.22.07-.33.06-.22.13-.43.23-.64ZM51.77 46.6v2.69a3.76 3.76 0 0 1-.12-1.35v-.67c.02-.23.06-.45.12-.67ZM58.65 49.33V46.64c.07.22.11.44.13.67.02.23.02.45 0 .68v.67c-.02.23-.07.45-.13.67ZM58.21 48.87l-.09-.67-.07-.67-.07-.66c0-.23-.05-.45-.06-.68a5.2 5.2 0 0 1 .31 1.32v.68c.01.23 0 .45-.02.68ZM53.53 46.38l-.18.87.2.05-.02-.92ZM54.39 46.1c.03.43 0 .86-.08 1.28h.21a5.2 5.2 0 0 0-.13-1.28ZM55.39 46.33c.03.38.03.76 0 1.14h.2c-.04-.38-.1-.77-.2-1.14ZM56.39 46.15c.13.34.19.71.16 1.08l.16-.06c-.03-.36-.14-.7-.32-1.02Z" fill="#000" style="mix-blend-mode:multiply" opacity=".15"/><path d="M50.85 47.23a5.07 5.07 0 0 1 4.25-2c3 0 3.95 1.6 3.95 1.6s.21-4.58-4-4.58-4.2 4.98-4.2 4.98Z" fill="#000" style="mix-blend-mode:multiply" opacity=".15"/><path d="M55.1 43.91a5 5 0 0 0-4.05 1.71 1.64 1.64 0 0 0-.2 1.61 5.07 5.07 0 0 1 4.25-2c3 0 3.95 1.6 3.95 1.6a1.49 1.49 0 0 0-.2-1.58 4.75 4.75 0 0 0-3.75-1.34Z" fill="#000" style="mix-blend-mode:multiply" opacity=".15"/></g></g><path d="M54.78 56.03a7.85 7.85 0 1 0 0-15.7 7.85 7.85 0 0 0 0 15.7Z" fill="#F46F67"/><path d="M54.77 40.56a7.62 7.62 0 1 1 0 15.24 7.62 7.62 0 0 1 0-15.24Zm0-.45a8.07 8.07 0 1 0 0 16.14 8.07 8.07 0 0 0 0-16.14Z" fill="#F46F67"/><path opacity=".1" d="m57.3 43.25 9.51 9.51-9.59 5.83-3.58-3.58.46-4 3.05-6.44.15-1.32Z" fill="#000"/><path d="M59.14 53.62c-.15-.57-2.38-1.13-3-1.29-.15-.05-.3-.1-.46-.12h-2c-.11.06-.23.1-.36.12-.56.14-2.88.73-3 1.32a10.4 10.4 0 0 0-.18 2.07c0 .92 9.21.92 9.21 0 0-.7-.07-1.4-.21-2.1Z" fill="#BA94B2"/><path d="M59.14 53.62c-.13-.48-1.75-.94-2.61-1.17-.16 0 1.94.72 2.09 1.29.13.7.18 1.4.17 2.1 0 .13-.17.24-.48.33.62-.11 1-.26 1-.45.01-.7-.04-1.4-.17-2.1Z" fill="#8C7086"/><path d="M54.89 53.43a1.73 1.73 0 0 0 1.73-1l-.48-.13-.23-.07h-2.34l-.24.07-.42.11c.13.32.58 1.02 1.98 1.02Z" fill="#8C7086"/><path d="M56.14 52.33a2.6 2.6 0 0 0-.36-.11c-.34-.28-.09-1.06-.09-1.06h-1.83a.91.91 0 0 1-.17 1.06c-.11.06-.23.1-.36.12a2 2 0 0 0 1.5.71c.91-.01 1.41-.72 1.31-.72Z" fill="#F2B879"/><path d="M55.13 51.17a2.15 2.15 0 0 0 .29 1.77c.53-.2.79-.59.72-.61a2.6 2.6 0 0 0-.36-.11c-.34-.28-.09-1.06-.09-1.06l-.56.01Z" fill="#D39A62"/><path d="M57.93 47.95a.53.53 0 0 0-.24.06v-1.68a2.89 2.89 0 0 0-2.91-2.88 3 3 0 0 0-3 2.88v1.64h-.1a.6.6 0 0 0-.6.62.63.63 0 0 0 .63.62h.13a3.05 3.05 0 0 0 1.35 2.24 2.4 2.4 0 0 0 3.2-.12 3 3 0 0 0 1.26-2.24c.08.04.16.06.25.06a.6.6 0 0 0 .61-.6.6.6 0 0 0-.58-.6Z" fill="#FFCB8A"/><path d="M57.93 47.95a.53.53 0 0 0-.24.06v-1.68a2.9 2.9 0 0 0-2.91-2.88 3.18 3.18 0 0 0-.54 0c.14.57.42 1.1.82 1.54a4.78 4.78 0 0 1 1.14 6.5 3 3 0 0 0 1.49-2.41.62.62 0 0 0 .86-.56.61.61 0 0 0-.62-.57Z" fill="#F2B879"/><path d="M54.76 42.52c-2.74-.76-3.89 2-4.23 4.36-.2.9-.2 1.84 0 2.74a1.91 1.91 0 0 0 1.74.11 5.56 5.56 0 0 1-.21-3.59c0 .66 1.32.94 2.56.94.87 0 2.44-.14 2.3-1a4.42 4.42 0 0 1 .45 3.45 1.47 1.47 0 0 0 1.39-.21c.23-.93.2-1.9-.06-2.83-.31-2.16-1.46-4.5-3.94-3.97Z" fill="#93582C"/><path d="M51.03 45.78c0 .23 0 .45-.08.67l-.09.66-.09.67c0 .22-.06.44-.1.66a5 5 0 0 1 0-.67c0-.23 0-.46.06-.68.06-.22 0-.22.05-.33l.08-.33c.04-.22.1-.44.17-.65ZM51.39 46.25v2.68a3.76 3.76 0 0 1-.11-1.34v-.68c.02-.22.05-.44.11-.66ZM58.29 48.92V46.23a3.82 3.82 0 0 1 .13 1.35v.67c-.02.23-.06.45-.13.67ZM57.85 48.51c0-.23-.06-.45-.08-.67l-.08-.67-.07-.66-.06-.67a5.52 5.52 0 0 1 .31 1.31v.68c0 .23 0 .45-.02.68ZM53.17 46.02l-.18.87.2.05-.02-.92ZM54.01 45.74c.03.43 0 .86-.08 1.28h.22c0-.43-.04-.86-.14-1.28ZM55.03 45.92c.04.38.04.77 0 1.15h.2c-.03-.39-.1-.77-.2-1.15ZM56.06 45.79c.13.35.19.72.16 1.09l.16-.06a2.4 2.4 0 0 0-.32-1.03Z" fill="#5B2C0D"/><path d="M50.49 46.88a5.07 5.07 0 0 1 4.25-2c3 0 3.95 1.6 3.95 1.6s.21-4.57-4-4.57-4.2 4.97-4.2 4.97Z" fill="#3B3B38"/><path d="M54.74 43.55a4.9 4.9 0 0 0-4 1.72 1.63 1.63 0 0 0-.21 1.61 5.07 5.07 0 0 1 4.25-2c3 0 3.95 1.6 3.95 1.6a1.49 1.49 0 0 0-.19-1.58 4.81 4.81 0 0 0-3.8-1.35Z" fill="#2C2C2A"/><path d="M55.75 23.89a1.25 1.25 0 1 0 0-2.5 1.25 1.25 0 0 0 0 2.5Z" fill="#F46F67"/><path d="M55.75 21.43a1.22 1.22 0 1 1 .22 2.43 1.22 1.22 0 0 1-.22-2.43Zm0-.07a1.29 1.29 0 1 0 0 2.58 1.29 1.29 0 0 0 0-2.58Z" fill="#F46F67"/><path d="M83.5 65.65a7.25 7.25 0 1 0 0-14.5 7.25 7.25 0 0 0 0 14.5Z" fill="#65BD83"/><path d="M83.5 51.33a7.08 7.08 0 1 1 0 14.16 7.08 7.08 0 0 1 0-14.16Zm0-.36a7.44 7.44 0 1 0-.02 14.88 7.44 7.44 0 0 0 .02-14.88Z" fill="#65BD83"/><path opacity=".1" d="m85.59 54.52 7.62 7.62-7.68 4.67-2.87-2.86.24-3.3 2.57-5.07.12-1.06Z" fill="#000"/><path d="M84.39 61.17s-.28.85.18 1a1.36 1.36 0 0 1-1 .52 1.61 1.61 0 0 1-1.09-.55s.47-.28.22-1l1.69.03Z" fill="#F2B879"/><path d="M84.39 61.17h-.52s-.26 1.13.13 1.47c.22-.1.42-.25.57-.44-.5-.18-.18-1.03-.18-1.03Z" fill="#E5AB70"/><path d="M86.39 58.19a.54.54 0 0 0-.22 0v-1.57a2.65 2.65 0 0 0-2.69-2.64 2.7 2.7 0 0 0-2.74 2.64v1.53h-.1a.57.57 0 0 0-.4.98c.11.1.26.17.41.17h.13a2.71 2.71 0 0 0 2.7 2.62 2.69 2.69 0 0 0 2.68-2.66c.07.04.15.05.23.05a.56.56 0 1 0 0-1.12Z" fill="#FFCB8A"/><path d="M86.39 58.19a.54.54 0 0 0-.22 0v-1.57a2.65 2.65 0 0 0-2.69-2.64 2.2 2.2 0 0 0-.51 0c0 .3-1.28 2-1.1 2.13a4.3 4.3 0 0 0 3.61.8c.17.71.28 1.44.31 2.17a3.11 3.11 0 0 1-.85 2.34 2.68 2.68 0 0 0 1.24-2.24c.08.02.15.02.23 0a.57.57 0 0 0 .56-.57.56.56 0 0 0-.58-.42Z" fill="#F2B879"/><path d="m82.17 62.81-.11.18.09 1.22.85 2.13.15-.21.32-2.25.51 2.36.26-.4.33-1.09.27-1.06-.02-1.08-.13-.39-.58 1.7-.25-.47-.14.3-.52-.03-.14-.16-.26.45-.63-1.2Z" fill="#DFE3F2"/><path d="m84.45 61.91-.87 1h-.27l-1-1s-.47.11-.18.87c.2.5.43.98.7 1.44l.26-.5.27-.72h.23s.42 1.08.5 1.23c.2-.49.38-.98.53-1.49 0-.3.16-.67-.17-.79" fill="#fff"/><path d="m84.48 62-.02-.05.01-.19-.06.08-.01-.03-2.04-.06v.01l-.04-.03.01.18-.04.08-.01.07.05.12.15.17.36.27.34.27.16.09.02.01.25.02.59-.6.27-.29.02-.06-.01-.06Z" fill="#F2B879"/><path d="M84.46 61.95v-.19l-.05.09h-.54v.29c0 .2.05.39.13.56l.24-.24.27-.28v-.13l-.05-.1Z" fill="#D39A62"/><path d="m83.73 63.97.12-.34-.23-.65h-.27l-.25.67.13.3-.34 2.6.39.64.73-.83-.28-2.39Z" fill="#FF4C54"/><path d="m83.44 67.11-.27-.24-.22.31-.02 3.64.31.51.05.19.36-.47-.34-1.1-.07-.63.05-1 .15-1.21ZM83.26 71.7a.19.19 0 1 1-.38 0 .19.19 0 0 1 .38 0Z" fill="#303030"/><path d="m78.99 74.1 2.66.25c.3-.3.49-1 .76-1.4.27-.4.8-.68 1-1.51l-.29-1.3v-2.9l.25-.2-2.18-3.24.63-.63-.4-.18.31-.62-1.15.53-.76.35.38 8.12-1.21 2.73Z" fill="#3B3B38"/><path d="m86.93 65.94-1.2-3.26-.5-.28.3.81-.25.08.38.35c-.7 1.25-1.5 2.44-2.39 3.56v3c1.55 1 .38 1.85.66 2.45.32.14.48.69.54 1.77l1.62-.19 1.15-.33-.86-2.33.55-5.63Z" fill="#3B3B38"/><path d="M83.67 69.68a.19.19 0 1 1-.38 0 .19.19 0 0 1 .38 0Z" fill="#303030"/><path d="M84.92 71.18a3.19 3.19 0 0 0-.54-.07c-.08.1-.33.31-.43.43-.17.15-.35.28-.53.41l-.58.33a.28.28 0 0 0 .19.29c.08.14.2.24.35.28a.48.48 0 0 0 .43.28s0 .15.45.13c.25 0 .45-.29.52-.34.07-.05.52-.65.68-.78a4.06 4.06 0 0 0-.54-.96Z" fill="#FFBE7E"/><path d="M83.03 72.57c.16-.07.31-.14.46-.23v.07s-.33.26-.46.16ZM83.39 72.87l.46-.23v.07s-.34.25-.46.16ZM83.82 73.13c.16-.07.31-.14.46-.23v.07s-.33.26-.46.16Z" fill="#EFA868"/><path d="m85.16 70.93-.39.21.69 1.09.51-.29-.81-1.01Z" fill="#E6E6E6"/><path d="M85.21 62.45c.86.29 1.68.66 2.47 1.11.14.26 1.36 3.44 1.56 3.91.28.67.37 1.41.26 2.13-.22.33-3.47 2.51-3.47 2.51l-.95-1.3 2.75-2.05-.76-2.12-1.17-3.4-.69-.79Z" fill="#3B3B38"/><path d="M81.78 71.18a3 3 0 0 1 .53-.07c.08.1.33.31.43.43.17.15.35.28.53.41l.58.33a.28.28 0 0 1-.19.29.59.59 0 0 1-.35.28.48.48 0 0 1-.42.28s0 .15-.45.13c-.25 0-.45-.29-.52-.34-.07-.05-.53-.65-.69-.78.14-.34.32-.67.55-.96Z" fill="#FFBE7E"/><path d="M83.66 72.57a4.63 4.63 0 0 1-.46-.23v.07s.33.26.46.16ZM83.31 72.87s-.32-.15-.45-.23v.07s.32.25.45.16ZM82.87 73.13c-.16-.07-.3-.14-.45-.23v.07s.32.26.45.16Z" fill="#EFA868"/><path d="m81.54 70.93.38.21-.68 1.09-.51-.29.81-1.01Z" fill="#E6E6E6"/><path d="M81.48 62.45c-.85.29-1.68.66-2.46 1.11-.15.26-1.37 3.44-1.57 3.91-.2.47-.48 1.8-.25 2.13.23.33 3.46 2.51 3.46 2.51l1-1.3-2.74-2.05.75-2.12 1.17-3.4.64-.79Z" fill="#3B3B38"/><path d="m85.39 63.33.26-.12-.38-.82-.63-.36s-.36 4.91-1.23 4.91c-.67 0-1.22-4.91-1.22-4.91l-.48.34-.33.63.41.17-.61.62s2.22 3.23 2.24 3.24c.23-.28 2.08-2.72 2.42-3.31l-.45-.39Z" fill="#626260"/><path d="M83.67 67.61a.18.18 0 1 1-.36 0 .18.18 0 0 1 .36 0Z" fill="#303030"/><path d="M86.39 55.33c-.77-.74-1.2-1.48-2.78-1.48-2.21 0-1.81.67-3.65.44a1.43 1.43 0 0 0 .62 1.74v.26c.02 1 .1 2 .23 3a3 3 0 0 0 .17 1.09A2.65 2.65 0 0 0 83.54 62 2.49 2.49 0 0 0 86 60.54c.18-1.01.31-2.03.39-3.06 0 0 .77-1.44 0-2.15Zm-2.87 4.9c-.58.02-1.14.2-1.63.51a7.64 7.64 0 0 1-.79-1.44c0-.42.08-1.22.09-1.5 0-.43 0-1.19.13-1.32.13-.13 1.91.27 2.3.27.39 0 1.53-.35 1.92-.34.39.01.4.71.41 1v2c-.2.45-.48.87-.83 1.22a3.53 3.53 0 0 0-1.6-.43v.03Z" fill="#5E300A"/><path d="M81.93 57.71c.31.01.62.05.93.12.21.05.43.08.65.09.2 0 .41-.02.62-.06.24 0 .48-.1.72-.13.22-.03.43-.03.65 0 .22.03.43.07.64.13h.13s.08 0 .07.1a.43.43 0 0 0 0 .16.1.1 0 0 1-.05.1.26.26 0 0 0-.11.12c-.04.1-.08.2-.1.31 0 .09-.05.19-.08.28a.83.83 0 0 1-.53.52c-.32.13-.68.13-1 0a1 1 0 0 1-.52-.55c-.05-.1-.09-.21-.12-.32a.55.55 0 0 0-.08-.15.15.15 0 0 0-.12-.07h-.15a.12.12 0 0 0-.1.06.49.49 0 0 0-.06.17c-.06.21-.16.4-.3.58a.91.91 0 0 1-.61.37c-.27.05-.54.03-.8-.06l-.15-.06a.59.59 0 0 1-.26-.28c-.1-.2-.17-.41-.22-.63a.4.4 0 0 0-.13-.21.3.3 0 0 1-.1-.17V57.92c.17 0 .33-.07.5-.1.17-.03.33-.06.5-.07l.18-.04Zm2 .57a.4.4 0 0 0 0 .19c.05.21.14.4.27.58.11.17.28.28.48.33.24.07.5.07.73 0a.63.63 0 0 0 .45-.4l.06-.19a2 2 0 0 0 .08-.54c-.3-.2-.65-.3-1-.28-.4.01-.77.14-1.1.36l.03-.05Zm-2.77 0c0 .24.06.47.15.69a.63.63 0 0 0 .43.38c.18.04.38.04.56 0a1 1 0 0 0 .59-.28 1.8 1.8 0 0 0 .35-.73 2 2 0 0 0-1.2-.41c-.49.06-.92.3-.91.4l.03-.05Z" fill="#26150A"/><path d="M79.96 54.26c1.84.23 1.44-.44 3.65-.44 1.58 0 2 .74 2.78 1.48a4.3 4.3 0 0 0-2.61-1.05c-1.8 0-2.64.84-3.82.01Z" fill="#723A10"/><path d="M79.96 54.25c-.1.83.84 2 3.53 2 .41 0 1.86-.13 2 .08-.66.17-1.33.3-2 .38-3.36.04-4.05-1.5-3.53-2.46Z" fill="#4C2406"/><path d="M84.39 60.89c0 .26-.4.41-.9.41s-.9-.15-.9-.41.35-.17.85-.17.95-.09.95.17Z" fill="#FFCB8A"/><path d="M15.22 41.33a3.73 3.73 0 1 0 0-7.46 3.73 3.73 0 0 0 0 7.46Z" fill="#F46F67"/><path d="M15.22 34.02a3.59 3.59 0 1 1 0 7.18 3.59 3.59 0 0 1 0-7.18Zm0-.29a3.88 3.88 0 1 0-.02 7.76 3.88 3.88 0 0 0 .02-7.76Z" fill="#F46F67"/><path opacity=".1" d="m16.26 35.16 8.23 8.23-8.3 5.04-3.1-3.09.92-3.54 2.12-5.5.13-1.14Z" fill="#000"/><path d="M17.27 40.16c-.07-.27-.94-.48-1.23-.55l-.35-.11h-.98a.48.48 0 0 1-.17.07c-.26.06-1.36.35-1.43.62-.06.33-.09.66-.08 1 0 .43 4.33.43 4.33 0 0-.35-.02-.7-.09-1.03Z" fill="#547486"/><path d="M17.27 40.16c-.06-.22-.82-.44-1.23-.55-.07 0 .92.34 1 .61.06.33.08.66.08 1 0 .07-.08.12-.23.16.29 0 .48-.12.48-.21 0-.34-.03-.68-.1-1.01Z" fill="#3F5765"/><path d="m15.86 39.55-.17-.05c-.16-.13 0-.49 0-.49h-.86c.1.29 0 .49-.08.49a.48.48 0 0 1-.17.07h-.16a1 1 0 0 0 .87.47.88.88 0 0 0 .79-.45l-.22-.04Z" fill="#F2B879"/><path d="M15.39 39.01a1.18 1.18 0 0 0 .29 1c.15-.08.28-.2.36-.35l-.18-.06-.17-.05c-.16-.13 0-.49 0-.49l-.3-.05Z" fill="#D39A62"/><path d="M16.68 37.5h-.13v-.8a1.32 1.32 0 0 0-1.33-1.34 1.36 1.36 0 0 0-1.38 1.34v.78h-.05a.29.29 0 1 0 0 .58h.07a1.38 1.38 0 0 0 1.36 1.34 1.37 1.37 0 0 0 1.36-1.35h.12a.29.29 0 1 0 0-.57l-.02.02Z" fill="#FFCB8A"/><path d="M16.68 37.5h-.13v-.8a1.32 1.32 0 0 0-1.33-1.34h-.25c0 .16-1.24 1.27-1.14 1.32.82.42 1.93-.26 2.29-.27.14.5.23 1.02.28 1.54a1.6 1.6 0 0 1-.44 1.19 1.34 1.34 0 0 0 .63-1.14h.12a.3.3 0 1 0 0-.57l-.03.07Z" fill="#F2B879"/><path d="M16.77 37.39c.1-.47.1-.97 0-1.44a1.22 1.22 0 0 0-.38-.74 2 2 0 0 0-.63-.32l-.22-.08c.08.04.14.1.18.18a2.41 2.41 0 0 0-.5-.06c-.27 0-.53.06-.78.15-.14.05-.26.12-.38.2-.1.08-.22.15-.34.2h.17v.07c-.16.23-.25.5-.28.78-.01.64.1 1.28.34 1.88v-1.39c.32-.05.62-.16.9-.32l-.35.25a6.53 6.53 0 0 0 1.49-.45l-.15.17a1 1 0 0 0 .37-.27 4 4 0 0 1 .35 2.25v-.14l.08.16a.47.47 0 0 0 0-.2c.03.06.08.1.15.13-.1-.33-.1-.68-.02-1.01Z" fill="#3B3B38"/><path opacity=".25" d="M99.91 52.62c-.54-5.8-3.62-11-8.47-15.07a6.91 6.91 0 0 1-1-10.2 14.91 14.91 0 0 0 3.59-10.62C93.15 6.13 79.4-1.27 63.51.2a38.87 38.87 0 0 0-16.6 5.34 21.45 21.45 0 0 1-9.92 3h-.34C14.71 9.86-2.26 23.64.23 38.11c.93 4.7 3.54 8.9 7.33 11.83a15.3 15.3 0 0 1 5.91 10.78c1.49 15.9 22 27 45.9 24.76 23.9-2.24 42.02-16.95 40.54-32.86Z" fill="#9BCDCA"/></svg>