<svg width="200" height="165" viewBox="0 0 200 165" fill="none" xmlns="http://www.w3.org/2000/svg">
        <path opacity="0.25" d="M0.0499668 51.78C-0.600033 63.19 4.15002 74.13 12.85 83.55C18.8 90 18.38 97.88 11.79 103.63C5.53996 109.08 1.68998 115.77 1.18998 123.15C-0.230018 143.98 25.7 162.55 58.74 164.36C70.8748 165.162 83.0394 163.33 94.3999 158.99C101.166 156.418 108.44 155.466 115.64 156.21L116.34 156.27C161.72 160.27 200.69 138.65 199.99 109.84C199.76 100.84 195.62 92.1799 188.55 84.6999C182.14 77.9199 179.09 70.18 179.63 62.5V62.0199C181.42 30.7199 142.63 3.01996 93.06 0.229965C43.49 -2.56004 1.83997 20.48 0.0499668 51.78Z" fill="#65BD83"/>
        <path d="M161.31 36.38H100.24V140.81H161.31V36.38Z" fill="#F2F9F8"/>
        <path d="M161.31 41.49H106.33V52.87H161.31V41.49Z" fill="#EDF4FF"/>
        <path d="M130.03 60.22H61.0601V141.17H130.03V60.22Z" fill="white"/>
        <path d="M131.11 57.28H59.3601V60.22H131.11V57.28Z" fill="#3FB9C0"/>
        <path d="M162.44 34.91H99.01V37.85H162.44V34.91Z" fill="#3FB9C0"/>
        <path d="M61.0699 69.8101H19.4399V101.87H61.0699V69.8101Z" fill="#F2F9F8"/>
        <path d="M61.0699 108.54H19.4399V140.6H61.0699V108.54Z" fill="#F2F9F8"/>
        <path d="M61.06 101.87H25.2V108.54H61.06V101.87Z" fill="#3FB9C0"/>
        <path d="M96.45 74.72C95.4256 74.7267 94.4377 74.3401 93.6899 73.64C93.3274 73.3119 93.0377 72.9115 92.8394 72.4645C92.641 72.0176 92.5386 71.534 92.5386 71.045C92.5386 70.5561 92.641 70.0725 92.8394 69.6255C93.0377 69.1786 93.3274 68.7781 93.6899 68.45C94.4417 67.7564 95.4271 67.3712 96.45 67.3712C97.4728 67.3712 98.4582 67.7564 99.21 68.45C99.5698 68.7798 99.857 69.1808 100.054 69.6275C100.25 70.0742 100.352 70.557 100.352 71.045C100.352 71.5331 100.25 72.0159 100.054 72.4626C99.857 72.9093 99.5698 73.3103 99.21 73.64C98.4622 74.3401 97.4743 74.7267 96.45 74.72ZM96.45 67.72C95.516 67.719 94.6173 68.077 93.9399 68.72C93.6128 69.0189 93.3515 69.3827 93.1727 69.7882C92.994 70.1937 92.9017 70.6319 92.9017 71.075C92.9017 71.5181 92.994 71.9564 93.1727 72.3619C93.3515 72.7673 93.6128 73.1312 93.9399 73.4301C94.6223 74.0555 95.5143 74.4024 96.4399 74.4024C97.3656 74.4024 98.2576 74.0555 98.9399 73.4301C99.2671 73.1312 99.5284 72.7673 99.7072 72.3619C99.8859 71.9564 99.9781 71.5181 99.9781 71.075C99.9781 70.6319 99.8859 70.1937 99.7072 69.7882C99.5284 69.3827 99.2671 69.0189 98.9399 68.72C98.2691 68.0781 97.3784 67.7168 96.45 67.71V67.72Z" fill="#65BD83"/>
        <path d="M98.9799 70.45H97.0899V68.67H95.8199V70.45H93.9299V71.64H95.8199V73.42H97.0899V71.64H98.9799V70.45Z" fill="#65BD83"/>
        <path d="M159.87 102.46H132.06V127.94H159.87V102.46Z" fill="#BDD7FD" stroke="white" stroke-miterlimit="10"/>
        <path d="M159.87 64.9399H132.06V90.4199H159.87V64.9399Z" fill="#BDD7FD" stroke="white" stroke-miterlimit="10"/>
        <path d="M161.31 42.1H106.91V52.14H161.31V42.1Z" fill="#BDD7FD"/>
        <path d="M61.0601 69.62H16.8301V72.79H61.0601V69.62Z" fill="#3FB9C0"/>
        <path d="M120.26 105.19H71.8V140.34H120.26V105.19Z" fill="#3FB9C0"/>
        <path d="M118.85 107.65H73.4199V140.46H118.85V107.65Z" fill="white"/>
        <path d="M117.22 109.72H75.1399V117.26H117.22V109.72Z" fill="#BDD7FD"/>
        <path d="M87.4499 119.31H75.1399V140.32H87.4499V119.31Z" fill="#BDD7FD"/>
        <path d="M103.75 119.31H88.6201V140.32H103.75V119.31Z" fill="#BDD7FD"/>
        <path d="M117.23 119.31H104.79V140.32H117.23V119.31Z" fill="#BDD7FD"/>
        <path d="M101.92 123.31H90.6001V140.34H101.92V123.31Z" fill="white"/>
        <path d="M101.38 124.08H91.1399V140.34H101.38V124.08Z" fill="#3FB9C0"/>
        <path d="M96.4501 124.08H96.0701V140.34H96.4501V124.08Z" fill="white"/>
        <path d="M95.1499 132.21C95.1499 132.02 95.2599 131.87 95.3999 131.87C95.5399 131.87 95.6399 132.02 95.6399 132.21C95.6399 132.4 95.5299 132.54 95.3999 132.54C95.2699 132.54 95.1499 132.35 95.1499 132.21Z" fill="white"/>
        <path d="M96.9299 132.21C96.9299 132.02 97.0399 131.87 97.1699 131.87C97.2999 131.87 97.4099 132.02 97.4099 132.21C97.4099 132.4 97.2999 132.54 97.1699 132.54C97.0399 132.54 96.9299 132.35 96.9299 132.21Z" fill="white"/>
        <path d="M104.8 120.86H104.82L104.8 121.02V120.86Z" fill="#CCE1FF"/>
        <path d="M68.3799 140.35C68.3799 140.35 68.0799 136.68 70.7599 135.75C73.4399 134.82 74.4999 131.49 77.6199 134.28C78.5016 134.996 79.1675 135.942 79.5435 137.014C79.9195 138.085 79.991 139.24 79.7499 140.35H68.3799Z" fill="#65BD83"/>
        <path d="M121 42.1H120.23V52.14H121V42.1Z" fill="#EDF4FF"/>
        <path d="M136.48 42.1H135.71V52.14H136.48V42.1Z" fill="#EDF4FF"/>
        <path d="M151.58 42.1H150.81V52.14H151.58V42.1Z" fill="#EDF4FF"/>
        <path d="M132.06 94.5601H59.99V98.0801H132.06V94.5601Z" fill="#3FB9C0"/>
        <path d="M105.33 110.87C105.571 110.659 105.87 110.527 106.189 110.493C106.507 110.458 106.828 110.522 107.108 110.676C107.389 110.83 107.615 111.066 107.757 111.353C107.899 111.64 107.948 111.964 107.9 112.28C107.9 112.28 112.9 112.13 110.49 108.84C109.875 107.969 109.621 106.894 109.78 105.84C109.78 104.96 109.27 102.41 107.44 102.67C107.263 102.601 107.071 102.578 106.882 102.603C106.693 102.627 106.514 102.698 106.36 102.81C105 103.69 101.93 111.84 105.33 110.87Z" fill="#163560"/>
        <path d="M113.42 113.82C113.42 113.82 113.74 113.23 114 113.22C114.26 113.21 114.74 113.05 114.71 113.16C114.68 113.27 114.37 113.29 114.34 113.36C114.31 113.43 114.78 113.53 114.92 113.54C115.06 113.55 115.37 113.54 115.36 113.62C115.088 113.87 114.729 114.002 114.36 113.99C114.057 113.975 113.754 114.022 113.47 114.13L113.42 113.82Z" fill="#8E4B32"/>
        <path d="M108.76 114.01C108.902 114.317 109.069 114.611 109.26 114.89C109.628 115.553 110.242 116.045 110.97 116.26C111.316 116.304 111.667 116.234 111.97 116.06C112.606 115.66 113.146 115.124 113.55 114.49C113.596 114.346 113.611 114.194 113.594 114.044C113.577 113.894 113.528 113.75 113.45 113.62C112.798 113.815 112.128 113.945 111.45 114.01C111.27 113.9 110.26 110.43 110.02 110.01C109.78 109.59 108.96 109.35 108.96 109.35L108.76 114.01Z" fill="#F46F67"/>
        <path d="M101.98 137.43C101.98 137.43 101.43 138.03 101.54 138.43C101.65 138.83 102.15 139.15 102.21 139.67C102.27 140.19 102.55 140.48 102.8 140.48H103.93C103.955 140.432 103.967 140.379 103.967 140.325C103.966 140.271 103.953 140.218 103.927 140.171C103.901 140.124 103.865 140.083 103.82 140.054C103.775 140.024 103.724 140.005 103.67 140C103.24 139.89 103.08 139.27 103.1 138.7C103.126 138.257 103.126 137.813 103.1 137.37L102.18 137.11L101.98 137.43Z" fill="#233862"/>
        <path d="M106.68 137.69C106.68 137.69 106.48 140.24 106.68 140.39H109.8C109.793 140.258 109.739 140.132 109.647 140.037C109.555 139.941 109.432 139.882 109.3 139.87C108.8 139.77 107.92 139.42 107.77 138.64C107.62 137.86 106.68 137.69 106.68 137.69Z" fill="#233862"/>
        <path d="M104.46 119.35C105.1 117.63 105.46 117.14 105.46 116.61C105.46 116.08 105.63 109.21 105.63 109.21C105.732 109.18 105.835 109.156 105.94 109.14C106.079 109.098 106.204 109.02 106.304 108.915C106.404 108.81 106.475 108.681 106.51 108.54C106.647 108.028 106.711 107.5 106.7 106.97H106.78L108.17 107.3C108.17 107.3 108.17 107.82 108.17 108.3C108.159 108.495 108.209 108.688 108.313 108.852C108.417 109.017 108.57 109.146 108.75 109.22L109.07 109.33C109.39 110.473 109.595 111.646 109.68 112.83C109.77 114.61 108.75 115.38 109.68 118.93C110.61 122.48 104.1 120.27 104.46 119.35Z" fill="#8E4B32"/>
        <path d="M108.13 107.28C108.13 107.28 108.13 107.8 108.13 108.28C107.36 108.28 106.95 107.41 106.78 106.94L108.13 107.28Z" fill="#6E3A27"/>
        <path d="M108.38 107.74C108.38 107.74 106.56 107.74 106.55 106.42C106.54 105.1 106.32 104.15 107.48 104.07C108.64 103.99 108.88 104.51 108.97 104.96C109.06 105.41 108.86 107.7 108.38 107.74Z" fill="#8E4B32"/>
        <path d="M108.32 104.04C108.32 104.04 107.82 105.63 107.05 105.87C106.28 106.11 105.95 105.87 105.95 105.87C106.341 105.443 106.589 104.905 106.66 104.33C106.66 104.33 107.93 103.28 108.32 104.04Z" fill="#163560"/>
        <path d="M108.19 104.16C108.411 104.267 108.596 104.438 108.72 104.65C108.904 105.04 108.986 105.47 108.96 105.9C109.179 105.355 109.179 104.745 108.96 104.2C108.47 103.55 108.19 104.16 108.19 104.16Z" fill="#163560"/>
        <path d="M104.71 112.28C104.71 112.28 104.71 113.28 104.71 114.28C104.717 114.754 104.767 115.226 104.86 115.69C105.05 116.21 105.26 116.29 105.26 116.29L106.9 116.77L107.47 116.94L109.29 116.29C109.72 114.9 109.886 113.441 109.78 111.99C109.592 111.086 109.311 110.205 108.94 109.36C108.94 109.36 107.46 111.09 105.54 109.21L104.71 112.28Z" fill="#F46F67"/>
        <path d="M109.22 116.68C109.644 118.148 109.978 119.641 110.22 121.15C110.22 122.29 108.5 137.3 108.43 137.82C108.351 138.156 108.142 138.447 107.85 138.63C107.765 138.681 107.67 138.712 107.571 138.721C107.472 138.73 107.372 138.716 107.28 138.68C107.046 138.625 106.832 138.507 106.66 138.34C106.66 138.34 105.96 127.63 106.39 123.81C106.658 121.442 106.805 119.063 106.83 116.68H109.22Z" fill="#034A89"/>
        <path d="M105.42 116.58C104.703 117.707 104.195 118.953 103.92 120.26C103.79 121.74 103.72 126.95 103.45 128.4C102.644 131.245 102.214 134.183 102.17 137.14C102.261 137.32 102.414 137.462 102.6 137.54C102.72 137.589 102.844 137.629 102.97 137.66C103.106 137.692 103.25 137.672 103.372 137.603C103.494 137.535 103.586 137.423 103.63 137.29C104.3 135.66 106.46 130.42 106.57 129.29C106.65 128.52 107.33 123.42 108.81 120.43C109.17 119.71 108.59 116.86 108.59 116.86L105.42 116.58Z" fill="#034A89"/>
        <path d="M109.36 116.16C109.055 116.399 108.677 116.526 108.29 116.52C107.43 116.52 105.29 116.26 105.29 116.26C105.233 116.472 105.203 116.69 105.2 116.91C105.2 116.91 107.79 117.69 109.29 117.02C109.407 116.749 109.431 116.447 109.36 116.16Z" fill="#233862"/>
        <path d="M108.1 116.87C108.1 116.58 108.28 116.34 108.49 116.34C108.7 116.34 108.88 116.58 108.88 116.87C108.88 117.16 108.71 117.4 108.49 117.4C108.27 117.4 108.1 117.16 108.1 116.87ZM108.23 116.87C108.23 117.08 108.35 117.25 108.49 117.25C108.63 117.25 108.75 117.08 108.75 116.87C108.75 116.66 108.64 116.5 108.49 116.5C108.34 116.5 108.23 116.67 108.23 116.87Z" fill="white"/>
        <path d="M102.01 121.86L106.08 122.9L106.57 120.18L102.5 119.13L102.01 121.86Z" fill="#163560"/>
        <path d="M106.57 120.18C106.258 120.489 105.876 120.718 105.456 120.847C105.036 120.976 104.592 121.001 104.16 120.92C103.766 120.764 103.412 120.523 103.123 120.213C102.834 119.904 102.618 119.534 102.49 119.13L106.57 120.18Z" fill="#17467F"/>
        <path d="M105.77 120C105.767 119.967 105.771 119.934 105.781 119.903C105.791 119.871 105.807 119.842 105.829 119.817C105.85 119.792 105.876 119.771 105.906 119.756C105.935 119.742 105.967 119.733 106 119.73C106.071 119.73 106.14 119.758 106.191 119.809C106.241 119.86 106.27 119.928 106.27 120C106.27 120.072 106.241 120.14 106.191 120.191C106.14 120.242 106.071 120.27 106 120.27C105.967 120.267 105.935 120.258 105.906 120.243C105.876 120.229 105.85 120.208 105.829 120.183C105.807 120.158 105.791 120.129 105.781 120.097C105.771 120.066 105.767 120.033 105.77 120ZM105.85 120C105.856 120.028 105.869 120.053 105.888 120.074C105.908 120.094 105.933 120.109 105.96 120.115C105.988 120.122 106.016 120.121 106.043 120.113C106.07 120.104 106.094 120.088 106.112 120.066C106.13 120.044 106.142 120.018 106.146 119.99C106.149 119.962 106.145 119.933 106.133 119.908C106.122 119.882 106.103 119.86 106.079 119.845C106.056 119.829 106.028 119.821 106 119.82C105.957 119.825 105.917 119.847 105.889 119.88C105.861 119.914 105.847 119.956 105.85 120Z" fill="#17467F"/>
        <path d="M102.68 120.35C102.681 120.548 102.661 120.746 102.62 120.94C102.56 121.13 102.37 121.38 102.3 121.38C102.23 121.38 102.36 120.98 102.3 120.99C102.24 121 102.12 121.65 102.01 121.67C101.9 121.69 101.8 120.94 101.86 120.67C101.921 120.438 102.023 120.218 102.16 120.02L102.68 120.35Z" fill="#8E4B32"/>
        <path d="M105.59 109.18C105.232 109.277 104.902 109.459 104.63 109.712C104.358 109.964 104.152 110.28 104.03 110.63C103.61 111.63 103.32 114.73 103.03 115.71C102.653 117.092 102.355 118.494 102.14 119.91C102.127 119.962 102.132 120.017 102.154 120.066C102.175 120.115 102.213 120.155 102.26 120.18L102.64 120.36C102.66 120.368 102.681 120.372 102.702 120.372C102.723 120.372 102.744 120.368 102.764 120.359C102.783 120.351 102.801 120.339 102.816 120.323C102.831 120.308 102.842 120.29 102.85 120.27C103.651 118.7 104.349 117.08 104.94 115.42C105.246 114.358 105.763 113.368 106.46 112.51L105.59 109.18Z" fill="#F46F67"/>
        <path d="M106.07 119.79C106.07 119.74 106.31 115.3 106.27 112.79C106.259 111.854 106.148 110.922 105.94 110.01C105.873 109.702 105.74 109.412 105.55 109.16H105.48C105.968 110.295 106.197 111.525 106.15 112.76C106.15 115.25 105.96 119.68 105.96 119.76L106.07 119.79Z" fill="#0C2442"/>
        <path d="M129.59 138.11L130.17 137.89C130.232 136.555 130.188 135.218 130.04 133.89C129.904 132.47 129.567 131.076 129.04 129.75C128.821 129.229 128.52 128.747 128.15 128.32L127.15 125.5C126.5 123.7 122.42 123.17 124.75 126.94C125.22 127.71 125.75 129.07 126.35 129.94C127.339 131.319 128.114 132.84 128.65 134.45C129.064 135.642 129.379 136.866 129.59 138.11Z" fill="#FFB27D"/>
        <path d="M130.93 138.21C131.1 138.55 130.73 138.87 130.26 139.21C129.79 139.55 129.98 139.55 129.39 140.07C128.8 140.59 128.39 140.54 128.39 140.46C128.39 140.38 128.56 140.07 128.81 139.72L128.91 139.58C129.152 139.137 129.308 138.651 129.37 138.15C129.425 137.57 129.402 136.984 129.3 136.41L130.1 135.67C130.1 135.67 130.26 136.79 130.35 137.26C130.415 137.52 130.554 137.756 130.75 137.94C130.82 138.023 130.881 138.113 130.93 138.21Z" fill="#FFB27D"/>
        <path d="M130.24 139.18C129.77 139.49 129.96 139.52 129.37 140.04C128.78 140.56 128.37 140.51 128.37 140.43C128.37 140.35 128.54 140.04 128.79 139.69C129.174 139.609 129.524 139.409 129.79 139.12C130.17 138.73 130.46 138.18 130.72 137.91C130.81 137.999 130.887 138.1 130.95 138.21C131.08 138.55 130.71 138.87 130.24 139.18Z" fill="#034A89"/>
        <path d="M125.6 102.76C126.049 102.726 126.497 102.838 126.877 103.08C127.258 103.321 127.55 103.679 127.71 104.1C128.42 105.64 128.36 107.87 129.05 108.93C129.231 109.237 129.316 109.591 129.297 109.947C129.277 110.302 129.153 110.644 128.94 110.93L123.59 111.14C123.363 110.292 123.363 109.398 123.59 108.55C123.93 107.19 122.14 102.97 125.6 102.76Z" fill="#B64C41"/>
        <path d="M121.07 121.47C121.07 121.71 121.3 122.27 121.44 122.27C121.58 122.27 121.59 121.59 121.74 121.44C121.927 121.221 122.066 120.966 122.15 120.69C122.167 120.593 122.205 120.501 122.26 120.42C122.973 118.94 123.585 117.413 124.09 115.85C124.09 115.55 124.24 114.94 124.37 114.26C124.5 113.58 124.68 112.69 124.8 112.08C124.268 111.964 123.725 111.904 123.18 111.9C123.08 112.65 122.99 113.42 122.91 114.09C122.8 115.09 122.71 115.86 122.66 116.02C122.51 116.48 122.11 118.92 121.72 120.19C121.665 120.4 121.562 120.595 121.42 120.76C121.309 120.841 121.218 120.948 121.157 121.072C121.096 121.195 121.066 121.332 121.07 121.47Z" fill="#E8945B"/>
        <path d="M124.13 117.88C125.07 114.36 123.19 114.41 123.28 112.65C123.441 111.359 123.871 110.116 124.54 109H124.65C124.672 109 124.694 108.992 124.71 108.977C124.727 108.962 124.738 108.942 124.74 108.92C124.772 108.668 124.772 108.412 124.74 108.16C124.74 107.68 124.74 107.16 124.74 107.16L126.13 106.83H126.21C126.19 107.439 126.285 108.046 126.49 108.62C126.519 108.695 126.566 108.762 126.627 108.815C126.688 108.867 126.761 108.903 126.84 108.92C127.246 108.977 127.643 109.088 128.02 109.25C128.168 109.302 128.29 109.409 128.36 109.55C128.832 111.271 129.167 113.026 129.36 114.8C129.51 115.8 129.63 116.55 129.69 116.71C129.85 117.17 130.36 119.66 130.79 120.9L130.24 121.09C129.472 119.647 128.804 118.154 128.24 116.62C128.24 116.32 128.06 115.71 127.9 115.04C127.9 114.94 127.9 114.83 127.83 114.73C127.617 115.257 127.482 115.813 127.43 116.38C127.648 117.322 127.984 118.232 128.43 119.09C128.8 120.01 123.18 121.46 124.13 117.88Z" fill="#FFB27D"/>
        <path d="M124.76 107.16C124.76 107.16 124.76 107.67 124.76 108.16C125.54 108.16 125.95 107.3 126.12 106.84L124.76 107.16Z" fill="#E8945B"/>
        <path d="M124.5 107.61C124.5 107.61 126.34 107.61 126.34 106.3C126.34 104.99 126.58 104.06 125.41 103.98C124.24 103.9 124.01 104.41 123.91 104.86C123.81 105.31 124.02 107.57 124.5 107.61Z" fill="#FFB27D"/>
        <path d="M121.93 138.98L122.52 139.15C123.19 138.026 123.759 136.845 124.22 135.62C124.745 134.297 125.082 132.907 125.22 131.49C125.257 130.897 125.217 130.302 125.1 129.72C125.1 129.72 125.26 128.41 125.49 126.72C125.74 124.78 126.06 122.31 126.32 120.5L126.16 120.44L123.66 118.72C122.876 121.217 122.584 123.842 122.8 126.45C122.86 127.45 122.68 128.88 122.8 129.96C123.019 131.711 122.996 133.485 122.73 135.23C122.566 136.5 122.299 137.754 121.93 138.98Z" fill="#FFB27D"/>
        <path d="M128 114.35C127.737 114.99 127.566 115.663 127.49 116.35C127.173 115.767 126.733 115.26 126.202 114.863C125.67 114.466 125.059 114.189 124.41 114.05L128.17 113.54C128.138 113.815 128.081 114.086 128 114.35Z" fill="#CB7D45"/>
        <path d="M123.93 104.11C124.21 103.71 124.43 103.79 124.55 103.92C124.678 103.831 124.823 103.769 124.976 103.736C125.129 103.703 125.286 103.702 125.44 103.73C125.593 103.759 125.74 103.818 125.87 103.904C126.001 103.99 126.113 104.101 126.2 104.23C126.269 104.799 126.518 105.332 126.91 105.75C126.556 105.885 126.164 105.885 125.81 105.75C124.88 105.52 124.63 104.29 124.59 104.13C124.414 104.31 124.278 104.524 124.19 104.76C124.1 105.1 124.06 105.81 123.88 105.76C123.682 105.224 123.7 104.633 123.93 104.11Z" fill="#B64C41"/>
        <path d="M130.8 120.77C130.875 120.987 130.99 121.187 131.14 121.36C131.252 121.438 131.345 121.541 131.411 121.661C131.476 121.78 131.514 121.914 131.52 122.05C131.52 122.3 131.43 122.69 131.21 122.69C130.99 122.69 130.47 121.55 130.41 121.33C130.391 121.235 130.35 121.146 130.29 121.07L130.8 120.77Z" fill="#FFB27D"/>
        <path d="M122.14 130.98C124.36 132.47 130.2 130.1 130.14 129.98C130.14 129.25 129.55 124.86 128.89 120.67C128.49 118.09 127.41 117.13 127.58 116.97C128.25 116.42 127.96 115.46 127.92 115.12C128.194 115.198 128.481 115.213 128.762 115.164C129.042 115.116 129.308 115.005 129.54 114.84C129.289 113.049 128.888 111.283 128.34 109.56C128.315 109.508 128.277 109.463 128.23 109.43C127.853 109.177 127.421 109.016 126.97 108.96C126.97 108.96 126.51 110.28 126.37 110.49C125.47 111.82 123.84 111.22 124.06 110.39C124.14 110.09 124.55 109.14 124.6 109.03H124.49L123.88 109.14C123.731 109.148 123.589 109.2 123.47 109.29C123.051 109.955 122.851 110.735 122.9 111.52C122.9 111.99 122.48 117.11 123.81 117.02C123.81 117.02 123.81 117.1 123.81 117.26C123.354 118.352 123.058 119.504 122.93 120.68C122.43 125.96 122.14 130.98 122.14 130.98Z" fill="#9BCDCA"/>
        <path d="M130.41 121.35C130.429 121.572 130.486 121.788 130.58 121.99C130.7 122.11 130.72 122.33 130.84 122.21C130.96 122.09 130.41 121.35 130.41 121.35Z" fill="#FFB27D"/>
        <path d="M123.01 139.88C123.01 140.27 122.54 140.32 122.01 140.29C121.48 140.26 121.62 140.41 120.88 140.48C120.14 140.55 119.88 140.29 119.82 140.17C119.76 140.05 120.13 139.94 120.51 139.8L120.65 139.74C121.08 139.58 121.34 139.17 121.65 138.81C121.957 138.339 122.196 137.827 122.36 137.29L123.36 137.15C123.36 137.15 123 138.2 122.86 138.66C122.795 138.929 122.795 139.211 122.86 139.48C122.926 139.607 122.976 139.741 123.01 139.88Z" fill="#FFB27D"/>
        <path d="M122.01 140.29C121.47 140.29 121.62 140.41 120.88 140.48C120.14 140.55 119.88 140.29 119.82 140.17C119.76 140.05 120.13 139.94 120.51 139.8C120.857 139.96 121.244 140.009 121.62 139.94C122.11 139.84 122.62 139.55 122.95 139.48C122.985 139.611 123.005 139.745 123.01 139.88C123.01 140.27 122.54 140.35 122.01 140.29Z" fill="#034A89"/>
        <path d="M122.14 130.98C124.36 132.47 130.2 130.1 130.14 129.98C130.14 129.25 129.55 124.86 128.89 120.67C128.49 118.09 127.41 117.13 127.58 116.97C127.33 117.178 127.041 117.334 126.731 117.428C126.42 117.523 126.093 117.554 125.77 117.52C125.099 117.469 124.431 117.379 123.77 117.25C123.314 118.342 123.018 119.494 122.89 120.67C122.43 125.96 122.14 130.98 122.14 130.98Z" fill="#8EDAA7"/>
        <path d="M127.63 116.94C127.033 117.191 126.392 117.32 125.745 117.32C125.098 117.32 124.457 117.191 123.86 116.94L123.76 117.3C125.056 117.79 126.493 117.75 127.76 117.19L127.63 116.94Z" fill="#1FA3AA"/>
        <path d="M28.9201 81.3199H24.3101V91.4299H28.9201V81.3199Z" fill="#BDD7FD"/>
        <path d="M29.1101 91.75H24.03V80.99H29.1101V91.75ZM24.5 91.1H28.64V81.64H24.5V91.1Z" fill="white"/>
        <path d="M28.6999 84.7H24.4399V85.19H28.6999V84.7Z" fill="white"/>
        <path d="M28.6999 88.0601H24.4399V88.5501H28.6999V88.0601Z" fill="white"/>
        <path d="M26.75 91.4199V81.27H26.4V91.4199H26.75Z" fill="white"/>
        <path d="M42.2399 81.3199H37.6299V91.4299H42.2399V81.3199Z" fill="#BDD7FD"/>
        <path d="M42.42 91.75H37.3401V80.99H42.42V91.75ZM37.8101 91.1H41.9301V81.64H37.78L37.8101 91.1Z" fill="white"/>
        <path d="M42.02 84.7H37.76V85.19H42.02V84.7Z" fill="white"/>
        <path d="M42.02 88.0601H37.76V88.5501H42.02V88.0601Z" fill="white"/>
        <path d="M40.0701 91.42V81.27H39.7201V91.42H40.0701Z" fill="white"/>
        <path d="M55.5499 81.3199H50.9399V91.4299H55.5499V81.3199Z" fill="#BDD7FD"/>
        <path d="M55.74 91.75H50.6599V80.99H55.74V91.75ZM51.1299 91.1H55.2699V81.64H51.1299V91.1Z" fill="white"/>
        <path d="M55.3301 84.7H51.0701V85.19H55.3301V84.7Z" fill="white"/>
        <path d="M55.3301 88.0601H51.0701V88.5501H55.3301V88.0601Z" fill="white"/>
        <path d="M53.3799 91.4199V81.2699H53.0299V91.4199H53.3799Z" fill="white"/>
        <path d="M28.9201 115.97H24.3101V126.08H28.9201V115.97Z" fill="#BDD7FD"/>
        <path d="M29.1101 126.4H24.03V115.64H29.1101V126.4ZM24.5 125.75H28.64V116.29H24.5V125.75Z" fill="white"/>
        <path d="M28.6999 119.35H24.4399V119.84H28.6999V119.35Z" fill="white"/>
        <path d="M28.6999 122.71H24.4399V123.2H28.6999V122.71Z" fill="white"/>
        <path d="M26.75 126.07V115.92H26.4V126.07H26.75Z" fill="white"/>
        <path d="M42.2399 115.97H37.6299V126.08H42.2399V115.97Z" fill="#BDD7FD"/>
        <path d="M42.42 126.4H37.3401V115.64H42.42V126.4ZM37.8101 125.75H41.9301V116.29H37.78L37.8101 125.75Z" fill="white"/>
        <path d="M42.02 119.35H37.76V119.84H42.02V119.35Z" fill="white"/>
        <path d="M42.02 122.71H37.76V123.2H42.02V122.71Z" fill="white"/>
        <path d="M40.0701 126.08V115.93H39.72V126.08H40.0701Z" fill="white"/>
        <path d="M55.5499 115.97H50.9399V126.08H55.5499V115.97Z" fill="#BDD7FD"/>
        <path d="M55.74 126.4H50.6599V115.64H55.74V126.4ZM51.1299 125.75H55.2699V116.29H51.1299V125.75Z" fill="white"/>
        <path d="M55.3301 119.35H51.0701V119.84H55.3301V119.35Z" fill="white"/>
        <path d="M55.3301 122.71H51.0701V123.2H55.3301V122.71Z" fill="white"/>
        <path d="M53.3801 126.07V115.92H53.0301V126.07H53.3801Z" fill="white"/>
        <path d="M173.27 102.4C170.644 104.697 168.143 107.134 165.78 109.7C165.02 110.49 164.26 111.29 163.54 112.13C163.54 109.87 163.49 107.61 163.39 105.35C163.39 105.05 163.39 104.75 163.39 104.45C163.39 102.27 160.94 102.31 160.83 104.45C160.76 105.89 160.66 107.31 160.53 108.74C160.38 109.93 160.22 111.12 160.09 112.31C158.34 110.44 156.52 108.66 154.66 106.99C153.47 105.92 151.97 108.42 153.11 109.63C154.63 111.26 156.24 112.81 157.67 114.57C159.26 116.57 159.34 118.73 159.3 121.47C159.239 125.664 158.905 129.85 158.3 134C158.008 135.461 157.586 136.894 157.04 138.28C156.719 138.583 156.529 138.999 156.51 139.44C156.391 139.902 156.426 140.39 156.61 140.83C156.683 140.95 156.753 141.06 156.82 141.16H156.96H157.07L158.21 141.22C158.348 141.19 158.491 141.19 158.63 141.22L158.91 140.96C159.24 140.78 160.65 140.22 160.91 140.6C161.008 140.751 161.142 140.874 161.3 140.96C161.458 141.046 161.635 141.091 161.815 141.091C161.995 141.091 162.172 141.046 162.33 140.96C162.488 140.874 162.622 140.751 162.72 140.6L162.78 140.51L162.86 140.56L162.97 140.63C164.43 141.48 165.71 138.74 164.33 137.78C164.293 137.57 164.222 137.367 164.12 137.18C164.094 136.952 164.023 136.73 163.91 136.53C163.8 135.36 163.83 133.71 163.81 133.24C163.72 131.41 163.68 129.59 163.67 127.76C163.67 127.24 163.67 126.76 163.67 126.19C163.94 123.19 164.14 120.19 164.33 117.14C165.43 115.14 167.24 113.48 168.64 111.9L174.76 105.03C175.93 103.8 174.48 101.35 173.27 102.4Z" fill="#704B3B"/>
        <path d="M191.83 103.08C191.744 102.24 191.394 101.449 190.83 100.82C190.259 100.23 189.511 99.8405 188.7 99.7106C187.889 99.5808 187.057 99.7175 186.33 100.1L185.85 100.18C185.762 99.2098 185.536 98.257 185.18 97.3501C184.56 95.6601 183.3 94.35 181.82 94.59H181.68C181.576 93.9429 181.307 93.3333 180.9 92.82C179.8 91.39 178.09 91.33 176.64 91.57C175.64 91.73 174.71 91.9301 173.75 92.1701C173.227 92.2714 172.712 92.4118 172.21 92.59L172.15 92.39C172.86 90.84 172.87 88.6901 171.63 87.6101C170.12 86.3101 168.07 87.3 166.49 87.76L163.29 88.7C163.2 88.7 162.98 88.7601 162.8 88.8001C162.649 88.3352 162.388 87.9134 162.04 87.57C160.54 85.95 157.85 86.3301 156.04 86.5001C153.969 86.7135 151.945 87.2499 150.04 88.09C149.323 87.7349 148.535 87.5501 147.735 87.5501C146.935 87.5501 146.146 87.7349 145.43 88.09C143.52 88.99 140.9 91.29 141.04 94.32C141.055 94.596 141.119 94.8671 141.23 95.1201L137.88 97.28C136.59 98.11 134.69 98.85 133.88 100.51C133.549 101.181 133.426 101.934 133.525 102.675C133.625 103.416 133.944 104.111 134.44 104.67C134.567 104.804 134.704 104.928 134.85 105.04C133.861 105.78 132.944 106.61 132.11 107.52C130.62 109.14 127.98 112.8 130.53 114.97C132.44 116.59 135.53 114.6 137.37 113.75C139.119 112.943 140.825 112.045 142.48 111.06C142.482 111.482 142.604 111.894 142.83 112.25C144.31 114.72 147.54 111.93 149.12 111.01C151.27 109.75 153.39 108.39 155.49 107.01C155.826 107.465 156.295 107.805 156.832 107.984C157.369 108.163 157.948 108.172 158.49 108.01C160.162 107.445 161.683 106.508 162.94 105.27C163.272 105.755 163.705 106.162 164.209 106.464C164.713 106.766 165.276 106.956 165.86 107.02C167.433 107.17 169.008 106.744 170.29 105.82C170.575 106.415 170.994 106.937 171.515 107.343C172.035 107.749 172.643 108.028 173.29 108.16C175.623 108.363 177.972 108.295 180.29 107.96C180.334 108.653 180.538 109.327 180.885 109.929C181.232 110.53 181.712 111.044 182.29 111.43C183.142 111.894 184.138 112.022 185.08 111.79C185.688 111.643 186.276 111.421 186.83 111.13C187.16 110.97 187.57 110.66 187.96 110.51C188.288 111.122 188.794 111.62 189.41 111.94C189.812 112.103 190.244 112.18 190.678 112.166C191.112 112.152 191.539 112.048 191.93 111.86C193.27 111.25 195.55 108.62 195.43 106.59C195.352 105.67 194.946 104.809 194.284 104.164C193.623 103.519 192.752 103.134 191.83 103.08Z" fill="#65BD83"/>
</svg>
