<svg width="430" height="1418" viewBox="0 0 430 1418" fill="none" xmlns="http://www.w3.org/2000/svg">
    <path d="M343.081 83.6293C345.963 79.8565 444.771 121.34 485.483 147.987C500.037 147.331 531.235 145.034 539.594 141.096C550.042 136.174 596.609 166.101 609.101 173.096C621.592 180.091 606.239 189.193 604.483 188.209L557.446 161.867C531.097 147.112 490.919 177.195 490.354 189.192C501.381 200.326 523.543 225.426 523.972 236.748C524.4 248.069 521.429 260.975 519.89 266.012C517.314 263.287 512.954 255.048 516.123 243.895C520.085 229.954 493.824 209.091 486.939 202.157C480.054 195.223 478.015 200.237 475.39 204.924C472.766 209.61 494.127 215.417 501.527 224.178C508.927 232.939 505.163 270.334 501.226 277.364C497.289 284.393 499.492 246.124 495.622 234.722C491.752 223.321 472.766 209.61 467.542 212.071C462.318 214.532 481.685 230.765 491.685 241.752C501.684 252.739 497.339 270.57 490.52 281.372C487.482 286.186 486.416 282.477 485.613 275.69C483.519 284.752 478.138 293.509 475.409 295.995C470.7 300.284 474.844 271.824 468.827 259.22C462.81 246.615 438.023 232.734 434.086 239.764C430.149 246.793 454.704 252.849 462.594 270.35C470.484 287.85 464.826 308.025 462.53 312.125C460.233 316.226 454.65 285.909 449.476 274.546C444.302 263.184 425.021 240.843 419.772 250.216C414.523 259.589 447.835 277.475 451.588 291.376C454.59 302.497 454.228 320.387 453.672 327.942C451.07 326.485 445.304 320.177 443.058 306.607C440.251 289.645 425.062 265.491 415.436 259.331C405.811 253.171 405.856 258.583 402.209 263.723C398.561 268.863 422.474 284.306 428.914 287.913C435.355 291.52 438.069 340.238 434.273 344.268C430.478 348.299 427.714 313.405 424.413 306.939C421.111 300.473 393.002 267.801 390.706 271.902C388.409 276.003 407.237 297.32 411.319 304.223C415.401 311.127 410.072 366.883 404.262 369.016C398.452 371.149 402.352 320.236 398.708 312.551L398.65 312.429C394.935 304.597 382.837 279.087 378.921 286.079C374.984 293.109 399.047 333.005 396.983 344.932C394.919 356.858 384.564 395.948 380.254 398.152C375.943 400.355 380.227 345.552 379.645 325.988C379.064 306.424 370.981 282.402 364.747 293.533C358.514 304.663 368.91 356.144 367.651 368.008C366.391 379.871 350.602 419.51 345.05 422.557C339.498 425.603 357.553 342.088 357.134 331.85C356.715 321.611 355.406 304.718 352.126 310.576C348.845 316.434 347.951 371.596 341.692 389.638C335.434 407.68 316.092 450.459 309.767 450.765C303.443 451.071 326.631 390.438 333.429 367.311C340.227 344.185 340.315 331.665 336.707 338.109C333.098 344.553 317.57 372.281 314.335 383.552C311.1 394.822 289.341 457.025 284.328 454.987C279.316 452.95 286.23 433.736 292.199 417.584C298.168 401.432 328.314 333.409 324.216 331.114C320.117 328.819 286.598 398.287 279.708 410.589C272.819 422.891 247.075 463.367 242.532 457.744C237.988 452.122 313.26 338.317 310.66 336.091C308.06 333.866 262.612 397.167 251.811 409.586C241.009 422.006 218.571 449.712 218.737 439.802C218.903 429.891 302.417 326.089 305.479 320.621C308.541 315.154 277.443 345.962 265.541 356.226C253.64 366.491 202.455 417.601 198.755 413.22C195.055 408.84 214.142 388.491 228.481 371.127C242.821 353.763 314.034 298.478 317.971 291.449C321.907 284.419 248.441 325.872 223.756 343.856C199.071 361.839 180.251 374.385 182.329 370.675C184.406 366.965 201.847 345.437 220.261 330.868C238.675 316.299 312.726 281.586 315.022 277.485C317.319 273.384 275.028 286.638 253.173 291.328C231.317 296.018 163.106 332.207 159.149 326.913C155.192 321.618 223.613 287.343 237.168 282.365C250.724 277.388 326.286 257.372 328.582 253.272C330.879 249.171 270.56 260.28 248.651 261.862C226.741 263.444 161.227 287.035 162.211 285.277C163.195 283.52 196.51 258.826 231.67 252.353C266.831 245.88 333.503 244.485 333.67 234.574C333.836 224.663 292.857 235.573 277.796 236.373C262.734 237.172 173.716 234.518 175.684 231.003C177.653 227.489 234.434 221.324 249.495 220.524C264.557 219.725 346.009 223.528 348.376 217.928C350.743 212.328 318.558 213.029 291.902 211.183C265.246 209.337 191.238 196.363 194.847 189.92C198.455 183.476 364.775 207.873 367.727 202.601C370.68 197.329 319.212 188.513 299.35 182.777C279.488 177.041 205.673 170.588 208.954 164.73C212.234 158.872 281.755 162.92 301.688 167.157C321.621 171.394 380.027 190.251 381.59 184.714C383.153 179.176 335.52 167.634 324.581 163.817C313.643 160.001 231.604 132.525 232.987 128.682C234.369 124.84 287.125 138.224 321.086 150.83C355.048 163.437 403.329 176.111 400.987 174.799C398.645 173.488 252.775 112.575 254.744 109.06C256.712 105.545 288.152 118.535 309.841 123.755C331.53 128.976 426.597 177.598 425.123 170.616C423.648 163.634 367.397 143.675 349.503 134.424C331.609 125.173 268.124 86.5411 273.863 85.9074C279.602 85.2737 434.213 162.625 436.876 159.243C439.539 155.861 394.407 131.611 382.501 124.944C370.596 118.277 298.442 85.0513 303.846 80.8954C309.25 76.7395 448.192 148.65 449.06 142.98C449.928 137.31 340.199 87.402 343.081 83.6293Z" fill="#A7DBB9"/>
    <path d="M402.386 223.843C406.359 221.244 485.738 293.236 515.266 331.91C529.209 336.133 559.395 344.346 568.587 343.414C580.077 342.248 614.036 385.962 623.489 396.714C632.941 407.467 615.435 410.942 614.106 409.43L578.512 368.94C558.573 346.26 510.675 361.263 506.151 372.388C512.846 386.557 525.396 417.6 522.033 428.419C518.671 439.238 511.575 450.42 508.448 454.659C506.925 451.232 505.554 442.012 512.254 432.548C520.628 420.719 502.804 392.308 498.618 383.478C494.432 374.649 490.84 378.699 486.806 382.246C482.772 385.792 500.985 398.374 505.049 409.098C509.112 419.822 493.122 453.835 487.071 459.154C481.02 464.474 495.828 429.117 495.972 417.078C496.115 405.038 482.772 385.792 477.027 386.375C471.282 386.958 484.146 408.71 489.921 422.397C495.695 436.085 485.666 451.454 475.641 459.373C471.174 462.902 471.403 459.05 472.904 452.382C467.914 460.231 459.927 466.7 456.526 468.136C450.658 470.613 464.035 445.153 462.554 431.265C461.073 417.377 442.315 396.04 436.264 401.36C430.213 406.679 451.354 420.559 452.973 439.688C454.591 458.816 442.544 475.959 439.014 479.062C435.484 482.165 440.305 451.718 439.205 439.281C438.106 426.844 427.356 399.362 419.288 406.455C411.22 413.548 436.684 441.497 435.598 455.855C434.729 467.341 428.437 484.092 425.399 491.031C423.43 488.791 420.09 480.925 422.487 467.381C425.483 450.45 419.195 422.62 412.167 413.608C405.139 404.597 403.381 409.716 398.232 413.349C393.082 416.983 410.495 439.502 415.368 445.046C420.242 450.59 406.594 497.436 401.674 499.974C396.753 502.512 405.756 468.686 404.794 461.49C403.831 454.294 388.193 414.133 384.663 417.236C381.133 420.339 391.797 446.706 393.349 454.574C394.902 462.442 371.327 513.249 365.139 513.328C358.95 513.407 379.566 466.691 378.686 458.231L378.672 458.096C377.774 449.475 374.852 421.393 368.832 426.685C362.781 432.004 372.2 477.633 366.286 488.193C360.372 498.754 337.603 532.173 332.805 532.817C328.007 533.46 350.279 483.204 356.239 464.561C362.2 445.918 362.568 420.575 352.987 428.998C343.406 437.421 336.083 489.428 330.948 500.197C325.814 510.966 297.737 543.093 291.487 544.12C285.238 545.146 330.049 472.395 333.06 462.6C336.07 452.805 340.457 436.439 335.414 440.872C330.372 445.305 311.176 497.027 299.272 511.959C287.368 526.892 254.896 560.799 248.83 558.983C242.764 557.168 284.803 507.703 298.907 488.155C313.012 468.607 317.261 456.831 311.714 461.707C306.167 466.583 282.298 487.566 275.498 497.118C268.698 506.67 227.484 558.091 223.435 554.502C219.386 550.913 232.299 535.094 243.301 521.847C254.304 508.601 305.363 454.483 302.261 450.955C299.16 447.426 244.439 501.786 233.849 511.095C223.259 520.404 185.516 550.01 183.102 543.197C180.688 536.383 289.533 454.102 287.822 451.139C286.11 448.175 222.192 492.75 207.874 500.869C193.556 508.988 163.179 527.651 166.632 518.36C170.086 509.069 283.376 438.963 288.083 434.826C292.789 430.688 253.213 449.396 238.575 455.116C223.936 460.837 158.663 492.007 156.631 486.645C154.6 481.283 179.369 468.444 198.669 456.839C217.968 445.234 303.517 416.79 309.568 411.471C315.619 406.151 232.547 420.802 203.285 429.549C174.023 438.295 152.101 443.866 155.295 441.058C158.489 438.251 182.097 423.752 204.31 416.139C226.522 408.525 307.903 400.425 311.433 397.322C314.963 394.219 270.672 392.648 248.501 389.8C226.33 386.952 149.965 398.386 147.995 392.077C146.025 385.768 221.951 376.208 236.39 376.023C250.83 375.839 328.746 382.102 332.276 378.999C335.806 375.896 275.227 366.305 254.039 360.508C232.852 354.711 163.221 355.162 164.734 353.832C166.247 352.502 205.879 340.299 241.19 345.891C276.502 351.484 339.84 372.349 343.294 363.058C346.748 353.767 304.474 350.423 290.004 346.167C275.535 341.91 192.47 309.792 195.496 307.132C198.521 304.473 254.119 317.549 268.589 321.806C283.058 326.063 358.605 356.747 362.7 352.253C366.796 347.76 336.211 337.714 311.688 327.105C287.164 316.496 221.688 279.64 227.235 274.764C232.781 269.887 381.51 348.227 386.049 344.238C390.587 340.248 344.983 314.812 328.161 302.795C311.339 290.777 243.875 260.135 248.918 255.702C253.961 251.269 318.175 278.215 335.563 288.842C352.95 299.469 401.757 336.683 405.073 331.981C408.389 327.279 367.308 300.548 358.263 293.309C349.218 286.071 280.992 232.867 283.575 229.703C286.157 226.539 331.455 256.712 359.288 279.899C387.121 303.086 428.436 331.1 426.663 329.084C424.891 327.068 307.595 221.096 310.621 218.437C313.646 215.777 338.974 238.486 357.691 250.625C376.408 262.764 449.883 340.244 450.815 333.169C451.748 326.095 405.341 288.558 391.544 273.881C377.747 259.204 330.73 201.652 336.353 202.964C341.976 204.275 462.046 328.657 465.683 326.354C469.32 324.05 434.826 286.168 425.816 275.919C416.807 265.671 359.817 210.334 366.296 208.212C372.775 206.091 479.879 320.129 482.584 315.071C485.289 310.012 398.413 226.442 402.386 223.843Z" fill="#65BD83"/>
    <path d="M219.347 1166.3C207.382 1206.76 281.335 1226.76 319.807 1231.7L449.346 1168.42C489.772 1105.4 507.932 1013.78 456.859 1021.42C393.017 1030.98 437.997 1102.75 396.122 1087.15C354.246 1071.55 468.548 990.466 398.223 977.052C351.503 968.141 383.118 1043.93 346.964 1036.35C310.81 1028.77 401.64 960.059 341.416 930.887C304.355 912.935 331.266 971.002 310.161 981.312C293.807 989.301 304.324 867.879 251.232 890.21C198.14 912.542 291.679 982.228 269.407 1001.22C247.136 1020.21 248.431 958.284 215.244 982.61C174.996 1012.11 272.595 1048.34 274.917 1071.55C277.239 1094.75 216.926 1035.87 206.098 1070.91C195.271 1105.95 287.549 1115.85 284.777 1141.55C282.004 1167.24 234.302 1115.73 219.347 1166.3Z" fill="#009AA3"/>
    <path d="M7.3385 1184.85C-18.1893 1215.5 38.5295 1260.54 70.0798 1279.22L206.222 1272.76C264.901 1233.18 314.953 1160.43 267.753 1147.95C208.753 1132.36 220.943 1211.5 190.426 1182.29C159.909 1153.07 289.485 1125.45 233.452 1087.49C196.225 1062.27 195.312 1139.89 166.761 1119.78C138.209 1099.68 242.777 1074.01 201.409 1026.15C175.952 996.697 177.586 1057.18 155.405 1058.23C138.218 1059.05 192.786 957.569 138.337 957.088C83.8875 956.608 139.017 1052.11 112.574 1060.27C86.1313 1068.42 110.431 1015.14 72.5156 1023.84C26.5339 1034.39 97.7088 1102.37 91.0411 1123.38C84.3734 1144.39 54.0441 1070.71 31.5326 1097.08C9.021 1123.44 85.4267 1166.58 73.4051 1187.84C61.3834 1209.11 39.2482 1146.54 7.3385 1184.85Z" fill="#2BA9B0"/>
    <path d="M359.312 1082.52C328.483 1106.32 291.19 1120.12 277.81 1131.48C272.592 1111.57 265.819 1087.8 258.893 1063.91C258.347 1064.09 257.786 1063.76 257.239 1063.04C253.209 1063.67 247.824 1068.15 237.852 1063.78C225.762 1058.49 207.053 1054.6 191.708 1062.23C176.363 1069.86 161.829 1069.24 146.867 1074.16L178.749 1047.95C188.323 1041.62 211.624 1029.35 228.24 1030.89C238.687 1031.85 247.567 1039.12 253.255 1047.71C253.177 1046.52 253.152 1045.37 253.19 1044.3C240.307 1000.1 228.233 959.027 226.081 945.309C224.723 936.646 221.778 925.73 218.245 914.554C212.604 911.558 205.1 913.859 200.21 913.901C190.569 913.984 178.386 914.389 165.629 918.846C160.626 920.595 147.071 926.502 142.132 928.643C146.988 921.206 158.954 905.023 167.969 899.788C179.237 893.245 183.314 892.161 191.947 891.637C198.232 891.255 205.671 892.742 212.707 898.071C208.024 884.83 203.198 872.643 199.991 865.034C197.991 863.202 193.8 858.881 193.031 856.249C192.069 852.96 182.475 850.194 173.98 842.172C167.185 835.755 167.138 815.748 167.964 806.547C169.261 809.983 172.95 818.196 177.327 823.555C182.799 830.254 189.898 830.492 196.858 839.277C202.426 846.305 201.266 859.376 199.991 865.034C203.198 872.643 208.024 884.83 212.707 898.071C213.53 898.694 214.348 899.37 215.157 900.101C214.994 898.072 215.002 896.184 215.248 894.664C216.552 886.628 221.195 871.447 243.159 862.414C255.909 857.17 266.931 856.562 277.213 858.672C269.525 863.436 255.777 866.502 243.362 881.15C236.84 888.846 226.761 904.007 221.492 916.045C220.801 917.624 219.793 916.875 218.78 914.858C218.603 914.751 218.425 914.65 218.245 914.554C221.778 925.73 224.723 936.646 226.081 945.309C228.233 959.027 240.307 1000.1 253.19 1044.3C253.221 1043.44 253.293 1042.63 253.411 1041.9C254.715 1033.87 258.91 1015.62 280.966 1000.89C298.611 989.107 329.676 990.178 339.958 992.288C332.27 997.051 319.967 1005.05 304.576 1015.53C296.562 1020.98 279.881 1036.28 259.655 1063.29C259.406 1063.62 259.152 1063.82 258.893 1063.91C265.819 1087.8 272.592 1111.57 277.81 1131.48C277.148 1120.19 289.991 1094.93 308.02 1084.46C326.049 1073.99 347.748 1076.03 359.312 1082.52Z" fill="#E7A886"/>
    <path d="M279.383 944.255C271.369 949.71 259.157 971.263 242.089 991.046C238.587 995.104 234.541 977.701 235.845 969.665C237.149 961.629 245.469 939.451 262.877 929.857C275.198 923.068 303.882 922.943 314.164 925.053C306.476 929.816 294.775 933.779 279.383 944.255Z" fill="#E7A886"/>
    <path d="M218.704 962.162C230.757 969.733 235.538 987.7 236.422 995.738C232.717 995.072 224.095 993.21 219.25 991.089C213.193 988.438 188.356 987.607 180.73 988.573C174.299 989.387 154.417 994.746 140.973 999.858C149.539 993.089 168.32 977.976 174.917 971.683C183.162 963.817 203.639 952.698 218.704 962.162Z" fill="#E7A886"/>
    <path d="M234.068 1108.03C251.165 1104.04 265.644 1121.85 270.747 1131.26L282.636 1150.72C279.934 1150.49 272.864 1159.44 267.766 1157.21C255.659 1151.91 239.69 1126.38 218.418 1135.61C203.601 1142.03 179.939 1140.28 164.556 1140.72C180.603 1131.48 216.972 1112.02 234.068 1108.03Z" fill="#E7A886"/>
    <path d="M259.655 1063.29C279.881 1036.28 296.562 1020.98 304.576 1015.53C319.967 1005.05 332.27 997.051 339.958 992.288C329.676 990.178 298.611 989.107 280.966 1000.89C258.91 1015.62 254.715 1033.87 253.411 1041.9C252.108 1049.94 256.419 1067.61 259.655 1063.29ZM259.655 1063.29C257.512 1049.92 244.856 1032.42 228.24 1030.89C211.624 1029.35 188.323 1041.62 178.749 1047.95L146.867 1074.16C161.829 1069.24 176.363 1069.86 191.708 1062.23C207.053 1054.6 225.762 1058.49 237.852 1063.78C249.942 1069.08 255.29 1061.38 259.655 1063.29ZM199.991 865.034C201.266 859.376 202.426 846.305 196.858 839.277C189.898 830.492 182.799 830.254 177.327 823.555C172.95 818.196 169.261 809.983 167.964 806.547C167.138 815.748 167.185 835.755 173.98 842.172C182.475 850.194 192.069 852.96 193.031 856.249C193.8 858.881 197.991 863.202 199.991 865.034ZM199.991 865.034C207.158 882.038 222.41 921.898 226.081 945.309C230.671 974.572 280.413 1128.32 286.838 1171.29M277.81 1131.48C291.19 1120.12 328.483 1106.32 359.312 1082.52C347.748 1076.03 326.049 1073.99 308.02 1084.46C289.991 1094.93 277.148 1120.19 277.81 1131.48ZM242.089 991.046C259.157 971.263 271.369 949.71 279.383 944.255C294.775 933.779 306.476 929.816 314.164 925.053C303.882 922.943 275.198 923.068 262.877 929.857C245.469 939.451 237.149 961.629 235.845 969.665C234.541 977.701 238.587 995.104 242.089 991.046ZM221.492 916.045C226.761 904.007 236.84 888.846 243.362 881.15C255.777 866.502 269.525 863.436 277.213 858.672C266.931 856.562 255.909 857.17 243.159 862.414C221.195 871.447 216.552 886.628 215.248 894.664C213.945 902.7 219.303 921.045 221.492 916.045ZM218.78 914.858C213.086 911.409 205.256 913.858 200.21 913.901C190.569 913.984 178.386 914.389 165.629 918.846C160.626 920.595 147.071 926.502 142.132 928.643C146.988 921.206 158.954 905.023 167.969 899.788C179.237 893.245 183.314 892.161 191.947 891.637C199.883 891.155 209.66 893.652 218.143 903.103C222.331 907.769 225.956 910.827 218.78 914.858ZM236.422 995.738C235.538 987.7 230.757 969.733 218.704 962.162C203.639 952.698 183.162 963.817 174.917 971.683C168.32 977.976 149.539 993.089 140.973 999.858C154.417 994.746 174.299 989.387 180.73 988.573C188.356 987.607 213.193 988.438 219.25 991.089C224.095 993.21 232.717 995.072 236.422 995.738ZM270.747 1131.26C265.644 1121.85 251.165 1104.04 234.068 1108.03C216.972 1112.02 180.603 1131.48 164.556 1140.72C179.94 1140.28 203.601 1142.03 218.418 1135.61C239.69 1126.38 255.659 1151.91 267.766 1157.21C272.864 1159.44 279.934 1150.49 282.636 1150.72L270.747 1131.26Z" stroke="#E7A886" stroke-width="2"/>
    <path d="M171.537 1336.75C171.705 1341.49 276.298 1364.82 324.922 1366.64C336.414 1375.59 360.533 1395.51 365.072 1403.56C370.747 1413.62 426.044 1416.15 440.279 1417.67C454.515 1419.19 447.258 1402.88 445.256 1402.67L391.65 1396.95C361.622 1393.74 346.254 1345.96 352.733 1335.84C368.169 1333.14 400.767 1325.49 407.666 1316.5C414.565 1307.52 419.607 1295.27 421.266 1290.27C417.588 1291 409.266 1295.2 405.399 1306.13C400.565 1319.8 367.075 1321.62 357.448 1323.29C347.821 1324.97 349.058 1319.7 349.629 1314.36C350.199 1309.01 370.982 1316.64 382.086 1313.77C393.191 1310.91 411.754 1278.23 412.61 1270.21C413.466 1262.2 393.123 1294.69 383.37 1301.75C373.617 1308.81 350.199 1309.01 347.362 1303.98C344.525 1298.96 369.713 1296.92 384.226 1293.74C398.738 1290.57 405.509 1273.51 406.197 1260.75C406.503 1255.07 403.488 1257.48 398.906 1262.55C402.441 1253.94 403.119 1243.69 402.33 1240.08C400.97 1233.86 387.886 1259.47 375.686 1266.27C363.487 1273.07 335.238 1270.05 336.094 1262.04C336.949 1254.03 360.481 1263.3 377.041 1253.59C393.601 1243.88 400.658 1224.15 401.157 1219.47C401.656 1214.8 379.562 1236.3 368.769 1242.57C357.975 1248.85 329.324 1255.92 330.465 1245.24C331.606 1234.55 369.125 1239.24 380.228 1230.07C389.11 1222.73 399.165 1207.93 403.082 1201.45C400.116 1201.13 391.764 1202.94 382.082 1212.71C369.979 1224.92 343.617 1235.84 332.202 1235.29C320.787 1234.75 323.955 1230.36 323.953 1224.06C323.951 1217.76 352.39 1218.99 359.73 1219.78C367.071 1220.56 397.468 1182.39 396.704 1176.91C395.94 1171.43 373.499 1198.29 367.065 1201.65C360.632 1205.02 318.803 1215.4 319.302 1210.73C319.801 1206.06 347.491 1199.56 354.815 1196.29C362.138 1193.02 390.046 1144.46 386.542 1139.36C383.037 1134.26 356.764 1178.05 349.345 1182.2L349.227 1182.27C341.666 1186.51 317.04 1200.32 317.891 1192.35C318.747 1184.34 361.455 1165.72 366.671 1154.79C371.887 1143.87 386.056 1106 383.814 1101.71C381.573 1097.42 353.362 1144.6 341.57 1160.22C329.778 1175.84 309.287 1190.76 310.642 1178.07C311.997 1165.39 350.26 1129.41 356.096 1119C361.931 1108.6 371.984 1067.13 369.218 1061.43C366.452 1055.74 332.865 1134.3 326.599 1142.41C320.334 1150.52 309.494 1163.54 310.207 1156.87C310.92 1150.19 342.103 1104.68 347.436 1086.34C352.769 1068.01 361.74 1021.92 356.758 1018.01C351.777 1014.11 335.613 1076.98 327.779 1099.77C319.945 1122.57 312.774 1132.83 313.559 1125.49C314.343 1118.15 317.718 1086.54 321.6 1075.48C325.481 1064.42 343.718 1001.09 338.451 999.853C333.184 998.616 327.708 1018.29 323.233 1034.92C318.757 1051.54 303.994 1124.47 299.323 1123.97C294.652 1123.47 307.5 1047.42 308.997 1033.4C310.495 1019.38 312.912 971.467 305.954 973.424C298.995 975.382 294.554 1111.76 291.146 1112.07C287.738 1112.38 287.287 1034.45 285.662 1018.07C284.037 1001.69 281.763 966.114 276.165 974.294C270.567 982.474 278.636 1115.46 277.97 1121.69C277.305 1127.92 269.762 1084.8 265.992 1069.54C262.223 1054.28 250.041 982.983 244.488 984.416C238.936 985.848 242.733 1013.49 244.384 1035.95C246.034 1058.41 272.138 1144.7 271.282 1152.71C270.427 1160.72 234.484 1084.41 224.752 1055.46C215.021 1026.51 206.928 1005.39 206.477 1009.62C206.025 1013.84 207.797 1041.49 214.388 1064.03C220.98 1086.57 261.298 1157.72 260.799 1162.39C260.3 1167.07 233.472 1131.79 218.359 1115.32C203.245 1098.85 168.543 1029.87 162.253 1031.9C155.962 1033.93 191.942 1101.47 200.119 1113.37C208.297 1125.28 258.351 1185.32 257.852 1189.99C257.353 1194.66 214.579 1150.7 197.624 1136.74C180.668 1122.77 140.878 1065.63 140.664 1067.63C140.45 1069.64 153.338 1109.05 178.272 1134.67C203.207 1160.29 256.782 1200 251.184 1208.18C245.586 1216.36 218.473 1183.76 206.65 1174.39C194.828 1165.03 120.683 1115.69 120.255 1119.7C119.827 1123.7 162.575 1161.58 174.398 1170.95C186.221 1180.31 254.859 1224.33 253.55 1230.27C252.241 1236.21 226.394 1217.01 203.584 1203.1C180.774 1189.18 112.902 1156.95 112.117 1164.29C111.333 1171.64 261.109 1247.96 260.467 1253.96C259.826 1259.97 212.745 1237.39 193.225 1230.58C173.706 1223.77 109.764 1186.33 109.051 1193C108.338 1199.68 167.386 1236.6 186.096 1244.67C204.806 1252.75 263.356 1271.15 261.427 1276.58C259.498 1282 213.968 1263.85 202.838 1260.64C191.708 1257.42 108.895 1232.37 107.8 1236.31C106.705 1240.24 157.479 1259.85 192.473 1269.21C227.468 1278.58 274.182 1296.17 271.513 1295.88C268.844 1295.6 114.623 1260.9 114.195 1264.9C113.767 1268.91 146.926 1276.5 167.638 1284.79C188.349 1293.08 294.021 1308.42 288.779 1313.26C283.538 1318.1 226.108 1301.84 206.161 1299.03C186.213 1296.23 112.081 1291.01 116.396 1294.85C120.71 1298.68 291.571 1325.04 291.787 1329.33C292.002 1333.63 241.161 1327.3 227.592 1325.85C214.024 1324.41 135.949 1309.76 137.953 1316.28C139.957 1322.8 294.889 1344.52 292.317 1349.65C289.744 1354.78 171.369 1332 171.537 1336.75Z" fill="#8EDAA7"/>
    <path d="M415.538 985.364C418.361 989.181 517.803 949.241 558.925 923.23C573.467 924.113 604.626 926.895 612.922 930.962C623.292 936.047 670.32 906.848 682.918 900.048C695.517 893.248 680.308 883.909 678.536 884.865L631.095 910.472C604.52 924.816 564.815 894.11 564.436 882.107C575.636 871.145 598.186 846.393 598.79 835.08C599.395 823.766 596.625 810.816 595.164 805.755C592.546 808.44 588.059 816.61 591.054 827.811C594.798 841.812 568.216 862.264 561.224 869.09C554.231 875.916 552.271 870.87 549.719 866.144C547.168 861.417 568.617 855.944 576.153 847.299C583.688 838.653 580.506 801.205 576.679 794.115C572.852 787.025 574.459 825.323 570.412 836.663C566.365 848.004 547.168 861.417 541.983 858.875C536.798 856.333 556.416 840.403 566.585 829.573C576.755 818.744 572.687 800.847 566.038 789.94C563.074 785.079 561.951 788.771 561.042 795.545C559.089 786.451 553.846 777.611 551.155 775.083C546.513 770.722 550.215 799.243 544.002 811.752C537.79 824.261 512.789 837.755 508.962 830.665C505.136 823.575 529.782 817.902 537.943 800.526C546.104 783.151 540.761 762.891 538.529 758.755C536.297 754.619 530.242 784.846 524.891 796.126C519.541 807.407 499.915 829.445 494.813 819.991C489.71 810.538 523.297 793.172 527.265 779.331C530.44 768.258 530.357 750.365 529.918 742.802C527.294 744.219 521.43 750.436 518.974 763.969C515.903 780.886 500.34 804.8 490.62 810.81C480.899 816.819 481.029 811.408 477.462 806.213C473.895 801.017 498.045 785.947 504.541 782.441C511.037 778.935 514.509 730.265 510.776 726.176C507.044 722.087 503.737 756.934 500.336 763.348C496.934 769.761 468.32 801.991 466.088 797.855C463.855 793.72 483.013 772.698 487.202 765.859C491.391 759.02 486.929 703.188 481.153 700.964C475.378 698.741 478.485 749.709 474.721 757.336L474.661 757.457C470.825 765.231 458.331 790.549 454.524 783.496C450.697 776.406 475.378 736.889 473.5 724.933C471.622 712.976 461.877 673.729 457.602 671.459C453.326 669.189 456.756 724.052 455.87 743.604C454.985 763.156 446.528 787.05 440.469 775.824C434.41 764.598 445.606 713.284 444.531 701.403C443.456 689.521 428.286 649.642 422.782 646.509C417.278 643.376 434.031 727.162 433.453 737.393C432.874 747.624 431.303 764.494 428.114 758.585C424.925 752.677 424.889 697.508 418.912 679.371C412.936 661.233 394.261 618.159 387.943 617.755C381.624 617.35 403.865 678.337 410.302 701.566C416.74 724.796 416.633 737.315 413.125 730.816C409.617 724.317 394.522 696.35 391.463 685.031C388.404 673.711 367.616 611.178 362.572 613.137C357.529 615.096 364.143 634.415 369.86 650.658C375.577 666.901 404.661 735.385 400.527 737.616C396.393 739.847 363.959 669.866 357.262 657.458C350.565 645.051 325.454 604.179 320.823 609.73C316.193 615.281 389.684 730.243 387.05 732.428C384.416 734.613 339.959 670.613 329.352 658.026C318.745 645.44 296.741 617.388 296.753 627.3C296.765 637.212 378.653 742.301 381.629 747.816C384.606 753.331 353.991 722.042 342.251 711.594C330.51 701.145 280.127 649.244 276.359 653.567C272.592 657.89 291.36 678.533 305.427 696.118C319.494 713.703 389.838 770.089 393.665 777.179C397.492 784.269 324.68 741.678 300.278 723.313C275.876 704.947 257.253 692.11 259.273 695.852C261.293 699.594 278.396 721.39 296.581 736.244C314.766 751.098 388.268 786.959 390.5 791.095C392.733 795.231 350.653 781.321 328.873 776.291C307.093 771.262 239.454 734.016 235.415 739.248C231.376 744.48 299.255 779.816 312.731 785.004C326.208 790.192 401.449 811.381 403.682 815.517C405.914 819.653 345.775 807.606 323.893 805.683C302.011 803.761 236.872 779.154 237.829 780.926C238.786 782.699 271.712 807.908 306.767 814.927C341.823 821.947 408.465 824.379 408.477 834.292C408.489 844.204 367.685 832.657 352.638 831.623C337.591 830.589 248.542 831.858 250.456 835.403C252.369 838.948 309.047 845.996 324.095 847.03C339.142 848.063 420.643 845.528 422.923 851.164C425.202 856.801 393.033 855.599 366.351 857.029C339.67 858.46 265.468 870.281 268.976 876.78C272.484 883.279 439.163 861.473 442.033 866.79C444.903 872.108 393.304 880.121 373.356 885.548C353.407 890.975 279.5 896.278 282.689 902.186C285.879 908.095 355.454 905.129 375.45 901.203C395.447 897.277 454.14 879.33 455.616 884.891C457.093 890.453 409.285 901.252 398.289 904.898C387.293 908.544 304.836 934.74 306.159 938.603C307.481 942.467 360.439 929.906 394.592 917.829C428.746 905.753 477.219 893.832 474.857 895.107C472.494 896.382 325.694 955.017 327.608 958.562C329.521 962.107 361.159 949.608 382.927 944.726C404.695 939.843 500.507 892.707 498.924 899.665C497.341 906.623 440.786 925.704 422.75 934.676C404.715 943.648 340.636 981.286 346.364 982.009C352.093 982.732 507.889 907.796 510.499 911.22C513.109 914.643 467.605 938.187 455.597 944.668C443.589 951.149 370.927 983.248 376.266 987.487C381.605 991.727 521.649 921.987 522.429 927.67C523.208 933.353 412.715 981.547 415.538 985.364Z" fill="#249DA5"/>
    <path d="M452.271 1017.56C467.981 1022.19 518.789 1010.66 524.757 1011.57C530.726 1012.48 567.282 1052.15 572.932 1052.44C578.581 1052.73 581.705 1048 579.491 1043.62C577.276 1039.24 535.089 1004 532.875 999.616C530.66 995.235 527.448 974.862 521.107 957.641C514.766 940.419 497.101 916.35 497.101 916.35L490.225 924.537L492.99 908.214C476.954 883.996 466.448 872.566 445.713 855.112L442.028 877.399L426.851 847.358C405.636 829.967 396.105 825.111 381.241 820.91L381.643 845.059L364.886 811.89C350.657 803.531 343.953 801.129 333.136 798.864L334.182 827.402L317.108 793.606C307.686 792.082 287.84 789.853 283.835 793.134C279.829 796.414 283.89 808.293 286.421 813.823L310.026 830.964L286.783 826.995C288.171 841.186 289.549 848.29 293.492 858.956L346.582 870.628L299.816 871.473C308.559 887.714 313.898 896.522 328.203 908.98L382.873 923.781L338.637 929.632C348.1 942.607 354.575 948.695 367.305 958.355L435.71 952.078L382.43 974.282C386.557 984.782 401.905 995.269 409.501 995.171L450.886 982.118L430.248 1003.54C430.248 1003.54 436.561 1012.92 452.271 1017.56Z" fill="#65BD83"/>
</svg>
