<svg width="134" height="303" viewBox="0 0 134 303" fill="none" xmlns="http://www.w3.org/2000/svg">
    <path d="M14.3673 116.11C12.6703 114.308 -32.8507 139.295 -50.899 154.443C-58.1056 154.687 -73.6194 154.758 -78.022 153.09C-83.5253 151.004 -104.21 168.05 -109.835 172.098C-115.46 176.146 -107.235 180.16 -106.444 179.591L-85.2627 164.347C-73.3976 155.808 -51.4079 169.493 -50.2411 175.564C-54.8394 181.656 -63.8791 195.283 -63.2508 201.05C-62.6226 206.817 -60.2048 213.253 -59.0744 215.751C-58.0095 214.265 -56.4759 209.908 -58.8611 204.369C-61.8427 197.445 -50.4731 185.808 -47.6008 182.013C-44.7285 178.218 -43.3541 180.684 -41.716 182.96C-40.0779 185.236 -50.1534 189.033 -53.1435 193.776C-56.1337 198.519 -51.5114 217.362 -49.0543 220.776C-46.5972 224.19 -50.5164 204.841 -49.4579 198.897C-48.3994 192.953 -40.0779 185.236 -37.3263 186.279C-34.5746 187.322 -42.8971 196.335 -47.0008 202.311C-51.1045 208.288 -47.6461 217.171 -43.4921 222.387C-41.6409 224.712 -41.3915 222.786 -41.4994 219.307C-39.7979 223.826 -36.5029 228.061 -34.9763 229.215C-32.3425 231.206 -36.4899 216.916 -34.4646 210.276C-32.4394 203.636 -21.2773 195.603 -18.8202 199.017C-16.3631 202.431 -27.9907 206.481 -30.5742 215.682C-33.1577 224.883 -28.8803 234.905 -27.447 236.896C-26.0137 238.888 -25.5142 223.269 -23.8115 217.293C-22.1088 211.317 -14.2819 199.206 -11.0057 203.758C-7.72962 208.31 -22.7877 218.715 -23.6031 225.924C-24.2554 231.691 -22.7519 240.763 -21.9185 244.578C-20.7467 243.735 -18.3782 240.303 -18.2794 233.322C-18.1559 224.595 -12.4756 211.726 -8.19804 208.216C-3.92043 204.705 -3.5418 207.456 -1.36706 209.922C0.807685 212.387 -9.80827 221.179 -12.7086 223.266C-15.609 225.354 -13.3336 250.204 -11.1682 252.101C-9.00276 253.997 -10.2292 236.166 -9.08474 232.751C-7.94027 229.336 3.46305 211.628 4.89636 213.619C6.32967 215.611 -1.35047 227.184 -2.84649 230.852C-4.34252 234.52 2.4105 262.627 5.42581 263.48C8.44113 264.333 2.75023 238.629 3.97324 234.582L3.99277 234.517C5.23921 230.392 9.29899 216.956 11.7432 220.352C14.2003 223.767 5.32228 244.984 7.22115 250.959C9.12002 256.934 17.1092 276.377 19.3924 277.325C21.6757 278.273 15.5079 250.609 14.344 240.65C13.1801 230.691 15.3757 218.17 19.2661 223.576C23.1565 228.982 21.8584 255.54 23.357 261.516C24.8556 267.491 35.5582 286.997 38.5146 288.324C41.471 289.651 26.4024 247.951 25.8499 242.735C25.2974 237.518 24.6889 228.886 26.7365 231.732C28.7841 234.577 33.3118 262.557 37.7266 271.472C42.1415 280.387 54.8244 301.347 57.9575 301.251C61.0905 301.156 45.1934 271.281 40.1363 259.805C35.0791 248.329 34.1078 241.974 36.3601 245.104C38.6125 248.233 48.3044 261.7 50.7306 267.296C53.1568 272.892 68.4676 303.62 70.7817 302.387C73.0958 301.153 68.2715 291.669 64.139 283.702C60.0064 275.736 40.1393 242.384 41.985 241.056C43.8307 239.727 65.4639 273.68 69.7638 279.654C74.0637 285.629 89.7245 305.165 91.5422 302.13C93.3599 299.094 47.9071 244.279 49.0208 243.046C50.1345 241.813 77.1774 272.16 83.41 278.039C89.6425 283.919 102.731 297.1 101.915 292.073C101.099 287.046 52.3335 237.639 50.4224 234.983C48.5113 232.328 66.0889 246.742 72.7029 251.483C79.3169 256.224 108.278 280.152 109.773 277.781C111.268 275.409 100.373 265.831 92.0336 257.581C83.6946 249.331 44.5742 224.077 42.1171 220.662C39.66 217.248 78.8637 235.388 92.3367 243.543C105.81 251.697 115.995 257.323 114.699 255.521C113.402 253.719 103.229 243.477 93.0933 236.808C82.9573 230.139 43.9656 215.445 42.5323 213.454C41.099 211.462 62.8804 216.516 73.9768 218.032C85.0732 219.547 121.302 235.222 122.856 232.376C124.41 229.53 88.2195 214.835 81.1837 212.845C74.148 210.855 35.5023 203.685 34.069 201.694C32.6357 199.702 63.1246 202.953 74.0172 202.887C84.9098 202.822 118.879 212.205 118.264 211.351C117.65 210.498 99.4358 199.277 81.6636 197.384C63.8914 195.491 30.9976 197.426 30.1815 192.399C29.3653 187.372 50.3277 191.288 57.7944 191.097C65.2612 190.906 108.845 186.028 107.616 184.321C106.388 182.614 78.0052 181.734 70.5384 181.926C63.0716 182.117 23.2944 187.279 21.7153 184.528C20.1361 181.778 36.0169 180.858 48.9898 178.863C61.9628 176.869 97.3998 167.345 95.1475 164.215C92.8951 161.085 12.905 180.072 11.0621 177.511C9.21933 174.951 33.8788 168.433 43.2221 164.731C52.5654 161.03 88.3905 154.826 86.3429 151.981C84.2953 149.136 50.4039 153.949 40.9147 156.891C31.4254 159.833 4.09753 171.727 2.91855 168.976C1.73957 166.226 24.3112 158.475 29.4078 156.103C34.5044 153.73 72.8167 136.523 71.8518 134.626C70.887 132.729 45.933 141.619 30.1644 149.368C14.3957 157.118 -8.41056 165.469 -7.35589 164.71C-6.30121 163.951 60.9257 127.23 59.6972 125.523C58.4686 123.816 43.9687 131.66 33.6885 135.171C23.4083 138.683 -19.7436 167.147 -19.5359 163.543C-19.3283 159.938 6.85799 147.571 14.9728 142.163C23.0876 136.754 51.4479 114.617 48.5784 114.522C45.709 114.428 -24.5988 159.845 -26.1593 158.232C-27.7198 156.62 -7.32 142.515 -1.95874 138.656C3.40252 134.798 36.4265 115.062 33.4607 113.166C30.495 111.269 -32.5097 153.302 -33.3567 150.456C-34.2038 147.611 16.0643 117.912 14.3673 116.11Z" fill="#65BD83"/>
    <path d="M-59.0685 143.417C-61.2643 142.544 -54.7058 89.6197 -47.4261 66.5253C-49.7017 59.6414 -55.0059 45.0052 -58.0187 41.5316C-61.7846 37.1896 -53.723 10.8483 -52.0551 3.92168C-50.3871 -3.00493 -43.9582 3.12338 -44.1927 4.09743L-50.4737 30.1805C-53.9921 44.7913 -34.1661 59.9854 -28.3431 58.6396C-24.4948 51.8563 -15.4568 37.8571 -10.091 36.1263C-4.72522 34.3955 1.85779 34.08 4.47857 34.1385C3.52017 35.7398 0.160835 38.9385 -5.60928 38.9231C-12.8219 38.9038 -19.2779 54.2958 -21.6719 58.5285C-24.0659 62.7612 -21.3889 63.0623 -18.7902 63.6881C-16.1914 64.3139 -16.2882 53.2982 -13.0882 48.5725C-9.88812 43.8469 8.53337 40.6112 12.4315 41.5499C16.3296 42.4886 -2.30036 46.5902 -7.24098 49.9806C-12.1816 53.371 -16.1914 64.3139 -14.3085 66.4849C-12.4255 68.6559 -7.25867 57.1901 -3.34285 50.9193C0.572976 44.6485 9.70057 44.3274 15.7944 46.1383C18.5099 46.9453 16.8769 47.9557 13.7335 49.2552C18.3573 49.0372 23.2774 50.4346 24.836 51.4072C27.5251 53.0853 13.3325 54.9348 8.10517 59.5158C2.87787 64.0967 -0.432044 77.8418 3.46608 78.7805C7.36421 79.7192 6.95656 67.14 14.2772 61.002C21.5978 54.8641 32.0248 54.8559 34.2987 55.4035C36.5726 55.9511 22.8013 62.7112 18.0552 66.721C13.3092 70.7308 5.20479 82.9777 10.4023 84.2293C15.5998 85.4809 19.6795 67.1121 25.8332 63.4413C30.7562 60.5046 39.3753 58.2672 43.0695 57.5156C42.722 58.9586 40.4774 62.5708 34.2791 65.4751C26.5313 69.1056 17.0072 79.6366 15.3531 85.078C13.6991 90.5195 16.2858 89.7683 19.2395 90.8231C22.1932 91.8779 26.3693 78.3415 27.2294 74.7699C28.0894 71.1984 51.0624 63.3335 53.5048 64.6086C55.9472 65.8838 39.6032 71.9099 36.9505 74.3627C34.2977 76.8156 22.4339 94.6839 24.7078 95.2315C26.9817 95.7791 34.657 83.8868 37.414 81.0011C40.171 78.1154 67.5997 73.1555 69.4045 75.6512C71.2092 78.1468 46.2931 83.1392 43.1029 85.9207L43.0521 85.965C39.8006 88.7998 29.21 98.0332 33.0877 98.967C36.9858 99.9057 52.856 83.0021 58.8475 82.3838C64.8389 81.7655 84.961 81.4584 86.5973 83.2264C88.2336 84.9945 61.4025 90.3273 52.1086 93.242C42.8147 96.1566 32.3961 103.266 38.5681 104.752C44.7401 106.239 68.0017 94.3212 73.8548 93.326C79.7079 92.3308 100.825 94.5533 103.032 96.8025C105.24 99.0517 62.7986 101.656 57.9501 103.237C53.1017 104.817 45.1853 107.72 48.4338 108.502C51.6822 109.285 78.2286 102.28 87.7151 102.847C97.2017 103.414 120.302 106.915 121.3 109.904C122.299 112.892 90.1277 109.955 78.1327 109.814C66.1376 109.674 60.1282 111.318 63.7014 112.179C67.2747 113.039 82.6507 116.742 88.4857 116.773C94.3208 116.804 127.052 118.846 126.751 121.522C126.45 124.198 116.314 123.474 107.772 122.791C99.2298 122.108 62.5808 116.833 62.0335 119.105C61.4862 121.378 99.2822 128.075 106.104 129.718C112.926 131.361 135.785 138.239 133.704 141.173C131.623 144.107 66.9604 123.383 66.2446 124.929C65.5288 126.474 101.978 139.717 109.383 143.217C116.788 146.718 133.085 153.734 128.315 154.99C123.544 156.246 62.5634 130.225 59.5315 129.495C56.4996 128.765 75.4491 139.512 81.9702 143.83C88.4913 148.148 119.873 165.782 118.273 168.145C116.673 170.507 104.353 164.106 94.1023 159.576C83.8516 155.046 47.771 128.381 43.8729 127.442C39.9748 126.503 69.7332 156.112 81.6745 165.515C93.6158 174.917 102.162 182.242 100.105 181.747C98.0476 181.251 85.3846 175.797 75.9238 168.939C66.463 162.081 39.8547 131.284 37.5808 130.736C35.3069 130.189 47.3549 148.662 52.5468 158.5C57.7387 168.339 84.2666 196.139 82.2636 198.748C80.2606 201.357 54.6209 173.198 50.4097 167.375C46.1986 161.552 26.4278 128.05 24.1539 127.503C21.88 126.955 35.3301 154.355 39.0402 164.637C42.7503 174.92 62.8797 203.126 61.9052 202.892C60.9306 202.657 44.6118 190.025 36.7728 174.053C28.9338 158.081 19.2813 126.329 14.511 127.585C9.74073 128.841 20.4894 147.002 22.902 154.11C25.3146 161.218 36.0383 204.22 34.0893 203.751C32.1402 203.281 21.5355 176.911 19.123 169.803C16.7104 162.695 7.55681 123.163 4.55502 122.783C1.55325 122.404 6.22606 137.728 8.93369 150.746C11.6413 163.765 15.3988 200.967 11.8255 200.107C8.25226 199.246 -2.47146 116.282 -5.39505 115.578C-8.31864 114.874 -5.6064 140.718 -5.67808 151.006C-5.74975 161.294 1.1057 197.526 -2.14274 196.743C-5.39118 195.961 -12.82 162.111 -13.4762 151.991C-14.1324 141.871 -12.9688 111.35 -15.8322 111.347C-18.6956 111.345 -17.8062 135.719 -18.1608 141.474C-18.5155 147.228 -20.6229 190.232 -22.6501 190.087C-24.6774 189.943 -25.3745 162.866 -23.9115 144.898C-22.4486 126.93 -22.8829 102.092 -23.1957 103.391C-23.5084 104.69 -33.0333 182.778 -34.9824 182.309C-36.9314 181.839 -34.9451 165.027 -35.3667 153.933C-35.7884 142.84 -25.3057 90.7452 -28.4518 92.3922C-31.5979 94.0393 -33.5796 123.677 -35.6003 133.495C-37.6211 143.314 -47.5731 178.933 -48.65 176.269C-49.7269 173.605 -33.505 89.1143 -35.4842 88.2942C-37.4633 87.4741 -42.9985 112.363 -44.5883 118.965C-46.1781 125.567 -52.3722 164.61 -55.0913 162.581C-57.8105 160.552 -42.0834 84.3004 -44.9168 84.6487C-47.7501 84.997 -56.8728 144.289 -59.0685 143.417Z" fill="#A7DBB9"/>
</svg>
