<svg width="311" height="493" viewBox="0 0 311 493" fill="none" xmlns="http://www.w3.org/2000/svg">
    <path d="M453.193 283.421C457.326 281.084 429.813 177.514 409.012 133.526C411.662 119.2 418.224 88.6135 423.273 80.8754C429.584 71.2027 406.34 20.9647 401.128 7.63088C395.915 -5.70295 384.79 8.25327 385.523 10.1283L405.152 60.3386C416.147 88.4647 380.828 124.128 368.868 123.04C359.354 110.587 337.538 85.1859 326.383 83.2059C315.228 81.2259 302.036 82.3959 296.835 83.2284C299.18 86.1544 306.741 91.6048 318.224 89.9979C332.578 87.9894 349.635 116.868 355.557 124.641C361.479 132.413 356.232 133.744 351.229 135.7C346.227 137.655 343.41 115.699 335.749 107.165C328.088 98.6315 290.53 97.2216 283.026 100.155C275.522 103.089 313.731 106.165 324.493 111.565C335.255 116.966 346.227 137.655 343.071 142.492C339.915 147.328 326.498 125.913 316.989 114.499C307.481 103.085 289.222 104.939 277.585 110.208C272.399 112.557 275.926 114.122 282.539 115.85C273.274 116.679 263.861 120.805 261.024 123.167C256.129 127.243 284.889 127.048 296.547 134.74C308.204 142.432 318.548 168.891 311.044 171.825C303.54 174.758 300.916 149.604 284.665 139.385C268.415 129.165 247.655 131.997 243.277 133.708C238.9 135.419 268.162 145.115 278.706 151.802C289.25 158.488 308.729 180.655 298.724 184.567C288.719 188.478 275.579 153.024 262.326 147.397C251.723 142.895 233.953 140.795 226.394 140.308C227.479 143.086 232.935 149.664 246.067 153.753C262.483 158.864 284.321 177.228 289.1 187.609C293.879 197.99 288.524 197.201 282.932 200.107C277.34 203.014 265.329 177.207 262.641 170.331C259.953 163.456 212.07 154.074 207.556 157.279C203.042 160.485 237.226 168.018 243.177 172.176C249.128 176.334 277.627 208.666 273.25 210.377C268.873 212.089 250.344 190.51 244.067 185.518C237.791 180.526 181.831 178.144 178.92 183.606C176.009 189.067 226.975 192.2 234.086 196.866L234.199 196.94C241.447 201.696 265.052 217.185 257.588 220.103C250.084 223.036 213.872 193.72 201.776 194.125C189.679 194.531 149.536 199.416 146.762 203.383C143.987 207.35 198.859 210.637 218.157 213.901C237.456 217.165 260.139 228.473 248.258 233.118C236.376 237.762 186.812 220.391 174.888 220.008C162.964 219.626 121.532 229.818 117.751 234.899C113.97 239.98 199.174 233.572 209.258 235.394C219.342 237.216 235.895 240.833 229.641 243.277C223.388 245.722 168.626 239.028 149.896 242.748C131.165 246.468 86.134 259.749 84.962 265.971C83.79 272.193 147.034 257.557 170.875 254.001C194.717 250.445 207.129 252.078 200.251 254.767C193.372 257.456 163.773 269.027 152.165 270.683C140.557 272.339 75.9549 285.344 77.2843 290.589C78.6137 295.833 98.5953 291.625 115.414 287.932C132.233 284.239 203.753 263.726 205.463 268.101C207.174 272.476 133.759 296.132 120.627 301.266C107.495 306.399 63.8656 326.338 68.8103 331.61C73.7551 336.883 196.823 277.963 198.67 280.844C200.518 283.725 131.572 320.044 117.786 329.036C104 338.028 73.4735 356.447 83.3132 357.644C93.1529 358.841 207.446 290.383 213.282 288.101C219.119 285.82 184.329 312.39 172.527 322.768C160.724 333.146 103.066 376.823 106.897 381.089C110.727 385.356 133.505 369.246 152.675 357.429C171.845 345.612 236.39 282.67 243.894 279.737C251.398 276.803 200.243 343.877 179.039 365.857C157.834 387.837 142.821 404.754 146.781 403.206C150.742 401.658 174.461 387.341 191.423 371.103C208.384 354.866 252.943 286.287 257.32 284.576C261.698 282.865 242.759 322.933 235.11 343.937C227.461 364.941 182.243 427.532 186.944 432.179C191.644 436.826 234.996 373.764 241.789 361.021C248.581 348.278 278.79 276.183 283.167 274.472C287.545 272.76 268.252 330.981 263.675 352.465C259.098 373.949 226.729 435.6 228.605 434.867C230.481 434.133 259.518 404.528 270.761 370.59C282.004 336.653 292.547 270.805 302.387 272.002C312.227 273.199 295.789 312.29 292.927 327.099C290.066 341.908 280.463 430.446 284.215 428.979C287.967 427.512 301.876 372.117 304.737 357.308C307.599 342.499 315.023 261.298 320.896 259.723C326.768 258.147 321.651 289.93 319.817 316.587C317.982 343.244 320.664 418.333 327.542 415.644C334.421 412.955 333.108 244.861 338.736 242.661C344.364 240.46 346.024 292.652 348.977 313.113C351.929 333.575 348.178 407.577 354.431 405.132C360.685 402.687 366.228 333.27 364.77 312.944C363.312 292.618 352.659 232.174 358.359 231.387C364.058 230.6 368.945 279.367 371.223 290.726C373.501 302.085 389.443 387.122 393.439 386.28C397.436 385.438 391.428 331.345 383.607 295.973C375.787 260.601 369.867 211.036 370.844 213.536C371.822 216.036 412.114 368.892 415.865 367.425C419.617 365.959 411.071 333.032 408.88 310.832C406.689 288.631 371.591 187.785 378.304 190.205C385.017 192.624 397.058 251.085 403.762 270.08C410.467 289.075 440.009 357.266 441.425 351.669C442.842 346.072 387.469 182.299 391.185 180.125C394.901 177.952 412.718 225.988 417.687 238.697C422.655 251.406 445.651 327.44 450.51 322.659C455.369 317.877 403.232 170.372 408.967 170.291C414.703 170.211 449.06 285.757 453.193 283.421Z" fill="#39BDC5"/>
</svg>
