<svg width="200" height="163" viewBox="0 0 200 163" fill="none" xmlns="http://www.w3.org/2000/svg">
        <path opacity="0.25" d="M138.87 6.21002C125.43 4.65303 111.834 7.20147 99.8698 13.52C95.9916 15.5732 91.584 16.4083 87.2234 15.9158C82.8629 15.4234 78.7525 13.6264 75.4299 10.76C68.7887 5.03589 60.6011 1.40665 51.8998 0.330016C26.5598 -2.78998 3.3199 16.39 0.329896 42.91C-0.84968 53.0377 1.14181 63.2819 6.02985 72.23C8.93795 77.5419 9.95689 83.6836 8.91986 89.65C8.91986 89.84 8.85989 90.02 8.81989 90.21C2.81989 126.49 28.2899 160.03 63.4099 162.21C74.1474 162.872 84.8549 160.502 94.3099 155.37C102.645 150.876 112.175 149.096 121.57 150.28L122.15 150.35C160.23 154.77 194.85 126.09 199.47 86.29C204.09 46.49 176.95 10.63 138.87 6.21002Z" fill="#92CEA3"/>
        <path d="M174.28 68.71C173.883 68.2472 173.39 67.8758 172.836 67.6212C172.282 67.3666 171.68 67.2347 171.07 67.2347C170.46 67.2347 169.858 67.3666 169.304 67.6212C168.75 67.8758 168.257 68.2472 167.86 68.71C167.245 69.3833 166.812 70.2018 166.6 71.0886C166.388 71.9755 166.405 72.9015 166.65 73.7799C167.131 74.5825 167.469 75.4622 167.65 76.38C167.65 77.97 165.97 78.9199 165.02 80.1899C164.572 80.8134 164.289 81.5403 164.198 82.3029C164.107 83.0654 164.211 83.8385 164.5 84.5499C165.05 85.8599 166.27 86.9999 166.17 88.4299C166 89.3611 165.545 90.2169 164.87 90.88C163.862 91.9927 163.033 93.2542 162.41 94.62C162.106 95.3054 161.956 96.0491 161.969 96.7988C161.983 97.5486 162.161 98.2862 162.49 98.96C163.09 100.03 164.22 100.83 164.49 102.03C164.76 103.23 164.15 104.4 164.04 105.61C164.006 106.751 164.364 107.869 165.053 108.778C165.743 109.688 166.722 110.334 167.83 110.61C168.814 110.862 169.846 110.862 170.83 110.61C171.044 110.56 171.266 110.56 171.48 110.61C172.464 110.86 173.496 110.86 174.48 110.61C175.587 110.334 176.567 109.688 177.257 108.778C177.946 107.869 178.304 106.751 178.27 105.61C178.16 104.4 177.54 103.21 177.82 102.03C178.1 100.85 179.23 100.03 179.82 98.96C180.149 98.2862 180.327 97.5486 180.341 96.7988C180.354 96.0491 180.204 95.3054 179.9 94.62C179.273 93.2563 178.444 91.9953 177.44 90.88C176.764 90.2169 176.31 89.3611 176.14 88.4299C176.04 86.9999 177.25 85.8599 177.81 84.5499C178.098 83.8377 178.2 83.0642 178.107 82.3016C178.015 81.5391 177.73 80.8125 177.28 80.1899C176.34 78.9199 174.64 77.97 174.65 76.38C174.84 75.4649 175.178 74.5866 175.65 73.7799C175.899 72.9019 175.919 71.9747 175.707 71.0869C175.495 70.1992 175.059 69.3807 174.44 68.71H174.28Z" fill="#8EDAA7"/>
        <path d="M171.13 69.14H170.79V119.44H171.13V69.14Z" fill="#65BD83"/>
        <path d="M168.513 72.7501L168.234 72.944L170.851 76.7149L171.13 76.521L168.513 72.7501Z" fill="#65BD83"/>
        <path d="M167.157 82.3848L166.855 82.5411L170.805 90.1688L171.107 90.0125L167.157 82.3848Z" fill="#65BD83"/>
        <path d="M168.601 82.4575L168.261 82.4639L168.31 85.0834L168.65 85.077L168.601 82.4575Z" fill="#65BD83"/>
        <path d="M171.11 97.62L170.85 97.39L176.28 91.28L176.53 91.5L171.11 97.62Z" fill="#65BD83"/>
        <path d="M173.56 94.68L173.23 94.61L174.14 90.29L174.47 90.36L173.56 94.68Z" fill="#65BD83"/>
        <path d="M170.78 104.42L165.82 97.34L166.1 97.14L171.06 104.23L170.78 104.42Z" fill="#65BD83"/>
        <path d="M167.14 99.06L166.16 94.58L166.49 94.51L167.47 98.99L167.14 99.06Z" fill="#65BD83"/>
        <path d="M176.186 99.3528L170.864 107.736L171.151 107.918L176.473 99.5351L176.186 99.3528Z" fill="#65BD83"/>
        <path d="M175.01 101.69L174.68 101.62L175.24 98.99L175.57 99.06L175.01 101.69Z" fill="#65BD83"/>
        <path d="M171.13 78.29L170.86 78.09L173.78 74L174.05 74.2L171.13 78.29Z" fill="#65BD83"/>
        <path d="M173.301 72.2072L172.913 75.3837L173.25 75.4249L173.639 72.2485L173.301 72.2072Z" fill="#65BD83"/>
        <path d="M172.49 118.26H169.02C166.446 118.26 164.36 120.346 164.36 122.92V122.93C164.36 125.504 166.446 127.59 169.02 127.59H172.49C175.064 127.59 177.15 125.504 177.15 122.93V122.92C177.15 120.346 175.064 118.26 172.49 118.26Z" fill="#E7A886"/>
        <path d="M59.1299 76.1799H59.2599C59.9385 76.0488 60.5715 75.7441 61.0973 75.2954C61.6231 74.8468 62.0236 74.2695 62.2599 73.62L62.3199 73.5399C62.1204 73.2969 62.0077 72.9943 61.9999 72.6799C61.9999 72.0499 62.3199 71.5499 62.7799 71.5699C62.9555 71.5778 63.1224 71.6489 63.2499 71.77C63.3432 71.8697 63.4238 71.9805 63.4899 72.1C63.5899 72.1 63.6399 71.8 63.6499 71.72C63.6599 71.64 63.6499 71.3499 63.6499 71.1699C63.7188 70.8518 63.8478 70.5497 64.0299 70.2799L64.09 73.1599C64.0739 73.6431 63.9485 74.1164 63.7234 74.5442C63.4982 74.972 63.1791 75.3432 62.7899 75.63C62.442 75.9078 62.0451 76.1181 61.6199 76.25C61.3883 76.6265 61.1877 77.021 61.0199 77.4299C60.8202 77.9582 60.5215 78.4436 60.1399 78.86C59.9034 79.0054 59.6268 79.0719 59.35 79.0499C58.48 79.0499 57.3499 79.16 56.7999 78.49C56.6699 78.35 57.1599 77.59 57.3799 77.23C57.5999 76.87 57.85 76.59 58.08 76.23C58.1478 76.1106 58.2079 75.987 58.2599 75.86C58.3966 75.9722 58.5403 76.0756 58.6899 76.1699C58.8327 76.2149 58.9852 76.2183 59.1299 76.1799Z" fill="#F1B7B2"/>
        <path d="M54.8899 71.12C54.7899 70.3 55.45 69.81 55.6 68.99C55.7002 68.5752 55.8876 68.1865 56.1499 67.85C56.5099 67.38 56.8799 67.4699 57.3899 67.1599C57.6041 66.995 57.7728 66.7781 57.8799 66.5299C57.9358 66.4139 58.03 66.3209 58.1466 66.2662C58.2632 66.2116 58.395 66.1988 58.5199 66.23C58.6848 66.2645 58.855 66.2645 59.0199 66.23C59.13 66.2232 59.2341 66.1769 59.313 66.0998C59.3919 66.0227 59.4406 65.9199 59.45 65.8099C59.45 65.5699 59.68 64.89 60.71 65.13C61.57 65.32 61.4499 65.8699 62.5499 66.0299C63.2902 66.2015 63.9354 66.6531 64.35 67.2899C64.6443 67.98 64.6868 68.7517 64.47 69.47C64.32 69.93 63.77 70.6 63.72 71.09C63.72 71.27 63.7199 72 63.5299 72.02C63.0299 71.02 61.9899 71.5 62.0399 72.6C62.0477 72.9143 62.1603 73.217 62.3599 73.4599L62.2999 73.5399C62.0538 74.2171 61.6293 74.8153 61.0713 75.2712C60.5133 75.7271 59.8426 76.0238 59.1299 76.13C59.0083 76.1593 58.8815 76.1593 58.7599 76.13C58.1999 75.87 58.6199 75.74 57.3799 75.59C57.2207 75.5855 57.0641 75.5486 56.9197 75.4816C56.7752 75.4145 56.646 75.3187 56.5399 75.1999C56.3944 74.8861 56.3729 74.5289 56.4799 74.1999C55.6799 73.6599 56.0499 73.4799 55.9199 72.8299C55.7899 72.1799 54.9699 71.79 54.8899 71.12Z" fill="#EBCDAC"/>
        <path d="M78.91 128.62H78.85C78.7684 128.603 78.6964 128.555 78.6497 128.486C78.603 128.417 78.5853 128.332 78.6 128.25L82.8699 107.38C82.8872 107.299 82.9359 107.228 83.0053 107.183C83.0747 107.138 83.159 107.123 83.2399 107.14C83.3208 107.157 83.3916 107.206 83.4366 107.275C83.4816 107.345 83.4972 107.429 83.4799 107.51L79.22 128.38C79.2039 128.45 79.1642 128.511 79.1077 128.555C79.0512 128.599 78.9814 128.622 78.91 128.62Z" fill="#1FA3AA"/>
        <path d="M82.6699 106.59C82.6699 106.679 82.6875 106.767 82.7218 106.849C82.7561 106.931 82.8064 107.005 82.8696 107.067C82.9329 107.13 83.008 107.179 83.0905 107.212C83.1729 107.245 83.2612 107.261 83.35 107.26H101.64C101.818 107.26 101.988 107.189 102.114 107.064C102.239 106.938 102.31 106.768 102.31 106.59C102.31 106.412 102.239 106.242 102.114 106.116C101.988 105.991 101.818 105.92 101.64 105.92H83.35C83.2612 105.919 83.1729 105.935 83.0905 105.968C83.008 106.001 82.9329 106.05 82.8696 106.113C82.8064 106.175 82.7561 106.249 82.7218 106.331C82.6875 106.413 82.6699 106.501 82.6699 106.59Z" fill="#3FB9C0"/>
        <path d="M21.2399 128.47C21.199 128.465 21.1595 128.452 21.1238 128.432C21.088 128.411 21.0567 128.384 21.0316 128.352C21.0065 128.319 20.988 128.282 20.9774 128.242C20.9668 128.202 20.9644 128.161 20.97 128.12L23.97 108.07C23.9847 107.988 24.0304 107.916 24.0975 107.867C24.1647 107.819 24.248 107.798 24.3299 107.81C24.3705 107.815 24.4095 107.828 24.4448 107.848C24.4801 107.869 24.5109 107.896 24.5353 107.929C24.5596 107.962 24.577 107.999 24.5864 108.039C24.5958 108.079 24.597 108.12 24.59 108.16L21.59 128.16C21.5903 128.204 21.5811 128.248 21.5631 128.289C21.5451 128.329 21.5186 128.365 21.4855 128.395C21.4523 128.424 21.4132 128.446 21.3708 128.459C21.3285 128.472 21.2838 128.476 21.2399 128.47Z" fill="#1FA3AA"/>
        <path d="M30.4099 128.24C30.369 128.235 30.3295 128.222 30.2938 128.202C30.258 128.181 30.2266 128.154 30.2015 128.122C30.1764 128.089 30.158 128.052 30.1474 128.012C30.1368 127.972 30.1342 127.931 30.1398 127.89L33.1398 107.84C33.1447 107.799 33.1577 107.76 33.1782 107.725C33.1986 107.69 33.2261 107.659 33.2589 107.635C33.2916 107.61 33.329 107.593 33.3687 107.584C33.4084 107.574 33.4496 107.573 33.4898 107.58C33.5307 107.585 33.5701 107.598 33.6059 107.618C33.6417 107.639 33.6731 107.666 33.6982 107.698C33.7233 107.731 33.7417 107.768 33.7523 107.808C33.7629 107.848 33.7654 107.889 33.7598 107.93L30.7598 127.93C30.7602 127.974 30.7511 128.018 30.7331 128.059C30.7151 128.099 30.6886 128.135 30.6555 128.165C30.6223 128.194 30.5832 128.216 30.5408 128.229C30.4985 128.242 30.4538 128.246 30.4099 128.24Z" fill="#1FA3AA"/>
        <path d="M71.79 128.24C71.7143 128.241 71.6409 128.213 71.5838 128.164C71.5267 128.114 71.4897 128.045 71.4799 127.97L68.4799 107.97C68.4743 107.929 68.4769 107.888 68.4875 107.848C68.4981 107.808 68.5166 107.771 68.5417 107.738C68.5668 107.706 68.5981 107.678 68.6339 107.658C68.6696 107.638 68.7091 107.625 68.75 107.62C68.7901 107.613 68.8315 107.614 68.8712 107.623C68.9109 107.633 68.9483 107.65 68.981 107.675C69.0138 107.699 69.0413 107.73 69.0617 107.765C69.0822 107.8 69.0952 107.839 69.1001 107.88L72.1001 127.93C72.1057 127.971 72.1031 128.012 72.0925 128.052C72.0819 128.092 72.0634 128.129 72.0383 128.161C72.0132 128.194 71.9819 128.221 71.9461 128.242C71.9104 128.262 71.8709 128.275 71.83 128.28L71.79 128.24Z" fill="#1FA3AA"/>
        <path d="M35.7299 105.56C35.6246 105.558 35.5234 105.519 35.4445 105.45C35.3656 105.38 35.3143 105.284 35.2999 105.18L33.85 94.5599C33.8358 94.4446 33.8678 94.3285 33.939 94.2367C34.0101 94.1449 34.1147 94.0849 34.2299 94.0699C34.2864 94.0615 34.3441 94.0644 34.3995 94.0785C34.4549 94.0926 34.507 94.1176 34.5526 94.1521C34.5982 94.1865 34.6365 94.2297 34.6653 94.2791C34.694 94.3286 34.7126 94.3832 34.72 94.4399L36.1699 105.07C36.1841 105.185 36.1521 105.301 36.0809 105.393C36.0097 105.485 35.9051 105.545 35.7899 105.56H35.7299Z" fill="#7CBDF4"/>
        <path d="M22.1599 107.63C22.1638 107.722 22.1857 107.812 22.2245 107.896C22.2633 107.979 22.3182 108.054 22.386 108.116C22.4538 108.179 22.5332 108.227 22.6196 108.258C22.7061 108.29 22.7979 108.304 22.8899 108.3H47.9399C48.0279 108.3 48.115 108.283 48.1963 108.249C48.2776 108.215 48.3515 108.166 48.4137 108.104C48.4759 108.042 48.5253 107.968 48.559 107.886C48.5926 107.805 48.6099 107.718 48.6099 107.63C48.6099 107.542 48.5926 107.455 48.559 107.374C48.5253 107.292 48.4759 107.219 48.4137 107.156C48.3515 107.094 48.2776 107.045 48.1963 107.011C48.115 106.977 48.0279 106.96 47.9399 106.96H22.8899C22.7979 106.956 22.7061 106.97 22.6196 107.002C22.5332 107.033 22.4538 107.081 22.386 107.144C22.3182 107.206 22.2633 107.281 22.2245 107.364C22.1857 107.448 22.1638 107.538 22.1599 107.63Z" fill="#3FB9C0"/>
        <path d="M21.7901 98.9099H33.24C33.504 98.9114 33.7652 98.8557 34.0057 98.7467C34.2461 98.6377 34.4601 98.4781 34.633 98.2786C34.8059 98.0791 34.9337 97.8444 35.0074 97.5909C35.0811 97.3375 35.0991 97.071 35.0601 96.8099L33.3901 85.1C33.3169 84.5014 33.0371 83.9471 32.5989 83.5327C32.1608 83.1183 31.5918 82.8697 30.99 82.83H19.7101C19.4359 82.8376 19.1667 82.9062 18.9222 83.0306C18.6777 83.1551 18.4639 83.3324 18.2964 83.5497C18.1289 83.767 18.0118 84.0189 17.9537 84.287C17.8955 84.5551 17.8977 84.8328 17.9601 85.1L19.6501 97.0499C19.7244 97.5651 19.9815 98.0364 20.3743 98.3778C20.7672 98.7192 21.2696 98.9081 21.7901 98.9099Z" fill="#1FA3AA"/>
        <path d="M23.1701 98.9099H34.7001C34.9431 98.9129 35.1838 98.8629 35.4055 98.7632C35.6271 98.6635 35.8243 98.5165 35.9833 98.3328C36.1424 98.149 36.2593 97.9328 36.3261 97.6991C36.3929 97.4654 36.4079 97.22 36.3701 96.98L34.6901 85.1C34.6133 84.5029 34.3323 83.9507 33.895 83.537C33.4576 83.1233 32.8906 82.8735 32.2901 82.83H21.0101C20.735 82.8361 20.4648 82.9036 20.219 83.0275C19.9733 83.1513 19.7583 83.3284 19.5897 83.5459C19.421 83.7634 19.3031 84.0157 19.2443 84.2845C19.1856 84.5534 19.1875 84.832 19.2501 85.1L20.9301 96.96C21.0089 97.499 21.2781 97.992 21.689 98.3497C22.0999 98.7074 22.6253 98.9061 23.1701 98.9099Z" fill="#3FB9C0"/>
        <path d="M27.25 103.09L27.4501 103.16L27.25 103.09Z" fill="#FFB288"/>
        <path d="M39.9001 113.69L39.8 126.24L41.3601 126.72L41.82 126.44L41.9001 125.56L43.82 113.12L39.9001 113.69Z" fill="#FFA27F"/>
        <path d="M44.7 108.99C44.91 101.54 38.2599 100.07 32.3899 98.7799H32.33L30.7499 98.4199C30.2759 98.2886 29.8114 98.1249 29.3599 97.9299C27.3599 97.1599 26.15 96.73 25.21 97.63C25.0082 97.8197 24.8481 98.0491 24.7396 98.3038C24.6312 98.5586 24.5768 98.8331 24.58 99.11C24.58 101.6 25.8899 105.81 27.8799 106.45L37.0499 107.77C37.6899 107.89 38.14 109.03 38.2 110.06C38.2 110.79 38.8699 122.21 38.9299 123.52C38.9299 124.4 39.1999 124.69 40.0599 124.6L42.9199 124.71C43.6799 124.64 43.6999 123.84 43.7299 123.07C43.7899 121.91 44.66 110.42 44.7 108.99Z" fill="#91B4DE"/>
        <path d="M48.78 112.72L49.54 126.5L51.36 126.98L51.9 126.53L51.92 125.81L52.81 111.91L48.78 112.72Z" fill="#FFA27F"/>
        <path d="M54.15 111.71L54.0301 108.03C53.8101 101.03 45.9701 99.6399 39.0301 98.4099L37.0301 98.0599C36.4558 97.9319 35.8885 97.7751 35.3301 97.5899C33.0701 96.8699 31.6401 96.4699 30.7101 97.2299C30.5256 97.3773 30.3792 97.5668 30.2835 97.7827C30.1877 97.9985 30.1454 98.2343 30.1601 98.4699C30.3201 100.81 32.08 104.76 34.39 105.36L45.24 106.85C45.7331 106.988 46.1752 107.267 46.5126 107.653C46.85 108.038 47.0679 108.513 47.14 109.02C47.29 110.02 48.4601 122.42 48.5801 123.67C48.6401 124.28 48.74 124.67 49.36 124.67H52.87C53.47 124.61 53.7101 124.08 53.6901 123.5C53.7901 123.42 54.16 111.82 54.15 111.71Z" fill="#91B4DE"/>
        <path d="M23.2199 83.45C22.5799 80.93 25.3199 77.93 28.0899 77.45C31.5099 76.81 31.7798 76.77 33.9798 78.13C36.4298 79.63 36.2999 83.69 36.2099 85.61C35.6899 95.82 38.2899 92.93 38.4599 97.72C38.4599 98.32 38.3899 98.49 37.7099 98.53C33.7999 98.73 31.7099 101.45 26.1999 100.87C25.6802 100.766 25.189 100.551 24.7598 100.24C24.5413 99.9834 24.3962 99.6724 24.3399 99.34C24.0575 98.2709 23.9427 97.1643 23.9998 96.06C24.2798 90.15 23.9799 86.45 23.2199 83.45Z" fill="white"/>
        <path d="M30.99 80.9299C30.19 80.4099 29.3801 79.8999 28.5601 79.3999C28.0301 79.0699 27.8201 78.4999 28.1001 78.1499C28.2947 77.8827 28.5485 77.6642 28.8417 77.5115C29.1349 77.3588 29.4595 77.2762 29.7901 77.27C30.6201 77.27 32.2301 77.64 32.2101 78.5C32.201 79.2326 32.1475 79.9638 32.0501 80.6899C32.0101 81.1099 31.45 81.2299 30.99 80.9299Z" fill="#FFA27F"/>
        <path d="M44.46 126.98L43.8999 126.81L40.3199 125.69C40.1199 125.63 39.87 125.69 39.83 125.83L39.59 126.61L39.1699 127.98C39.1699 128.1 39.2899 128.22 39.4999 128.22H43.9399C45.0999 128.24 45.49 127.31 44.46 126.98Z" fill="#034A89"/>
        <path d="M54.1599 127.13L53.6 126.96L50.0199 125.84C49.8199 125.78 49.5699 125.84 49.5299 125.98L49.2899 126.75L48.8699 128.12C48.8699 128.25 48.99 128.36 49.2 128.37H53.6399C54.7899 128.39 55.1899 127.46 54.1599 127.13Z" fill="#034A89"/>
        <path d="M70.9501 88.2C69.8301 87.02 67.3501 84.74 67.3501 84.74L65.3501 87.1899C66.9233 88.8188 68.6439 90.2985 70.49 91.61C70.8475 91.8132 71.2661 91.8815 71.6697 91.8026C72.0733 91.7237 72.4353 91.5028 72.6901 91.1799C74.5701 88.8799 76.53 85.94 78.25 83.5L77.9301 82.61C75.7601 84.35 74.0401 86.4899 72.0801 88.3199C71.9079 88.4367 71.6999 88.4888 71.493 88.4668C71.2862 88.4448 71.0939 88.3503 70.9501 88.2Z" fill="#F1B7B2"/>
        <path d="M70.9899 121.24L70.1399 125.75L72.2199 126.35L73.4499 121.15L70.9899 121.24Z" fill="#F1B7B2"/>
        <path d="M66.7201 106.71H52.7201L52.86 106.15L51.79 98.71L52.39 98.88C53.9038 99.0381 55.4323 98.9808 56.9301 98.71L57.37 98.6499C61.23 98.1399 70.8901 97.23 76.9301 99.96L76.8 100.36L76.9501 99.98C77.9242 100.415 78.7122 101.181 79.1737 102.142C79.6353 103.104 79.7404 104.198 79.4701 105.23C78.7501 108.15 77.3501 114.07 76.0601 120.86C76.0192 121.128 75.8875 121.373 75.6873 121.555C75.487 121.737 75.2303 121.845 74.9601 121.86L71.53 121.96C71.3719 121.961 71.2155 121.928 71.0708 121.864C70.9261 121.8 70.7964 121.707 70.6901 121.59C70.5766 121.467 70.4904 121.322 70.437 121.163C70.3836 121.004 70.3641 120.836 70.38 120.67C70.69 116.67 71.38 112.5 72.03 109.14C72.1 108.74 72.17 108.35 72.23 107.97C72.2572 107.82 72.2522 107.666 72.2152 107.519C72.1782 107.371 72.11 107.233 72.0154 107.114C71.9207 106.994 71.8017 106.897 71.6663 106.827C71.5308 106.757 71.3821 106.718 71.23 106.71C69.7279 106.623 68.2222 106.623 66.7201 106.71Z" fill="white"/>
        <path d="M53.25 80.39C53.25 80.39 56.77 74.68 64.15 79.46C64.501 79.7077 64.8085 80.0118 65.0601 80.36C65.4401 80.87 65.06 81.53 65.13 82.26C65.1408 83.8199 65.0272 85.3781 64.79 86.92C64.4678 89.3427 64.3908 91.7918 64.5601 94.23C64.5601 95.53 65.15 98.4101 65.23 99.7701C65.15 100.416 64.9391 101.039 64.61 101.6C63.1637 102.626 61.4748 103.257 59.7101 103.43C57.2101 103.65 56.9301 101.94 52.3301 102.13C52.0474 102.144 51.7704 102.047 51.5576 101.861C51.3449 101.674 51.2131 101.412 51.1901 101.13C50.6301 95.59 51.7501 92.26 52.4401 84.08C52.3471 82.7975 52.6284 81.5157 53.25 80.39Z" fill="#F46F67"/>
        <path d="M63.3299 79.2C64.5899 79.93 64.2699 79.36 65.2099 80.47C67.0099 82.59 69.7999 84.9799 70.2099 86.2899C70.4799 87.2199 68.9199 89.09 67.8199 89.61C67.6891 89.6707 67.5424 89.6889 67.4007 89.662C67.259 89.6351 67.1294 89.5644 67.0299 89.46L66.1999 88.57L65.9199 88.2799C64.5699 86.9199 63.2599 85.51 61.9199 84.19C60.8199 83.19 60.9199 81.29 61.4699 79.87C61.5402 79.6888 61.6489 79.525 61.7888 79.39C61.9286 79.2551 62.0963 79.1521 62.2799 79.0884C62.4635 79.0246 62.6587 79.0016 62.8521 79.0209C63.0455 79.0402 63.2324 79.1012 63.3999 79.2H63.3299Z" fill="#F46F67"/>
        <path d="M67.6099 89.7999C67.4989 89.7999 67.3892 89.7768 67.2876 89.7321C67.186 89.6873 67.0948 89.6218 67.0199 89.5399L66.1899 88.6499H66.1399C66.0683 88.5683 65.9915 88.4915 65.9099 88.4199L64.5599 87.0299C63.6899 86.1299 62.7899 85.2 61.8699 84.33C61.859 84.3197 61.8503 84.3073 61.8444 84.2936C61.8384 84.2798 61.8354 84.265 61.8354 84.25C61.8354 84.235 61.8384 84.2202 61.8444 84.2064C61.8503 84.1927 61.859 84.1802 61.8699 84.1699C61.8919 84.1502 61.9204 84.1394 61.95 84.1394C61.9795 84.1394 62.0079 84.1502 62.0299 84.1699C62.9599 85.0399 63.8599 85.97 64.7299 86.87L66.08 88.26L66.3199 88.5L67.1499 89.39C67.2308 89.4772 67.3366 89.5373 67.4529 89.5624C67.5691 89.5874 67.6903 89.576 67.7999 89.5299C68.9199 89.0099 70.3899 87.17 70.1399 86.33C70.136 86.3155 70.135 86.3004 70.1368 86.2855C70.1387 86.2707 70.1434 86.2564 70.1509 86.2434C70.1583 86.2304 70.1682 86.219 70.1801 86.2098C70.1919 86.2007 70.2055 86.1939 70.22 86.1899C70.2344 86.186 70.2494 86.185 70.2643 86.1869C70.2791 86.1888 70.2935 86.1935 70.3065 86.2009C70.3195 86.2084 70.3309 86.2183 70.3401 86.2301C70.3493 86.2419 70.3559 86.2556 70.3599 86.27C70.6599 87.27 69.0199 89.21 67.8999 89.73C67.809 89.7728 67.7103 89.7965 67.6099 89.7999Z" fill="#D14C46"/>
        <path d="M58.2899 121.44L57.4299 125.95L59.5199 126.12L60.7399 121.35L58.2899 121.44Z" fill="#F1B7B2"/>
        <path d="M70.1299 125.76C71.6903 126.056 73.2251 126.474 74.72 127.01C75.72 127.35 75.3999 128.38 74.2299 128.39L69.81 128.45C69.59 128.45 69.43 128.33 69.47 128.2L70.08 125.84C70.0907 125.81 70.1077 125.783 70.1299 125.76Z" fill="#000543"/>
        <path d="M57.59 125.71C59.151 126.008 60.6858 126.429 62.18 126.97C63.18 127.3 62.85 128.33 61.69 128.35L57.2599 128.41C57.0499 128.41 56.89 128.29 56.93 128.15L57.54 125.79C57.553 125.761 57.5698 125.734 57.59 125.71Z" fill="#000543"/>
        <path d="M63.2 103.12L62.44 103.48C62.0352 105.495 61.47 107.475 60.75 109.4C59.75 112.57 58.56 116.51 57.75 120.4C57.7065 120.614 57.7128 120.836 57.7683 121.047C57.8237 121.259 57.927 121.455 58.07 121.62C58.2137 121.783 58.3905 121.914 58.5888 122.004C58.7871 122.094 59.0024 122.14 59.2201 122.14H62.04C62.3495 122.139 62.6511 122.043 62.9035 121.864C63.156 121.684 63.3469 121.432 63.45 121.14C65.05 116.21 66.45 112.72 67.45 109.91C68.2245 108.06 68.8923 106.167 69.45 104.24L69.55 103.86L63.2 103.12Z" fill="white"/>
        <path d="M49.8999 98.22H61.7899C62.0551 98.2188 62.3171 98.1618 62.5588 98.0527C62.8006 97.9437 63.0167 97.785 63.1931 97.5869C63.3695 97.3888 63.5022 97.1558 63.5827 96.9031C63.6631 96.6503 63.6894 96.3836 63.6599 96.12L62.2999 84.3999C62.2379 83.8055 61.9682 83.2521 61.5383 82.8369C61.1085 82.4217 60.5461 82.1715 59.95 82.13H48.6699C48.3942 82.1395 48.1238 82.2086 47.8773 82.3325C47.6308 82.4565 47.4141 82.6323 47.2421 82.848C47.0701 83.0637 46.9468 83.3143 46.8809 83.5822C46.8149 83.8501 46.8077 84.129 46.8599 84.3999L48.2899 96.75C48.3357 97.1481 48.5239 97.5161 48.8198 97.7863C49.1157 98.0564 49.4993 98.2105 49.8999 98.22Z" fill="#1FA3AA"/>
        <path d="M49.3801 98.22H60.9101C61.1551 98.2216 61.3977 98.1712 61.6218 98.072C61.8458 97.9729 62.0463 97.8272 62.2099 97.6448C62.3735 97.4623 62.4965 97.2471 62.5706 97.0135C62.6448 96.78 62.6684 96.5333 62.6401 96.2899L61.2601 84.3999C61.198 83.8055 60.9283 83.2521 60.4985 82.8369C60.0687 82.4217 59.5063 82.1715 58.9101 82.13H47.6301C47.3543 82.1395 47.0839 82.2086 46.8375 82.3325C46.591 82.4565 46.3742 82.6323 46.2022 82.848C46.0302 83.0637 45.907 83.3143 45.841 83.5822C45.775 83.8501 45.768 84.129 45.8201 84.3999L47.2001 96.27C47.2593 96.8066 47.5145 97.3023 47.9168 97.6622C48.3192 98.0221 48.8402 98.2208 49.3801 98.22Z" fill="#3FB9C0"/>
        <path d="M77.1901 83.0499C77.3229 82.8151 77.5035 82.6107 77.7201 82.4499C77.8729 82.3483 78.042 82.2739 78.2201 82.23L79.1401 81.9199L79.61 81.7799C79.6257 81.7727 79.6428 81.769 79.6601 81.769C79.6773 81.769 79.6945 81.7727 79.7101 81.7799C79.7226 81.7993 79.7292 81.8219 79.7292 81.845C79.7292 81.868 79.7226 81.8905 79.7101 81.9099C79.6969 81.958 79.6729 82.0024 79.6401 82.0399C79.5421 82.1221 79.4304 82.1865 79.3101 82.23L78.7901 82.4399C78.6715 82.4787 78.567 82.5517 78.49 82.6499C78.49 82.6499 78.5602 82.6499 78.6002 82.6499L79.6002 82.1499C79.6535 82.1258 79.7037 82.0957 79.7501 82.0599C79.8835 81.9292 79.989 81.7727 80.0601 81.6C80.0601 81.5 80.1901 81.3999 80.2701 81.4499C80.3501 81.4999 80.3602 81.5799 80.3502 81.6699C80.3365 81.7916 80.313 81.912 80.2801 82.0299C80.1701 82.3999 80.0401 82.78 79.9001 83.14C79.8631 83.2572 79.8092 83.3684 79.74 83.47C79.6692 83.5531 79.5821 83.6208 79.4841 83.6689C79.386 83.7171 79.2792 83.7447 79.1701 83.75C78.9501 83.75 78.7401 83.75 78.5201 83.75C78.2989 83.7414 78.0833 83.8204 77.9201 83.97C77.7301 84.16 77.4301 84.4099 77.0601 84.0799C76.6901 83.7499 76.8501 83.5199 77.0601 83.1999L77.1901 83.0499Z" fill="#F1B7B2"/>
        <path d="M86.2501 98.99L88.1301 98.68L87.6401 97.39L85.8601 97.7L86.2501 98.99Z" fill="#FFA27F"/>
        <path d="M85.8899 97.71C85.8899 97.71 84.1099 97.7099 82.8899 100.28L86.34 99C86.34 99 85.9199 97.71 85.8899 97.71Z" fill="#FFA27F"/>
        <path d="M92.9999 94.0499C93.297 93.8535 93.5307 93.5751 93.6727 93.2485C93.8147 92.9219 93.8589 92.5611 93.7999 92.2099C92.8699 86.8899 91.4799 82.1399 92.3399 81.9399C95.8299 81.1399 96.48 84.7199 96.6 85.2499C98.68 94.2499 98.29 94.0499 97.6 95.3599C96.6 97.3599 88.8499 98.6399 87.0299 98.8599C86.8099 98.8599 86.6599 98.6499 86.6699 98.3799C86.8599 95.1699 85.8599 97.2399 92.9999 94.0499Z" fill="white"/>
        <path d="M102.59 93.16C102.874 92.9798 103.088 92.7084 103.197 92.3903C103.306 92.0722 103.304 91.7264 103.19 91.41C101.65 86.03 99.7099 81.16 100.56 81.05C104.02 80.6 105.08 84.2201 105.26 84.7701C108.38 93.8901 107.96 93.69 107.41 94.92C106.57 96.81 98.8899 97.32 97.0599 97.36C96.8499 97.36 96.6599 97.12 96.6499 96.85C96.4799 93.71 95.6899 95.63 102.59 93.16Z" fill="white"/>
        <path d="M102.94 65.0399C103.38 65.4363 103.871 65.7726 104.4 66.0399C104.88 66.2099 105.4 66.1899 105.9 66.3199C106.4 66.4499 106.9 66.8499 106.8 67.3199C106.8 67.5399 106.61 67.7299 106.57 67.9499C106.47 68.5799 107.28 68.95 107.78 69.37C108.055 69.6027 108.259 69.9079 108.368 70.251C108.478 70.594 108.489 70.961 108.4 71.3099C108.27 71.7999 107.93 72.31 108.16 72.77C108.39 73.23 108.83 73.35 108.89 73.77C108.99 74.36 108.11 74.66 107.89 75.22C107.76 75.61 107.99 76.0199 108.09 76.4299C108.167 76.8091 108.127 77.2025 107.978 77.5591C107.828 77.9157 107.574 78.2191 107.25 78.4299C106.859 78.6109 106.499 78.8504 106.18 79.14C105.84 79.57 105.91 80.22 105.51 80.59C104.67 81.37 103.7 80.42 102.63 80.21C101.29 79.96 99.6999 80.96 98.6299 80.21C98.3799 80.02 98.1799 79.7399 97.8599 79.6799C97.5399 79.6199 97.2299 79.8299 96.8599 79.8099C96.2499 79.8099 95.9799 79.0099 95.5099 78.6899C95.3827 78.6329 95.2525 78.5828 95.1199 78.5399C91.7899 77.1799 89.64 74.5399 90.05 71.9099C90.39 69.7099 92.41 68.0199 95.15 67.2899V67.21C95.2875 66.875 95.4913 66.5713 95.7491 66.317C96.0068 66.0627 96.3132 65.863 96.65 65.73C97.91 65.13 98.9799 65.9299 100.11 65.5699C100.55 65.4299 100.78 64.9799 101.2 64.7899C101.486 64.6734 101.798 64.6351 102.104 64.6791C102.41 64.723 102.698 64.8475 102.94 65.0399Z" fill="#8E4B32"/>
        <path d="M86.1 106.3C89.83 106.35 99.53 106.44 103.1 106.12C107.29 105.74 106.18 97.9299 101.95 97.8199C93.5499 97.5899 84.6199 98.67 81.0399 100.74C79.1599 101.83 79.4599 105.88 81.4999 106.41C83.0255 106.676 84.5888 106.639 86.1 106.3Z" fill="#034A89"/>
        <path d="M104.86 100.57C106.52 99.1099 104.47 94.7499 105.33 87.0799C105.63 84.5099 103.33 80.14 101.12 79.64C98.24 78.99 96.4501 78.22 94.7901 79.26C94.2023 79.5385 93.6569 79.8987 93.1701 80.3299C91.1701 82.0399 92.6601 84.9199 93.5801 87.3299C95.9401 93.4799 93.35 92.77 93.77 97.12C93.85 97.95 92.6701 98.4 93.5801 98.48C96.6901 98.77 99.15 101.58 103.4 100.99C103.895 100.962 104.375 100.814 104.8 100.56L104.86 100.57Z" fill="white"/>
        <path d="M93.6999 97.1499C93.6858 97.1475 93.673 97.1402 93.6638 97.1292C93.6546 97.1181 93.6497 97.1043 93.6499 97.09C93.5058 95.8999 93.6499 94.6927 94.0699 93.5699C94.5099 92.2099 94.8899 91.0299 93.4599 87.3199C93.3699 87.0699 93.2699 86.83 93.1699 86.58C92.2899 84.36 91.2899 81.8499 93.0699 80.2799C93.4046 79.9865 93.7662 79.7255 94.1499 79.5C94.1499 79.5 94.2099 79.5 94.2199 79.5C94.2261 79.5047 94.2311 79.5106 94.2346 79.5176C94.2381 79.5245 94.2398 79.5322 94.2398 79.5399C94.2398 79.5477 94.2381 79.5554 94.2346 79.5624C94.2311 79.5693 94.2261 79.5753 94.2199 79.58C93.8438 79.8036 93.4889 80.0614 93.1599 80.35C91.4399 81.86 92.4199 84.35 93.2899 86.52C93.3899 86.77 93.4899 87.01 93.5799 87.26C95.0299 91.01 94.5799 92.26 94.1899 93.58C93.784 94.6922 93.6436 95.8838 93.7799 97.0599C93.7851 97.0691 93.7879 97.0794 93.7879 97.09C93.7879 97.1005 93.7851 97.1109 93.7799 97.12L93.6999 97.1499Z" fill="#F9CDAF"/>
        <path d="M94.7301 74.77H95.2401C95.2898 74.77 95.3301 74.7298 95.3301 74.6801C95.3301 74.6303 95.2898 74.5901 95.2401 74.5901H94.7301C94.6804 74.5901 94.64 74.6303 94.64 74.6801C94.64 74.7298 94.6804 74.77 94.7301 74.77Z" fill="white"/>
        <path d="M98.1999 74.56C98.4102 74.7002 98.6572 74.775 98.9099 74.775C99.1626 74.775 99.4096 74.7002 99.6199 74.56C99.7885 74.3668 99.8972 74.1288 99.9327 73.8748C99.9682 73.6209 99.9291 73.3621 99.8199 73.1301C99.5221 72.5167 99.1308 71.9532 98.6599 71.46C98.6428 71.2233 98.6026 70.9889 98.5399 70.7601L98.2899 70.98C98.1883 70.8373 98.098 70.6868 98.0199 70.53C97.6799 69.83 97.5799 68.95 96.9599 68.53C96.5549 68.2759 96.0743 68.17 95.6 68.23C95.0304 68.2752 94.4652 68.3655 93.9099 68.5001L92.6899 68.7601C92.6473 68.7486 92.6025 68.7486 92.5599 68.7601C92.5238 68.8007 92.4965 68.8482 92.4798 68.9C92.4798 69.03 92.29 69.28 92.22 69.49C92.1933 69.5815 92.1933 69.6786 92.22 69.7701C92.28 70.0001 92.5699 70.0101 92.7599 70.0201C93.456 70.0485 94.1364 70.2364 94.7484 70.5693C95.3604 70.9022 95.8878 71.3711 96.2899 71.94C96.6499 72.48 96.8399 73.1101 97.2099 73.6401C97.4108 73.9409 97.6691 74.1991 97.97 74.4C97.8996 74.4996 97.8069 74.5814 97.6992 74.6387C97.5915 74.696 97.4719 74.7273 97.35 74.73L97.72 75.8901C97.8887 75.6319 98.023 75.3528 98.1199 75.06C98.0999 74.88 98.1499 74.71 98.1999 74.56Z" fill="#8E4B32"/>
        <path d="M97.3101 74.71C97.432 74.7073 97.5516 74.676 97.6593 74.6187C97.767 74.5613 97.8597 74.4797 97.9301 74.38C97.6292 74.1791 97.3709 73.9209 97.17 73.62C96.8 73.09 96.61 72.4599 96.25 71.9199C95.8479 71.351 95.3205 70.8821 94.7085 70.5492C94.0965 70.2163 93.4162 70.0284 92.7201 70C92.5301 70 92.2401 70 92.1801 69.75C92.1534 69.6586 92.1534 69.5614 92.1801 69.47C91.6343 70.0254 91.3259 70.7713 91.3201 71.5499V73.96C91.3201 74.7556 91.6361 75.5187 92.1987 76.0813C92.7613 76.6439 93.5244 76.96 94.3201 76.96H94.62L95.37 79.2899C95.2339 79.359 95.1187 79.463 95.0361 79.5913C94.9535 79.7196 94.9066 79.8676 94.9 80.02C94.9031 80.7565 94.96 81.4917 95.0701 82.22C95.0701 82.64 95.67 82.77 96.14 82.46C96.94 81.93 97.7601 81.4599 98.5701 80.8999C99.1001 80.5699 99.31 80 99.03 79.64C98.9156 79.4923 98.7848 79.3581 98.64 79.24L97.5801 75.9199L97.2101 74.76L97.3101 74.71Z" fill="#FFA27F"/>
        <path d="M91 102.01C90.7678 101.639 90.4377 101.339 90.046 101.143C89.6544 100.947 89.2163 100.864 88.78 100.901C88.3438 100.938 87.9264 101.095 87.5735 101.354C87.2206 101.613 86.946 101.965 86.78 102.37L86.4401 103.15C86.0879 103.958 85.9601 104.846 86.0701 105.72C87.0499 112.796 87.2711 119.957 86.73 127.08H88.61L89.1001 126.41C89.3301 125.6 89.2001 126.35 89.7001 122.27C90.1901 117.99 91.3701 107.6 91.3301 105.05C91.2901 104 91.57 102.91 91 102.01Z" fill="#FFA27F"/>
        <path d="M80.6399 101.88C80.8736 101.509 81.2048 101.21 81.5971 101.015C81.9894 100.819 82.4279 100.736 82.8645 100.773C83.3012 100.81 83.7191 100.967 84.0728 101.225C84.4265 101.484 84.7022 101.835 84.8699 102.24L85.2399 103.02C85.6248 103.819 85.7839 104.707 85.7 105.59C85.0031 112.696 85.0634 119.856 85.8799 126.95H83.9999L83.71 126.19C82.202 119.171 81.1134 112.068 80.45 104.92C80.42 103.87 80.0999 102.78 80.6399 101.88Z" fill="#FFA27F"/>
        <path d="M81.08 127.1L85.34 125.65C85.55 125.58 85.81 125.65 85.85 125.81L86.5499 128.16C86.5499 128.3 86.42 128.42 86.2 128.43H81.6199C80.4199 128.49 80.01 127.47 81.08 127.1Z" fill="white"/>
        <path d="M89.49 126.53L89.2901 125.64C89.2763 125.601 89.2541 125.565 89.225 125.534C89.196 125.504 89.1608 125.481 89.1219 125.466C89.0829 125.451 89.0412 125.444 88.9994 125.446C88.9577 125.449 88.9169 125.46 88.88 125.48L85.9301 126.8L85.48 127C84.62 127.38 84.9501 128.46 85.9101 128.44H89.5701C89.7501 128.44 89.8801 128.31 89.8501 128.16L89.49 126.53Z" fill="white"/>
        <path d="M97.05 97.4199C96.9167 97.398 96.7961 97.3278 96.7112 97.2227C96.6264 97.1175 96.5833 96.9849 96.59 96.85C96.59 96.47 96.5899 96.1599 96.5099 95.9099C96.4099 94.7999 96.4299 94.78 97.7399 94.5C99.3809 94.1521 100.995 93.6876 102.57 93.11C102.794 93.0005 102.968 92.8115 103.06 92.58C103.23 92.2199 103.255 91.808 103.13 91.4299C102.66 89.7799 102.13 88.17 101.7 86.75C101.27 85.33 100.87 84.16 100.61 83.2H100.72C100.98 84.2 101.36 85.35 101.8 86.74C102.24 88.13 102.8 89.7399 103.24 91.4199C103.376 91.8244 103.348 92.2665 103.16 92.6499C103.113 92.7792 103.04 92.8975 102.945 92.9973C102.851 93.0971 102.737 93.1763 102.61 93.23C101.032 93.8184 99.4102 94.2831 97.7599 94.62C96.5199 94.89 96.5199 94.8899 96.6199 95.9199C96.6199 96.1699 96.68 96.48 96.7 96.86C96.72 97.24 96.87 97.3199 97.05 97.3199C99.05 97.3199 106.54 96.7599 107.36 94.9199C107.36 94.8399 107.43 94.77 107.46 94.7C107.94 93.7 108.12 93.3199 105.21 84.8099V84.73C105.019 84.1341 104.757 83.5633 104.43 83.0299L104.53 82.97C104.861 83.5132 105.126 84.0939 105.32 84.7V84.77C108.25 93.33 108.06 93.71 107.57 94.77C107.57 94.84 107.5 94.91 107.47 94.99C106.63 96.88 99.05 97.41 97.06 97.46L97.05 97.4199Z" fill="#F9CDAF"/>
        <path d="M141.01 128.35C141.094 128.35 141.175 128.321 141.241 128.268C141.306 128.215 141.352 128.142 141.37 128.06L146.9 104.55C146.911 104.502 146.913 104.452 146.905 104.404C146.897 104.355 146.879 104.309 146.853 104.267C146.827 104.225 146.793 104.189 146.753 104.16C146.713 104.132 146.668 104.111 146.62 104.1C146.572 104.089 146.522 104.087 146.474 104.095C146.425 104.103 146.379 104.121 146.337 104.147C146.295 104.173 146.259 104.207 146.23 104.247C146.202 104.287 146.181 104.332 146.17 104.38L140.65 127.89C140.638 127.937 140.636 127.986 140.643 128.035C140.65 128.083 140.666 128.129 140.691 128.171C140.716 128.213 140.75 128.249 140.789 128.278C140.828 128.307 140.873 128.328 140.92 128.34L141.01 128.35Z" fill="#1FA3AA"/>
        <path d="M165.97 115.76H102.03V116.51H165.97V115.76Z" fill="#1FA3AA"/>
        <path d="M99.13 108.59H119.06V96.53H99.13V108.59Z" fill="#E7A886"/>
        <path d="M109.24 104.64C111.061 104.648 112.827 104.016 114.23 102.856C115.633 101.696 116.585 100.08 116.92 98.2899C117.199 96.3005 117.796 94.3691 118.69 92.5699C118.96 92.0899 119.23 91.57 119.48 91.13C120.063 90.0247 120.936 89.099 122.006 88.4524C123.075 87.8058 124.3 87.4627 125.55 87.46H130.33L123.33 104.71L146.52 104.82L147.64 115.93C134.23 115.93 105.82 116.02 102.36 115.93L100.77 104.59L109.24 104.64Z" fill="#FFC596"/>
        <path d="M170.43 87.46L163.87 109.24H117.36L126.77 87.46H170.43Z" fill="#FFC596"/>
        <path d="M99.3099 128.35C99.3952 128.35 99.478 128.322 99.5451 128.269C99.6122 128.216 99.6597 128.143 99.6799 128.06L104.1 109.3C104.112 109.252 104.115 109.203 104.108 109.154C104.101 109.105 104.084 109.058 104.059 109.016C104.034 108.973 104 108.937 103.96 108.908C103.92 108.879 103.875 108.858 103.827 108.846C103.779 108.835 103.729 108.833 103.681 108.842C103.632 108.85 103.585 108.868 103.544 108.894C103.502 108.92 103.466 108.955 103.438 108.995C103.41 109.036 103.39 109.082 103.38 109.13L98.9499 127.89C98.9288 127.987 98.9462 128.088 98.9985 128.172C99.0508 128.256 99.1337 128.316 99.2298 128.34L99.3099 128.35Z" fill="#1FA3AA"/>
        <path d="M104.69 104.22C105.48 109.46 104.8 115.94 102.35 115.94C99.9 115.94 96.64 109.94 95.85 104.68C95.06 99.4199 96.9299 96.5 99.3799 96.5C101.83 96.5 103.9 98.98 104.69 104.22Z" fill="#FFC596"/>
        <path d="M168.45 128.35H168.54C168.636 128.326 168.719 128.266 168.771 128.182C168.824 128.098 168.841 127.997 168.82 127.9L163.58 105.62C163.558 105.523 163.497 105.439 163.413 105.387C163.329 105.334 163.227 105.317 163.13 105.34C163.033 105.363 162.949 105.423 162.897 105.507C162.844 105.591 162.828 105.693 162.85 105.79L168.09 128.07C168.11 128.15 168.157 128.221 168.222 128.272C168.287 128.323 168.367 128.35 168.45 128.35Z" fill="#1FA3AA"/>
        <path d="M119.21 75.71C119.79 75.27 120.97 74.84 121.42 74.46C121.733 74.2185 122.012 73.936 122.25 73.62C122.429 73.3651 122.543 73.0696 122.58 72.76C122.58 72.76 122.33 72.31 122.58 72.64C122.146 71.9719 121.982 71.1644 122.12 70.38C121.996 69.8697 121.741 69.4008 121.38 69.02C120.769 68.3382 119.943 67.8864 119.04 67.74C118.554 67.5501 118.041 67.4419 117.52 67.4199C117.138 67.3668 116.749 67.3945 116.379 67.5013C116.009 67.6081 115.665 67.7916 115.37 68.0399C115.208 68.1952 115.055 68.3588 114.91 68.5299C114.79 68.6999 114.68 68.8799 114.57 69.0599C114.46 69.2399 113.67 69.6399 113.57 70.1699C113.437 70.6698 113.483 71.2003 113.7 71.6699C114.23 71.5799 114.7 70.87 115.17 70.97C115.315 71.0033 115.454 71.0608 115.58 71.14C116.21 71.54 116.74 71.86 116.94 72.64C117.14 73.42 116.88 74.0599 117.35 74.5499C117.82 75.0399 118.54 74.96 118.99 75.37C119.079 75.4721 119.153 75.5866 119.21 75.71Z" fill="#000543"/>
        <path d="M125.29 72.36C125.38 72.5766 125.501 72.7787 125.65 72.96C125.79 73.09 125.99 73.16 126.14 73.29C126.221 73.3461 126.281 73.4279 126.31 73.5223C126.339 73.6166 126.335 73.7179 126.3 73.81C126.3 73.9 126.16 73.9499 126.11 74.0299C125.97 74.2699 126.2 74.5301 126.31 74.7701C126.368 74.9101 126.389 75.0624 126.372 75.2129C126.354 75.3634 126.298 75.5071 126.21 75.63C126.08 75.8 125.88 75.96 125.88 76.18C125.88 76.4 126.03 76.5 125.99 76.67C125.95 76.84 125.56 76.91 125.4 77.1C125.315 77.2565 125.27 77.4319 125.27 77.61C125.239 77.7721 125.164 77.9225 125.053 78.0444C124.941 78.1662 124.799 78.2547 124.64 78.3C124.468 78.3138 124.299 78.3542 124.14 78.42C123.95 78.54 123.87 78.8099 123.66 78.8999C123.24 79.0899 123.05 78.57 122.66 78.33C122.27 78.09 121.49 78.21 121.24 77.73C121.18 77.62 121.16 77.48 121.05 77.41C120.94 77.34 120.8 77.41 120.69 77.32C120.58 77.23 120.51 76.88 120.39 76.68L120.28 76.57C119.817 76.1582 119.497 75.6093 119.367 75.0031C119.238 74.3969 119.305 73.7652 119.56 73.2C119.839 72.7892 120.231 72.4678 120.689 72.2745C121.147 72.0811 121.651 72.024 122.14 72.11C122.239 71.9994 122.358 71.9097 122.492 71.8461C122.626 71.7826 122.772 71.7465 122.92 71.74C123.47 71.68 123.71 72.15 124.18 72.17C124.36 72.17 124.52 72.0401 124.69 72.0201C124.812 72.011 124.935 72.0384 125.042 72.0989C125.148 72.1594 125.235 72.2503 125.29 72.36Z" fill="#000543"/>
        <path d="M117.84 83.1699C117.817 82.7728 117.638 82.401 117.342 82.1351C117.046 81.8692 116.657 81.7309 116.26 81.75C116.084 81.7373 115.908 81.7644 115.744 81.8295C115.58 81.8945 115.433 81.9957 115.314 82.1255C115.195 82.2553 115.106 82.4104 115.055 82.5791C115.005 82.7478 114.992 82.9259 115.02 83.1V83.38C115.02 83.49 116.02 93.2699 110.11 98.6699C109.5 99.2299 108.99 99.75 109.37 100.49C110.37 102.44 118.58 96.0899 117.84 83.1699Z" fill="#D2996C"/>
        <path d="M111.27 122.62C111.53 123.62 112.1 125.34 112.27 126.29C112.65 128.06 114.39 127.29 114.1 125.97C113.85 124.9 113.64 123.77 113.45 122.62H111.27Z" fill="#D2996C"/>
        <path d="M111.01 126.92L111.38 126.74C111.582 126.914 111.816 127.046 112.069 127.129C112.323 127.211 112.59 127.242 112.856 127.22C113.121 127.197 113.379 127.122 113.615 126.999C113.851 126.875 114.06 126.705 114.23 126.5L114.52 127.9C114.524 127.932 114.522 127.965 114.512 127.996C114.502 128.027 114.486 128.055 114.464 128.079C114.442 128.103 114.415 128.122 114.385 128.134C114.355 128.146 114.322 128.152 114.29 128.15H111.36C111.217 128.146 111.08 128.097 110.967 128.01C110.854 127.922 110.772 127.801 110.733 127.664C110.694 127.526 110.7 127.38 110.75 127.246C110.799 127.113 110.891 126.998 111.01 126.92Z" fill="#000543"/>
        <path d="M111.38 126.71L113.74 125.54C113.77 125.524 113.804 125.515 113.838 125.513C113.872 125.511 113.907 125.517 113.938 125.531C113.97 125.544 113.998 125.565 114.021 125.59C114.044 125.616 114.061 125.647 114.07 125.68L114.23 126.47C114.06 126.675 113.851 126.845 113.615 126.969C113.379 127.092 113.121 127.167 112.855 127.19C112.59 127.212 112.323 127.181 112.069 127.099C111.816 127.016 111.581 126.884 111.38 126.71Z" fill="#D2996C"/>
        <path d="M107.16 122.71C107.41 123.71 107.65 124.71 107.85 125.71C108.22 127.49 110.3 127.39 110 126.09C109.75 125.03 109.54 123.9 109.35 122.75L107.16 122.71Z" fill="#D2996C"/>
        <path d="M105.52 126.95L106.05 126.77C108.13 127.77 109.47 127.12 110.17 126.53L110.59 127.93C110.59 128.06 110.47 128.18 110.27 128.18H106.02C104.91 128.24 104.53 127.29 105.52 126.95Z" fill="#000543"/>
        <path d="M106.05 126.77L109.47 125.6C109.66 125.53 109.9 125.6 109.94 125.74L110.17 126.53C109.47 127.12 108.13 127.71 106.05 126.77Z" fill="#D2996C"/>
        <path d="M112.79 98.84C109.45 99.5 105 101.72 104.22 105.21C103.59 108.39 105.61 120.45 106.3 123.53C106.334 123.699 106.429 123.85 106.568 123.954C106.706 124.057 106.878 124.106 107.05 124.09H109.97C110.059 124.086 110.147 124.064 110.228 124.026C110.308 123.987 110.381 123.932 110.439 123.865C110.498 123.798 110.543 123.719 110.571 123.634C110.598 123.549 110.608 123.459 110.6 123.37C109.172 117.85 108.937 112.088 109.91 106.47C109.975 106.16 110.133 105.878 110.364 105.661C110.595 105.445 110.887 105.305 111.2 105.26C112.79 105.07 115.77 104.71 118.96 104.26C122.36 103.76 120.22 99.26 121.3 96.01C118.594 97.3083 115.735 98.2591 112.79 98.84Z" fill="#B2C3EB"/>
        <path d="M116.13 99.59C112.8 100.26 108.98 101.84 108.19 105.33C107.57 108.51 108.04 112.03 108.19 115.07C108.401 118 108.937 120.898 109.79 123.71C109.843 123.879 109.953 124.026 110.099 124.126C110.246 124.225 110.423 124.273 110.6 124.26H113.92C114.009 124.255 114.096 124.232 114.176 124.193C114.256 124.154 114.327 124.099 114.386 124.032C114.445 123.965 114.489 123.887 114.518 123.803C114.546 123.718 114.557 123.629 114.55 123.54C113.151 118.009 113.007 112.234 114.13 106.64C114.253 106.312 114.464 106.024 114.739 105.807C115.013 105.591 115.342 105.453 115.69 105.41C117.28 105.21 119.69 104.88 122.91 104.41C126.31 103.91 129.34 102.78 129.29 98.4099C124.882 98.5069 120.485 98.9012 116.13 99.59Z" fill="#B2C3EB"/>
        <path d="M109.91 123.71C109.901 123.716 109.891 123.72 109.88 123.72C109.869 123.72 109.859 123.716 109.85 123.71C109.014 120.909 108.488 118.025 108.28 115.11C108.28 114.58 108.2 114.04 108.16 113.47C107.822 110.779 107.839 108.056 108.21 105.37C109.06 101.74 113.02 100.23 116.21 99.5999C118.81 99.0799 122.6 98.6899 125.32 98.4599C125.329 98.456 125.339 98.4543 125.349 98.4552C125.359 98.456 125.368 98.4592 125.377 98.4647C125.385 98.4702 125.392 98.4777 125.397 98.4864C125.402 98.4952 125.404 98.505 125.404 98.515C125.404 98.5249 125.402 98.5347 125.397 98.5434C125.392 98.5522 125.385 98.5597 125.377 98.5652C125.368 98.5706 125.359 98.5738 125.349 98.5747C125.339 98.5755 125.329 98.5739 125.32 98.5699C122.6 98.7999 118.82 99.1899 116.22 99.7099C113.06 100.34 109.13 101.83 108.32 105.4C107.95 108.052 107.929 110.742 108.26 113.4C108.26 113.97 108.35 114.51 108.38 115.04C108.587 117.949 109.114 120.826 109.95 123.62C109.957 123.63 109.961 123.642 109.961 123.655C109.961 123.667 109.957 123.68 109.95 123.69L109.91 123.71Z" fill="#899FCC"/>
        <path d="M126.13 84.4399C126.13 82.1899 124.13 79.3099 121.69 78.9999C118.46 78.5799 118.27 78.2999 116.69 79.2099C114.58 80.5999 114.78 84.12 115.69 86.14C118.93 93.53 116.31 93.1399 117.25 97.3699C117.37 97.8999 116.95 98.2999 117.56 98.3699C120.99 98.5299 123.56 99.7199 128.18 99.1699C128.572 99.1846 128.961 99.0876 129.3 98.89C129.6 98.64 129.12 97.5499 129.16 97.1499C127.22 91.1099 126.16 87.3399 126.13 84.4399Z" fill="#034A89"/>
        <path d="M119.96 74.21C120.078 74.187 120.189 74.1372 120.284 74.0643C120.379 73.9915 120.457 73.8975 120.51 73.7899C120.19 73.6379 119.899 73.4315 119.65 73.1799C119.21 72.7199 118.93 72.1799 118.51 71.6599C118.031 71.1749 117.448 70.8049 116.806 70.578C116.163 70.3511 115.477 70.2731 114.8 70.35C114.61 70.35 114.33 70.4099 114.24 70.1899C114.215 70.1017 114.215 70.0081 114.24 69.9199C114.017 70.2268 113.857 70.5749 113.77 70.944C113.682 71.313 113.669 71.6957 113.73 72.0699L114.11 74.3999C114.252 75.1597 114.681 75.8355 115.309 76.2864C115.937 76.7372 116.715 76.9284 117.48 76.8199L117.81 78.8199C117.65 78.8903 117.512 79.0011 117.408 79.1415C117.305 79.2818 117.24 79.4468 117.22 79.62C117.223 80.3461 117.277 81.0711 117.38 81.7899C117.43 82.2099 117.97 82.33 118.43 82.02C119.22 81.5 120.01 81.02 120.81 80.49C121.32 80.17 121.53 79.6 121.25 79.25C121.069 79.0161 120.845 78.819 120.59 78.6699L119.87 74.2799C119.874 74.2534 119.874 74.2264 119.87 74.2L119.96 74.21Z" fill="#D2996C"/>
        <path d="M114.24 70.19C114.33 70.41 114.61 70.37 114.8 70.35C115.477 70.2732 116.163 70.3511 116.806 70.5781C117.448 70.805 118.031 71.1749 118.51 71.66C118.93 72.13 119.21 72.72 119.65 73.18C119.899 73.4315 120.19 73.6379 120.51 73.79L120.66 73.86C120.899 73.9887 121.172 74.0396 121.441 74.0055C121.71 73.9715 121.961 73.8541 122.16 73.67C122.294 73.4575 122.365 73.2113 122.365 72.96C122.365 72.7087 122.294 72.4626 122.16 72.2501C121.64 71.34 120.62 70.8501 120.02 70.0001C119.59 69.3801 119.36 68.54 118.69 68.2C118.256 68.0183 117.773 67.9902 117.32 68.12C116.78 68.2529 116.251 68.4301 115.74 68.65L114.6 69.09C114.555 69.1033 114.514 69.1273 114.48 69.16C114.45 69.2017 114.43 69.2495 114.42 69.3C114.42 69.44 114.3 69.7 114.27 69.92C114.235 70.0053 114.224 70.099 114.24 70.19Z" fill="#000543"/>
        <path d="M118.09 97.63L126.09 95.0899C126.31 95.0313 126.498 94.8878 126.612 94.691C126.726 94.4942 126.758 94.26 126.7 94.0399L122.51 83.9499C122.26 83.1599 123.13 81.8499 124.01 81.4799C124.171 81.401 124.347 81.3577 124.527 81.3529C124.706 81.3481 124.884 81.3819 125.049 81.4521C125.214 81.5223 125.362 81.6272 125.483 81.7597C125.604 81.8922 125.695 82.0492 125.75 82.2199L129.31 93.4199C129.413 93.8149 129.43 94.2275 129.359 94.6296C129.288 95.0317 129.132 95.4139 128.9 95.75C128.447 96.4747 127.73 96.9947 126.9 97.1999L118.17 99.0699C117.35 99.2399 116.68 99.4799 116.69 98.6499C116.7 97.8199 117.28 97.77 118.09 97.63Z" fill="#D2996C"/>
        <path d="M117.13 97.88C117.13 97.88 114.79 98.13 113.93 99.47C113.901 99.5192 113.885 99.5749 113.884 99.6318C113.882 99.6888 113.895 99.7452 113.921 99.796C113.947 99.8468 113.985 99.8902 114.032 99.9224C114.079 99.9545 114.133 99.9744 114.19 99.98C115.471 100.18 116.778 99.8672 117.83 99.11L117.13 97.88Z" fill="#D2996C"/>
        <path d="M114.79 100.06C114.781 100.051 114.776 100.038 114.776 100.025C114.776 100.012 114.781 99.9993 114.79 99.99L115.72 99.7C115.729 99.6908 115.742 99.6857 115.755 99.6857C115.768 99.6857 115.781 99.6908 115.79 99.7C115.797 99.7102 115.801 99.7224 115.801 99.735C115.801 99.7475 115.797 99.7598 115.79 99.77L114.87 100.07L114.79 100.06Z" fill="#D2996C"/>
        <path d="M114.79 98.34L116.44 98.2799C116.465 98.2786 116.489 98.2725 116.512 98.2617C116.535 98.251 116.555 98.2359 116.571 98.2173C116.588 98.1987 116.601 98.177 116.609 98.1534C116.618 98.1299 116.621 98.1049 116.62 98.08C116.62 97.98 117.09 97.87 116.99 97.87L114.77 97.96C114.745 97.9598 114.719 97.9651 114.696 97.9753C114.673 97.9856 114.652 98.0006 114.635 98.0195C114.618 98.0384 114.605 98.0608 114.597 98.085C114.59 98.1092 114.587 98.1346 114.59 98.1599C114.59 98.1853 114.595 98.2105 114.605 98.2338C114.616 98.257 114.631 98.2779 114.65 98.2949C114.668 98.3119 114.691 98.3246 114.715 98.3324C114.739 98.3402 114.765 98.3428 114.79 98.34Z" fill="#D2996C"/>
        <path d="M93.46 97.11C93.4316 97.16 93.4159 97.2161 93.4144 97.2736C93.4129 97.331 93.4255 97.3879 93.4512 97.4393C93.4769 97.4907 93.5149 97.535 93.5618 97.5682C93.6086 97.6015 93.663 97.6227 93.72 97.63C94.7251 97.8041 95.7594 97.6276 96.6499 97.13L96.4999 95.5399C95.3275 95.6702 94.2449 96.2295 93.46 97.11Z" fill="#FFA27F"/>
        <path d="M93.8999 96.6C93.8908 96.6052 93.8804 96.608 93.8699 96.608C93.8593 96.608 93.8491 96.6052 93.84 96.6C93.8318 96.5882 93.8274 96.5742 93.8274 96.5599C93.8274 96.5456 93.8318 96.5318 93.84 96.52L94.4799 96.3199C94.4906 96.3246 94.4997 96.3323 94.5061 96.342C94.5125 96.3518 94.516 96.3633 94.516 96.375C94.516 96.3867 94.5125 96.3981 94.5061 96.4078C94.4997 96.4176 94.4906 96.4253 94.4799 96.4299L93.84 96.63L93.8999 96.6Z" fill="#FA694F"/>
        <path d="M93.4399 97.1799C93.4306 97.1844 93.4203 97.1868 93.4099 97.1868C93.3995 97.1868 93.3893 97.1844 93.3799 97.1799C93.3726 97.1697 93.3687 97.1576 93.3687 97.145C93.3687 97.1325 93.3726 97.1202 93.3799 97.11L94.5099 96.6799C94.5201 96.6726 94.5324 96.6687 94.5449 96.6687C94.5575 96.6687 94.5698 96.6726 94.58 96.6799C94.5898 96.6909 94.5952 96.7052 94.5952 96.72C94.5952 96.7347 94.5898 96.749 94.58 96.76L93.45 97.1799H93.4399Z" fill="#FA694F"/>
        <path d="M96.4999 95.52L94.3199 95.6C94.2704 95.605 94.2246 95.6282 94.1913 95.6652C94.158 95.7021 94.1396 95.7502 94.1399 95.7999C94.1399 95.8257 94.1451 95.8513 94.1553 95.875C94.1654 95.8987 94.1804 95.9202 94.1991 95.938C94.2178 95.9558 94.2399 95.9696 94.2642 95.9785C94.2884 95.9875 94.3142 95.9913 94.34 95.99L95.9899 95.9299C96.0394 95.925 96.0852 95.9017 96.1185 95.8647C96.1518 95.8278 96.1702 95.7797 96.1699 95.73C96.1699 95.65 96.3999 95.5799 96.4999 95.5399V95.52Z" fill="#FFA27F"/>
        <path d="M50.8799 107.28C50.8799 107.368 50.8972 107.455 50.9309 107.536C50.9646 107.618 51.014 107.691 51.0762 107.754C51.1384 107.816 51.2123 107.865 51.2936 107.899C51.3749 107.933 51.4619 107.95 51.5499 107.95H69.84C70.0177 107.95 70.1881 107.879 70.3137 107.754C70.4394 107.628 70.5099 107.458 70.5099 107.28C70.5099 107.102 70.4394 106.932 70.3137 106.806C70.1881 106.681 70.0177 106.61 69.84 106.61H51.5499C51.3722 106.61 51.2018 106.681 51.0762 106.806C50.9505 106.932 50.8799 107.102 50.8799 107.28Z" fill="#3FB9C0"/>
        <path d="M48.8798 128.47C48.839 128.465 48.7995 128.452 48.7637 128.432C48.728 128.411 48.6967 128.384 48.6716 128.352C48.6465 128.319 48.628 128.282 48.6174 128.242C48.6068 128.202 48.6042 128.161 48.6098 128.12L51.6098 108.07C51.6146 108.029 51.6277 107.99 51.6481 107.955C51.6686 107.92 51.6961 107.889 51.7288 107.865C51.7616 107.84 51.799 107.823 51.8387 107.813C51.8784 107.804 51.9197 107.803 51.9599 107.81C52.0008 107.815 52.0402 107.828 52.076 107.848C52.1118 107.869 52.143 107.896 52.1682 107.928C52.1933 107.961 52.2118 107.998 52.2224 108.038C52.233 108.078 52.2354 108.119 52.2298 108.16L49.2298 128.16C49.2302 128.204 49.2211 128.248 49.2031 128.289C49.1851 128.329 49.1586 128.365 49.1254 128.395C49.0923 128.424 49.0532 128.446 49.0108 128.459C48.9685 128.472 48.9238 128.476 48.8798 128.47Z" fill="#1FA3AA"/>
        <path d="M58.06 128.24C58.0194 128.235 57.9803 128.222 57.945 128.202C57.9097 128.181 57.8789 128.154 57.8545 128.121C57.8302 128.088 57.8129 128.051 57.8035 128.011C57.7941 127.971 57.7929 127.93 57.7999 127.89L60.7999 107.84C60.8048 107.799 60.8178 107.76 60.8383 107.725C60.8587 107.69 60.8862 107.659 60.919 107.635C60.9517 107.61 60.9891 107.593 61.0288 107.584C61.0686 107.574 61.1097 107.573 61.1499 107.58C61.1908 107.585 61.2302 107.598 61.266 107.618C61.3018 107.639 61.3332 107.666 61.3583 107.698C61.3834 107.731 61.4018 107.768 61.4124 107.808C61.423 107.848 61.4255 107.889 61.4199 107.93L58.4199 127.93C58.4189 127.975 58.4084 128.019 58.3893 128.059C58.3702 128.1 58.3428 128.136 58.3089 128.165C58.2749 128.194 58.2353 128.216 58.1924 128.229C58.1495 128.242 58.1044 128.246 58.06 128.24Z" fill="#1FA3AA"/>
        <path d="M51.55 106.83C51.498 106.831 51.4474 106.813 51.4071 106.78C51.3668 106.747 51.3395 106.701 51.3301 106.65L49.68 96.4099C49.6758 96.381 49.6774 96.3515 49.6847 96.3232C49.692 96.2949 49.7048 96.2684 49.7225 96.2451C49.7402 96.2218 49.7624 96.2022 49.7877 96.1876C49.813 96.173 49.841 96.1636 49.87 96.1599C49.8983 96.1542 49.9277 96.1544 49.9559 96.1605C49.9842 96.1666 50.0108 96.1785 50.0343 96.1954C50.0578 96.2123 50.0775 96.2338 50.0923 96.2587C50.107 96.2835 50.1164 96.3112 50.12 96.3399L51.77 106.57C51.7758 106.599 51.7756 106.629 51.7696 106.658C51.7637 106.686 51.7519 106.714 51.7351 106.738C51.7183 106.762 51.6968 106.783 51.6719 106.799C51.6469 106.815 51.6192 106.825 51.5901 106.83H51.55Z" fill="#1FA3AA"/>
        <path d="M24.1298 107.06C24.0763 107.06 24.0244 107.041 23.984 107.007C23.9435 106.972 23.9172 106.923 23.9099 106.87L22.6599 98.87C22.6503 98.8385 22.6476 98.8053 22.6519 98.7726C22.6563 98.74 22.6675 98.7086 22.685 98.6807C22.7025 98.6528 22.7259 98.629 22.7534 98.6109C22.7809 98.5928 22.812 98.5808 22.8445 98.5757C22.8771 98.5707 22.9104 98.5727 22.9421 98.5816C22.9738 98.5905 23.0032 98.6061 23.0284 98.6274C23.0535 98.6486 23.0738 98.675 23.0878 98.7048C23.1019 98.7345 23.1094 98.767 23.1098 98.8L24.3499 106.8C24.3586 106.857 24.3446 106.915 24.311 106.962C24.2773 107.008 24.2266 107.04 24.1699 107.05L24.1298 107.06Z" fill="#1FA3AA"/>
        <path d="M62.9499 106.71C62.897 106.709 62.8462 106.689 62.8061 106.654C62.766 106.62 62.739 106.572 62.7298 106.52L61.0899 96.29C61.0853 96.2611 61.0864 96.2316 61.0932 96.2032C61.1001 96.1747 61.1124 96.1479 61.1296 96.1242C61.1468 96.1005 61.1684 96.0804 61.1933 96.0651C61.2183 96.0498 61.246 96.0396 61.2749 96.035C61.3038 96.0304 61.3333 96.0316 61.3618 96.0384C61.3902 96.0452 61.417 96.0576 61.4407 96.0748C61.4643 96.0919 61.4844 96.1136 61.4997 96.1385C61.515 96.1634 61.5253 96.1911 61.5299 96.22L63.1799 106.45C63.1886 106.51 63.1736 106.57 63.138 106.619C63.1025 106.667 63.0492 106.7 62.9898 106.71H62.9499Z" fill="#1FA3AA"/>
        <path d="M135.34 122.65L136.08 126.97L134.31 127.13L133.52 126.21L133.61 126.02L132.98 122.86L135.34 122.65Z" fill="#8E4B32"/>
        <path d="M127.87 122.74L128.02 127.06L126.23 127.21L125.56 126.29L125.68 126.11L125.49 122.94L127.87 122.74Z" fill="#8E4B32"/>
        <path d="M129.11 107.15C128.246 112.308 128.088 117.559 128.64 122.76C128.648 122.908 128.626 123.057 128.576 123.196C128.526 123.336 128.448 123.464 128.347 123.573C128.247 123.682 128.125 123.77 127.99 123.831C127.855 123.893 127.708 123.926 127.56 123.93H125.39C125.125 123.936 124.866 123.849 124.658 123.685C124.45 123.521 124.306 123.289 124.25 123.03C123.692 120.734 123.357 118.39 123.25 116.03C123.25 112.96 122.97 109.38 123.56 106.27C123.785 105.009 124.434 103.862 125.4 103.02C126.449 104.766 127.957 106.192 129.76 107.14H129.53C129 107.16 129.09 107.15 129.11 107.15Z" fill="#452A51"/>
        <path d="M129.73 107.16C132.87 107.16 140.04 107.27 143.09 107.02C146.66 106.73 144.22 101.39 140.67 101.31C136.22 101.2 136.06 101.31 130.77 101.31C130.184 101.308 129.598 101.355 129.02 101.45C127.677 101.654 126.414 102.221 125.37 103.09C126.426 104.818 127.933 106.225 129.73 107.16Z" fill="#452A51"/>
        <path d="M129.79 106.87C129.819 105.653 130.313 104.494 131.17 103.63C132.133 104.947 133.334 106.073 134.71 106.95C135.162 107.242 135.629 107.509 136.11 107.75H135.45C135.305 113.006 135.877 118.258 137.15 123.36C137.185 123.498 137.188 123.642 137.159 123.782C137.129 123.921 137.069 124.052 136.981 124.164C136.893 124.276 136.78 124.367 136.652 124.428C136.523 124.49 136.382 124.521 136.24 124.52H134.07C133.793 124.519 133.523 124.433 133.296 124.274C133.069 124.115 132.896 123.89 132.8 123.63C131.925 121.361 131.256 119.018 130.8 116.63C130.33 113.56 129.59 109.99 129.79 106.87Z" fill="#452A51"/>
        <path d="M147.1 101.82C146.803 101.872 146.502 101.896 146.2 101.89C141.74 101.78 141.59 101.89 136.3 101.89C135.717 101.882 135.134 101.929 134.56 102.03C133.28 102.218 132.088 102.79 131.14 103.67C132.103 104.987 133.304 106.113 134.68 106.99C135.132 107.282 135.599 107.549 136.08 107.79C138.83 107.79 143.87 107.88 147.08 107.72L147.1 101.82Z" fill="#452A51"/>
        <path d="M148.37 103.71C148.574 103.547 148.75 103.351 148.89 103.13C149.37 102.45 149.71 101.682 149.89 100.87C151.13 94.65 153.62 92.43 155 89.36C156.12 86.86 153.75 82.48 151.6 82.13C148.74 81.66 145.9 81.13 143.9 82.13C143.256 82.3893 142.634 82.7003 142.04 83.06C141.208 83.5857 140.538 84.3306 140.102 85.2127C139.666 86.0948 139.482 87.08 139.57 88.06C140.09 94.42 137.74 96.8599 136.49 101.16C136.19 102.16 136.59 102.94 137.49 103.03C140.49 103.31 142.76 104.6 147.21 104.03C147.629 104.035 148.042 103.932 148.41 103.73L148.37 103.71Z" fill="white"/>
        <path d="M123.58 126.71L127.58 125.34C127.77 125.27 128.02 125.34 128.06 125.48L128.71 127.7C128.71 127.83 128.6 127.95 128.39 127.95H124.07C122.96 128.05 122.57 127.09 123.58 126.71Z" fill="#F46F67"/>
        <path d="M151.28 72.87C151.28 72.58 150.98 72.4 150.9 72.13C150.88 71.8537 150.88 71.5763 150.9 71.3C150.81 70.8 150.28 70.58 150.03 70.16C149.92 69.98 149.59 70.23 149.5 70.04C149.28 69.57 148.9 69.21 148.5 69.29C148.328 69.3502 148.142 69.3502 147.97 69.29H147.9C147.826 69.103 147.725 68.9279 147.6 68.7701C147.503 68.6553 147.37 68.5767 147.223 68.5477C147.076 68.5186 146.923 68.5406 146.79 68.61C146.6 68.73 146.5 68.97 146.33 69.13C145.75 69.64 144.76 68.9501 144.23 69.5201C144.115 69.6878 144.041 69.8798 144.013 70.0811C143.985 70.2824 144.005 70.4875 144.07 70.68C143.9 70.5 143.6 70.8 143.56 71.06C143.52 71.32 143.56 71.62 143.42 71.84C143.335 71.9249 143.244 72.005 143.15 72.08C143.018 72.3042 142.963 72.5654 142.994 72.8237C143.025 73.0819 143.139 73.323 143.32 73.5101C143.314 73.585 143.335 73.6596 143.38 73.72C143.346 73.7382 143.319 73.7675 143.303 73.8033C143.288 73.839 143.285 73.8789 143.296 73.9163C143.306 73.9537 143.329 73.9865 143.361 74.009C143.393 74.0315 143.431 74.0424 143.47 74.04H144.13C144.176 74.04 144.22 74.0225 144.254 73.9909C144.287 73.9593 144.308 73.916 144.31 73.87C144.31 73.8464 144.305 73.8229 144.296 73.8011C144.287 73.7792 144.274 73.7594 144.257 73.7427C144.241 73.726 144.221 73.7127 144.199 73.7037C144.177 73.6946 144.154 73.69 144.13 73.69H143.53C143.566 73.2821 143.689 72.8865 143.89 72.53C144.525 72.2716 145.225 72.2227 145.89 72.3901C147.52 72.6901 146.98 74.5801 148.77 74.8901L149.34 74.7701C149.554 74.8022 149.748 74.9137 149.883 75.0823C150.018 75.251 150.085 75.4643 150.07 75.68C150.088 75.8984 150.023 76.1156 149.887 76.288C149.752 76.4604 149.557 76.5755 149.34 76.61V77.96C149.605 77.6437 149.808 77.2809 149.94 76.8901C150.171 76.2411 150.338 75.5713 150.44 74.8901H150.55C150.68 74.7501 150.82 74.61 150.78 74.44C150.74 74.27 150.85 74.29 150.78 74.22C150.69 73.77 151.32 73.34 151.28 72.87Z" fill="#000543"/>
        <path d="M150.06 75.6099C150.075 75.3943 150.008 75.1808 149.873 75.0122C149.738 74.8435 149.544 74.7321 149.33 74.6999L148.76 74.8199C146.97 74.5099 147.51 72.6199 145.88 72.3199C145.215 72.1525 144.515 72.2016 143.88 72.4599C143.679 72.8165 143.556 73.212 143.52 73.6199H144.12C144.168 73.6199 144.214 73.6389 144.247 73.6727C144.281 73.7064 144.3 73.7521 144.3 73.7999C144.297 73.8459 144.277 73.8891 144.244 73.9207C144.21 73.9523 144.166 73.97 144.12 73.9699H143.5V76.3199C143.471 76.6865 143.518 77.055 143.639 77.4024C143.76 77.7498 143.951 78.0684 144.201 78.3381C144.451 78.6078 144.754 78.8227 145.091 78.9693C145.428 79.1159 145.792 79.191 146.16 79.1899H146.26V81.77C146.086 81.8006 145.929 81.8916 145.815 82.0269C145.702 82.1623 145.64 82.3334 145.64 82.51C145.64 82.7098 145.719 82.9015 145.859 83.0438C146 83.186 146.19 83.2673 146.39 83.27H149.09C149.292 83.27 149.485 83.1898 149.627 83.0473C149.77 82.9048 149.85 82.7115 149.85 82.51C149.849 82.3573 149.802 82.2084 149.714 82.0833C149.627 81.9582 149.503 81.8628 149.36 81.8099V77.8999V76.5499C149.573 76.5086 149.763 76.3894 149.892 76.2155C150.022 76.0416 150.081 75.8257 150.06 75.6099Z" fill="#8E4B32"/>
        <path d="M135.99 126.21L135.8 125.39C135.787 125.355 135.767 125.323 135.74 125.296C135.714 125.269 135.683 125.247 135.648 125.233C135.613 125.219 135.576 125.212 135.538 125.214C135.501 125.215 135.464 125.224 135.43 125.24L132.71 126.46L132.28 126.65C131.5 127 131.8 127.99 132.68 127.97H136.06C136.22 127.97 136.34 127.84 136.31 127.71L135.99 126.21Z" fill="#F46F67"/>
        <path d="M141.01 95.4299C141.284 95.3568 141.568 95.3331 141.85 95.36C141.874 95.3698 141.894 95.3865 141.908 95.4078C141.922 95.4292 141.93 95.4543 141.93 95.48C141.93 95.5056 141.922 95.5307 141.908 95.5521C141.894 95.5735 141.874 95.5901 141.85 95.5999C141.72 95.6699 141.35 95.7999 141.35 95.9499C141.35 96.0999 141.45 96.0499 141.53 96.0499C141.88 96.0499 142.24 96.0499 142.59 95.9599C142.675 95.935 142.766 95.9414 142.847 95.9781C142.928 96.0148 142.993 96.0793 143.03 96.1599C143.091 96.2187 143.14 96.2893 143.174 96.3675C143.207 96.4457 143.224 96.5299 143.224 96.615C143.224 96.7 143.207 96.7841 143.174 96.8623C143.14 96.9405 143.091 97.0111 143.03 97.0699C142.743 97.4447 142.354 97.7293 141.91 97.89C141.468 97.9029 141.029 97.8109 140.629 97.6214C140.229 97.432 139.88 97.1504 139.61 96.7999C139.43 96.4999 139.38 95.9399 139.82 95.7999C140.226 95.7083 140.624 95.5845 141.01 95.4299Z" fill="#8E4B32"/>
        <path d="M143.57 95.15C143.288 95.0689 142.993 95.0418 142.7 95.07C142.673 95.0778 142.649 95.0942 142.632 95.1168C142.615 95.1393 142.606 95.1668 142.606 95.195C142.606 95.2233 142.615 95.2507 142.632 95.2733C142.649 95.2958 142.673 95.3122 142.7 95.32C142.84 95.39 143.21 95.53 143.21 95.69C143.21 95.85 143.11 95.79 143.03 95.78L141.94 95.7C141.854 95.6745 141.761 95.6806 141.678 95.7172C141.596 95.7539 141.529 95.8186 141.49 95.9C141.427 95.9598 141.376 96.0319 141.342 96.1119C141.307 96.1918 141.29 96.278 141.29 96.365C141.29 96.4521 141.307 96.5383 141.342 96.6182C141.376 96.6982 141.427 96.7702 141.49 96.83C141.78 97.219 142.181 97.5117 142.64 97.67C143.093 97.6837 143.543 97.5904 143.953 97.3975C144.363 97.2046 144.722 96.9176 145 96.56C145.19 96.25 145.24 95.67 144.78 95.56C144.367 95.4542 143.962 95.3171 143.57 95.15Z" fill="#8E4B32"/>
        <path d="M140.33 84.71L133.48 95.0599C133.292 95.3466 133.186 95.6786 133.172 96.0208C133.157 96.3629 133.236 96.7025 133.399 97.0038C133.562 97.305 133.803 97.5567 134.097 97.7321C134.391 97.9074 134.727 98 135.07 98H139.35C139.54 97.9992 139.728 97.9563 139.899 97.8745C140.071 97.7927 140.222 97.674 140.343 97.5269C140.463 97.3797 140.549 97.2078 140.596 97.0233C140.642 96.8389 140.647 96.6465 140.61 96.46L140.4 95.46L138.74 94.87C138.74 94.87 142.35 87.36 140.33 84.71Z" fill="white"/>
        <path d="M139.79 97.9099H136.12C136.104 97.9099 136.089 97.9036 136.078 97.8923C136.066 97.8811 136.06 97.8659 136.06 97.85C136.06 97.8341 136.066 97.8187 136.078 97.8075C136.089 97.7962 136.104 97.7899 136.12 97.7899H139.79C139.88 97.7912 139.97 97.7747 140.053 97.7411C140.137 97.7075 140.213 97.6576 140.277 97.5944C140.341 97.5311 140.392 97.4557 140.427 97.3726C140.462 97.2894 140.48 97.2001 140.48 97.11V95.98C140.483 95.7856 140.413 95.5972 140.283 95.4525C140.153 95.3078 139.974 95.2176 139.78 95.2L135.69 94.75C135.682 94.7502 135.675 94.7486 135.668 94.7455C135.661 94.7424 135.655 94.7377 135.651 94.7319C135.646 94.7262 135.642 94.7194 135.64 94.7122C135.639 94.7049 135.638 94.6973 135.64 94.6899H135.69L139.79 95.14C140.013 95.1603 140.219 95.2646 140.368 95.4318C140.517 95.5989 140.596 95.8163 140.59 96.0399V97.1599C140.573 97.3616 140.481 97.5499 140.334 97.6884C140.186 97.8268 139.992 97.9057 139.79 97.9099Z" fill="#F9CDAF"/>
        <path d="M138.62 95.0599C138.62 95.0599 138.56 95.06 138.62 94.99C139.565 92.35 140.667 89.7688 141.92 87.26C141.929 87.2508 141.942 87.2457 141.955 87.2457C141.968 87.2457 141.981 87.2508 141.99 87.26C141.998 87.2717 142.002 87.2856 142.002 87.2999C142.002 87.3142 141.998 87.3282 141.99 87.34C140.738 89.841 139.64 92.4157 138.7 95.0499C138.696 95.0568 138.691 95.0626 138.684 95.067C138.678 95.0714 138.67 95.0742 138.663 95.0752C138.655 95.0762 138.647 95.0753 138.639 95.0726C138.632 95.07 138.625 95.0656 138.62 95.0599Z" fill="#F9CDAF"/>
        <path d="M144.29 95.2799C146.756 95.2489 149.213 94.9879 151.63 94.5C151.795 94.4798 151.952 94.4189 152.087 94.3229C152.222 94.2268 152.332 94.0986 152.405 93.9498C152.478 93.801 152.514 93.6363 152.508 93.4705C152.501 93.3046 152.454 93.143 152.37 93L149.64 87.1899C149.584 87.0481 149.544 86.9006 149.52 86.75C149.511 86.6768 149.519 86.6027 149.541 86.5325C149.563 86.4623 149.6 86.3976 149.649 86.3428C149.698 86.2879 149.759 86.2443 149.826 86.2145C149.893 86.1847 149.966 86.1694 150.04 86.1699L153.94 84.2899C154.479 84.9754 154.926 85.7284 155.27 86.5299C158.82 95.2499 159.01 96.1999 158.49 97.1599L158.35 97.39L158.29 97.49C157.35 99.04 148.85 98.4899 144.84 97.9099H144.38C144.247 97.8941 144.123 97.8327 144.03 97.7361C143.937 97.6395 143.881 97.5137 143.87 97.38L143.78 95.85C143.771 95.7781 143.778 95.7053 143.8 95.6364C143.822 95.5674 143.858 95.5037 143.906 95.4498C143.954 95.3959 144.014 95.3529 144.08 95.3236C144.146 95.2943 144.218 95.2794 144.29 95.2799Z" fill="white"/>
        <path d="M152.73 98.46C150.095 98.4415 147.464 98.2679 144.85 97.9399C144.697 97.9499 144.543 97.9499 144.39 97.9399C144.242 97.9236 144.105 97.8554 144.002 97.7474C143.9 97.6394 143.839 97.4986 143.83 97.35L143.74 95.83C143.735 95.7496 143.747 95.6691 143.775 95.5934C143.802 95.5177 143.845 95.4486 143.9 95.39C143.951 95.3314 144.014 95.2847 144.085 95.2535C144.156 95.2224 144.233 95.2075 144.31 95.21H144.44C146.858 95.1625 149.268 94.9014 151.64 94.4299C151.786 94.4015 151.923 94.3409 152.043 94.2527C152.162 94.1645 152.26 94.0508 152.33 93.9199C152.399 93.7764 152.435 93.6192 152.435 93.46C152.435 93.3007 152.399 93.1435 152.33 93L150.03 88.11C150.03 88.11 150.03 88.0499 150.03 88.0299C150.042 88.0217 150.056 88.0175 150.07 88.0175C150.084 88.0175 150.098 88.0217 150.11 88.0299L152.41 92.9299C152.488 93.0852 152.528 93.2564 152.528 93.4299C152.528 93.6035 152.488 93.7746 152.41 93.9299C152.341 94.0805 152.235 94.2114 152.102 94.3109C151.969 94.4104 151.814 94.4755 151.65 94.5C149.275 94.9769 146.862 95.2378 144.44 95.2799H144.3C144.238 95.2788 144.177 95.2907 144.12 95.3148C144.063 95.3389 144.012 95.3747 143.97 95.4199C143.883 95.5195 143.837 95.6479 143.84 95.7799L143.93 97.3099C143.937 97.4317 143.987 97.5472 144.071 97.6353C144.155 97.7233 144.269 97.7781 144.39 97.7899H144.84C148.14 98.2299 156 98.79 157.93 97.6C157.935 97.5938 157.941 97.5887 157.948 97.5852C157.955 97.5817 157.962 97.58 157.97 97.58C157.978 97.58 157.986 97.5817 157.992 97.5852C157.999 97.5887 158.005 97.5938 158.01 97.6C158.017 97.6102 158.021 97.6225 158.021 97.635C158.021 97.6476 158.017 97.6597 158.01 97.6699C157.12 98.2699 155.04 98.46 152.73 98.46Z" fill="#F9CDAF"/>
        <path d="M147.46 108.51L148.73 98.37L159.42 98.5C160.136 98.5099 160.838 98.3058 161.436 97.9138C162.035 97.5218 162.503 96.9598 162.78 96.2999C163.374 94.772 164.083 93.2912 164.9 91.87C165.171 91.3807 165.415 90.8765 165.63 90.36C166.002 89.5009 166.616 88.7689 167.398 88.2538C168.179 87.7387 169.094 87.4628 170.03 87.46H172.03C172.293 87.4604 172.553 87.5154 172.793 87.6213C173.033 87.7273 173.249 87.8818 173.427 88.0754C173.604 88.269 173.74 88.4973 173.825 88.746C173.91 88.9946 173.942 89.2582 173.92 89.52C173.235 97.5978 171.172 105.499 167.82 112.88C167 114.64 165.82 115.94 163.97 115.94H145.87C145.57 115.94 145.87 115.94 145.6 115.85L144.98 108.17C145.413 108.151 145.848 108.191 146.27 108.29C146.58 108.37 146.99 108.44 147.46 108.51Z" fill="#E7A886"/>
        <path d="M143.79 105.35C143.08 110.08 143.69 115.94 145.9 115.94C148.11 115.94 151.06 110.5 151.77 105.76C152.48 101.02 150.77 98.37 148.59 98.37C146.41 98.37 144.48 100.61 143.79 105.35Z" fill="#FFC596"/>
        <path d="M34.2101 69.7799C34.2098 69.7302 34.2281 69.6821 34.2614 69.6451C34.2946 69.6082 34.3405 69.5849 34.39 69.58H35.1001C35.1101 69.5305 35.1101 69.4794 35.1001 69.4299C35.0241 68.8179 34.7781 68.2394 34.39 67.76C33.0512 68.8593 31.4716 69.6267 29.78 70L30.1001 71C30.4301 72 30.5301 72.27 31.5901 72.51C32.7015 72.6632 33.8286 72.6632 34.9401 72.51V72.35L35.11 69.88H34.41C34.3707 69.8839 34.331 69.8765 34.2957 69.8588C34.2603 69.8411 34.2306 69.8137 34.2101 69.7799Z" fill="#FFA27F"/>
        <path d="M29.5299 74.7999C29.0228 74.1724 28.7758 73.3742 28.8399 72.5699V70.84C28.6093 70.8793 28.4019 71.004 28.2592 71.1893C28.1165 71.3747 28.049 71.607 28.0699 71.84C28.0707 71.9896 28.1032 72.1374 28.1652 72.2736C28.2273 72.4097 28.3175 72.5312 28.4299 72.63V74.01V79.26L32.0299 78.26V76C31.6099 76.0179 31.1918 75.9356 30.8099 75.76C30.3508 75.4856 29.9218 75.1638 29.5299 74.7999Z" fill="#FFA27F"/>
        <path d="M31.5901 72.49C30.5301 72.25 30.4301 72.03 30.1001 70.98L29.78 69.98C31.78 69.31 32.78 69.6199 34.14 68.4599C34.52 68.9299 34.07 70.66 34.38 70.25C34.6183 70.1468 34.862 70.0567 35.11 69.98C35.5 70.05 35.3601 68.98 35.4401 68.86C35.5129 68.3387 35.4615 67.8075 35.2901 67.3099C35.2665 67.1114 35.2019 66.9199 35.1004 66.7478C34.9988 66.5756 34.8625 66.4265 34.7001 66.3099C34.5415 66.2521 34.3876 66.1819 34.24 66.0999C34.0302 65.9097 33.8866 65.6575 33.8301 65.38C33.7301 65.12 33.5701 64.8399 33.2901 64.7899C33.0101 64.7399 32.78 64.9399 32.52 64.9299C32.26 64.9199 31.8001 64.4199 31.4301 64.5699C31.3243 64.6274 31.2238 64.6944 31.13 64.77C30.9354 64.7128 30.7326 64.6891 30.53 64.6999C30.4738 64.6902 30.4163 64.6902 30.36 64.6999C30.2927 64.7056 30.2294 64.7337 30.1801 64.7799C29.4401 65.0399 29.1801 65.88 28.5501 66.36C27.9201 66.84 26.97 67.22 26.86 68.23C26.8554 68.3981 26.8354 68.5655 26.8001 68.73C26.8001 68.92 26.6201 69.08 26.5601 69.27C26.3701 69.83 26.79 70.4099 27 70.9699C26.94 71.1199 26.8601 71.2599 26.7901 71.3999C26.7037 71.5263 26.6518 71.6731 26.6395 71.8257C26.6273 71.9782 26.6551 72.1314 26.7201 72.27C26.8701 72.52 27.21 72.5799 27.39 72.8099C27.57 73.0399 27.53 73.8099 27.91 73.9499C28.07 74.0299 28.26 74.0099 28.4 74.0999V72.7199C28.2882 72.6207 28.1984 72.4992 28.1364 72.3631C28.0744 72.2271 28.0415 72.0794 28.0401 71.9299C28.0339 71.7001 28.1071 71.4752 28.2473 71.2931C28.3876 71.1109 28.5863 70.9827 28.8101 70.9299V72.6699C28.7465 73.471 28.9935 74.266 29.5 74.89C29.8687 75.2671 30.2779 75.6025 30.7201 75.89C31.1028 76.0622 31.5209 76.141 31.9401 76.12C32.5401 76.12 33.17 76.1199 33.53 76.0599C33.8555 76.0015 34.1557 75.8462 34.3912 75.6142C34.6268 75.3822 34.7868 75.0845 34.8501 74.76L34.9201 72.6799C33.8067 72.7744 32.6855 72.7105 31.5901 72.49Z" fill="#000543"/>
        <path d="M42.9601 124.85C42.9461 124.851 42.932 124.85 42.9187 124.845C42.9054 124.841 42.8932 124.834 42.8828 124.824C42.8724 124.815 42.8642 124.803 42.8585 124.791C42.8529 124.778 42.85 124.764 42.8501 124.75C42.8487 124.736 42.8502 124.721 42.8545 124.707C42.8588 124.693 42.8657 124.68 42.875 124.669C42.8843 124.658 42.8957 124.649 42.9086 124.642C42.9214 124.635 42.9356 124.631 42.9501 124.63C43.5601 124.57 43.63 123.98 43.65 123.09C43.65 122.55 43.8701 119.74 44.0901 116.76C44.3401 113.33 44.6 109.76 44.63 109.03C44.8 102.91 40.36 100.91 35.54 99.6599C35.5109 99.652 35.4861 99.6328 35.4711 99.6066C35.4561 99.5803 35.4521 99.5492 35.4601 99.52C35.468 99.4908 35.4872 99.4659 35.5134 99.4509C35.5397 99.4359 35.5709 99.432 35.6001 99.4399C40.2701 100.66 45.0301 102.75 44.8501 109.03C44.8501 109.79 44.5701 113.34 44.3201 116.77C44.1001 119.77 43.89 122.56 43.88 123.1C43.88 123.88 43.8801 124.76 42.9701 124.85H42.9601Z" fill="#6D72A0"/>
        <path d="M40.8901 77.8L40.8301 79.22H41.9801L41.8201 78.02L40.8901 77.8Z" fill="#FFA27F"/>
        <path d="M41.2 76.4599C41.2844 76.2019 41.4205 75.9638 41.6 75.76C41.6188 75.7419 41.6424 75.7298 41.6681 75.7254C41.6938 75.721 41.7202 75.7244 41.7439 75.7352C41.7676 75.746 41.7875 75.7636 41.801 75.7859C41.8146 75.8081 41.8212 75.834 41.82 75.86C41.82 76 41.7 76.3599 41.82 76.4499C41.94 76.5399 41.9499 76.45 41.9899 76.36C42.1699 76.07 42.3499 75.78 42.5099 75.48C42.5372 75.399 42.5925 75.3303 42.6658 75.2864C42.7391 75.2424 42.8256 75.226 42.9099 75.24C43.2799 75.24 43.4899 75.24 43.6399 75.73C43.7746 76.1631 43.7746 76.6268 43.6399 77.0599C43.407 77.4145 43.0936 77.709 42.7251 77.9193C42.3567 78.1296 41.9437 78.2498 41.5199 78.27C41.1799 78.27 40.7099 77.9699 40.8699 77.5699C41.0075 77.2087 41.1178 76.8377 41.2 76.4599Z" fill="#FFA27F"/>
        <path d="M42.9201 88.5599L34.4601 78.5599C33.3901 80.5599 35.2301 85.6699 36.4601 87.5599L40.9301 90.63C41.299 90.8846 41.7428 91.0078 42.1901 90.98H42.2701C43.6901 90.92 43.9201 89.7099 42.9201 88.5599Z" fill="white"/>
        <path d="M43.5 89.63L43.14 79.7099C43.1302 79.4744 43.0322 79.2511 42.8655 79.0844C42.6988 78.9177 42.4755 78.8197 42.24 78.8099H41.24C41.117 78.8004 40.9933 78.8155 40.8762 78.8542C40.7591 78.8929 40.6509 78.9545 40.5579 79.0355C40.4648 79.1164 40.3888 79.2151 40.3342 79.3258C40.2797 79.4364 40.2476 79.5568 40.24 79.6799L39.8101 86.8999L43.5 89.63Z" fill="white"/>
        <path d="M38.65 92.25C38.967 92.1205 39.3077 92.0591 39.65 92.0699C39.6806 92.0719 39.7099 92.0833 39.7339 92.1024C39.7579 92.1216 39.7755 92.1476 39.7842 92.177C39.793 92.2064 39.7923 92.2378 39.7826 92.267C39.7729 92.2961 39.7545 92.3216 39.7299 92.34C39.5799 92.44 39.17 92.6299 39.19 92.8099C39.21 92.9899 39.32 92.9099 39.41 92.8999C39.82 92.8399 40.2199 92.7699 40.6299 92.6899C40.7254 92.6538 40.8306 92.652 40.9273 92.6848C41.024 92.7177 41.1062 92.7831 41.16 92.87C41.3046 92.9894 41.3978 93.1598 41.4201 93.3459C41.4424 93.5321 41.3922 93.7198 41.28 93.87C40.9911 94.3407 40.5704 94.7162 40.07 94.95C39.5591 95.0148 39.0401 94.958 38.5552 94.7842C38.0704 94.6104 37.6334 94.3246 37.28 93.95C37.03 93.62 36.92 92.9499 37.42 92.7999C37.8429 92.647 38.254 92.4632 38.65 92.25Z" fill="#FFA27F"/>
        <path d="M37.16 92.1799C34.3985 92.3828 31.6244 92.3426 28.8699 92.0599C28.6954 92.0294 28.5306 91.9583 28.3886 91.8523C28.2467 91.7463 28.1318 91.6083 28.0529 91.4497C27.9741 91.2911 27.9336 91.1161 27.9349 90.939C27.9361 90.7618 27.979 90.5875 28.06 90.4299L27.31 84.11H27.71L27.51 82L25.1099 81.14C24.3737 81.406 23.6949 81.8098 23.1099 82.33C22.5975 86.8397 22.9367 91.4055 24.1099 95.7899C24.3199 96.6299 25.11 96.57 25.91 96.45C28.39 96.1 33.57 95.9299 36.91 95.1799C37.0877 95.1704 37.2647 95.1504 37.44 95.12C37.5864 95.0897 37.7175 95.009 37.8106 94.8921C37.9038 94.7752 37.9531 94.6294 37.95 94.48V92.7899C37.9624 92.69 37.9484 92.5886 37.9096 92.4956C37.8708 92.4026 37.8085 92.3213 37.7288 92.2598C37.6491 92.1982 37.5548 92.1585 37.455 92.1445C37.3553 92.1305 37.2536 92.1427 37.16 92.1799Z" fill="white"/>
        <path d="M27.64 96.2V96.09C30.8 95.82 36.8601 95.27 36.9301 95.26L37.4401 95.1899C37.7101 95.1899 37.8201 94.8199 37.8101 94.5299V92.9399C37.809 92.6825 37.7087 92.4354 37.53 92.25C37.5013 92.2216 37.4668 92.1997 37.4288 92.1859C37.3909 92.1721 37.3503 92.1666 37.3101 92.1699H37.05C34.3437 92.3923 31.6228 92.3723 28.92 92.11C28.06 92.04 27.9201 90.81 27.8401 90.11L27.26 84.72H27.37L27.9501 90.11C27.9501 90.67 28.1201 91.9699 28.9501 92.0299C31.6457 92.2988 34.3602 92.3223 37.0601 92.1H37.3201C37.3765 92.0959 37.4332 92.1036 37.4866 92.1226C37.5399 92.1415 37.5887 92.1712 37.63 92.21C37.829 92.4169 37.9402 92.6929 37.9401 92.98V94.5599C37.9401 94.9099 37.81 95.28 37.48 95.34L36.9601 95.4099C36.8601 95.3799 30.79 95.93 27.64 96.2Z" fill="#F9CDAF"/>
        <path d="M45.7901 41.25C47.4875 41.5409 49.0105 42.4669 50.0501 43.8399C50.9288 45.2862 51.3635 46.9587 51.3001 48.6499C51.2471 50.3476 50.9611 52.03 50.4501 53.6499C49.9262 55.4898 49.2575 57.2856 48.4501 59.02C48.0488 59.9978 47.465 60.8903 46.73 61.6499C45.18 63.0799 43.08 62.7899 41.24 62.1899C38.8127 61.3712 36.5383 60.1546 34.51 58.5899C33.2415 57.7084 32.2108 56.5265 31.51 55.1499C30.9284 53.7153 30.5644 52.202 30.4301 50.6599C30.1501 48.6599 30 46.2199 30.9 44.4199C31.63 42.9499 33.26 42.5 34.48 42.02C38.0782 40.5934 42.0317 40.3242 45.7901 41.25Z" fill="#3FB9C0"/>
        <path d="M89.27 32.3801C91.4071 32.6803 93.3712 33.7207 94.8201 35.32C95.9537 36.8938 96.5276 38.802 96.4501 40.74C96.3828 42.6834 96.0081 44.6038 95.3401 46.43C94.6395 48.5267 93.7561 50.5579 92.7001 52.5001C92.1651 53.6393 91.4068 54.6594 90.4701 55.5001C88.4701 57.1101 85.7001 56.79 83.3001 56.1C80.1811 55.2004 77.2171 53.8313 74.51 52.04C72.9024 51.0909 71.5556 49.7578 70.5901 48.16C69.8384 46.5613 69.3617 44.8473 69.1801 43.09C68.8201 40.84 68.6101 38.09 69.7901 36.09C70.7901 34.42 72.8701 33.9101 74.4601 33.3701C79.2184 31.7167 84.334 31.3747 89.27 32.3801Z" fill="white"/>
        <path d="M127.79 40.98C125.706 41.2192 123.757 42.1321 122.24 43.58C121.125 44.9258 120.542 46.6334 120.6 48.3801C120.681 50.098 121.056 51.7893 121.71 53.3801C122.421 55.2481 123.305 57.0458 124.35 58.7501C124.909 59.7708 125.671 60.666 126.59 61.3801C128.59 62.8101 131.35 62.52 133.75 61.92C136.834 61.1372 139.793 59.9254 142.54 58.32C144.112 57.5121 145.461 56.331 146.47 54.8801C147.209 53.4822 147.683 51.9601 147.87 50.3901C148.24 48.3901 148.44 45.95 147.27 44.15C146.27 42.68 144.19 42.2301 142.6 41.7501C137.795 40.3173 132.717 40.0532 127.79 40.98Z" fill="#1FA3AA"/>
        <path d="M40.67 66.1C41.1946 66.1 41.62 65.6746 41.62 65.15C41.62 64.6253 41.1946 64.2 40.67 64.2C40.1453 64.2 39.72 64.6253 39.72 65.15C39.72 65.6746 40.1453 66.1 40.67 66.1Z" fill="#3FB9C0"/>
        <path d="M125.52 66.55C126.045 66.55 126.47 66.1247 126.47 65.6C126.47 65.0754 126.045 64.65 125.52 64.65C124.995 64.65 124.57 65.0754 124.57 65.6C124.57 66.1247 124.995 66.55 125.52 66.55Z" fill="#1FA3AA"/>
        <path d="M92.49 66.1C93.0147 66.1 93.44 65.6746 93.44 65.15C93.44 64.6253 93.0147 64.2 92.49 64.2C91.9654 64.2 91.54 64.6253 91.54 65.15C91.54 65.6746 91.9654 66.1 92.49 66.1Z" fill="white"/>
        <path d="M38.9199 68.22C39.2181 68.22 39.4599 67.9782 39.4599 67.68C39.4599 67.3818 39.2181 67.14 38.9199 67.14C38.6216 67.14 38.3799 67.3818 38.3799 67.68C38.3799 67.9782 38.6216 68.22 38.9199 68.22Z" fill="#3FB9C0"/>
        <path d="M123.91 67.61C123.912 67.7176 123.882 67.8233 123.823 67.9137C123.765 68.004 123.68 68.0747 123.581 68.1168C123.482 68.1589 123.373 68.1705 123.267 68.15C123.161 68.1295 123.064 68.0778 122.988 68.0017C122.912 67.9256 122.861 67.8284 122.84 67.7227C122.819 67.6171 122.831 67.5077 122.873 67.4087C122.915 67.3096 122.986 67.2253 123.076 67.1667C123.167 67.1081 123.272 67.0779 123.38 67.0799C123.52 67.0825 123.653 67.1392 123.752 67.238C123.851 67.3368 123.907 67.4702 123.91 67.61Z" fill="#1FA3AA"/>
        <path d="M88.3401 61.2001C88.8979 61.2001 89.3501 60.7479 89.3501 60.1901C89.3501 59.6322 88.8979 59.1801 88.3401 59.1801C87.7823 59.1801 87.3301 59.6322 87.3301 60.1901C87.3301 60.7479 87.7823 61.2001 88.3401 61.2001Z" fill="white"/>
</svg>
