<svg width="200" height="185" viewBox="0 0 200 185" fill="none" xmlns="http://www.w3.org/2000/svg">
    <path d="M124.46 158.3H83.6501C81.2168 158.287 78.8869 157.314 77.1663 155.594C75.4457 153.873 74.4732 151.543 74.4601 149.11V132.11V56.97V50.04C74.4446 49.7603 74.4446 49.4797 74.4601 49.2C74.6741 46.9205 75.7303 44.8029 77.4223 43.2606C79.1144 41.7184 81.3206 40.8624 83.6101 40.86H124.41C126.685 40.8718 128.877 41.7218 130.565 43.2474C132.253 44.7731 133.319 46.8675 133.56 49.13C133.56 49.43 133.56 49.74 133.56 50.05V56.9V70.17V149.06C133.573 151.491 132.623 153.827 130.918 155.559C129.212 157.291 126.89 158.276 124.46 158.3Z" fill="#034A89"/>
    <path d="M86.1293 146.455L122.009 146.462C126.151 146.462 129.51 143.105 129.511 138.963L129.525 56.9131C129.526 52.771 126.168 49.4125 122.026 49.4118L86.1462 49.4055C82.0041 49.4048 78.6456 52.7621 78.6449 56.9042L78.6306 138.954C78.6299 143.096 81.9871 146.455 86.1293 146.455Z" fill="#F2F9F8"/>
    <path d="M103.25 155.34C104.769 155.34 106 154.109 106 152.59C106 151.071 104.769 149.84 103.25 149.84C101.731 149.84 100.5 151.071 100.5 152.59C100.5 154.109 101.731 155.34 103.25 155.34Z" fill="#FFFFFB"/>
    <path d="M94.92 44.98H112.02C112.036 44.98 112.051 44.9863 112.062 44.9976C112.074 45.0088 112.08 45.0241 112.08 45.04V46.22C112.08 46.2369 112.074 46.2534 112.063 46.2662C112.052 46.2791 112.037 46.2876 112.02 46.29H94.92C94.9041 46.29 94.8888 46.2837 94.8775 46.2725C94.8663 46.2612 94.86 46.2459 94.86 46.23V45.0501C94.8585 45.0414 94.859 45.0324 94.8613 45.0239C94.8637 45.0155 94.8678 45.0077 94.8735 45.001C94.8792 44.9943 94.8864 44.989 94.8944 44.9854C94.9024 44.9817 94.9112 44.9799 94.92 44.98Z" fill="#FFFFFB"/>
    <path d="M133.42 113.32C133.42 111.24 133.19 109.16 133.07 107.08C132.81 102.9 132.553 98.7267 132.3 94.5601C132.1 91.2801 131.92 87.64 128.94 85.48C127.392 84.474 125.708 83.693 123.94 83.16C122.277 82.6399 120.653 82.0016 119.08 81.25C118.95 81.41 118.82 81.58 118.7 81.75L118.55 82C118.55 82.09 118.55 82.17 118.55 82.26L119.06 84.76C119.4 86.45 119.73 88.1399 120.06 89.8199C120.819 93.1417 121.39 96.5038 121.77 99.89C121.93 101.8 122.03 103.7 122.16 105.61C122.164 105.653 122.181 105.694 122.21 105.727C122.239 105.759 122.277 105.781 122.32 105.79C122.38 106.08 122.43 106.37 122.48 106.67C122.89 109.02 123.27 111.4 123.48 113.79C123.58 114.9 123.62 116.02 123.61 117.14C123.55 117.49 123.49 117.84 123.42 118.14C123.25 119.14 123.06 120.14 122.86 121.14C122.78 121.5 122.71 121.86 122.63 122.22C122.63 122.42 122.55 122.62 122.5 122.82C121.9 125.58 121.25 128.33 120.66 131.09C120.51 131.79 120.36 132.49 120.23 133.19C120.14 133.66 119.98 134.14 120.23 134.49C120.312 134.604 120.422 134.694 120.55 134.75C121.875 135.375 123.283 135.81 124.73 136.04C125.14 136.12 125.56 136.17 125.98 136.22C126.338 136.305 126.712 136.305 127.07 136.22C127.75 135.98 127.88 135.07 128.07 134.52C128.26 133.97 128.43 133.45 128.6 132.91C128.96 131.83 129.43 130.78 129.78 129.71C129.99 129.03 130.21 128.36 130.42 127.71C131.27 124.96 132.05 122.19 132.72 119.41C133.222 117.42 133.458 115.372 133.42 113.32Z" fill="#65BD83"/>
    <path d="M78.3699 98.23C78.0144 98.5223 77.6249 98.7708 77.2099 98.97L75.8999 99.73C75.0399 100.22 74.1599 100.73 73.2699 101.12C73.2264 101.141 73.1765 101.146 73.1296 101.134C73.0828 101.121 73.0421 101.092 73.0151 101.052C72.9882 101.011 72.9769 100.962 72.9833 100.914C72.9897 100.866 73.0134 100.822 73.0499 100.79C72.2158 99.0545 71.2108 97.4063 70.0499 95.87L69.2899 94.87L68.9399 94.4C68.907 94.3882 68.8785 94.3664 68.8583 94.3378C68.8382 94.3091 68.8274 94.275 68.8274 94.24C68.8274 94.205 68.8382 94.1708 68.8583 94.1422C68.8785 94.1136 68.907 94.0918 68.9399 94.08L72.2899 92.92C73.2896 92.6577 74.2391 92.232 75.0999 91.66C75.1264 91.6343 75.1592 91.616 75.195 91.6071C75.2308 91.5981 75.2683 91.5986 75.3038 91.6088C75.3393 91.6189 75.3715 91.6382 75.3972 91.6648C75.4228 91.6913 75.441 91.7242 75.45 91.76C75.45 91.76 75.45 91.81 75.45 91.84C75.45 92.04 75.5399 92.2499 75.5999 92.4499C75.7879 93.1096 76.0321 93.752 76.3299 94.37C76.69 95.1087 77.1293 95.8061 77.64 96.4499C78.12 96.8499 78.6399 97.95 78.3699 98.23Z" fill="#DF806F"/>
    <path d="M75.7201 92.4C74.9231 93.3511 73.9816 94.171 72.9301 94.83C72.0842 95.3927 71.1117 95.7363 70.1001 95.83L69.3401 94.83H69.6601C70.7601 94.664 71.8168 94.2834 72.7701 93.71C73.7152 93.1454 74.6299 92.5312 75.5101 91.87H75.5701C75.6101 91.99 75.6601 92.2 75.7201 92.4Z" fill="#DF6853"/>
    <path d="M82.3401 184.79C83.5601 184.59 84.7802 184.42 86.0102 184.25C90.3084 183.052 94.7592 182.493 99.2201 182.59C99.3001 181.23 99.3701 180 99.4301 178.97C100.11 167.19 100.93 152.79 100.93 152.79V152.89C101.25 154.13 104.62 167.26 108.73 182.39C114.83 182.17 120.97 182.13 127.12 182.13C126.02 170.68 124.62 153.64 123.48 143.31C123.05 139.39 122.65 136.43 122.33 135.12C122.01 133.81 119.98 133.06 117.01 132.59C108.01 131.14 90.1601 132.69 85.3601 133.16L84.1402 133.28C84.1402 133.28 83.8001 135.99 83.4001 140.47C82.7501 147.64 81.9202 159.35 82.0102 171.8C82.0702 175.63 82.1801 180.09 82.3401 184.79Z" fill="#1E1147"/>
    <path d="M123.51 143.31C118.32 144.857 112.98 145.843 107.58 146.25C94.3099 147.49 86.8599 143.3 83.4299 140.47C83.8299 135.99 84.1699 133.28 84.1699 133.28L85.39 133.16C91.74 133.03 109.39 132.69 117.04 132.59C120.04 133.06 122.04 133.86 122.36 135.12C122.68 136.38 123.08 139.39 123.51 143.31Z" fill="#070314"/>
    <path d="M112.26 182.28C107.26 164.66 102.73 148.89 102.41 148.57C101.68 147.84 101.19 148.89 101.14 149.71L100.96 152.89C101.28 154.13 104.65 167.26 108.76 182.39C109.92 182.34 111.09 182.31 112.26 182.28Z" fill="#070314"/>
    <path d="M116.94 68.4L115.85 87.2099C115.77 88.6699 114.85 89.86 113.85 89.86H104.85C103.85 89.86 103.11 88.6699 103.19 87.2099L104.19 69.51C104.19 69.38 104.27 68.14 104.3 68.01C104.5 66.74 105.24 66.86 106.15 66.86H115.15C116.21 66.86 117.02 66.94 116.94 68.4Z" fill="#D5806F"/>
    <path d="M122.1 133.22L87.3801 133.06C87.5805 131.406 87.915 129.77 88.3801 128.17L122.23 128.91C122.23 128.91 122.22 130.53 122.1 133.22Z" fill="#1E1147"/>
    <path d="M122.22 132.54C122.22 128.74 122.22 122.11 122.82 115.27C123.7 105.27 128.82 86.52 128.59 85.65C128.39 84.95 120.39 81.3199 117.3 79.9499L116.77 79.7099L116.26 79.5C116.266 79.4601 116.261 79.4192 116.245 79.3823C116.228 79.3454 116.202 79.3139 116.168 79.2917C116.134 79.2696 116.094 79.2576 116.054 79.2573C116.014 79.257 115.974 79.2684 115.94 79.29C114.998 79.777 113.986 80.1144 112.94 80.29C111.89 80.4382 110.826 80.4616 109.77 80.36C107.601 80.1574 105.466 79.6906 103.41 78.97C103.09 78.86 98.24 80.75 97.26 80.9C96.63 81.1 92.58 81.9 91.98 81.98C91.78 82.5133 91.5999 83.0433 91.4399 83.5699C90.5999 86.4199 90.15 89.3199 89.58 92.2099C89.29 93.6499 89.15 95.1 88.98 96.55C88.98 96.89 88.9 97.23 88.85 97.55C88.07 106.883 86.9466 116.193 85.48 125.48C85.0733 128.067 84.6366 130.653 84.17 133.24C84.0858 133.569 84.0257 133.903 83.99 134.24C84.0016 134.421 84.0502 134.598 84.1328 134.76C84.2153 134.921 84.3301 135.064 84.47 135.18C84.8005 135.544 85.1618 135.878 85.55 136.18C86.3547 136.805 87.2392 137.319 88.18 137.71C92.41 139.45 97.37 139.36 102.01 139.28C108.475 139.172 114.922 138.584 121.3 137.52C121.533 137.469 121.744 137.344 121.901 137.164C122.057 136.984 122.152 136.758 122.17 136.52C122.237 136.191 122.267 135.856 122.26 135.52C122.25 135.13 122.23 134.07 122.22 132.54Z" fill="#65BD83"/>
    <path d="M113.15 74.5C110.15 79.95 105.56 79.38 103.75 78.89L104.19 71.27C104.18 71.1569 104.18 71.0432 104.19 70.9301C107.12 70.2901 116.42 68.63 113.15 74.5Z" fill="#B55A39"/>
    <path d="M117.86 59.52C117.795 59.1477 117.705 58.7802 117.59 58.4201C117.244 57.2835 116.618 56.252 115.77 55.4201C114.343 54.1732 112.572 53.3886 110.69 53.1701C109.797 53.06 108.893 53.06 108 53.1701C106.049 53.4108 104.203 54.1899 102.67 55.4201C101.73 56.2419 100.991 57.2682 100.51 58.4201C100.353 58.7777 100.219 59.1451 100.11 59.52C99.6974 61.0102 99.5153 62.5547 99.5699 64.1C99.4608 66.7205 100.051 69.3229 101.28 71.64C101.936 72.8123 102.863 73.8107 103.983 74.5518C105.103 75.2929 106.385 75.7551 107.72 75.9C110.8 76.09 113.72 73.9 115.3 71.64C116.772 69.3794 117.658 66.7883 117.88 64.1C118.103 62.581 118.097 61.037 117.86 59.52Z" fill="#D5806F"/>
    <path d="M118.12 57.91C118.073 57.8516 118.014 57.8045 117.946 57.7721C117.879 57.7397 117.805 57.7229 117.73 57.7229C117.655 57.7229 117.581 57.7397 117.514 57.7721C117.446 57.8045 117.387 57.8516 117.34 57.91C117.25 57.9286 117.168 57.9738 117.103 58.0398C117.039 58.1058 116.996 58.1894 116.98 58.28V58.39C116.94 58.3148 116.883 58.2503 116.813 58.2019C116.744 58.1535 116.663 58.1225 116.579 58.1117C116.494 58.1009 116.409 58.1106 116.329 58.1399C116.249 58.1692 116.178 58.2173 116.12 58.28C116.054 58.3706 116.016 58.4782 116.01 58.59C115.93 59.87 115.84 61.14 115.74 62.41C115.671 63.9514 115.191 65.4463 114.35 66.74C113.67 67.74 112.62 67.74 111.5 67.74C110.21 67.81 108.93 67.74 107.64 67.74C105.879 67.6618 104.115 67.7086 102.36 67.88C101.68 67.96 100.77 67.88 100.3 68.49C99.8301 69.1 100.37 69.9899 100.64 70.5699C101.254 71.9636 102.026 73.2823 102.94 74.5C103.506 75.082 104.189 75.5365 104.944 75.8331C105.7 76.1298 106.51 76.2616 107.32 76.22C108.957 76.193 110.556 75.7232 111.947 74.8605C113.338 73.9977 114.469 72.7742 115.22 71.3199C115.789 70.0345 116.225 68.6942 116.52 67.3199C116.81 66.3199 117.08 65.3199 117.34 64.3199C117.958 62.3609 118.413 60.354 118.7 58.3199C118.7 57.9599 118.38 57.84 118.12 57.91Z" fill="#2D1D61"/>
    <path d="M64.48 86.41C64.1559 85.4909 63.7683 84.5953 63.3201 83.7299C62.9085 83.0153 62.6052 82.2436 62.42 81.44C62.36 81.1 62.42 80.65 62.77 80.52C63.12 80.39 63.49 80.7599 63.67 81.0799C63.7097 81.1521 63.7531 81.2223 63.8 81.29L63.93 81.51L64.1901 81.9599L64.7001 82.8499C65.0501 83.4399 65.3901 84.04 65.7001 84.64L65.99 85.16C66.08 85.32 66.17 85.49 66.27 85.65C66.33 85.65 66.27 85.5299 66.27 85.4699C66.22 85.2499 66.17 85.03 66.11 84.81C66.05 84.59 65.9301 84.15 65.8201 83.81C65.8013 83.7386 65.7779 83.6684 65.75 83.5999C65.43 82.5999 65.0501 81.72 64.6901 80.79C64.4901 80.27 64.28 79.7899 64.11 79.2399C63.9108 78.7673 63.799 78.2625 63.78 77.75C63.7859 77.6195 63.8237 77.4925 63.8901 77.38C63.966 77.2955 64.0578 77.2268 64.1603 77.1781C64.2629 77.1293 64.3741 77.1014 64.4875 77.0958C64.601 77.0902 64.7144 77.1071 64.8212 77.1456C64.9281 77.1841 65.0262 77.2433 65.11 77.3199C65.3683 77.553 65.5613 77.8495 65.67 78.18C65.79 78.5 65.94 78.7999 66.08 79.1099L66.49 80.1099L67.31 82C67.44 82.31 67.58 82.62 67.71 82.94C67.84 83.26 67.93 83.41 68.03 83.65C68.13 83.89 68.12 83.89 68.17 84.02C68.1842 84.0623 68.2109 84.0994 68.2466 84.1262C68.2824 84.153 68.3254 84.1682 68.37 84.17C68.3983 84.1652 68.4239 84.1505 68.4422 84.1285C68.4606 84.1065 68.4704 84.0786 68.47 84.05C68.4805 83.967 68.4805 83.883 68.47 83.8C67.9967 82.1067 67.46 80.44 66.86 78.8C66.4685 77.8965 66.2156 76.9389 66.11 75.9599C66.11 75.5399 66.21 74.9599 66.66 74.8699C67.3 74.6699 67.77 75.35 67.97 75.78C68.17 76.21 68.39 76.9099 68.59 77.4699C68.79 78.0299 69.05 78.76 69.28 79.4L69.97 81.3299L70.3 82.26C70.36 82.41 70.41 82.5599 70.46 82.7099C70.4912 82.7883 70.5179 82.8685 70.54 82.9499C70.54 82.9499 70.5401 83.11 70.6301 83.13C70.6528 83.1376 70.6774 83.1376 70.7001 83.13C70.8801 83.13 70.79 82.8099 70.77 82.7199C70.69 82.4499 70.59 82.18 70.5 81.91L69.87 79.91L69.4501 78.5999C69.2252 78.0039 69.074 77.3827 69 76.75C68.9508 76.5179 68.9801 76.276 69.0832 76.0625C69.1864 75.8489 69.3577 75.6756 69.5701 75.5699C69.7202 75.5293 69.8785 75.5302 70.0282 75.5725C70.1779 75.6147 70.3133 75.6969 70.42 75.81C70.6127 76.0266 70.756 76.2825 70.84 76.56C71.34 77.9 71.77 79.2699 72.23 80.6199C72.56 81.6199 72.9 82.51 73.3 83.44C73.5 83.89 73.7101 84.35 73.9501 84.79C74.0601 85.02 74.18 85.2399 74.31 85.4599L74.47 85.7399C74.47 85.7399 74.6501 85.98 74.6301 86.02C74.8987 84.6115 75.5255 83.2958 76.4501 82.1999C76.6101 81.9999 76.78 81.82 76.96 81.63C77.14 81.44 77.29 81.24 77.5 81.18C77.5756 81.1638 77.6543 81.1738 77.7234 81.2083C77.7924 81.2429 77.8477 81.2998 77.8801 81.3699C78.0448 81.8087 78.0658 82.2885 77.9401 82.7399C77.8419 83.192 77.7116 83.6364 77.55 84.0699C77.3255 84.6652 77.1351 85.2729 76.98 85.89C76.9362 86.0847 76.9028 86.2816 76.8801 86.4799C76.7801 87.4799 76.88 88.4099 76.8 89.3699C76.6862 90.2721 76.3418 91.1297 75.8 91.8599C75.0915 92.8073 74.17 93.5746 73.11 94.0999C72.2484 94.6136 71.2632 94.8833 70.2601 94.88C69.2127 94.7582 68.2492 94.2479 67.56 93.4499C66.4935 92.1793 65.7247 90.6862 65.31 89.0799C65.03 88.2299 64.78 87.31 64.48 86.41Z" fill="#DF806F"/>
    <path d="M72.4001 92.38C72.4148 92.3678 72.4267 92.3525 72.4348 92.3352C72.4429 92.3179 72.447 92.2991 72.447 92.28C72.447 92.2609 72.4429 92.242 72.4348 92.2247C72.4267 92.2074 72.4148 92.1922 72.4001 92.18C71.7823 91.4782 71.3915 90.6057 71.2791 89.6776C71.1666 88.7494 71.3378 87.809 71.7701 86.9799C71.7834 86.9669 71.794 86.9513 71.8012 86.9342C71.8084 86.917 71.8121 86.8986 71.8121 86.88C71.8121 86.8613 71.8084 86.8429 71.8012 86.8258C71.794 86.8086 71.7834 86.793 71.7701 86.78C71.7319 86.7648 71.6898 86.7625 71.6501 86.7733C71.6104 86.7841 71.5754 86.8075 71.5501 86.8399C71.084 87.7163 70.8955 88.7137 71.0098 89.6997C71.1242 90.6857 71.5358 91.6135 72.1901 92.36C72.2155 92.3903 72.2517 92.4094 72.291 92.4132C72.3303 92.4169 72.3695 92.405 72.4001 92.38Z" fill="#BF5A39"/>
    <path d="M65.5499 87.5699C65.573 87.5745 65.5968 87.5745 65.6199 87.5699C65.6199 87.5699 68.3699 84.29 71.1299 84.17C71.1718 84.1703 71.2122 84.1551 71.2436 84.1274C71.275 84.0998 71.295 84.0615 71.2999 84.02C71.2987 84.0003 71.2935 83.981 71.2848 83.9632C71.2761 83.9455 71.2639 83.9297 71.249 83.9167C71.2342 83.9037 71.2168 83.8938 71.1981 83.8874C71.1794 83.8811 71.1597 83.8786 71.14 83.88C68.21 84.01 65.4899 87.26 65.3699 87.4C65.3552 87.4122 65.3434 87.4275 65.3353 87.4448C65.3272 87.4621 65.323 87.4809 65.323 87.5C65.323 87.5191 65.3272 87.538 65.3353 87.5553C65.3434 87.5726 65.3552 87.5878 65.3699 87.6C65.3994 87.6139 65.4324 87.6185 65.4646 87.6132C65.4968 87.6078 65.5266 87.5927 65.5499 87.5699Z" fill="#BF5A39"/>
    <path d="M65.6601 84.6999C65.5401 84.6854 65.4184 84.7063 65.3101 84.76C65.1905 84.7989 65.0762 84.8527 64.9701 84.92C64.7512 85.0449 64.5437 85.1887 64.3501 85.35C64.2901 85.35 64.3501 85.49 64.4401 85.44C64.617 85.2889 64.8078 85.1549 65.0101 85.04C65.1065 84.9792 65.2108 84.9321 65.3201 84.9H65.4901C65.5463 84.9103 65.6039 84.9103 65.6601 84.9C65.6601 84.9 65.7101 84.7199 65.6601 84.6999Z" fill="#DF6853"/>
    <path d="M69.2001 80.63L68.9001 80.75L68.6001 80.88L68.3201 81.01L68.1901 81.09H68.1301V81.15H68.2701H68.4001L68.7001 81.03L68.9901 80.9C69.0801 80.9 69.1901 80.83 69.2801 80.78C69.3701 80.73 69.2901 80.63 69.2001 80.63Z" fill="#DF6853"/>
    <path d="M71.86 80.48L71.5601 80.57L71.2501 80.6801L70.96 80.8001L70.8201 80.8701C70.8201 80.8701 70.82 80.8701 70.77 80.8701H70.91C70.9566 80.8747 71.0035 80.8747 71.05 80.8701L71.35 80.7701L71.65 80.6601L71.9501 80.5601C71.9501 80.6301 71.94 80.46 71.86 80.48Z" fill="#DF6853"/>
    <path d="M68.1801 77.77C68.1248 77.7524 68.0654 77.7524 68.0101 77.77L67.84 77.83L67.54 77.96C67.4402 78.0073 67.3434 78.0608 67.2501 78.12C67.2501 78.12 67.07 78.24 67.11 78.26C67.1211 78.2647 67.133 78.2671 67.145 78.2671C67.157 78.2671 67.169 78.2647 67.1801 78.26C67.2331 78.2488 67.2839 78.2285 67.33 78.2L67.6201 78.07L67.92 77.96H68.0701C68.1263 77.949 68.1804 77.9287 68.23 77.9001C68.2455 77.8922 68.2576 77.8789 68.2638 77.8627C68.27 77.8465 68.27 77.8286 68.2638 77.8124C68.2576 77.7962 68.2456 77.783 68.2301 77.7752C68.2146 77.7673 68.1968 77.7655 68.1801 77.77Z" fill="#DF6853"/>
    <path d="M70.93 78.05C70.8742 78.0361 70.8159 78.0361 70.7601 78.05L70.59 78.11L70.28 78.25C70.18 78.25 70.09 78.35 69.99 78.4C69.89 78.45 69.82 78.51 69.85 78.54C69.8611 78.5447 69.873 78.5471 69.8851 78.5471C69.8971 78.5471 69.909 78.5447 69.92 78.54H70.0701L70.37 78.41L70.66 78.3H70.81C70.87 78.3 70.93 78.3 70.97 78.24C71.01 78.18 71 78.06 70.93 78.05Z" fill="#DF6853"/>
    <path d="M64.3001 82.78C64.2538 82.7716 64.2064 82.7716 64.1601 82.78L64.0301 82.84L63.7901 82.98L63.5801 83.14C63.5801 83.14 63.4501 83.26 63.4801 83.28C63.4895 83.2845 63.4997 83.2867 63.5101 83.2867C63.5205 83.2867 63.5307 83.2845 63.5401 83.28L63.6601 83.22C63.7333 83.1708 63.8102 83.1273 63.8901 83.09L64.1201 82.97L64.2401 82.92C64.2401 82.92 64.3301 82.92 64.3701 82.86C64.4101 82.8 64.3601 82.78 64.3001 82.78Z" fill="#DF6853"/>
    <path d="M116.86 77.72L116.59 77.04C116.567 76.9782 116.525 76.9255 116.47 76.89C116.423 76.8684 116.372 76.8573 116.32 76.8573C116.268 76.8573 116.217 76.8684 116.17 76.89C114.17 77.75 112.17 78.7 110.17 79.71C110.009 79.8141 109.822 79.8728 109.63 79.88C109.486 79.8584 109.349 79.8036 109.23 79.72C107.51 78.72 105.65 77.66 103.93 76.61C103.913 76.597 103.892 76.59 103.87 76.59C103.848 76.59 103.827 76.597 103.81 76.61C103.133 77.606 102.522 78.6448 101.98 79.72C103.878 81.0415 105.885 82.1991 107.98 83.1801C108.335 82.56 108.765 81.9857 109.26 81.47C109.362 81.3395 109.508 81.2507 109.67 81.22C109.87 81.22 110.02 81.38 110.13 81.52L111.05 82.7C111.16 82.84 111.36 83.14 111.57 83.17C111.62 83.179 111.67 83.179 111.72 83.17L117.48 80.17C117.559 80.1348 117.622 80.0706 117.655 79.9907C117.689 79.9108 117.69 79.8211 117.66 79.74L116.86 77.72Z" fill="#8EDAA7"/>
    <path d="M126.65 134.63C124.998 134.618 123.372 134.221 121.9 133.47H121.79C121.86 133.25 121.47 133.16 121.36 133.39C121.016 134.154 120.591 134.878 120.09 135.55C119.83 135.884 119.531 136.186 119.2 136.45C118.811 136.724 118.396 136.958 117.96 137.15C117.268 137.48 116.646 137.942 116.13 138.51C115.661 139.055 115.246 139.645 114.89 140.27C114.52 140.89 114.16 141.53 113.75 142.14C113.455 142.558 113.12 142.947 112.75 143.3C112.44 143.6 112.09 143.86 111.75 144.14C111.41 144.42 111.11 144.65 111.12 145.02C111.13 145.152 111.18 145.278 111.265 145.38C111.349 145.482 111.462 145.555 111.59 145.59C111.865 145.6 112.137 145.538 112.38 145.41C113.033 145.174 113.654 144.858 114.23 144.47C114.61 144.23 114.99 143.99 115.34 143.72C115.52 143.58 115.7 143.43 115.86 143.28C116.02 143.13 116.23 142.93 116.22 142.81C116.224 142.931 116.254 143.05 116.307 143.159C116.36 143.267 116.437 143.363 116.53 143.44C117.083 143.783 117.719 143.97 118.37 143.98L119.15 144.11L119.49 144.22C119.914 144.363 120.366 144.408 120.81 144.35H120.93H121C121.041 144.355 121.083 144.352 121.123 144.34C121.162 144.328 121.199 144.307 121.23 144.28C121.68 143.913 122.025 143.433 122.23 142.89C122.47 142.39 122.69 141.89 122.9 141.38C123.141 140.743 123.422 140.122 123.74 139.52C124.083 138.904 124.478 138.319 124.92 137.77C125.686 136.883 126.356 135.917 126.92 134.89C126.91 134.78 126.78 134.63 126.65 134.63Z" fill="#DF806F"/>
    <path d="M119.91 53.05C119.12 51.88 117.57 51.58 116.15 51.39C115.055 51.2035 113.933 51.2341 112.85 51.48C112.96 51.48 112.1 50.42 112.01 50.35C111.625 50.0214 111.18 49.7702 110.7 49.61C109.902 49.2983 109.042 49.1785 108.189 49.2601C107.336 49.3418 106.514 49.6226 105.79 50.0799C105.6 50.2299 104.9 49.9801 104.68 49.9401C104.15 49.8669 103.614 49.8434 103.08 49.87C101.864 49.9952 100.679 50.3337 99.5799 50.87C98.962 51.1815 98.2554 51.2698 97.5799 51.12C97.1199 50.96 96.7999 50.58 96.3199 50.48C96.1099 50.48 95.7299 50.48 95.7499 50.75C95.5899 51.24 96.1399 52 96.3599 52.43C96.9829 53.6877 97.8657 54.7988 98.9499 55.6901C98.9985 55.7068 99.0513 55.7068 99.0999 55.6901C100.752 56.6083 102.659 56.9596 104.53 56.6901C106.29 56.5101 108.02 56.06 109.78 55.92C110.728 55.8228 111.685 55.8666 112.62 56.05C113.44 56.23 114.62 56.65 114.81 57.49C114.859 58.0186 115.005 58.5337 115.24 59.01C115.352 59.1816 115.498 59.3275 115.671 59.4379C115.843 59.5482 116.037 59.6206 116.24 59.65C116.63 59.72 116.98 59.65 117.24 60.03C117.529 60.7065 117.782 61.3973 118 62.1V62.29C118.1 62.68 118.67 62.65 118.84 62.29C118.92 62.0206 118.96 61.7409 118.96 61.4599C119.02 61.0899 119.11 60.71 119.2 60.35C119.49 59.15 119.9 57.99 120.2 56.79C120.5 55.59 120.66 54.16 119.91 53.05Z" fill="#2D1D61"/>
    <path d="M119.4 62.38C119.206 62.2205 118.975 62.1129 118.728 62.0674C118.481 62.0219 118.226 62.0401 117.988 62.1201C117.75 62.2002 117.536 62.3394 117.367 62.5248C117.198 62.7102 117.078 62.9358 117.02 63.1801C116.612 64.5692 116.42 66.0126 116.45 67.46L117.45 67.13C118.502 66.7226 119.355 65.9233 119.83 64.9001C120.036 64.4889 120.105 64.0228 120.028 63.5696C119.951 63.1164 119.731 62.6996 119.4 62.38Z" fill="#D5806F"/>
    <path d="M119.11 62.91C118.806 62.6471 118.422 62.4954 118.02 62.48C117.999 62.4754 117.977 62.475 117.956 62.4788C117.935 62.4826 117.915 62.4905 117.897 62.5021C117.879 62.5137 117.863 62.5287 117.851 62.5464C117.838 62.564 117.83 62.584 117.825 62.605C117.82 62.626 117.82 62.6478 117.824 62.6689C117.828 62.6901 117.835 62.7103 117.847 62.7284C117.859 62.7465 117.874 62.7621 117.892 62.7744C117.909 62.7867 117.929 62.7955 117.95 62.8001C118.279 62.8107 118.596 62.9303 118.85 63.14C119.038 63.437 119.106 63.7947 119.04 64.14C118.862 64.8883 118.404 65.5398 117.76 65.96C117.743 65.9731 117.729 65.9895 117.718 66.0082C117.707 66.0268 117.7 66.0475 117.697 66.0689C117.695 66.0902 117.696 66.1119 117.702 66.1327C117.707 66.1535 117.717 66.173 117.73 66.1901C117.743 66.2071 117.76 66.2214 117.778 66.2322C117.797 66.2429 117.817 66.2499 117.839 66.2527C117.86 66.2555 117.882 66.254 117.903 66.2484C117.923 66.2428 117.943 66.2331 117.96 66.22C118.339 65.9357 118.676 65.599 118.96 65.22C119.208 64.8656 119.357 64.4513 119.39 64.02C119.444 63.6277 119.343 63.2299 119.11 62.91Z" fill="#B55A39"/>
    <path d="M118.46 55.52C118.311 54.9053 118.019 54.3347 117.607 53.8549C117.195 53.3752 116.675 52.9999 116.09 52.76C115.172 52.4939 114.212 52.4023 113.26 52.49C112.97 52.49 112.95 52.9 113.26 52.89C114.247 52.7824 115.246 52.9021 116.18 53.24C116.856 53.5777 117.401 54.1298 117.73 54.81C118.57 56.46 118.12 58.39 117.73 60.14C117.67 60.39 118.09 60.5 118.15 60.25C118.639 58.7225 118.746 57.0982 118.46 55.52Z" fill="#5A4687"/>
    <path d="M112.32 53.1C111.937 52.1139 111.232 51.2859 110.32 50.75C109.915 50.4722 109.436 50.3236 108.945 50.3236C108.454 50.3236 107.975 50.4722 107.57 50.75C107.176 51.0277 106.856 51.3987 106.64 51.83C106.566 52.0273 106.468 52.2153 106.35 52.39C106.14 52.66 105.8 52.5 105.53 52.39C104.454 51.8946 103.313 51.5577 102.14 51.39C100.905 51.357 99.6895 51.7063 98.6602 52.39C98.6137 52.4179 98.5803 52.463 98.5671 52.5155C98.554 52.568 98.5622 52.6236 98.5901 52.67C98.6179 52.7165 98.6631 52.7498 98.7156 52.7629C98.7681 52.7761 98.8237 52.7678 98.8701 52.74C99.7592 52.1488 100.802 51.8323 101.87 51.83C102.956 51.9023 104.018 52.1807 105 52.65C105.4 52.81 106 53.1 106.44 52.87C106.88 52.64 106.92 52.25 107.1 51.87C107.309 51.4316 107.663 51.0789 108.102 50.8712C108.541 50.6635 109.039 50.6136 109.51 50.73C110.029 50.9205 110.493 51.2367 110.86 51.65C111.302 52.0565 111.644 52.5595 111.86 53.12C111.96 53.45 112.4 53.34 112.32 53.1Z" fill="#5A4687"/>
    <path d="M111.01 54.42C110.793 54.1407 110.508 53.9208 110.183 53.781C109.858 53.6411 109.502 53.5857 109.15 53.6199C108.24 53.6899 107.6 54.3699 106.8 54.7199C105.93 55.1085 104.97 55.2506 104.025 55.1307C103.08 55.0108 102.185 54.6335 101.44 54.04C101.23 53.86 100.9 54.1499 101.11 54.3199C101.79 54.8769 102.592 55.2651 103.45 55.4528C104.309 55.6405 105.2 55.6225 106.05 55.4C106.482 55.2881 106.901 55.1306 107.3 54.93C107.72 54.72 108.08 54.4099 108.5 54.1999C108.85 54.0259 109.248 53.9728 109.631 54.0488C110.015 54.1248 110.363 54.3256 110.62 54.6199C110.77 54.8299 111.17 54.63 111.01 54.42Z" fill="#5A4687"/>
    <path d="M101.07 81.1401C101.013 81.7793 100.77 82.3878 100.37 82.8901C99.95 83.6201 99.52 84.35 99.08 85.07C98.16 86.6 97.24 88.13 96.4 89.7C94.8918 92.7411 93.6019 95.8858 92.54 99.11C91.96 100.65 91.35 102.21 90.66 103.74C89.0935 107.463 86.9542 110.918 84.32 113.98C83.48 114.92 82.5 116.16 81.13 116.42C80.5588 116.559 79.9558 116.47 79.45 116.17C79.2368 115.99 79.0425 115.789 78.87 115.57C77.6982 114.22 76.6317 112.783 75.68 111.27C74.802 109.759 74.0237 108.192 73.35 106.58C72.336 104.199 71.5849 101.714 71.11 99.1701C71.11 98.9801 70.79 97.1701 70.74 97.1701L73.74 95.6501L76.38 94.2801C77.7958 96.2024 79.098 98.2058 80.28 100.28L80.51 100.65C80.39 100.47 80.72 99.6501 80.77 99.4001C80.87 98.9201 80.98 98.4 81.09 97.98C81.29 97.08 81.5 96.1901 81.74 95.3001C82.23 93.4601 82.74 91.6401 83.36 89.8101C83.768 88.267 84.445 86.8079 85.36 85.5C86.745 83.9339 88.5895 82.8455 90.63 82.3901C93.8639 81.4148 97.1619 80.6663 100.5 80.1501C100.621 80.1351 100.744 80.1562 100.853 80.2106C100.962 80.265 101.052 80.3503 101.113 80.456C101.174 80.5616 101.203 80.6829 101.195 80.8046C101.187 80.9263 101.144 81.0429 101.07 81.1401Z" fill="#65BD83"/>
    <path d="M127.01 105.81C126.67 110.486 125.804 115.108 124.43 119.59C123.67 122.27 122.84 124.92 122.05 127.59C121.66 128.92 121.27 130.25 120.91 131.59C120.73 132.26 120.56 132.93 120.39 133.59C120.358 133.929 120.295 134.263 120.2 134.59C119.94 134.24 120.1 133.76 120.2 133.29C120.33 132.59 120.48 131.89 120.63 131.19C121.22 128.43 121.87 125.68 122.47 122.92C122.52 122.72 122.56 122.52 122.6 122.32C122.68 121.96 122.75 121.6 122.83 121.24C123.087 120.254 123.274 119.252 123.39 118.24C123.39 118 123.39 117.77 123.46 117.53C123.54 116.34 123.46 115.15 123.46 113.96C123.46 113.96 123.46 113.88 123.46 113.84C123.34 106.84 124.59 99.84 125.91 92.84C125.91 92.69 126 92.5 126.17 92.47C126.57 95.81 126.98 99.17 127.06 102.54C127.08 103.63 127.07 104.71 127.01 105.81Z" fill="#65BD83"/>
    <path d="M129.01 114.91C127.512 114.54 125.973 114.355 124.43 114.36C124.377 114.36 124.326 114.381 124.289 114.419C124.251 114.456 124.23 114.507 124.23 114.56C124.23 114.613 124.251 114.664 124.289 114.701C124.326 114.739 124.377 114.76 124.43 114.76C125.933 114.757 127.431 114.939 128.89 115.3C129.14 115.37 129.28 114.98 129.01 114.91Z" fill="white"/>
    <path d="M122.46 144.38C120.401 144.33 118.368 143.907 116.46 143.13C116.2 143.03 115.96 143.37 116.21 143.48C118.185 144.286 120.288 144.73 122.42 144.79C122.45 144.799 122.481 144.801 122.512 144.797C122.543 144.792 122.572 144.781 122.598 144.763C122.624 144.746 122.645 144.723 122.661 144.697C122.677 144.67 122.687 144.64 122.69 144.609C122.693 144.578 122.689 144.547 122.679 144.518C122.668 144.489 122.651 144.462 122.629 144.44C122.607 144.418 122.581 144.402 122.551 144.391C122.522 144.381 122.491 144.377 122.46 144.38Z" fill="#5A4687"/>
    <path d="M103.49 147.45C103.49 146.96 103.49 146.45 103.49 145.96C103.55 143.96 103.62 141.88 103.68 139.84C103.68 139.58 103.24 139.58 103.24 139.84C103.18 141.64 103.12 143.45 103.07 145.26C103.07 146.13 103.07 147.01 102.97 147.88C102.95 148.248 102.81 148.6 102.57 148.88C102.446 149.016 102.287 149.114 102.111 149.165C101.934 149.217 101.747 149.218 101.57 149.17C101.64 146.06 101.72 142.95 101.79 139.84C101.79 139.58 101.35 139.58 101.35 139.84C101.26 143.42 101.18 147 101.09 150.58C101.09 150.84 101.53 150.84 101.54 150.58C101.55 150.32 101.54 149.92 101.54 149.58C101.899 149.642 102.267 149.575 102.582 149.392C102.896 149.21 103.136 148.922 103.26 148.58C103.405 148.22 103.483 147.837 103.49 147.45Z" fill="#5A4687"/>
    <path d="M101.51 96.93C101.183 96.77 100.824 96.6846 100.46 96.68C99.0101 96.55 97.5601 96.41 96.1001 96.4C94.6401 96.39 93.1901 96.55 91.7401 96.66C91.3476 96.6615 90.9609 96.7539 90.6101 96.93C90.328 97.159 90.1097 97.457 89.9766 97.7951C89.8434 98.1333 89.7999 98.5 89.8501 98.8599C89.85 100.197 89.9335 101.533 90.1001 102.86C90.1264 103.466 90.3016 104.057 90.6101 104.58C91.1184 105.193 91.7813 105.659 92.5302 105.93C93.4202 106.35 94.3101 106.79 95.2101 107.18C95.2727 107.214 95.3402 107.237 95.4102 107.25C95.8802 107.32 96.4101 106.89 96.8301 106.7C97.4101 106.41 98.0101 106.18 98.6001 105.92C99.2597 105.642 99.8708 105.261 100.41 104.79C100.908 104.256 101.229 103.583 101.33 102.86C101.648 101.542 101.885 100.207 102.04 98.8599C102.123 98.5456 102.13 98.2164 102.063 97.8986C101.995 97.5808 101.854 97.2834 101.65 97.03C101.608 96.9911 101.561 96.9575 101.51 96.93Z" fill="#8EDAA7"/>
    <path d="M109.62 82.32C109.62 82.06 109.18 82.06 109.18 82.32C108.962 89.5551 108.19 96.763 106.87 103.88C105.68 111.06 104.36 118.24 103.8 125.46C103.47 129.59 103.38 133.73 103.29 137.85C103.29 138.11 103.73 138.12 103.74 137.85C103.82 134.17 103.9 130.48 104.14 126.79C104.38 123.1 104.81 119.6 105.34 116.01C106.34 108.82 107.81 101.66 108.72 94.46C109.264 90.4351 109.564 86.3811 109.62 82.32Z" fill="#8EDAA7"/>
    <path d="M110.79 85.4301C110.684 85.4301 110.582 85.4721 110.507 85.5471C110.432 85.6221 110.39 85.7239 110.39 85.83C110.39 85.936 110.432 86.0378 110.507 86.1128C110.582 86.1878 110.684 86.23 110.79 86.23C110.896 86.23 110.998 86.1878 111.073 86.1128C111.148 86.0378 111.19 85.936 111.19 85.83C111.19 85.7239 111.148 85.6221 111.073 85.5471C110.998 85.4721 110.896 85.4301 110.79 85.4301Z" fill="#8EDAA7"/>
    <path d="M110.03 94.72C109.978 94.72 109.926 94.7304 109.877 94.7505C109.829 94.7706 109.784 94.8 109.747 94.8372C109.71 94.8743 109.681 94.9184 109.661 94.9669C109.64 95.0154 109.63 95.0675 109.63 95.12C109.63 95.1725 109.64 95.2245 109.661 95.2731C109.681 95.3216 109.71 95.3657 109.747 95.4028C109.784 95.44 109.829 95.4694 109.877 95.4895C109.926 95.5096 109.978 95.52 110.03 95.52C110.083 95.52 110.135 95.5096 110.183 95.4895C110.232 95.4694 110.276 95.44 110.313 95.4028C110.35 95.3657 110.38 95.3216 110.4 95.2731C110.42 95.2245 110.43 95.1725 110.43 95.12C110.43 95.0675 110.42 95.0154 110.4 94.9669C110.38 94.9184 110.35 94.8743 110.313 94.8372C110.276 94.8 110.232 94.7706 110.183 94.7505C110.135 94.7304 110.083 94.72 110.03 94.72Z" fill="#8EDAA7"/>
    <path d="M108.86 103.95C108.85 103.899 108.821 103.852 108.78 103.82C108.74 103.781 108.692 103.75 108.64 103.73C108.584 103.72 108.526 103.72 108.47 103.73H108.35C108.276 103.753 108.208 103.79 108.15 103.84L108.08 103.92C108.035 103.978 108.007 104.047 108 104.12C107.991 104.17 107.991 104.221 108 104.27C108.014 104.322 108.046 104.368 108.09 104.4C108.124 104.441 108.169 104.472 108.22 104.49C108.276 104.5 108.334 104.5 108.39 104.49H108.51C108.584 104.47 108.653 104.432 108.71 104.38L108.79 104.3C108.828 104.239 108.852 104.171 108.86 104.1C108.879 104.052 108.879 103.998 108.86 103.95Z" fill="#8EDAA7"/>
    <path d="M107.32 113.85C107.3 113.801 107.269 113.756 107.23 113.72L107.15 113.66C107.08 113.619 107.001 113.598 106.92 113.6H106.81C106.733 113.617 106.662 113.651 106.6 113.7C106.559 113.734 106.528 113.779 106.51 113.83C106.492 113.878 106.492 113.932 106.51 113.98C106.49 114.031 106.49 114.089 106.51 114.14C106.523 114.19 106.551 114.236 106.59 114.27L106.68 114.33C106.746 114.371 106.823 114.392 106.9 114.39H107.02C107.093 114.371 107.161 114.337 107.22 114.29C107.264 114.256 107.299 114.211 107.32 114.16C107.33 114.11 107.33 114.059 107.32 114.01C107.331 113.957 107.331 113.903 107.32 113.85Z" fill="#8EDAA7"/>
    <path d="M106.02 124.53C106.011 124.478 105.987 124.429 105.95 124.39C105.917 124.349 105.876 124.315 105.83 124.29H105.73C105.651 124.27 105.569 124.27 105.49 124.29H105.39C105.321 124.323 105.262 124.375 105.22 124.44L105.14 124.54C105.103 124.582 105.082 124.635 105.08 124.69C105.065 124.742 105.065 124.798 105.08 124.85C105.093 124.903 105.121 124.952 105.16 124.99C105.184 125.035 105.223 125.07 105.27 125.09H105.38C105.456 125.11 105.535 125.11 105.61 125.09H105.72C105.789 125.061 105.848 125.012 105.89 124.95L105.97 124.84C105.99 124.821 106.006 124.797 106.016 124.771C106.026 124.746 106.031 124.718 106.03 124.69C106.047 124.637 106.044 124.58 106.02 124.53Z" fill="#8EDAA7"/>
    <path d="M105.47 134.2C105.453 134.13 105.415 134.067 105.36 134.02L105.28 133.96C105.214 133.921 105.137 133.9 105.06 133.9C105.004 133.885 104.946 133.885 104.89 133.9C104.833 133.911 104.781 133.938 104.74 133.98C104.657 134.056 104.604 134.159 104.59 134.27V134.37C104.607 134.44 104.645 134.503 104.7 134.55L104.78 134.62C104.853 134.635 104.928 134.635 105 134.62C105.056 134.63 105.114 134.63 105.17 134.62C105.226 134.602 105.278 134.571 105.32 134.53C105.367 134.499 105.402 134.453 105.42 134.4C105.434 134.351 105.434 134.299 105.42 134.25L105.47 134.2Z" fill="#8EDAA7"/>
    <path d="M123.48 109.45C123.434 109.45 123.39 109.433 123.356 109.401C123.323 109.369 123.303 109.326 123.3 109.28C123.3 106.52 124.13 101.09 125.83 93.15L125.98 92.45C125.988 92.4005 126.013 92.3557 126.052 92.3242C126.091 92.2928 126.14 92.277 126.19 92.28C126.214 92.2786 126.238 92.2822 126.261 92.2908C126.283 92.2993 126.304 92.3125 126.321 92.3295C126.338 92.3465 126.351 92.3669 126.359 92.3894C126.368 92.4119 126.372 92.4359 126.37 92.46C126.37 92.46 126.37 92.57 126.22 93.2C124.52 101.12 123.67 106.52 123.69 109.26C123.688 109.31 123.667 109.357 123.632 109.392C123.597 109.427 123.55 109.448 123.5 109.45H123.48Z" fill="white"/>
    <path d="M124.59 132.76C123.173 132.573 121.811 132.093 120.59 131.35C120.45 131.99 120.32 132.62 120.2 133.26C120.11 133.73 119.95 134.21 120.2 134.56C120.282 134.674 120.392 134.764 120.52 134.82C121.846 135.445 123.253 135.88 124.7 136.11C125.11 136.19 125.53 136.24 125.95 136.29C126.308 136.375 126.682 136.375 127.04 136.29C127.72 136.05 127.85 135.14 128.04 134.59L128.44 133.38C127.15 133.17 125.86 133.01 124.59 132.76Z" fill="#8EDAA7"/>
    <path d="M121.16 128.73C120.967 129.543 120.787 130.353 120.62 131.16C120.47 131.86 120.32 132.56 120.19 133.26C120.1 133.73 119.94 134.21 120.19 134.56C120.285 134.233 120.348 133.899 120.38 133.56C120.55 132.89 120.72 132.22 120.9 131.56C121.14 130.66 121.4 129.76 121.66 128.87C121.491 128.835 121.323 128.788 121.16 128.73Z" fill="#8FA145"/>
    <path d="M91.03 100.29C91.0593 98.9248 90.9419 97.5602 90.6799 96.22C90.5764 95.5176 90.4023 94.8275 90.16 94.1601C90.1953 93.9283 90.2153 93.6944 90.22 93.46C90.22 93.29 90.03 93.2401 89.9 93.2901C89.8409 93.5207 89.7941 93.7543 89.76 93.99C89.68 94.3 89.6 94.6101 89.51 94.9101C89.34 95.5501 89.15 96.1801 88.96 96.8101C87.9903 99.9625 86.8179 103.049 85.45 106.05C85.0274 106.811 84.6726 107.607 84.39 108.43C84.18 109.26 84.32 110.11 84.13 110.94C83.9708 111.653 83.6827 112.331 83.28 112.94C82.3722 114.259 81.2697 115.432 80.01 116.42C80.379 116.5 80.761 116.5 81.13 116.42C82.5 116.16 83.48 114.92 84.32 113.98C86.9542 110.918 89.0935 107.463 90.66 103.74C90.8721 102.601 90.9958 101.448 91.03 100.29Z" fill="#65BD83"/>
    <path d="M81.1901 101.68C81.0001 101.5 80.6501 101.77 80.8501 101.95C82.0184 102.968 82.9259 104.251 83.4965 105.691C84.0672 107.132 84.2845 108.688 84.1301 110.23C84.1301 110.49 84.5401 110.51 84.5701 110.23C84.7317 108.638 84.5091 107.031 83.921 105.544C83.3328 104.056 82.3963 102.731 81.1901 101.68Z" fill="white"/>
    <path d="M89.8601 92.27C89.4419 91.3186 88.9364 90.4081 88.3501 89.55C88.2001 89.34 87.8001 89.55 87.9401 89.74C89.2533 91.6658 90.1549 93.842 90.5885 96.1322C91.0221 98.4224 90.9784 100.777 90.4601 103.05C90.4001 103.3 90.8502 103.32 90.9002 103.05C91.7112 99.4377 91.3468 95.6607 89.8601 92.27Z" fill="white"/>
    <path d="M64.3499 30.9401C78.0099 30.7701 89.1899 39.1001 89.3499 49.5601C89.3684 51.9111 88.834 54.2334 87.7899 56.34C87.7153 56.5261 87.7153 56.7339 87.7899 56.92L91.3699 67.38C91.4057 67.5101 91.4079 67.6471 91.3765 67.7783C91.3451 67.9095 91.281 68.0307 91.1902 68.1305C91.0994 68.2303 90.9848 68.3055 90.8571 68.3491C90.7294 68.3927 90.5928 68.4034 90.4599 68.38L77.8799 65.91C77.7208 65.8794 77.5561 65.9004 77.4099 65.97C73.4825 67.7799 69.2142 68.7311 64.8899 68.76C51.2299 68.93 40.0499 60.6 39.8899 50.14C39.7299 39.68 50.6899 31.1101 64.3499 30.9401Z" fill="#3FB9C0"/>
    <path d="M46.4698 45.99H84.4698C84.4869 45.99 84.5038 45.9866 84.5196 45.9801C84.5354 45.9736 84.5497 45.964 84.5618 45.9519C84.5738 45.9398 84.5834 45.9256 84.59 45.9098C84.5965 45.894 84.5999 45.8771 84.5999 45.86V43.47C84.5999 43.4355 84.5861 43.4024 84.5618 43.3781C84.5374 43.3537 84.5043 43.34 84.4698 43.34H46.4698C46.4354 43.34 46.4023 43.3537 46.3779 43.3781C46.3535 43.4024 46.3398 43.4355 46.3398 43.47V45.86C46.3398 45.8771 46.3432 45.894 46.3497 45.9098C46.3563 45.9256 46.3659 45.9398 46.3779 45.9519C46.39 45.964 46.4043 45.9736 46.4201 45.9801C46.4359 45.9866 46.4528 45.99 46.4698 45.99Z" fill="white"/>
    <path d="M46.4698 59.01H84.4698C84.4869 59.01 84.5038 59.0067 84.5196 59.0001C84.5354 58.9936 84.5497 58.984 84.5618 58.9719C84.5738 58.9599 84.5834 58.9456 84.59 58.9298C84.5965 58.914 84.5999 58.8971 84.5999 58.88V56.49C84.5999 56.4555 84.5861 56.4225 84.5618 56.3981C84.5374 56.3737 84.5043 56.36 84.4698 56.36H46.4698C46.4354 56.36 46.4023 56.3737 46.3779 56.3981C46.3535 56.4225 46.3398 56.4555 46.3398 56.49V58.88C46.3398 58.8971 46.3432 58.914 46.3497 58.9298C46.3563 58.9456 46.3659 58.9599 46.3779 58.9719C46.39 58.984 46.4043 58.9936 46.4201 59.0001C46.4359 59.0067 46.4528 59.01 46.4698 59.01Z" fill="white"/>
    <path d="M46.63 50.36H84.63C84.6645 50.36 84.6975 50.3463 84.7219 50.3219C84.7463 50.2975 84.76 50.2645 84.76 50.23V47.84C84.76 47.8055 84.7463 47.7724 84.7219 47.748C84.6975 47.7237 84.6645 47.71 84.63 47.71H46.63C46.5955 47.71 46.5625 47.7237 46.5381 47.748C46.5137 47.7724 46.5 47.8055 46.5 47.84V50.23C46.5 50.2645 46.5137 50.2975 46.5381 50.3219C46.5625 50.3463 46.5955 50.36 46.63 50.36Z" fill="white"/>
    <path d="M46.4701 54.75H84.4701C84.5046 54.75 84.5376 54.7363 84.562 54.7119C84.5864 54.6875 84.6001 54.6545 84.6001 54.62V52.1901C84.6001 52.173 84.5967 52.156 84.5902 52.1403C84.5837 52.1245 84.5741 52.1101 84.562 52.098C84.5499 52.086 84.5356 52.0765 84.5198 52.0699C84.5041 52.0634 84.4872 52.0601 84.4701 52.0601H46.4701C46.433 52.0601 46.3973 52.0747 46.3711 52.101C46.3448 52.1272 46.3301 52.1628 46.3301 52.2V54.63C46.3313 54.6471 46.336 54.6638 46.3438 54.6791C46.3515 54.6944 46.3621 54.708 46.3751 54.7191C46.3881 54.7303 46.4033 54.7387 46.4196 54.744C46.4359 54.7493 46.453 54.7514 46.4701 54.75Z" fill="white"/>
    <path opacity="0.25" d="M157.01 30.4C144.15 25.4557 130.046 24.7549 116.76 28.4C112.455 29.5997 107.878 29.3842 103.704 27.7854C99.5308 26.1866 95.9815 23.289 93.5798 19.52C88.7559 12.0122 81.7079 6.19829 73.4198 2.89001C49.4198 -6.57999 21.3598 7.69005 11.0698 34.5601C7.11295 44.7244 6.22625 55.8265 8.51977 66.49C9.88765 72.8221 9.18659 79.4261 6.51977 85.33C6.43977 85.52 6.34977 85.71 6.26977 85.89C-9.65023 122.2 5.95977 163.36 39.7698 174.24C50.2163 177.564 61.4125 177.724 71.9498 174.7C81.2208 172.057 91.1047 172.545 100.07 176.09L100.62 176.3C136.71 190.3 178.62 168.88 194.16 128.58C209.7 88.28 193.1 44.35 157.01 30.4Z" fill="#9BCDCA"/>
</svg>
