<svg width="2560" height="751" viewBox="0 0 2560 751" fill="none" xmlns="http://www.w3.org/2000/svg">
        <path d="M835.167 354.711C755.494 297.971 686.149 226.046 574.017 312.356L545 652H2016V270C2005.02 279.99 1977.25 306.202 1954.03 331.136C1925.02 362.303 1905.83 334.333 1837.97 331.136C1770.1 327.939 1717.47 483.729 1607.8 489.77C1517.31 494.754 1457.8 484.975 1304.84 412.251C1151.89 339.527 1101.24 394.669 1060.91 391.473C1020.58 388.276 1021.07 340.726 972.874 354.711C924.676 368.697 914.84 411.452 835.167 354.711Z" fill="#85D8DD"/>
        <path d="M2276 312.605C2196.33 255.864 2127.13 184.94 2015 271.249L1965 652.25H3436V270.249C3425.02 280.239 3397.25 306.451 3374.03 331.385C3345.02 362.552 3325.83 334.582 3257.97 331.385C3190.1 328.188 3137.47 483.978 3027.8 490.019C2937.31 495.004 2877.8 485.224 2724.84 412.5C2571.89 339.776 2521.24 394.919 2480.91 391.722C2440.58 388.525 2441.07 340.975 2392.87 354.96C2344.68 368.946 2355.67 369.345 2276 312.605Z" fill="#85D8DD"/>
        <path d="M495.833 354.711C575.506 297.971 644.851 226.046 756.983 312.356L786 652H-685V270C-674.016 279.99 -646.245 306.202 -623.032 331.136C-594.015 362.303 -574.835 334.333 -506.965 331.136C-439.096 327.939 -386.472 483.729 -276.799 489.77C-186.306 494.754 -126.797 484.975 26.1555 412.251C179.108 339.527 229.764 394.669 270.093 391.473C310.421 388.276 309.929 340.726 358.126 354.711C406.324 368.697 416.16 411.452 495.833 354.711Z" fill="#85D8DD"/>
        <path d="M1128.04 425.375C882.468 395.436 746.704 403.42 576 455.315V576.27H910.919C1036.7 576.27 1312.22 611 1480.93 611C1649.64 611 2016 576.27 2016 576.27V455.315C1983.22 455.315 1906.69 459.706 1862.77 477.27C1807.86 499.226 1764.44 533.956 1630.67 535.553C1496.9 537.149 1373.62 455.315 1128.04 425.375Z" fill="#3FB9C0"/>
        <path d="M-226.958 418.375C-472.532 388.436 -608.296 396.42 -779 448.315V569.27H-444.081C-318.3 569.27 -42.7782 604 125.929 604C294.636 604 661 569.27 661 569.27V448.315C628.224 448.315 551.69 452.706 507.766 470.27C452.861 492.226 409.437 526.956 275.669 528.553C141.901 530.149 18.6152 448.315 -226.958 418.375Z" fill="#3FB9C0"/>
        <path d="M2451.04 437.375C2205.47 407.436 2069.7 415.42 1899 467.315V588.27H2233.92C2359.7 588.27 2635.22 623 2803.93 623C2972.64 623 3339 588.27 3339 588.27V467.315C3306.22 467.315 3229.69 471.706 3185.77 489.27C3130.86 511.226 3087.44 545.956 2953.67 547.553C2819.9 549.149 2696.62 467.315 2451.04 437.375Z" fill="#3FB9C0"/>
        <rect y="513" width="2560" height="500" fill="#007089"/>
        <path d="M981.5 503.5C850 511.47 590 461.5 553 482V513H1990.5V505C1798.5 492.667 1455.85 469 1351 469C1252 469 1120.5 495.076 981.5 503.5Z" fill="#007089"/>
        <path d="M181 503.5C312.5 511.47 572.5 461.5 609.5 482V513H-828V505C-636 492.667 -293.345 469 -188.5 469C-89.5 469 42 495.076 181 503.5Z" fill="#007089"/>
        <path d="M2999 503.5C3130.5 511.47 3390.5 461.5 3427.5 482V513H1990V505C2182 492.667 2524.65 469 2629.5 469C2728.5 469 2860 495.076 2999 503.5Z" fill="#007089"/>
</svg>
