<svg width="97" height="85" viewBox="0 0 97 85" fill="none" xmlns="http://www.w3.org/2000/svg">
        <path d="M17.23 74.05C18.37 73.61 22 70.33 22.43 70.05C22.86 69.77 25.5799 70.82 25.9899 70.57C26.3999 70.32 26.61 69.83 26.44 69.63C26.27 69.43 23.1599 69.02 22.9899 68.82C22.8199 68.62 22.54 67.35 22.05 66.45C21.5681 65.7549 20.9487 65.166 20.23 64.72L19.76 65.63L19.92 64.35C18.9167 63.5341 17.6891 63.0424 16.4 62.94L16.19 64.68L15.03 63.31C13.9046 63.0998 12.7421 63.2286 11.69 63.68L11.77 65.35L10.4899 63.84C9.68472 63.8958 8.89911 64.1134 8.17999 64.48L8.32001 66.42L7.01996 64.89C6.14724 65.2969 5.33867 65.8292 4.61994 66.47C4.33994 66.9 4.62004 67.53 4.85004 67.8L6.59003 67.85L4.90998 68.7C4.95566 69.3685 5.1432 70.0196 5.46002 70.61L9.31 68.85L5.94 71.18C6.19414 71.5195 6.51336 71.8048 6.87909 72.0195C7.24482 72.2341 7.64971 72.3737 8.07001 72.43L12.07 70.81L8.89997 73.37C9.533 73.7828 10.2743 73.9986 11.03 73.99L15.94 70.22L12.15 74.36C12.47 74.9 13.6 74.89 14.15 74.51L17.09 71.58L15.66 74.09C15.66 74.09 16.13 74.44 17.27 74" fill="#65BD83"/>
        <path d="M19.7999 66.1599C19.3899 61.4099 15.3399 59.54 9.86987 60.81C11.1099 65.02 15.2999 68.8099 19.7999 66.1599Z" fill="#3FB8BE"/>
        <path d="M19.8501 66.32C19.8175 66.33 19.7826 66.33 19.75 66.32C18.92 65.93 17.5901 65.16 16.1801 64.32C14.4801 63.32 12.5601 62.24 11.0601 61.53C11.0385 61.5232 11.0186 61.5119 11.0017 61.4969C10.9848 61.4819 10.9713 61.4636 10.962 61.443C10.9528 61.4224 10.948 61.4 10.948 61.3774C10.948 61.3548 10.9528 61.3325 10.962 61.3119C10.9713 61.2913 10.9847 61.2728 11.0016 61.2578C11.0185 61.2428 11.0383 61.2315 11.0598 61.2247C11.0814 61.2179 11.1041 61.2158 11.1266 61.2184C11.149 61.2211 11.1707 61.2284 11.1901 61.24C12.7101 61.95 14.6401 63.07 16.3401 64.05C17.7401 64.85 19.06 65.61 19.88 66.05C19.8999 66.0575 19.9181 66.0691 19.9331 66.0841C19.9482 66.0991 19.9598 66.1171 19.9674 66.137C19.975 66.1568 19.9782 66.1781 19.9769 66.1993C19.9757 66.2205 19.9699 66.2412 19.9601 66.26C19.9324 66.2933 19.8931 66.3147 19.8501 66.32Z" fill="#1EA2A9"/>
        <path d="M8.58008 35.71C8.71008 35.91 13.76 33.71 15.87 32.3C16.7654 32.319 17.6553 32.4466 18.52 32.68C19.02 32.94 21.4401 31.35 22.0801 30.99C22.7201 30.63 22 30.13 21.91 30.18L19.4801 31.57C18.1301 32.36 16.25 30.75 16.26 30.11C17.0433 29.4043 17.6701 28.5425 18.1001 27.58C18.1463 27.0584 18.1159 26.5328 18.01 26.02C17.8789 26.1836 17.7866 26.3747 17.7399 26.579C17.6931 26.7834 17.6931 26.9957 17.74 27.2C17.88 27.94 16.51 29.05 16.14 29.42C15.77 29.79 15.6901 29.52 15.5801 29.27C15.4701 29.02 16.5801 28.71 16.9401 28.27C17.2801 27.3655 17.3427 26.3802 17.12 25.44C16.96 25.06 16.9201 27.1 16.6901 27.71C16.4601 28.32 15.4701 29.0399 15.2201 28.9099C14.9701 28.7799 15.99 27.91 16.52 27.33C16.7384 27.0251 16.8633 26.6631 16.8793 26.2884C16.8953 25.9136 16.8018 25.5424 16.6101 25.2199C16.4801 24.9599 16.4101 25.16 16.3501 25.52C16.2936 25.1312 16.1462 24.7612 15.92 24.44C15.7 24.21 15.8001 25.73 15.4501 26.44C15.1001 27.15 13.83 27.84 13.66 27.44C13.49 27.04 14.7301 26.74 15.1901 25.81C15.5049 25.112 15.5582 24.324 15.3401 23.59C15.2401 23.37 14.85 24.98 14.55 25.59C14.25 26.2 13.22 27.38 12.99 26.88C12.76 26.38 14.4801 25.43 14.7201 24.69C14.8774 24.0552 14.9579 23.4039 14.9601 22.75C14.6201 23.0351 14.4019 23.4393 14.3501 23.88C14.0872 24.8467 13.5528 25.7177 12.8101 26.39C12.3101 26.72 12.33 26.3899 12.17 26.1599C12.01 25.9299 13.2501 25.06 13.5801 24.87C13.9885 23.9258 14.1535 22.8944 14.0601 21.87C13.8801 21.66 13.6201 23.52 13.4301 23.87C13.2401 24.22 11.73 25.95 11.63 25.73C11.53 25.51 12.54 24.38 12.77 24.01C13 23.64 12.94 20.68 12.66 20.56C12.38 20.44 12.3901 23.16 12.1801 23.56C11.9701 23.98 11.2801 25.34 11.1101 24.96C10.9401 24.58 12.2801 22.47 12.2201 21.83C12.1347 20.8632 11.9229 19.9117 11.5901 19C11.3801 18.88 11.39 21.8 11.29 22.84C11.19 23.88 10.7001 25.16 10.4401 24.56C10.1801 23.96 10.8701 21.23 10.8501 20.56C10.7289 19.5408 10.4168 18.5536 9.93005 17.65C9.67005 17.49 10.2601 21.94 10.2001 22.48C10.1401 23.02 10.01 23.93 9.87 23.61C9.72999 23.29 9.87002 20.36 9.65002 19.4C9.43002 18.44 8.65004 16.16 8.29004 16.14C7.93004 16.12 8.90002 19.36 9.15002 20.59C9.40002 21.82 9.37008 22.49 9.21008 22.14C8.83998 21.3565 8.52579 20.5478 8.27002 19.7199C8.15002 19.1199 7.27005 15.81 7.05005 15.92C6.83005 16.03 7.05005 17.05 7.30005 17.92C7.55005 18.79 8.78007 22.3999 8.57007 22.5299C8.36007 22.6599 6.95002 18.94 6.65002 18.29C6.35002 17.64 5.22999 15.47 4.98999 15.77C4.74999 16.07 8.05003 22.14 7.91003 22.26C7.77003 22.38 5.76002 19 5.27002 18.34C4.78002 17.68 3.76999 16.1899 3.73999 16.7199C3.70999 17.2499 7.4701 22.79 7.6001 23.08C6.94501 22.4852 6.32708 21.8507 5.75 21.18C5.2 20.63 2.85002 17.9 2.65002 18.18C2.45002 18.46 3.32009 19.5 3.97009 20.43C4.62009 21.36 7.97011 24.31 8.11011 24.69C8.25011 25.07 4.8 22.81 3.63 21.81C2.46 20.81 1.63 20.18 1.63 20.38C2.11612 21.1588 2.70097 21.8713 3.37 22.5C4.23 23.28 7.76011 25.14 7.86011 25.36C7.96011 25.58 5.92011 24.87 4.86011 24.61C3.80011 24.35 0.550088 22.42 0.340088 22.7C0.130088 22.98 3.34004 24.82 4.04004 25.09C4.74004 25.36 8.36008 26.43 8.46008 26.65C8.56008 26.87 5.61003 26.27 4.53003 26.18C3.10872 25.8346 1.7068 25.414 0.330078 24.92C1.27794 25.7668 2.41719 26.3707 3.65002 26.68C5.37002 27.03 8.65002 27.12 8.65002 27.68C8.65002 28.24 6.65001 27.62 5.89001 27.57C4.19215 27.5215 2.49321 27.6118 0.810059 27.84C1.99378 28.1546 3.20693 28.3456 4.43005 28.4099C5.17005 28.4099 9.22007 28.27 9.32007 28.57C9.42007 28.87 7.82 28.82 6.5 28.92C5.18 29.02 1.50011 29.6899 1.61011 30.0299C1.72011 30.3699 10.0901 29.1 10.2201 29.39C10.3501 29.68 7.76001 30.13 6.76001 30.39C5.76001 30.65 2.08009 31.02 2.22009 31.33C2.36009 31.64 5.82007 31.4399 6.82007 31.2199C7.82007 30.9999 10.8201 30 10.8201 30.3C10.8201 30.6 8.48004 31.2 7.92004 31.4C7.36004 31.6 3.20001 33.05 3.26001 33.26C3.32001 33.47 5.97007 32.76 7.70007 32.09C9.00768 31.5923 10.3433 31.1716 11.7001 30.83C11.5801 30.9 4.14009 34.12 4.22009 34.31C4.30009 34.5 5.91 33.8099 7 33.5299C8.09 33.2499 13 30.69 12.88 31.06C12.76 31.43 9.88001 32.4799 9.01001 32.9699C8.14001 33.4599 4.80008 35.51 5.08008 35.54C5.36008 35.57 13.31 31.4799 13.42 31.6599C13.53 31.8399 11.2201 33.13 10.6101 33.48C10.0001 33.83 6.30005 35.59 6.55005 35.81C6.80005 36.03 13.9501 32.2299 13.9701 32.5299C13.9901 32.8299 8.37 35.47 8.5 35.68" fill="#8EDAA7"/>
        <path d="M69.71 16.81C67.71 17.01 68.11 21.89 68.53 24.31L73.4 30.62C76.79 31.62 81.06 30.62 79.89 27.74C78.43 24.14 76.06 28.46 76.04 25.6C76.02 22.74 81.42 27.74 80.85 23.23C80.47 20.23 77.71 23.84 77.44 21.51C77.17 19.18 81.64 23.05 81.92 18.78C82.09 16.16 80.02 19.09 79.22 18.06C78.61 17.26 84.04 15.14 82.22 12.47C80.4 9.79996 78.9 16.97 77.71 16.07C76.52 15.17 79.2299 13.84 77.6299 12.41C75.6899 10.67 75.7199 17.33 74.7499 17.99C73.7799 18.65 75.35 13.71 73.65 13.86C71.95 14.01 73.0399 19.75 71.8799 20.17C70.7199 20.59 72.17 16.56 69.73 16.81" fill="#2BA9B0"/>
        <path opacity="0.25" d="M0.919998 25.61C0.379998 31.51 2.46994 37.24 6.48994 42.25C7.14708 42.9749 7.64736 43.8277 7.9593 44.755C8.27125 45.6823 8.38813 46.6641 8.30269 47.6388C8.21724 48.6134 7.93126 49.5599 7.46272 50.4188C6.99418 51.2777 6.35327 52.0305 5.58003 52.63C2.52427 55.1295 0.550563 58.7115 0.0700228 62.63C-1.01998 73.39 11.16 83.39 27.07 84.81C32.9541 85.3905 38.893 84.6139 44.43 82.54C47.7252 81.3076 51.2763 80.9192 54.76 81.41H55.1001C76.9701 84.15 96.24 73.51 96.47 58.58C96.4319 53.7274 94.6583 49.0486 91.47 45.39C90.0751 43.8136 89.0125 41.972 88.3458 39.9754C87.6791 37.9788 87.4221 35.8683 87.59 33.77C87.5946 33.6867 87.5946 33.6033 87.59 33.52C89.07 17.34 70.86 2.45001 46.93 0.26001C23 -1.92999 2.4 9.42999 0.919998 25.61Z" fill="#9BCDCA"/>
        <path d="M75.3902 33.1H18.4902V74.31H75.3902V33.1Z" fill="#8EDAA7"/>
        <path d="M75.3898 28.88V34.4H18.4897V28.88C18.4897 27.7714 18.9302 26.7082 19.7141 25.9243C20.498 25.1404 21.5612 24.7 22.6698 24.7H71.2098C72.3184 24.7 73.3816 25.1404 74.1655 25.9243C74.9494 26.7082 75.3898 27.7714 75.3898 28.88Z" fill="#65BD83"/>
        <path d="M30.8099 22.85C30.8099 22.248 30.3219 21.76 29.7199 21.76C29.1179 21.76 28.6299 22.248 28.6299 22.85V26.67C28.6299 27.272 29.1179 27.76 29.7199 27.76C30.3219 27.76 30.8099 27.272 30.8099 26.67V22.85Z" fill="#9BCDCA"/>
        <path d="M38.4401 27.64C38.151 27.64 37.8738 27.5252 37.6694 27.3207C37.4649 27.1163 37.3501 26.8391 37.3501 26.55V22.74C37.3488 22.596 37.376 22.4532 37.4302 22.3198C37.4844 22.1864 37.5645 22.065 37.6658 21.9628C37.7672 21.8605 37.8878 21.7793 38.0207 21.7239C38.1536 21.6685 38.2961 21.64 38.4401 21.64C38.5841 21.64 38.7266 21.6685 38.8595 21.7239C38.9924 21.7793 39.1131 21.8605 39.2144 21.9628C39.3157 22.065 39.3958 22.1864 39.45 22.3198C39.5042 22.4532 39.5314 22.596 39.5301 22.74V26.55C39.5301 26.8391 39.4153 27.1163 39.2109 27.3207C39.0064 27.5252 38.7292 27.64 38.4401 27.64Z" fill="#9BCDCA"/>
        <path d="M47.1598 27.64C46.8707 27.64 46.5935 27.5252 46.3891 27.3207C46.1847 27.1163 46.0699 26.8391 46.0699 26.55V22.74C46.0685 22.596 46.0958 22.4532 46.1499 22.3198C46.2041 22.1864 46.2842 22.065 46.3855 21.9628C46.4869 21.8605 46.6075 21.7793 46.7404 21.7239C46.8733 21.6685 47.0158 21.64 47.1598 21.64C47.3038 21.64 47.4464 21.6685 47.5793 21.7239C47.7122 21.7793 47.8328 21.8605 47.9341 21.9628C48.0355 22.065 48.1155 22.1864 48.1697 22.3198C48.2239 22.4532 48.2511 22.596 48.2498 22.74V26.55C48.2498 26.8391 48.135 27.1163 47.9306 27.3207C47.7262 27.5252 47.4489 27.64 47.1598 27.64Z" fill="#9BCDCA"/>
        <path d="M56.97 22.74C56.97 22.138 56.482 21.65 55.88 21.65C55.278 21.65 54.79 22.138 54.79 22.74V26.56C54.79 27.162 55.278 27.65 55.88 27.65C56.482 27.65 56.97 27.162 56.97 26.56V22.74Z" fill="#9BCDCA"/>
        <path d="M65.6898 22.74C65.6898 22.138 65.2018 21.65 64.5998 21.65C63.9978 21.65 63.5098 22.138 63.5098 22.74V26.56C63.5098 27.162 63.9978 27.65 64.5998 27.65C65.2018 27.65 65.6898 27.162 65.6898 26.56V22.74Z" fill="#9BCDCA"/>
        <path d="M57.3 36.69H51.52V42.47H57.3V36.69Z" fill="#F2F9F8"/>
        <path d="M64.7102 36.69H58.9302V42.47H64.7102V36.69Z" fill="#F2F9F8"/>
        <path d="M72.1199 36.69H66.3398V42.47H72.1199V36.69Z" fill="#F2F9F8"/>
        <path d="M27.76 43.78H21.98V49.56H27.76V43.78Z" fill="#F2F9F8"/>
        <path d="M35.1701 43.78H29.3901V49.56H35.1701V43.78Z" fill="#F2F9F8"/>
        <path d="M42.5798 43.78H36.7998V49.56H42.5798V43.78Z" fill="#F2F9F8"/>
        <path d="M49.99 43.78H44.21V49.56H49.99V43.78Z" fill="#F2F9F8"/>
        <path d="M57.4099 43.78H51.6299V49.56H57.4099V43.78Z" fill="#F2F9F8"/>
        <path d="M64.82 43.78H59.04V49.56H64.82V43.78Z" fill="#F2F9F8"/>
        <path d="M72.2302 43.78H66.4502V49.56H72.2302V43.78Z" fill="#F2F9F8"/>
        <path d="M27.6501 50.86H21.8701V56.64H27.6501V50.86Z" fill="#F2F9F8"/>
        <path d="M35.0598 50.86H29.2798V56.64H35.0598V50.86Z" fill="#F2F9F8"/>
        <path d="M42.4699 50.86H36.6899V56.64H42.4699V50.86Z" fill="#F2F9F8"/>
        <path d="M49.8899 50.86H44.1099V56.64H49.8899V50.86Z" fill="#F2F9F8"/>
        <path d="M57.3 50.86H51.52V56.64H57.3V50.86Z" fill="#F2F9F8"/>
        <path d="M64.7102 50.86H58.9302V56.64H64.7102V50.86Z" fill="#F2F9F8"/>
        <path d="M72.1199 50.86H66.3398V56.64H72.1199V50.86Z" fill="#F2F9F8"/>
        <path d="M27.6501 57.95H21.8701V63.73H27.6501V57.95Z" fill="#F2F9F8"/>
        <path d="M35.0598 57.95H29.2798V63.73H35.0598V57.95Z" fill="#F2F9F8"/>
        <path d="M42.4699 57.95H36.6899V63.73H42.4699V57.95Z" fill="#F2F9F8"/>
        <path d="M49.8899 57.95H44.1099V63.73H49.8899V57.95Z" fill="#F2F9F8"/>
        <path d="M57.3 57.95H51.52V63.73H57.3V57.95Z" fill="#F2F9F8"/>
        <path d="M64.7102 57.95H58.9302V63.73H64.7102V57.95Z" fill="#F2F9F8"/>
        <path d="M72.1199 57.95H66.3398V63.73H72.1199V57.95Z" fill="#F2F9F8"/>
        <path d="M27.5398 65.36H21.7598V71.14H27.5398V65.36Z" fill="#F2F9F8"/>
        <path d="M34.9499 65.36H29.1699V71.14H34.9499V65.36Z" fill="#F2F9F8"/>
        <path d="M42.3601 65.36H36.5801V71.14H42.3601V65.36Z" fill="#F2F9F8"/>
        <path d="M49.78 65.36H44V71.14H49.78V65.36Z" fill="#F2F9F8"/>
        <path d="M57.1902 65.36H51.4102V71.14H57.1902V65.36Z" fill="#F2F9F8"/>
        <path d="M64.5998 65.36H58.8198V71.14H64.5998V65.36Z" fill="#F2F9F8"/>
        <path d="M38.1099 53.59L38.8699 55.22L40.7299 52.17" fill="#F2F9F8"/>
        <path d="M38.1099 53.59L38.8699 55.22L40.7299 52.17" stroke="#FCC78D" stroke-linecap="round" stroke-linejoin="round"/>
        <path d="M45.8501 53.59L46.6101 55.22L48.4701 52.17" fill="#F2F9F8"/>
        <path d="M45.8501 53.59L46.6101 55.22L48.4701 52.17" stroke="#FCC78D" stroke-linecap="round" stroke-linejoin="round"/>
        <path d="M60.5698 53.59L61.3298 55.22L63.1798 52.17" fill="#F2F9F8"/>
        <path d="M60.5698 53.59L61.3298 55.22L63.1798 52.17" stroke="#FCC78D" stroke-linecap="round" stroke-linejoin="round"/>
        <path d="M23.5 60.78L24.27 62.42L26.12 59.37" fill="#F2F9F8"/>
        <path d="M23.5 60.78L24.27 62.42L26.12 59.37" stroke="#FCC78D" stroke-linecap="round" stroke-linejoin="round"/>
        <path d="M45.6299 60.67L46.3999 62.31L48.2499 59.26" fill="#F2F9F8"/>
        <path d="M45.6299 60.67L46.3999 62.31L48.2499 59.26" stroke="#FCC78D" stroke-linecap="round" stroke-linejoin="round"/>
        <path d="M38.1099 67.65L38.8699 69.29L40.7299 66.23" fill="#F2F9F8"/>
        <path d="M38.1099 67.65L38.8699 69.29L40.7299 66.23" stroke="#FCC78D" stroke-linecap="round" stroke-linejoin="round"/>
</svg>
