<svg width="2560" height="89" viewBox="0 0 2560 89" fill="none" xmlns="http://www.w3.org/2000/svg">
    <path d="M972.5 41C1155.5 41 1202.5 -29.5 1440 39.8469C1503 56.0464 1574.5 60 1761 60C1947.5 60 2046.5 0 2238.5 0C2392.1 0 2519.83 34 2564.5 51V89H1440H0V33.7709C391 -3.5 475.5 44 601.5 33.7709C802.695 17.4371 866 41 972.5 41Z" fill="#F2F0E9"/>
    <path d="M0 60.5C98 60.5 304 42 394.5 42C485 42 656.5 60.5 795 60.5C933.5 60.5 1067 41 1140.5 41C1199.3 41 1363.67 47.3333 1440 60.5C1649.5 60.5 1646.5 30 1830 30C2013.5 30 2027 60.5 2254.5 60.5C2436.5 60.5 2536 40.1667 2563 30V88.5H1440H0V60.5Z" fill="#F8F7F4"/>
</svg>
