<svg width="251" height="219" viewBox="0 0 250 217" fill="none" xmlns="http://www.w3.org/2000/svg">
        <path d="M116.67 152.04H78.51V183.15H116.67V152.04Z" fill="#65BD83"/>
        <path d="M104.91 152.04H66.75V183.15H104.91V152.04Z" fill="#8EDAA7"/>
        <path d="M131.69 183.15H160.1V123.88H131.69V183.15Z" fill="#65BD83"/>
        <path d="M122.92 183.15H151.33V123.88H122.92V183.15Z" fill="#8EDAA7"/>
        <path d="M151.34 123.88L160.1 132.78V123.88H151.34Z" fill="#65BD83"/>
        <path d="M64.73 155.86C64.73 155.86 59.41 159.81 58.38 159.57C57.35 159.33 62.26 155.31 62.26 155.31C60.41 154.41 54.66 154.97 54.66 154.97C54.66 154.97 52.74 161.15 51.79 160.67C50.84 160.19 53.79 155.28 53.79 155.28C52.1673 155.365 50.5906 155.849 49.2 156.69C45.74 159.42 49.4299 163.69 49.4299 163.69C48.8025 165.256 47.808 166.649 46.53 167.75C45.5637 168.539 44.7688 169.517 44.1945 170.625C43.6201 171.732 43.2782 172.946 43.1899 174.19H43.76C43.76 174.19 44.66 170.34 46.29 168.53L46.5599 168.25C46.8199 168.01 47.01 167.82 47.14 167.68C47.839 166.908 48.6768 166.273 49.61 165.81C49.5956 165.721 49.5956 165.629 49.61 165.54V165.81C49.8 167.99 54.02 169.89 56.61 170.28C59.2 170.67 58.41 169.6 57.51 168.02C56.61 166.44 53.79 165.73 53.14 165.02C52.49 164.31 53.83 164.29 55.4 165.02C56.97 165.75 57.1699 167.64 59.6799 168.84C62.1899 170.04 65.97 165.84 65.97 165.84C63.97 165.74 61.11 163.57 61.22 162.9C61.33 162.23 66.07 164.05 66.88 164.14C67.69 164.23 69.5299 163.22 69.8199 159.95C70.1099 156.68 64.73 155.86 64.73 155.86Z" fill="#65BD83"/>
        <path d="M36.5102 158.31C36.5102 158.31 42.3802 155.03 39.6402 150.56C39.6402 150.56 37.4501 147.83 35.1001 147.12C35.1001 147.12 36.3501 153.77 35.1001 153.93C33.8501 154.09 34.2402 146.42 34.2402 146.42C34.2402 146.42 28.0502 143.42 25.6302 143.68C25.6302 143.68 29.4601 150.17 28.2101 150.02C26.9601 149.87 22.6502 143.29 22.6502 143.29C22.6502 143.29 16.3201 142.11 15.3001 145.87C14.2801 149.63 15.9201 151.5 16.8601 151.74C17.8001 151.98 23.8602 151.9 23.6702 152.68C23.4802 153.46 19.4501 154.68 17.1801 154.01C17.1801 154.01 19.6801 160.19 22.9701 159.88C26.2601 159.57 27.2701 157.53 29.3101 157.37C31.3501 157.21 32.8301 157.76 31.8101 158.31C30.7901 158.86 27.3501 158.49 25.7101 159.89C24.0701 161.29 22.7102 162.15 25.7902 162.77C28.8702 163.39 34.3202 163.01 35.4102 160.66L36.5102 158.31Z" fill="#8EDAA7"/>
        <path d="M38.0699 164.03C37.0998 162.276 36.5649 160.314 36.51 158.31C34.63 152.36 18.1899 147.04 18.1899 147.04C39.0899 155.5 35.41 160.66 35.41 160.66C36.2685 161.556 36.9474 162.608 37.41 163.76C37.5 163.96 37.63 164.24 37.83 164.63C37.91 164.8 37.97 164.94 38.01 165.04C39.09 167.73 38.52 172.38 38.52 172.38L39.17 172.56C39.5807 171.139 39.695 169.648 39.5057 168.181C39.3165 166.713 38.8278 165.301 38.0699 164.03Z" fill="#65BD83"/>
        <path d="M45.8399 153.76C45.8399 153.76 38.1099 149.43 41.7199 143.55C41.7199 143.55 44.6099 139.94 47.7199 139.01C47.7199 139.01 46.0699 147.78 47.7199 148.01C49.3699 148.24 48.8599 138.11 48.8599 138.11C48.8599 138.11 56.9999 134.19 60.1999 134.5C60.1999 134.5 55.1999 143.06 56.7999 142.85C58.3999 142.64 64.1199 133.98 64.1199 133.98C64.1199 133.98 72.4799 132.44 73.8199 137.39C75.1599 142.34 72.99 144.81 71.76 145.12C70.53 145.43 62.58 145.33 62.76 146.36C62.94 147.39 68.3299 149.04 71.3199 148.12C71.3199 148.12 68.0199 156.27 63.6899 155.85C59.3599 155.43 58.0199 152.76 55.3299 152.55C52.6399 152.34 50.69 153.07 52.03 153.79C53.37 154.51 57.91 154.03 60.03 155.87C62.15 157.71 63.9499 158.87 59.9299 159.67C55.9099 160.47 48.6799 159.98 47.2399 156.88L45.8399 153.76Z" fill="#8EDAA7"/>
        <path d="M69.98 138.92C69.98 138.92 48.32 145.92 45.84 153.78C45.771 156.419 45.0643 159.003 43.78 161.31C42.7855 162.988 42.1446 164.851 41.897 166.786C41.6493 168.721 41.8001 170.686 42.34 172.56L43.2 172.33C43.2 172.33 42.45 166.2 43.87 162.65C43.93 162.52 44.01 162.33 44.12 162.1C44.38 161.6 44.55 161.23 44.66 160.96C45.43 159.37 46.55 157.31 47.29 156.87C47.29 156.87 42.44 150.07 69.98 138.92Z" fill="#65BD83"/>
        <path d="M45.61 185.95C47.6009 185.946 49.5714 185.55 51.4092 184.785C53.247 184.019 54.916 182.899 56.321 181.489C57.7259 180.078 58.8394 178.405 59.5976 176.564C60.3558 174.723 60.744 172.751 60.74 170.76H30.43C30.4247 172.755 30.8138 174.732 31.5746 176.577C32.3355 178.422 33.4533 180.098 34.8638 181.509C36.2743 182.921 37.9497 184.04 39.7939 184.802C41.638 185.564 43.6146 185.954 45.61 185.95Z" fill="#E7A886"/>
        <path d="M49.31 185.83C48.6866 185.911 48.0586 185.951 47.43 185.95C45.4371 185.95 43.4638 185.557 41.6231 184.793C39.7824 184.029 38.1105 182.91 36.7032 181.499C35.2958 180.087 34.1808 178.413 33.4218 176.57C32.6628 174.727 32.2748 172.753 32.2801 170.76H36.0401C36.031 174.459 37.3755 178.033 39.8199 180.809C42.2643 183.585 45.6397 185.371 49.31 185.83Z" fill="#FFC596"/>
        <path d="M59.08 184.91H32.08C31.584 184.91 31.1084 185.107 30.7577 185.458C30.407 185.808 30.21 186.284 30.21 186.78H60.9399C60.9399 186.286 60.7444 185.812 60.3959 185.461C60.0473 185.111 59.5742 184.913 59.08 184.91Z" fill="#E7A886"/>
        <path d="M60.8499 170.76H30.16C30.1289 170.76 30.0981 170.766 30.0696 170.778C30.041 170.791 30.0151 170.808 29.9936 170.831C29.9721 170.853 29.9555 170.88 29.9446 170.909C29.9336 170.938 29.9286 170.969 29.9299 171C29.9299 171.061 29.9542 171.12 29.9973 171.163C30.0404 171.206 30.099 171.23 30.16 171.23H60.8499C60.9109 171.23 60.9694 171.206 61.0125 171.163C61.0557 171.12 61.0799 171.061 61.0799 171C61.0813 170.969 61.0764 170.938 61.0654 170.909C61.0544 170.88 61.0377 170.853 61.0162 170.831C60.9947 170.808 60.969 170.791 60.9404 170.778C60.9118 170.766 60.881 170.76 60.8499 170.76Z" fill="#D86713"/>
        <path d="M122.26 86.43C122.852 85.6938 123.483 84.9895 124.15 84.32C124.747 84.0398 125.385 83.8575 126.04 83.78C126.13 83.86 126.13 83.98 125.95 84.14C125.77 84.3 125.07 84.71 125.17 84.75C125.27 84.79 127.37 83.75 127.67 84.1C127.97 84.45 127.5 85.91 126.67 86.6C125.84 87.29 123.45 87.6 123.29 87.69C122.03 88.51 122.26 86.43 122.26 86.43Z" fill="#ED975D"/>
        <path d="M94.8401 82.07C94.8401 82.07 97.0801 84.7299 99.9301 83.6199C100.266 82.7964 100.475 81.9265 100.55 81.04C100.55 80.91 100.55 80.78 100.55 80.65C100.55 79.42 100.55 78.7299 100.55 78.7299C100.42 78.6799 96.1901 76.94 96.2001 77.09C96.3512 78.8587 95.8692 80.6236 94.8401 82.07Z" fill="#FFB27D"/>
        <path d="M96.6799 77.8799C97.5836 79.2537 98.967 80.2414 100.56 80.6499C100.56 79.4199 100.56 78.7299 100.56 78.7299C100.49 78.6999 96.6099 77.6599 96.6799 77.8799Z" fill="#ED975D"/>
        <path d="M101.5 78.5999C101.5 78.5999 96.7499 79.7199 96.0999 76.7499C95.4499 73.7799 94.39 71.9299 97.4 71.0899C100.41 70.2499 101.25 71.2499 101.7 72.1899C102.15 73.1299 102.72 78.2399 101.5 78.5999Z" fill="#FFB27D"/>
        <path d="M96.2602 77.5601C96.1902 77.5601 95.1702 77.9201 93.2602 74.0601C93.0466 73.5694 92.9533 73.0348 92.9881 72.5009C93.0228 71.9669 93.1847 71.4489 93.4601 70.99C94.1701 69.83 96.6802 68.9201 98.7702 68.5201C100.86 68.1201 101.36 69.3001 101.85 70.5201C102.327 71.4221 103.013 72.197 103.85 72.7801C102.05 73.7801 99.8502 72.3501 99.1302 72.5801C98.4102 72.8101 98.1301 74.0001 98.0501 74.3801C97.9701 74.7601 97.9101 75.08 96.9701 74.74C96.0301 74.4 96.5401 76.0801 96.6901 76.4001C96.6701 76.3601 96.8002 77.2101 96.2602 77.5601Z" fill="#A9453D"/>
        <path d="M84.0201 151.76H81.1401C80.5401 151.76 79.8701 151.15 79.7001 150.03C79.5301 148.91 78.2901 148.29 78.0201 147.38C77.7501 146.47 79.1301 145.17 79.1301 145.17L79.3601 144.87L79.6001 144.56L81.8801 145.1C81.8801 145.1 81.8801 145.65 81.9701 146.35C81.9701 146.86 81.9701 147.44 81.9701 147.95C81.9001 149.18 82.3101 150.49 83.3801 150.73C84.4501 150.97 84.0201 151.76 84.0201 151.76Z" fill="#2C3A64"/>
        <path d="M104.05 151.76H96.4202H96.2602C95.7502 151.49 95.9101 149.49 95.9701 148.87C95.9701 148.75 95.9701 148.69 95.9701 148.69C95.9701 148.69 98.6501 146.48 98.9701 148.17C98.9701 148.17 98.9701 148.27 98.9701 148.32C99.4401 149.91 101.52 150.63 102.72 150.83C103.014 150.813 103.305 150.896 103.547 151.064C103.788 151.233 103.965 151.478 104.05 151.76Z" fill="#2C3A64"/>
        <path d="M102.51 107.64C102.51 107.64 102.1 112.72 101.62 118.83C100.97 127.13 100.19 137.32 100.11 139.25C99.9801 142.61 99.4401 147.97 99.4401 147.97C98.909 148.39 98.285 148.676 97.6202 148.805C96.9555 148.934 96.2696 148.901 95.6201 148.71C94.169 143.556 93.1916 138.281 92.7001 132.95V132.55C92.1001 124.3 91.1602 106.94 91.1602 106.94L102.51 107.64Z" fill="#E7A886"/>
        <path d="M102.51 107.64C102.51 107.64 102.1 112.72 101.62 118.83L92.7001 132.95V132.55C92.1001 124.3 91.1602 106.94 91.1602 106.94L102.51 107.64Z" fill="#E7A886"/>
        <path d="M100.61 108.24C100.61 108.24 93.2701 126.65 88.4401 135.3C83.6101 143.95 82.1101 146.36 82.1101 146.36C82.1101 146.36 79.3401 145.25 79.1101 144.5C79.1101 144.5 80.9501 127.8 84.1901 123.73C86.0101 121.43 88.1901 114.53 88.2601 112.12C88.3301 109.71 88.9102 104.93 88.9102 104.93L100.61 108.24Z" fill="#E7A886"/>
        <path d="M83.84 105.18C83.778 106.069 83.6679 106.953 83.51 107.83C83.2026 108.369 82.8071 108.852 82.34 109.26C82.23 109.26 82.17 109.16 82.22 108.94C82.27 108.72 82.59 108.03 82.49 108.04C82.39 108.05 81.33 110.04 80.91 109.89C80.49 109.74 80.0699 108.4 80.3199 107.43C80.5699 106.46 82.3199 104.93 82.3199 104.77C82.8999 103.44 83.84 105.18 83.84 105.18Z" fill="#ED975D"/>
        <path d="M83.0499 105.76C83.8699 106.02 84.0499 105.96 84.0499 105.96C84.0499 105.96 88 98.7599 88.4 98.0999C88.8 97.4399 96.7999 90.0299 96.7999 90.0299L94.74 82.3699C94.74 82.3699 85.61 94.1399 84.61 95.8299C82.98 98.6299 82.03 105.11 82.03 105.11C82.3087 105.41 82.6598 105.634 83.0499 105.76Z" fill="#3FB9C0"/>
        <path d="M104.06 93.04C104.06 94.61 103.94 96.38 103.82 98.18V98.5C103.75 99.61 103.66 100.73 103.56 101.81L103.44 103.11C103.45 103.273 103.45 103.437 103.44 103.6C103.04 107.68 102.62 110.89 102.54 110.94C102.497 110.974 102.447 110.999 102.394 111.013C102.34 111.027 102.284 111.029 102.23 111.02C101.16 110.89 97.9701 111.13 95.3601 110.56C93.1951 110.068 91.1292 109.212 89.2501 108.03C88.9801 107.87 88.3801 107.46 88.4201 107.14C88.4601 106.82 88.56 106.3 88.68 105.68C89.3386 102.292 89.7762 98.8647 89.9901 95.42C89.9901 94.61 90.1 93.81 90.19 93.02C90.3883 91.078 90.7429 89.1551 91.2501 87.27C92.1501 84.05 93.4601 81.58 95.1101 80.62C95.3301 80.5 96.49 81.23 97.55 81.92C98.4417 82.4872 99.4986 82.7373 100.55 82.63L101.44 83.63C102.789 85.0954 103.67 86.9305 103.97 88.9C103.97 89.07 103.97 89.26 104.03 89.45C104.06 90.46 104.08 91.67 104.06 93.04Z" fill="#3FB9C0"/>
        <path d="M104.06 93.04C104.06 94.61 103.94 96.3799 103.82 98.1799V98.4999C97.7201 94.6799 96.8201 87.6799 96.8201 87.6799C99.3343 87.741 101.804 88.3592 104.05 89.4899C104.06 90.4599 104.08 91.67 104.06 93.04Z" fill="#1FA3AA"/>
        <path d="M123.19 86.6199C122.87 85.7699 122.38 85.8199 122.38 85.8199C122.38 85.8199 113.3 88.0799 112.49 88.1799C111.68 88.2799 102.72 84.6799 102.72 84.6799C102.72 84.6799 99.19 83.0999 97.54 84.5499C96.9571 85.0555 96.5355 85.7212 96.3275 86.4643C96.1195 87.2073 96.1342 87.9951 96.37 88.7299C96.5652 89.5124 96.9925 90.2176 97.5957 90.753C98.1989 91.2884 98.9498 91.6289 99.75 91.7299C103.4 92.1999 110.7 93.0799 112.23 92.8599C115.63 92.3899 123.34 87.9399 123.34 87.9399C123.389 87.4942 123.338 87.0432 123.19 86.6199Z" fill="#3FB9C0"/>
        <path d="M200.34 98.2399C200.34 98.2399 201.6 99.4099 201.34 100.24C201.08 101.07 199.95 101.62 199.8 102.64C199.65 103.66 199.03 104.21 198.48 104.21H195.84C195.84 104.21 195.43 103.49 196.41 103.28C197.39 103.07 197.77 101.87 197.71 100.76C197.68 99.8989 197.71 99.0368 197.8 98.1799L199.89 97.6899L200.34 98.2399Z" fill="#2C3A64"/>
        <path d="M184.61 104.07C184.22 104.165 183.821 104.212 183.42 104.21H177.42C177.42 104.03 177.58 103.4 178.56 103.21C179.54 103.02 181.56 102.39 181.99 100.98C181.994 100.934 181.994 100.887 181.99 100.84C182.33 99.3301 184.79 101.3 184.79 101.3C184.79 101.3 184.79 101.36 184.79 101.47C184.95 102.05 185.09 103.84 184.61 104.07Z" fill="#2C3A64"/>
        <path d="M178.89 63.7601C178.89 63.7601 179.26 68.4202 179.7 74.0302C180.3 81.6402 181.02 91.0301 181.09 92.7601C181.21 95.8401 181.7 100.76 181.7 100.76C182.188 101.147 182.761 101.41 183.372 101.529C183.983 101.647 184.613 101.617 185.21 101.44C186.54 96.7113 187.437 91.8714 187.89 86.9801V86.6101C188.44 79.0501 189.3 63.1201 189.3 63.1201L178.89 63.7601Z" fill="#034A89"/>
        <path d="M178.89 63.7599C178.89 63.7599 179.26 68.42 179.7 74.03L187.89 87.03V86.66C188.44 79.1 189.3 63.1699 189.3 63.1699L178.89 63.7599Z" fill="#034A89"/>
        <path d="M180.61 64.32C180.61 64.32 187.34 81.2 191.77 89.13C196.2 97.06 197.58 99.28 197.58 99.28C197.58 99.28 200.12 98.28 200.35 97.58C200.35 97.58 198.66 82.26 195.69 78.52C194.02 76.41 192.05 70.08 191.95 67.87C191.85 65.66 191.35 61.27 191.35 61.27L180.61 64.32Z" fill="#034A89"/>
        <path d="M159.82 55.16C159.117 54.9895 158.406 54.856 157.69 54.76C157.194 54.8619 156.72 55.0516 156.29 55.32C156.29 55.41 156.29 55.48 156.51 55.49C156.73 55.5 157.31 55.42 157.27 55.49C157.23 55.56 155.47 55.91 155.45 56.26C155.43 56.61 156.45 57.26 157.21 57.32C158.106 57.152 158.969 56.845 159.77 56.41C160.93 56.31 159.82 55.16 159.82 55.16Z" fill="#8E4B32"/>
        <path d="M159.04 55.6199C158.78 54.7899 158.84 54.6199 158.84 54.6199C158.84 54.6199 166.24 50.6199 166.92 50.2099C167.6 49.7999 175.25 41.6599 175.25 41.6599L183.09 43.8199C183.09 43.8199 170.96 53.0599 169.22 54.0599C166.35 55.6999 159.7 56.6299 159.7 56.6299C159.395 56.3567 159.168 56.0084 159.04 55.6199Z" fill="#65BD83"/>
        <path d="M177.61 37.7599C177.61 37.7599 174.86 42.5999 172.17 43.2299C172.25 42.2759 172.511 41.3459 172.94 40.4899C172.67 40.1799 172.44 39.8899 172.23 39.6299C171.873 39.1805 171.539 38.7132 171.23 38.2299L172.14 35.7799L172.76 34.1199C173.039 34.6197 173.375 35.086 173.76 35.5099C174.743 36.6845 176.104 37.4801 177.61 37.7599Z" fill="#8E4B32"/>
        <path d="M173.75 35.48C173.822 36.235 173.725 36.9967 173.465 37.7094C173.206 38.4221 172.791 39.0681 172.25 39.6C171.893 39.1507 171.559 38.6834 171.25 38.2L172.16 35.75C172.672 35.5759 173.209 35.4847 173.75 35.48Z" fill="#7D422C"/>
        <path d="M170.53 38.56C170.53 38.56 174.64 36.96 173.6 34.42C172.56 31.88 172.4 29.96 169.73 30.87C167.06 31.78 166.96 32.96 167.09 33.87C167.22 34.78 169.44 38.91 170.53 38.56Z" fill="#8E4B32"/>
        <path d="M191.74 62.55C190.09 64.93 177.74 68.1101 177.85 66.4601C177.944 65.3788 177.944 64.2914 177.85 63.2101C177.85 62.8601 177.77 62.4801 177.72 62.0901C177.267 59.2317 176.344 56.4678 174.99 53.9101L174.6 53.1801C173.92 51.9436 173.345 50.6524 172.88 49.3201C172.02 46.8401 171.68 44.47 172.11 42.92C174.69 41.72 175.7 37.0801 175.7 37.0801C175.7 37.0801 184.53 38.6601 189.48 50.4401C189.49 50.4201 193.18 60.47 191.74 62.55Z" fill="#8EDAA7"/>
        <path d="M177.85 63.21C177.85 62.86 177.77 62.48 177.72 62.09C177.267 59.2316 176.344 56.4677 174.99 53.91C175.134 52.5816 175.51 51.2888 176.1 50.09C177.86 47.45 178.89 47.03 178.89 47.03C178.89 47.03 181.53 58.17 177.85 63.21Z" fill="#65BD83"/>
        <path d="M163.92 60.5601C162.976 60.5991 162.035 60.6859 161.1 60.8201C160.518 61.1282 159.994 61.5342 159.55 62.0201C159.55 62.1401 159.65 62.2101 159.89 62.1601C160.13 62.1101 160.89 61.7901 160.89 61.9001C160.89 62.0101 158.78 63.0701 158.89 63.5201C159 63.9701 160.44 64.4601 161.48 64.2201C162.52 63.9801 164.19 62.2201 164.36 62.1601C165.74 61.6101 163.92 60.5601 163.92 60.5601Z" fill="#8E4B32"/>
        <path d="M163.46 61.49C162.97 60.7 163.33 60.33 163.33 60.33C163.33 60.33 170.87 54.43 171.47 53.83C172.07 53.23 174.8 43.73 174.8 43.73C174.8 43.73 175.74 39.88 177.95 39.45C178.741 39.3259 179.551 39.4268 180.288 39.741C181.024 40.0553 181.657 40.5703 182.115 41.2272C182.573 41.8842 182.837 42.6566 182.877 43.4564C182.916 44.2561 182.73 45.0509 182.34 45.75C180.41 49 176.53 55.44 175.34 56.55C172.82 59 164.34 62.42 164.34 62.42C163.983 62.1769 163.683 61.8597 163.46 61.49Z" fill="#8EDAA7"/>
        <path d="M174.19 29.7C174.19 29.64 174.3 29.58 174.51 29.52C174.372 29.4836 174.228 29.4836 174.09 29.52C174.029 29.3163 173.91 29.1352 173.746 28.9999C173.582 28.8645 173.382 28.781 173.17 28.76C173.263 28.7868 173.349 28.8352 173.42 28.9012C173.491 28.9672 173.546 29.049 173.58 29.14C172.86 28.68 171.58 28.55 168.2 29.66C163.8 31.12 166 33.66 166.66 33.87C167.32 34.08 168.56 32.77 169.66 32.59C170.76 32.41 171.36 33.94 171.78 34.07C172.2 34.2 171.96 33.85 172.4 33.5C172.84 33.15 173.09 33.97 173.08 34.5C173.07 35.03 173.93 35.63 173.93 35.63L174.43 34.7C174.94 33.78 174.8 30.43 174.32 29.83C174.28 29.76 174.23 29.76 174.19 29.7Z" fill="#2E0000"/>
        <path d="M217.37 104.48H178.46V183.15H217.37V104.48Z" fill="#65BD83"/>
        <path d="M205.37 104.48H166.46V183.15H205.37V104.48Z" fill="#8EDAA7"/>
        <path d="M217.37 104.48V112.12L205.37 104.48H217.37Z" fill="#65BD83"/>
        <path opacity="0.25" d="M0 74.1299C0 89.0699 6.6 102.98 18 114.62C25.77 122.62 25.8 132.89 18.1 140.89C10.8 148.46 6.53994 157.46 6.43994 167.13C6.15994 194.4 39.34 216.69 80.08 216.6C96.37 216.6 111.4 212.97 123.55 206.93C131.626 203.086 140.526 201.297 149.46 201.72H150.33C206.4 203.59 252.8 172.47 249.91 134.95C249.01 123.17 243.31 112.23 234.09 103.01C225.74 94.6399 221.45 84.78 221.57 74.72V74.09C221.57 33.15 171.98 -0.0400391 110.81 -0.0400391C49.6399 -0.0400391 0 33.1899 0 74.1299Z" fill="#9BCDCA"/>
</svg>
