<svg width="368" height="1539" viewBox="0 0 368 1539" fill="none" xmlns="http://www.w3.org/2000/svg">
    <path d="M117.629 289.033C116.251 284.88 24.6564 291.031 -15.5636 301.873C-27.2992 296.895 -52.2243 285.452 -58.0399 279.497C-65.3094 272.054 -111.17 283.974 -123.204 286.274C-135.238 288.574 -125.041 301.136 -123.349 300.812L-78.0342 292.152C-52.6506 287.3 -27.5906 325.622 -30.2418 336.223C-42.1526 342.566 -66.7962 357.679 -70.0849 367.392C-73.3735 377.106 -74.2921 389.227 -74.3403 394.073C-71.5258 392.484 -65.8213 386.64 -65.5194 375.984C-65.1421 362.662 -38.2448 352.474 -30.8131 348.53C-23.3813 344.586 -23.0147 349.563 -22.084 354.433C-21.1533 359.302 -40.1346 357.883 -48.4618 363.26C-56.7891 368.637 -63.4149 402.29 -62.0189 409.594C-60.6229 416.898 -52.4928 382.957 -46.3678 374.216C-40.2427 365.474 -21.1533 359.302 -17.5186 363.024C-13.8838 366.745 -33.9404 374.995 -44.9717 381.52C-56.003 388.045 -57.0761 404.864 -54.3016 416.321C-53.0653 421.426 -51.2308 418.524 -48.8121 412.866C-49.4511 421.38 -47.3226 430.623 -45.7348 433.61C-42.9956 438.765 -38.9998 412.765 -30.8065 403.628C-22.6132 394.491 1.26632 389.927 2.66235 397.231C4.05838 404.535 -17.6 402.366 -28.5961 415.193C-39.5922 428.02 -40.1999 447.274 -39.3856 451.534C-38.5712 455.795 -26.1354 431.126 -18.954 422.814C-11.7725 414.501 9.79777 400.915 11.6591 410.653C13.5205 420.392 -18.3723 425.857 -25.0496 436.807C-30.3915 445.567 -34.7387 461.231 -36.2445 467.968C-33.7375 467.489 -27.3837 463.751 -22.0249 452.633C-15.3264 438.734 3.3671 422.333 12.8401 419.891C22.3131 417.45 20.8712 422.142 22.521 427.715C24.1709 433.288 0.601786 439.475 -5.60308 440.661C-11.8079 441.847 -26.6718 483.384 -24.6129 488.037C-22.5541 492.691 -11.237 463.189 -6.8583 458.566C-2.4796 453.944 28.9938 434.049 29.8081 438.309C30.6225 442.57 9.68802 455.404 4.55723 460.17C-0.573573 464.936 -10.6839 515.028 -6.48511 518.642C-2.28628 522.255 7.73708 476.807 12.7128 471.229L12.7922 471.14C17.8634 465.455 34.3809 446.939 35.7696 454.204C37.1656 461.508 7.12705 488.911 5.72029 499.905C4.31353 510.899 2.63861 548.022 5.59295 551.243C8.54729 554.464 19.2664 505.518 24.8191 488.684C30.3719 471.85 43.2191 453.411 45.4295 464.976C47.6399 476.541 25.7744 518.154 23.7259 528.85C21.6774 539.547 24.306 578.791 28.0571 583.122C31.8082 587.452 38.7129 509.372 41.7132 500.597C44.7134 491.821 50.1676 477.53 51.331 483.617C52.4944 489.703 38.9101 537.935 39.3471 555.517C39.7841 573.099 44.5045 616.15 49.5987 618.331C54.6929 620.512 51.4607 560.773 51.9015 538.607C52.3424 516.441 55.5191 505.529 56.7988 512.224C58.0785 518.92 63.5851 547.73 63.3065 558.509C63.0279 569.287 64.6842 629.958 69.3132 629.705C73.9421 629.451 73.2726 610.652 72.5817 594.801C71.8909 578.95 64.8838 510.679 68.8324 509.924C72.7809 509.17 82.1722 579.719 84.6153 592.501C87.0583 605.283 97.6133 648.27 102.789 644.757C107.965 641.244 75.9256 519.504 78.6298 518.356C81.334 517.209 102.084 586.007 107.697 600.076C113.309 614.145 124.474 645.029 126.91 636.361C129.346 627.694 87.9687 512.155 86.8829 506.474C85.7971 500.793 103.241 536.996 110.313 549.524C117.385 562.053 145.991 621.989 150.155 619.301C154.319 616.612 143.986 593.14 136.762 573.701C129.539 554.262 85.6315 484.632 84.2355 477.328C82.8395 470.023 132.179 528.31 147.705 551.42C163.232 574.53 175.371 591.137 174.634 587.283C173.897 583.428 165.218 559.43 153.935 541.187C142.653 522.944 91.0856 470.34 90.2712 466.079C89.4569 461.819 120.613 486.147 137.274 496.843C153.935 507.538 200.342 559.656 204.953 556.251C209.565 552.846 162.489 502.328 152.692 493.896C142.895 485.464 86.277 445.182 85.4627 440.921C84.6483 436.66 131.108 464.583 148.62 472.592C166.133 480.602 213.603 520.95 213.254 519.124C212.905 517.298 192.061 485.74 164.979 469.466C137.896 453.191 83.7176 431.791 86.1538 423.124C88.59 414.456 119.281 436.35 131.394 441.606C143.507 446.861 217.016 471.507 216.318 467.855C215.62 464.203 170.771 441.65 158.658 436.395C146.544 431.139 78.9267 409.784 78.4437 404.198C77.9608 398.612 104.107 408.967 126.391 415.433C148.676 421.899 212.585 433.028 211.305 426.332C210.025 419.637 67.6382 390.49 66.5912 385.012C65.5442 379.534 109.935 387.453 127.671 388.48C145.408 389.506 207.466 406.246 206.303 400.159C205.139 394.073 147.218 376.542 129.813 374.191C112.407 371.839 59.7343 370.55 59.8929 365.262C60.0516 359.974 102.013 364.362 111.952 364.355C121.89 364.349 196.132 365.3 195.998 361.54C195.864 357.781 149.235 353.444 118.181 354.122C87.1276 354.799 44.3423 351.2 46.5986 350.769C48.8549 350.338 183.991 341.543 183.293 337.891C182.595 334.239 153.505 336.014 134.407 333.986C115.309 331.958 24.9227 345.448 27.9406 339.824C30.9585 334.2 82.1545 333.878 99.1932 331.253C116.232 328.627 178.191 314.261 173.661 311.972C169.131 309.684 22.5784 330.124 21.2775 326.376C19.9767 322.629 63.19 315.211 74.6596 313.019C86.1292 310.827 153.776 303.786 150.434 298.536C147.092 293.286 14.7696 313.74 15.5311 308.548C16.2927 303.355 119.008 293.186 117.629 289.033Z" fill="#65BD83"/>
    <path d="M-89.8335 288.188C-94.2457 286.435 -81.0669 180.086 -66.4387 133.679C-71.0113 119.846 -81.6699 90.4355 -87.7239 83.4556C-95.2913 74.7305 -79.0921 21.7992 -75.7403 7.88059C-72.3886 -6.03804 -59.4701 6.27644 -59.9414 8.23373L-72.5627 60.6461C-79.6327 90.0058 -39.7935 120.538 -28.0925 117.833C-20.3596 104.202 -2.19819 76.0718 8.58406 72.5939C19.3663 69.116 32.5945 68.4819 37.8608 68.5996C35.935 71.8173 29.1846 78.2449 17.5898 78.2139C3.09641 78.1751 -9.87646 109.104 -14.687 117.61C-19.4976 126.115 -14.1185 126.72 -8.89644 127.978C-3.6744 129.235 -3.86886 107.1 2.56145 97.604C8.99177 88.1081 46.0087 81.606 53.8418 83.4923C61.6748 85.3786 24.2389 93.6205 14.311 100.433C4.38316 107.246 -3.6744 129.235 0.109335 133.598C3.89306 137.96 14.2755 114.92 22.1441 102.32C30.0127 89.7188 48.3541 89.0735 60.5994 92.7125C66.056 94.3341 62.7747 96.3645 56.4582 98.9757C65.7494 98.5376 75.6361 101.346 78.768 103.3C84.1715 106.672 55.6522 110.389 45.1483 119.594C34.6443 128.799 27.9932 156.419 35.8263 158.305C43.6593 160.191 42.8402 134.914 57.5506 122.58C72.261 110.247 93.2134 110.23 97.7827 111.33C102.352 112.431 74.6793 126.015 65.1424 134.072C55.6054 142.13 39.3201 166.739 49.7642 169.254C60.2083 171.769 68.4061 134.858 80.7717 127.482C90.6642 121.581 107.984 117.085 115.407 115.574C114.709 118.474 110.198 125.733 97.7434 131.569C82.1745 138.864 63.0363 160.025 59.7126 170.96C56.389 181.894 61.5867 180.384 67.522 182.504C73.4573 184.624 81.849 157.423 83.5772 150.246C85.3054 143.069 131.468 127.265 136.376 129.828C141.284 132.39 108.442 144.499 103.111 149.428C97.7807 154.357 73.941 190.262 78.5103 191.363C83.0796 192.463 98.5026 168.566 104.043 162.767C109.583 156.969 164.699 147.002 168.326 152.017C171.952 157.032 121.885 167.064 115.474 172.653L115.372 172.742C108.838 178.439 87.5573 196.992 95.3492 198.869C103.182 200.755 135.073 166.788 147.112 165.546C159.152 164.303 199.586 163.686 202.874 167.239C206.162 170.792 152.246 181.508 133.571 187.365C114.895 193.222 93.9594 207.508 106.362 210.494C118.764 213.481 165.507 189.533 177.268 187.533C189.03 185.534 231.463 190 235.899 194.519C240.336 199.039 155.052 204.272 145.309 207.448C135.566 210.624 119.659 216.457 126.186 218.029C132.714 219.601 186.057 205.526 205.12 206.665C224.183 207.804 270.601 214.841 272.607 220.846C274.614 226.851 209.968 220.948 185.865 220.666C161.761 220.383 149.685 223.688 156.866 225.417C164.046 227.146 194.943 234.587 206.668 234.649C218.394 234.711 284.164 238.815 283.56 244.191C282.956 249.568 262.588 248.115 245.423 246.742C228.258 245.37 154.614 234.769 153.514 239.336C152.414 243.903 228.363 257.36 242.071 260.661C255.779 263.962 301.714 277.784 297.532 283.68C293.349 289.576 163.415 247.932 161.976 251.037C160.538 254.143 233.78 280.753 248.66 287.788C263.541 294.822 296.288 308.92 286.702 311.444C277.117 313.968 154.579 261.681 148.487 260.214C142.394 258.747 180.472 280.341 193.576 289.019C206.68 297.696 269.74 333.129 266.525 337.877C263.31 342.625 238.553 329.761 217.955 320.659C197.356 311.557 124.855 257.974 117.021 256.088C109.188 254.202 168.986 313.699 192.982 332.592C216.977 351.486 234.151 366.206 230.017 365.21C225.882 364.215 200.437 353.255 181.426 339.474C162.415 325.692 108.947 263.807 104.378 262.707C99.8086 261.607 124.018 298.729 134.451 318.498C144.884 338.267 198.19 394.131 194.165 399.374C190.14 404.616 138.619 348.033 130.157 336.331C121.695 324.63 81.9666 257.31 77.3973 256.21C72.8281 255.11 99.8552 310.167 107.31 330.83C114.766 351.492 155.215 408.171 153.256 407.7C151.298 407.228 118.506 381.845 102.754 349.75C87.0021 317.656 67.606 253.852 58.0204 256.376C48.4348 258.899 70.0336 295.393 74.8816 309.675C79.7296 323.958 101.278 410.369 97.3618 409.426C93.4453 408.483 72.1358 355.492 67.2879 341.21C62.4399 326.927 44.0463 247.489 38.0144 246.726C31.9825 245.964 41.3723 276.756 46.8131 302.916C52.2539 329.076 59.8044 403.833 52.6241 402.104C45.4438 400.375 23.8951 233.662 18.0203 232.248C12.1455 230.833 17.5956 282.765 17.4516 303.439C17.3076 324.112 31.0832 396.917 24.5556 395.345C18.0281 393.773 3.10028 325.753 1.78172 305.417C0.463152 285.082 2.80123 223.751 -2.95262 223.746C-8.70647 223.741 -6.91913 272.72 -7.63177 284.283C-8.34439 295.846 -12.5791 382.261 -16.6527 381.97C-20.7264 381.68 -22.1272 327.271 -19.1875 291.165C-16.2479 255.058 -17.1206 205.148 -17.7491 207.758C-18.3775 210.368 -37.5172 367.282 -41.4337 366.339C-45.3503 365.396 -41.3589 331.613 -42.2061 309.321C-43.0533 287.028 -21.9891 182.348 -28.3109 185.657C-34.6328 188.967 -38.6149 248.521 -42.6755 268.252C-46.736 287.982 -66.7341 359.556 -68.8981 354.203C-71.0621 348.85 -38.4651 179.07 -42.4421 177.422C-46.4191 175.774 -57.5416 225.787 -60.7362 239.053C-63.9308 252.319 -76.3776 330.774 -81.8416 326.697C-87.3055 322.62 -55.7029 169.397 -61.3963 170.097C-67.0897 170.797 -85.4213 289.941 -89.8335 288.188Z" fill="#A7DBB9"/>
    <path d="M166.089 1162.39C135.611 1164.66 141.026 1219.89 147.543 1247.22L223.633 1318.75C276.692 1329.98 343.419 1318.78 325.144 1286.14C302.301 1245.34 265.211 1294.22 265.041 1261.85C264.87 1229.48 349.114 1286.12 340.167 1235.04C334.224 1201.11 290.989 1241.96 286.852 1215.52C282.715 1189.09 352.556 1233 356.875 1184.72C359.533 1155.01 327.096 1188.13 314.699 1176.48C305.093 1167.45 390.049 1143.43 361.305 1113.19C332.562 1082.95 309.339 1164.19 290.761 1153.97C272.183 1143.75 314.47 1128.75 289.479 1112.51C259.172 1092.81 259.657 1168.22 244.532 1175.74C229.407 1183.26 253.827 1127.3 227.314 1128.95C200.801 1130.6 217.754 1195.66 199.637 1200.37C181.52 1205.08 204.187 1159.55 166.089 1162.39Z" fill="#2BA9B0"/>
    <path d="M196.065 1247.2C179.846 1267.12 98.7885 1306.95 91.7123 1313.73C84.6362 1320.51 78.0597 1393.68 70.7399 1399.57C63.4201 1405.45 54.1077 1404.18 52.3725 1397.91C50.6372 1391.64 69.5841 1316.97 67.8488 1310.7C66.1136 1304.43 48.4705 1282.33 38.4532 1260.04C28.436 1237.75 26.3257 1197.84 26.3257 1197.84L44.4449 1198.6L23.0988 1186.2C18.6276 1147.77 20.4845 1126.72 29.6573 1089.89L58.6801 1106.92L46.7656 1063.94C56.6545 1026.7 64.2884 1012.71 79.8295 994.032L105.342 1016.85L92.1863 969.395C102.385 947.486 108.848 938.59 121.013 925.73L150.391 953.259L136.987 904.911C148.068 894.126 172.466 872.321 181.416 871.382C190.366 870.444 197.697 885.509 200.245 893.158L186.86 932.543L213.967 905.744C227.404 920.296 233.208 928.261 239.391 942.083L180.283 1005.71L244.356 959.989C250.069 983.759 252.362 997.245 246.484 1023.03L188.617 1091.14L254.675 1052.58C255.893 1074.03 253.716 1086.12 246.946 1107.75L147.788 1169.95L243.702 1137.57C249.458 1151.42 240.044 1176.42 229.679 1183.88L159.702 1212.93L210.691 1212.29C210.691 1212.29 212.285 1227.27 196.065 1247.2Z" fill="#65BD83"/>
    <path d="M-25.9361 1083.55C-11.4443 1102.97 8.59432 1117.48 14.712 1126.52C21.1688 1115.46 29.2024 1102.35 37.3486 1089.19C37.6451 1089.39 38.0367 1089.29 38.4837 1088.95C40.7932 1090 43.2719 1093.59 49.9774 1092.64C58.1071 1091.49 69.9675 1092.29 77.8864 1099.43C85.8053 1106.56 94.6185 1108.62 102.76 1114.07L88.0396 1093.04C83.3615 1087.64 71.452 1076.39 61.2387 1074.53C54.8177 1073.37 48.2799 1076.24 43.4352 1080.43C43.6819 1079.73 43.8897 1079.04 44.0453 1078.4C59.1566 1054.07 73.2616 1031.48 76.8452 1023.62C79.1081 1018.65 82.698 1012.61 86.6846 1006.5C90.5658 1005.65 94.6771 1008.28 97.6002 1009.12C103.363 1010.79 110.596 1013.07 117.494 1017.87C120.2 1019.76 127.334 1025.56 129.935 1027.67C128.269 1022.4 123.806 1010.7 119.279 1006.06C113.622 1000.25 111.361 998.923 106.275 997.165C102.573 995.886 97.8671 995.532 92.7593 997.549C97.7801 990.398 102.71 983.903 105.905 979.88C107.409 979.117 110.644 977.228 111.544 975.78C112.671 973.97 118.882 973.917 125.314 970.531C130.459 967.823 133.833 955.842 134.877 950.19C133.525 952.033 129.941 956.337 126.422 958.816C122.023 961.915 117.729 960.87 112.09 964.97C107.578 968.25 106.086 976.276 105.905 979.88C102.71 983.903 97.7801 990.398 92.7593 997.549C92.1621 997.784 91.5593 998.053 90.9521 998.355C91.3894 997.167 91.7002 996.034 91.8066 995.082C92.3694 990.049 92.1264 980.176 80.4761 971.09C73.7133 965.815 67.2105 963.608 60.6966 963.152C64.5066 967.292 72.2317 971.429 77.2209 982.283C79.8421 987.985 83.3454 998.755 84.4895 1006.85C84.6396 1007.91 85.3684 1007.63 86.3133 1006.59C86.4368 1006.56 86.5606 1006.53 86.6846 1006.5C82.698 1012.61 79.1081 1018.65 76.8452 1023.62C73.2616 1031.48 59.1566 1054.07 44.0453 1078.4C44.1707 1077.88 44.2623 1077.38 44.3132 1076.93C44.876 1071.89 45.4139 1060.26 34.6617 1047.74C26.0599 1037.73 7.26681 1033.18 0.752879 1032.72C4.56289 1036.86 10.596 1043.71 18.0664 1052.57C21.9561 1057.17 29.3935 1069.13 36.9961 1088.69C37.0895 1088.93 37.2084 1089.1 37.3486 1089.19C29.2024 1102.35 21.1688 1115.46 14.712 1126.52C16.9964 1119.87 13.5269 1102.58 4.47463 1093.29C-4.5776 1084 -17.9208 1081.59 -25.9361 1083.55Z" fill="#FFC596"/>
    <path d="M45.0827 1014.07C48.9724 1018.68 52.6855 1033.64 59.604 1048.35C61.0232 1051.36 66.3583 1041.61 66.9211 1036.58C67.4839 1031.54 66.208 1016.86 57.3812 1008.2C51.1339 1002.08 33.9676 997.203 27.4537 996.748C31.2637 1000.89 37.6123 1005.22 45.0827 1014.07Z" fill="#FFC596"/>
    <path d="M78.4469 1034.95C69.9589 1037.47 64.0886 1047.44 62.2144 1052.1C64.5461 1052.33 70.0239 1052.65 73.2819 1052.19C77.3545 1051.62 92.3757 1055.27 96.7838 1057.13C100.501 1058.69 111.518 1065.23 118.719 1070.54C114.718 1065.05 105.992 1052.85 103.092 1047.98C99.4668 1041.89 89.057 1031.8 78.4469 1034.95Z" fill="#FFC596"/>
    <path d="M44.8443 1119.78C35.2677 1114.53 23.6124 1122.78 18.9818 1127.57L8.60199 1137.24C10.2591 1137.56 12.9995 1144.1 16.4273 1143.62C24.5685 1142.46 38.406 1129.84 49.6097 1138.92C57.4142 1145.25 71.8847 1148.16 81.0295 1151C72.958 1142.78 54.421 1125.03 44.8443 1119.78Z" fill="#FFC596"/>
    <path d="M36.9961 1088.69C29.3935 1069.13 21.9561 1057.17 18.0664 1052.57C10.596 1043.71 4.56289 1036.86 0.752879 1032.72C7.26681 1033.18 26.0599 1037.73 34.6617 1047.74C45.4139 1060.26 44.876 1071.89 44.3132 1076.93C43.7504 1081.96 38.2125 1091.82 36.9961 1088.69ZM36.9961 1088.69C40.5163 1081.04 51.0254 1072.68 61.2387 1074.53C71.452 1076.39 83.3615 1087.64 88.0396 1093.04L102.76 1114.07C94.6185 1108.62 85.8053 1106.56 77.8864 1099.43C69.9675 1092.29 58.1071 1091.49 49.9774 1092.64C41.8476 1093.79 39.9309 1088.28 36.9961 1088.69ZM105.905 979.88C106.086 976.276 107.578 968.25 112.09 964.97C117.729 960.87 122.023 961.915 126.422 958.816C129.941 956.337 133.525 952.033 134.877 950.19C133.833 955.842 130.459 967.823 125.314 970.531C118.882 973.917 112.671 973.97 111.544 975.78C110.644 977.228 107.409 979.117 105.905 979.88ZM105.905 979.88C98.7664 988.87 82.9606 1010.2 76.8452 1023.62C69.2008 1040.38 13.6814 1124.19 2.64386 1148.87M14.712 1126.52C8.59432 1117.48 -11.4443 1102.97 -25.9361 1083.55C-17.9208 1081.59 -4.57761 1084 4.47462 1093.29C13.5269 1102.58 16.9964 1119.87 14.712 1126.52ZM59.604 1048.35C52.6855 1033.64 48.9724 1018.68 45.0827 1014.07C37.6123 1005.22 31.2637 1000.89 27.4537 996.748C33.9676 997.203 51.1339 1002.08 57.3812 1008.2C66.208 1016.86 67.4839 1031.54 66.9211 1036.58C66.3583 1041.61 61.0232 1051.36 59.604 1048.35ZM84.4895 1006.85C83.3454 998.755 79.8421 987.985 77.2209 982.283C72.2317 971.429 64.5066 967.292 60.6966 963.152C67.2105 963.608 73.7133 965.815 80.4761 971.09C92.1264 980.176 92.3694 990.049 91.8066 995.082C91.2438 1000.12 84.9648 1010.21 84.4895 1006.85ZM86.3133 1006.59C90.3019 1005.48 94.5837 1008.25 97.6002 1009.12C103.363 1010.79 110.596 1013.07 117.494 1017.87C120.2 1019.76 127.334 1025.56 129.935 1027.67C128.269 1022.4 123.806 1010.7 119.279 1006.06C113.622 1000.25 111.361 998.923 106.275 997.165C101.601 995.549 95.3245 995.411 88.6606 999.655C85.3709 1001.75 82.6873 1002.98 86.3133 1006.59ZM62.2145 1052.1C64.0886 1047.44 69.9589 1037.47 78.4469 1034.95C89.057 1031.8 99.4668 1041.89 103.092 1047.98C105.992 1052.85 114.718 1065.05 118.719 1070.54C111.518 1065.23 100.501 1058.69 96.7838 1057.13C92.3757 1055.27 77.3545 1051.62 73.2819 1052.19C70.0239 1052.65 64.5461 1052.33 62.2145 1052.1ZM18.9818 1127.57C23.6124 1122.78 35.2677 1114.53 44.8443 1119.78C54.421 1125.03 72.958 1142.78 81.0295 1151C71.8847 1148.16 57.4142 1145.25 49.6097 1138.92C38.406 1129.84 24.5685 1142.46 16.4273 1143.62C12.9995 1144.1 10.259 1137.56 8.60199 1137.24L18.9818 1127.57Z" stroke="#FFC596" stroke-width="2"/>
    <path d="M-49.6446 953.007C-53.2382 955.503 -122.843 895.648 -148.524 862.851C-160.9 859.795 -187.708 854.004 -195.933 855.28C-206.214 856.877 -235.762 819.834 -244.012 810.776C-252.262 801.718 -236.569 797.782 -235.409 799.056L-204.343 833.163C-186.941 852.269 -143.904 836.634 -139.668 826.56C-145.395 814.342 -156.05 787.469 -152.856 777.724C-149.662 767.978 -143.128 757.729 -140.26 753.822C-138.961 756.782 -137.901 764.879 -144.051 773.587C-151.738 784.473 -136.325 808.757 -132.744 816.37C-129.163 823.983 -125.884 820.221 -122.219 816.882C-118.554 813.544 -134.594 803.296 -138.032 793.999C-141.471 784.702 -126.59 753.799 -121.092 748.792C-115.594 743.785 -129.444 775.82 -129.786 786.488C-130.127 797.156 -118.554 813.544 -113.413 812.746C-108.273 811.948 -119.374 793.318 -124.288 781.481C-129.202 769.643 -119.974 755.542 -110.882 748.038C-106.831 744.694 -107.103 748.116 -108.562 754.094C-103.967 746.899 -96.7202 740.779 -93.6578 739.34C-88.3744 736.859 -100.77 760.06 -99.694 772.285C-98.6176 784.51 -82.2467 802.484 -76.7491 797.477C-71.2514 792.469 -89.8834 781.216 -90.9894 764.357C-92.0953 747.498 -81.0343 731.727 -77.8274 728.806C-74.6204 725.885 -79.4645 753.083 -78.7033 764.042C-77.9422 775 -68.8302 798.809 -61.5 792.132C-54.1698 785.456 -76.4126 761.955 -75.1885 749.188C-74.2092 738.975 -68.2932 723.833 -65.4576 717.539C-63.7389 719.426 -60.8966 726.228 -63.2769 738.339C-66.2523 753.478 -61.1306 777.813 -55.0146 785.448C-48.8987 793.083 -47.2386 788.464 -42.5759 784.994C-37.9132 781.524 -53.0623 762.438 -57.3161 757.767C-61.5699 753.097 -48.5524 710.945 -44.1139 708.456C-39.6754 705.967 -48.3134 736.362 -47.5819 742.687C-46.8503 749.012 -33.5978 783.808 -30.3908 780.887C-27.1839 777.966 -36.2384 755.141 -37.4855 748.25C-38.7327 741.359 -16.7807 695.213 -11.2535 694.839C-5.72623 694.466 -24.9631 736.844 -24.3267 744.292L-24.3166 744.411C-23.6682 752.001 -21.5563 776.724 -16.0875 771.743C-10.5899 766.736 -18.192 726.793 -12.7239 717.152C-7.2558 707.511 13.6683 676.801 17.964 675.995C22.2597 675.19 1.48174 720.785 -4.17107 737.586C-9.82388 754.386 -10.6021 776.846 -1.89742 768.917C6.80723 760.989 14.2679 714.577 19.0437 704.789C23.8196 695.001 49.4599 665.175 55.0585 663.959C60.6572 662.744 19.3542 729.364 16.492 738.185C13.6299 747.006 9.42304 761.714 14.0044 757.541C18.5858 753.368 36.6427 706.626 47.5371 692.819C58.4314 679.012 88.0283 647.395 93.4125 648.705C98.7968 650.015 60.3823 695.879 47.4411 713.88C34.4999 731.882 30.4974 742.519 35.537 737.928C40.5765 733.338 62.2617 713.587 68.5033 704.795C74.7448 696.003 112.457 648.448 116.009 651.427C119.561 654.406 107.751 669.048 97.6912 681.317C87.6318 693.587 41.0797 744.014 43.7867 746.986C46.4937 749.958 96.32 699.138 105.941 690.375C115.562 681.612 149.789 653.544 151.824 659.459C153.859 665.374 55.2082 743.574 56.6837 746.115C58.1592 748.655 116.025 706.048 128.954 698.156C141.883 690.264 169.339 672.247 166.09 680.644C162.841 689.041 60.4374 756.678 56.1615 760.572C51.8855 764.467 87.5563 745.96 100.729 740.176C113.902 734.393 172.739 703.589 174.458 708.237C176.178 712.885 153.832 725.47 136.393 736.693C118.955 747.916 42.0601 777.3 36.5625 782.307C31.0648 787.315 105.503 770.266 131.787 761.085C158.071 751.904 177.745 745.896 174.844 748.539C171.942 751.181 150.604 765.179 130.635 773.01C110.666 780.841 37.8532 792.007 34.6462 794.928C31.4392 797.849 70.9608 797.067 90.7076 798.501C110.454 799.935 178.846 786.063 180.494 791.554C182.142 797.044 114.175 809.235 101.278 810.106C88.3808 810.978 18.9168 809.255 15.7098 812.176C12.5028 815.097 66.4262 820.617 85.2428 824.711C104.059 828.805 166.243 824.989 164.869 826.241C163.495 827.493 127.889 840.244 96.4574 837.024C65.0256 833.804 8.83769 818.435 5.58887 826.832C2.34003 835.228 40.0291 836.115 52.8742 839.175C65.7193 842.234 139.322 866.6 136.573 869.103C133.824 871.607 84.4104 862.755 71.5652 859.696C58.7201 856.636 -8.19473 833.172 -11.9313 837.352C-15.6678 841.532 11.4643 848.927 33.1742 857.118C54.8842 865.309 112.698 894.733 107.658 899.323C102.619 903.913 -28.7987 841.84 -32.922 845.595C-37.0452 849.351 3.22529 869.637 18.0335 879.453C32.8417 889.269 92.5397 913.093 87.9583 917.266C83.3769 921.439 26.5149 900.729 11.177 892.171C-4.16084 883.614 -47.0824 853.055 -50.1268 857.382C-53.1712 861.708 -16.9625 883.363 -9.01399 889.329C-1.06549 895.295 58.9133 939.06 56.5512 941.988C54.1891 944.917 14.2758 920.421 -10.1666 901.255C-34.609 882.088 -71.0041 859.308 -69.4573 861.006C-67.9104 862.704 34.9497 950.788 32.2008 953.292C29.452 955.796 7.23872 936.929 -9.25928 927.098C-25.7573 917.267 -89.9931 852.264 -90.9513 858.574C-91.9094 864.884 -51.1357 895.846 -39.0762 908.166C-27.0168 920.486 13.9467 969.141 8.94901 968.256C3.95133 967.37 -101.06 863.12 -104.348 865.338C-107.636 867.557 -77.5066 899.41 -69.6434 908.043C-61.7803 916.676 -11.8725 962.881 -17.6953 965.077C-23.5181 967.274 -117.134 871.547 -119.639 876.159C-122.144 880.771 -46.0509 950.51 -49.6446 953.007Z" fill="#249DA5"/>
    <path d="M-90.9833 1318.07C-93.5003 1322.09 -19.8936 1399.97 19.3785 1428.7C23.887 1442.56 32.7182 1472.57 31.9743 1481.78C31.0446 1493.29 75.4468 1526.34 86.3911 1535.57C97.3353 1544.8 100.451 1527.23 98.9117 1525.93L57.6997 1491.18C34.6142 1471.71 48.6309 1423.51 59.6605 1418.76C73.9643 1425.16 105.259 1437.07 116.006 1433.49C126.754 1429.9 137.788 1422.58 141.961 1419.37C138.504 1417.91 129.258 1416.73 119.934 1423.62C108.279 1432.24 79.5076 1415 70.594 1411C61.6805 1407 65.6563 1403.32 69.1191 1399.22C72.5819 1395.11 85.5355 1413.06 96.3407 1416.9C107.146 1420.75 140.823 1404.06 146.017 1397.9C151.211 1391.74 116.166 1407.27 104.132 1407.66C92.0977 1408.05 72.5819 1395.11 73.0467 1389.35C73.5116 1383.6 95.523 1396.01 109.326 1401.5C123.129 1407 138.29 1396.65 146.001 1386.47C149.437 1381.93 145.591 1382.24 138.955 1383.88C146.701 1378.73 153.003 1370.61 154.369 1367.18C156.726 1361.26 131.546 1375.16 117.63 1373.96C103.715 1372.77 81.9974 1354.45 87.1916 1348.29C92.3858 1342.13 106.697 1362.98 125.855 1364.21C145.012 1365.43 161.904 1353.04 164.934 1349.45C167.964 1345.85 137.622 1351.3 125.165 1350.45C112.709 1349.61 85.0114 1339.43 91.937 1331.21C98.8626 1323 127.329 1347.89 141.662 1346.51C153.127 1345.4 169.745 1338.77 176.621 1335.59C174.341 1333.66 166.408 1330.49 152.916 1333.16C136.051 1336.51 108.097 1330.79 98.9427 1323.95C89.7887 1317.11 94.8707 1315.24 98.3976 1310.02C101.925 1304.8 124.796 1321.74 130.439 1326.5C136.083 1331.26 182.638 1316.66 185.075 1311.68C187.512 1306.71 153.877 1316.41 146.663 1315.59C139.449 1314.78 98.9747 1299.97 102.005 1296.38C105.035 1292.78 131.615 1302.9 139.513 1304.29C147.411 1305.68 197.724 1281.07 197.676 1274.88C197.627 1268.69 151.344 1290.26 142.869 1289.56L142.734 1289.55C134.095 1288.83 105.96 1286.48 111.127 1280.35C116.321 1274.19 162.134 1282.68 172.57 1276.55C183.007 1270.42 215.951 1246.97 216.496 1242.16C217.041 1237.35 167.253 1260.64 148.736 1266.99C130.22 1273.33 104.89 1274.22 113.114 1264.46C121.338 1254.71 173.184 1246.32 183.845 1240.97C194.507 1235.61 226.051 1206.88 226.949 1200.61C227.846 1194.35 156.031 1240.64 146.3 1243.85C136.568 1247.06 120.296 1251.78 124.625 1246.65C128.953 1241.52 180.27 1221.27 194.955 1209.06C209.64 1196.85 242.873 1163.69 240.933 1157.66C238.994 1151.63 190.402 1194.68 171.148 1209.18C151.894 1223.68 140.207 1228.17 144.969 1222.53C149.73 1216.88 170.218 1192.59 179.629 1185.59C189.039 1178.6 239.603 1136.34 235.931 1132.36C232.26 1128.39 216.71 1141.62 203.692 1152.9C190.674 1164.17 137.616 1216.33 134.025 1213.3C130.433 1210.27 183.658 1154.44 192.748 1143.67C201.838 1132.89 230.662 1094.54 223.801 1092.27C216.939 1090 136.91 1200.51 133.912 1198.86C130.914 1197.21 174.167 1132.39 181.99 1117.91C189.814 1103.43 207.849 1072.67 198.631 1076.31C189.413 1079.96 121.648 1194.66 117.608 1199.45C113.568 1204.24 131.459 1164.29 136.878 1149.54C142.296 1134.79 172.12 1068.89 166.718 1066.97C161.315 1065.05 148.987 1090.07 137.781 1109.61C126.575 1129.14 99.8934 1215.26 94.6992 1221.41C89.505 1227.57 102.447 1144.22 110.591 1114.78C118.735 1085.35 123.854 1063.32 121.113 1066.57C118.372 1069.82 104.36 1093.72 97.2048 1116.08C90.0493 1138.45 83.6214 1219.98 80.5914 1223.57C77.5615 1227.16 75.0817 1182.91 71.7791 1160.81C68.4765 1138.7 78.3406 1062.11 71.9924 1060.27C65.6441 1058.43 57.6445 1134.54 57.7568 1148.98C57.8691 1163.42 65.7303 1241.19 62.7003 1244.78C59.6704 1248.38 48.8381 1188.01 42.607 1166.94C36.376 1145.88 35.3976 1076.25 34.099 1077.79C32.8005 1079.33 21.4131 1119.21 27.7297 1154.4C34.0463 1189.59 56.2076 1252.48 46.9895 1256.13C37.7713 1259.77 33.56 1217.57 29.0071 1203.2C24.4542 1188.82 -9.36239 1106.43 -11.9595 1109.51C-14.5566 1112.59 -0.341497 1167.91 4.21154 1182.28C8.76458 1196.66 40.9937 1271.56 36.5851 1275.75C32.1764 1279.94 21.5046 1249.57 10.3946 1225.27C-0.7154 1200.97 -38.9082 1136.26 -43.6696 1141.91C-48.4309 1147.55 32.946 1294.64 29.0504 1299.26C25.1547 1303.88 -1.21221 1258.81 -13.5725 1242.24C-25.9328 1225.66 -57.9536 1158.84 -62.2821 1163.98C-66.6106 1169.11 -38.352 1232.76 -27.3703 1249.92C-16.3886 1267.09 21.8202 1315.12 17.1871 1318.53C12.554 1321.94 -15.0151 1281.42 -22.4378 1272.53C-29.8605 1263.63 -84.4537 1196.51 -87.5638 1199.16C-90.674 1201.81 -59.5779 1246.47 -35.8243 1273.83C-12.0707 1301.18 16.7863 1341.91 14.7342 1340.18C12.6822 1338.45 -95.6757 1223.35 -98.2728 1226.43C-100.87 1229.51 -77.6454 1254.37 -65.1246 1272.83C-52.6039 1291.29 26.3679 1363.16 19.314 1364.24C12.2601 1365.32 -26.2211 1319.69 -41.1787 1306.2C-56.1362 1292.71 -114.641 1246.88 -113.214 1252.48C-111.787 1258.07 15.0337 1375.56 12.8053 1379.24C10.5769 1382.93 -28.006 1349.22 -38.4372 1340.42C-48.8685 1331.62 -105.364 1275.78 -107.352 1282.3C-109.34 1288.83 6.87371 1393.56 1.87186 1396.37C-3.12999 1399.18 -88.4664 1314.04 -90.9833 1318.07Z" fill="#8EDAA7"/>
</svg>
