<svg width="214" height="401" viewBox="0 0 214 401" fill="none" xmlns="http://www.w3.org/2000/svg">
    <path d="M3.62101 246.949C3.12601 266.044 31.1829 321.623 31.9427 328.68C32.7026 335.737 -0.764723 386.9 0.598879 393.446C1.96246 399.993 8.17579 402.475 12.4155 398.915C16.6553 395.355 43.5017 338.763 47.7414 335.202C51.9812 331.642 73.8156 323.211 91.1905 311.927C108.565 300.643 130.222 274.776 130.222 274.776L119.011 268.799L138.098 268.167C160.407 244.134 170.06 229.423 183.399 201.577L157.366 202.544L186.446 178.141C199.572 149.759 202.161 137.698 202.427 119.673L175.529 125.762L207.638 98.8159C212.744 80.5505 213.43 72.303 212.737 59.3704L181.122 67.2195L213.837 39.7654C212.731 28.6051 209.303 5.32706 204.437 1.49778C199.572 -2.3315 187.494 5.09372 182.063 9.28499L169.929 40.3478L167.435 12.7694C151.972 17.6672 144.435 20.9026 133.679 27.9099L136.461 91.5114L121.562 38.078C106.002 51.8892 97.7403 60.0643 88.0713 79.3709L87.8248 145.514L68.0791 96.1484C56.3872 110.024 51.5085 118.868 44.499 135.718L71.9326 212.699L31.1944 156.773C20.6782 163.953 13.5255 183.996 15.9019 192.685L42.8529 237.103L12.7259 218.428C12.7259 218.428 4.11601 227.853 3.62101 246.949Z" fill="#FFC596"/>
</svg>
