<svg width="141" height="20" viewBox="0 0 141 20" fill="none" xmlns="http://www.w3.org/2000/svg">
<path d="M23.1152 1.42188H17.3438L11.748 14.6055L5.39062 1.42188H0.46875V2.21289H2.8125V18.209H0.46875V19H6.38672C6.26953 18.5117 6.00586 18.248 5.5957 18.209H4.04297V6.69531L10.3418 19.2344H10.8984L17.3438 4.23438V18.209H15V19H23.1152C22.998 18.5117 22.7344 18.248 22.3242 18.209H20.7715V2.21289H23.1152V1.42188ZM30.1324 18.2383H28.9312V6.46094H23.8043V7.19336H25.7086V16.6562C25.7086 17.4961 25.3863 17.9941 24.7418 18.1504C24.5074 18.209 24.1949 18.2383 23.8043 18.2383V19H30.8355C30.8355 18.5508 30.6891 18.3066 30.3961 18.2676C30.318 18.248 30.2301 18.2383 30.1324 18.2383ZM29.2242 2.47656C29.2242 1.67578 28.8629 1.08008 28.1402 0.689453C27.8473 0.533203 27.5445 0.455078 27.232 0.455078C26.4312 0.455078 25.8453 0.816406 25.4742 1.53906C25.318 1.85156 25.2398 2.16406 25.2398 2.47656C25.2398 3.29688 25.6012 3.88281 26.3238 4.23438C26.6168 4.37109 26.9195 4.43945 27.232 4.43945C28.0328 4.43945 28.6187 4.09766 28.9898 3.41406C29.1461 3.12109 29.2242 2.80859 29.2242 2.47656ZM39.9914 19V18.209H37.6477V10.9727H39.5227L43.9758 19.0293L48.8977 19C48.8977 18.5703 48.7707 18.3262 48.5168 18.2676C48.3996 18.248 48.2824 18.2383 48.1652 18.2383H47.55L42.9504 10.6504C44.9426 10.123 46.2121 9.06836 46.759 7.48633C46.9152 6.99805 46.9934 6.50977 46.9934 6.02148C46.9934 4.55664 46.3488 3.38477 45.0598 2.50586C43.9855 1.7832 42.677 1.42188 41.134 1.42188H31.7004V2.21289H34.0441V18.209H31.7004V19H39.9914ZM39.6691 2.21289C41.2512 2.21289 42.3156 2.94531 42.8625 4.41016C43.0578 4.9375 43.1555 5.50391 43.1555 6.10938C43.1555 7.67188 42.6574 8.81445 41.6613 9.53711C41.134 9.9082 40.5285 10.0938 39.8449 10.0938H37.6477V2.21289H39.6691ZM55.6805 6.8125C56.8914 6.8125 57.6141 7.52539 57.8484 8.95117C57.907 9.26367 57.9363 9.58594 57.9363 9.91797C57.9363 10.8359 57.6043 11.4121 56.9402 11.6465C56.5105 11.7637 55.8855 11.8125 55.0652 11.793L52.8094 11.7051C52.8875 8.93164 53.6199 7.33008 55.0066 6.90039C55.241 6.8418 55.4656 6.8125 55.6805 6.8125ZM61.0418 16.041L60.3387 15.8066C59.7723 17.0371 58.8738 17.8477 57.6434 18.2383C57.2332 18.375 56.8133 18.4434 56.3836 18.4434C54.0984 18.4434 52.907 16.5 52.8094 12.6133C52.8094 12.5938 52.8094 12.5742 52.8094 12.5547L55.7684 12.6133C58.698 12.6719 60.4559 12.252 61.0418 11.3535C61.2371 11.041 61.3348 10.6699 61.3348 10.2402C61.3348 8.69727 60.5535 7.53516 58.991 6.75391C58.0145 6.28516 56.9109 6.05078 55.6805 6.05078C53.4344 6.05078 51.7156 6.86133 50.5242 8.48242C49.6844 9.63477 49.2645 11.0312 49.2645 12.6719C49.2645 15.3477 50.2508 17.2617 52.2234 18.4141C53.2781 19 54.4598 19.293 55.7684 19.293C57.9949 19.293 59.6063 18.502 60.6023 16.9199C60.7781 16.627 60.9246 16.334 61.0418 16.041ZM67.2094 18.4727C68.518 18.4727 69.3285 18.0332 69.641 17.1543C69.6996 16.959 69.7289 16.7637 69.7289 16.5684C69.7289 15.6309 69.1137 14.8398 67.8832 14.1953C67.6098 14.0586 67.1801 13.8633 66.5941 13.6094C65.0902 12.9453 64.0844 12.3398 63.5766 11.793C63.0492 11.168 62.7855 10.4453 62.7855 9.625C62.7855 8.08203 63.6254 7.01758 65.3051 6.43164C66.0473 6.17773 66.8773 6.05078 67.7953 6.05078C69.2211 6.05078 70.393 6.32422 71.3109 6.87109C71.3109 6.28516 71.4672 5.96289 71.7797 5.9043C71.8773 5.88477 71.975 5.875 72.0727 5.875V9.53711H71.1937C71.1156 7.75977 70.1391 6.86133 68.2641 6.8418C66.9555 6.8418 66.1449 7.25195 65.8324 8.07227C65.7543 8.28711 65.7152 8.50195 65.7152 8.7168C65.7152 9.53711 66.3012 10.25 67.473 10.8555C67.727 10.9727 68.1371 11.1582 68.7035 11.4121C70.2465 12.0762 71.2719 12.6914 71.7797 13.2578C72.3656 13.9219 72.6586 14.7031 72.6586 15.6016C72.6586 17.2617 71.7992 18.375 70.0805 18.9414C69.3773 19.1758 68.5961 19.293 67.7367 19.293C66.0961 19.293 64.7191 18.9707 63.6059 18.3262C63.6059 18.834 63.4789 19.127 63.225 19.2051C63.1078 19.2246 62.9711 19.2344 62.8148 19.2344V14.7812H63.7523C63.7914 17.2227 64.9437 18.4531 67.2094 18.4727ZM77.5371 12.6719C77.5371 9.70312 78.0645 7.87695 79.1191 7.19336C79.5488 6.93945 80.0469 6.8125 80.6133 6.8125C82.0977 6.8125 83.0352 7.65234 83.4258 9.33203C83.6211 10.1523 83.7188 11.2266 83.7188 12.5547C83.7188 15.6992 83.123 17.5938 81.9316 18.2383C81.541 18.4336 81.1016 18.5312 80.6133 18.5312C79.1484 18.5312 78.2207 17.6914 77.8301 16.0117C77.6348 15.1719 77.5371 14.0586 77.5371 12.6719ZM80.7305 6.05078C78.5039 6.05078 76.7461 6.8125 75.457 8.33594C74.4805 9.50781 73.9922 10.9141 73.9922 12.5547C73.9922 14.8203 74.793 16.5977 76.3945 17.8867C77.5664 18.8242 78.9434 19.293 80.5254 19.293C82.6934 19.293 84.4219 18.5117 85.7109 16.9492C86.7266 15.7188 87.2344 14.2539 87.2344 12.5547C87.2344 10.2695 86.4141 8.52148 84.7734 7.31055C83.6406 6.4707 82.293 6.05078 80.7305 6.05078ZM102.748 18.2383H101.605V6.46094H96.6246V7.19336H98.3824L98.3531 14.2539C98.2555 15.8164 97.6891 16.9102 96.6539 17.5352C96.2633 17.75 95.8727 17.8574 95.482 17.8574C94.193 17.8574 93.4508 17.125 93.2555 15.6602C93.2164 15.4062 93.1969 15.1523 93.1969 14.8984V6.46094H88.0992V7.19336H89.9742V14.4297C89.9938 17.6523 91.3902 19.2734 94.1637 19.293C95.7457 19.293 97.0055 18.6289 97.943 17.3008C98.1383 17.0078 98.3043 16.7148 98.441 16.4219L98.5875 19H103.451C103.451 18.5508 103.324 18.3066 103.07 18.2676C102.972 18.248 102.865 18.2383 102.748 18.2383ZM111.464 18.2383H109.325V11.8809C109.462 10.0059 109.989 8.74609 110.907 8.10156C111.122 7.96484 111.308 7.89648 111.464 7.89648C111.718 7.89648 111.972 8.12109 112.226 8.57031C112.558 9.19531 112.909 9.56641 113.28 9.68359C113.456 9.74219 113.642 9.77148 113.837 9.77148C114.54 9.77148 115.038 9.42969 115.331 8.74609C115.429 8.53125 115.478 8.30664 115.478 8.07227C115.478 7.13477 115.019 6.54883 114.101 6.31445C113.866 6.25586 113.632 6.22656 113.398 6.22656C112.206 6.22656 111.142 6.71484 110.204 7.69141C109.794 8.14062 109.472 8.64844 109.238 9.21484L109.062 6.46094H104.228V7.19336H106.073V16.6562C106.073 17.4961 105.78 17.9941 105.195 18.1504C104.941 18.209 104.618 18.2383 104.228 18.2383V19H112.167C112.167 18.5508 112.021 18.3066 111.728 18.2676C111.65 18.248 111.562 18.2383 111.464 18.2383ZM115.991 12.7598C115.991 15.4355 116.997 17.3301 119.009 18.4434C120.044 19.0098 121.235 19.293 122.583 19.293C124.614 19.293 126.167 18.6484 127.241 17.3594C127.573 16.9688 127.827 16.5391 128.003 16.0703L127.241 15.8652C126.636 17.1543 125.62 17.9648 124.194 18.2969C123.823 18.3945 123.432 18.4434 123.022 18.4434C120.718 18.4043 119.555 16.5098 119.536 12.7598C119.536 9.18555 120.327 7.21289 121.909 6.8418C122.143 6.80273 122.368 6.7832 122.583 6.7832C123.501 6.7832 124.067 7.18359 124.282 7.98438C124.321 8.16016 124.36 8.42383 124.399 8.77539C124.536 9.63477 124.77 10.1816 125.102 10.416C125.356 10.5723 125.679 10.6602 126.069 10.6797C126.948 10.6797 127.495 10.3379 127.71 9.6543C127.749 9.49805 127.768 9.35156 127.768 9.21484C127.768 8.33594 127.231 7.57422 126.157 6.92969C125.161 6.34375 123.97 6.05078 122.583 6.05078C120.395 6.05078 118.686 6.8125 117.456 8.33594C116.479 9.52734 115.991 11.002 115.991 12.7598ZM134.932 6.8125C136.143 6.8125 136.866 7.52539 137.1 8.95117C137.159 9.26367 137.188 9.58594 137.188 9.91797C137.188 10.8359 136.856 11.4121 136.192 11.6465C135.762 11.7637 135.137 11.8125 134.317 11.793L132.061 11.7051C132.139 8.93164 132.871 7.33008 134.258 6.90039C134.493 6.8418 134.717 6.8125 134.932 6.8125ZM140.293 16.041L139.59 15.8066C139.024 17.0371 138.125 17.8477 136.895 18.2383C136.485 18.375 136.065 18.4434 135.635 18.4434C133.35 18.4434 132.159 16.5 132.061 12.6133C132.061 12.5938 132.061 12.5742 132.061 12.5547L135.02 12.6133C137.95 12.6719 139.707 12.252 140.293 11.3535C140.489 11.041 140.586 10.6699 140.586 10.2402C140.586 8.69727 139.805 7.53516 138.243 6.75391C137.266 6.28516 136.162 6.05078 134.932 6.05078C132.686 6.05078 130.967 6.86133 129.776 8.48242C128.936 9.63477 128.516 11.0312 128.516 12.6719C128.516 15.3477 129.502 17.2617 131.475 18.4141C132.53 19 133.711 19.293 135.02 19.293C137.246 19.293 138.858 18.502 139.854 16.9199C140.03 16.627 140.176 16.334 140.293 16.041Z" fill="#1FA3AA"/>
</svg>
