<svg width="286" height="313" viewBox="0 0 286 313" fill="none" xmlns="http://www.w3.org/2000/svg">
    <path d="M136.829 130.934C136.829 130.934 137.022 138.271 131.483 153.173C125.941 168.079 124.471 169.328 121.79 170.52C118.326 172.059 129.698 185.074 135.152 176.686C140.606 168.298 146.464 158.139 149.492 147.479C152.519 136.82 152.029 130.103 151.378 126.339C150.73 122.578 138.221 119.378 136.829 130.934Z" fill="#926C43"/>
    <path d="M136.024 123.81C136.024 123.81 135.697 110.125 135.545 107.059C135.397 103.991 142.361 102.188 145.889 102.757C149.421 103.325 154.688 106.95 154.693 111.677C154.697 116.403 153.874 124.431 153.874 124.431L136.024 123.81Z" fill="#98D5CB"/>
    <path d="M154.579 133.786L133.987 132.165L134.626 121.87L155.888 122.803L154.579 133.786Z" fill="#8DCDC2"/>
    <path d="M125.375 167.254C125.375 167.254 118.9 170.112 118.19 171.773C117.482 173.434 118.806 174.828 120.597 174.921" fill="#916C43"/>
    <path d="M125.375 167.254C125.375 167.254 118.9 170.112 118.19 171.773C117.482 173.434 118.806 174.828 120.597 174.921" stroke="#573D20" stroke-width="3" stroke-miterlimit="10" stroke-linecap="round"/>
    <path d="M126.371 176.955C126.371 176.955 122.684 181.241 121.472 183.029C120.259 184.815 119.858 185.64 121.25 186.897C122.642 188.155 127.5 184.007 130.484 181.294C133.468 178.582 134.4 177.44 134.4 177.44" fill="#916C43"/>
    <path d="M126.371 176.955C126.371 176.955 122.684 181.241 121.472 183.029C120.259 184.815 119.858 185.64 121.25 186.897C122.642 188.155 127.5 184.007 130.484 181.294C133.468 178.582 134.4 177.44 134.4 177.44" stroke="#573D20" stroke-width="3" stroke-miterlimit="10" stroke-linecap="round"/>
    <path d="M124.07 175.048L117.823 181.301C117.823 181.301 116.481 183.875 117.628 185.235C119.04 186.908 122.882 182.507 125.018 180.7C127.139 178.905 128.417 177.496 128.417 177.496" fill="#916C43"/>
    <path d="M124.07 175.048L117.823 181.301C117.823 181.301 116.481 183.875 117.628 185.235C119.04 186.908 122.882 182.507 125.018 180.7C127.139 178.905 128.417 177.496 128.417 177.496" stroke="#573D20" stroke-width="3" stroke-miterlimit="10" stroke-linecap="round"/>
    <path d="M123.587 172.289C123.587 172.289 117.767 176.056 116.068 178.559C114.372 181.062 114.743 181.55 115.421 182.323C116.099 183.096 119.084 181.154 120.371 179.912C121.657 178.67 125.663 175.002 125.663 175.002" fill="#916C43"/>
    <path d="M123.587 172.289C123.587 172.289 117.767 176.056 116.068 178.559C114.372 181.062 114.743 181.55 115.421 182.323C116.099 183.096 119.084 181.154 120.371 179.912C121.657 178.67 125.663 175.002 125.663 175.002" stroke="#573D20" stroke-width="3" stroke-miterlimit="10" stroke-linecap="round"/>
    <path d="M233.302 226.641L251.02 220.887L243.769 206.664L222.079 211.9L233.302 226.641Z" fill="#F3F3F4"/>
    <path d="M140.177 245.847L147.701 262.888L161.111 254.232L153.699 233.186L140.177 245.847Z" fill="#F3F3F4"/>
    <path d="M136.549 264.634C131.747 254.823 127.933 238.051 121.255 217.902C114.576 197.753 131.893 161.057 131.893 161.057L178.083 164.807C178.083 164.807 143.872 206.184 150.67 222.175C159.333 242.549 163.439 257.818 163.439 257.818L136.549 264.634Z" fill="#4A7645"/>
    <path d="M229.462 232.192C229.462 232.192 197.69 241.369 178.369 227.803C159.228 214.359 149.185 160.343 149.185 160.343L192.425 154.28C192.425 154.28 191.26 189.477 195.537 200.034C199.814 210.59 226.319 204.681 226.319 204.681L229.462 232.192Z" fill="#588353"/>
    <path d="M226.233 235.672L221.117 203.957L229.814 201.888L238.285 232.93L226.233 235.672Z" fill="#4C7746"/>
    <path d="M136.623 274.759L131.907 262.106L163.38 250.655L167.997 263.344L136.623 274.759Z" fill="#3A6A34"/>
    <path d="M142.704 255.334C146.313 255.349 156.014 254.914 159.795 249.975C160.327 249.276 161.411 249.406 161.749 250.218C167.074 263.088 171.191 274.575 171.191 274.575L119.918 293.561C119.918 293.561 114.61 285.698 120.057 281.913C125.503 278.128 136.264 273.495 140.219 266.105C142.105 262.582 141.873 258.63 141.58 256.625C141.478 255.941 142.013 255.329 142.704 255.334Z" fill="#9C5F51" stroke="#414F60" stroke-width="3.2132" stroke-miterlimit="10"/>
    <path d="M169.822 270.883L118.193 290.002" stroke="#414F60" stroke-width="3.2132" stroke-miterlimit="10"/>
    <path d="M147.883 257.555L141.988 259.487C141.988 259.487 137.489 256.72 133.896 259.946C130.302 263.171 140.161 260.745 141.966 259.823" stroke="#414F60" stroke-width="3.2132" stroke-miterlimit="10"/>
    <path d="M147.272 262.096L141.066 263.865" stroke="#414F60" stroke-width="3.2132" stroke-miterlimit="10"/>
    <path d="M129.796 276.173C129.796 276.173 134.47 277.81 136.357 283.275" stroke="#414F60" stroke-width="3.2132" stroke-miterlimit="10"/>
    <path d="M142.631 259.584C142.631 259.584 134.947 260.619 135.256 265.884C135.564 271.146 142.631 259.584 142.631 259.584Z" stroke="#414F60" stroke-width="3.2132" stroke-miterlimit="10"/>
    <path d="M140.219 266.104L146.463 266.541" stroke="#414F60" stroke-width="3.2132" stroke-miterlimit="10"/>
    <path d="M241.959 223.74C241.353 220.183 239.248 210.703 233.731 207.831C232.95 207.426 232.892 206.336 233.632 205.866C245.389 198.399 255.996 192.362 255.996 192.362L283.547 239.588C283.547 239.588 276.716 246.173 272.051 241.463C267.386 236.753 260.961 226.952 252.997 224.331C249.202 223.082 245.349 223.992 243.425 224.626C242.769 224.842 242.076 224.422 241.959 223.74Z" fill="#9C5F51" stroke="#414F60" stroke-width="3.2132" stroke-miterlimit="10"/>
    <path d="M252.596 194.343L280.336 241.901" stroke="#414F60" stroke-width="3.2132" stroke-miterlimit="10"/>
    <path d="M243.256 218.258L246.176 223.733C246.176 223.733 244.228 228.643 248.024 231.626C251.821 234.608 247.73 225.319 246.51 223.697" stroke="#414F60" stroke-width="3.2132" stroke-miterlimit="10"/>
    <path d="M247.832 218.075L250.646 223.881" stroke="#414F60" stroke-width="3.2132" stroke-miterlimit="10"/>
    <path d="M264.714 232.859C264.714 232.859 265.519 227.972 270.578 225.167" stroke="#414F60" stroke-width="3.2132" stroke-miterlimit="10"/>
    <path d="M246.158 223.081C246.158 223.081 248.506 230.471 253.636 229.26C258.768 228.045 246.158 223.081 246.158 223.081Z" stroke="#414F60" stroke-width="3.2132" stroke-miterlimit="10"/>
    <path d="M252.997 224.331L252.351 218.103" stroke="#414F60" stroke-width="3.2132" stroke-miterlimit="10"/>
    <path d="M127.654 160.754C127.654 160.754 137.377 166.003 153.354 166.063C169.334 166.121 194.453 162.953 194.453 162.953C194.453 162.953 195.366 108.696 180.562 94.9555C165.759 81.2153 147.091 90.8012 142.565 95.3137C138.039 99.8262 129.908 108.739 127.654 160.754Z" fill="#A4E0D6" stroke="#97D4CA" stroke-width="5" stroke-miterlimit="10"/>
    <path d="M149.255 60.2412C149.255 60.2412 140.656 76.2429 144.871 82.1494C152.425 92.7364 163.741 86.347 165.945 83.0596C168.358 79.4536 171.618 73.9228 171.618 73.9228L173.182 61.2249L157.117 53.3804L149.255 60.2412Z" fill="#926C43"/>
    <path d="M154.224 98.925C161.005 100.311 163.975 97.2463 164.732 93.8462C165.488 90.4461 163.986 81.1526 163.639 80.5148C163.292 79.877 150.287 78.874 149.168 82.3336C148.05 85.7933 146.648 92.0806 146.304 93.6389C145.955 95.1953 150.342 98.1309 154.224 98.925Z" fill="#926C43"/>
    <path d="M149.663 58.0926C149.663 58.0926 145.661 66.0181 143.999 72.8594C142.336 79.6978 144.484 83.7002 149.355 86.84C153.21 89.326 159.273 87.8744 159.273 87.8744" stroke="#573D20" stroke-width="3" stroke-miterlimit="10" stroke-linecap="round"/>
    <path d="M180.454 62.4941C181.105 58.5686 177.004 55.6701 175.107 55.3932C173.209 55.1163 173.209 55.1163 173.209 55.1163C173.209 55.1163 173.36 49.402 165.678 46.8193C157.994 44.2376 154.501 46.7315 154.501 46.7315C154.501 46.7315 151.399 40.7909 144.556 43.3068C141.126 44.5679 140.168 48.0709 140.168 48.0709C140.168 48.0709 136.194 49.1168 135.107 51.4926C134.018 53.8695 134.365 57.5173 137.042 58.6942C139.72 59.871 142.117 58.674 142.117 58.674C142.117 58.674 143.165 61.716 146.634 61.6441C155.001 61.4691 157.834 57.2249 157.834 57.2249C157.834 57.2249 158.829 59.4826 163.313 60.1892C167.796 60.8958 169.981 59.5633 169.981 59.5633C169.981 59.5633 172.293 58.9253 172.493 60.8626C172.693 62.7998 173.185 64.5849 173.185 64.5849C173.185 64.5849 173.202 69.3169 172.712 71.8295C172.223 74.3421 171.5 75.51 171.5 75.51C171.5 75.51 172.657 76.1648 175.064 71.3181C177.472 66.4714 176.541 65.3182 176.541 65.3182C176.541 65.3182 179.839 66.2101 180.454 62.4941Z" fill="#355380"/>
    <path d="M180.454 62.4942C181.073 58.7147 177.626 57.5949 175.73 57.3141C173.834 57.0333 172.691 57.1277 172.691 57.1277C172.691 57.1277 173.939 51.5259 166.247 48.9766C158.558 46.4263 155.088 48.8036 155.088 48.8036C155.088 48.8036 151.36 43.4609 144.643 46.0592C140.049 47.8354 140.749 51.2826 140.749 51.2826C140.749 51.2826 136.713 50.2461 135.644 52.5269C134.575 54.8077 135.072 57.929 137.754 59.0842C140.437 60.2394 142.821 60.2116 142.821 60.2116C142.821 60.2116 143.891 63.1536 147.354 63.1101C155.705 63.0096 158.497 58.941 158.497 58.941C158.497 58.941 159.509 61.1271 163.989 61.8416C168.47 62.559 170.639 61.2913 170.639 61.2913C170.639 61.2913 169.601 63.4396 169.814 65.3063C170.028 67.173 171.248 68.6078 171.248 68.6078C171.248 68.6078 170.383 71.8705 169.914 74.287C169.446 76.7035 169.313 77.9325 169.313 77.9325C169.313 77.9325 173.44 77.3094 175.804 72.6588C178.168 68.0082 177.229 66.8874 177.229 66.8874C177.229 66.8874 179.87 66.0709 180.454 62.4942Z" fill="#212056"/>
    <path d="M150.329 63.9061C150.329 63.9061 151.692 62.1808 154.693 62.8497" stroke="#0C273A" stroke-width="3" stroke-miterlimit="10" stroke-linecap="round"/>
    <path d="M157.757 63.3942C157.757 63.3942 159.953 63.2477 161.468 65.9232" stroke="#0C273A" stroke-width="3" stroke-miterlimit="10" stroke-linecap="round"/>
    <path d="M155.08 67.5553C155.08 67.5553 152.081 68.8827 151.984 71.0132C151.91 72.6041 154.27 72.4833 154.27 72.4833" stroke="#573D20" stroke-width="3" stroke-miterlimit="10" stroke-linecap="round"/>
    <path d="M152.079 76.005C152.079 76.005 153.844 77.6579 157.706 76.3481" stroke="#522221" stroke-width="3" stroke-miterlimit="10" stroke-linecap="round"/>
    <path d="M158.568 68.0299C158.769 67.1246 158.618 66.3205 158.229 66.234C157.84 66.1475 157.362 66.8113 157.16 67.7166C156.959 68.6219 157.111 69.4259 157.499 69.5124C157.888 69.5989 158.366 68.9352 158.568 68.0299Z" fill="black"/>
    <path d="M152.978 66.5967C153.18 65.6914 153.028 64.8874 152.64 64.8009C152.251 64.7143 151.772 65.3781 151.571 66.2834C151.369 67.1887 151.521 67.9928 151.91 68.0793C152.299 68.1658 152.777 67.502 152.978 66.5967Z" fill="black"/>
    <path d="M127.654 160.754C127.654 160.754 137.377 166.003 153.354 166.063C169.334 166.121 194.453 162.953 194.453 162.953C194.453 162.953 195.366 108.696 180.562 94.9555C165.759 81.2153 147.091 90.8012 142.565 95.3137C138.039 99.8262 129.908 108.739 127.654 160.754Z" fill="#A4E0D6" stroke="#97D4CA" stroke-width="5" stroke-miterlimit="10"/>
    <path opacity="0.81" d="M5.99438 87.9243L71.4977 133.467L82.5137 121.98L35.6897 61.3927L5.99438 87.9243Z" fill="url(#paint0_linear_1163_621)"/>
    <path d="M148.089 131.127C148.089 131.127 142.963 138.324 137.122 138.836C131.281 139.348 108.438 134.142 108.438 134.142C108.438 134.142 93.164 126.261 88.945 139.817C86.8436 146.567 98.6272 143.757 104.465 147.251C108.066 149.407 129.123 156.592 142.489 153.175C155.859 149.757 160.307 138.887 160.307 138.887L148.089 131.127Z" fill="#926C43"/>
    <path d="M151.233 125.092C151.233 125.092 156.822 113.379 158.134 109.586C159.303 106.203 165.778 102.884 170.509 105.171C175.24 107.463 176.554 112.357 175.762 115.631C174.974 118.906 167.034 133.15 167.034 133.15L151.233 125.092Z" fill="#98D5CB"/>
    <path d="M151.084 121.91L168.837 132.45L160.774 144.259L145.363 130.618L151.084 121.91Z" fill="#8DCDC2"/>
    <path d="M89.1821 137.833C89.1821 137.833 86.3909 135.98 88.9546 134.246C91.5183 132.512 97.6611 132.273 97.6611 132.273" fill="#916C43"/>
    <path d="M89.1821 137.833C89.1821 137.833 86.3909 135.98 88.9546 134.246C91.5183 132.512 97.6611 132.273 97.6611 132.273" stroke="#573D20" stroke-width="2.9272" stroke-miterlimit="10" stroke-linecap="round"/>
    <path d="M108.847 152.47C108.847 152.47 110.128 153.698 107.408 156.534C104.689 159.369 103.408 158.141 103.408 158.141L79.4768 135.19L84.9134 129.521L108.845 152.472L108.847 152.47Z" fill="#DDDBD4"/>
    <path d="M80.1896 136.343C76.8384 135.221 71.4951 133.469 71.4951 133.469L82.5111 121.983C82.5111 121.983 85.616 129.247 86.1966 130.752C86.7815 132.252 82.0024 136.95 80.1896 136.343Z" fill="#BFBDB1"/>
    <path d="M78.7991 129.446C81.8417 126.274 83.5047 122.931 82.5135 121.981C81.5223 121.03 78.2523 122.831 75.2098 126.004C72.1672 129.176 70.5042 132.519 71.4954 133.469C72.4865 134.42 75.7565 132.619 78.7991 129.446Z" fill="white"/>
    <path d="M88.2814 140.508L87.7421 143.586L105.653 147.511L100.497 135.628L88.2814 140.508Z" fill="#926C43"/>
    <path d="M89.1758 143.467C89.1758 143.467 88.2141 145.524 90.806 146.913C94.4118 148.847 102.475 145.479 102.475 145.479" fill="#916C43"/>
    <path d="M89.1758 143.467C89.1758 143.467 88.2141 145.524 90.806 146.913C94.4118 148.847 102.475 145.479 102.475 145.479" stroke="#573D20" stroke-width="2.9272" stroke-miterlimit="10" stroke-linecap="round"/>
    <path d="M85.9951 141.526C85.9951 141.526 84.8418 142.965 85.9554 144.003C87.0689 145.041 91.5721 145.077 95.5026 144.198" fill="#916C43"/>
    <path d="M85.9951 141.526C85.9951 141.526 84.8418 142.965 85.9554 144.003C87.0689 145.041 91.5721 145.077 95.5026 144.198" stroke="#573D20" stroke-width="2.9272" stroke-miterlimit="10" stroke-linecap="round"/>
    <path d="M96.2398 136.225C96.2398 136.225 91.5903 137.636 89.1819 137.833C86.7735 138.029 83.8492 138.042 83.9333 139.878C84.0174 141.713 86.9861 142.152 88.4954 142.105C90.0025 142.057 93.9123 141.229 93.9123 141.229" fill="#916C43"/>
    <path d="M96.2398 136.225C96.2398 136.225 91.5903 137.636 89.1819 137.833C86.7735 138.029 83.8492 138.042 83.9333 139.878C84.0174 141.713 86.9861 142.152 88.4954 142.105C90.0025 142.057 93.9123 141.229 93.9123 141.229" stroke="#573D20" stroke-width="2.9272" stroke-miterlimit="10" stroke-linecap="round"/>
    <path d="M149.255 60.2412C149.255 60.2412 140.656 76.2429 144.871 82.1494C152.425 92.7364 163.741 86.347 165.945 83.0596C168.358 79.4536 171.618 73.9228 171.618 73.9228L173.182 61.2249L157.117 53.3804L149.255 60.2412Z" fill="#926C43"/>
    <path d="M154.224 98.925C161.005 100.311 163.975 97.2463 164.732 93.8462C165.488 90.4461 163.986 81.1526 163.639 80.5148C163.292 79.877 150.287 78.874 149.168 82.3336C148.05 85.7933 146.648 92.0806 146.304 93.6389C145.955 95.1953 150.342 98.1309 154.224 98.925Z" fill="#926C43"/>
    <path d="M149.663 58.0926C149.663 58.0926 145.661 66.0181 143.999 72.8594C142.336 79.6978 144.484 83.7002 149.355 86.84C153.21 89.326 159.273 87.8744 159.273 87.8744" stroke="#573D20" stroke-width="3" stroke-miterlimit="10" stroke-linecap="round"/>
    <path d="M180.454 62.4941C181.105 58.5686 177.004 55.6701 175.107 55.3932C173.209 55.1163 173.209 55.1163 173.209 55.1163C173.209 55.1163 173.36 49.402 165.678 46.8193C157.994 44.2376 154.501 46.7315 154.501 46.7315C154.501 46.7315 151.399 40.7909 144.556 43.3068C141.126 44.5679 140.168 48.0709 140.168 48.0709C140.168 48.0709 136.194 49.1168 135.107 51.4926C134.018 53.8695 134.365 57.5173 137.042 58.6942C139.72 59.871 142.117 58.674 142.117 58.674C142.117 58.674 143.165 61.716 146.634 61.6441C155.001 61.4691 157.834 57.2249 157.834 57.2249C157.834 57.2249 158.829 59.4826 163.313 60.1892C167.796 60.8958 169.981 59.5633 169.981 59.5633C169.981 59.5633 172.293 58.9253 172.493 60.8626C172.693 62.7998 173.185 64.5849 173.185 64.5849C173.185 64.5849 173.202 69.3169 172.712 71.8295C172.223 74.3421 171.5 75.51 171.5 75.51C171.5 75.51 172.657 76.1648 175.064 71.3181C177.472 66.4714 176.541 65.3182 176.541 65.3182C176.541 65.3182 179.839 66.2101 180.454 62.4941Z" fill="#355380"/>
    <path d="M180.454 62.4942C181.073 58.7147 177.626 57.5949 175.73 57.3141C173.834 57.0333 172.691 57.1277 172.691 57.1277C172.691 57.1277 173.939 51.5259 166.247 48.9766C158.558 46.4263 155.088 48.8036 155.088 48.8036C155.088 48.8036 151.36 43.4609 144.643 46.0592C140.049 47.8354 140.749 51.2826 140.749 51.2826C140.749 51.2826 136.713 50.2461 135.644 52.5269C134.575 54.8077 135.072 57.929 137.754 59.0842C140.437 60.2394 142.821 60.2116 142.821 60.2116C142.821 60.2116 143.891 63.1536 147.354 63.1101C155.705 63.0096 158.497 58.941 158.497 58.941C158.497 58.941 159.509 61.1271 163.989 61.8416C168.47 62.559 170.639 61.2913 170.639 61.2913C170.639 61.2913 169.601 63.4396 169.814 65.3063C170.028 67.173 171.248 68.6078 171.248 68.6078C171.248 68.6078 170.383 71.8705 169.914 74.287C169.446 76.7035 169.313 77.9325 169.313 77.9325C169.313 77.9325 173.44 77.3094 175.804 72.6588C178.168 68.0082 177.229 66.8874 177.229 66.8874C177.229 66.8874 179.87 66.0709 180.454 62.4942Z" fill="#212056"/>
    <path d="M150.329 63.9061C150.329 63.9061 151.692 62.1808 154.693 62.8497" stroke="#0C273A" stroke-width="3" stroke-miterlimit="10" stroke-linecap="round"/>
    <path d="M157.757 63.3942C157.757 63.3942 159.953 63.2477 161.468 65.9232" stroke="#0C273A" stroke-width="3" stroke-miterlimit="10" stroke-linecap="round"/>
    <path d="M155.08 67.5553C155.08 67.5553 152.081 68.8827 151.984 71.0132C151.91 72.6041 154.27 72.4833 154.27 72.4833" stroke="#573D20" stroke-width="3" stroke-miterlimit="10" stroke-linecap="round"/>
    <path d="M152.079 76.005C152.079 76.005 153.844 77.6579 157.706 76.3481" stroke="#522221" stroke-width="3" stroke-miterlimit="10" stroke-linecap="round"/>
    <path d="M158.568 68.0299C158.769 67.1246 158.618 66.3205 158.229 66.234C157.84 66.1475 157.362 66.8113 157.16 67.7166C156.959 68.6219 157.111 69.4259 157.499 69.5124C157.888 69.5989 158.366 68.9352 158.568 68.0299Z" fill="black"/>
    <path d="M152.978 66.5967C153.18 65.6914 153.028 64.8874 152.64 64.8009C152.251 64.7143 151.772 65.3781 151.571 66.2834C151.369 67.1887 151.521 67.9928 151.91 68.0793C152.299 68.1658 152.777 67.502 152.978 66.5967Z" fill="black"/>
    <defs>
        <linearGradient id="paint0_linear_1163_621" x1="76.6077" y1="128.14" x2="19.7346" y2="73.5963" gradientUnits="userSpaceOnUse">
            <stop stop-color="white"/>
            <stop offset="1" stop-color="#7CACC5" stop-opacity="0.68"/>
        </linearGradient>
    </defs>
</svg>
