<svg width="353" height="249" fill="none" xmlns="http://www.w3.org/2000/svg"><path d="M107 30l1-5-1-2-12-3-2-1h-2l-2 5c0 2 0 5-2 7v2l3 3 1 1-4-1c-2-1-2-1-3 1v6c0 2 0 5-2 7l1 1 4 2 6 1h-1l-9 1c-1-1-1 0-1 1l1 7 4 5 4 13 4 11 2 3 3 3 3 1a60 60 0 0113 1h-2l-10 3-1 2 6 12 5 7 6 9 5 3 3-1 12-5h1l-1 1-9 7-1 1 1 2 4 1 12 7 7 5 11 4h20l10 2h11l7-3c1-2 3-2 5-2h13a138 138 0 0035-6l11-3 1-2 1-2-2-1-3 1-7 2-9 3a158 158 0 01-37 4h-4l-1-1 1-3c1-5 0-9-3-13l-7-6-4-6-1-5c-2-6-5-10-10-14l-4-4-4-3c-1-1-2-1-3 1l-7 15v-2a67672 67672 0 003-18l-9-4-2 1-1 3-3 10-1-2 2-14-1-3-7-5-3-3c-2-1-3-4-1-6 2-4 2-8 0-12-3-5-8-9-13-13l-8-7-3-6c-3-4-7-6-12-6h-4c-1-1-2-1-2 1l-1 3-1 1z" fill="#65BD83"/><path d="M247 49l-2-3-2-4-2-7v-3c1-3 2-5 5-6l11-5c4-2 7-3 11-3h4c1 0 3 0 3 2h1l4 4 1 11-1 13-1 7-1 1-2-1-2-1 1 1 4 4v2l-4 12-7 11-3 6c-2 1-3 3-4 6l-1 3-1 3h-2l-6-2-1-1 3 3 3 2v2a4846 4846 0 01-6 8c-4 6-9 11-15 15h-3l-2-2-3-2-7-2-2-1 1 3 1 4 1 4-1 2-10 7a26 26 0 01-8 5l-8 2h-12l-6 1-7 1c-3 1-6 0-8-3h-3l-11 2a129 129 0 01-31 3l-19-1-11-2-3-1-2-3c0-1 1-2 3-2l4 1a210 210 0 0025 3h11l15-1 16-3 2-2 1-7 4-10 4-8 4-5 1-2h1l3 4 8 7-3-5-4-5-1-4 1-3 8-8 4-3 3-2v-1h1l2 7 5 8-1-4-1-5-2-9 1-4 3-3c3-2 4-5 6-8l2-5c0-2 2-4 4-6l6-5 6-7 6-10a23 23 0 017-6l1 1c0 3 0 5 2 7l5 5 3 3z" fill="#65BD83"/><path d="M289 95l6 1 21 2 11 4 6 3h1v1h-1l-7-2-8-2-14-2-9-1-7-2h-3l-3 1 2 1 18 2a43 43 0 0125 11v1h-1l-4-2-17-4-12-2c-4-1-8-2-12-5h-3l-3 1 2 1 12 4 8 1 7 2 8 2 8 4 1 1h-2a120 120 0 00-17-4l-8-1-13-3-3-2c-2 0-3-2-4-3h-2l-2 1 3 2c3 0 6 2 8 3 5 3 10 5 16 6l11 2 7 1h1l-1 1h-10c-6 0-13 0-19-2l-9-4c-4-2-6-4-8-7l-2-1-5 3s-1 0 0 0v1l9 5 9 4 9 2 7 1 13 4 1 1h-2l-10-1-12-1c-7-1-13-3-19-7l-6-5c-2-3-2-3-4-1l-2 1v1l5 3 2 2c5 3 9 5 14 6l7 2 11 3 6 3v1h-1c-4-2-9-2-13-3h-5c4 3 8 7 10 12l-2-2-8-6-7-4-14-6-9-4-2-2h-3l-4 2 1 1 8 1 10 4 11 6a40 40 0 0110 11c1 0 0 0 0 0v1l-2-1-6-5-13-7-11-4-8-4-1-1h-2l-3 2-1 1 1 1h2c5 2 10 3 14 6l5 2 8 5 6 4 6 3a18003 18003 0 003 3l-19-7-5-2-13-6-7-5-2-2h-1l-4 3 2 1 8 4 14 8 12 6 9 5 3 1v1l-1 1-3-1-15-6-8-3-9-5-6-4-3-3a8517 8517 0 01-5-3c-2 1-2 2 0 3l4 4 8 6 3 3 4 4 7 5 9 7 4 2 1 1h-1l-11-5a33544 33544 0 01-14-9l-7-5-8-9-2-3h-2c-2 1-2 1-1 3l10 12 11 12 7 10v2h-1l-2-2-10-10-8-8c-4-3-6-7-7-11l-2-5h-1l-2 2v1l5 10 5 9 9 15 1 1-1 1v-1h-1l-7-8c-4-4-8-8-10-13l-3-9-1-4-3 2v2l3 7 9 21 3 4v1l-1-1-2-2c-5-5-8-10-11-16l-3-9v-4l-3 3v2c2 2 2 6 2 9l1 8 2 8 1 1h-1l-5-7c-2-5-3-10-2-16v-3-1h-1l-10 12-8 10-9 11-5 7-4 5-2 1c-2 0-3-1-3-2l1-2 7-10 1-2 11-14 10-11 9-10v-2l-4-5c-2-3-4-8-4-13v-5-2l1 2 2 7 3 7 4 8h1l1-1-1-1-5-12c-2-6-1-11 0-16h1l3 13 3 13c0 2 0 2 2 0l1-1v-2c-2-4-4-8-4-12l-2-8 1-8v-3l1 2c0 4 1 9 3 13l3 14 1 1h1l2-2v-1c-4-5-5-12-6-18l1-13 1-3v-1 7l2 12 2 8 1 6v1l1 1 3-2v-1-2c-3-4-3-8-4-12l1-18 2-9 2-1v2c-2 6-1 12-1 18l2 18-1 3 4-3 1-1-1-1-2-8a130 130 0 012-30l2-6 1-1v1l-1 13v31h1l4-3v-3l-3-7V89c0-5 1-9 3-14l1-3 1-1v2l-1 19v10l1 13 1 3h1c1 0 2-1 1-2-3-5-3-10-2-15l2-14 2-14v-4h1c0-1 0 0 0 0l1 4v17l-1 11-1 13v1l1 1 5-3v-2l-2-4-1-4 1-13 1-8a159 159 0 015-19v-1l1 2v7l-1 15-2 22v3l4-2c2-1 2-1 1-4l-1-4V89l3-18 1-6 3-11v-1l1 1v13l-2 13-2 18v8h1l5-3v-1c-2-4-2-8-2-12s0-8 2-12l4-10 5-14 2-2v2l-3 14-5 18-1 14c0 2 0 2 1 1 2 0 2-1 1-2v-8a51 51 0 0110-25l7-8 1-1v2l-4 7-2 3c-3 5-6 11-7 17l-2 10v3l5-2v-1-1l-1-7 5-14c3-6 7-11 12-15l2-1v1l-3 3-6 10-3 9-3 9-1 4v2l3-1v-1c-1-4 0-7 2-10l1-4 7-11 10-10c0-1 0-1 0 0 1 0 0 0 0 0l-1 2-7 9a91 91 0 00-9 23v1l2-2c0-4 1-7 3-9a54 54 0 0118-19l6-4-1 1-5 6-6 6-11 15-2 4 4-2 1-1 3-7 2-2 8-8 9-6 10-5h1l-1 1-4 3-12 10-8 7-5 6v1l4-2h1c2-5 6-9 11-12l15-5 5-1 2-1v1l-3 2-13 5-3 2-8 6-2 2 1-1 17-4 13-2h18l1 1h-1l-14 4-11 1-9 1-12 2c-2 0-5 0-7 2h2c5-2 10-1 15-1l12 2 15 4 1 1h-1l-5-1-12-1a225 225 0 01-29-3h-3c0 3-1 4-3 4zm-33 24v-1l-1-2c-2-2-2-2-4-1l-1 1v1l6 2z" fill="#8EDAA7"/><path d="M152 163l1-2 7-13 3-6 2-4v-2l-3 1-3 5c-1 8-6 13-11 18l-4 2h-1v-1c3-1 4-3 5-5l3-6 1-4c2-3 4-7 7-9l1-2-4-1-2 2-2 4-3 8-4 5-4 4c-3 3-7 4-12 5h-1v-1l2-1 5-4 9-10 5-8c1-2 2-4 5-5l-2-1-4-1c-1-1-2-1-3 1l-5 8-8 9c-3 3-7 5-12 6a46 46 0 01-16 2h-1l1-1a45 45 0 0029-16c3-4 6-7 11-9v-1-1l-5-1c-1-1-2 0-3 1l-5 6-8 9c-4 4-9 6-14 8l-13 2-9-2v-2l1 1c9 1 17-2 25-7l4-3 4-5c4-4 7-7 12-8l2-1-1-1-6-2c-1-1-2 0-3 1l-13 11a39 39 0 01-36 7l-3-1-2-1 1-1h2c7 1 13 1 19-1l16-7c4-3 9-6 15-8l1-1-1-1-11-4-2 1-2 4-7 7-12 5c-4 2-9 2-13 1l-10-2h-2v-1h2l21-3c5-1 9-3 13-6l9-6v-1l-6-3-2 1-2 3-4 4-13 7-15 3-3-1-9-1-6-1h-1v-1h2a94 94 0 0040-9l8-4 1-1-1-1-6-3-3 1-3 4-4 3c-7 4-15 6-23 6l-10-1-13-4-1-1h1l9 1h19l14-5 9-4 1-1-1-1-7-3h-1l-6 4c-3 3-7 4-10 5a65 65 0 01-34 0v-1h2l16-2 22-4c3-1 5-1 7-3h1l-2-1c-4-2-3-2-6 0-5 3-11 5-17 6l-15-1-5-1-10-4c-1 0-2 0-1-1h9l17 1 5 1 15-3 2-1-2-1-3-2h-4a59 59 0 01-14 3c-8 0-16-1-23-4l-11-4-1-1h1l13 2 8 1 9 1 10 1h6l1-1s0-1 0 0l-4-2-15-5-9-4-10-5-10-5-1-1h1l8 1 14 4 16 8 8 5 6 4-1-2-7-5-12-11a114 114 0 00-19-11v-1h1l4 1 16 8 11 7c3 3 6 5 7 8l2 3 2 4 2 2 6 3h1l-2-3-10-12-7-9-6-6-9-8-5-4-1-1-1-1h1l9 4a95 95 0 0125 25l7 13v1l4 4 5 2h2l-1-1-1-3-8-11c-2-4-5-9-9-13L58 64 47 54l-1-1v-1h1l13 8c6 4 10 9 14 14l7 9 5 10 5 12c0 2 1 2 2 3l5 2h2v-1l-3-4-3-5-6-11-7-10-6-10a98 98 0 00-16-18l-1-1h1a116 116 0 0141 53l2 8 2 2 6 1 1 1-1-2-8-17-11-20-6-9-6-7-3-4-3-4v-1l2 1 9 7 9 11a102 102 0 0119 37v6l1 2 1 1 7 2v-1l-6-15c-3-8-5-17-10-25l-7-13-8-9-1-1v-1h1l3 2 12 12c3 3 4 7 6 10a160 160 0 0112 34l1 6 2 2 4 1c0 1 0 0 0 0v-2l-5-11-4-14-3-8c-4-8-7-16-12-23v-1h2l4 5 5 6a85 85 0 0111 30l2 13 2 5 1 2 3 1-1-1-2-7-1-3-4-16-4-14-1-4-5-9-2-2v-1h1l5 4 4 6 7 15 3 15v10l1 5c1 3 1 3 5 4l-3-9c-2-7-2-15-3-22l-2-16-2-4-5-3-3-4 8 4v-2l-2-4v-1l2 1 3 5 6 8a35 35 0 0112 33l-2 13-1 3 1 2 5 1c1 1 1 0 1-1l-1-9V95c-1-5-3-10-6-14l-1-4v-1l8 10c4 6 5 13 5 20a64 64 0 01-3 21v3l1 1 4 1v-11l1-8V98l-2-7v-2l2 1 4 9c2 6 2 12 1 18l-4 11v3c0 2 0 2 3 3v-9l3-9 1-12v-2 1c2 4 3 7 3 11-1 6-2 12-5 18v1c-1 2-1 2 1 2l26 7 12 2h1v3h-2l-12-1a135 135 0 01-27-7l-2 1v1c1 4-1 8-3 11-1 4-4 7-7 10l-3 2-3-1zm-6-37v-1l-1-6 1-10c1-5 1-11-1-16l-6-11-1-1v3c2 6 3 13 3 20v11l2 9v1l3 1z" fill="#8EDAA7"/><path d="M214 113l-1 1-9 9c-3 3-9 3-12 1l-5-5-1-2 1 3 9 21 3 3-1 2h-4l-2-4c-3-4-4-9-6-14l-3-12-1-1v2l-4 8c-2 4-7 5-11 3l-8-5-3-5-1-1h7l3-1c2-1 2-2 2-3-1-2-2-3-4-3h-2l-3 2-2 1c-2 2-5 2-7 0l-5-7-2-4v-2l5 2 11 1h1c1 0 2-1 2-3 1-1 0-2-1-3h-5l-6 1h-7l-3-4-2-5-1-4v-6l1-1h1l6 5 10 4h6c2-1 2-1 2-3-1-2-3-4-5-3-5 1-9 0-12-3l-4-4c-3-3-4-7-3-11 0-4 2-9 4-14 0 0-1 0 0 0v-1l1 1 6 10 7 9c1 1 3 3 5 3l3 1 2-2-1-2-2-1c-4 0-6-2-9-4-5-6-8-12-8-20l1-4a57 57 0 016-11h1v4c1 6 2 11 5 16 1 4 3 7 6 10l3 1c1 0 2 0 2-2l-1-3c-4-3-6-7-7-12s-2-10-1-15l1-6c1-3 3-6 7-8l6-3 6-3 1-1h3c2 3 6 5 9 6 4 1 5 3 6 7v6c0 4-2 7-4 10l-4 5-4 6 1 3 2-1c3-1 4-3 5-5a57 57 0 008-23l1-1 4 4 5 12v4l-2 3-10 13-12 9-1 2 3 2 2-1a57 57 0 0022-24l2-3 1-1 1 1c2 3 4 5 5 9l1 6v4c-2 4-4 6-7 8-6 5-12 8-19 10-1 0-2 0-3 2v2c0 1 1 2 2 1l5-1 10-7c5-3 9-6 12-10l2-3 1 2 1 7v18l-4 6c-4 2-8 2-12 2l-7-2h-2l-2 1c-1 1 0 2 1 3l3 1h13l8-4h1l-3 8-4 3c-5 2-10 1-15 0l-3-1c-2 0-3 1-4 3s0 3 2 4c4 2 7 2 11 0l1 1zm-17-38l4-1a59 59 0 0020-16v-1h-2l-1 1-1 1-7 7c-4 4-8 6-12 8l-1 1zm-38-10c1-1 2-2 1-3l-2-1-4-4-1-1h-2v1l3 5 2 2 3 1zm66 5l-3 2-2 4-1 1h1c3 0 4-2 6-3l1-2-2-2zm-54 57c3-1 5-3 6-6l-1-2-2 1-1 3-3 1-1 1h-1l1 1 2 1zm-24-36l1-1v-1l-1-1-6-3h-2v2l1 1 5 3h2zm19-66v3h2l1-4 1-1v-2h-3l-1 4zm21 68l2-1-1-2-2-1c-1 0-3 1-2 2 0 1 2 3 3 2zm-16-9h-1l-1 1 1 2 2 1 3-1-1-2-3-1zm1 10l2 1 3-2c0-2-1-3-2-3-2 0-3 3-3 4zm13-13l2-3c0-2-1-2-2-2l-2 3c0 1 0 2 2 2z" fill="#248E94"/></svg>