<svg width="411" height="377" fill="none" xmlns="http://www.w3.org/2000/svg"><path d="M170 35l4-7c1-2 0-2-1-4l-16-11-2-3h-3c-2 2-4 3-5 6l-8 9c-2 1-2 2-1 4l3 5 1 2-5-3c-3-3-4-2-6 0l-4 8c-1 4-3 8-6 10v2c2 2 3 4 6 5l8 6-2-1-13-4c-2-1-2-1-3 1-1 4-2 7-1 11l1 11v22l-1 17 2 7 3 6 3 2a96 96 0 0120 9h-4l-16-1c-2 0-3 0-3 3 0 7 1 13 3 20l2 14 5 17 5 7 5 1c7-1 15-2 22-1h1l-1 1-18 6h-2v4l5 4c6 5 11 11 15 18l7 11c4 5 9 9 15 12l19 7 11 5 14 8c5 3 11 6 17 6 3 0 7 1 11-1 3-2 6-1 10 1l18 7a222 222 0 0056 11 579 579 0 0022 0l2-3c0-2-1-2-2-3l-4-1h-12l-17-2a255 255 0 01-58-14l-5-2v-2l2-4c4-7 5-14 3-22l-6-12c-2-4-4-7-3-11v-8c1-10-2-19-6-27l-5-9-4-7c-1-2-2-2-4 0l-19 18 1-2 15-21c1-2 1-2-1-4l-12-11c-1-2-2-2-3-1l-4 5-10 13 1-3 10-21v-5c-1-4-4-8-7-12l-4-6c-2-3-1-7 2-10 6-4 8-10 7-17-2-10-6-19-11-28l-8-14-3-11c-1-7-6-13-13-16l-6-3c-2-1-3-1-4 1l-4 5h-1z" fill="#65BD83"/><path d="M219 192l1 2v21c-1 7-6 14-14 16h-11l-3-1 5 3c11 5 22 10 35 12l6 2c2 0 2 0 2 2l-1 1c0 3-1 4-4 4l-6-2c-9-2-17-6-25-10l-17-9-2-2 2 4 5 13c2 7-2 14-8 17s-11 3-17 3l-9-1-2-1c0-2 1-2 2-2l6-6 2-4c1-3 1-5-1-6-3-2-6-2-8 0l-3 4v4l-1 5c-1 5-4 7-9 8l-14-2-7-3-2-2 8-4c5-3 10-7 14-12v-1c2-2 2-4 1-6l-6-1-5 5-5 8c-3 3-6 6-10 7l-8 1-8-4-6-5-7-7v-1l1-1 13-2c6-1 11-4 16-7 3-2 6-4 7-7 1-2 1-3-1-5-3-2-8-1-10 2-3 7-10 9-17 10l-9 1c-7-1-12-4-16-9-5-6-9-13-12-21v-2h2l18 5c6 2 12 2 18 2l10-2 4-3v-4l-3-2-4 2c-4 4-9 5-14 5-13 0-24-5-34-13l-4-7-4-15-1-3 1-2 1 1 5 4c7 5 15 10 24 13 5 2 12 4 18 3l4-2c2-1 3-2 1-4l-5-2c-8 0-15-2-22-6l-19-16-5-9c-3-5-3-11-2-17l4-11c2-3 3-7 3-12v-2c0-2 0-3 3-2 7 1 13-1 19-4 5-2 10-2 14 0 3 2 6 4 8 8 3 5 5 11 6 17l1 10 4 11c0 2 1 3 3 3s2-2 3-3c1-5 0-9-1-13a95 95 0 00-18-35v-2h10c7 1 13 3 20 8l4 5 2 5c2 9 3 18 2 26 0 9 0 17-3 25l2 4c2 1 3 0 5-2l1-3a94 94 0 00-1-53l-3-6 1-2h2c5 0 11 1 16 4l9 5 4 6c2 6 2 12 2 18-1 11-4 22-11 32-1 2-2 4-1 6 0 2 1 3 3 3 1 1 3 0 4-1l4-7 4-20c1-9 2-17 1-26l-1-6 4 2 9 6c8 7 15 14 21 22 2 3 3 7 2 11-2 7-6 12-11 16l-10 7-3 2c-2 1-2 3-1 4l4 2 6-3 14-16a31 31 0 005-14h1c2 4 5 8 6 13l-1 8c-4 8-10 13-17 17l-5 3c-3 2-3 4-1 8 1 2 3 4 6 2 7-2 12-5 14-13h1zm-64-24c3-2 3-5 4-7 4-11 6-24 6-36l-1-4-2-2-2 2v22c0 8-2 15-4 22-1 1-2 1-1 3zm-56 33c1-2 0-4-2-4h-3l-9 1h-4l-2 1 2 2 9 2h5l4-2zm83-71v5l1 8 1 1c1 1 2 0 2-1l2-10-2-4c-1-1-3-1-4 1zm3 129c3-4 4-10 1-14-1-1-2-2-3-1-2 0-2 1-1 3l1 5-1 5-1 2v1l2 1 2-2zm-69-14l1-2-3-1h-2l-10 4c-1 0-2 0-2 2l2 2h2c3-1 7-1 10-3l2-2zm-56-99l5 3c1 0 2 0 1-2l-2-6-2-2-2-2c-2-1-4 1-3 3 0 3 2 5 3 6zm106 55v-3l-2-2-5 2c-2 0-2 3 0 4 1 1 6 0 7-1zm-29 8a2260 2260 0 01-2 4l3 1 3-1 2-5c0-2 0-2-2-2s-3 1-4 3zm11 10h4v-7h-5c-1 2-1 6 1 7zm-1-30c2-2 2-5 0-6s-4-1-4 1c-1 2 0 3 1 5 1 1 2 2 3 0z" fill="#248E94"/><path d="M348 263l-1-2c1-9-1-17-3-25l-2-10-1-7c-1-1 0-2-2-2s-3 1-3 3l2 10c4 11 4 22 1 34l-2 6-1 1-1-2c2-3 1-7 1-10l-2-11-1-6c-2-7-2-13-1-20v-2l-6 2-1 4 1 7 4 14v10l-2 9c-1 7-5 13-11 19h-2l1-3 3-10c2-8 2-15 1-23l-1-15c0-4 1-7 3-10v-1h-3l-7 3c-3 0-3 1-3 4l1 15-1 19c-2 8-5 15-9 20-5 7-11 13-18 17l-2 2h-1v-2a73 73 0 0022-48c0-8 2-16 5-23l1-2h-2l-7 3c-3 0-4 2-4 4v13c0 6 0 12-2 18-1 10-5 18-11 25-4 6-9 11-14 15-4 3-9 4-13 5l-2 1v-2h1c13-8 21-19 26-33l2-8 1-11c1-7 3-15 7-21l2-4h-2l-9 3c-3 1-3 1-3 4-2 9-3 19-6 28-4 10-9 19-17 27-6 7-14 12-24 16l-5 2h-4l1-1 4-3c8-5 16-11 22-19s10-17 14-26l12-24 1-2h-3l-17 5c-2 1-3 1-3 3l2 7c1 6-1 11-3 17l-10 18c-4 6-9 11-16 14l-15 7-3 1-1-2 2-2c10-6 19-14 26-23 5-6 9-13 11-21l5-16a2584 2584 0 01-1-2l-10 3-2 2v7c1 3 0 6-1 9-3 7-6 14-11 21-4 7-10 13-17 18l-4 3-11 6-10 5-2 1v-1l2-2a152 152 0 0050-63l1-3h-4l-10 3c-2 0-2 0-2 3v9l-2 7c-6 12-14 22-24 30l-14 8-22 7h-2c-1-1 1-1 1-1l12-7c10-5 19-11 26-19l13-19 8-13v-2l1-2h-2l-12 3-2 2-4 10c-1 7-5 12-9 17a106 106 0 01-43 32h-1l-1-1 2-3 20-17c9-8 18-18 25-27l7-10v-2l-4 1c-6 1-5 0-7 6-5 9-10 17-17 24-6 6-13 10-20 14l-7 2-18 6h-2l2-2 8-6 2-1 24-15 7-5c6-5 12-10 17-17 0-1 2-2 1-3h-4l-5 1-5 2a95 95 0 01-16 19c-10 7-21 12-33 16l-18 5-2 1-1-1 1-1 19-10 11-6 14-7 13-9 8-7v-1h-1l-7 1-23 8-15 4-18 3-18 3h-3l2-2 12-6c6-4 14-6 22-8l28-4 15-2 11-1-3-1h-13c-9-2-18-2-27-2l-31 2-4 1-1-1 1-1 6-2c10-4 19-5 29-6l21-1c6 1 12 1 17 3l4 2 7 4h5l10-2 2-1-5-2-26-5-17-5-14-2-19-2H99h-2l-1-1c-1-1 0-1 1-1l15-4a154 154 0 0157 9l22 11c3 2 6 2 9 1l9-2 2-1-2-1-5-2-19-7c-8-4-16-6-24-8l-30-7-24-3h-2l-1-1 2-1c8-2 16-2 24-2 11 0 21 2 32 4 6 1 11 4 16 6l17 7 18 12c2 1 3 2 5 1l9-3 3-1-1-1c-2-2-5-3-8-3l-9-3a344 344 0 00-74-26c-6-2-13-3-19-3l-2-1c0-2 1-1 2-1a187 187 0 01104 29l10 8 4 1 9-3 2-1-2-2-28-14c-10-6-21-11-33-16l-17-5-14-4-7-1-9-3-1-1h1l4-1c6-1 12 0 18 1l22 5a165 165 0 0160 31l6 6 3 2h2l12-4-1-2c-8-2-15-7-22-12-12-9-24-18-38-24l-21-9c-6-2-12-4-19-4l-2-1-2-1 2-1h5c9 0 19 1 28 4a259 259 0 0164 39l8 7c2 1 3 2 5 1l6-2v-2l-2-1c-6-2-11-6-16-10l-20-14-11-7c-12-7-24-15-37-19l-1-1-1-1h2l10 1c5 0 9 2 14 4a137 137 0 0142 28l16 14 7 6h3l4-1-1-1-10-7-4-3-21-17-18-14-6-3c-5-3-10-6-15-7l-3-1-2-1c0-2 2-1 2-1h10l11 4c8 4 16 7 23 13 7 4 13 10 18 17l10 11 7 7c4 3 3 3 9 1v-1c-5-2-9-6-12-9l-25-25-19-19c-2-2-4-2-6-2l-10-1c-2 0-4 0-6-2l13-2c0-2-1-2-2-2l-5-4-1-1 2-1 8 4c6 3 12 3 17 4a56 56 0 0148 31l9 19 2 5 3 1 8-3v-2c-5-3-8-7-10-12-7-11-16-22-25-31-6-6-13-10-20-13l-6-4c-1-1-2-1-1-2 7 2 14 2 20 5 11 5 20 13 27 22s11 18 15 28l1 3 2 3 3 1 6-3-11-13-7-13c-3-7-7-13-13-19l-10-8-2-1 1-1h2l15 8c8 5 13 13 17 22l7 17 2 5c2 3 3 2 7 1-5-3-7-8-8-12l-5-15-11-16-2-2h2c5 4 10 7 13 12 6 9 10 18 12 28l1 2c0 2 1 2 3 1 13-4 27-10 40-16l17-9 3-1c2 0 3 2 2 3l-2 3-16 10a218 218 0 01-43 18c-1 1-2 1-1 3h1c4 5 6 12 7 18v19l-2 6-5 1zm-43-42l-1-1-7-7-8-14c-5-7-10-15-18-20l-18-7h-2l3 2c9 7 17 15 24 24l10 13 10 11 2 1 5-2z" fill="#8EDAA7"/></svg>