<svg width="430" height="348" fill="none" xmlns="http://www.w3.org/2000/svg"><path d="M303 67l-3-2-6-4-7-10-1-5c-2-5 0-8 3-12l14-13 13-11 6-2c2 0 4-1 6 1h2c3 0 5 2 7 4 4 5 7 10 9 16l5 19 4 10-1 2-5-1-3 1 3 1c2 0 5 1 6 3l3 3v20l-3 20-2 10-2 11 1 5-1 5c0 2-1 2-2 2h-12l5 1 6 2c2 0 2 1 2 3l-3 4-2 11c-3 11-6 21-13 30-1 2-2 3-4 2l-4-2h-17l-3 1 3 2 3 6 4 6v3c-5 4-9 9-11 15a41 41 0 01-9 13c-3 3-6 6-10 7l-17 7-9 5-10 5c-4 3-9 3-13 1-2-1-3 0-5 1a282 282 0 01-40 25 366 366 0 01-47 16l-16 3h-5l-1 1-4-4 3-4 6-1a330 330 0 0039-10l15-6 23-11 21-13c2-2 2-2 1-4-1-3-2-7-1-11 1-6 0-11-1-16l1-15 3-9 1-4h2c1 2 4 3 7 4l14 7-7-7-8-5-4-5v-5l6-17 5-6 3-5v-1h2l6 8c3 4 7 6 12 9l-4-6-5-6c-2-4-4-9-7-12l-1-6 3-6c3-5 3-10 3-15v-9c0-4 1-7 3-10l6-12c2-4 4-8 4-13l4-19a37 37 0 016-12c1-1 2 0 2 1 2 4 4 6 8 9l9 4 6 2z" fill="#65BD83"/><path d="M258 206l-4 2-2 2-15 10-12 9-13 9-24 20c-1 1-2 1-3-1l-1-2v-3l11-9 14-10 14-11 15-10 6-4 22-13 1-1-1-1-6 1-7 4-2 1h-6l-3 2c-3 2-5 3-8 3-3-1-4-3-3-5l3-6 2-2-1-2c-2-2-4-3-7-3l-7-1h-9l-3-1c-1-1-2-2-1-4 1-1 1-1-1-2l-1-2-1-4c1-2 1-2-1-3l-2-1c-2 0-3-2-3-3-1-2 0-3 1-5h6l9 3 12 6 6 1 2-1-1-2-4-3-3-4-5-10-1-6c0-3 2-4 5-3l4 3 2 1h1v-1l-1-5-1-5c1-3 3-4 6-3l4 4c2 2 3 4 6 5l4 2 2 3 2 7 2 9c0 6 3 11 7 14 1 2 3 2 4 2l2-1-1-6-1-3-6-8-1-2c-2-1-2-4-1-6v-4l-5-11-1-9 1-3c2-1 3 0 4 1l4 5 3 8 2 2c3 2 5 5 5 9l1 4 2 9c0 2 1 4 3 5l2 2c1 1 2 0 2-1l-1-4a671 671 0 01-3-10l-2-9-1-2-3-5c-1-3-1-6 2-7l2-5c0-3 0-6 2-9 0-2 1-3 2-3 2-2 3-1 4 1l1 5 1 5v7c0 4 2 6 4 9l2 6v11l1 8 1 2h3l2-4c1-4 0-9-1-13l-4-7c-1-2-2-4-1-7 1-2 0-5-1-7l-3-5c-1-3 0-7 1-10 2-3 4-3 5-1l4 8 1 3c1 1 2 3 4 3 4 2 5 4 5 8v2l1 4c2 2 2 5 2 7l-1 7v4l2 2c1 1 3 0 3-1l1-7c-1-4-1-9-3-12l-1-3c-1-3-1-7 2-10l1-5 1-8 1-3c0-2 1-2 2-1l2 1 4 8 1 9v4l1 6v6l-1 4v3l2 2c1 1 2 0 3-1v-2l1-7v-7c0-2 0-4 2-6l1-4 1-7 2-4 3-1 2 1 2 4v2l1 4c2 2 2 4 1 6l-1 3v1c-1 2 0 2 1 3l2-1 4-5 2-5c3-6 7-8 13-10l5 1c3 2 4 5 1 8l-3 5-1 2 2-1 3-1c3-1 5 2 5 5v1c0 2-1 3-3 4l-2 3c1 2 2 2 3 2h12a1775 1775 0 014 3l-2 3-5 2-28 6h-5l-2 1 2 2 6 1c3 1 5 2 6 4l2 1c1 2 3 3 5 2l4 1 2 2 3 2 4 1 2 2c2 1 2 3 0 4l-5 2h-7l-6-1c-2-1-3 0-5 1l-5 1-5-2-11-7c-2-1-3-3-5-3l-5-1-2 1v2l6 4 6 2c2 1 3 2 3 5l1 2 5 3 12 9 3 4c1 1 0 2-1 3l-3 1c-5-1-9-2-12-5l-2-1h-6l-3-4-10-11-7-4-4 1-1 2 2 2 5 4 6 3c2 0 4 2 5 3l1 3 1 3 7 5c4 4 8 7 10 12 1 1 2 3 1 4l-4 1c-3-1-6-2-8-5l-3-3-2-1-5-2-3-3-7-6-11-12-5-3h-2l-2 1 3 4 5 5c3 1 4 2 5 4l4 5 3 2c2 0 3 1 3 3l4 5 10 7 7 5 2 1-1 5-3 1c-3-1-7-2-10-5l-4-2-3-2-5-1c-4-3-6-6-8-10-1-3-3-5-6-6-5-2-8-6-12-10l-5-5-3 1-1 3 2 3 6 5 3 2 7 3c3 1 5 4 4 7l2 4 9 10 4 6 2 2a2941 2941 0 001 7h-4l-3-2-11-9-6-3c-4-1-7-3-9-7l-7-13-4-4-2-1c-2 0-3 0-3 2-1 2-1 4 1 6l6 5c4 3 6 6 7 10l1 1c0 3 1 4 3 6l2 5 2 4c2 2 3 4 3 7v4c-1 2-3 3-5 2l-8-6-5-5-1-1-2-1v3l1 7v2c0 2-1 3-3 3-3 0-5-1-6-3l-6-9-5-8-1-3h-3l-3 7-3 9-1 2c-1 2-2 3-4 2-2 0-3-1-3-2l-2-6v-11l2-8 3-5 2-5 2-2v-2c-2-1-3-2-2-5l2-4c2-1 2-2 1-4-1-1 0-3 1-4l-1-2z" fill="#248E94"/><path d="M281 240a260 260 0 0123 41l7 21 1 12-1 1-1-1-5-12-5-14-11-21-8-15c-2-3-4-8-4-12 0-2 0-3-2-4l-6-4 1 4 15 28a77 77 0 0110 49h-1l-1-2-2-8c-2-10-6-19-11-29l-10-19c-3-7-5-14-4-22 0-3-1-4-3-5l-5-2c-1 1 0 2 1 4l6 20c1 4 3 9 6 13l5 12 5 14 3 15-1 3-2-2-5-15-8-15-6-12-8-21-2-8 2-8c0-2 0-2-2-3l-4-2 1 6 3 15c1 10 3 20 7 29l9 17 6 11v3l-1-1-2-2-9-12c-7-9-13-18-17-29l-3-18c-1-7 1-13 2-19 1-2 1-2-1-3l-8-4-2-1-1 2 3 18 3 16 6 16 5 11c4 7 7 15 8 23v2c-1 1-1-1-2-2-2-5-5-11-9-16l-11-19c-6-10-9-21-9-33 0-5 0-10 2-15s2-5-3-7l-4-2c-2 0-2 0-2 2l1 9v6l4 26 6 13 6 19 2 11-1 1h-1v-1c-2-8-7-15-10-22l-4-7c-1 9-3 18-7 26v-5l1-18-2-14c-1-9-3-17-6-26-2-6-3-11-3-17l1-6c0-2-1-3-3-4l-7-2v1l5 13c2 6 5 12 6 19l3 22c0 9-2 17-5 25l-1 1-1-1v-2-15c0-9-1-17-3-25l-5-21a46 46 0 01-3-17c0-2-1-3-2-3l-6-2-2-1v2a3946 3946 0 018 29l1 10 2 17 1 13 1 10 1 9v2h-1l-1-2-10-35-2-10a512 512 0 01-4-39v-5l-1-2-10-3 2 4c2 5 3 10 3 16l2 28 3 24 2 18 1 5v2l-2-1-2-6-8-27-2-15-2-18a149 149 0 010-21l1-7c0-1 0-2-2-3-4-1-4-1-5 3v11l-2 17v8l-1 10-1 16a314 314 0 000 26v4c-2 0-2-1-2-2l-4-21-1-12a132 132 0 011-33c0-7 2-14 4-21l2-5c1-3 1-3-1-4-5-1-5-1-6 3l-7 25-7 29c-1 7-4 13-6 19l-2 3-1 1-1-1 1-6 4-26 2-19c2-8 5-15 10-22l5-6c1-2 1-2-1-2l-5-2-2 2c-2 6-6 12-9 17l-8 16-12 29-1 2h-1v-1-1l3-18c2-10 4-20 9-28l10-15 5-3 1-2-7-1-2 2-7 11a191 191 0 00-24 43l-2 1v-2l1-5c2-12 7-23 13-33 2-5 6-9 10-13l6-4c-2-2-7-3-9-2l-1 1-1 2c-2 5-6 9-11 12l-11 8c-4 4-7 8-9 13l-1 1-1 1v-2c0-5 2-9 5-13 5-9 12-16 21-21l5-3v-1l-27-4-24-1-24-1H19l-13-1-3-2c-2-2-2-5 0-6l4-1h26l30 1 28 3 22 3c3 1 3 1 4-2 2-3 2-7 3-10a49 49 0 0122-26l3-1-2 2-8 10-8 14-6 12c-1 0-2 1-1 2h4l1-2c2-7 7-14 12-20 6-8 14-12 23-15h1l-1 1-15 16-16 18c-2 3-2 3 2 4h2c3 1 3 1 4-1 2-8 7-14 12-19l11-11 12-7 4-2-1 2c-7 5-12 12-17 18-6 7-11 14-17 19l-1 2c0 2 1 1 2 2l4 1 3-1c3-12 11-19 19-27 6-5 13-10 20-13l6-2h1l-1 2c-3 1-7 3-10 6l-15 15-9 11-7 7-2 2c-1 1 0 1 1 2l4 1h2l2-3c3-7 9-12 15-17 8-7 17-13 27-18l14-5c2 0 3-1 4 1l-3 1c-10 4-19 12-28 19l-24 20-4 3 9 2h1l1-1c2-5 6-8 9-11a230 230 0 0146-29l11-4 2 1-2 1c-7 3-14 8-20 12l-14 10-13 10-13 10-4 2 1 1 9 3c2 0 3 0 4-2 1-5 4-8 6-12a119 119 0 0155-33l7-2 1 1v1l-2 1-28 17-15 11c-6 5-13 10-18 16l-3 3v2c3 1 4 1 5-1 4-9 11-14 19-18l23-11c8-3 15-8 22-12l6-4h1v2l-5 5a156 156 0 01-41 27l-21 12-2 1v2l10 4c2 0 2-1 2-2l5-7 5-4c6-5 13-10 20-13l12-6 16-7 17-7h1l-1 3-11 8c-8 5-15 10-23 13-12 6-22 13-33 21l-4 2 6 4c4 2 4 2 7-2 1-3 3-5 5-6l4-3 13-10 29-14 10-4 18-7h2v1l-19 14c-6 4-13 8-21 11l-28 14-12 9 1 1 9 4h3c3-7 9-12 15-16s12-8 19-10l18-4 27-6h3l-2 1c-7 5-15 8-23 11l-31 11-22 13c-2 2-2 2 0 4 3 1 3 1 4-1l11-10a90 90 0 0147-10l18 2h1l2 1-2 1-15 1-6 1a123 123 0 00-48 14l-5 2v2l8 4h2l1-2c2-4 6-7 10-8 8-4 16-6 24-7 12-2 24-1 35 2l3 1-2 1h-7c-6-1-13 0-20 1l-17 4-15 5-7 3-4 2 5 3h2c4-5 10-7 17-9l6-1c7-2 15-2 23-2 9 0 17 2 25 4l1 1h-26a161 161 0 00-43 10c2 3 3 3 5 1 5-3 11-4 16-4a96 96 0 0145 6l12 5 1 1h-3l-14-3-15-1c-11-1-21-2-32-1l-7 1 6 4h3c4-2 9-3 13-3h5l20 4 18 7 17 9 1 1h-2l-10-2-26-8-18-3-14-1h-1l6 5h2c10-2 19 1 28 5 9 3 16 9 23 15l7 7 3 2h-1l-6-2-21-12-7-3-16-6-5-2 2 2h1c9 6 16 13 23 20l17 17c6 7 11 13 14 22l3 4v2h-1c-6-7-14-11-20-18l-13-13c-3-5-8-9-12-13l-13-15c-3-4-6-7-11-9l3 3c7 6 11 14 15 21l11 20c4 8 7 16 9 25v2c-2 1-2 0-2-1l-3-7-12-20a400 400 0 01-24-44l-3-4c-6 2-8 1-9 0zm-69-24h1l1-4c2-6 2-5-2-7h-1c-2-1-2 0-2 1l3 10z" fill="#8EDAA7"/></svg>