<svg width="466" height="640" viewBox="0 0 466 640" fill="none" xmlns="http://www.w3.org/2000/svg">
    <rect x="0.5" y="0.5" width="465" height="632" rx="15.5" fill="#7B97BC"/>
    <rect x="0.5" y="0.5" width="465" height="632" rx="15.5" fill="white" fill-opacity="0.9"/>
    <rect x="0.5" y="0.5" width="465" height="632" rx="15.5" stroke="#D3DCE9"/>
    <path d="M32.168 38.918H27.8203V36.1758H32.168C32.8398 36.1758 33.3867 36.0664 33.8086 35.8477C34.2305 35.6211 34.5391 35.3086 34.7344 34.9102C34.9297 34.5117 35.0273 34.0625 35.0273 33.5625C35.0273 33.0547 34.9297 32.582 34.7344 32.1445C34.5391 31.707 34.2305 31.3555 33.8086 31.0898C33.3867 30.8242 32.8398 30.6914 32.168 30.6914H29.0391V45H25.5234V27.9375H32.168C33.5039 27.9375 34.6484 28.1797 35.6016 28.6641C36.5625 29.1406 37.2969 29.8008 37.8047 30.6445C38.3125 31.4883 38.5664 32.4531 38.5664 33.5391C38.5664 34.6406 38.3125 35.5938 37.8047 36.3984C37.2969 37.2031 36.5625 37.8242 35.6016 38.2617C34.6484 38.6992 33.5039 38.918 32.168 38.918ZM44.2563 35.0859V45H40.8813V32.3203H44.057L44.2563 35.0859ZM48.0766 32.2383L48.018 35.3672C47.8539 35.3438 47.6547 35.3242 47.4203 35.3086C47.1938 35.2852 46.9867 35.2734 46.7992 35.2734C46.3227 35.2734 45.9086 35.3359 45.557 35.4609C45.2133 35.5781 44.9242 35.7539 44.6898 35.9883C44.4633 36.2227 44.2914 36.5078 44.1742 36.8438C44.0648 37.1797 44.0023 37.5625 43.9867 37.9922L43.307 37.7812C43.307 36.9609 43.3891 36.207 43.5531 35.5195C43.7172 34.8242 43.9555 34.2188 44.268 33.7031C44.5883 33.1875 44.9789 32.7891 45.4398 32.5078C45.9008 32.2266 46.4281 32.0859 47.0219 32.0859C47.2094 32.0859 47.4008 32.1016 47.5961 32.1328C47.7914 32.1562 47.9516 32.1914 48.0766 32.2383ZM48.8797 38.7891V38.543C48.8797 37.6133 49.0125 36.7578 49.2781 35.9766C49.5438 35.1875 49.9305 34.5039 50.4383 33.9258C50.9461 33.3477 51.5711 32.8984 52.3133 32.5781C53.0555 32.25 53.907 32.0859 54.868 32.0859C55.8289 32.0859 56.6844 32.25 57.4344 32.5781C58.1844 32.8984 58.8133 33.3477 59.3211 33.9258C59.8367 34.5039 60.2273 35.1875 60.493 35.9766C60.7586 36.7578 60.8914 37.6133 60.8914 38.543V38.7891C60.8914 39.7109 60.7586 40.5664 60.493 41.3555C60.2273 42.1367 59.8367 42.8203 59.3211 43.4062C58.8133 43.9844 58.1883 44.4336 57.4461 44.7539C56.7039 45.0742 55.8523 45.2344 54.8914 45.2344C53.9305 45.2344 53.075 45.0742 52.325 44.7539C51.5828 44.4336 50.9539 43.9844 50.4383 43.4062C49.9305 42.8203 49.5438 42.1367 49.2781 41.3555C49.0125 40.5664 48.8797 39.7109 48.8797 38.7891ZM52.2547 38.543V38.7891C52.2547 39.3203 52.3016 39.8164 52.3953 40.2773C52.4891 40.7383 52.6375 41.1445 52.8406 41.4961C53.0516 41.8398 53.325 42.1094 53.6609 42.3047C53.9969 42.5 54.407 42.5977 54.8914 42.5977C55.3602 42.5977 55.7625 42.5 56.0984 42.3047C56.4344 42.1094 56.7039 41.8398 56.907 41.4961C57.1102 41.1445 57.2586 40.7383 57.3523 40.2773C57.4539 39.8164 57.5047 39.3203 57.5047 38.7891V38.543C57.5047 38.0273 57.4539 37.543 57.3523 37.0898C57.2586 36.6289 57.1063 36.2227 56.8953 35.8711C56.6922 35.5117 56.4227 35.2305 56.0867 35.0273C55.7508 34.8242 55.3445 34.7227 54.868 34.7227C54.3914 34.7227 53.9852 34.8242 53.6492 35.0273C53.3211 35.2305 53.0516 35.5117 52.8406 35.8711C52.6375 36.2227 52.4891 36.6289 52.3953 37.0898C52.3016 37.543 52.2547 38.0273 52.2547 38.543ZM67.2844 45H63.8977V31.7461C63.8977 30.668 64.1164 29.7578 64.5539 29.0156C64.9992 28.2734 65.632 27.7109 66.4523 27.3281C67.2805 26.9453 68.2805 26.7539 69.4523 26.7539C70.1164 26.7539 70.7609 26.8203 71.3859 26.9531C72.0109 27.0781 72.6555 27.2422 73.3195 27.4453L72.8273 30.1523C72.3977 30.0195 71.9367 29.8945 71.4445 29.7773C70.9523 29.6602 70.3586 29.6016 69.6633 29.6016C68.882 29.6016 68.2883 29.7852 67.882 30.1523C67.4836 30.5117 67.2844 31.043 67.2844 31.7461V45ZM69.8039 32.3203V34.7109H62.0109V32.3203H69.8039ZM74.8898 32.3203V45H71.5031V32.3203H74.8898ZM81.3766 27V45H77.9898V27H81.3766ZM90.1016 45.2344C89.1172 45.2344 88.2344 45.0781 87.4531 44.7656C86.6719 44.4453 86.0078 44.0039 85.4609 43.4414C84.9219 42.8789 84.5078 42.2266 84.2188 41.4844C83.9297 40.7344 83.7852 39.9375 83.7852 39.0938V38.625C83.7852 37.6641 83.9219 36.7852 84.1953 35.9883C84.4688 35.1914 84.8594 34.5 85.3672 33.9141C85.8828 33.3281 86.5078 32.8789 87.2422 32.5664C87.9766 32.2461 88.8047 32.0859 89.7266 32.0859C90.625 32.0859 91.4219 32.2344 92.1172 32.5312C92.8125 32.8281 93.3945 33.25 93.8633 33.7969C94.3398 34.3438 94.6992 35 94.9414 35.7656C95.1836 36.5234 95.3047 37.3672 95.3047 38.2969V39.7031H85.2266V37.4531H91.9883V37.1953C91.9883 36.7266 91.9023 36.3086 91.7305 35.9414C91.5664 35.5664 91.3164 35.2695 90.9805 35.0508C90.6445 34.832 90.2148 34.7227 89.6914 34.7227C89.2461 34.7227 88.8633 34.8203 88.543 35.0156C88.2227 35.2109 87.9609 35.4844 87.7578 35.8359C87.5625 36.1875 87.4141 36.6016 87.3125 37.0781C87.2188 37.5469 87.1719 38.0625 87.1719 38.625V39.0938C87.1719 39.6016 87.2422 40.0703 87.3828 40.5C87.5312 40.9297 87.7383 41.3008 88.0039 41.6133C88.2773 41.9258 88.6055 42.168 88.9883 42.3398C89.3789 42.5117 89.8203 42.5977 90.3125 42.5977C90.9219 42.5977 91.4883 42.4805 92.0117 42.2461C92.543 42.0039 93 41.6406 93.3828 41.1562L95.0234 42.9375C94.7578 43.3203 94.3945 43.6875 93.9336 44.0391C93.4805 44.3906 92.9336 44.6797 92.293 44.9062C91.6523 45.125 90.9219 45.2344 90.1016 45.2344ZM110.247 42.1406V36.4922C110.247 36.0859 110.18 35.7383 110.048 35.4492C109.915 35.1523 109.708 34.9219 109.427 34.7578C109.153 34.5938 108.798 34.5117 108.36 34.5117C107.985 34.5117 107.661 34.5781 107.387 34.7109C107.114 34.8359 106.903 35.0195 106.755 35.2617C106.606 35.4961 106.532 35.7734 106.532 36.0938H103.157C103.157 35.5547 103.282 35.043 103.532 34.5586C103.782 34.0742 104.145 33.6484 104.622 33.2812C105.098 32.9062 105.665 32.6133 106.321 32.4023C106.985 32.1914 107.727 32.0859 108.548 32.0859C109.532 32.0859 110.407 32.25 111.173 32.5781C111.938 32.9062 112.54 33.3984 112.977 34.0547C113.423 34.7109 113.645 35.5312 113.645 36.5156V41.9414C113.645 42.6367 113.688 43.207 113.774 43.6523C113.86 44.0898 113.985 44.4727 114.149 44.8008V45H110.739C110.575 44.6562 110.45 44.2266 110.364 43.7109C110.286 43.1875 110.247 42.6641 110.247 42.1406ZM110.692 37.2773L110.716 39.1875H108.829C108.384 39.1875 107.997 39.2383 107.669 39.3398C107.341 39.4414 107.071 39.5859 106.86 39.7734C106.649 39.9531 106.493 40.1641 106.391 40.4062C106.298 40.6484 106.251 40.9141 106.251 41.2031C106.251 41.4922 106.317 41.7539 106.45 41.9883C106.583 42.2148 106.774 42.3945 107.024 42.5273C107.274 42.6523 107.567 42.7148 107.903 42.7148C108.411 42.7148 108.852 42.6133 109.227 42.4102C109.602 42.207 109.891 41.957 110.095 41.6602C110.305 41.3633 110.415 41.082 110.423 40.8164L111.313 42.2461C111.188 42.5664 111.016 42.8984 110.798 43.2422C110.587 43.5859 110.317 43.9102 109.989 44.2148C109.661 44.5117 109.266 44.7578 108.805 44.9531C108.345 45.1406 107.798 45.2344 107.165 45.2344C106.36 45.2344 105.63 45.0742 104.973 44.7539C104.325 44.4258 103.809 43.9766 103.427 43.4062C103.052 42.8281 102.864 42.1719 102.864 41.4375C102.864 40.7734 102.989 40.1836 103.239 39.668C103.489 39.1523 103.856 38.7188 104.341 38.3672C104.833 38.0078 105.446 37.7383 106.18 37.5586C106.915 37.3711 107.766 37.2773 108.735 37.2773H110.692ZM119.652 35.0273V45H116.277V32.3203H119.441L119.652 35.0273ZM119.159 38.2148H118.245C118.245 37.2773 118.366 36.4336 118.609 35.6836C118.851 34.9258 119.191 34.2812 119.628 33.75C120.066 33.2109 120.585 32.8008 121.187 32.5195C121.796 32.2305 122.476 32.0859 123.226 32.0859C123.82 32.0859 124.363 32.1719 124.855 32.3438C125.347 32.5156 125.769 32.7891 126.12 33.1641C126.48 33.5391 126.753 34.0352 126.941 34.6523C127.136 35.2695 127.234 36.0234 127.234 36.9141V45H123.835V36.9023C123.835 36.3398 123.757 35.9023 123.601 35.5898C123.445 35.2773 123.214 35.0586 122.909 34.9336C122.613 34.8008 122.245 34.7344 121.808 34.7344C121.355 34.7344 120.96 34.8242 120.624 35.0039C120.296 35.1836 120.023 35.4336 119.804 35.7539C119.593 36.0664 119.433 36.4336 119.323 36.8555C119.214 37.2773 119.159 37.7305 119.159 38.2148ZM136.744 42.1406V36.4922C136.744 36.0859 136.677 35.7383 136.545 35.4492C136.412 35.1523 136.205 34.9219 135.923 34.7578C135.65 34.5938 135.295 34.5117 134.857 34.5117C134.482 34.5117 134.158 34.5781 133.884 34.7109C133.611 34.8359 133.4 35.0195 133.252 35.2617C133.103 35.4961 133.029 35.7734 133.029 36.0938H129.654C129.654 35.5547 129.779 35.043 130.029 34.5586C130.279 34.0742 130.642 33.6484 131.119 33.2812C131.595 32.9062 132.162 32.6133 132.818 32.4023C133.482 32.1914 134.224 32.0859 135.045 32.0859C136.029 32.0859 136.904 32.25 137.67 32.5781C138.435 32.9062 139.037 33.3984 139.474 34.0547C139.92 34.7109 140.142 35.5312 140.142 36.5156V41.9414C140.142 42.6367 140.185 43.207 140.271 43.6523C140.357 44.0898 140.482 44.4727 140.646 44.8008V45H137.236C137.072 44.6562 136.947 44.2266 136.861 43.7109C136.783 43.1875 136.744 42.6641 136.744 42.1406ZM137.189 37.2773L137.213 39.1875H135.326C134.88 39.1875 134.494 39.2383 134.166 39.3398C133.838 39.4414 133.568 39.5859 133.357 39.7734C133.146 39.9531 132.99 40.1641 132.888 40.4062C132.795 40.6484 132.748 40.9141 132.748 41.2031C132.748 41.4922 132.814 41.7539 132.947 41.9883C133.08 42.2148 133.271 42.3945 133.521 42.5273C133.771 42.6523 134.064 42.7148 134.4 42.7148C134.908 42.7148 135.349 42.6133 135.724 42.4102C136.099 42.207 136.388 41.957 136.591 41.6602C136.802 41.3633 136.912 41.082 136.92 40.8164L137.81 42.2461C137.685 42.5664 137.513 42.8984 137.295 43.2422C137.084 43.5859 136.814 43.9102 136.486 44.2148C136.158 44.5117 135.763 44.7578 135.302 44.9531C134.841 45.1406 134.295 45.2344 133.662 45.2344C132.857 45.2344 132.127 45.0742 131.47 44.7539C130.822 44.4258 130.306 43.9766 129.923 43.4062C129.548 42.8281 129.361 42.1719 129.361 41.4375C129.361 40.7734 129.486 40.1836 129.736 39.668C129.986 39.1523 130.353 38.7188 130.838 38.3672C131.33 38.0078 131.943 37.7383 132.677 37.5586C133.412 37.3711 134.263 37.2773 135.232 37.2773H137.189ZM146.406 27V45H143.02V27H146.406ZM153.057 43.5703L156.42 32.3203H160.041L154.944 46.9102C154.834 47.2305 154.686 47.5742 154.498 47.9414C154.319 48.3086 154.073 48.6562 153.76 48.9844C153.455 49.3203 153.069 49.5938 152.6 49.8047C152.139 50.0156 151.573 50.1211 150.901 50.1211C150.58 50.1211 150.319 50.1016 150.116 50.0625C149.912 50.0234 149.67 49.9688 149.389 49.8984V47.4258C149.475 47.4258 149.565 47.4258 149.659 47.4258C149.752 47.4336 149.842 47.4375 149.928 47.4375C150.373 47.4375 150.737 47.3867 151.018 47.2852C151.299 47.1836 151.526 47.0273 151.698 46.8164C151.87 46.6133 152.006 46.3477 152.108 46.0195L153.057 43.5703ZM151.651 32.3203L154.405 41.5078L154.885 45.082L152.588 45.3281L148.03 32.3203H151.651ZM167.7 32.3203V34.7109H160.317V32.3203H167.7ZM162.145 29.1914H165.52V41.1797C165.52 41.5469 165.567 41.8281 165.661 42.0234C165.762 42.2188 165.911 42.3555 166.106 42.4336C166.302 42.5039 166.548 42.5391 166.845 42.5391C167.055 42.5391 167.243 42.5312 167.407 42.5156C167.579 42.4922 167.723 42.4688 167.841 42.4453L167.852 44.9297C167.563 45.0234 167.251 45.0977 166.915 45.1523C166.579 45.207 166.208 45.2344 165.802 45.2344C165.059 45.2344 164.411 45.1133 163.856 44.8711C163.309 44.6211 162.887 44.2227 162.591 43.6758C162.294 43.1289 162.145 42.4102 162.145 41.5195V29.1914ZM173.284 32.3203V45H169.898V32.3203H173.284ZM169.687 29.0156C169.687 28.5234 169.859 28.1172 170.202 27.7969C170.546 27.4766 171.007 27.3164 171.585 27.3164C172.155 27.3164 172.613 27.4766 172.956 27.7969C173.308 28.1172 173.484 28.5234 173.484 29.0156C173.484 29.5078 173.308 29.9141 172.956 30.2344C172.613 30.5547 172.155 30.7148 171.585 30.7148C171.007 30.7148 170.546 30.5547 170.202 30.2344C169.859 29.9141 169.687 29.5078 169.687 29.0156ZM181.412 42.5977C181.826 42.5977 182.193 42.5195 182.513 42.3633C182.834 42.1992 183.084 41.9727 183.263 41.6836C183.451 41.3867 183.548 41.0391 183.556 40.6406H186.732C186.724 41.5312 186.486 42.3242 186.017 43.0195C185.548 43.707 184.92 44.25 184.13 44.6484C183.341 45.0391 182.459 45.2344 181.482 45.2344C180.498 45.2344 179.638 45.0703 178.904 44.7422C178.177 44.4141 177.572 43.9609 177.087 43.3828C176.603 42.7969 176.24 42.1172 175.998 41.3438C175.755 40.5625 175.634 39.7266 175.634 38.8359V38.4961C175.634 37.5977 175.755 36.7617 175.998 35.9883C176.24 35.207 176.603 34.5273 177.087 33.9492C177.572 33.3633 178.177 32.9062 178.904 32.5781C179.63 32.25 180.482 32.0859 181.459 32.0859C182.498 32.0859 183.408 32.2852 184.189 32.6836C184.978 33.082 185.595 33.6523 186.041 34.3945C186.494 35.1289 186.724 36 186.732 37.0078H183.556C183.548 36.5859 183.459 36.2031 183.287 35.8594C183.123 35.5156 182.88 35.2422 182.56 35.0391C182.248 34.8281 181.861 34.7227 181.4 34.7227C180.908 34.7227 180.505 34.8281 180.193 35.0391C179.88 35.2422 179.638 35.5234 179.466 35.8828C179.295 36.2344 179.173 36.6367 179.103 37.0898C179.041 37.5352 179.009 38.0039 179.009 38.4961V38.8359C179.009 39.3281 179.041 39.8008 179.103 40.2539C179.166 40.707 179.283 41.1094 179.455 41.4609C179.634 41.8125 179.88 42.0898 180.193 42.293C180.505 42.4961 180.912 42.5977 181.412 42.5977ZM195.645 41.4961C195.645 41.2539 195.574 41.0352 195.434 40.8398C195.293 40.6445 195.031 40.4648 194.648 40.3008C194.273 40.1289 193.73 39.9727 193.02 39.832C192.379 39.6914 191.781 39.5156 191.227 39.3047C190.68 39.0859 190.203 38.8242 189.797 38.5195C189.398 38.2148 189.086 37.8555 188.859 37.4414C188.640 37.0195 188.52 36.5391 188.52 36C188.52 35.4688 188.640 34.9688 188.859 34.5C189.094 34.0312 189.426 33.6172 189.855 33.2578C190.293 32.8906 190.824 32.6055 191.449 32.4023C192.082 32.1914 192.793 32.0859 193.582 32.0859C194.684 32.0859 195.629 32.2617 196.418 32.6133C197.215 32.9648 197.824 33.4492 198.246 34.0664C198.676 34.6758 198.891 35.3711 198.891 36.1523H195.516C195.516 35.8242 195.445 35.5312 195.305 35.2734C195.172 35.0078 194.961 34.8008 194.672 34.6523C194.391 34.4961 194.023 34.418 193.57 34.418C193.195 34.418 192.871 34.4844 192.598 34.6172C192.324 34.7422 192.113 34.9141 191.965 35.1328C191.824 35.3438 191.754 35.5781 191.754 35.8359C191.754 36.0312 191.793 36.207 191.871 36.3633C191.957 36.5117 192.094 36.6484 192.281 36.7734C192.469 36.8984 192.711 37.0156 193.008 37.125C193.312 37.2266 193.688 37.3203 194.133 37.4062C195.047 37.5938 195.863 37.8398 196.582 38.1445C197.301 38.4414 197.871 38.8477 198.293 39.3633C198.715 39.8711 198.926 40.5391 198.926 41.3672C198.926 41.9297 198.801 42.4453 198.551 42.9141C198.301 43.3828 197.941 43.793 197.473 44.1445C197.004 44.4883 196.441 44.7578 195.785 44.9531C195.137 45.1406 194.406 45.2344 193.594 45.2344C192.414 45.2344 191.414 45.0234 190.594 44.6016C189.781 44.1797 189.164 43.6445 188.742 42.9961C188.328 42.3398 188.121 41.668 188.121 40.9805H191.32C191.336 41.4414 191.453 41.8125 191.672 42.0938C191.898 42.375 192.184 42.5781 192.527 42.7031C192.879 42.8281 193.258 42.8906 193.664 42.8906C194.102 42.8906 194.465 42.832 194.754 42.7148C195.043 42.5898 195.262 42.4258 195.41 42.2227C195.566 42.0117 195.645 41.7695 195.645 41.4961Z"
          fill="#203B4B"/>
    <line x1="23" y1="493.722" x2="441" y2="493.722" stroke="#D3D8DD" stroke-miterlimit="16" stroke-dasharray="8 8"/>
    <line x1="23" y1="393.222" x2="441" y2="393.222" stroke="#D3D8DD" stroke-miterlimit="16" stroke-dasharray="8 8"/>
    <line x1="23" y1="292.722" x2="441" y2="292.722" stroke="#D3D8DD" stroke-miterlimit="16" stroke-dasharray="8 8"/>
    <line x1="23" y1="192.222" x2="441" y2="192.222" stroke="#D3D8DD" stroke-miterlimit="16" stroke-dasharray="8 8"/>
    <mask id="mask0_5825_25780" style="mask-type:alpha" maskUnits="userSpaceOnUse" x="24" y="122" width="420"
          height="402">
        <rect x="24" y="122" width="420" height="402" fill="#C4C4C4"/>
    </mask>
    <g mask="url(#mask0_5825_25780)">
        <path opacity="0.2"
              d="M89.7183 298.288C55.7343 296.301 23.4178 389.603 14.6719 428.508V499.315H465.74L450.206 192.105C415.686 209.236 378.864 174.974 368.337 174.121C344.598 174.121 309.198 271.798 293.373 323.119C280.379 368.812 263.803 378.58 257.14 377.752C226.154 379.738 202.582 277.592 194.669 226.271C187.672 168.658 179.795 156.739 175.928 156.739C169.439 156.701 159.685 173.625 149.69 231.238C139.695 288.85 123.869 304.909 117.205 305.737C107.885 306.895 96.7983 298.288 89.7183 298.288Z"
              fill="url(#paint0_linear_5825_25780)"/>
        <path d="M90.0464 297.26L89.9881 298.258C90.0075 298.259 90.027 298.26 90.0465 298.26L90.0464 297.26ZM117.534 304.709L117.657 305.701L117.657 305.701L117.534 304.709ZM176.256 155.711L176.25 156.711L176.256 156.711L176.256 155.711ZM194.997 225.243L194.004 225.364C194.006 225.374 194.007 225.385 194.009 225.396L194.997 225.243ZM257.468 376.724L257.591 375.731C257.529 375.724 257.466 375.722 257.404 375.726L257.468 376.724ZM293.701 322.091L292.745 321.797C292.743 321.804 292.741 321.811 292.739 321.818L293.701 322.091ZM368.665 173.093L368.746 172.096C368.719 172.094 368.692 172.093 368.665 172.093V173.093ZM15.9757 427.7C20.3347 408.309 30.5776 375.331 43.9603 347.469C50.6536 333.534 58.1065 320.934 65.9657 311.956C73.8563 302.944 81.9711 297.79 89.9881 298.258L90.1048 296.262C81.1298 295.737 72.461 301.501 64.4609 310.639C56.4295 319.813 48.8846 332.597 42.1575 346.603C28.6995 374.622 18.4112 407.747 14.0243 427.261L15.9757 427.7ZM90.0465 298.26C91.6371 298.26 93.5237 298.748 95.6774 299.527C97.8283 300.305 100.123 301.325 102.566 302.342C107.36 304.337 112.697 306.317 117.657 305.701L117.41 303.716C113.05 304.258 108.184 302.514 103.334 300.495C100.955 299.505 98.5679 298.446 96.3576 297.646C94.15 296.848 91.9958 296.26 90.0464 296.26L90.0465 298.26ZM117.657 305.701C119.634 305.456 122.065 304.128 124.714 301.536C127.384 298.923 130.356 294.947 133.409 289.224C139.515 277.779 145.995 259.249 151.004 230.381L149.033 230.039C144.046 258.783 137.616 277.089 131.644 288.283C128.658 293.88 125.8 297.674 123.315 300.106C120.811 302.558 118.765 303.548 117.41 303.716L117.657 305.701ZM151.004 230.381C155.997 201.598 160.92 183.042 165.382 171.708C167.615 166.036 169.712 162.228 171.606 159.858C173.519 157.464 175.086 156.704 176.25 156.711L176.262 154.711C174.182 154.699 172.096 156.04 170.043 158.609C167.971 161.203 165.788 165.219 163.522 170.975C158.986 182.497 154.035 201.209 149.033 230.039L151.004 230.381ZM176.256 156.711C176.703 156.711 177.66 157.085 179.009 159.041C180.322 160.945 181.852 164.132 183.502 169.182C186.8 179.272 190.509 196.58 194.004 225.364L195.99 225.123C192.489 196.293 188.761 178.834 185.404 168.561C183.727 163.43 182.125 160.037 180.655 157.905C179.221 155.826 177.742 154.711 176.256 154.711L176.256 156.711ZM194.009 225.396C197.97 251.089 205.853 289.518 216.640 321.295C222.021 337.176 228.152 351.457 234.914 361.662C241.627 371.794 249.196 378.256 257.532 377.722L257.404 375.726C250.247 376.185 243.25 370.624 236.581 360.558C229.961 350.566 223.895 336.475 218.527 320.653C207.797 289.023 199.937 250.718 195.985 225.091L194.009 225.396ZM257.344 377.716C261.191 378.194 267.307 375.629 273.984 367.487C280.701 359.294 288.144 345.289 294.663 322.365L292.739 321.818C286.264 344.587 278.921 358.311 272.437 366.219C265.912 374.176 260.408 376.081 257.591 375.731L257.344 377.716ZM294.656 322.386C302.563 296.745 315.356 259.538 329.128 228.755C336.017 213.358 343.133 199.61 349.985 189.727C353.412 184.783 356.747 180.845 359.924 178.153C363.115 175.45 366.04 174.093 368.665 174.093V172.093C365.356 172.093 361.982 173.788 358.631 176.627C355.267 179.478 351.818 183.572 348.341 188.587C341.384 198.622 334.21 212.501 327.303 227.938C313.484 258.824 300.664 296.116 292.745 321.797L294.656 322.386ZM368.585 174.09C369.705 174.181 371.289 174.737 373.362 175.717C375.408 176.686 377.816 178.01 380.555 179.545C386.014 182.602 392.728 186.456 400.199 189.744C415.126 196.315 433.316 200.738 450.979 191.973L450.09 190.181C433.232 198.547 415.75 194.404 401.005 187.914C393.64 184.672 387.017 180.871 381.532 177.8C378.8 176.269 376.335 174.911 374.217 173.91C372.127 172.92 370.258 172.219 368.746 172.096L368.585 174.09Z"
              fill="#7B97BC"/>
        <path d="M90.0464 297.26L89.9881 298.258C90.0075 298.259 90.027 298.26 90.0465 298.26L90.0464 297.26ZM117.534 304.709L117.657 305.701L117.657 305.701L117.534 304.709ZM176.256 155.711L176.25 156.711L176.256 156.711L176.256 155.711ZM194.997 225.243L194.004 225.364C194.006 225.374 194.007 225.385 194.009 225.396L194.997 225.243ZM257.468 376.724L257.591 375.731C257.529 375.724 257.466 375.722 257.404 375.726L257.468 376.724ZM293.701 322.091L292.745 321.797C292.743 321.804 292.741 321.811 292.739 321.818L293.701 322.091ZM368.665 173.093L368.746 172.096C368.719 172.094 368.692 172.093 368.665 172.093V173.093ZM15.9757 427.7C20.3347 408.309 30.5776 375.331 43.9603 347.469C50.6536 333.534 58.1065 320.934 65.9657 311.956C73.8563 302.944 81.9711 297.79 89.9881 298.258L90.1048 296.262C81.1298 295.737 72.461 301.501 64.4609 310.639C56.4295 319.813 48.8846 332.597 42.1575 346.603C28.6995 374.622 18.4112 407.747 14.0243 427.261L15.9757 427.7ZM90.0465 298.26C91.6371 298.26 93.5237 298.748 95.6774 299.527C97.8283 300.305 100.123 301.325 102.566 302.342C107.36 304.337 112.697 306.317 117.657 305.701L117.41 303.716C113.05 304.258 108.184 302.514 103.334 300.495C100.955 299.505 98.5679 298.446 96.3576 297.646C94.15 296.848 91.9958 296.26 90.0464 296.26L90.0465 298.26ZM117.657 305.701C119.634 305.456 122.065 304.128 124.714 301.536C127.384 298.923 130.356 294.947 133.409 289.224C139.515 277.779 145.995 259.249 151.004 230.381L149.033 230.039C144.046 258.783 137.616 277.089 131.644 288.283C128.658 293.88 125.8 297.674 123.315 300.106C120.811 302.558 118.765 303.548 117.41 303.716L117.657 305.701ZM151.004 230.381C155.997 201.598 160.92 183.042 165.382 171.708C167.615 166.036 169.712 162.228 171.606 159.858C173.519 157.464 175.086 156.704 176.25 156.711L176.262 154.711C174.182 154.699 172.096 156.04 170.043 158.609C167.971 161.203 165.788 165.219 163.522 170.975C158.986 182.497 154.035 201.209 149.033 230.039L151.004 230.381ZM176.256 156.711C176.703 156.711 177.66 157.085 179.009 159.041C180.322 160.945 181.852 164.132 183.502 169.182C186.8 179.272 190.509 196.58 194.004 225.364L195.99 225.123C192.489 196.293 188.761 178.834 185.404 168.561C183.727 163.43 182.125 160.037 180.655 157.905C179.221 155.826 177.742 154.711 176.256 154.711L176.256 156.711ZM194.009 225.396C197.97 251.089 205.853 289.518 216.640 321.295C222.021 337.176 228.152 351.457 234.914 361.662C241.627 371.794 249.196 378.256 257.532 377.722L257.404 375.726C250.247 376.185 243.25 370.624 236.581 360.558C229.961 350.566 223.895 336.475 218.527 320.653C207.797 289.023 199.937 250.718 195.985 225.091L194.009 225.396ZM257.344 377.716C261.191 378.194 267.307 375.629 273.984 367.487C280.701 359.294 288.144 345.289 294.663 322.365L292.739 321.818C286.264 344.587 278.921 358.311 272.437 366.219C265.912 374.176 260.408 376.081 257.591 375.731L257.344 377.716ZM294.656 322.386C302.563 296.745 315.356 259.538 329.128 228.755C336.017 213.358 343.133 199.61 349.985 189.727C353.412 184.783 356.747 180.845 359.924 178.153C363.115 175.45 366.04 174.093 368.665 174.093V172.093C365.356 172.093 361.982 173.788 358.631 176.627C355.267 179.478 351.818 183.572 348.341 188.587C341.384 198.622 334.21 212.501 327.303 227.938C313.484 258.824 300.664 296.116 292.745 321.797L294.656 322.386ZM368.585 174.09C369.705 174.181 371.289 174.737 373.362 175.717C375.408 176.686 377.816 178.01 380.555 179.545C386.014 182.602 392.728 186.456 400.199 189.744C415.126 196.315 433.316 200.738 450.979 191.973L450.09 190.181C433.232 198.547 415.75 194.404 401.005 187.914C393.64 184.672 387.017 180.871 381.532 177.8C378.8 176.269 376.335 174.911 374.217 173.91C372.127 172.92 370.258 172.219 368.746 172.096L368.585 174.09Z"
              fill="white" fill-opacity="0.5"/>
    </g>
    <path d="M30.724 598.402H26.5541L25.6176 601H24.2641L28.0648 591.047H29.2133L33.0209 601H31.6742L30.724 598.402ZM26.9506 597.322H30.3344L28.6391 592.667L26.9506 597.322ZM37.2293 600.104C37.6805 600.104 38.0747 599.968 38.4119 599.694C38.7492 599.421 38.936 599.079 38.9725 598.669H40.1687C40.146 599.093 40.0001 599.496 39.7312 599.879C39.4624 600.262 39.1023 600.567 38.6512 600.795C38.2046 601.023 37.7306 601.137 37.2293 601.137C36.2221 601.137 35.4201 600.802 34.823 600.132C34.2306 599.457 33.9344 598.537 33.9344 597.37V597.158C33.9344 596.438 34.0665 595.798 34.3309 595.237C34.5952 594.677 34.9734 594.242 35.4656 593.932C35.9624 593.622 36.548 593.467 37.2225 593.467C38.0519 593.467 38.74 593.715 39.2869 594.212C39.8383 594.709 40.1323 595.354 40.1687 596.146H38.9725C38.936 595.668 38.7537 595.276 38.4256 594.971C38.102 594.661 37.701 594.506 37.2225 594.506C36.5799 594.506 36.0809 594.738 35.7254 595.203C35.3745 595.663 35.199 596.331 35.199 597.206V597.445C35.199 598.298 35.3745 598.954 35.7254 599.414C36.0763 599.874 36.5776 600.104 37.2293 600.104ZM43.4064 591.812V593.604H44.7873V594.581H43.4064V599.168C43.4064 599.464 43.468 599.688 43.591 599.838C43.7141 599.984 43.9237 600.057 44.2199 600.057C44.3658 600.057 44.5663 600.029 44.8215 599.975V601C44.4888 601.091 44.1652 601.137 43.8508 601.137C43.2857 601.137 42.8596 600.966 42.5725 600.624C42.2854 600.282 42.1418 599.797 42.1418 599.168V594.581H40.7951V593.604H42.1418V591.812H43.4064ZM47.7447 601H46.4801V593.604H47.7447V601ZM46.3775 591.642C46.3775 591.437 46.4391 591.263 46.5621 591.122C46.6897 590.981 46.8766 590.91 47.1227 590.91C47.3687 590.91 47.5556 590.981 47.6832 591.122C47.8108 591.263 47.8746 591.437 47.8746 591.642C47.8746 591.847 47.8108 592.018 47.6832 592.154C47.5556 592.291 47.3687 592.359 47.1227 592.359C46.8766 592.359 46.6897 592.291 46.5621 592.154C46.4391 592.018 46.3775 591.847 46.3775 591.642ZM49.54 597.233C49.54 596.509 49.6813 595.857 49.9639 595.278C50.251 594.7 50.6475 594.253 51.1533 593.938C51.6637 593.624 52.2448 593.467 52.8965 593.467C53.9036 593.467 54.7171 593.815 55.3369 594.513C55.9613 595.21 56.2734 596.137 56.2734 597.295V597.384C56.2734 598.104 56.1344 598.751 55.8564 599.325C55.583 599.895 55.1888 600.339 54.6738 600.658C54.1634 600.977 53.5755 601.137 52.9102 601.137C51.9076 601.137 51.0941 600.788 50.4697 600.091C49.8499 599.394 49.54 598.471 49.54 597.322V597.233ZM50.8115 597.384C50.8115 598.204 51.0006 598.863 51.3789 599.359C51.7617 599.856 52.2721 600.104 52.9102 600.104C53.5527 600.104 54.0631 599.854 54.4414 599.353C54.8197 598.847 55.0088 598.14 55.0088 597.233C55.0088 596.422 54.8151 595.766 54.4277 595.265C54.0449 594.759 53.5345 594.506 52.8965 594.506C52.2721 594.506 51.7686 594.754 51.3857 595.251C51.0029 595.748 50.8115 596.459 50.8115 597.384ZM59.1557 593.604L59.1967 594.533C59.7618 593.822 60.5001 593.467 61.4115 593.467C62.9747 593.467 63.7631 594.349 63.7768 596.112V601H62.5121V596.105C62.5076 595.572 62.3845 595.178 62.143 594.923C61.906 594.668 61.5346 594.54 61.0287 594.54C60.6186 594.54 60.2585 594.649 59.9486 594.868C59.6387 595.087 59.3972 595.374 59.224 595.729V601H57.9594V593.604H59.1557ZM70.3504 601C70.2775 600.854 70.2182 600.594 70.1727 600.221C69.5848 600.831 68.8829 601.137 68.0672 601.137C67.338 601.137 66.7387 600.932 66.2693 600.521C65.8045 600.107 65.5721 599.583 65.5721 598.949C65.5721 598.179 65.8637 597.582 66.4471 597.158C67.035 596.73 67.8598 596.516 68.9217 596.516H70.1521V595.935C70.1521 595.493 70.02 595.142 69.7557 594.882C69.4913 594.618 69.1017 594.485 68.5867 594.485C68.1355 594.485 67.7573 594.599 67.452 594.827C67.1466 595.055 66.9939 595.331 66.9939 595.654H65.7225C65.7225 595.285 65.8523 594.93 66.1121 594.588C66.3764 594.242 66.7319 593.968 67.1785 593.768C67.6297 593.567 68.1242 593.467 68.6619 593.467C69.5141 593.467 70.1818 593.681 70.6648 594.109C71.1479 594.533 71.3986 595.119 71.4168 595.866V599.271C71.4168 599.95 71.5034 600.49 71.6766 600.891V601H70.3504ZM68.2518 600.036C68.6482 600.036 69.0242 599.934 69.3797 599.729C69.7352 599.523 69.9926 599.257 70.1521 598.929V597.411H69.1609C67.6115 597.411 66.8367 597.865 66.8367 598.771C66.8367 599.168 66.9689 599.478 67.2332 599.701C67.4975 599.924 67.837 600.036 68.2518 600.036ZM79.7609 597.384C79.7609 598.514 79.5012 599.423 78.9816 600.111C78.4621 600.795 77.7648 601.137 76.8898 601.137C75.9556 601.137 75.2333 600.806 74.7229 600.146L74.6613 601H73.4992V590.5H74.7639V594.417C75.2743 593.784 75.9784 593.467 76.8762 593.467C77.774 593.467 78.4781 593.806 78.9885 594.485C79.5034 595.164 79.7609 596.094 79.7609 597.274V597.384ZM78.4963 597.24C78.4963 596.379 78.3299 595.714 77.9973 595.244C77.6646 594.775 77.1861 594.54 76.5617 594.54C75.7277 594.54 75.1284 594.927 74.7639 595.702V598.901C75.1512 599.676 75.7551 600.063 76.5754 600.063C77.1815 600.063 77.6532 599.829 77.9904 599.359C78.3277 598.89 78.4963 598.184 78.4963 597.24ZM82.8346 601H81.5699V590.5H82.8346V601ZM88.0342 601.137C87.0316 601.137 86.2158 600.809 85.5869 600.152C84.958 599.492 84.6436 598.61 84.6436 597.507V597.274C84.6436 596.541 84.7826 595.887 85.0605 595.312C85.3431 594.734 85.735 594.283 86.2363 593.959C86.7422 593.631 87.2891 593.467 87.877 593.467C88.8385 593.467 89.5859 593.784 90.1191 594.417C90.6523 595.05 90.9189 595.957 90.9189 597.138V597.664H85.9082C85.9264 598.393 86.1383 598.983 86.5439 599.435C86.9541 599.881 87.4736 600.104 88.1025 600.104C88.5492 600.104 88.9274 600.013 89.2373 599.831C89.5472 599.649 89.8184 599.407 90.0508 599.106L90.8232 599.708C90.2035 600.66 89.2738 601.137 88.0342 601.137ZM87.877 594.506C87.3665 594.506 86.9382 594.693 86.5918 595.066C86.2454 595.436 86.0312 595.955 85.9492 596.625H89.6543V596.529C89.6178 595.887 89.4447 595.39 89.1348 595.039C88.8249 594.684 88.4056 594.506 87.877 594.506ZM97.4353 601H96.1707V593.604H97.4353V601ZM96.0682 591.642C96.0682 591.437 96.1297 591.263 96.2527 591.122C96.3803 590.981 96.5672 590.91 96.8133 590.91C97.0594 590.91 97.2462 590.981 97.3738 591.122C97.5014 591.263 97.5652 591.437 97.5652 591.642C97.5652 591.847 97.5014 592.018 97.3738 592.154C97.2462 592.291 97.0594 592.359 96.8133 592.359C96.5672 592.359 96.3803 592.291 96.2527 592.154C96.1297 592.018 96.0682 591.847 96.0682 591.642ZM100.762 593.604L100.803 594.533C101.368 593.822 102.106 593.467 103.018 593.467C104.581 593.467 105.369 594.349 105.383 596.112V601H104.118V596.105C104.114 595.572 103.991 595.178 103.749 594.923C103.512 594.668 103.141 594.54 102.635 594.54C102.225 594.54 101.865 594.649 101.555 594.868C101.245 595.087 101.003 595.374 100.83 595.729V601H99.5656V593.604H100.762ZM111.697 599.038C111.697 598.696 111.567 598.432 111.307 598.245C111.052 598.054 110.603 597.89 109.961 597.753C109.323 597.616 108.814 597.452 108.436 597.261C108.062 597.069 107.784 596.841 107.602 596.577C107.424 596.313 107.336 595.998 107.336 595.634C107.336 595.028 107.591 594.515 108.101 594.096C108.616 593.676 109.272 593.467 110.07 593.467C110.908 593.467 111.588 593.683 112.107 594.116C112.631 594.549 112.893 595.103 112.893 595.777H111.622C111.622 595.431 111.474 595.132 111.177 594.882C110.886 594.631 110.517 594.506 110.07 594.506C109.61 594.506 109.25 594.606 108.99 594.807C108.73 595.007 108.6 595.269 108.6 595.593C108.6 595.898 108.721 596.128 108.963 596.283C109.204 596.438 109.639 596.586 110.268 596.728C110.902 596.869 111.414 597.037 111.806 597.233C112.198 597.429 112.488 597.666 112.674 597.944C112.866 598.218 112.962 598.553 112.962 598.949C112.962 599.61 112.697 600.141 112.169 600.542C111.64 600.938 110.954 601.137 110.111 601.137C109.518 601.137 108.994 601.032 108.539 600.822C108.083 600.613 107.725 600.321 107.465 599.947C107.21 599.569 107.083 599.161 107.083 598.724H108.347C108.37 599.147 108.539 599.485 108.853 599.735C109.172 599.981 109.591 600.104 110.111 600.104C110.589 600.104 110.972 600.009 111.259 599.817C111.551 599.621 111.697 599.362 111.697 599.038ZM116.083 601H114.818V593.604H116.083V601ZM114.716 591.642C114.716 591.437 114.777 591.263 114.9 591.122C115.028 590.981 115.215 590.91 115.461 590.91C115.707 590.91 115.894 590.981 116.021 591.122C116.149 591.263 116.213 591.437 116.213 591.642C116.213 591.847 116.149 592.018 116.021 592.154C115.894 592.291 115.707 592.359 115.461 592.359C115.215 592.359 115.028 592.291 114.9 592.154C114.777 592.018 114.716 591.847 114.716 591.642ZM117.912 597.24C117.912 596.087 118.179 595.171 118.712 594.492C119.246 593.809 119.952 593.467 120.831 593.467C121.734 593.467 122.438 593.786 122.944 594.424L123.005 593.604H124.161V600.822C124.161 601.779 123.876 602.534 123.306 603.085C122.741 603.636 121.98 603.912 121.023 603.912C120.49 603.912 119.968 603.798 119.457 603.57C118.947 603.342 118.557 603.03 118.288 602.634L118.945 601.875C119.487 602.545 120.15 602.88 120.934 602.88C121.549 602.88 122.028 602.707 122.37 602.36C122.716 602.014 122.889 601.526 122.889 600.897V600.262C122.383 600.845 121.693 601.137 120.818 601.137C119.952 601.137 119.25 600.788 118.712 600.091C118.179 599.394 117.912 598.443 117.912 597.24ZM119.184 597.384C119.184 598.218 119.355 598.874 119.697 599.353C120.038 599.826 120.517 600.063 121.132 600.063C121.93 600.063 122.515 599.701 122.889 598.977V595.6C122.502 594.893 121.921 594.54 121.146 594.54C120.531 594.54 120.05 594.779 119.704 595.258C119.357 595.736 119.184 596.445 119.184 597.384ZM127.439 594.499C128 593.811 128.729 593.467 129.627 593.467C131.19 593.467 131.978 594.349 131.992 596.112V601H130.727V596.105C130.723 595.572 130.6 595.178 130.358 594.923C130.121 594.668 129.75 594.54 129.244 594.54C128.834 594.54 128.474 594.649 128.164 594.868C127.854 595.087 127.612 595.374 127.439 595.729V601H126.175V590.5H127.439V594.499ZM135.701 591.812V593.604H137.082V594.581H135.701V599.168C135.701 599.464 135.763 599.688 135.886 599.838C136.009 599.984 136.219 600.057 136.515 600.057C136.661 600.057 136.861 600.029 137.116 599.975V601C136.784 601.091 136.46 601.137 136.146 601.137C135.581 601.137 135.154 600.966 134.867 600.624C134.58 600.282 134.437 599.797 134.437 599.168V594.581H133.09V593.604H134.437V591.812H135.701ZM142.972 599.038C142.972 598.696 142.842 598.432 142.583 598.245C142.327 598.054 141.879 597.89 141.236 597.753C140.598 597.616 140.09 597.452 139.712 597.261C139.338 597.069 139.06 596.841 138.878 596.577C138.7 596.313 138.611 595.998 138.611 595.634C138.611 595.028 138.866 594.515 139.377 594.096C139.892 593.676 140.548 593.467 141.345 593.467C142.184 593.467 142.863 593.683 143.382 594.116C143.907 594.549 144.169 595.103 144.169 595.777H142.897C142.897 595.431 142.749 595.132 142.453 594.882C142.161 594.631 141.792 594.506 141.345 594.506C140.885 594.506 140.525 594.606 140.265 594.807C140.005 595.007 139.876 595.269 139.876 595.593C139.876 595.898 139.996 596.128 140.238 596.283C140.479 596.438 140.915 596.586 141.544 596.728C142.177 596.869 142.69 597.037 143.082 597.233C143.474 597.429 143.763 597.666 143.95 597.944C144.141 598.218 144.237 598.553 144.237 598.949C144.237 599.61 143.973 600.141 143.444 600.542C142.915 600.938 142.229 601.137 141.386 601.137C140.794 601.137 140.27 601.032 139.814 600.822C139.358 600.613 139.001 600.321 138.741 599.947C138.486 599.569 138.358 599.161 138.358 598.724H139.623C139.645 599.147 139.814 599.485 140.129 599.735C140.448 599.981 140.867 600.104 141.386 600.104C141.865 600.104 142.248 600.009 142.535 599.817C142.826 599.621 142.972 599.362 142.972 599.038Z"
          fill="#292929"/>
    <path d="M203.883 598.402H199.713L198.777 601H197.423L201.224 591.047H202.373L206.18 601H204.834L203.883 598.402ZM200.11 597.322H203.494L201.798 592.667L200.11 597.322ZM210.389 600.104C210.84 600.104 211.234 599.968 211.571 599.694C211.909 599.421 212.095 599.079 212.132 598.669H213.328C213.305 599.093 213.16 599.496 212.891 599.879C212.622 600.262 212.262 600.567 211.811 600.795C211.364 601.023 210.89 601.137 210.389 601.137C209.382 601.137 208.579 600.802 207.982 600.132C207.39 599.457 207.094 598.537 207.094 597.37V597.158C207.094 596.438 207.226 595.798 207.49 595.237C207.755 594.677 208.133 594.242 208.625 593.932C209.122 593.622 209.707 593.467 210.382 593.467C211.211 593.467 211.899 593.715 212.446 594.212C212.998 594.709 213.292 595.354 213.328 596.146H212.132C212.095 595.668 211.913 595.276 211.585 594.971C211.261 594.661 210.86 594.506 210.382 594.506C209.739 594.506 209.24 594.738 208.885 595.203C208.534 595.663 208.358 596.331 208.358 597.206V597.445C208.358 598.298 208.534 598.954 208.885 599.414C209.236 599.874 209.737 600.104 210.389 600.104ZM216.566 591.812V593.604H217.947V594.581H216.566V599.168C216.566 599.464 216.627 599.688 216.75 599.838C216.873 599.984 217.083 600.057 217.379 600.057C217.525 600.057 217.726 600.029 217.981 599.975V601C217.648 601.091 217.325 601.137 217.01 601.137C216.445 601.137 216.019 600.966 215.732 600.624C215.445 600.282 215.301 599.797 215.301 599.168V594.581H213.954V593.604H215.301V591.812H216.566ZM220.904 601H219.639V593.604H220.904V601ZM219.537 591.642C219.537 591.437 219.598 591.263 219.721 591.122C219.849 590.981 220.036 590.91 220.282 590.91C220.528 590.91 220.715 590.981 220.843 591.122C220.97 591.263 221.034 591.437 221.034 591.642C221.034 591.847 220.97 592.018 220.843 592.154C220.715 592.291 220.528 592.359 220.282 592.359C220.036 592.359 219.849 592.291 219.721 592.154C219.598 592.018 219.537 591.847 219.537 591.642ZM225.475 599.284L227.307 593.604H228.599L225.946 601H224.983L222.303 593.604H223.595L225.475 599.284ZM231.29 601H230.025V593.604H231.29V601ZM229.922 591.642C229.922 591.437 229.984 591.263 230.107 591.122C230.235 590.981 230.421 590.91 230.668 590.91C230.914 590.91 231.101 590.981 231.228 591.122C231.356 591.263 231.42 591.437 231.42 591.642C231.42 591.847 231.356 592.018 231.228 592.154C231.101 592.291 230.914 592.359 230.668 592.359C230.421 592.359 230.235 592.291 230.107 592.154C229.984 592.018 229.922 591.847 229.922 591.642ZM235.136 591.812V593.604H236.517V594.581H235.136V599.168C235.136 599.464 235.197 599.688 235.32 599.838C235.443 599.984 235.653 600.057 235.949 600.057C236.095 600.057 236.296 600.029 236.551 599.975V601C236.218 601.091 235.895 601.137 235.58 601.137C235.015 601.137 234.589 600.966 234.302 600.624C234.015 600.282 233.871 599.797 233.871 599.168V594.581H232.524V593.604H233.871V591.812H235.136ZM240.52 599.147L242.243 593.604H243.596L240.622 602.142C240.162 603.372 239.431 603.987 238.428 603.987L238.189 603.967L237.717 603.878V602.853L238.059 602.88C238.487 602.88 238.82 602.793 239.057 602.62C239.299 602.447 239.497 602.13 239.652 601.67L239.932 600.918L237.293 593.604H238.674L240.52 599.147ZM252.97 601C252.897 600.854 252.838 600.594 252.792 600.221C252.204 600.831 251.502 601.137 250.687 601.137C249.958 601.137 249.358 600.932 248.889 600.521C248.424 600.107 248.192 599.583 248.192 598.949C248.192 598.179 248.483 597.582 249.067 597.158C249.654 596.73 250.479 596.516 251.541 596.516H252.772V595.935C252.772 595.493 252.64 595.142 252.375 594.882C252.111 594.618 251.721 594.485 251.206 594.485C250.755 594.485 250.377 594.599 250.071 594.827C249.766 595.055 249.613 595.331 249.613 595.654H248.342C248.342 595.285 248.472 594.93 248.732 594.588C248.996 594.242 249.351 593.968 249.798 593.768C250.249 593.567 250.744 593.467 251.281 593.467C252.134 593.467 252.801 593.681 253.284 594.109C253.767 594.533 254.018 595.119 254.036 595.866V599.271C254.036 599.95 254.123 600.49 254.296 600.891V601H252.97ZM250.871 600.036C251.268 600.036 251.644 599.934 251.999 599.729C252.355 599.523 252.612 599.257 252.772 598.929V597.411H251.78C250.231 597.411 249.456 597.865 249.456 598.771C249.456 599.168 249.588 599.478 249.853 599.701C250.117 599.924 250.457 600.036 250.871 600.036ZM257.315 593.604L257.356 594.533C257.921 593.822 258.659 593.467 259.571 593.467C261.134 593.467 261.922 594.349 261.936 596.112V601H260.671V596.105C260.667 595.572 260.544 595.178 260.302 594.923C260.065 594.668 259.694 594.54 259.188 594.54C258.778 594.54 258.418 594.649 258.108 594.868C257.798 595.087 257.557 595.374 257.383 595.729V601H256.119V593.604H257.315ZM268.51 601C268.437 600.854 268.378 600.594 268.332 600.221C267.744 600.831 267.042 601.137 266.227 601.137C265.497 601.137 264.898 600.932 264.429 600.521C263.964 600.107 263.731 599.583 263.731 598.949C263.731 598.179 264.023 597.582 264.606 597.158C265.194 596.73 266.019 596.516 267.081 596.516H268.312V595.935C268.312 595.493 268.179 595.142 267.915 594.882C267.651 594.618 267.261 594.485 266.746 594.485C266.295 594.485 265.917 594.599 265.611 594.827C265.306 595.055 265.153 595.331 265.153 595.654H263.882C263.882 595.285 264.012 594.93 264.271 594.588C264.536 594.242 264.891 593.968 265.338 593.768C265.789 593.567 266.284 593.467 266.821 593.467C267.674 593.467 268.341 593.681 268.824 594.109C269.307 594.533 269.558 595.119 269.576 595.866V599.271C269.576 599.95 269.663 600.49 269.836 600.891V601H268.51ZM266.411 600.036C266.808 600.036 267.184 599.934 267.539 599.729C267.895 599.523 268.152 599.257 268.312 598.929V597.411H267.32C265.771 597.411 264.996 597.865 264.996 598.771C264.996 599.168 265.128 599.478 265.393 599.701C265.657 599.924 265.996 600.036 266.411 600.036ZM273.033 601H271.768V590.5H273.033V601ZM277.583 599.147L279.305 593.604H280.659L277.685 602.142C277.225 603.372 276.494 603.987 275.491 603.987L275.252 603.967L274.78 603.878V602.853L275.122 602.88C275.55 602.88 275.883 602.793 276.12 602.62C276.361 602.447 276.56 602.13 276.715 601.67L276.995 600.918L274.356 593.604H275.737L277.583 599.147ZM283.61 591.812V593.604H284.99V594.581H283.61V599.168C283.61 599.464 283.671 599.688 283.794 599.838C283.917 599.984 284.127 600.057 284.423 600.057C284.569 600.057 284.769 600.029 285.025 599.975V601C284.692 601.091 284.368 601.137 284.054 601.137C283.489 601.137 283.063 600.966 282.776 600.624C282.488 600.282 282.345 599.797 282.345 599.168V594.581H280.998V593.604H282.345V591.812H283.61ZM287.948 601H286.683V593.604H287.948V601ZM286.581 591.642C286.581 591.437 286.642 591.263 286.765 591.122C286.893 590.981 287.08 590.91 287.326 590.91C287.572 590.91 287.759 590.981 287.886 591.122C288.014 591.263 288.078 591.437 288.078 591.642C288.078 591.847 288.014 592.018 287.886 592.154C287.759 592.291 287.572 592.359 287.326 592.359C287.08 592.359 286.893 592.291 286.765 592.154C286.642 592.018 286.581 591.847 286.581 591.642ZM293.045 600.104C293.496 600.104 293.89 599.968 294.228 599.694C294.565 599.421 294.752 599.079 294.788 598.669H295.984C295.962 599.093 295.816 599.496 295.547 599.879C295.278 600.262 294.918 600.567 294.467 600.795C294.02 601.023 293.546 601.137 293.045 601.137C292.038 601.137 291.236 600.802 290.639 600.132C290.046 599.457 289.75 598.537 289.75 597.37V597.158C289.75 596.438 289.882 595.798 290.146 595.237C290.411 594.677 290.789 594.242 291.281 593.932C291.778 593.622 292.364 593.467 293.038 593.467C293.868 593.467 294.556 593.715 295.103 594.212C295.654 594.709 295.948 595.354 295.984 596.146H294.788C294.752 595.668 294.569 595.276 294.241 594.971C293.918 594.661 293.517 594.506 293.038 594.506C292.396 594.506 291.896 594.738 291.541 595.203C291.19 595.663 291.015 596.331 291.015 597.206V597.445C291.015 598.298 291.19 598.954 291.541 599.414C291.892 599.874 292.393 600.104 293.045 600.104ZM301.813 599.038C301.813 598.696 301.683 598.432 301.423 598.245C301.168 598.054 300.719 597.89 300.077 597.753C299.439 597.616 298.93 597.452 298.552 597.261C298.178 597.069 297.9 596.841 297.718 596.577C297.54 596.313 297.452 595.998 297.452 595.634C297.452 595.028 297.707 594.515 298.217 594.096C298.732 593.676 299.388 593.467 300.186 593.467C301.024 593.467 301.704 593.683 302.223 594.116C302.747 594.549 303.009 595.103 303.009 595.777H301.738C301.738 595.431 301.59 595.132 301.293 594.882C301.002 594.631 300.640 594.506 300.186 594.506C299.726 594.506 299.366 594.606 299.106 594.807C298.846 595.007 298.716 595.269 298.716 595.593C298.716 595.898 298.837 596.128 299.079 596.283C299.32 596.438 299.755 596.586 300.384 596.728C301.018 596.869 301.53 597.037 301.922 597.233C302.314 597.429 302.604 597.666 302.79 597.944C302.982 598.218 303.078 598.553 303.078 598.949C303.078 599.61 302.813 600.141 302.285 600.542C301.756 600.938 301.07 601.137 300.227 601.137C299.635 601.137 299.11 601.032 298.655 600.822C298.199 600.613 297.841 600.321 297.581 599.947C297.326 599.569 297.199 599.161 297.199 598.724H298.463C298.486 599.147 298.655 599.485 298.969 599.735C299.288 599.981 299.707 600.104 300.227 600.104C300.705 600.104 301.088 600.009 301.375 599.817C301.667 599.621 301.813 599.362 301.813 599.038Z"
          fill="#292929"/>
    <path d="M359.502 597.104V601H358.189V591.047H361.86C362.949 591.047 363.802 591.325 364.417 591.881C365.037 592.437 365.346 593.173 365.346 594.089C365.346 595.055 365.043 595.8 364.437 596.324C363.836 596.844 362.972 597.104 361.846 597.104H359.502ZM359.502 596.03H361.86C362.562 596.03 363.1 595.866 363.473 595.538C363.847 595.205 364.034 594.727 364.034 594.103C364.034 593.51 363.847 593.036 363.473 592.681C363.1 592.325 362.587 592.141 361.935 592.127H359.502V596.03ZM370.498 594.738C370.307 594.706 370.099 594.69 369.876 594.69C369.047 594.69 368.484 595.044 368.188 595.75V601H366.923V593.604H368.154L368.174 594.458C368.589 593.797 369.177 593.467 369.938 593.467C370.184 593.467 370.371 593.499 370.498 593.562V594.738ZM371.296 597.233C371.296 596.509 371.437 595.857 371.719 595.278C372.006 594.7 372.403 594.253 372.909 593.938C373.419 593.624 374 593.467 374.652 593.467C375.659 593.467 376.473 593.815 377.092 594.513C377.717 595.21 378.029 596.137 378.029 597.295V597.384C378.029 598.104 377.89 598.751 377.612 599.325C377.338 599.895 376.944 600.339 376.429 600.658C375.919 600.977 375.331 601.137 374.666 601.137C373.663 601.137 372.85 600.788 372.225 600.091C371.605 599.394 371.296 598.471 371.296 597.322V597.233ZM372.567 597.384C372.567 598.204 372.756 598.863 373.134 599.359C373.517 599.856 374.028 600.104 374.666 600.104C375.308 600.104 375.819 599.854 376.197 599.353C376.575 598.847 376.764 598.14 376.764 597.233C376.764 596.422 376.571 595.766 376.183 595.265C375.8 594.759 375.29 594.506 374.652 594.506C374.028 594.506 373.524 594.754 373.141 595.251C372.758 595.748 372.567 596.459 372.567 597.384ZM380.139 601V594.581H378.97V593.604H380.139V592.975C380.139 592.15 380.373 591.507 380.843 591.047C381.317 590.587 381.984 590.356 382.846 590.356C383.356 590.356 384.001 590.495 384.78 590.773L384.568 591.84C383.999 591.612 383.456 591.498 382.941 591.498C382.399 591.498 382.007 591.621 381.766 591.867C381.529 592.109 381.41 592.473 381.41 592.961V593.604H382.921V594.581H381.41V601H380.139ZM385.409 601H384.138V593.604H385.409V601ZM388.941 601H387.676V590.5H388.941V601ZM394.14 601.137C393.138 601.137 392.322 600.809 391.693 600.152C391.064 599.492 390.75 598.61 390.75 597.507V597.274C390.75 596.541 390.889 595.887 391.167 595.312C391.449 594.734 391.841 594.283 392.343 593.959C392.848 593.631 393.395 593.467 393.983 593.467C394.945 593.467 395.692 593.784 396.225 594.417C396.759 595.05 397.025 595.957 397.025 597.138V597.664H392.014C392.033 598.393 392.245 598.983 392.65 599.435C393.06 599.881 393.58 600.104 394.209 600.104C394.655 600.104 395.034 600.013 395.344 599.831C395.653 599.649 395.925 599.407 396.157 599.106L396.929 599.708C396.31 600.66 395.38 601.137 394.14 601.137ZM393.983 594.506C393.473 594.506 393.044 594.693 392.698 595.066C392.352 595.436 392.138 595.955 392.055 596.625H395.761V596.529C395.724 595.887 395.551 595.39 395.241 595.039C394.931 594.684 394.512 594.506 393.983 594.506ZM404.608 599.284L406.44 593.604H407.732L405.08 601H404.116L401.436 593.604H402.728L404.608 599.284ZM410.423 601H409.158V593.604H410.423V601ZM409.056 591.642C409.056 591.437 409.117 591.263 409.24 591.122C409.368 590.981 409.555 590.91 409.801 590.91C410.047 590.91 410.234 590.981 410.361 591.122C410.489 591.263 410.553 591.437 410.553 591.642C410.553 591.847 410.489 592.018 410.361 592.154C410.234 592.291 410.047 592.359 409.801 592.359C409.555 592.359 409.368 592.291 409.24 592.154C409.117 592.018 409.056 591.847 409.056 591.642ZM415.622 601.137C414.62 601.137 413.804 600.809 413.175 600.152C412.546 599.492 412.232 598.61 412.232 597.507V597.274C412.232 596.541 412.371 595.887 412.649 595.312C412.931 594.734 413.323 594.283 413.825 593.959C414.33 593.631 414.877 593.467 415.465 593.467C416.427 593.467 417.174 593.784 417.707 594.417C418.241 595.05 418.507 595.957 418.507 597.138V597.664H413.496C413.515 598.393 413.727 598.983 414.132 599.435C414.542 599.881 415.062 600.104 415.691 600.104C416.137 600.104 416.516 600.013 416.826 599.831C417.135 599.649 417.407 599.407 417.639 599.106L418.412 599.708C417.792 600.66 416.862 601.137 415.622 601.137ZM415.465 594.506C414.955 594.506 414.526 594.693 414.18 595.066C413.834 595.436 413.62 595.955 413.538 596.625H417.243V596.529C417.206 595.887 417.033 595.39 416.723 595.039C416.413 594.684 415.994 594.506 415.465 594.506ZM426.626 599.257L428.048 593.604H429.312L427.159 601H426.134L424.336 595.395L422.586 601H421.56L419.414 593.604H420.672L422.128 599.141L423.85 593.604H424.869L426.626 599.257ZM435.011 599.038C435.011 598.696 434.881 598.432 434.621 598.245C434.366 598.054 433.917 597.89 433.275 597.753C432.637 597.616 432.128 597.452 431.75 597.261C431.377 597.069 431.099 596.841 430.916 596.577C430.738 596.313 430.65 595.998 430.65 595.634C430.65 595.028 430.905 594.515 431.415 594.096C431.93 593.676 432.586 593.467 433.384 593.467C434.223 593.467 434.902 593.683 435.421 594.116C435.945 594.549 436.207 595.103 436.207 595.777H434.936C434.936 595.431 434.788 595.132 434.491 594.882C434.2 594.631 433.831 594.506 433.384 594.506C432.924 594.506 432.564 594.606 432.304 594.807C432.044 595.007 431.914 595.269 431.914 595.593C431.914 595.898 432.035 596.128 432.277 596.283C432.518 596.438 432.953 596.586 433.582 596.728C434.216 596.869 434.728 597.037 435.12 597.233C435.512 597.429 435.802 597.666 435.988 597.944C436.18 598.218 436.276 598.553 436.276 598.949C436.276 599.61 436.011 600.141 435.483 600.542C434.954 600.938 434.268 601.137 433.425 601.137C432.833 601.137 432.308 601.032 431.853 600.822C431.397 600.613 431.039 600.321 430.779 599.947C430.524 599.569 430.397 599.161 430.397 598.724H431.661C431.684 599.147 431.853 599.485 432.167 599.735C432.486 599.981 432.905 600.104 433.425 600.104C433.904 600.104 434.286 600.009 434.573 599.817C434.865 599.621 435.011 599.362 435.011 599.038Z"
          fill="#292929"/>
    <g filter="url(#filter0_d_5825_25780)">
        <circle cx="175" cy="157" r="19" fill="#7B97BC"/>
        <circle cx="175" cy="157" r="19" fill="white" fill-opacity="0.9"/>
    </g>
    <path d="M178.538 163.999L178.247 165.257C178.024 166.221 177.201 166.918 176.229 166.993L176.055 166.999H173.944C172.954 166.999 172.089 166.354 171.797 165.423L171.751 165.256L171.461 163.999H178.538ZM175 147.001C179.004 147.001 182.25 150.247 182.25 154.251C182.25 156.387 181.314 158.344 179.485 160.091C179.449 160.125 179.425 160.168 179.414 160.216L178.886 162.499H175.75V155.75C175.75 155.336 175.414 155 175 155C174.586 155 174.25 155.336 174.25 155.75V162.499H171.114L170.588 160.216C170.577 160.169 170.552 160.125 170.517 160.091C168.686 158.344 167.75 156.387 167.75 154.251C167.75 150.247 170.996 147.001 175 147.001ZM174.25 151.75V153.25C174.25 153.665 174.586 154 175 154C175.414 154 175.75 153.665 175.75 153.25V151.75C175.75 151.336 175.414 151 175 151C174.586 151 174.25 151.336 174.25 151.75ZM179.28 153.216C178.987 152.923 178.513 152.923 178.22 153.216L177.159 154.276C176.866 154.569 176.866 155.044 177.159 155.337C177.452 155.63 177.927 155.63 178.22 155.337L179.28 154.276C179.573 153.984 179.573 153.509 179.28 153.216ZM171.78 153.216C171.487 152.923 171.013 152.923 170.72 153.216C170.427 153.509 170.427 153.984 170.72 154.276L171.78 155.337C172.073 155.63 172.548 155.63 172.841 155.337C173.134 155.044 173.134 154.569 172.841 154.276L171.78 153.216Z"
          fill="#3FB9C0"/>
    <g filter="url(#filter1_d_5825_25780)">
        <circle cx="259" cy="370" r="19" fill="#7B97BC"/>
        <circle cx="259" cy="370" r="19" fill="white" fill-opacity="0.9"/>
    </g>
    <path d="M263.5 362C261.015 362 259 364.015 259 366.5C259 366.793 259.029 367.081 259.083 367.359L252.657 374.018C251.693 375.018 251.797 376.63 252.882 377.497C253.825 378.25 255.184 378.17 256.031 377.311L262.396 370.863C262.75 370.953 263.12 371 263.5 371C265.986 371 268 368.985 268 366.5C268 366.153 267.961 365.815 267.886 365.489C267.846 365.312 267.712 365.171 267.537 365.12C267.362 365.07 267.174 365.119 267.046 365.247L264.5 367.793L262.208 365.5L264.753 362.955C264.882 362.826 264.93 362.638 264.88 362.463C264.83 362.288 264.689 362.155 264.511 362.114C264.186 362.039 263.847 362 263.5 362Z"
          fill="#3FB9C0"/>
    <rect x="353" y="16" width="89" height="34" rx="12" fill="#BAE8CF"/>
    <path d="M374.104 22.8989C374.471 22.1557 375.531 22.1557 375.898 22.8989L377.828 26.8104L382.145 27.4377C382.965 27.5568 383.293 28.5648 382.699 29.1434L379.576 32.188L380.313 36.4872C380.453 37.3041 379.596 37.927 378.862 37.5414L375.001 35.5116L371.14 37.5414C370.407 37.9271 369.549 37.3041 369.689 36.4872L370.427 32.188L367.303 29.1434C366.71 28.5648 367.037 27.5568 367.857 27.4377L372.174 26.8104L374.104 22.8989ZM369.39 32.6876C369.563 32.9033 369.528 33.2179 369.312 33.3904L366.812 35.3904C366.597 35.5629 366.282 35.528 366.11 35.3123C365.937 35.0967 365.972 34.7821 366.188 34.6096L368.688 32.6096C368.903 32.437 369.218 32.472 369.39 32.6876ZM369.312 25.1096C369.528 25.2821 369.563 25.5967 369.39 25.8124C369.218 26.028 368.903 26.063 368.688 25.8904L366.188 23.8904C365.972 23.7179 365.937 23.4033 366.11 23.1877C366.282 22.972 366.597 22.9371 366.812 23.1096L369.312 25.1096ZM380.61 32.6876C380.437 32.9033 380.472 33.2179 380.688 33.3904L383.188 35.3904C383.403 35.5629 383.718 35.528 383.89 35.3123C384.063 35.0967 384.028 34.7821 383.812 34.6096L381.312 32.6096C381.097 32.437 380.782 32.472 380.61 32.6876ZM380.688 25.1096C380.472 25.2821 380.437 25.5967 380.61 25.8124C380.782 26.028 381.097 26.063 381.312 25.8904L383.812 23.8904C384.028 23.7179 384.063 23.4033 383.89 23.1877C383.718 22.972 383.403 22.9371 383.188 23.1096L380.688 25.1096Z"
          fill="#3FB9C0"/>
    <path d="M397.672 32.9297C396.385 32.5599 395.448 32.1068 394.859 31.5703C394.276 31.0286 393.984 30.362 393.984 29.5703C393.984 28.6745 394.341 27.9349 395.055 27.3516C395.773 26.763 396.706 26.4688 397.852 26.4688C398.640 26.4688 399.328 26.6198 399.938 26.9219C400.552 27.224 401.026 27.6406 401.359 28.1719C401.698 28.7031 401.867 29.2839 401.867 29.9141H400.359C400.359 29.2266 400.141 28.6875 399.703 28.2969C399.266 27.901 398.648 27.7031 397.852 27.7031C397.112 27.7031 396.534 27.8672 396.117 28.1953C395.706 28.5182 395.5 28.9688 395.5 29.5469C395.5 30.0104 395.695 30.4036 396.086 30.7266C396.482 31.0443 397.151 31.3359 398.094 31.6016C399.042 31.8672 399.781 32.1615 400.312 32.4844C400.849 32.8021 401.245 33.1745 401.5 33.6016C401.76 34.0286 401.891 34.5312 401.891 35.1094C401.891 36.0312 401.531 36.7708 400.812 37.3281C400.094 37.8802 399.133 38.1562 397.93 38.1562C397.148 38.1562 396.419 38.0078 395.742 37.7109C395.065 37.4089 394.542 36.9974 394.172 36.4766C393.807 35.9557 393.625 35.3646 393.625 34.7031H395.133C395.133 35.3906 395.385 35.9349 395.891 36.3359C396.401 36.7318 397.081 36.9297 397.93 36.9297C398.721 36.9297 399.328 36.7682 399.75 36.4453C400.172 36.1224 400.383 35.6823 400.383 35.125C400.383 34.5677 400.188 34.138 399.797 33.8359C399.406 33.5286 398.698 33.2266 397.672 32.9297ZM403.211 33.6953C403.211 32.8672 403.372 32.1224 403.695 31.4609C404.023 30.7995 404.477 30.2891 405.055 29.9297C405.638 29.5703 406.302 29.3906 407.047 29.3906C408.198 29.3906 409.128 29.7891 409.836 30.5859C410.549 31.3828 410.906 32.4427 410.906 33.7656V33.8672C410.906 34.6901 410.747 35.4297 410.43 36.0859C410.117 36.737 409.667 37.2448 409.078 37.6094C408.495 37.974 407.823 38.1562 407.062 38.1562C405.917 38.1562 404.987 37.7578 404.273 36.9609C403.565 36.1641 403.211 35.1094 403.211 33.7969V33.6953ZM404.664 33.8672C404.664 34.8047 404.88 35.5573 405.312 36.125C405.75 36.6927 406.333 36.9766 407.062 36.9766C407.797 36.9766 408.38 36.6901 408.812 36.1172C409.245 35.5391 409.461 34.7318 409.461 33.6953C409.461 32.7682 409.24 32.0182 408.797 31.4453C408.359 30.8672 407.776 30.5781 407.047 30.5781C406.333 30.5781 405.758 30.862 405.32 31.4297C404.883 31.9974 404.664 32.8099 404.664 33.8672ZM412.336 33.6953C412.336 32.8672 412.497 32.1224 412.82 31.4609C413.148 30.7995 413.602 30.2891 414.18 29.9297C414.763 29.5703 415.427 29.3906 416.172 29.3906C417.323 29.3906 418.253 29.7891 418.961 30.5859C419.674 31.3828 420.031 32.4427 420.031 33.7656V33.8672C420.031 34.6901 419.872 35.4297 419.555 36.0859C419.242 36.737 418.792 37.2448 418.203 37.6094C417.62 37.974 416.948 38.1562 416.188 38.1562C415.042 38.1562 414.112 37.7578 413.398 36.9609C412.69 36.1641 412.336 35.1094 412.336 33.7969V33.6953ZM413.789 33.8672C413.789 34.8047 414.005 35.5573 414.438 36.125C414.875 36.6927 415.458 36.9766 416.188 36.9766C416.922 36.9766 417.505 36.6901 417.938 36.1172C418.37 35.5391 418.586 34.7318 418.586 33.6953C418.586 32.7682 418.365 32.0182 417.922 31.4453C417.484 30.8672 416.901 30.5781 416.172 30.5781C415.458 30.5781 414.883 30.862 414.445 31.4297C414.008 31.9974 413.789 32.8099 413.789 33.8672ZM423.211 29.5469L423.258 30.6094C423.904 29.7969 424.747 29.3906 425.789 29.3906C427.576 29.3906 428.477 30.3984 428.492 32.4141V38H427.047V32.4062C427.042 31.7969 426.901 31.3464 426.625 31.0547C426.354 30.763 425.93 30.6172 425.352 30.6172C424.883 30.6172 424.471 30.7422 424.117 30.9922C423.763 31.2422 423.487 31.5703 423.289 31.9766V38H421.844V29.5469H423.211Z"
          fill="#007089"/>
    <defs>
        <filter id="filter0_d_5825_25780" x="140" y="126" width="70" height="70" filterUnits="userSpaceOnUse"
                color-interpolation-filters="sRGB">
            <feFlood flood-opacity="0" result="BackgroundImageFix"/>
            <feColorMatrix in="SourceAlpha" type="matrix" values="0 0 0 0 0 0 0 0 0 0 0 0 0 0 0 0 0 0 127 0"
                           result="hardAlpha"/>
            <feOffset dy="4"/>
            <feGaussianBlur stdDeviation="8"/>
            <feColorMatrix type="matrix" values="0 0 0 0 0 0 0 0 0 0 0 0 0 0 0 0 0 0 0.1 0"/>
            <feBlend mode="normal" in2="BackgroundImageFix" result="effect1_dropShadow_5825_25780"/>
            <feBlend mode="normal" in="SourceGraphic" in2="effect1_dropShadow_5825_25780" result="shape"/>
        </filter>
        <filter id="filter1_d_5825_25780" x="224" y="339" width="70" height="70" filterUnits="userSpaceOnUse"
                color-interpolation-filters="sRGB">
            <feFlood flood-opacity="0" result="BackgroundImageFix"/>
            <feColorMatrix in="SourceAlpha" type="matrix" values="0 0 0 0 0 0 0 0 0 0 0 0 0 0 0 0 0 0 127 0"
                           result="hardAlpha"/>
            <feOffset dy="4"/>
            <feGaussianBlur stdDeviation="8"/>
            <feColorMatrix type="matrix" values="0 0 0 0 0 0 0 0 0 0 0 0 0 0 0 0 0 0 0.1 0"/>
            <feBlend mode="normal" in2="BackgroundImageFix" result="effect1_dropShadow_5825_25780"/>
            <feBlend mode="normal" in="SourceGraphic" in2="effect1_dropShadow_5825_25780" result="shape"/>
        </filter>
        <linearGradient id="paint0_linear_5825_25780" x1="240.206" y1="156.739" x2="237.939" y2="499.304"
                        gradientUnits="userSpaceOnUse">
            <stop stop-color="#9AAFCB"/>
            <stop offset="1" stop-color="#9AAFCB" stop-opacity="0.12"/>
        </linearGradient>
    </defs>
</svg>
